<svg width="100" height="100" viewBox="0 0 100 100" fill="none" xmlns="http://www.w3.org/2000/svg">
<path d="M24.7314 27.9282L23.9289 27.7513C23.5794 27.6742 23.2226 27.6347 22.8646 27.6333C21.5307 27.634 20.2515 28.1642 19.3082 29.1075C18.3643 30.0515 17.834 31.3317 17.834 32.6667V48.4321C17.834 50.2554 19.8389 51.3266 21.3075 50.381C23.7501 48.8049 26.6105 47.1986 30.4615 47.5508C35.1882 47.9802 39.3304 51.4863 40.401 56.1482L40.4015 56.1505C42.083 63.5259 36.5131 70.1 29.4007 70.1C26.099 70.1 23.5549 68.662 21.3658 67.2514C19.8261 66.2596 17.834 67.3556 17.834 69.1551V76.9836C17.834 79.2145 18.4786 80.829 19.3783 81.8624C20.2693 82.8858 21.4867 83.4333 22.8673 83.4333H49.0007H75.134C77.9152 83.4333 80.1673 81.1812 80.1673 78.4V32.6667C80.1673 31.3317 79.637 30.0515 78.6931 29.1075C77.75 28.1644 76.4711 27.6342 75.1374 27.6333C74.7813 27.6351 74.4265 27.6746 74.0788 27.7513L73.5601 27.8656L73.5224 27.8468C73.3129 27.8853 73.0414 27.9349 72.7151 27.9936C71.8873 28.1427 70.7066 28.3509 69.2925 28.5879C66.4665 29.0617 62.6985 29.6524 58.947 30.1166L24.7314 27.9282ZM24.7314 27.9282L24.7611 27.8985M24.7314 27.9282L24.7611 27.8985M24.7611 27.8985C24.9155 27.9267 25.0911 27.9585 25.2862 27.9936C26.114 28.1427 27.2947 28.3509 28.7088 28.5879C31.5349 29.0617 35.3031 29.6524 39.0547 30.1166M24.7611 27.8985L43.3713 23.2125M39.0547 30.1166C39.0544 30.1166 39.0541 30.1166 39.0538 30.1165L39.2389 28.628L39.0547 30.1166ZM39.0547 30.1166C42.8314 30.5855 45.4699 26.4155 43.3713 23.2125M43.3713 23.2125L42.1164 24.0342L43.3713 23.2125ZM57.2627 15.5112L57.2626 15.5108C56.9362 12.05 54.3317 9.02338 50.9822 8.25714L50.9818 8.25706C50.2949 8.09974 49.6215 8.03018 48.9631 8.0333C44.3972 8.05494 40.7007 11.7633 40.7007 16.3333C40.7007 18.9002 41.866 20.9137 43.371 23.212L57.2627 15.5112ZM57.2627 15.5112C57.5427 18.4712 56.2909 20.6772 54.6431 23.1928L57.2627 15.5112ZM54.6429 23.1932C52.5481 26.3898 55.1442 30.5879 58.9466 30.1166L54.6429 23.1932Z" stroke="#159C15" stroke-width="3"/>
</svg>
