<svg width="100" height="100" viewBox="0 0 100 100" fill="none" xmlns="http://www.w3.org/2000/svg">
<path d="M58.6809 80.3162H41.5829V77.3569H58.6809V80.3162ZM56.9054 82.8151H43.3585V85.7744H56.9054V82.8151ZM54.8668 87.2211H45.3971V90.1804H54.9325V87.2211H54.8668ZM52.3678 90.2462H47.9618V92.0875H52.3678V90.2462ZM38.8209 74.8579V64.073C35.3355 61.4426 19.3555 48.7506 19.3555 37.1108C19.3555 21.0649 33.0996 7.9126 50.0004 7.9126C66.9011 7.9126 80.6453 21.0649 80.6453 37.1765C80.6453 48.7506 64.731 61.4426 61.2456 64.073V74.8579H38.8209ZM50.0004 10.9376C34.8752 10.9376 22.5778 22.709 22.5778 37.1765C22.5778 48.4218 41.2541 62.0344 41.3856 62.1659L42.0432 62.6263V71.8329H58.0233V62.6263L58.6809 62.1659C58.8782 62.0344 77.423 48.4218 77.423 37.1765C77.423 22.709 65.1256 10.9376 50.0004 10.9376Z" fill="#393939"/>
</svg>
