<svg width="100" height="100" viewBox="0 0 100 100" fill="none" xmlns="http://www.w3.org/2000/svg">
<path d="M10.896 77.838L30.712 30L41.067 54.999L47.28 39.999L57.633 64.998L61.774 54.999C61.774 55.001 67.989 70 67.989 70H90V24.999C90 22.25 87.751 20 85.001 20H14.999C12.25 20 10 22.25 10 24.999V74.999C10 76.054 10.334 77.028 10.896 77.838Z" stroke="#393939" stroke-width="2" stroke-miterlimit="10" stroke-linecap="round" stroke-linejoin="round"/>
<path d="M10.8965 77.838L30.7125 30L41.0675 54.999L47.2805 39.999L57.6335 64.998L61.7745 54.999C61.7745 55.001 67.9895 70 67.9895 70H90.0005V74.999C90.0005 77.75 87.7515 80 85.0015 80H14.9995C13.3045 80 11.8025 79.14 10.8965 77.838Z" stroke="#393939" stroke-width="2" stroke-miterlimit="10" stroke-linecap="round" stroke-linejoin="round"/>
<path d="M80.003 37.5C80.003 41.643 76.644 44.999 72.503 44.999C68.357 44.999 65.002 41.643 65.002 37.5C65.002 33.356 68.357 30 72.503 30C76.644 30 80.003 33.356 80.003 37.5Z" stroke="#393939" stroke-width="2" stroke-miterlimit="10" stroke-linecap="round" stroke-linejoin="round"/>
</svg>
