<svg width="1850" height="1843" viewBox="0 0 1850 1843" fill="none" xmlns="http://www.w3.org/2000/svg">
<path d="M1225.09 2.02673C1223.23 2.96008 1220.83 5.36011 1219.76 7.22668C1217.63 11.3601 1214.43 12.2935 1193.09 15.4934C1164.96 19.6267 1139.23 25.0934 1126.43 29.76C1067.49 51.3601 1049.23 63.3601 1017.63 100.96C1010.69 109.227 1004.43 116.027 1003.63 116.027C1002.83 116.027 998.693 114.027 994.56 111.493C979.76 102.56 961.76 94.4268 943.893 88.4268C924.16 81.8934 901.893 72.6934 890.56 66.2935L883.36 62.16L866.693 63.8934C842.96 66.16 844.693 65.3601 816.56 86.2935C810.427 90.8268 800.827 96.6934 795.36 99.2267C783.36 104.693 760.027 120.293 747.76 130.96C733.493 143.493 735.627 143.627 717.493 129.093C699.093 114.16 688.96 107.227 677.227 101.36C663.227 94.2935 639.093 87.0934 615.093 82.5601L592.427 78.4268L548.693 78.5601L504.827 78.6934L500.293 74.6934C494.56 69.6267 490.427 69.6267 476.427 74.4268C457.093 80.9601 428.16 101.227 418.827 114.56C416.96 117.227 416.827 118.693 418.16 123.493C420.16 130.96 418.427 135.76 408.427 151.093C394.827 172.027 378.827 207.893 369.76 238.027C363.36 259.227 360.693 276.693 360.56 299.36C360.427 315.893 360.96 320.293 364.96 338.96C368.693 355.76 369.227 360.293 367.893 361.893C366.96 362.96 361.893 365.493 356.693 367.493C340.693 373.493 318.827 385.227 306.693 394.427C300.293 399.093 291.76 404.56 287.76 406.293C259.893 418.693 248.827 425.893 244.56 434.427C242.827 437.893 239.493 442.96 237.227 445.893C231.627 452.96 230.693 457.093 229.093 484.027C228.293 498.56 226.693 511.627 224.96 518.693C222.827 527.627 222.027 536.16 221.493 559.627C220.827 585.36 220.427 589.36 218.56 589.893C217.36 590.293 205.627 592.96 192.427 596.027C166.16 601.76 152.16 607.627 131.76 621.093C106.56 637.893 72.8266 670.16 55.0932 694.56C31.8932 726.427 29.3599 729.36 24.9599 729.36C19.0932 729.36 16.2932 731.36 12.4266 737.893C6.69323 747.627 3.89323 757.627 1.75989 775.627C-1.44011 803.093 -0.373441 816.027 5.75989 821.36C7.22656 822.693 10.9599 826.027 14.0266 828.693C17.4932 831.627 20.4266 835.893 21.8932 839.76C28.2932 857.36 40.0266 886.027 43.7599 893.493C55.6266 916.96 76.5599 946.16 94.9599 965.093C111.493 982.027 119.627 987.893 143.36 999.893C152.293 1004.43 160.96 1009.23 162.56 1010.56L165.627 1012.96L162.027 1025.49C156.56 1044.83 154.693 1055.09 152.427 1078.83C151.227 1090.83 149.36 1103.89 148.293 1107.89C142.293 1129.23 140.96 1148.16 145.093 1154.96C146.56 1157.36 148.027 1162.03 148.56 1165.36C149.76 1173.09 153.36 1180.43 158.027 1183.89C164.027 1188.29 179.493 1202.69 188.96 1212.43C221.627 1246.29 231.227 1255.09 248.827 1266.69L251.893 1268.69L241.627 1289.36C224.293 1324.69 219.36 1345.09 219.493 1381.36C219.627 1418.96 224.293 1449.63 235.893 1487.89C240.293 1502.69 240.56 1506.83 237.493 1511.49C236.293 1513.36 235.36 1516.56 235.493 1518.56C235.76 1527.49 248.16 1545.49 265.36 1562.16C276.96 1573.49 285.493 1579.49 293.227 1582.03C299.493 1584.16 299.893 1584.16 304.293 1581.49C306.693 1579.89 309.627 1578.69 310.827 1578.69C312.027 1578.69 324.827 1582.29 339.36 1586.56C388.027 1601.23 401.493 1603.36 441.76 1603.23C478.96 1603.09 489.627 1600.83 525.76 1584.96C546.027 1576.16 547.093 1575.76 548.827 1578.16C572.827 1612.03 581.893 1622.83 593.627 1631.49C598.96 1635.36 605.493 1642.03 611.227 1649.76C627.893 1671.76 638.027 1681.36 644.827 1681.36C646.16 1681.36 652.16 1683.49 658.027 1686.03L668.827 1690.69L688.56 1687.36C699.493 1685.49 709.227 1683.63 710.16 1683.36C711.093 1683.09 721.227 1682.16 732.827 1681.36C758.16 1679.63 766.827 1678.29 785.493 1673.76C794.427 1671.49 800.16 1670.69 800.96 1671.49C801.627 1672.16 807.36 1683.09 813.76 1695.76C820.16 1708.56 828.027 1722.29 831.227 1726.56C844.96 1744.83 878.56 1773.76 904.027 1789.09C918.693 1797.89 953.893 1815.23 964.693 1818.83C973.627 1821.76 980.16 1826.96 984.027 1834.43C985.227 1836.83 987.893 1839.36 989.76 1840.03C999.76 1843.89 1040.03 1842.56 1058.16 1837.89C1067.49 1835.49 1075.36 1830.43 1077.23 1825.63C1081.63 1814.56 1082.69 1813.23 1090.03 1808.56C1123.36 1787.76 1147.89 1767.36 1169.36 1742.96C1201.49 1706.43 1208.96 1692.43 1221.09 1646.03L1225.23 1630.03H1257.49C1283.09 1630.03 1292.03 1629.49 1300.96 1627.76C1308.56 1626.03 1318.29 1625.36 1332.29 1625.36C1356.69 1625.23 1362.29 1624.29 1369.49 1618.83C1372.56 1616.43 1377.49 1613.49 1380.56 1612.16C1389.09 1608.16 1393.63 1602.43 1403.63 1582.83C1409.23 1571.76 1416.43 1560.03 1421.63 1553.49C1432.83 1539.49 1437.89 1530.96 1448.29 1508.96C1452.96 1499.09 1457.36 1490.69 1458.03 1490.29C1458.69 1489.89 1466.96 1491.36 1476.43 1493.49C1486.03 1495.76 1497.63 1498.43 1502.43 1499.36C1527.49 1504.96 1571.89 1498.96 1610.69 1484.83C1627.89 1478.56 1658.96 1464.16 1674.83 1455.09L1688.03 1447.63L1694.96 1448.96C1700.83 1450.29 1702.43 1450.16 1707.36 1447.89C1713.89 1444.83 1727.89 1430.29 1731.76 1422.69C1733.23 1419.76 1736.16 1415.49 1738.29 1413.09C1745.49 1404.83 1753.09 1386.16 1753.09 1376.69C1753.09 1373.89 1751.63 1370.56 1748.96 1367.23C1745.63 1362.96 1744.96 1361.23 1745.63 1357.49C1746.03 1354.96 1747.09 1341.76 1747.89 1328.03C1751.49 1272.16 1743.09 1218.56 1725.23 1182.96C1722.16 1176.96 1713.23 1163.36 1705.09 1152.56C1697.09 1141.89 1690.43 1132.83 1690.43 1132.43C1690.43 1132.03 1694.83 1127.09 1700.29 1121.36C1713.89 1106.83 1727.76 1088.16 1735.36 1074.03C1741.23 1063.09 1750.43 1050.29 1763.36 1034.96C1769.09 1028.03 1771.63 1021.49 1771.76 1013.63C1771.76 1010.43 1772.83 1004.03 1774.03 999.36L1776.29 990.96L1769.09 973.227C1765.23 963.36 1760.69 952.693 1758.96 949.36C1757.23 946.027 1754.96 938.693 1753.76 932.96C1750.96 919.093 1745.63 904.693 1734.96 882.427C1730.16 872.293 1726.56 863.493 1726.96 862.827C1727.49 862.16 1735.23 855.76 1744.29 848.693C1778.29 822.427 1794.83 799.227 1814.29 750.56C1821.49 732.427 1830.83 697.093 1833.23 678.693C1835.63 660.56 1836.69 657.893 1842.96 651.627C1849.89 644.827 1850.96 640.693 1849.09 626.16C1847.63 614.427 1839.23 588.96 1832.83 577.093C1827.23 566.427 1819.89 560.027 1813.36 560.027C1810.69 559.893 1807.09 559.227 1805.49 558.293C1804.03 557.36 1794.03 548.827 1783.49 539.093C1752.56 510.56 1730.83 495.493 1697.76 479.36C1666.43 464.16 1648.16 460.16 1610.83 460.027C1588.96 460.027 1591.76 462.16 1589.09 443.36C1586.56 425.893 1581.36 405.627 1575.89 392.827C1569.89 378.427 1567.09 370.16 1565.09 359.36C1561.89 342.96 1558.69 332.027 1556.03 328.427C1554.43 326.427 1548.16 319.627 1542.03 313.627C1529.63 301.227 1532.16 302.427 1497.76 293.493C1489.63 291.493 1478.29 287.36 1472.43 284.293C1459.23 277.493 1446.96 273.493 1424.43 268.693C1414.96 266.693 1406.56 264.56 1405.89 263.893C1405.23 263.36 1404.29 249.76 1403.63 233.627C1402.16 194.027 1399.23 181.76 1381.76 146.027C1366.29 114.293 1349.36 89.6267 1324.69 63.0934C1313.63 51.0934 1309.76 44.2935 1311.09 39.0934C1313.23 30.4268 1299.09 19.3601 1273.76 9.89343C1247.49 0.160034 1232.69 -2.23987 1225.09 2.02673ZM1266.29 34.16C1270.03 37.2267 1272.03 40.9601 1280.56 59.3601C1282.16 62.8268 1293.89 75.3601 1313.23 94.6934C1351.63 132.693 1361.23 146.827 1373.09 182.56C1380.29 203.76 1382.83 220.693 1382.03 240.693C1381.23 263.627 1380.56 264.427 1362.43 268.56C1350.16 271.36 1327.63 280.293 1315.63 287.093C1301.63 295.093 1292.96 302.827 1285.63 314.293C1281.36 320.827 1278.83 323.493 1277.76 322.693C1276.96 322.027 1273.49 316.96 1269.89 311.36C1264.03 302.16 1263.36 300.293 1261.63 287.227C1259.49 272.693 1255.36 259.493 1249.76 249.893C1243.09 238.427 1218.56 218.693 1202.16 211.493C1188.16 205.36 1176.56 203.36 1155.09 203.36C1137.49 203.36 1134.16 203.76 1127.63 206.427C1118.03 210.293 1107.23 217.36 1094.16 228.16C1085.89 235.227 1082.29 237.227 1074.16 239.627C1068.83 241.227 1063.49 242.827 1062.43 243.227C1060.69 243.893 1060.43 241.227 1060.43 223.76C1060.43 200.427 1059.76 197.76 1048.29 174.027C1041.63 160.16 1037.23 152.827 1027.63 139.36C1022.56 132.427 1022.83 130.293 1030.43 119.093C1039.89 104.827 1052.43 92.5601 1068.29 82.0267C1094.69 64.5601 1118.83 54.16 1143.09 50.16C1156.29 47.8934 1192.29 45.3601 1211.23 45.3601C1223.36 45.3601 1223.49 45.3601 1237.89 38.0267C1254.69 29.4934 1260.03 28.8268 1266.29 34.16ZM881.36 97.8934C893.227 102.16 907.093 105.627 919.76 107.36C932.427 109.227 947.493 113.76 959.093 119.227C975.093 126.827 994.96 139.227 1002.83 146.56C1011.89 154.96 1025.49 176.027 1033.09 193.093C1040.16 208.96 1041.89 215.76 1043.09 231.493L1044.03 242.293L1029.49 243.227C1010.03 244.427 1000.29 246.827 983.893 254.827C967.093 263.093 957.76 271.627 953.893 282.427C952.027 287.627 951.093 289.227 949.893 288.027C949.093 287.227 937.36 271.76 923.76 253.627C894.693 214.827 890.693 211.227 878.427 212.693C861.627 214.827 860.027 217.093 829.093 282.027L819.493 302.027L816.693 298.16C804.56 281.76 790.96 274.293 766.16 270.827C758.96 269.893 739.76 270.56 723.093 272.427C719.093 272.827 716.827 264.293 716.827 249.36C716.827 229.227 722.693 206.293 733.093 185.36C740.027 171.627 747.227 162.293 759.36 151.627C779.627 134.027 795.76 124.427 823.093 114.16C828.293 112.293 839.627 106.827 848.427 102.027C857.227 97.3601 865.493 93.3601 866.693 93.3601C867.893 93.3601 874.56 95.3601 881.36 97.8934ZM606.16 104.027C633.36 107.093 665.893 118.693 690.293 134.293C698.96 139.893 712.16 152.16 715.76 158.16L718.427 162.293L712.56 175.493C701.36 200.96 696.96 218.827 696.827 239.36C696.693 253.493 698.56 264.027 702.56 272.56L704.96 277.627L698.693 276.96C695.227 276.427 688.427 275.76 683.36 275.227C675.893 274.427 672.96 273.36 665.76 268.56C648.16 257.093 627.893 250.96 612.293 252.56C601.893 253.627 580.293 260.827 566.16 268.16C557.36 272.693 552.427 276.56 541.627 287.227C517.627 311.36 513.893 320.16 513.76 352.693C513.76 374.027 513.76 374.16 509.093 385.76C506.56 392.16 504.027 397.36 503.627 397.36C503.093 397.36 499.493 394.16 495.493 390.293C486.427 381.36 477.627 375.227 467.893 371.36C455.093 366.16 433.76 361.36 415.227 359.493C405.493 358.56 396.293 357.093 394.827 356.16C388.16 352.693 381.893 325.093 382.027 300.693C382.293 264.96 392.16 232.293 413.093 198.56C416.693 192.827 425.493 179.893 432.827 169.76C448.827 147.627 450.96 143.493 454.427 128.693C457.493 115.493 459.76 110.427 464.027 107.493C468.16 104.56 477.893 104.827 487.227 108.16C498.16 112.16 513.76 111.893 542.427 107.627C576.293 102.427 586.16 101.893 606.16 104.027ZM1175.89 225.893C1187.89 227.893 1196.69 231.627 1209.09 240.027C1230.56 254.693 1237.49 265.893 1240.29 290.827C1242.29 308.16 1243.76 311.627 1256.03 329.627C1264.43 342.027 1268.69 346.16 1282.96 356.56C1293.76 364.293 1301.23 373.493 1310.56 390.427C1315.76 399.76 1317.76 404.827 1318.16 409.893C1318.83 418.96 1316.56 426.96 1311.49 432.827C1306.83 438.027 1287.63 447.893 1268.43 454.827C1258.03 458.56 1254.56 459.227 1243.09 459.227C1229.89 459.36 1229.63 459.36 1211.09 451.76C1183.36 440.56 1174.83 439.493 1148.83 443.893C1136.16 446.16 1128.69 448.16 1107.63 455.493C1106.03 456.027 1104.03 453.76 1100.03 446.427C1085.89 420.827 1064.43 398.427 1046.03 390.027C1042.16 388.16 1034.29 385.627 1028.56 384.16C1016.03 380.96 1006.16 376.427 998.827 370.027C991.893 364.16 981.76 348.427 972.027 328.427C965.227 314.427 964.427 311.893 964.56 304.693C964.827 290.293 970.827 282.56 987.893 274.827C1006.29 266.56 1012.56 265.36 1039.09 265.36C1061.09 265.36 1064.56 265.093 1074.83 262.027C1092.69 256.96 1100.16 252.96 1110.03 243.627C1119.49 234.827 1128.43 228.96 1136.83 225.893C1143.36 223.627 1161.63 223.627 1175.89 225.893ZM884.693 242.293C913.76 278.827 936.56 312.693 950.427 339.36C964.827 367.093 970.693 376.027 980.96 385.627C991.76 395.893 999.227 399.76 1019.76 405.76C1040.43 411.893 1045.36 414.56 1057.09 426.56C1066.69 436.16 1085.09 461.493 1085.09 464.96C1085.09 465.893 1082.29 468.427 1078.83 470.827C1064.16 480.693 1052.96 489.227 1040.43 500.027L1026.96 511.627L1022.43 508.427C1012.83 501.76 1003.49 506.693 981.627 529.76C961.227 551.36 951.093 568.96 947.76 588.293C946.16 597.627 946.427 633.627 948.293 637.493C949.093 639.493 947.893 639.76 938.827 640.427C933.093 640.693 922.96 641.76 916.16 642.56C909.36 643.493 900.16 644.027 895.493 643.76L887.093 643.36L886.16 631.493C883.36 593.76 868.96 569.36 835.227 544.827C806.96 524.16 794.96 520.56 789.627 530.96L787.627 534.827L778.827 529.76C773.893 526.96 759.093 519.227 745.893 512.693L721.76 500.693L721.893 495.893C722.16 485.893 741.893 450.827 752.56 441.36C755.093 439.227 764.16 433.893 772.96 429.36C797.627 416.827 810.293 403.627 819.36 381.093C821.227 376.56 825.76 362.293 829.36 349.493C834.16 332.16 838.56 320.427 846.693 302.827C861.093 271.227 878.16 237.36 879.493 237.36C880.16 237.36 882.427 239.627 884.693 242.293ZM634.693 277.36C639.493 278.827 648.427 283.36 654.827 287.493C665.627 294.427 666.96 294.96 680.027 296.827C700.16 299.76 710.427 299.36 725.76 295.493C736.16 292.827 742.427 292.027 754.027 292.027C780.693 292.027 795.627 297.093 804.293 309.227C808.16 314.56 808.427 315.627 808.293 325.893C808.16 334.16 806.96 340.693 803.227 353.36C794.027 384.56 786.56 395.36 766.56 406.293C738.56 421.493 730.56 428.56 718.693 448.293C712.56 458.427 710.427 463.227 700.827 486.027C698.293 492.16 696.96 493.893 694.96 493.76C654.027 488.693 629.227 490.56 610.427 500.027C607.093 501.627 599.893 506.16 594.427 510.027C576.693 522.427 571.493 524.427 557.093 525.093C537.093 525.893 505.493 519.36 493.76 511.893C488.96 508.827 486.827 506.16 483.76 499.627C481.493 495.093 479.76 490.027 479.76 488.56C479.76 482.96 486.56 461.893 491.627 451.36C494.96 444.693 501.227 435.627 508.16 427.36C519.76 413.627 523.227 407.76 530.693 389.76C534.96 379.493 534.96 379.093 535.093 356.693C535.227 330.027 536.693 324.827 547.893 310.96C570.693 282.693 606.827 268.693 634.693 277.36ZM1421.09 291.893C1442.56 296.293 1457.09 302.027 1473.49 312.293C1486.69 320.56 1500.29 327.093 1513.89 331.893L1524.03 335.36L1529.23 349.36C1532.16 357.093 1539.49 373.493 1545.63 386.027C1551.89 398.427 1558.16 412.427 1559.49 416.827C1564.29 431.493 1566.83 450.293 1566.83 470.027C1566.96 487.493 1566.69 489.493 1562.69 500.96C1557.36 516.427 1547.09 536.96 1539.49 547.36C1530.69 559.36 1515.76 571.493 1515.76 566.827C1515.76 564.56 1500.56 549.093 1491.76 542.427C1486.96 538.693 1476.96 532.827 1469.36 529.093C1453.09 521.093 1443.23 519.627 1431.89 523.36C1428.03 524.56 1424.69 525.36 1424.43 525.093C1423.76 524.56 1426.56 513.493 1436.69 475.36C1445.89 441.093 1446.56 431.36 1440.69 423.493C1438.56 420.827 1434.56 416.96 1431.63 415.093C1426.69 411.893 1425.63 411.76 1416.16 412.56C1410.43 412.96 1391.76 416.693 1374.43 420.56C1357.23 424.56 1340.69 428.293 1337.89 428.827C1332.69 429.76 1332.69 429.76 1333.63 425.893C1334.16 423.76 1334.96 417.36 1335.36 411.627C1336.03 402.693 1335.63 400.027 1332.43 390.96C1325.36 370.827 1311.49 350.827 1296.43 338.96L1291.09 334.827L1302.43 323.76C1314.43 312.027 1325.36 305.36 1345.89 297.36C1364.29 290.16 1375.76 288.027 1393.09 288.56C1401.49 288.96 1414.16 290.427 1421.09 291.893ZM441.093 385.76C448.827 387.627 458.827 390.56 463.493 392.427C471.627 395.76 488.56 406.293 491.493 409.627C492.56 410.96 491.227 413.493 486.293 419.36C471.76 436.693 461.76 465.093 462.693 486.16C463.093 495.627 463.627 497.76 467.493 503.893C469.76 507.76 471.76 511.093 471.76 511.36C471.76 511.493 451.76 511.493 427.493 511.093C374.16 510.293 373.627 510.427 366.16 521.36C357.76 533.76 358.56 536.96 383.893 589.76C391.893 606.56 398.427 620.693 398.427 621.36C398.427 621.893 392.16 622.56 384.56 622.96L370.693 623.36L360.96 630.027C346.16 640.16 329.36 657.493 321.493 670.693C316.427 679.36 314.16 681.893 312.293 681.627C307.76 680.693 290.427 667.76 282.16 658.96C266.693 642.427 251.36 615.093 246.96 596.56C245.227 589.093 244.96 582.027 245.493 558.693L246.027 530.027L252.16 511.36C257.893 493.493 261.227 479.227 263.227 464.693C263.627 460.96 264.96 456.96 266.16 455.627C267.227 454.427 273.893 449.493 280.96 444.827C288.027 440.16 298.56 432.16 304.427 427.093C310.293 422.027 318.16 415.493 322.027 412.427C334.027 402.96 366.16 387.76 383.627 383.227C394.827 380.427 423.36 381.76 441.093 385.76ZM1421.09 437.227C1421.09 439.76 1403.63 504.96 1399.63 517.36C1397.36 524.293 1392.96 536.027 1389.76 543.36C1386.56 550.693 1380.96 563.627 1377.36 572.16C1368.56 592.427 1366.03 604.827 1367.23 620.693C1368.16 633.36 1369.89 639.227 1377.76 656.96C1383.76 670.693 1384.83 680.96 1382.03 699.36C1379.63 714.693 1374.16 733.093 1370.69 737.36C1368.29 740.293 1368.16 740.293 1361.63 738.293C1351.63 734.96 1329.63 729.627 1312.96 726.16L1297.76 723.227L1296.69 717.227C1294.56 706.427 1290.56 704.16 1268.43 700.693C1257.76 698.96 1248.69 698.56 1233.76 698.96C1215.76 699.493 1212.56 699.893 1202.03 703.627C1186.43 709.093 1177.89 714.427 1162.16 728.427L1148.96 740.16L1145.36 737.093C1130.69 724.827 1125.49 719.627 1119.36 711.627C1115.63 706.693 1111.09 701.627 1109.36 700.56L1106.16 698.427L1116.69 687.493C1122.56 681.627 1129.89 673.493 1132.83 669.76C1148.43 649.627 1154.96 620.16 1151.76 584.693C1150.03 564.293 1148.56 559.227 1143.09 553.76C1139.76 550.427 1137.49 549.36 1134.03 549.36C1129.36 549.36 1129.23 549.227 1128.43 542.96C1126.83 530.96 1121.09 502.027 1117.89 490.027C1116.16 483.493 1114.96 477.627 1115.36 476.96C1117.49 473.36 1146.56 466.16 1164.83 464.693C1177.63 463.627 1184.03 465.227 1204.56 474.16C1223.89 482.56 1232.56 484.56 1247.09 483.627C1261.09 482.827 1269.23 480.427 1300.69 468.027C1324.96 458.293 1339.76 453.893 1373.09 446.16C1384.43 443.493 1398.56 440.16 1404.43 438.693C1416.56 435.893 1421.09 435.493 1421.09 437.227ZM1645.76 484.16C1658.69 487.493 1677.23 494.027 1686.29 498.16C1707.49 507.893 1732.43 527.227 1752.43 549.36C1786.16 586.56 1785.36 585.76 1799.63 593.36C1822.69 605.36 1824.16 609.76 1812.69 632.16L1805.49 646.027L1802.56 680.693C1800.96 699.76 1798.83 719.227 1797.76 724.027C1790.16 759.627 1771.49 793.76 1745.76 819.36C1732.16 832.96 1718.03 842.693 1711.89 842.693C1710.03 842.693 1701.89 838.027 1692.83 832.027C1658.03 808.56 1631.09 798.96 1610.96 802.693C1606.16 803.627 1601.89 803.893 1601.36 803.493C1600.96 802.96 1602.29 797.36 1604.43 791.093C1607.76 781.093 1609.36 778.427 1618.29 768.693C1629.36 756.56 1635.49 747.36 1640.96 734.427C1644.16 726.693 1644.43 724.56 1644.43 707.36C1644.43 678.56 1639.63 662.16 1623.89 637.76C1614.83 623.493 1606.16 615.627 1592.69 609.36C1580.43 603.627 1575.76 602.16 1560.03 599.493C1550.43 597.76 1547.89 596.693 1538.43 590.027C1532.56 585.893 1527.76 582.027 1527.76 581.36C1527.76 580.827 1529.63 579.627 1532.03 578.827C1551.23 572.16 1574.03 539.627 1585.63 502.293C1588.29 493.893 1591.36 486.293 1592.43 485.36C1593.49 484.427 1596.43 483.227 1598.83 482.56C1604.29 481.093 1638.83 482.293 1645.76 484.16ZM1098.29 500.293C1103.49 519.093 1105.09 529.493 1106.03 549.36C1106.96 571.893 1106.43 574.027 1096.83 590.293C1093.36 596.293 1090.43 602.827 1090.43 604.827C1090.43 610.293 1095.23 614.693 1101.09 614.693C1106.56 614.693 1111.23 610.827 1122.83 596.96C1126.43 592.827 1129.89 589.36 1130.69 589.36C1132.83 589.36 1131.09 621.36 1128.43 631.227C1123.09 651.493 1107.36 671.093 1084.96 685.76C1072.43 693.893 1066.43 699.893 1066.43 704.427C1066.43 708.96 1064.83 710.427 1057.09 713.093C1041.63 718.427 1026.83 726.96 1008.03 741.093C1002.43 745.36 997.893 747.893 997.227 747.227C996.56 746.56 994.427 738.56 992.427 729.36C988.16 709.627 984.427 699.227 977.093 686.827C971.227 676.693 970.96 675.227 973.76 671.493C976.827 667.493 976.16 658.693 971.627 641.627C966.027 621.093 965.493 599.227 970.027 584.693C974.027 572.16 981.093 560.56 992.027 548.96L1000.96 539.36L1001.09 557.093V574.96L1004.96 578.827C1009.09 582.827 1013.89 583.76 1018.43 581.36C1021.23 579.893 1022.69 575.627 1025.76 560.16C1026.96 554.027 1029.23 546.427 1030.69 543.493C1037.63 529.76 1083.76 489.36 1092.43 489.36C1094.96 489.36 1095.76 490.827 1098.29 500.293ZM692.16 516.027C692.427 516.427 692.427 533.493 691.893 553.893L691.093 591.227L687.227 592.16C685.093 592.827 682.027 594.56 680.293 596.16C677.36 598.827 677.093 600.293 677.093 611.227C677.093 663.093 693.36 699.36 726.693 721.76C732.827 725.893 738.827 729.627 740.027 730.027C741.893 730.827 741.093 733.093 734.96 745.093C730.96 752.96 724.56 763.093 720.693 767.76C716.827 772.427 712.96 777.627 712.027 779.493C710.96 781.493 709.627 782.427 708.693 781.76C707.76 781.227 703.227 778.16 698.427 774.96C677.493 760.56 661.36 755.493 637.093 755.627C619.493 755.76 606.96 758.027 585.76 764.96C564.027 772.027 559.093 776.427 560.16 787.36L560.827 794.027L548.96 797.893C538.027 801.36 509.493 814.693 498.027 821.627L492.96 824.693L490.427 821.36C485.493 814.827 474.693 792.56 471.227 781.627C467.227 768.693 466.56 753.093 469.76 739.76C478.293 702.427 474.427 689.493 438.427 637.493C423.893 616.56 418.027 605.627 398.293 563.493L385.093 535.36L400.827 534.96C418.16 534.427 466.427 536.693 483.093 538.827C488.96 539.493 503.093 542.027 514.427 544.427C531.893 548.027 537.893 548.693 553.76 548.56C576.96 548.56 580.293 547.493 606.293 530.027C617.627 522.56 627.36 516.96 630.827 516.16C636.427 514.96 690.96 514.693 692.16 516.027ZM739.093 533.36C762.56 544.96 775.627 553.493 784.693 563.227C791.36 570.293 793.627 574.027 797.76 584.427C804.16 601.227 808.693 604.96 816.827 600.027C822.427 596.56 823.227 591.493 820.293 574.56C818.96 566.56 818.293 559.627 818.827 559.227C820.16 557.893 833.36 568.56 843.36 579.227C853.627 590.027 860.027 601.76 863.227 615.493C864.827 622.693 865.227 630.427 864.827 650.96L864.427 677.227L868.293 681.227L872.16 685.36L868.693 694.293C863.227 708.293 862.293 713.627 861.493 738.96C861.093 752.027 860.56 762.693 860.293 762.693C859.893 762.693 854.827 760.027 848.693 756.827C832.16 747.893 818.027 742.56 801.76 739.36L787.093 736.56L783.893 730.827C781.093 725.627 779.227 724.427 760.56 715.36C749.493 710.027 736.693 702.827 732.16 699.493C716.293 687.493 707.627 673.093 701.76 649.227C698.293 634.693 697.627 629.36 699.627 629.36C700.16 629.36 705.493 633.627 711.227 638.693C726.16 652.027 734.56 653.893 740.427 644.96C743.493 640.293 742.027 636.56 733.493 626.693C715.893 606.16 713.76 598.693 713.76 558.693C713.76 543.627 714.293 529.627 714.827 527.627C715.76 524.293 716.293 523.893 719.493 524.693C721.493 525.093 730.293 529.093 739.093 533.36ZM1456.69 544.427C1473.76 553.093 1487.76 565.227 1499.23 581.493C1508.69 594.96 1512.56 598.693 1527.76 608.56C1542.83 618.56 1544.69 619.36 1561.09 622.027C1584.29 625.893 1596.69 634.293 1609.76 655.36C1618.43 669.093 1620.96 676.693 1622.56 693.093C1625.63 722.96 1621.89 733.093 1599.09 757.36C1590.96 766.027 1588.83 769.893 1583.49 785.36C1579.89 795.627 1579.36 798.96 1578.43 820.693C1577.36 847.227 1575.63 855.493 1568.29 871.627C1560.03 889.76 1556.16 893.227 1540.29 896.56L1531.36 898.427L1512.56 888.427C1476.83 869.36 1468.96 861.893 1462.43 840.96C1460.03 833.493 1456.69 822.827 1454.83 817.227C1448.03 795.493 1433.89 779.76 1401.89 758.027C1394.96 753.36 1390.56 749.493 1390.96 748.427C1400.83 722.827 1406.29 699.627 1406.43 683.493C1406.43 669.627 1404.29 660.56 1396.69 642.16C1391.49 629.627 1391.09 627.893 1391.09 616.027C1391.09 601.36 1392.43 596.827 1403.89 571.627C1413.89 549.76 1415.76 547.227 1425.63 542.427C1436.16 537.36 1443.49 537.893 1456.69 544.427ZM227.093 615.493C228.293 616.693 231.227 621.627 233.627 626.56C250.827 660.427 279.893 690.027 300.96 695.093C304.693 695.893 307.76 696.96 307.76 697.493C307.76 697.893 303.093 702.693 297.493 708.293C290.027 715.493 285.227 718.96 280.427 720.56C260.16 727.76 241.493 739.76 234.293 750.293C228.427 758.693 220.56 776.16 216.827 788.693C214.293 797.76 213.76 802.16 213.893 818.027C214.027 846.56 218.693 861.76 232.293 878.56C239.36 887.36 244.96 892.16 257.627 900.427C262.827 903.893 265.493 907.093 271.227 917.227C275.227 924.16 278.427 929.893 278.427 930.16C278.427 930.427 274.693 930.693 270.16 930.693C247.493 930.693 226.96 941.893 197.227 970.027C187.493 979.227 178.027 987.093 176.293 987.493C171.36 988.827 165.227 987.093 153.227 981.36C137.893 973.893 132.027 969.627 114.693 952.827C82.5599 921.627 72.4266 903.493 56.2932 847.093C51.6266 830.693 46.6932 815.093 45.2266 812.427C43.7599 809.627 39.6266 803.76 35.8932 799.493C32.1599 795.093 28.1599 788.96 26.9599 785.893C24.9599 780.56 24.9599 779.893 27.2266 775.093C28.6932 772.16 33.0932 767.493 37.7599 764.027C52.0266 753.227 57.3599 746.693 72.2932 721.36C90.2932 690.827 96.0266 682.693 109.493 668.56C127.493 649.493 152.027 633.093 179.093 621.893C198.16 614.16 222.427 610.827 227.093 615.493ZM407.093 642.027C413.093 645.093 421.093 654.56 434.427 674.16C449.893 697.36 452.427 708.96 447.093 733.36C443.493 749.493 443.627 768.427 447.493 782.027C450.96 794.027 460.56 814.827 468.827 828.427L474.427 837.493L462.693 848.693C441.093 869.227 426.027 893.893 423.76 912.96C418.96 950.96 418.56 953.493 414.827 960.293C407.493 973.76 372.16 1005.09 360.693 1008.16C346.293 1012.03 334.827 1007.09 323.893 992.16C311.627 975.493 307.093 964.293 301.893 936.827C299.76 925.893 293.893 912.16 285.627 898.427C282.027 892.427 278.027 888.427 268.96 881.893C253.36 870.427 241.627 857.627 239.093 849.227C233.627 830.693 233.227 806.16 238.16 792.027C242.56 779.227 250.96 763.627 256.027 758.56C260.827 753.627 279.627 743.76 292.427 739.36C297.893 737.493 301.893 734.16 313.76 722.16C321.893 714.027 329.36 705.227 330.56 702.693C346.027 669.893 344.693 672.027 358.96 658.027C375.493 641.493 381.093 638.427 393.093 638.96C398.16 639.227 403.893 640.56 407.093 642.027ZM933.227 673.627C942.293 678.427 952.693 688.693 959.093 699.36C967.627 713.627 975.093 742.96 975.893 766.027C976.293 773.627 975.893 774.56 969.76 784.027C961.36 796.827 952.293 818.427 944.96 842.427C941.893 852.96 938.827 860.96 938.293 860.427C937.627 859.76 933.493 852.427 928.96 844.027C917.627 822.56 904.827 803.893 894.16 792.56L885.093 782.96L883.627 771.227C882.827 764.693 882.427 750.693 882.827 740.027C883.893 709.893 888.56 696.827 904.293 680.693C917.893 666.693 919.36 666.293 933.227 673.627ZM1252.43 725.76C1248.83 728.827 1242.43 734.693 1238.16 738.827C1229.63 747.093 1228.56 750.693 1233.23 756.56C1237.49 762.027 1243.09 761.227 1258.16 752.96L1271.09 746.027H1286.43C1297.36 746.027 1306.16 746.96 1317.09 749.227C1334.56 752.827 1357.09 759.627 1357.09 761.227C1357.09 765.627 1336.43 791.227 1321.23 805.627C1306.83 819.36 1297.09 824.427 1279.63 827.36C1272.83 828.56 1265.76 830.427 1264.16 831.493C1257.89 835.493 1259.23 845.493 1266.43 848.96C1268.29 849.76 1277.09 850.96 1286.16 851.493C1300.56 852.293 1302.29 852.693 1300.83 854.427C1297.09 858.827 1277.63 872.16 1266.83 877.493C1256.16 882.827 1254.56 883.227 1241.76 883.76C1225.89 884.427 1214.83 882.827 1197.09 877.227C1183.89 872.96 1172.69 871.893 1170.16 874.427C1167.36 877.227 1163.76 876.16 1152.43 869.36C1139.09 861.227 1127.76 856.96 1109.09 852.56C1101.36 850.827 1094.29 848.96 1093.36 848.693C1092.16 848.293 1094.16 845.36 1099.09 840.293C1112.03 827.093 1126.43 804.293 1131.76 788.693C1133.89 782.427 1134.29 782.027 1139.49 781.227C1146.29 780.293 1149.76 777.227 1159.49 763.36C1170.16 748.16 1183.89 734.96 1195.23 728.96C1208.96 721.893 1217.23 720.293 1239.76 720.16H1259.09L1252.43 725.76ZM1105.49 736.427C1110.16 739.493 1113.09 749.627 1113.09 762.693C1113.09 784.56 1102.56 805.36 1078.56 830.96C1065.76 844.56 1062.56 846.427 1046.96 848.693C1029.63 851.36 1016.83 854.96 993.227 863.627C966.293 873.627 968.693 873.36 970.96 867.227C972.027 864.293 975.627 855.627 978.827 847.76C986.693 829.227 992.56 810.693 994.96 796.96C996.027 790.96 997.493 784.427 998.293 782.427C1000.16 777.493 1006.43 770.693 1018.29 760.827C1034.16 747.627 1046.96 739.893 1062.43 734.16C1063.49 733.76 1072.83 733.627 1083.23 733.76C1098.29 734.027 1102.56 734.427 1105.49 736.427ZM804.293 762.027C820.96 765.627 858.96 785.893 864.827 794.427C866.16 796.427 868.693 801.893 870.293 806.693C875.227 820.293 885.36 839.093 898.96 859.36C905.893 869.627 911.36 878.16 911.227 878.16C911.227 878.293 903.627 876.96 894.427 875.227C870.56 870.827 855.76 869.36 834.427 869.36C812.693 869.36 811.227 868.96 795.36 857.76C763.76 835.493 747.36 810.693 747.227 785.093C747.227 771.227 748.96 769.36 766.427 763.093C776.693 759.493 790.427 759.093 804.293 762.027ZM1390.29 776.56C1403.76 785.227 1423.89 804.96 1428.96 814.56C1431.23 818.96 1434.96 829.36 1437.09 837.627C1441.76 856.293 1444.83 863.493 1452.43 874.16C1459.89 884.693 1471.36 893.227 1495.09 906.16C1505.36 911.76 1519.49 920.16 1526.43 924.693C1538.96 932.96 1580.43 965.627 1594.16 978.027L1601.36 984.56L1594.83 987.893C1584.96 992.96 1558.29 1004.83 1539.09 1012.56C1518.16 1021.23 1506.69 1024.96 1480.16 1031.89C1433.76 1044.16 1422.03 1052.43 1404.29 1084.96C1394.56 1102.96 1384.43 1112.29 1363.76 1122.43C1347.09 1130.56 1336.16 1134.29 1332.69 1132.96C1331.63 1132.56 1328.83 1127.23 1326.43 1121.09C1319.89 1104.83 1309.89 1083.63 1304.43 1074.69C1299.76 1066.96 1299.36 1064.03 1303.09 1064.03C1306.03 1064.03 1309.09 1058.56 1309.09 1053.09C1309.09 1041.63 1288.03 1008.16 1270.29 991.493C1253.36 975.627 1235.36 967.093 1211.89 963.893C1196.96 961.76 1196.16 961.627 1195.36 959.493C1194.29 956.693 1196.69 927.493 1198.56 920.827C1199.36 917.76 1200.43 912.293 1200.96 908.693C1201.89 901.093 1200.83 901.493 1217.76 904.027C1230.29 905.893 1247.89 905.093 1259.76 902.027C1278.29 897.227 1304.56 880.827 1322.03 863.093C1337.76 847.093 1340.43 840.827 1335.09 832.827L1331.76 827.76L1344.56 813.627C1351.63 805.76 1362.16 792.96 1368.03 784.96C1374.03 777.093 1379.36 770.693 1380.03 770.693C1380.69 770.693 1385.36 773.36 1390.29 776.56ZM654.827 777.893C670.693 780.96 688.693 791.76 703.76 807.227C713.227 816.827 721.76 821.893 726.693 820.693C730.827 819.76 731.627 820.427 738.56 831.36C746.693 843.893 757.893 855.76 772.827 867.76C779.76 873.227 784.827 878.16 784.16 878.693C783.627 879.227 780.693 880.427 777.76 881.36C764.027 885.76 745.76 896.56 729.893 909.76C719.893 918.16 719.093 918.56 713.893 917.893C707.493 916.96 698.427 920.16 677.36 930.427C653.093 942.427 634.027 944.16 611.093 936.693C600.027 932.96 581.093 923.36 581.093 921.36C581.093 920.027 582.16 919.627 596.427 916.693C608.96 914.027 613.227 912.027 616.96 907.227C620.827 902.427 620.56 900.56 615.227 895.227L610.693 890.693L595.493 891.493C577.093 892.56 571.093 890.827 553.493 879.36C538.16 869.227 507.76 844.027 507.76 841.227C507.76 840.693 515.76 836.427 525.493 831.627C563.36 812.96 586.827 808.16 605.627 815.227C620.96 821.093 629.36 819.227 631.227 809.76C631.893 806.027 631.493 804.827 627.893 801.493C625.627 799.36 618.427 794.827 611.76 791.493C605.227 788.027 599.493 784.827 599.227 784.16C598.56 783.227 609.227 779.76 621.76 776.96C627.627 775.627 645.493 776.16 654.827 777.893ZM1626.69 822.827C1642.03 826.027 1676.16 845.093 1689.89 858.293C1707.36 875.093 1725.76 911.227 1729.89 937.093C1731.09 944.293 1732.83 955.36 1733.89 961.76C1734.96 968.16 1737.89 980.027 1740.56 988.16L1745.23 1002.83L1739.23 1011.89C1731.09 1024.03 1722.03 1041.36 1717.76 1052.43C1715.89 1057.36 1712.69 1064.96 1710.56 1069.09C1702.43 1085.09 1678.96 1111.89 1662.83 1123.49C1638.83 1140.83 1586.16 1151.63 1563.76 1143.76C1559.63 1142.43 1559.49 1142.16 1560.29 1136.83C1564.29 1109.49 1564.29 1097.89 1560.29 1080.29C1557.23 1066.69 1552.56 1058.29 1543.36 1050.03C1534.43 1041.89 1534.43 1041.89 1543.76 1037.76C1552.43 1034.03 1575.09 1023.76 1591.09 1016.43C1619.09 1003.49 1625.09 998.027 1625.09 984.827C1625.09 971.627 1622.03 968.16 1580.83 935.093C1564.83 922.293 1551.76 911.36 1551.76 910.827C1551.76 910.293 1554.03 909.093 1556.83 908.293C1564.43 906.027 1573.89 899.36 1578.56 893.093C1585.49 883.76 1595.36 861.627 1597.63 850.427C1598.83 844.827 1599.76 835.893 1599.76 830.693V821.36H1609.76C1615.09 821.36 1622.83 822.027 1626.69 822.827ZM503.227 868.027C510.693 874.56 522.16 883.893 528.693 888.827C546.827 902.56 546.693 902.293 544.427 906.827C539.627 916.027 543.76 922.16 563.76 935.36C579.36 945.893 599.36 955.36 612.827 958.827C630.693 963.36 656.293 961.76 676.293 954.827C687.627 950.827 688.027 950.96 691.227 959.627C692.827 963.893 695.36 970.693 696.827 974.693C698.427 978.693 701.093 987.36 702.96 994.027C705.627 1003.63 705.893 1006.43 704.56 1007.76C703.627 1008.69 698.427 1010.69 692.96 1012.16C661.893 1020.96 637.493 1043.63 622.16 1078.03C617.093 1089.49 609.093 1113.23 609.093 1117.09C609.093 1121.49 614.027 1127.76 618.293 1128.69C620.56 1129.23 622.427 1129.76 622.427 1130.03C622.427 1130.29 620.427 1136.96 617.893 1144.96C614.027 1157.36 611.227 1168.96 605.227 1197.36L604.293 1202.03L592.96 1201.89C585.227 1201.76 578.027 1200.56 569.76 1198.16C549.893 1192.29 542.96 1188.16 529.627 1174.43C502.96 1146.83 500.427 1144.56 492.56 1140.83C480.96 1135.36 463.627 1132.29 436.427 1130.69C399.627 1128.69 403.893 1129.36 349.76 1116.83C317.227 1109.23 311.76 1107.63 311.76 1105.63C311.76 1103.09 360.96 1045.76 373.36 1033.89C377.893 1029.49 388.027 1020.69 395.76 1014.43C414.693 999.093 430.027 982.693 435.36 971.893C440.827 961.093 445.093 944.693 445.093 934.16C445.227 913.493 449.893 898.693 460.827 884.293C467.893 874.96 486.16 856.027 488.027 856.027C488.827 856.027 495.627 861.36 503.227 868.027ZM1091.49 871.493C1119.63 875.627 1140.56 884.56 1153.76 898.027C1162.29 906.827 1170.43 920.693 1170.43 926.693C1170.43 931.76 1164.16 939.893 1154.29 947.36C1136.43 960.827 1125.36 963.36 1089.23 962.427C1071.23 961.893 1063.09 961.093 1059.63 959.627C1056.96 958.56 1049.49 952.693 1042.96 946.693C1032.03 936.693 1008.16 919.627 997.093 914.027C988.96 909.893 980.827 903.76 982.027 902.693C982.56 902.027 990.96 899.36 1000.43 896.693C1025.63 889.76 1054.56 878.293 1061.09 872.693C1065.49 868.96 1072.69 868.693 1091.49 871.493ZM824.693 896.827C837.493 901.627 855.493 905.093 878.96 907.36C890.027 908.427 900.16 909.36 901.493 909.36C906.293 909.36 903.36 913.493 890.427 924.693C874.027 938.96 857.36 956.56 850.027 967.36C841.893 979.227 839.36 980.96 823.227 986.027C780.693 999.627 750.693 996.827 730.16 977.627L723.493 971.36L724.027 962.693C726.027 936.427 751.627 913.227 795.76 897.76C802.693 895.36 810.027 893.36 812.027 893.36C814.027 893.36 819.76 894.96 824.693 896.827ZM944.693 896.827C945.893 899.893 942.96 902.16 940.427 900.027C938.827 898.693 938.693 897.893 939.893 896.56C941.893 894.16 943.627 894.16 944.693 896.827ZM973.493 938.56C1000.16 957.76 1015.09 966.56 1032.96 973.893C1037.76 975.76 1042.69 978.427 1044.16 979.627C1052.03 986.827 1067.63 1018.03 1071.63 1034.69C1076.43 1054.56 1074.83 1070.96 1066.43 1088.96L1062.56 1097.23L1050.83 1096.56C1038.29 1095.76 1027.36 1093.23 1019.76 1089.36C1008.29 1083.49 990.293 1064.96 977.493 1046.03C966.827 1030.03 967.227 1032.03 967.093 998.027C966.96 969.093 966.427 962.427 961.76 934.96C961.36 932.693 961.36 930.693 961.76 930.693C962.293 930.693 967.627 934.16 973.493 938.56ZM929.627 941.627C930.027 945.493 930.693 955.76 931.093 964.293C932.027 984.56 934.827 1001.23 939.76 1016.29L943.627 1028.56L938.827 1041.23C927.093 1072.83 910.293 1097.23 894.56 1105.76C885.093 1110.96 873.627 1114.69 867.093 1114.69C862.293 1114.69 860.693 1113.89 856.693 1109.76C850.96 1104.03 844.56 1091.36 842.427 1082.03C840.293 1072.43 840.56 1051.76 843.093 1039.36C845.093 1029.36 853.227 1003.49 855.893 998.427C856.56 997.227 863.627 991.76 871.493 986.427C882.16 979.227 890.96 971.493 906.427 955.893C917.76 944.293 927.493 934.827 928.027 934.827C928.56 934.693 929.227 937.893 929.627 941.627ZM283.36 956.827C288.827 981.36 309.093 1011.23 325.76 1019.36C329.627 1021.36 336.16 1023.23 340.16 1023.63L347.627 1024.43L332.56 1041.89C289.227 1092.29 286.027 1097.09 286.827 1106.83C287.493 1114.96 291.493 1122.56 297.093 1126.43C303.76 1130.83 318.293 1135.09 354.427 1142.69C372.427 1146.56 387.36 1149.89 387.627 1150.16C387.893 1150.43 384.96 1154.29 381.227 1158.69C371.76 1170.16 369.76 1177.23 370.027 1200.03C370.16 1219.76 372.693 1232.83 378.96 1245.23C380.827 1248.96 382.427 1252.29 382.427 1252.56C382.427 1254.03 369.493 1259.89 361.627 1262.03C349.493 1265.36 321.76 1266.16 306.427 1263.49C286.293 1260.03 274.827 1255.63 259.493 1245.36C235.36 1229.36 224.96 1219.23 209.76 1196.96C202.427 1186.16 191.093 1171.36 184.693 1164.16L173.227 1151.09L174.56 1142.56C175.36 1137.89 176.427 1115.36 176.96 1092.69L178.027 1051.36L182.427 1038.03C191.36 1010.56 198.693 998.427 217.227 980.693C229.227 969.093 246.827 956.827 258.027 952.293C267.493 948.293 278.827 945.36 280.16 946.693C280.827 947.227 282.16 951.76 283.36 956.827ZM1157.23 979.627C1161.49 983.227 1161.49 983.227 1189.63 984.027C1220.29 984.96 1226.29 986.293 1241.89 995.36C1253.23 1001.89 1277.09 1028.29 1277.09 1034.16C1277.09 1035.09 1273.09 1034.56 1265.76 1032.56C1243.09 1026.56 1234.43 1028.43 1234.43 1039.49C1234.43 1046.56 1236.29 1048.96 1244.03 1051.49C1264.56 1058.16 1274.43 1066.96 1288.83 1091.36C1296.03 1103.76 1308.03 1131.63 1307.49 1135.23C1307.09 1138.03 1306.56 1138.03 1278.43 1137.89C1236.83 1137.76 1224.96 1134.29 1207.23 1117.49C1196.03 1106.96 1191.36 1105.49 1185.49 1110.96C1179.49 1116.56 1182.03 1124.56 1194.96 1140.56C1199.09 1145.63 1202.43 1150.43 1202.43 1151.09C1202.43 1152.43 1197.63 1151.63 1181.89 1147.23C1163.63 1142.03 1153.89 1136.69 1143.09 1125.89C1132.56 1115.36 1126.96 1106.69 1120.29 1090.43C1111.49 1069.36 1109.23 1065.36 1104.83 1062.69C1097.89 1058.69 1097.76 1058.43 1095.89 1045.23C1093.89 1030.16 1088.56 1013.63 1080.43 997.493C1077.09 990.827 1074.43 985.227 1074.43 984.96C1074.43 984.693 1082.03 984.693 1091.49 985.093C1111.76 985.76 1127.49 984.027 1141.09 979.627C1146.56 977.76 1151.49 976.293 1152.03 976.16C1152.43 976.027 1154.83 977.627 1157.23 979.627ZM827.493 1011.63C827.093 1013.76 825.093 1021.36 823.093 1028.69C819.76 1040.56 819.227 1044.43 819.093 1064.43L818.827 1086.96L814.827 1089.36C809.893 1092.29 807.627 1098.16 803.893 1118.03C798.293 1148.83 786.027 1168.16 763.093 1182.83C753.227 1189.23 734.427 1196.56 734.427 1194.16C734.427 1193.89 737.227 1187.89 740.56 1180.69C748.427 1164.16 749.227 1159.23 744.56 1154.29C738.027 1147.23 731.627 1150.29 721.36 1165.49C714.693 1175.49 706.16 1182.03 693.093 1187.23C679.893 1192.56 655.627 1198.96 639.36 1201.49C627.76 1203.23 626.427 1202.69 627.36 1196.29C630.96 1173.23 640.293 1142.83 647.227 1131.23C653.36 1121.09 661.493 1112.56 669.093 1108.69C678.16 1104.03 681.093 1101.23 681.893 1095.89C682.56 1092.03 682.027 1090.43 678.96 1086.83C675.76 1082.96 674.693 1082.43 670.293 1083.09C667.493 1083.49 659.893 1086.16 653.36 1089.23C640.96 1094.96 638.427 1095.63 638.427 1093.23C638.427 1092.43 641.493 1085.76 645.36 1078.29C660.827 1048.16 686.16 1031.49 721.76 1028.03C736.427 1026.69 744.56 1023.63 747.093 1018.56L749.093 1014.83L766.293 1015.63C785.093 1016.43 802.293 1014.83 816.16 1010.69C827.627 1007.36 828.16 1007.36 827.493 1011.63ZM1523.36 1055.63C1536.83 1062.29 1541.63 1075.09 1541.63 1104.69C1541.49 1120.03 1541.09 1123.36 1537.63 1134.03C1533.23 1148.16 1532.03 1166.29 1534.43 1183.36C1536.03 1194.16 1537.89 1199.23 1545.09 1211.36C1550.29 1220.03 1554.83 1234.96 1554.83 1243.36C1554.83 1250.96 1548.69 1270.29 1542.29 1282.96C1537.49 1292.56 1521.89 1308.83 1510.43 1316.43C1502.83 1321.49 1489.89 1325.36 1480.56 1325.36C1477.63 1325.36 1470.29 1324.69 1464.16 1323.76C1453.89 1322.29 1452.29 1322.43 1442.69 1325.23C1426.83 1329.89 1414.43 1335.49 1407.09 1341.36C1383.49 1360.29 1373.49 1366.03 1355.23 1370.69C1316.69 1380.43 1302.43 1362.16 1302.43 1303.36C1302.43 1281.36 1303.63 1278.03 1317.09 1260.69C1327.23 1247.63 1332.43 1237.49 1335.76 1224.43C1339.09 1211.89 1340.56 1182.96 1338.69 1168.69C1337.63 1160.56 1337.63 1157.63 1338.83 1156.56C1339.76 1155.63 1344.69 1153.63 1349.76 1152.03C1363.76 1147.49 1390.16 1134.56 1398.16 1128.16C1408.69 1119.76 1414.29 1113.23 1422.03 1100.29C1425.76 1093.89 1431.36 1085.23 1434.43 1081.09C1443.49 1068.43 1457.09 1061.89 1490.43 1054.03C1506.83 1050.16 1512.83 1050.43 1523.36 1055.63ZM965.227 1066.16C974.16 1079.49 988.96 1094.83 1001.63 1104.03C1011.63 1111.36 1011.76 1111.36 1011.76 1117.49C1011.76 1124.43 1013.76 1127.76 1027.89 1143.63C1048.16 1166.56 1055.76 1187.76 1052.69 1214.03C1051.23 1226.69 1046.43 1244.29 1044.56 1243.63C1043.76 1243.36 1039.89 1236.83 1036.16 1229.09C1029.89 1216.56 1028.56 1214.69 1024.69 1213.49C1019.63 1211.76 1016.43 1212.56 1012.16 1216.43C1008.29 1219.89 1008.29 1221.09 1012.43 1234.69C1018.03 1253.36 1016.56 1268.29 1007.23 1290.56C1002.03 1302.96 985.093 1334.69 983.627 1334.69C981.893 1334.69 962.96 1311.76 955.36 1300.29C939.493 1276.69 933.627 1260.56 935.76 1247.36C937.893 1235.09 937.36 1227.89 934.16 1224.43C930.56 1220.56 922.56 1220.16 919.227 1223.89C916.293 1227.09 912.693 1236.83 909.76 1249.76C906.827 1262.29 906.293 1262.03 898.427 1244.03C891.093 1227.36 888.693 1217.63 888.827 1204.69C888.827 1187.23 892.427 1175.76 904.427 1154.03C913.893 1137.09 916.693 1129.09 914.56 1124.56C913.227 1121.49 913.893 1120.56 922.427 1111.23C934.293 1098.43 940.827 1088.83 949.893 1070.56C953.893 1062.56 957.493 1056.03 957.76 1056.03C958.027 1056.03 961.493 1060.56 965.227 1066.16ZM1103.76 1106.43C1103.76 1110.69 1117.36 1129.76 1127.63 1140.03C1146.83 1159.09 1177.23 1170.69 1216.56 1174.03C1232.03 1175.36 1238.43 1171.63 1238.43 1161.36C1238.43 1157.76 1238.83 1157.23 1240.83 1158.16C1242.03 1158.69 1259.36 1159.49 1279.36 1159.76L1315.49 1160.29L1316.56 1170.43C1318.29 1188.83 1314.96 1220.43 1310.43 1229.23C1309.09 1232.03 1303.23 1240.56 1297.49 1248.16C1286.29 1262.96 1280.83 1273.76 1278.29 1285.36C1276.03 1295.89 1277.63 1321.36 1281.89 1343.36C1285.36 1361.36 1285.63 1364.03 1286.16 1414.29C1286.56 1454.83 1286.29 1466.69 1284.96 1466.69C1282.69 1466.69 1225.49 1436.96 1209.76 1427.63C1202.43 1423.23 1187.63 1413.09 1176.83 1405.09C1135.63 1374.43 1120.69 1369.49 1087.09 1375.49C1070.96 1378.43 1056.96 1378.43 1047.76 1375.49C1038.16 1372.29 1010.56 1358.16 1004.96 1353.49L1000.56 1349.76L1007.36 1337.89C1015.49 1323.76 1026.16 1302.29 1030.43 1291.63C1033.76 1282.96 1035.09 1281.76 1037.76 1284.03C1040.56 1286.29 1048.03 1284.56 1051.49 1280.96C1055.23 1276.96 1062.69 1260.69 1066.96 1246.83C1079.63 1206.56 1075.76 1174.03 1054.56 1142.69C1049.63 1135.49 1049.49 1134.16 1053.49 1132.43C1055.09 1131.63 1060.69 1127.89 1065.76 1124.03C1070.96 1120.16 1078.69 1115.36 1083.09 1113.36C1087.49 1111.23 1092.96 1108.43 1095.09 1106.83C1100.16 1103.49 1103.76 1103.36 1103.76 1106.43ZM836.427 1133.36C855.76 1139.49 880.427 1149.76 880.427 1151.63C880.427 1152.29 878.427 1157.76 875.893 1164.03C873.493 1170.16 870.56 1179.49 869.493 1184.69C866.693 1197.76 867.76 1220.29 871.76 1232.69C878.96 1255.23 898.293 1289.49 906.693 1294.69C911.893 1297.89 916.96 1298.16 920.56 1295.36C921.893 1294.29 923.493 1293.36 924.027 1293.36C924.56 1293.36 927.093 1296.96 929.627 1301.23C935.76 1311.23 951.093 1331.23 961.627 1343.09C966.16 1348.03 969.76 1352.69 969.76 1353.36C969.76 1355.36 950.827 1371.63 939.893 1378.96C922.293 1390.96 918.56 1392.16 894.027 1393.49C882.16 1394.03 868.827 1395.49 864.56 1396.69C846.56 1401.49 830.427 1413.89 803.493 1443.49C794.293 1453.89 780.16 1467.63 772.16 1474.29C744.827 1497.09 715.093 1520.03 712.827 1520.03C711.493 1520.03 710.16 1518.69 709.76 1516.96C708.827 1512.83 696.16 1448.43 695.227 1442.69C694.827 1440.16 693.893 1425.09 693.093 1409.36C689.893 1342.43 687.227 1334.96 657.893 1307.49C640.56 1291.36 636.827 1285.63 631.227 1266.16C628.027 1255.36 623.893 1227.49 625.227 1226.03C625.627 1225.76 632.027 1224.56 639.493 1223.36C659.493 1220.43 686.96 1214.03 697.893 1209.76C699.093 1209.36 699.76 1210.03 699.76 1212.03C699.76 1213.63 701.627 1216.69 703.893 1218.96C707.627 1222.83 708.427 1222.96 715.493 1222.43C725.227 1221.49 744.96 1214.83 759.76 1207.49C786.56 1194.16 802.96 1179.23 812.293 1159.49C815.493 1152.83 819.627 1143.36 821.36 1138.29C822.96 1133.36 824.96 1129.63 825.76 1129.89C826.427 1130.29 831.36 1131.76 836.427 1133.36ZM1680.96 1156.96C1691.63 1167.76 1696.16 1174.16 1704.16 1190.16C1723.09 1227.36 1728.43 1268.43 1720.43 1314.69C1719.36 1321.63 1716.69 1335.36 1714.83 1345.09L1711.36 1362.96L1714.43 1375.09C1721.36 1402.03 1718.16 1408.29 1695.09 1412.69C1681.23 1415.36 1676.43 1417.76 1647.49 1436.16C1633.63 1444.96 1617.23 1454.96 1611.09 1458.16C1585.63 1471.76 1563.09 1477.23 1527.76 1478.29C1506.96 1478.96 1503.09 1478.69 1492.56 1476.16C1476.69 1472.29 1465.23 1467.09 1463.63 1463.09C1462.96 1461.23 1462.43 1454.96 1462.43 1448.96C1462.43 1426.03 1456.69 1400.29 1447.09 1380.56C1442.29 1370.69 1439.63 1366.96 1433.09 1361.09L1424.96 1353.89L1438.16 1349.49C1451.36 1345.23 1451.63 1345.23 1469.89 1346.03C1486.03 1346.83 1489.76 1346.56 1498.83 1344.16C1524.69 1337.36 1549.76 1315.76 1562.83 1288.83C1565.36 1283.63 1569.36 1273.36 1571.76 1266.03C1575.63 1253.89 1576.03 1251.63 1575.36 1240.03C1574.69 1224.96 1570.29 1210.56 1562.29 1197.09C1559.36 1192.16 1556.43 1185.09 1555.76 1181.23C1554.56 1175.09 1553.89 1158.69 1554.83 1158.69C1554.96 1158.69 1560.16 1160.56 1566.43 1162.69C1576.29 1166.16 1579.63 1166.69 1591.89 1166.69C1614.29 1166.69 1628.03 1163.63 1660.43 1151.63C1665.63 1149.63 1670.29 1148.03 1670.96 1148.03C1671.49 1148.03 1676.03 1152.03 1680.96 1156.96ZM469.893 1158.69C486.427 1162.96 491.36 1166.83 512.827 1191.76C526.827 1208.03 554.96 1219.89 590.16 1224.16L603.76 1225.76V1234.03C603.76 1252.29 609.893 1277.49 618.693 1296.03C623.493 1306.16 625.893 1309.09 641.093 1324.03C650.427 1333.23 659.36 1343.09 660.827 1346.03C665.093 1354.69 666.56 1364.56 667.36 1392.69L668.16 1419.49L662.293 1426.69C654.027 1436.96 647.36 1440.03 633.627 1440.03C612.56 1440.03 601.227 1437.09 579.093 1426.16C557.493 1415.36 551.893 1413.76 531.093 1412.43C518.56 1411.76 516.56 1411.89 507.227 1415.23C498.693 1418.16 494.827 1418.69 482.427 1418.69C466.027 1418.69 463.093 1417.63 445.093 1406.03C429.093 1395.76 420.56 1385.63 409.76 1364.03L404.693 1354.03L405.36 1340.03C406.027 1328.43 406.827 1324.16 410.427 1314.83C414.693 1303.76 414.827 1303.23 413.893 1288.83C412.693 1267.36 410.293 1257.76 402.427 1243.36C394.293 1228.29 390.56 1214.69 389.493 1196.03C388.56 1178.56 390.16 1172.29 397.093 1165.36C407.493 1154.96 409.36 1154.56 436.027 1155.36C453.093 1155.89 462.293 1156.83 469.893 1158.69ZM392.96 1293.23C393.093 1296.56 391.227 1304.29 388.827 1311.23C383.493 1326.83 382.027 1348.29 385.76 1360.69C394.827 1392.03 422.693 1422.29 455.627 1436.29C465.36 1440.43 466.427 1440.56 483.093 1440.56C498.293 1440.43 501.627 1440.03 510.56 1436.96C521.76 1432.96 526.027 1432.69 540.16 1434.83C554.16 1436.96 553.893 1436.69 548.693 1442.96C542.027 1451.09 537.76 1460.43 534.96 1472.69C531.493 1487.63 531.493 1522.56 534.96 1539.09L537.36 1550.96L533.227 1555.23C528.56 1560.03 514.427 1567.63 500.427 1572.56C483.093 1578.96 471.893 1580.43 441.76 1580.56C417.627 1580.56 412.16 1580.29 401.627 1577.76C386.693 1574.29 368.693 1567.63 344.427 1556.56C322.96 1546.96 318.96 1545.89 299.76 1544.69C282.427 1543.63 277.893 1542.29 275.893 1537.76C274.96 1535.76 273.76 1525.76 272.96 1515.49C271.627 1494.96 270.027 1488.03 262.96 1472.03C256.827 1457.89 248.293 1432.03 245.093 1417.76C239.493 1392.83 240.56 1359.09 247.893 1330.03C251.093 1317.23 263.093 1292.03 269.493 1284.69L274.16 1279.36L283.093 1281.76C296.293 1285.36 326.16 1287.09 344.827 1285.36C364.427 1283.76 367.493 1282.83 379.76 1275.49L389.76 1269.49L391.36 1278.43C392.16 1283.36 392.96 1290.03 392.96 1293.23ZM1418.56 1370.96C1428.56 1384.56 1435.49 1404.16 1438.29 1427.36C1442.16 1458.43 1438.56 1477.23 1423.09 1508.03C1414.96 1524.29 1410.69 1530.56 1399.76 1542.03C1387.63 1554.83 1377.63 1566.83 1368.69 1578.96C1364.56 1584.56 1360.16 1589.76 1358.83 1590.43C1357.49 1591.09 1350.69 1592.43 1343.76 1593.36C1329.63 1595.09 1317.09 1597.89 1298.69 1603.36C1286.43 1606.96 1285.89 1606.96 1256.69 1606.29C1234.69 1605.89 1225.09 1605.09 1219.09 1603.49C1190.03 1595.36 1153.23 1566.96 1140.56 1542.83C1137.89 1537.76 1135.76 1533.09 1135.76 1532.43C1135.76 1531.63 1138.29 1530.29 1141.36 1529.49C1150.83 1526.56 1161.09 1519.09 1175.89 1504.16C1193.63 1486.16 1197.49 1478.96 1198.29 1462.96C1198.43 1456.96 1199.23 1452.03 1200.03 1452.03C1200.69 1452.03 1215.76 1459.49 1233.49 1468.56C1281.09 1493.09 1287.76 1494.96 1298.56 1487.36C1308.16 1480.56 1309.49 1477.89 1310.56 1461.76C1311.09 1453.76 1311.63 1433.23 1311.63 1415.89C1311.76 1398.56 1312.16 1384.16 1312.56 1383.63C1312.96 1383.23 1315.76 1384.43 1318.56 1386.29C1326.29 1391.36 1336.29 1393.36 1348.43 1391.89C1369.23 1389.63 1388.56 1382.56 1403.36 1372.03C1408.29 1368.43 1412.83 1365.49 1413.36 1365.49C1414.03 1365.36 1416.29 1367.89 1418.56 1370.96ZM998.293 1375.49C1019.09 1389.76 1048.96 1401.36 1064.96 1401.36C1068.29 1401.36 1078.96 1400.16 1088.43 1398.56C1098.96 1396.96 1108.03 1396.29 1111.76 1396.69C1125.63 1398.69 1141.36 1407.49 1164.56 1426.16C1179.09 1437.89 1181.76 1442.56 1181.76 1456.69C1181.76 1465.09 1181.36 1466.69 1177.23 1472.69C1170.96 1481.76 1156.56 1495.89 1147.76 1501.76C1143.76 1504.43 1134.69 1508.83 1127.76 1511.49C1111.63 1517.89 1105.89 1521.76 1090.83 1536.69C1079.89 1547.49 1078.43 1549.49 1076.43 1556.69C1071.36 1574.43 1059.23 1590.29 1044.96 1597.49C1031.76 1604.16 1015.76 1608.03 1001.76 1608.03C987.893 1608.03 971.36 1605.09 962.693 1601.09C956.027 1597.89 939.627 1580.83 934.293 1571.36C929.627 1563.09 924.427 1558.03 913.093 1551.09C897.627 1541.63 890.427 1538.56 875.227 1535.36C866.96 1533.76 856.96 1530.96 852.96 1529.23C835.227 1521.76 814.427 1504.43 811.893 1495.09C809.893 1487.89 810.16 1479.36 812.427 1473.76C816.427 1464.29 839.76 1437.63 852.027 1428.69C862.027 1421.23 874.96 1417.89 897.493 1416.69C906.96 1416.16 917.76 1414.96 921.493 1413.76C937.627 1409.09 960.56 1393.76 977.76 1376.16C982.16 1371.76 986.16 1368.03 986.56 1368.03C987.093 1368.03 992.427 1371.36 998.293 1375.49ZM675.893 1471.49C681.76 1503.23 686.827 1525.49 689.627 1532.29C692.16 1538.16 699.093 1543.23 707.893 1545.49C713.627 1547.09 714.56 1546.83 722.56 1543.09C728.027 1540.56 742.293 1530.29 762.293 1514.29C779.36 1500.56 793.893 1489.36 794.427 1489.36C794.96 1489.36 795.76 1492.83 796.293 1496.96C797.493 1507.49 802.427 1516.96 810.96 1525.23C825.093 1539.09 843.093 1549.89 860.027 1554.43C868.16 1556.69 868.427 1556.83 868.827 1561.36C869.893 1571.63 861.227 1588.56 844.56 1608.83C828.293 1628.56 812.027 1640.43 791.227 1647.49C765.36 1656.29 755.627 1657.36 703.893 1656.69L659.493 1656.16L647.227 1644.29C640.56 1637.76 628.16 1627.36 619.76 1621.09C594.027 1602.03 576.693 1581.76 565.093 1557.09C557.093 1539.76 555.627 1532.69 554.827 1508.03C554.027 1482.16 556.16 1466.56 562.027 1454.83C566.56 1445.63 568.827 1445.09 579.36 1450.56C590.827 1456.29 601.093 1458.69 618.693 1459.63C642.16 1460.83 655.893 1457.23 664.96 1447.49C666.827 1445.49 668.827 1444.16 669.627 1444.43C670.427 1444.69 673.227 1456.83 675.893 1471.49ZM1123.49 1548.29C1124.96 1553.63 1128.56 1561.89 1131.36 1566.43C1140.29 1581.36 1162.83 1600.96 1188.16 1615.63C1193.76 1618.96 1199.09 1622.69 1199.76 1624.03C1202.83 1629.63 1200.29 1647.76 1194.29 1664.03C1189.36 1677.36 1178.16 1697.09 1167.63 1711.09C1148.83 1736.16 1128.16 1752.56 1089.09 1773.36C1063.63 1786.96 1057.49 1791.23 1048.43 1802.69C1037.63 1816.16 1030.69 1820.29 1023.49 1817.49C1021.63 1816.83 1015.63 1812.56 1010.29 1808.03C1004.83 1803.49 998.027 1798.56 995.093 1796.96C992.16 1795.49 976.56 1789.89 960.293 1784.69C911.893 1768.96 892.56 1758.03 867.093 1732.69C842.693 1708.29 825.093 1679.09 825.093 1662.56C825.093 1658.03 825.893 1656.96 835.493 1648.96C865.36 1624.03 886.427 1590.96 886.427 1569.23C886.427 1565.76 886.96 1562.56 887.76 1562.03C888.427 1561.63 893.627 1564.16 899.36 1567.63C908.293 1573.23 910.827 1575.76 917.893 1585.76C936.427 1612.56 951.093 1622.69 978.027 1627.36C1004.96 1632.03 1034.43 1627.76 1057.36 1615.76C1072.16 1608.03 1089.76 1586.43 1094.69 1570.03C1097.23 1561.63 1098.56 1559.63 1108.16 1549.63C1114.03 1543.63 1119.23 1538.69 1119.76 1538.69C1120.16 1538.69 1121.89 1543.09 1123.49 1548.29Z" fill="black"/>
</svg>
