<svg width="2667" height="2667" viewBox="0 0 2667 2667" fill="none" xmlns="http://www.w3.org/2000/svg">
<rect width="2667" height="2667" fill="white"/>

    <path d="
M402.452 1089.37C415.914 1066.47 425.142 1037.4 426.391 1000.35C426.738 990.146 418.759 981.612 408.559 981.195C399.469 981.195 389.755 988.897 389.408 999.097C385.175 1124.76 269.194 1135.72 264.261 1136.21C254.102 1137.04 246.498 1145.92 247.309 1156.05C248.073 1165.77 256.149 1173.12 265.704 1173.12C266.176 1173.12 266.648 1173.12 267.133 1173.05C268.084 1172.98 326.82 1167.78 372.685 1126.08C377.681 1138.36 386.563 1159.52 399.469 1187.21C400.024 1188.39 400.718 1189.43 401.481 1190.47C468.093 1330.49 635.177 1628.09 912.796 1788.79C914.184 1790.46 915.849 1791.99 917.722 1793.1C1040.68 1862.62 1170.92 1897.39 1307.33 1897.39C1352.78 1897.39 1398.92 1893.36 1445.69 1885.59C1696.59 1844.1 1935.43 1703.66 2045.33 1467.39C2214.22 1104.22 2070.18 644.737 2035.27 545.096C2040.34 545.513 2045.47 545.79 2050.75 545.79C2076.35 545.79 2104.59 540.517 2135.05 527.056C2144.42 522.893 2148.65 511.929 2144.49 502.562C2140.33 493.195 2129.43 489.032 2120.07 493.195C2006.34 543.639 1932.51 456.975 1929.46 453.228C1922.94 445.387 1911.28 444.207 1903.44 450.799C1895.53 457.252 1894.42 468.909 1900.87 476.75C1901.43 477.375 1933.27 515.19 1987.26 534.619C1701.24 949.208 1146.63 1146.75 423.06 1090.97C414.456 1090.27 407.795 1089.79 402.452 1089.37Z
" fill="black"/>
    <path d="
M1598.27 1808.43C1369.16 1887.95 1153.99 1875.94 958.245 1772.97C1137.61 1609.29 1496.55 1371.98 2007.93 1458.93C1928.83 1624.07 1791.1 1741.54 1598.27 1808.43Z
" fill="#556666"/>

    <path d="
M2005.65 573.198C2013.49 596.998 2024.31 632.316 2035.55 675.961C1895.11 869.759 1661.28 1117.96 1337.72 1216.7C960.812 1331.67 556.215 1209.41 429.791 1164.59C422.991 1149.88 417.51 1137.32 413.277 1127.32C415.497 1127.46 417.787 1127.67 420.216 1127.81C1147.6 1184.08 1708.46 987.232 2005.65 573.198Z
" fill="#556666"/>

</svg>
