<svg width="2000" height="2000" viewBox="0 0 2000 2000" fill="none" xmlns="http://www.w3.org/2000/svg">
<path d="M2000 0H0V2000H2000V0Z" fill="#6AA0FF"/>
    <path d="M729.057 235.149C736.92 230.301 746.812 228.394 757.777 228.545C790.675 228.999 833.241 247.976 859.715 261.639C874.779 269.414 890.046 278.304 905.089 287.809C906.12 288.218 907.043 288.593 907.905 288.942L908.079 289.013C914.12 291.471 917.215 292.73 933.812 295.824C958.531 301.261 984.035 304.599 1009.61 307.946L1009.61 307.946L1009.63 307.949C1051 313.365 1092.56 318.805 1131.22 333.2C1158.98 314.607 1189.09 297.375 1218.38 283.737C1246.09 270.835 1290.61 253.063 1324.82 253.482C1336.22 253.622 1346.47 255.783 1354.58 260.82C1396.46 286.838 1395.35 424.504 1358.41 546.621C1379.75 587.401 1391.78 633.035 1398.99 678.332C1402.28 701.726 1404.24 725.975 1404.18 750.278C1413.58 749.163 1424.23 748.733 1433.46 748.788C1447.72 748.872 1461.79 750.337 1475.15 753.103C1481.82 754.781 1488.56 756.564 1495.1 758.673C1491.13 758.748 1487.21 758.678 1483.3 758.583C1481.42 758.552 1479.39 758.463 1477.4 758.375L1476.04 758.316C1475.54 758.294 1475.04 758.274 1474.56 758.256C1473.13 758.334 1465.79 758.355 1461.99 758.366L1461.09 758.368C1460.63 758.37 1460.27 758.371 1460.04 758.372C1441.7 758.501 1422.12 761.004 1403.95 763.622C1402.95 793.706 1398.67 823.649 1389.83 851.933C1418.7 857.531 1446.32 872.308 1464.15 895.192C1440.45 879.228 1413.03 869.319 1385.74 864.005C1376.28 889.831 1362.72 914.034 1344.01 935.395C1306.33 978.177 1254.26 1005.45 1198.97 1019.02C1226.59 1041.14 1251.25 1069.09 1272.67 1095.91C1274.26 1097.99 1275.84 1100.08 1277.41 1102.18C1284.85 1066.16 1303.73 1031.54 1330.87 1006.22C1353.28 985.31 1390.44 962.151 1445.19 961.906C1453.01 961.871 1461.19 962.304 1469.73 963.278C1511.61 968.059 1546.65 987.18 1571.07 1018.59C1596.15 1050.84 1607.8 1094.58 1602.21 1135.61C1596.59 1176.89 1575.86 1209.72 1545.31 1225.67C1523.51 1237.07 1499.84 1237.89 1480.4 1227.94C1471.88 1223.58 1445.17 1204.98 1458.98 1148.41C1467.05 1115.34 1463.1 1095.47 1447.26 1089.34C1422.1 1079.63 1391.94 1095.12 1380 1123.88C1357.93 1177.07 1391.2 1244.11 1423.38 1308.94C1426.03 1314.27 1428.66 1319.59 1431.26 1324.88C1463.99 1391.5 1459.61 1469.87 1420.61 1515.46C1397.55 1542.43 1359.69 1558.89 1314.01 1561.81C1309.21 1562.12 1304.4 1562.26 1299.59 1562.26C1286.46 1562.26 1273.42 1561.06 1260.75 1558.92C1260.85 1597.88 1260.8 1636.48 1260.3 1673.74C1260.42 1674.76 1260.55 1675.8 1260.69 1676.89C1260.77 1677.51 1260.85 1678.14 1260.93 1678.79C1263.25 1697.23 1266.6 1723.86 1257.98 1743.14C1251.48 1756.68 1239.64 1765.96 1225.26 1768.71C1214.64 1771.35 1194.58 1771.15 1178.41 1770.99L1178.39 1770.99H1178.37L1177.79 1770.98C1171.66 1770.93 1166.12 1770.87 1161.92 1771H1120.74C1099.31 1771.91 1070.6 1766.2 1060.59 1742.62C1057.15 1735.08 1055.99 1727.05 1055.61 1719.81C1054.89 1705.51 1056.5 1692.07 1059.6 1678.16L1044.61 1531.64C1044.41 1531.68 1044.2 1531.71 1044 1531.75C1043.8 1531.78 1043.6 1531.82 1043.39 1531.85C1042.82 1531.95 1042.25 1532.04 1041.67 1532.13C1042.42 1545.01 1043.26 1558.26 1044.12 1571.47V1571.54C1047.76 1627.93 1051.52 1686.24 1047.19 1712.3C1040.75 1751.01 1013.38 1771.46 968.049 1771.46H866.034C847.812 1771.46 834.01 1765.78 825 1754.56C813.784 1740.6 813.041 1720.99 815.814 1708.44C820.46 1687.42 838.471 1673.24 852.82 1666.88C837.082 1600.05 825.563 1539.71 817.226 1489.54C795.021 1486.82 774.882 1480.21 759.487 1467.45C739.06 1450.52 728.131 1424.59 726.097 1388.18C722.807 1329.47 746.363 1249.47 790.723 1168.68C821.479 1112.66 859.45 1061.61 897.639 1023.88C880.087 1021.36 862.674 1018 845.529 1013.64L837.081 1011.61C834.385 1010.78 830.814 1009.7 826.997 1008.54L825.04 1007.94C823.93 1007.6 822.809 1007.26 821.692 1006.92C816.559 1005.36 811.498 1003.82 807.934 1002.71C804.297 1001.24 800.539 999.809 796.762 998.373L796.173 998.149L796.17 998.147L796.168 998.146C790.523 996.001 784.848 993.844 779.482 991.548C773.596 988.956 761.259 983.01 755.739 980.273C753.602 979.079 750.306 977.199 747.141 975.394L746.954 975.287L746.953 975.286L746.505 975.031C744.204 973.719 742.02 972.474 740.461 971.594C687.407 940.474 639.672 890.458 629.607 827.716C629.276 825.751 628.976 823.781 628.708 821.807C597.777 819.665 566.85 822.421 537.133 833.874C557.31 817.247 583.129 809.638 609.537 809.178C615.504 809.074 621.499 809.351 627.467 809.956C625.735 786.402 628.296 762.553 634.701 739.793C608.599 728.499 581.462 719.675 553.626 712.864C550.852 712.127 548.061 711.432 545.262 710.799H545.258L545.247 710.797C540.583 709.689 535.881 708.571 531.16 707.088C538.643 705.98 546.239 705.267 553.808 705.2C582.063 704.949 612.547 711.833 639.461 725.004C641.94 718.181 644.772 711.488 647.944 704.968C650.074 644.862 672.872 543.958 707.131 477.815C708.369 475.357 709.639 472.909 710.939 470.472C689.337 362.675 694.125 256.686 729.057 235.149Z" fill="#000072"/>
<path d="M1432.41 980.706C1419.72 981.001 1407.75 982.598 1396.51 985.298C1372.45 993.137 1354.37 1005.83 1341.62 1017.73C1312.95 1044.47 1294.38 1082.53 1290.44 1120.74C1348.22 1204.07 1387.75 1304.01 1379.72 1406.39C1378.58 1420.32 1376.41 1434.85 1371.45 1448.73C1360 1482.05 1335.32 1498.07 1305.98 1503.6C1313.66 1508.55 1324.49 1511.85 1339.57 1512.37C1395.88 1514.3 1422.52 1476.95 1434.88 1446.45C1441.24 1410.64 1435.55 1369.34 1417.12 1331.82C1414.53 1326.55 1411.9 1321.25 1409.27 1315.94C1377.37 1251.66 1344.51 1185.32 1362 1127.73C1368.36 1072.32 1405.77 1043.64 1439.9 1044.52C1441.47 1044.56 1443.03 1044.66 1444.58 1044.83C1450.7 1045.48 1456.04 1046.92 1460.69 1048.98C1458.55 1043.5 1456.15 1037.89 1456.69 1032.64C1457.84 1021.56 1472.18 1008.98 1467.87 995.072C1466.58 990.956 1462.21 987.274 1458.07 981.876C1452.65 981.281 1447.31 980.868 1442.11 980.733C1438.83 980.64 1435.6 980.632 1432.41 980.706Z" fill="white"/>
<path d="M1434.88 1446.45C1422.52 1476.95 1395.88 1514.3 1339.58 1512.37C1324.5 1511.85 1313.67 1508.55 1305.98 1503.6C1292.42 1506.16 1277.95 1506.69 1263.17 1505.27C1262.29 1505.42 1261.41 1505.4 1260.53 1505.54C1260.59 1518.07 1260.6 1530.5 1260.65 1543.01C1277.54 1546.07 1295.32 1547.22 1313 1546.09C1354.4 1543.44 1388.37 1528.93 1408.64 1505.22C1422.17 1489.4 1430.88 1469 1434.88 1446.45Z" fill="#CCCCE3"/>
<path d="M1439.9 1044.52C1405.77 1043.63 1368.37 1072.32 1362 1127.73C1363.01 1124.41 1364.11 1121.1 1365.46 1117.84C1380.65 1081.24 1419.89 1061.86 1452.94 1074.64C1453.65 1074.92 1454.34 1075.35 1455.04 1075.67C1455.1 1075.6 1455.16 1075.53 1455.23 1075.46C1456.09 1074.5 1456.86 1073.6 1457.68 1072.69C1458.45 1071.83 1459.15 1070.99 1459.83 1070.14C1461.06 1068.59 1462.15 1067.03 1462.85 1065.34C1463.37 1064.11 1463.63 1062.83 1463.7 1061.52C1463.77 1060.21 1463.65 1058.86 1463.39 1057.48C1462.88 1054.72 1461.82 1051.87 1460.69 1048.98C1460.69 1048.98 1460.69 1048.98 1460.7 1048.98C1456.04 1046.92 1450.7 1045.48 1444.58 1044.82C1443.03 1044.66 1441.47 1044.56 1439.9 1044.52Z" fill="#CCCCE3"/>
<path d="M1458.08 981.875C1462.21 987.274 1466.59 990.956 1467.87 995.071C1472.18 1008.98 1457.84 1021.56 1456.7 1032.64C1456.15 1037.89 1458.55 1043.5 1460.7 1048.98C1493.8 1063.63 1491.99 1110.07 1486.91 1133.15C1480.21 1163.68 1478.37 1208.18 1522.9 1208.18C1533.04 1208.18 1542.09 1206.4 1550.02 1203.7C1568.12 1189.35 1580.72 1166.64 1585.6 1138.93C1589.41 1096.68 1574.8 1050.77 1541.88 1019.37C1542.85 1023.48 1542.45 1027.36 1540.52 1030.55C1534.62 1040.29 1516.54 1040.12 1500.11 1030.17C1483.7 1020.22 1475.17 1004.25 1481.08 994.519C1482.87 991.556 1485.78 989.522 1489.43 988.382C1480.08 985.368 1470.06 983.188 1459.36 981.967C1458.92 981.916 1458.51 981.923 1458.08 981.875ZM1459.83 1070.14C1459.15 1070.99 1458.45 1071.83 1457.68 1072.69C1458.42 1071.85 1459.17 1070.97 1459.83 1070.14ZM1455.23 1075.47C1455.17 1075.53 1455.11 1075.6 1455.04 1075.67C1455.11 1075.6 1455.16 1075.54 1455.23 1075.47Z" fill="#FFAD40"/>
<path d="M1460.69 1048.98C1462.95 1054.76 1464.92 1060.41 1462.85 1065.34C1461.34 1069.01 1458.25 1072.08 1455.04 1075.67C1471.11 1082.91 1486.51 1102.04 1474.29 1152.14C1462.94 1198.66 1483.36 1211.76 1487.58 1213.91C1502.43 1221.5 1520.81 1220.7 1538.02 1211.71C1542.29 1209.48 1546.23 1206.71 1550.02 1203.7C1542.09 1206.4 1533.04 1208.18 1522.9 1208.18C1478.36 1208.18 1480.21 1163.68 1486.91 1133.15C1491.99 1110.07 1493.8 1063.62 1460.69 1048.98Z" fill="#FF9343"/>
<path d="M1445.55 977.657C1427.01 977.719 1410.73 980.668 1396.51 985.3C1410.58 981.921 1425.78 980.274 1442.12 980.735C1447.73 980.88 1453.48 981.287 1459.36 981.97C1470.06 983.19 1480.08 985.371 1489.43 988.384C1485.78 989.524 1482.87 991.558 1481.08 994.521C1475.16 1004.26 1483.7 1020.23 1500.11 1030.18C1516.54 1040.13 1534.62 1040.29 1540.51 1030.55C1542.45 1027.36 1542.84 1023.49 1541.88 1019.37C1574.8 1050.78 1589.41 1096.68 1585.6 1138.94C1585.92 1137.11 1586.35 1135.35 1586.61 1133.49C1591.63 1096.57 1581.17 1057.23 1558.64 1028.25C1536.88 1000.27 1505.52 983.216 1467.95 978.927C1460.15 978.035 1452.69 977.633 1445.55 977.657Z" fill="#FFD6A0"/>
<path d="M924.062 1026.83C915.652 1036.68 908.43 1045.91 903.012 1053.12C903.117 1052.98 903.313 1052.75 903.42 1052.61C908.696 1045.6 915.507 1036.92 923.585 1027.43C923.774 1027.21 923.871 1027.06 924.062 1026.83Z" fill="#FF9343"/>
<path d="M795.654 1392.97C791.899 1397.3 787.227 1400.55 781.371 1402.05C765.18 1406.19 752.472 1402.68 743.08 1397.58C746.16 1423.72 754.631 1442.96 769.537 1455.32C781.289 1465.06 796.925 1470.48 814.601 1473.12C812.19 1458 809.97 1443.5 808.139 1430.61C806.27 1426.61 804.786 1422.41 803.196 1418.26C793.62 1421.33 782.851 1421.89 773.264 1419.8C781.621 1416.2 791.316 1412.78 799.367 1407.71C797.835 1402.92 796.841 1397.91 795.654 1392.97Z" fill="#CCCCE3"/>
<path d="M1169.5 1536.66C1128.75 1536.51 1090.38 1544.43 1062.54 1552.18L1075.38 1677.72C1075.48 1678.67 1075.4 1679.6 1075.18 1680.48C1073.72 1686.5 1072.62 1693.22 1071.92 1699.63C1071.38 1705.98 1071.19 1712.88 1071.61 1719.64C1079.91 1724.5 1091.49 1727.84 1107.7 1728.2C1108.17 1715.83 1111.36 1703.55 1118.47 1693.51C1114.02 1703.84 1112.51 1716.68 1114.86 1728.25H1193.42C1194.69 1715.78 1192.77 1702.48 1187.39 1693.51C1194.38 1700.77 1199.51 1714.34 1201.08 1728.25H1206.73C1226.54 1728.25 1238.81 1725.38 1247.33 1720.25C1247.48 1718.32 1247.68 1716.39 1247.7 1714.42C1248.02 1701.04 1246.19 1687.8 1244.59 1674.35C1244.88 1647.72 1245.07 1621 1245.03 1594.28C1245 1582.72 1244.93 1564 1244.87 1547.82C1220.13 1539.85 1194.38 1536.74 1169.5 1536.66Z" fill="white"/>
<path d="M829.16 1464.59C837.644 1518.53 850.164 1586.73 868.255 1663.53C870.82 1663.4 873.386 1663.22 875.949 1663.2C904.388 1663 932.663 1669.57 959.766 1677.6C929.866 1673.7 898.826 1671.74 869.198 1678.05C867.996 1678.36 865.368 1678.99 864.251 1679.42C853.561 1682.49 835.148 1694 831.202 1711.84C830.573 1714.68 830.292 1718.83 830.43 1723.28C835.946 1725.09 843.405 1726.65 852.024 1727.91C852.537 1714.53 857.869 1701.36 868.284 1693.51C860.1 1701.71 857.026 1716 859.079 1728.86C872.933 1730.48 889.134 1731.27 905.862 1730.84C905.651 1716.47 911.137 1701.93 922.307 1693.51C913.76 1702.08 910.897 1717.23 913.519 1730.51C961.675 1728.17 1010.74 1715.29 1012.97 1682C1014.62 1659.1 1011.68 1598.53 999.435 1578.94C990.404 1564.5 973.477 1555.92 911.518 1528.99C877.836 1514.34 853.479 1493.33 835.96 1472.1C833.707 1469.59 831.241 1467.21 829.16 1464.59Z" fill="white"/>
<path d="M835.957 1472.1C853.475 1493.33 877.832 1514.33 911.515 1528.98C973.474 1555.92 990.4 1564.5 999.431 1578.94C1011.68 1598.52 1014.61 1659.1 1012.97 1681.99C1010.74 1715.28 961.672 1728.17 913.516 1730.51C915.938 1742.78 923.022 1753.47 935.078 1755.71H968.054C1005.7 1755.71 1026.51 1740.66 1031.66 1709.72C1035.69 1685.43 1031.99 1628.01 1028.41 1572.48C1027.56 1559.33 1026.73 1546.38 1025.99 1533.94C984.467 1538.11 941.797 1532.71 902.831 1517.93C874.767 1507.07 853.014 1491.13 835.957 1472.1ZM830.426 1723.28C830.645 1730.35 832.21 1738.38 837.286 1744.7C841.961 1750.52 849.098 1754.02 858.474 1755.21C853.693 1747.25 851.651 1737.53 852.02 1727.91C843.401 1726.64 835.942 1725.09 830.426 1723.28ZM859.075 1728.85C861.147 1741.83 868.443 1753.36 881.054 1755.71H912.746C908.256 1748.46 905.988 1739.68 905.858 1730.83C889.13 1731.26 872.93 1730.47 859.075 1728.85Z" fill="#CCCCE3"/>
<path d="M1114.87 1728.25C1117.19 1739.69 1123.28 1749.9 1134.08 1755.24H1161.92L1181.36 1755.22C1182.54 1754.84 1183.96 1754.07 1185.3 1752.46C1189.85 1746.28 1192.48 1737.49 1193.42 1728.25H1114.87Z" fill="#CCCCE3"/>
<path d="M1164.23 1661.86C1138.17 1661.39 1111.22 1669.62 1091.36 1683.61C1133.91 1674.71 1177.06 1668.06 1219.67 1680.16C1204.23 1667.87 1184.5 1662.23 1164.23 1661.86Z" fill="#000072"/>
<path d="M1059.14 1443.26C1102.42 1432.73 1131.42 1416.87 1149.44 1393.19C1150.69 1396.67 1152.37 1400.01 1154.73 1402.96C1158.81 1407.9 1163.87 1411.36 1169.43 1413.75C1157.81 1429.25 1156.14 1451.49 1163.01 1469.53C1164.62 1474.26 1167.06 1478.34 1169.87 1482.09C1181.3 1497.35 1201.24 1504.89 1220.01 1506.67C1228.32 1507.57 1236.54 1507.61 1244.74 1507.17C1244.79 1522.38 1244.83 1533.66 1244.88 1547.82C1179.6 1526.8 1107.38 1539.69 1062.55 1552.18L1060.1 1528.28C1061.12 1528.04 1062.15 1527.8 1063.18 1527.57C1066.42 1526.82 1069.66 1526.08 1072.85 1525.15H1072.84C971.682 1525.34 850.707 1511.27 815.111 1405.73C860.909 1444.43 948.723 1470.12 1059.14 1443.26Z" fill="#CCCCE3"/>
<path d="M890.977 1069.59C846.226 1124.28 815.647 1190.04 797.359 1258.15C790.537 1287.25 787.353 1317.23 788.669 1346.24C786.47 1345.99 784.261 1345.84 782.062 1345.8C776.097 1345.69 770.206 1346.35 764.817 1347.73C772.299 1349.82 781.253 1352.51 789.483 1356.24C790.525 1368.82 792.778 1381.02 795.655 1392.97C791.9 1397.3 787.229 1400.55 781.372 1402.05C765.182 1406.18 752.474 1402.68 743.082 1397.57C742.938 1396.35 742.763 1395.17 742.588 1393.98C742.271 1391.83 741.953 1389.68 741.819 1387.29C736.117 1285.47 812.669 1137.96 895.139 1049.28L895.137 1049.29H895.139C897.332 1050.4 899.743 1050.92 902.075 1052.02C902.22 1051.82 902.203 1052.22 902.353 1052.02C930.488 1065.05 969.561 1076.98 1018.01 1079.09C1067.87 1081.28 1109.78 1075.23 1146 1063.79V1063.82C1146.02 1064.32 1194.64 1043.86 1200.01 1040.97C1298.83 1127.65 1374.92 1275.42 1364.03 1404.44C1362.41 1427.61 1357.29 1445.68 1348.52 1459.18C1314.43 1479.51 1261.12 1470 1261.13 1470C1229.84 1477.32 1206.05 1469.34 1204.7 1452.66C1204.06 1444.55 1207.4 1438.05 1210.53 1431.94C1213.45 1426.24 1216.19 1420.89 1215.36 1414.9C1213.48 1401.32 1203.61 1399.3 1192.05 1396.92C1187.76 1396.04 1183.24 1395.12 1178.8 1393.53C1172.09 1391.12 1167.02 1387.02 1163.14 1382.49C1162.8 1379.66 1162.89 1376.62 1163.68 1373.3C1166.73 1361.93 1178.33 1354.34 1189.97 1349.87C1201.37 1345.91 1213.59 1343.78 1225.53 1341.8C1218.83 1340.3 1212.14 1338.84 1205.4 1337.69C1206.01 1328.78 1205.5 1320.6 1204.69 1312.3C1199.43 1268.52 1187.76 1225.58 1172.02 1184.5C1166.76 1171.02 1160.13 1158.32 1153.53 1145.64C1152.31 1143.3 1151.1 1140.97 1149.89 1138.64C1150.99 1141.38 1152.02 1144.14 1153.06 1146.91C1153.33 1147.64 1153.61 1148.38 1153.88 1149.11C1170.6 1234.29 1178.76 1296.6 1170.49 1341.98C1165.16 1345.31 1160.25 1349.32 1156.12 1354.29C1147.5 1364.62 1144.88 1379.85 1149.44 1392.59C1131.42 1416.27 1102.43 1432.13 1059.14 1442.66C948.725 1469.53 860.911 1443.83 815.113 1405.13C812.849 1398.42 810.883 1391.39 809.337 1383.92C801.356 1343.61 803.812 1301.61 814.229 1261.86C830.968 1199.98 857.796 1141.96 884.696 1083.78C885.472 1082.11 886.397 1079.97 887.381 1077.7H887.382C888.546 1075.01 889.793 1072.13 890.977 1069.59Z" fill="white"/>
<path d="M1163.13 1383.08C1164.35 1393.32 1172.44 1400.1 1184.32 1401.74C1184.85 1401.74 1185.29 1401.89 1185.78 1401.97C1185.9 1401.97 1186.02 1401.94 1186.15 1401.94C1194.69 1401.94 1202.88 1406.85 1204.17 1415.93C1204.93 1422.15 1203.06 1428.38 1200.87 1434.11C1200.52 1428.76 1199.95 1422.87 1197.16 1418.25C1195.73 1416.25 1193.74 1415.06 1191.95 1415.39C1191.35 1415.44 1190.46 1415.65 1189.62 1415.94C1189.48 1416.05 1189.4 1416.19 1189.25 1416.3C1179.94 1422.35 1174.81 1434.08 1174.69 1446.2C1174.5 1475.85 1194.88 1488.24 1221.79 1491.03C1235.62 1492.79 1250.01 1491.38 1263.65 1489.5C1305.04 1493.35 1332.75 1484.05 1348.52 1459.77C1314.43 1480.1 1261.12 1470.59 1261.12 1470.59C1229.84 1477.91 1206.05 1469.93 1204.7 1453.25C1203.46 1437.57 1217.07 1427.91 1215.36 1415.49C1212.77 1396.87 1195.19 1399.98 1178.8 1394.12C1172.09 1391.71 1167.01 1387.61 1163.13 1383.08Z" fill="#CCCCE3"/>
<path d="M727.268 270.007C725.885 270.071 724.52 270.272 723.175 270.615C715.077 293.937 711.643 332.241 714.259 377.894C715.547 376.542 717.117 375.475 719.159 375.29C722.818 374.687 726.408 373.923 730.017 373.206C728.282 338.149 731.873 304.647 741.681 287.057C743.041 284.618 745.815 281.431 750.414 279.501C743.113 273.792 736.034 270.354 729.364 270.013C728.661 269.977 727.962 269.975 727.268 270.007Z" fill="#CCCCE3"/>
<path d="M1343.18 279.448C1334.47 279.649 1325.39 285.974 1317.08 303.313C1317.27 303.284 1317.48 303.214 1317.67 303.188C1319.47 302.932 1321.15 302.815 1322.71 302.816C1333.62 302.822 1338.65 308.572 1340.78 312.334C1361.69 349.421 1354.18 454.128 1327.38 499.06C1327.22 499.334 1326.92 499.468 1326.73 499.716C1331.62 505.558 1333.96 508.397 1335.18 509.877C1335.39 510.14 1337.45 512.596 1337.45 512.596C1337.45 512.607 1337.46 512.622 1337.47 512.634C1337.46 512.621 1337.46 512.608 1337.45 512.596C1341.08 517.615 1344.4 522.813 1347.66 528.047C1377.51 421.726 1376.1 317.141 1354.6 283.3C1353.95 282.623 1353.26 282.065 1352.57 281.494C1349.53 280.159 1346.38 279.374 1343.18 279.448Z" fill="#FF9343"/>
<path d="M1325.73 268.99C1285.16 267.65 1212.41 299.403 1148.75 340.536C1152.5 342.261 1156.2 344.129 1159.89 346.054C1237.45 300.564 1324.63 268.126 1348.65 278.904C1350.79 279.865 1352.76 281.379 1354.6 283.296C1352.07 279.32 1349.33 276.096 1346.27 274.192C1341.02 270.931 1334.05 269.265 1325.73 268.99Z" fill="white"/>
<path d="M1085.31 1748.08C1075.32 1741.76 1072.33 1730.95 1071.62 1719.63C1079.91 1724.5 1091.5 1727.84 1107.71 1728.2C1107.66 1729.45 1107.49 1730.68 1107.5 1731.93C1107.55 1740.01 1110.19 1748.04 1114.45 1755.14C1104.21 1754.86 1093.72 1753.39 1085.31 1748.08Z" fill="#CCCCE3"/>
<path d="M1011 1006.05C1136.34 1007.79 1238.73 986.646 1312.46 942.375C1255.1 993.09 1175.93 1012.41 1102.08 1029.14C1116.03 1029.55 1130.19 1029.04 1144.37 1027.8L1144.38 1027.99C1155.48 1027 1166.85 1025.41 1177.9 1023.41C1185.38 1029.08 1192.74 1035.19 1200 1041.56C1183.85 1050.25 1165.03 1057.72 1145.97 1063.82L1146 1064.38C1109.79 1075.83 1067.87 1081.87 1018.01 1079.69C969.551 1077.58 922.946 1062.68 894.81 1049.64C900.228 1042.43 907.78 1035.79 917.115 1026.06C935.351 1027.82 960.596 1029.7 978.841 1029.97C958.244 1026.48 934.724 1022.18 914.947 1018.05C907.125 1016.65 899.232 1014.71 891.422 1012.8C888.164 1012 884.921 1011.2 881.703 1010.45C873.394 1008.66 865.165 1006.17 856.958 1003.68C851.573 1002.05 846.197 1000.42 840.813 998.996C837.602 997.891 833.143 996.285 828.545 994.628C822.838 992.572 816.917 990.439 812.903 989.092C811.796 988.676 809.555 987.718 807.279 986.745C804.856 985.71 802.393 984.657 801.22 984.225C780.177 975.635 759.194 964.685 739.555 951.736C804.765 980.842 893.066 1001.94 1011 1006.05Z" fill="#CCCCE3"/>
<path d="M1247.34 1720.25C1246.56 1730.19 1243.9 1739.53 1236.47 1746.33C1229.07 1753.38 1215.94 1755.02 1202.99 1755.2L1198.75 1755.21C1201.63 1747.3 1202.16 1737.7 1201.09 1728.25H1206.73C1226.54 1728.25 1238.82 1725.38 1247.34 1720.25Z" fill="#CCCCE3"/>
<path d="M1063.8 476.614C1061.11 476.547 1058.51 476.984 1056.03 478.032C1029.6 489.207 1033.71 518.469 1049.71 526.952C1072.95 539.278 1123.69 525.059 1123.69 525.059C1123.69 525.059 1089.82 477.262 1063.8 476.614Z" fill="#000072"/>
<path d="M1315.11 333.276C1300.09 333.445 1271.05 363.46 1289.46 406.639C1297.44 425.383 1314.93 448.214 1323.05 470.882C1335.08 437.123 1339.13 389.317 1335.6 354.826C1329.77 344.971 1322.89 335.154 1317.9 333.645C1317.05 333.386 1316.11 333.265 1315.11 333.276Z" fill="#F27E80"/>
<path d="M1323.05 318.557C1322.6 318.549 1322.09 318.562 1321.52 318.602C1296.25 320.41 1238.14 366.372 1224.32 383.173C1250.46 402.766 1279.64 427.719 1319.37 480.175C1320.67 477.225 1321.9 474.115 1323.05 470.877C1314.92 448.209 1297.44 425.378 1289.45 406.634C1269.83 360.576 1304.17 329.496 1317.9 333.64C1322.89 335.149 1329.77 344.966 1335.6 354.821C1334.1 340.15 1331.35 327.686 1327.06 320.068C1326.84 319.682 1326.25 318.607 1323.05 318.557Z" fill="#FF5C64"/>
<path d="M1322.71 302.816C1321.16 302.815 1319.48 302.932 1317.67 303.188C1283.5 308.04 1210.31 366.438 1206.29 383.484C1205.57 386.558 1206.75 389.763 1209.29 391.636C1237.54 412.42 1268.91 437.88 1314.27 499.688C1315.76 501.717 1318.12 502.903 1320.62 502.903C1320.74 502.903 1320.87 502.902 1321 502.892C1323.63 502.767 1326.03 501.331 1327.39 499.06C1354.18 454.128 1361.69 349.421 1340.78 312.334C1338.66 308.572 1333.62 302.822 1322.71 302.816ZM1323.05 318.562C1326.25 318.613 1326.84 319.687 1327.06 320.074C1342.41 347.316 1339.96 433.385 1319.37 480.18C1279.64 427.724 1250.46 402.771 1224.32 383.178C1238.14 366.378 1296.26 320.415 1321.52 318.607C1322.09 318.568 1322.6 318.555 1323.05 318.562Z" fill="#000072"/>
<path d="M656.23 733.244C645.034 764.869 642.243 799.719 648.964 832.454C678.947 832.338 703.587 811.335 704.52 784.543C705.414 758.887 684.268 737.007 656.23 733.244Z" fill="#FF999E"/>
<path d="M737.324 248.562C741.798 245.805 747.845 244.369 755.245 244.204C818.295 242.803 839.376 264.037 861.536 288.994C883.426 299.48 905.938 309.006 929.822 313.861C961.493 321.045 993.659 323.945 1025.76 326.839C1036.44 327.801 1047.11 328.764 1057.75 329.883C1054.8 343.954 1051.88 368.349 1050.65 384.727C1049.23 414.804 1052.05 446.873 1062.66 476.702C1060.38 476.771 1058.15 477.139 1056.03 478.035C1029.61 489.21 1033.71 518.472 1049.72 526.955C1061.04 532.96 1078.86 532.63 1094.18 530.748C1107.65 545.929 1124.76 559.303 1146.45 569.858C1232.06 611.539 1306.22 581.429 1350.69 552.1C1359.79 580.483 1367.86 608.912 1374.21 638.176C1382.15 676.114 1386.72 714.874 1386.58 753.622C1359.86 759.416 1334.55 770.521 1314.27 787.534C1337.53 777.49 1361.71 770.256 1386.37 765.5C1386.14 773.18 1385.79 780.858 1385.17 788.524C1384.21 809.631 1380.14 830.604 1373.4 850.65C1369.11 850.302 1364.81 850.115 1360.52 850.105C1342.58 850.063 1324.78 852.95 1308.74 858.549C1329.03 858.276 1349.49 859.009 1369.54 861.658C1360.5 884.484 1347.67 905.761 1331.13 924.028C1325.23 930.626 1318.94 936.651 1312.46 942.379C1238.74 986.651 1136.35 1007.79 1011.01 1006.06C893.068 1001.94 804.767 980.847 739.556 951.74C698.608 924.74 664.034 888.241 650.659 840.663C650.19 838.84 649.838 836.989 649.487 835.137C649.318 834.243 649.148 833.348 648.965 832.457C678.948 832.341 703.588 811.338 704.522 784.546C705.415 758.891 684.269 737.01 656.231 733.247C658.811 725.959 661.673 718.784 665.128 711.918C674.925 611.563 698.799 501.418 764.272 422.101C778.295 425.667 792.986 425.328 806.845 419.048C806.844 419.045 806.842 419.043 806.84 419.041L806.838 419.038C780.78 418.636 756.366 407.63 737.795 390.066C757.14 386.69 776.306 381.114 794.237 373.585C797.794 372.109 801.297 370.61 804.762 369.127L804.796 369.112C812.483 365.823 819.98 362.616 827.461 359.918C838.37 355.996 849.486 353.244 861.063 351.581C861.164 351.571 861.259 351.544 861.354 351.517L861.38 351.509C861.444 351.492 861.508 351.474 861.575 351.463C869.174 350.365 877.255 350.489 885.4 350.615L885.406 350.615C895.471 350.77 905.634 350.926 915.111 348.778C904.919 348.043 895.63 345.165 886.244 342.258L886.24 342.257L886.237 342.256C879.813 340.266 873.341 338.261 866.505 336.921L866.492 337.003L849.245 333.871C849.257 333.927 849.27 333.982 849.283 334.038C849.216 333.973 849.148 333.907 849.081 333.841L849.036 333.833L849.028 333.789C824.68 310.056 785.569 281.467 763.422 278.169C761.738 277.917 760.171 277.802 758.715 277.801C755.32 277.799 752.708 278.54 750.413 279.503C743.112 273.794 736.032 270.356 729.363 270.015C727.258 269.907 725.193 270.102 723.174 270.617C723.198 270.546 723.223 270.475 723.248 270.404L723.254 270.386C723.29 270.283 723.325 270.18 723.361 270.076L723.373 270.041C724.104 267.935 724.834 265.83 725.648 264.002C725.65 264 725.653 263.998 725.655 263.997C728.952 256.59 732.861 251.313 737.324 248.562Z" fill="white"/>
<path d="M1337.44 512.593C1337.44 512.593 1336.45 511.405 1336.14 511.033C1336.44 511.39 1337.45 512.598 1337.45 512.598C1337.46 512.608 1337.46 512.618 1337.47 512.629C1337.47 512.636 1337.47 512.643 1337.48 512.649V512.655C1337.48 512.664 1337.48 512.673 1337.49 512.683C1337.47 512.654 1337.46 512.622 1337.44 512.593Z" fill="white"/>
<path d="M789.555 486.857C766.005 487.157 742.434 538.971 742.434 538.971C742.434 538.971 788.557 542.839 806.573 528.359C818.979 518.389 817.673 492.462 793.027 487.198C791.871 486.951 790.713 486.842 789.555 486.857Z" fill="#000072"/>
<path d="M1227.95 764.099C1195.75 764.312 1169.42 785.202 1168.48 811.878C1167.52 839.415 1193.99 862.689 1227.61 863.863C1261.22 865.037 1289.25 843.665 1290.21 816.129C1291.17 788.592 1264.7 765.317 1231.09 764.143C1230.04 764.107 1228.99 764.093 1227.95 764.099Z" fill="#FF999E"/>
<path d="M1159.89 346.056C1227.44 306.441 1302.26 276.707 1336.34 276.825H1336.33C1341.39 276.842 1345.54 277.514 1348.65 278.906C1350.03 279.527 1351.32 280.449 1352.57 281.492C1349.52 280.157 1346.38 279.372 1343.18 279.446C1334.47 279.647 1325.39 285.972 1317.08 303.311C1285.97 308.191 1223.96 355.843 1209.39 377.48C1207.85 379.768 1206.67 381.859 1206.29 383.48C1205.56 386.554 1206.74 389.758 1209.29 391.632C1237.53 412.415 1268.91 437.875 1314.27 499.684C1315.76 501.713 1318.12 502.898 1320.62 502.898C1320.74 502.898 1320.86 502.898 1320.99 502.888C1323.31 502.777 1325.33 501.525 1326.73 499.712C1332.93 507.116 1337.44 512.591 1337.44 512.591C1337.45 512.609 1337.46 512.627 1337.47 512.645C1337.47 512.657 1337.48 512.669 1337.48 512.681C1342.12 525.856 1346.48 538.974 1350.68 552.095C1306.22 581.425 1232.06 611.535 1146.44 569.854C1124.76 559.299 1107.65 545.925 1094.18 530.743C1110.32 528.762 1123.69 525.058 1123.69 525.058C1123.69 525.058 1089.82 477.261 1063.81 476.613C1063.58 476.607 1063.37 476.631 1063.15 476.655C1062.99 476.674 1062.82 476.692 1062.65 476.697C1051.02 443.981 1048.75 408.571 1051.17 376.049L1051.15 376.053C1052.37 359.672 1054.78 344.052 1057.75 329.879C1070.07 331.175 1082.37 332.647 1094.58 334.616C1121.53 338.777 1148 345.708 1174.43 354.335C1174.44 354.339 1174.45 354.344 1174.46 354.348C1174.46 354.352 1174.47 354.356 1174.48 354.36C1174.5 354.367 1174.52 354.374 1174.53 354.381C1174.52 354.372 1174.5 354.363 1174.48 354.356C1174.48 354.355 1174.48 354.353 1174.47 354.352L1174.48 354.35C1174.48 354.349 1174.47 354.348 1174.47 354.346L1174.46 354.342C1169.68 351.338 1164.81 348.626 1159.89 346.056Z" fill="#FFAD40"/>
<path d="M990.088 834.752C993.264 830.675 997.592 828.931 1001.96 828.926C1012.29 828.913 1022.84 838.655 1018.8 850.267C1016.79 848.991 1014.87 847.798 1012.99 846.666C1008.08 865.05 991.307 880.434 972.636 884.16C952.249 889.022 927.453 882.106 916.619 863.734C938.633 880.208 972.239 878.304 990.713 858.299C995.191 853.365 998.537 846.393 1000.6 839.765C997.332 838.098 993.902 836.465 990.088 834.752Z" fill="#000072"/>
<path d="M485.703 397.112C489.006 396.774 492.302 396.6 495.579 396.585C518.518 396.483 540.594 404.231 558.617 418.9C579.215 435.661 592.052 459.448 594.765 485.867C596.879 506.485 592.665 526.746 582.549 544.691L593.308 581.366C594.111 584.099 593.408 587.052 591.46 589.127C589.516 591.201 586.608 592.1 583.835 591.472L544.634 582.683C532.725 589.403 519.747 593.521 506.01 594.932C502.555 595.284 499.104 595.46 495.669 595.46C472.901 595.46 450.998 587.71 433.097 573.14C412.499 556.379 399.661 532.597 396.949 506.178C394.237 479.759 401.977 453.863 418.738 433.265C435.498 412.667 459.284 399.824 485.703 397.112Z" fill="#000072"/>
<path d="M1170.49 1342.57C1178.75 1297.19 1170.6 1234.89 1153.88 1149.71C1170.68 1194.39 1179.9 1241.63 1185.34 1288.91C1186.9 1303.83 1188.62 1319.03 1189.3 1333.97C1182.72 1336.09 1176.35 1338.92 1170.49 1342.57Z" fill="#CCCCE3"/>
<path d="M722.781 450.273C719.189 429.76 716.657 409.769 715.145 390.83C720.449 396.832 726.584 402.339 733.335 407.114C734.426 414.525 735.745 421.791 737.293 428.778C732.14 435.736 727.364 442.956 722.781 450.273Z" fill="#CCCCE3"/>
<path d="M1070.16 658.529C1037.59 658.479 1011.13 688.93 1011.08 726.545C1011.02 764.159 1037.38 794.693 1069.95 794.743C1102.53 794.794 1128.98 764.342 1129.04 726.728C1129.1 689.113 1102.74 658.58 1070.16 658.529Z" fill="#000072"/>
<path d="M1052.68 696.869C1042.06 696.853 1033.43 707.739 1033.41 721.184C1033.39 734.629 1041.98 745.542 1052.61 745.558C1063.23 745.575 1071.85 734.689 1071.88 721.244C1071.9 707.798 1063.3 696.886 1052.68 696.869Z" fill="white"/>
<path d="M1087.31 739.172C1081.43 739.163 1076.65 746.532 1076.64 755.63C1076.62 764.728 1081.38 772.111 1087.26 772.12C1093.14 772.129 1097.92 764.761 1097.93 755.663C1097.95 746.565 1093.19 739.181 1087.31 739.172Z" fill="#33338E"/>
<path d="M776.227 657.141C744.626 657.091 718.963 686.636 718.906 723.13C718.85 759.624 744.421 789.248 776.022 789.296C807.622 789.345 833.285 759.801 833.342 723.308C833.399 686.814 807.827 657.19 776.227 657.141Z" fill="#000072"/>
<path d="M759.263 694.344C748.961 694.328 740.592 704.888 740.572 717.931C740.552 730.975 748.888 741.561 759.19 741.577C769.493 741.593 777.861 731.032 777.881 717.989C777.901 704.946 769.566 694.359 759.263 694.344Z" fill="white"/>
<path d="M792.86 735.381C787.154 735.372 782.517 742.521 782.504 751.347C782.49 760.173 787.104 767.336 792.81 767.345C798.517 767.355 803.154 760.206 803.167 751.379C803.181 742.552 798.566 735.389 792.86 735.381Z" fill="#33338E"/>
<path d="M851.757 772.553C852.366 763.792 866.59 759.828 882.282 759.818C902.458 759.806 925.062 766.33 924.279 777.597C923.42 789.922 908.92 799.861 897.901 805.677C896.423 806.457 894.883 807.058 893.311 807.489C893.656 806.596 890.392 822.227 889.922 825.682C889.438 829.234 889.112 831.625 888.812 831.633C887.697 831.662 879.469 816.681 877.864 806.253C876.521 805.642 875.224 804.898 873.998 804.015C863.888 796.728 850.898 784.884 851.757 772.553Z" fill="#000072"/>
<path d="M877.929 767.395C873.188 767.415 869.356 768.022 869.26 769.412C869.099 771.692 874.046 774.063 877.868 775.545C880.515 776.575 883.946 776.81 886.713 776.157C890.706 775.218 895.93 773.556 896.09 771.276C896.251 768.959 885.829 767.362 877.929 767.395Z" fill="white"/>
<path d="M486.226 410.822C519.555 407.396 552.668 425.121 568.399 454.767C568.38 454.743 568.362 454.72 568.344 454.697C568.361 454.719 568.379 454.742 568.396 454.764C573.281 463.969 576.518 474.236 577.645 485.224C579.524 503.517 579.935 523.749 570.357 539.424C569.176 541.358 582.371 576.255 577.645 576.741C572.919 577.228 542.511 569.196 542.511 569.196C517.034 582.95 488.912 584.411 465.903 576.741C438.767 567.696 415.275 538.949 412.216 509.175C411.113 498.433 411.691 480.87 414.575 470.79C414.577 470.786 414.579 470.781 414.582 470.776C417.644 460.083 422.855 450.015 430.087 441.128C444.141 423.855 464.076 413.097 486.226 410.822Z" fill="white"/>
<path d="M477.713 465.092C473.195 465.22 468.796 466.895 465.337 470.356C457.427 478.267 457.427 491.089 465.337 498.995L466.567 500.226L491.435 525.093C493.52 527.177 496.899 527.177 498.984 525.093L523.851 500.226L525.081 498.995C532.981 491.089 532.982 478.267 525.076 470.356C517.165 462.445 504.343 463.862 496.437 471.773L495.207 473.003L493.976 471.773C489.526 467.323 483.522 464.928 477.713 465.092Z" fill="#FF0068"/>
<path d="M760.441 309.939C756.614 310.187 752.738 312.283 749.141 315.17C746.212 330.137 744.927 349.166 745.713 369.659C759.747 366.117 773.506 361.709 787.068 356.021C791.088 354.316 795.28 352.719 799.404 351.061C786.717 329.925 772.394 312.292 763.738 310.211C762.648 309.949 761.547 309.867 760.441 309.939Z" fill="#F27E80"/>
<path d="M758.642 293.545C756.096 293.545 755.628 294.384 755.438 294.725C752.717 299.606 750.752 306.946 749.143 315.17C753.78 311.448 758.88 309.045 763.74 310.21C772.396 312.291 786.72 329.924 799.406 351.061C810.146 346.744 821.094 342.647 832.358 339.853C810.103 319.631 777.188 295.095 759.908 293.605C759.441 293.565 759.019 293.545 758.642 293.545Z" fill="#FF5C64"/>
</svg>
