<svg width="802" height="1000" viewBox="0 0 802 1000" fill="none" xmlns="http://www.w3.org/2000/svg">
<g clip-path="url(#clip0_1112_493)">
<path d="M106.816 967.208C106.816 949.097 229.185 934.416 380.133 934.416C531.083 934.416 653.451 949.097 653.451 967.208C653.451 985.319 531.083 1000 380.133 1000C229.185 1000 106.816 985.319 106.816 967.208Z" fill="black"/>
<path d="M459.712 518.175C407.807 526.328 354.418 524.946 303.007 514.101C312.845 523.867 317.177 538.473 317.581 552.484C317.663 555.322 317.592 558.183 317.253 561L327.693 570.044L380.964 531.659C381.38 531.361 381.934 531.339 382.371 531.607L430.701 561.239L456.015 536.931C456.027 535.829 456.062 534.727 456.126 533.629C456.435 528.327 457.394 522.896 459.712 518.175Z" fill="#4A4978"/>
<path d="M346.105 66.2705C345.398 72.9794 341.735 81.5464 338.503 89.1043C338.452 89.2254 338.401 89.3446 338.349 89.4651C347.527 83.7783 358.544 81.4366 369.363 81.4094C380.69 81.3805 391.887 83.7417 402.843 86.6155C404.068 86.9367 405.312 87.2798 406.418 87.8773L405.927 86.439C401.95 74.8275 394.547 53.2131 402.565 45.6014C410.517 38.0512 423.098 39.0479 432.04 43.3854C441.258 47.8564 447.052 61.8946 451.069 73.6253C451.329 74.3841 451.872 74.9586 452.599 75.242C453.311 75.5189 454.108 75.4652 454.79 75.0944C458.932 72.8465 463.014 71.5699 467.27 71.1909C468.053 71.1212 468.767 70.7102 469.229 70.0625C469.698 69.4053 469.855 68.5763 469.66 67.7874C469.237 66.0816 468.825 64.3905 468.418 62.7148C465.745 51.7404 463.22 41.3749 458.881 31.8159C452.635 18.0587 443.145 7.924 432.161 3.27765C426.998 1.09294 421.173 0 414.994 0C408.955 0 402.578 1.04335 396.145 3.13181C367.595 12.3991 349.356 35.4124 346.105 66.2705Z" fill="#759F5A"/>
<path d="M702.542 423.969C702.219 425.079 701.204 425.8 700.104 425.8C699.868 425.8 699.628 425.767 699.391 425.698L695.506 424.565C694.159 424.171 693.385 422.76 693.778 421.413C694.171 420.065 695.582 419.292 696.929 419.684L700.814 420.817C702.162 421.21 702.935 422.621 702.542 423.969ZM693.044 417.043L686.73 416.396C685.334 416.253 684.318 415.005 684.461 413.609C684.604 412.212 685.854 411.194 687.249 411.339L693.563 411.987C694.959 412.13 695.974 413.378 695.832 414.774C695.697 416.083 694.593 417.057 693.306 417.057C693.22 417.057 693.132 417.052 693.044 417.043ZM684.295 422.637L676.687 422.817C676.666 422.817 676.645 422.817 676.625 422.817C675.249 422.817 674.118 421.719 674.086 420.336C674.053 418.932 675.163 417.768 676.566 417.735L684.175 417.555C685.587 417.542 686.742 418.633 686.776 420.036C686.809 421.44 685.698 422.604 684.295 422.637ZM665.829 413.22C665.829 411.816 666.968 410.678 668.371 410.678H676.304C677.708 410.678 678.846 411.816 678.846 413.22C678.846 414.624 677.708 415.761 676.304 415.761H668.371C666.968 415.761 665.829 414.624 665.829 413.22ZM779.419 506.222C774.202 482.019 761.567 458.839 743.84 440.95C725.269 422.209 702.872 410.655 679.073 407.537C656.646 404.599 636.355 409.988 623.4 422.324C610.002 435.082 604.557 459.926 618.166 475.176C627.154 485.247 640.491 488.023 654.611 490.963C665.624 493.255 677.011 495.626 686.351 501.76C696.303 508.296 703.384 518.856 706.829 532.3C709.833 544.025 709.968 557.675 707.208 570.735C703.24 589.511 694.291 607.313 681.373 622.577C692.905 643.044 701.362 665.238 706.382 688.188C720.874 675.598 733.376 662.188 744.012 647.844C759.244 627.302 770.614 603.929 776.895 580.254C783.66 554.749 784.509 529.841 779.419 506.222Z" fill="#4A4978"/>
<path d="M519.64 194.255C512.27 182.141 509.63 172.346 512.396 167.383C517.127 158.895 540.263 149.916 563.97 147.368C567.952 146.94 571.71 146.73 575.188 146.73C586.372 146.73 594.664 148.896 598.22 152.928C604.064 159.556 605.123 177.42 594.312 202.386C586.016 221.543 574.71 234.589 566.177 234.853C566.064 234.856 565.95 234.859 565.835 234.859C553.151 234.857 531.406 213.595 519.64 194.255ZM565.858 237.399C565.991 237.399 566.124 237.398 566.255 237.394C571.301 237.238 576.976 233.595 582.666 226.86C587.718 220.878 592.682 212.546 596.644 203.396C601.018 193.295 603.92 182.83 604.816 173.929C605.842 163.733 604.22 155.89 600.125 151.247C594.843 145.255 581.565 142.921 563.699 144.841C541.922 147.182 515.947 155.79 510.176 166.145C505.761 174.066 512.85 187.985 517.469 195.576C529.843 215.915 552.116 237.4 565.858 237.399Z" fill="black"/>
<path d="M196.619 225.009C187.346 233.337 179.073 237.822 173.289 237.646C164.755 237.384 153.449 224.336 145.154 205.18C134.342 180.215 135.401 162.35 141.246 155.721C144.801 151.69 153.093 149.524 164.276 149.524C167.755 149.524 171.513 149.734 175.495 150.162C199.202 152.71 222.338 161.689 227.068 170.177C229.835 175.14 227.195 184.935 219.825 197.049C213.755 207.025 205.297 217.216 196.619 225.009ZM221.996 198.371C226.615 190.779 233.704 176.861 229.289 168.939C223.517 158.584 197.544 149.976 175.767 147.635C157.9 145.715 144.623 148.049 139.34 154.04C135.246 158.683 133.624 166.527 134.649 176.723C135.545 185.624 138.447 196.09 142.821 206.191C146.783 215.34 151.748 223.673 156.8 229.653C162.49 236.389 168.164 240.031 173.211 240.187C173.342 240.191 173.474 240.193 173.608 240.193C187.35 240.191 209.622 218.709 221.996 198.371Z" fill="black"/>
<path d="M261.91 495.671C262.538 494.415 264.065 493.907 265.32 494.534L270.269 497.008C271.524 497.637 272.033 499.163 271.405 500.418C270.96 501.309 270.062 501.824 269.13 501.824C268.748 501.824 268.36 501.737 267.995 501.554L263.047 499.081C261.791 498.453 261.282 496.926 261.91 495.671ZM277.151 503.117C277.91 501.936 279.482 501.594 280.664 502.353L286.133 505.869C287.314 506.628 287.656 508.2 286.897 509.381C286.411 510.137 285.593 510.548 284.756 510.548C284.286 510.548 283.81 510.418 283.385 510.144L277.915 506.629C276.735 505.87 276.392 504.298 277.151 503.117ZM273.321 509.907C274.357 510.854 274.429 512.462 273.482 513.498C272.981 514.046 272.295 514.325 271.605 514.325C270.993 514.325 270.379 514.105 269.891 513.659L265.334 509.492C264.298 508.545 264.225 506.938 265.172 505.902C266.12 504.866 267.727 504.793 268.764 505.741L273.321 509.907ZM280.422 513.831C281.376 512.802 282.984 512.742 284.013 513.697L287.661 517.083C288.689 518.038 288.749 519.646 287.794 520.675C287.293 521.214 286.613 521.487 285.931 521.487C285.311 521.487 284.691 521.262 284.202 520.808L280.556 517.423C279.527 516.468 279.467 514.86 280.422 513.831ZM182.868 538.154C181.172 551.127 181.483 561.27 183.848 570.076C186.838 581.21 193.454 590.26 201.999 594.904C212.032 600.355 223.976 598.508 234.137 589.993C224.906 579.365 219.056 565.575 217.96 551.572C217.905 550.872 218.427 550.26 219.127 550.206C219.827 550.154 220.438 550.674 220.493 551.373C221.629 565.875 228.061 580.142 238.152 590.625C244.163 595.565 252.359 597.673 260.009 596.131C269.58 594.203 276.611 587.086 279.371 583.867C265.644 577.088 255.341 563.956 252.164 548.937C252.018 548.25 252.457 547.576 253.144 547.43C253.829 547.285 254.505 547.724 254.65 548.411C257.867 563.613 268.77 576.782 283.105 582.778C283.21 582.822 283.302 582.882 283.388 582.948C291.18 584.018 300.033 579.831 305.106 572.449C311.116 563.704 311.479 552.962 310.725 545.491C308.647 524.898 296.134 505.829 278.069 495.728C261.878 486.673 243.762 485.578 217.509 492.067C208.702 494.245 196.806 500.653 191.499 509.58C185.939 518.931 183.966 529.763 182.868 538.154Z" fill="#4A4978"/>
<path d="M519.5 492.974C519.348 493.001 519.197 493.014 519.048 493.014C517.841 493.014 516.77 492.151 516.549 490.922C516.301 489.54 517.22 488.219 518.601 487.971L523.283 487.131C524.661 486.881 525.986 487.802 526.234 489.184C526.481 490.565 525.562 491.886 524.181 492.134L519.5 492.974ZM492.535 494.859C494.438 493.142 496.768 491.938 499.27 491.377C500.637 491.068 501.999 491.931 502.306 493.3C502.613 494.67 501.753 496.03 500.382 496.337C498.732 496.707 497.195 497.501 495.939 498.634C495.453 499.072 494.844 499.288 494.237 499.288C493.543 499.288 492.851 499.005 492.349 498.448C491.409 497.406 491.492 495.799 492.535 494.859ZM504.441 494.596L510.201 493.276C511.571 492.962 512.933 493.818 513.247 495.185C513.561 496.554 512.706 497.917 511.337 498.231L505.576 499.551C505.385 499.594 505.194 499.615 505.006 499.615C503.847 499.615 502.801 498.818 502.531 497.641C502.218 496.272 503.073 494.909 504.441 494.596ZM506.673 484.919L511.835 483.359C513.176 482.953 514.597 483.713 515.003 485.056C515.409 486.4 514.649 487.819 513.305 488.225L508.145 489.785C507.899 489.859 507.651 489.894 507.407 489.894C506.317 489.894 505.308 489.186 504.976 488.087C504.57 486.744 505.33 485.325 506.673 484.919ZM583.268 498.823C577.962 489.898 566.066 483.489 557.259 481.311C531.002 474.822 512.889 475.917 496.698 484.971C478.633 495.074 466.12 514.142 464.042 534.736C463.287 542.207 463.651 552.948 469.661 561.692C474.735 569.074 483.588 573.26 491.379 572.192C491.464 572.126 491.557 572.066 491.662 572.022C505.997 566.025 516.9 552.856 520.116 537.654C520.261 536.968 520.932 536.529 521.623 536.674C522.309 536.819 522.748 537.494 522.603 538.181C519.427 553.191 509.134 566.318 495.419 573.1C495.422 573.116 495.424 573.131 495.427 573.147C498.206 576.381 505.221 583.454 514.757 585.374C522.41 586.918 530.604 584.81 536.615 579.869C546.707 569.385 553.139 555.118 554.273 540.617C554.329 539.918 554.93 539.398 555.64 539.449C556.34 539.504 556.863 540.115 556.808 540.815C555.711 554.819 549.862 568.608 540.63 579.237C550.791 587.751 562.735 589.598 572.768 584.147C581.313 579.503 587.929 570.454 590.919 559.32C593.284 550.514 593.595 540.37 591.898 527.397C590.801 519.006 588.829 508.175 583.268 498.823Z" fill="#4A4978"/>
<path d="M565.487 339.043C565.162 338.421 564.393 338.182 563.772 338.508C553.915 343.683 544.161 349.344 534.781 355.333C534.19 355.711 534.016 356.497 534.394 357.088C534.636 357.468 535.047 357.676 535.466 357.676C535.7 357.676 535.937 357.611 536.149 357.476C545.468 351.525 555.16 345.9 564.953 340.759C565.575 340.432 565.814 339.664 565.487 339.043Z" fill="black"/>
<path d="M578.128 364.047C564.813 367.432 551.13 369.849 537.458 371.231C536.76 371.301 536.251 371.924 536.321 372.623C536.387 373.277 536.94 373.766 537.584 373.766C537.627 373.766 537.67 373.763 537.714 373.759C551.509 372.365 565.317 369.926 578.754 366.51C579.435 366.337 579.846 365.646 579.673 364.966C579.499 364.285 578.809 363.873 578.128 364.047Z" fill="black"/>
<path d="M573.239 399.577C561.871 396.833 551.202 390.838 540.364 384.414C539.761 384.055 538.981 384.256 538.622 384.859C538.265 385.462 538.464 386.242 539.068 386.6C550.079 393.128 560.932 399.221 572.644 402.048C572.743 402.072 572.844 402.083 572.943 402.083C573.516 402.083 574.036 401.692 574.177 401.11C574.341 400.428 573.922 399.741 573.239 399.577Z" fill="black"/>
<path d="M206.94 355.334C197.555 349.343 187.802 343.682 177.949 338.508C177.328 338.182 176.559 338.422 176.233 339.043C175.907 339.664 176.146 340.432 176.768 340.758C186.558 345.899 196.248 351.523 205.572 357.476C205.784 357.611 206.021 357.676 206.255 357.676C206.674 357.676 207.084 357.468 207.327 357.089C207.705 356.497 207.531 355.711 206.94 355.334Z" fill="black"/>
<path d="M204.263 371.231C190.59 369.849 176.907 367.432 163.592 364.047C162.912 363.874 162.22 364.285 162.047 364.965C161.875 365.645 162.286 366.337 162.966 366.51C176.402 369.926 190.21 372.365 204.007 373.759C204.051 373.764 204.094 373.766 204.136 373.766C204.781 373.766 205.333 373.277 205.399 372.623C205.469 371.924 204.961 371.301 204.263 371.231Z" fill="black"/>
<path d="M201.357 384.414C190.519 390.839 179.849 396.833 168.481 399.577C167.798 399.742 167.379 400.428 167.543 401.11C167.684 401.692 168.205 402.083 168.778 402.083C168.877 402.083 168.977 402.072 169.077 402.048C180.789 399.221 191.642 393.128 202.653 386.6C203.257 386.242 203.456 385.462 203.098 384.859C202.74 384.255 201.961 384.056 201.357 384.414Z" fill="black"/>
<path fill-rule="evenodd" clip-rule="evenodd" d="M202.66 480.079C208.261 483.192 214.184 486.085 220.403 488.772C245.473 483.066 263.244 484.524 279.31 493.509C286.521 497.541 292.876 502.952 298.097 509.296C320.345 512.388 344.661 513.947 370.978 513.947C409.065 513.947 442.968 510.689 472.457 504.227C478.306 495.415 486.174 487.944 495.457 482.753C509.622 474.832 525.107 472.757 545.753 476.287C587.465 450.682 608.617 412.591 608.617 362.94C608.617 331.962 600.497 298.65 585.736 266.565C584.912 267.459 584.078 268.341 583.232 269.209C582.983 269.465 582.653 269.593 582.322 269.593C582.002 269.593 581.683 269.473 581.435 269.232C580.932 268.743 580.922 267.938 581.413 267.435C595.184 253.311 605.921 235.65 612.463 216.362C619.005 197.074 621.228 176.525 618.891 156.937C618.85 156.59 618.953 156.24 619.178 155.971C621.236 153.513 623.148 152.257 624.834 151.149L624.836 151.148L624.838 151.147C625.608 150.641 626.336 150.163 626.973 149.627C628.529 148.318 630.059 146.045 629.689 143.593C629.415 141.776 628.031 139.989 625.986 138.813C624 137.669 621.64 137.135 619.359 136.618L619.353 136.617C618.946 136.524 618.611 136.239 618.455 135.854C618.299 135.468 618.342 135.03 618.569 134.682C622.48 128.703 623.688 123.368 622.064 119.252C620.583 115.499 617.06 112.388 612.4 110.717C608.041 109.154 603.222 108.92 598.649 108.943C554.879 108.965 516.762 127.353 490.161 145.097C492.131 148.287 493.568 151.813 494.303 155.537C494.313 155.59 494.317 155.642 494.319 155.695C494.32 155.725 494.32 155.756 494.32 155.786C494.617 156.508 494.612 157.402 494.302 158.135C493.778 159.37 492.669 160.239 491.604 161.053C482.889 167.708 474.002 174.452 463.822 178.459C463.585 178.621 463.351 178.782 463.111 178.949C462.89 179.104 462.635 179.178 462.383 179.178C461.995 179.178 461.613 179.001 461.364 178.667C459.983 176.817 458.646 175.048 457.34 173.322C452.347 166.724 447.925 160.879 443.441 153.527C437.179 157.102 430.917 160.676 424.655 164.251L407.365 174.121C407.26 174.2 407.156 174.278 407.052 174.356L407.042 174.363C406.91 174.463 406.778 174.562 406.645 174.662C406.558 174.728 406.471 174.794 406.382 174.862C406.069 175.102 405.663 175.182 405.281 175.081C404.9 174.978 404.588 174.706 404.437 174.341C399.969 163.615 395.005 154.984 390.203 146.637C386.823 140.76 383.347 134.709 380.019 127.906C368.195 139.333 356.37 150.759 344.545 162.186L343.401 163.292C343.35 163.353 343.299 163.413 343.249 163.473L343.122 163.625C343.023 163.744 342.923 163.863 342.821 163.985C342.678 164.156 342.498 164.276 342.304 164.352C342.27 164.384 342.237 164.417 342.203 164.449L342.146 164.504L342.103 164.546C342.123 164.519 342.143 164.493 342.164 164.466C342.185 164.439 342.206 164.412 342.226 164.384C341.851 164.502 341.426 164.445 341.088 164.193C326.947 153.718 319.185 145.216 309.682 134.223C300.862 144.096 293.078 154.888 286.487 166.368C286.224 167.046 285.962 167.725 285.707 168.421C285.586 168.75 285.335 169.015 285.012 169.152C284.69 169.29 284.325 169.288 284.004 169.148C280.906 167.791 277.895 166.52 274.982 165.29L274.816 165.22C262.13 159.865 251.175 155.241 239.433 146.62C239.015 146.313 238.826 145.784 238.953 145.282C239.241 144.147 239.587 143.039 239.975 141.953C214.122 126.272 179.7 111.756 140.816 111.737C136.247 111.75 131.426 111.948 127.066 113.511C122.405 115.182 118.883 118.293 117.402 122.046C115.777 126.161 116.985 131.497 120.896 137.475C121.124 137.824 121.166 138.261 121.011 138.647C120.855 139.033 120.519 139.318 120.113 139.41C117.829 139.927 115.468 140.462 113.479 141.607C111.435 142.783 110.051 144.57 109.776 146.386C109.406 148.839 110.936 151.111 112.493 152.421C113.128 152.956 113.854 153.432 114.621 153.936L114.631 153.943C116.318 155.05 118.23 156.306 120.287 158.765C120.512 159.034 120.616 159.383 120.574 159.731C118.238 179.319 120.46 199.868 127.003 219.156C133.544 238.443 144.281 256.104 158.053 270.229C158.543 270.731 158.533 271.536 158.03 272.026C157.783 272.267 157.463 272.387 157.143 272.387C156.813 272.387 156.482 272.259 156.233 272.003C155.785 271.544 155.346 271.075 154.907 270.607L154.906 270.606L154.894 270.593C154.784 270.475 154.673 270.356 154.562 270.238C140.853 301.186 133.339 333.143 133.339 362.94C133.339 415.098 156.662 454.509 202.66 480.079ZM173.608 240.193C173.474 240.193 173.343 240.191 173.211 240.187C168.164 240.031 162.49 236.389 156.8 229.653C151.748 223.673 146.784 215.34 142.822 206.191C138.448 196.09 135.545 185.624 134.65 176.723C133.624 166.527 135.245 158.683 139.34 154.04C144.623 148.049 157.9 145.715 175.767 147.635C197.544 149.976 223.517 158.584 229.289 168.939C233.704 176.861 226.615 190.778 221.996 198.371C209.623 218.709 187.35 240.191 173.608 240.193ZM142.988 119.561C143.182 118.171 144.466 117.199 145.857 117.395L153.336 118.44C154.726 118.635 155.696 119.919 155.501 121.309C155.324 122.58 154.235 123.5 152.987 123.5C152.87 123.5 152.752 123.491 152.632 123.475L145.153 122.429C143.763 122.235 142.793 120.95 142.988 119.561ZM163.513 129.014C164.849 129.445 165.581 130.878 165.149 132.214C164.801 133.289 163.804 133.974 162.731 133.974C162.472 133.974 162.209 133.934 161.949 133.85L154.695 131.503C153.359 131.072 152.626 129.639 153.059 128.304C153.49 126.968 154.924 126.236 156.259 126.667L163.513 129.014ZM162.55 121.552C162.782 120.168 164.094 119.235 165.476 119.464L173.445 120.796C174.829 121.027 175.764 122.337 175.533 123.722C175.325 124.964 174.248 125.844 173.029 125.844C172.89 125.844 172.749 125.833 172.607 125.809L164.639 124.478C163.254 124.247 162.319 122.937 162.55 121.552ZM184.619 133.57C185.955 134 186.69 135.433 186.259 136.768C185.912 137.846 184.914 138.531 183.841 138.531C183.582 138.531 183.319 138.492 183.061 138.409L174.85 135.764C173.514 135.334 172.78 133.901 173.21 132.565C173.641 131.229 175.072 130.495 176.409 130.926L184.619 133.57ZM269.143 336.665C269.143 345.873 256.626 353.338 241.185 353.338C225.744 353.338 213.228 345.873 213.228 336.665C213.228 327.456 225.744 319.991 241.185 319.991C256.626 319.991 269.143 327.456 269.143 336.665ZM296.354 262.423C304.51 262.423 311.797 267.752 316.61 276.113L300.103 286.23L321.599 289.754C322.244 293.016 322.597 296.455 322.597 300.013C322.597 320.774 310.847 337.604 296.354 337.604C281.861 337.604 270.112 320.774 270.112 300.013C270.112 279.253 281.861 262.423 296.354 262.423ZM285.182 223.245C291.556 216.395 303.022 215.659 310.22 221.639C312.109 223.209 312.368 226.013 310.799 227.902C309.229 229.792 306.425 230.051 304.535 228.481C300.971 225.52 294.85 225.913 291.694 229.305C290.818 230.247 289.629 230.723 288.437 230.723C287.352 230.723 286.265 230.329 285.408 229.531C283.61 227.858 283.508 225.044 285.182 223.245ZM336.962 346.953C334.881 342.702 334.969 338.747 337.216 335.514C342.23 328.303 356.788 325.737 368.814 325.737H369.005C379.182 325.76 392.443 327.786 396.324 333.422C398.602 336.731 398.174 341.56 395.118 347.02C392.394 351.889 387.852 356.855 382.66 360.645C377.69 364.271 372.755 366.353 368.565 366.621C368.557 366.782 368.548 366.944 368.538 367.105C368.71 370.039 369.037 372.954 369.628 375.813C371.289 383.845 374.935 390.276 379.895 393.92C380.281 394.205 380.678 394.473 381.083 394.727C382.918 395.668 384.851 396.362 386.812 396.853C386.826 396.857 386.839 396.86 386.853 396.864C386.866 396.867 386.88 396.871 386.893 396.874C389.646 397.556 392.444 397.852 395.076 397.918C395.24 397.922 395.402 397.923 395.565 397.925C395.656 397.926 395.746 397.927 395.836 397.928C399.211 397.713 402.905 397.034 406.954 395.866C415.48 393.408 421.766 390.275 426.735 386.004C432.89 380.714 436.805 373.51 437.476 366.239C437.54 365.54 438.158 365.023 438.858 365.091C439.556 365.155 440.071 365.774 440.006 366.472C439.276 374.394 435.043 382.215 428.392 387.932C424.553 391.231 419.997 393.878 414.358 396.065C414.4 396.15 414.433 396.239 414.454 396.333C414.528 396.652 416.263 404.276 416.146 414.371C416.067 421.111 415.105 429.879 411.582 438.033C411.579 438.042 411.577 438.052 411.576 438.061C411.574 438.068 411.573 438.074 411.572 438.081C411.57 438.085 411.569 438.089 411.567 438.093C405.244 452.621 392.895 460.688 374.817 462.136H374.813C373.902 462.209 372.973 462.263 372.033 462.302C371.86 462.309 371.685 462.315 371.511 462.321C370.585 462.353 369.651 462.375 368.699 462.375C367.748 462.375 366.815 462.353 365.891 462.321C365.82 462.318 365.749 462.316 365.678 462.313C365.583 462.31 365.488 462.307 365.393 462.303C364.467 462.264 363.552 462.209 362.652 462.138C362.633 462.136 362.614 462.135 362.596 462.133L362.534 462.127C362.519 462.126 362.505 462.124 362.49 462.123C347.74 460.91 336.624 455.24 329.313 445.205C329.282 445.164 329.252 445.123 329.222 445.081L329.222 445.081C329.207 445.059 329.192 445.038 329.176 445.017C328.302 443.803 327.483 442.526 326.72 441.187L326.69 441.133C326.662 441.085 326.635 441.037 326.608 440.99C326.59 440.958 326.572 440.927 326.555 440.895C326.209 440.277 325.87 439.651 325.548 439.008C325.543 438.999 325.54 438.99 325.537 438.98L325.534 438.973C325.531 438.964 325.528 438.956 325.525 438.948C321.267 430.386 319.866 421.001 319.518 413.858C319.092 405.131 320.084 398.222 320.426 396.164C314.669 393.958 310.037 391.281 306.139 387.932C299.488 382.215 295.255 374.394 294.524 366.472C294.46 365.774 294.974 365.155 295.674 365.091C296.371 365.033 296.991 365.54 297.056 366.239C297.726 373.51 301.64 380.714 307.796 386.004C312.766 390.275 319.051 393.409 327.577 395.866C333.861 397.678 339.3 398.332 343.989 397.847C344.54 397.776 345.083 397.69 345.619 397.589C345.646 397.584 345.672 397.579 345.699 397.574C345.853 397.544 346.006 397.513 346.159 397.481C346.564 397.397 346.963 397.303 347.358 397.201C349.233 396.718 351.006 396.042 352.676 395.175C353.351 394.792 354.009 394.381 354.637 393.92C359.595 390.276 363.241 383.846 364.903 375.813C365.494 372.954 365.822 370.039 365.992 367.105C365.986 366.994 365.98 366.883 365.974 366.771L365.968 366.669C365.966 366.631 365.964 366.594 365.962 366.557C355.495 365.471 341.41 356.037 336.962 346.953ZM349.239 192.252C350.637 192.127 351.871 193.162 351.995 194.559L353.177 207.866C353.301 209.264 352.269 210.498 350.871 210.623C350.794 210.629 350.718 210.633 350.643 210.633C349.341 210.633 348.232 209.638 348.114 208.316L346.932 195.009C346.808 193.611 347.84 192.377 349.239 192.252ZM355.848 224.113L355.553 238.012C355.523 239.397 354.391 240.5 353.013 240.5C352.994 240.5 352.976 240.499 352.958 240.499C351.554 240.469 350.441 239.307 350.471 237.904L350.767 224.006C350.797 222.602 351.963 221.485 353.361 221.519C354.765 221.548 355.878 222.71 355.848 224.113ZM364.155 179.529C365.55 179.463 366.737 180.572 366.788 181.975L367.084 189.959C367.136 191.361 366.041 192.541 364.638 192.592C364.606 192.594 364.575 192.594 364.543 192.594C363.182 192.594 362.055 191.518 362.005 190.147L361.709 182.163C361.657 180.76 362.752 179.581 364.155 179.529ZM367.97 218.018C368.04 219.42 366.96 220.613 365.558 220.684C365.515 220.685 365.472 220.687 365.429 220.687C364.084 220.687 362.961 219.631 362.893 218.272L362.301 206.444C362.232 205.042 363.312 203.848 364.713 203.778C366.11 203.708 367.308 204.788 367.379 206.19L367.97 218.018ZM370.631 241.932L370.039 253.464C369.97 254.822 368.848 255.876 367.504 255.876C367.46 255.876 367.416 255.875 367.372 255.873C365.969 255.801 364.891 254.606 364.963 253.205L365.555 241.672C365.626 240.27 366.829 239.188 368.223 239.264C369.625 239.335 370.703 240.53 370.631 241.932ZM375.605 221.694C375.605 220.29 376.743 219.152 378.147 219.152C379.55 219.152 380.688 220.29 380.688 221.694V232.044C380.688 233.447 379.55 234.585 378.147 234.585C376.743 234.585 375.605 233.447 375.605 232.044V221.694ZM380.044 192.892C380.109 191.49 381.296 190.403 382.701 190.471C384.103 190.536 385.186 191.726 385.121 193.128L384.53 205.843C384.467 207.205 383.342 208.267 381.993 208.267C381.972 208.267 381.95 208.267 381.929 208.266C381.91 208.266 381.892 208.265 381.873 208.264C380.471 208.199 379.387 207.009 379.452 205.607L380.044 192.892ZM434.972 262.423C443.128 262.423 450.415 267.752 455.228 276.113L438.721 286.23L460.217 289.754C460.862 293.016 461.215 296.455 461.215 300.013C461.215 320.774 449.465 337.604 434.972 337.604C420.479 337.604 408.73 320.774 408.73 300.013C408.73 279.253 420.479 262.423 434.972 262.423ZM423.8 223.245C430.174 216.395 441.64 215.66 448.838 221.638C450.727 223.208 450.987 226.013 449.418 227.902C447.848 229.792 445.045 230.051 443.154 228.481C439.59 225.521 433.469 225.913 430.311 229.305C429.436 230.247 428.247 230.723 427.054 230.723C425.97 230.723 424.883 230.329 424.026 229.531C422.227 227.858 422.126 225.044 423.8 223.245ZM493.2 319.991C508.64 319.991 521.158 327.456 521.158 336.665C521.158 345.873 508.64 353.338 493.2 353.338C477.759 353.338 465.243 345.873 465.243 336.665C465.243 327.456 477.759 319.991 493.2 319.991ZM510.176 166.145C515.948 155.79 541.922 147.182 563.699 144.841C581.565 142.921 594.843 145.255 600.125 151.247C604.22 155.89 605.842 163.733 604.816 173.929C603.92 182.83 601.018 193.295 596.644 203.396C592.682 212.545 587.718 220.879 582.666 226.86C576.976 233.595 571.301 237.238 566.255 237.393C566.21 237.395 566.164 237.396 566.119 237.397C566.032 237.399 565.945 237.399 565.858 237.399C552.116 237.4 529.843 215.915 517.469 195.576C512.85 187.984 505.761 174.066 510.176 166.145ZM558.953 129.685L565.142 127.649C566.475 127.211 567.912 127.936 568.351 129.269C568.79 130.603 568.064 132.039 566.731 132.478L560.541 134.513C560.278 134.6 560.01 134.642 559.747 134.642C558.679 134.642 557.685 133.963 557.333 132.893C556.894 131.56 557.62 130.123 558.953 129.685ZM563.528 118.262L573.771 115.896C575.135 115.581 576.503 116.432 576.82 117.8C577.136 119.168 576.283 120.532 574.916 120.849L564.672 123.215C564.48 123.259 564.287 123.281 564.098 123.281C562.941 123.281 561.895 122.486 561.624 121.311C561.308 119.943 562.16 118.578 563.528 118.262ZM580.547 124.965L589.098 122.183C590.434 121.749 591.867 122.479 592.302 123.814C592.736 125.148 592.005 126.582 590.671 127.017L582.121 129.799C581.859 129.884 581.594 129.924 581.333 129.924C580.262 129.924 579.267 129.242 578.917 128.169C578.483 126.834 579.212 125.4 580.547 124.965ZM589.45 113.287L597.238 112.186C598.625 111.989 599.915 112.957 600.111 114.347C600.307 115.737 599.339 117.022 597.95 117.219L590.161 118.32C590.041 118.337 589.921 118.345 589.803 118.345C588.556 118.345 587.469 117.428 587.289 116.159C587.093 114.77 588.06 113.483 589.45 113.287ZM578.755 366.51C565.318 369.926 551.51 372.365 537.714 373.759C537.694 373.761 537.674 373.763 537.654 373.764C537.631 373.765 537.607 373.766 537.585 373.766C536.94 373.766 536.388 373.278 536.321 372.623C536.251 371.925 536.76 371.301 537.458 371.231C551.13 369.849 564.813 367.432 578.128 364.047C578.809 363.873 579.499 364.285 579.673 364.966C579.846 365.646 579.434 366.337 578.755 366.51ZM574.177 401.11C574.037 401.692 573.516 402.083 572.943 402.083C572.844 402.083 572.743 402.072 572.644 402.048C560.932 399.221 550.079 393.128 539.068 386.6C538.465 386.242 538.265 385.462 538.622 384.859C538.98 384.256 539.76 384.055 540.364 384.414C551.201 390.838 561.871 396.833 573.239 399.577C573.922 399.741 574.342 400.428 574.177 401.11ZM535.466 357.676C535.047 357.676 534.637 357.468 534.394 357.089C534.016 356.497 534.19 355.711 534.781 355.334C544.161 349.344 553.915 343.684 563.772 338.508C564.393 338.183 565.162 338.421 565.487 339.043C565.814 339.664 565.575 340.433 564.953 340.759C555.16 345.901 545.468 351.525 536.149 357.476C535.937 357.611 535.7 357.676 535.466 357.676ZM207.327 357.089C207.084 357.468 206.674 357.676 206.255 357.676C206.021 357.676 205.784 357.611 205.572 357.476C196.249 351.523 186.557 345.898 176.768 340.758C176.146 340.432 175.907 339.664 176.234 339.042C176.56 338.421 177.328 338.182 177.949 338.508C187.802 343.682 197.555 349.342 206.94 355.334C207.531 355.711 207.704 356.496 207.327 357.089ZM205.399 372.623C205.333 373.278 204.78 373.766 204.136 373.766C204.093 373.766 204.05 373.763 204.007 373.759C190.21 372.365 176.402 369.926 162.966 366.51C162.286 366.337 161.874 365.645 162.047 364.965C162.22 364.285 162.912 363.874 163.592 364.047C176.907 367.432 190.59 369.848 204.263 371.231C204.96 371.301 205.47 371.925 205.399 372.623ZM202.653 386.599C191.642 393.128 180.789 399.221 169.077 402.048C168.977 402.072 168.877 402.083 168.778 402.083C168.205 402.083 167.684 401.692 167.544 401.11C167.379 400.428 167.799 399.742 168.481 399.577C179.85 396.833 190.519 390.839 201.357 384.414C201.961 384.056 202.74 384.255 203.098 384.859C203.456 385.462 203.257 386.242 202.653 386.599Z" fill="#4A4978"/>
<path d="M775.943 711.4L783.222 728.348C783.357 728.663 783.608 728.914 783.923 729.05L800.872 736.328C801.952 736.792 801.952 738.323 800.872 738.787L783.923 746.066C783.608 746.201 783.357 746.452 783.222 746.767L775.943 763.716C775.479 764.796 773.948 764.796 773.484 763.716L766.206 746.767C766.07 746.452 765.819 746.201 765.504 746.066L748.555 738.787C747.475 738.323 747.475 736.792 748.555 736.328L765.504 729.05C765.819 728.914 766.07 728.663 766.206 728.348L773.484 711.4C773.948 710.32 775.479 710.32 775.943 711.4Z" fill="white"/>
<path d="M274.105 135.657C272.836 133.803 272.685 131.399 272.926 129.165C273.591 123.01 277.04 117.209 282.131 113.686C284.704 111.904 286.796 110.854 289.032 110.631C291.267 110.407 293.792 111.396 294.629 113.481C295.608 115.919 294.002 118.565 292.47 120.699C288.985 125.554 285.5 130.41 282.016 135.266C281.437 136.073 280.832 136.904 279.974 137.406C278.035 138.539 275.374 137.512 274.105 135.657ZM323.412 106.151C324.08 104.804 325.234 103.773 326.36 102.777C327.51 101.76 329.274 101.193 330.857 101.463C331.906 101.642 332.791 102.438 333.224 103.41C333.657 104.382 333.677 105.504 333.437 106.54C332.739 109.552 329.707 111.842 326.618 111.689C325.507 111.634 324.354 111.257 323.638 110.404C322.672 109.253 322.744 107.497 323.412 106.151ZM313.346 120.703C312.994 122.111 312.842 123.56 312.897 125.01C312.923 125.711 312.377 126.301 311.675 126.328C311.659 126.329 311.642 126.329 311.626 126.329C310.946 126.329 310.383 125.791 310.357 125.106C310.293 123.415 310.469 121.726 310.88 120.086C311.051 119.405 311.739 118.991 312.422 119.162C313.103 119.333 313.517 120.023 313.346 120.703ZM435.426 123.007C436.096 122.793 436.809 123.163 437.023 123.831C438.518 128.512 439.495 133.366 439.931 138.259C439.993 138.959 439.476 139.576 438.777 139.638C438.739 139.641 438.701 139.643 438.663 139.643C438.012 139.643 437.458 139.146 437.399 138.485C436.981 133.777 436.039 129.107 434.602 124.604C434.388 123.935 434.757 123.22 435.426 123.007ZM265.644 121.569C254.115 124.469 244.92 133.402 241.637 145.081C252.879 153.202 263.521 157.694 275.804 162.878C278.391 163.97 281.054 165.094 283.791 166.282C289.269 151.835 296.465 141.409 305.949 128.39C306.178 128.076 306.537 127.884 306.925 127.868C307.317 127.853 307.686 128.015 307.94 128.309L308.856 129.372C319.363 141.578 327.018 150.468 341.639 161.434C354.839 145.623 364.214 135.66 378.37 122.37C378.669 122.09 379.085 121.97 379.484 122.049C379.886 122.128 380.225 122.395 380.395 122.767C384.243 131.178 388.393 138.392 392.407 145.37C397.02 153.392 401.785 161.674 406.144 171.851C412.305 167.206 417.662 163.666 422.854 160.236C428.469 156.525 434.275 152.689 441.153 147.425C441.377 147.253 441.649 147.163 441.926 147.163C442.011 147.163 442.096 147.171 442.18 147.188C442.54 147.262 442.851 147.488 443.032 147.809C448.359 157.24 453.46 163.982 459.366 171.789C460.443 173.211 461.541 174.663 462.666 176.165C465.678 174.104 468.444 172.408 471.127 170.763C477.461 166.88 483.449 163.209 491.667 155.354C488.993 143.375 478.502 133.731 466.631 132.171C469.236 138.171 470.649 144.739 470.669 151.231C470.672 151.933 470.104 152.504 469.402 152.506H469.398C468.698 152.506 468.13 151.94 468.127 151.24C468.101 142.81 465.607 134.243 461.103 127.117C461.101 127.113 461.1 127.109 461.097 127.104C452.614 115.572 440.003 107.48 426.23 104.814C430.259 109.197 433.404 114.39 435.367 120.027C435.598 120.69 435.248 121.414 434.585 121.645C434.446 121.693 434.305 121.716 434.166 121.716C433.641 121.716 433.149 121.388 432.967 120.863C430.294 113.187 425.3 106.382 418.81 101.502C405.05 93.4492 389.406 88.748 373.245 87.8717C355.683 86.9205 338.677 90.5306 324.01 98.304C319.547 103.396 316.324 109.534 314.679 116.104C314.535 116.682 314.017 117.067 313.448 117.067C313.345 117.067 313.242 117.055 313.138 117.029C312.457 116.858 312.043 116.168 312.214 115.488C313.77 109.269 316.66 103.415 320.629 98.3914C300.574 95.2997 279.247 104.353 269.311 120.403C269.276 120.458 269.234 120.505 269.193 120.554C264.332 128.342 261.604 137.627 261.511 146.799C261.503 147.497 260.935 148.057 260.24 148.057H260.226C259.525 148.05 258.962 147.475 258.969 146.773C259.058 138.052 261.411 129.231 265.644 121.569Z" fill="#FF9500"/>
<path d="M602.486 846.482C602.306 847.009 601.813 847.342 601.284 847.342C601.147 847.342 601.009 847.32 600.873 847.273C600.209 847.046 599.854 846.324 600.082 845.66C617.439 794.889 619.842 738.259 606.848 686.201C606.678 685.52 607.092 684.83 607.772 684.659C608.45 684.491 609.144 684.904 609.313 685.585C622.425 738.112 620 795.253 602.486 846.482ZM586.505 789.543C577.095 814.744 557.579 839.598 531.551 859.527C531.238 859.767 530.831 859.847 530.451 859.746C530.07 859.644 529.757 859.372 529.606 859.008C524.205 846.078 520.27 837.086 518.229 833.004C516.159 828.865 501.473 830.076 485.492 835.701C472.701 840.205 466.336 845.118 466.841 847.455C468.242 853.925 475.193 875.79 479.211 888.248C479.415 888.879 479.1 889.558 478.488 889.812C443.236 904.422 403.771 911.83 361.189 911.83C330.744 911.83 301.899 906.986 275.453 897.434C274.843 897.214 274.497 896.57 274.649 895.94C277.211 885.378 283.273 860.06 284.243 853.099C284.574 850.732 277.861 846.307 264.77 842.77C248.413 838.349 233.677 838.239 231.922 842.521C230.251 846.592 227.156 855.381 222.969 867.937C222.84 868.322 222.536 868.622 222.149 868.746C221.762 868.868 221.339 868.8 221.012 868.559C200.008 853.152 182.192 833.876 169.49 812.818C157.741 793.339 150.785 773.27 149.372 754.782C147.926 735.846 152.666 719.881 162.721 709.827C181.564 690.983 208.026 696.663 233.814 705.608C234.389 705.808 234.742 706.387 234.656 706.989C233.059 718.195 231.054 732.877 230.574 739.186C230.21 743.96 244.14 751.094 259.8 754.153C270.366 756.218 276.538 755.286 277.174 753.298C278.286 749.825 280.571 740.51 283.783 726.357C283.864 725.999 284.096 725.694 284.419 725.52C284.742 725.346 285.124 725.32 285.466 725.447C326.048 740.572 349.007 743.252 364.475 743.898C393.785 745.121 423.999 735.406 452.276 724.725C452.617 724.597 452.997 724.621 453.319 724.79C453.642 724.96 453.875 725.261 453.96 725.615C456.853 737.548 460.66 752.818 462.378 757.788C463.159 760.047 471.149 760.942 484.424 758.15C501.001 754.662 514.179 748.072 513.8 743.459C513.174 735.85 510.177 716.152 508.446 705.088C508.348 704.46 508.727 703.857 509.335 703.674C536.292 695.568 566.243 691.39 583.995 721.887C594.905 740.631 595.796 764.658 586.505 789.543ZM495.361 867.331C494.464 869.993 492.875 872.683 490.246 873.674C486.854 874.953 482.94 872.812 481.001 869.748C479.063 866.683 478.625 862.937 478.233 859.332C477.983 857.031 477.351 853.639 478.19 850.393C479.03 847.146 481.46 844.078 484.767 843.528C487.074 843.144 489.473 844.051 491.24 845.582C493.008 847.113 494.203 849.21 495.039 851.394C496.976 856.456 497.092 862.194 495.361 867.331ZM489.026 895.209C482.103 915.716 471.886 934.799 458.661 951.929C458.411 952.253 458.035 952.423 457.655 952.423C457.383 952.423 457.11 952.337 456.879 952.158C456.323 951.729 456.221 950.931 456.649 950.375C469.702 933.469 479.784 914.635 486.618 894.396C486.842 893.732 487.562 893.371 488.229 893.599C488.893 893.823 489.251 894.544 489.026 895.209ZM307.497 951.158C307.277 951.31 307.024 951.383 306.776 951.383C306.373 951.383 305.976 951.191 305.729 950.835C299.419 941.695 294.574 931.676 291.328 921.056C291.123 920.384 291.501 919.674 292.172 919.469C292.843 919.263 293.553 919.642 293.759 920.312C296.928 930.683 301.659 940.466 307.82 949.39C308.22 949.968 308.074 950.76 307.497 951.158ZM242.656 868.434C240.673 869.802 238.183 870.792 235.875 870.102C233.756 869.47 232.238 867.515 231.56 865.411C230.518 862.169 231.195 858.571 232.677 855.505C234.159 852.439 236.388 849.808 238.592 847.213C238.839 847.323 240.241 846.143 241.899 845.468C243.557 844.792 245.515 844.677 247.101 845.507C249.418 846.722 250.366 849.569 250.534 852.179C250.939 858.463 247.839 864.859 242.656 868.434ZM133.73 814.123C133.858 814.813 133.402 815.476 132.712 815.603C132.634 815.617 132.556 815.625 132.479 815.625C131.878 815.625 131.344 815.197 131.231 814.584C117.925 742.558 132.565 665.632 171.395 603.529C171.767 602.934 172.552 602.753 173.146 603.125C173.742 603.497 173.922 604.281 173.55 604.876C135.053 666.447 120.539 742.714 133.73 814.123ZM113.825 657.613C110.648 667.128 109.171 677.809 102.237 685.057C98.2653 689.209 91.7743 691.789 86.7135 689.07C81.0444 686.024 80.105 678.337 80.5839 671.92C82.7952 642.288 99.8684 616.1 116.785 591.672C119.512 587.736 126.904 581.221 135.669 577.946C139.944 576.349 145.499 575.801 148.393 579.328C150.758 582.21 150.18 586.449 149.174 590.038C142.284 614.599 121.903 633.416 113.825 657.613ZM101.502 727.546C98.6349 733.069 92.3211 736.602 86.1142 736.156C81.8315 735.849 77.6274 733.662 75.2703 730.074C73.111 726.787 72.6233 722.599 73.2864 718.722C74.4206 712.088 78.9052 706.114 84.9598 703.174C88.463 701.473 95.754 705.186 99.69 710.006C103.626 714.827 104.369 722.023 101.502 727.546ZM247.206 727.64C246.278 729.473 244.607 731.204 242.552 731.172C240.494 731.139 238.833 729.274 238.335 727.277C237.836 725.279 238.231 723.18 238.635 721.161C238.798 720.343 239.44 718.56 240.626 717.171C241.812 715.783 243.806 714.917 245.508 715.578C247.204 716.236 248.074 718.136 248.377 719.93C248.818 722.536 248.402 725.281 247.206 727.64ZM207.502 648.653C212.714 629.37 233.943 608.545 260.446 607.076C274.072 606.326 288.373 612.134 300.714 623.446C311.116 632.982 319.45 646.001 322.463 657.424C325.242 667.958 323.181 675.813 316.809 678.973C314.334 680.201 312.046 680.74 309.899 680.74C302.495 680.741 296.763 674.327 290.773 667.626C282.856 658.769 273.884 648.73 258.739 648.73C248.856 648.73 241.38 655.677 234.784 661.805C227.548 668.529 220.713 674.881 212.6 669.526C206.808 665.703 204.95 658.095 207.502 648.653ZM303.041 612.007C306.055 600.057 312.659 588.827 321.636 580.384C322.146 579.902 322.95 579.926 323.432 580.439C323.913 580.95 323.888 581.754 323.377 582.236C314.75 590.35 308.403 601.144 305.505 612.628C305.36 613.205 304.842 613.588 304.273 613.588C304.171 613.588 304.066 613.576 303.962 613.55C303.281 613.378 302.869 612.687 303.041 612.007ZM345.418 694.212C351.554 683.983 363.607 669.906 371.16 670.595C380.477 671.457 391.913 689.632 396.71 701.645C398.885 707.094 400.949 714.194 398.429 717.075C395.8 720.078 385.306 721.405 374.33 721.405C371.197 721.405 368.027 721.296 364.987 721.089C357.201 720.557 343.654 718.925 340.396 713.978C337.284 709.252 342.207 699.565 345.418 694.212ZM475.623 742.372C474.987 743.784 474.09 745.179 472.7 745.86C470.283 747.044 467.241 745.546 465.794 743.276C464.348 741.007 464.091 738.203 463.872 735.521C463.706 733.472 463.331 729.75 464.394 726.207C464.972 724.28 466.065 722.224 468.013 721.721C470.189 721.159 472.314 722.815 473.662 724.612C477.412 729.611 478.192 736.677 475.623 742.372ZM474.35 607.076C487.983 606.325 502.276 612.134 514.616 623.446C525.018 632.982 533.352 646.001 536.365 657.424C539.145 667.958 537.084 675.813 530.712 678.973C528.237 680.201 525.948 680.74 523.802 680.74C516.398 680.741 510.666 674.327 504.675 667.626C496.759 658.769 487.786 648.73 472.642 648.73C462.758 648.73 455.282 655.677 448.686 661.805C441.45 668.529 434.614 674.88 426.503 669.526C420.71 665.703 418.853 658.095 421.404 648.653C426.617 629.37 447.845 608.545 474.35 607.076ZM444.673 571.483C445.236 571.062 446.032 571.178 446.451 571.739L460.698 590.794C461.119 591.357 461.003 592.153 460.441 592.573C460.213 592.743 459.947 592.826 459.682 592.826C459.295 592.826 458.913 592.65 458.663 592.316L444.416 573.261C443.996 572.7 444.111 571.902 444.673 571.483ZM579.15 611.223C579.724 610.815 580.515 610.948 580.923 611.519C587.184 620.291 591.848 630.46 594.41 640.928C594.577 641.609 594.16 642.297 593.478 642.464C593.376 642.489 593.275 642.501 593.174 642.501C592.603 642.501 592.084 642.112 591.941 641.532C589.455 631.375 584.93 621.508 578.854 612.996C578.447 612.424 578.58 611.63 579.15 611.223ZM628.79 594.674C635.847 591.938 644.777 597.234 645.76 604.74C658.908 621.553 669.871 646.9 672.379 673.121C672.867 678.222 673.013 683.541 671.064 688.279C669.115 693.018 664.571 697.026 659.45 696.86C654.219 696.691 649.943 692.296 648.001 687.437C646.06 682.577 645.896 677.226 645.239 672.034C643.792 660.59 639.812 649.474 633.667 639.712C629.004 632.305 623.026 625.486 620.552 617.089C618.077 608.694 620.628 597.838 628.79 594.674ZM695.54 681.947C690.924 653.407 680.948 626.373 665.893 601.595C653.843 581.764 638.528 563.322 620.375 546.783C611.248 538.466 602.314 531.48 594.24 525.748C594.302 526.192 594.362 526.635 594.418 527.067C595.864 538.12 595.876 547.2 594.436 555.195C595.002 563.642 592.44 572.411 587.159 579.433C580.439 588.368 569.078 594.018 557.984 592.622C550.764 591.714 544.228 588.066 538.127 584.048C536.942 584.945 535.498 585.619 534.118 586.143C526.492 589.036 518.109 590.455 510.123 588.794C502.721 587.254 495.737 582.788 492.078 576.225C485.945 577.703 479.204 576.581 473.672 573.46C467.01 569.701 462.057 563.298 459.254 556.181C457.276 551.161 456.314 545.801 456.074 540.399L431.754 563.752C431.338 564.153 430.702 564.222 430.21 563.919L381.764 534.216L328.364 572.694C327.886 573.038 327.234 573.008 326.789 572.623L316.79 563.961C316.523 565.302 316.185 566.628 315.751 567.929C313.406 574.954 308.346 581.034 301.866 584.619C295.988 587.869 288.995 589.029 282.376 587.915C277.478 594.307 270.395 599.023 262.573 600.966C254.133 603.063 244.942 601.907 237.251 597.857C231.938 601 225.767 602.697 219.592 602.636C214.726 602.588 209.883 601.452 205.536 599.186C203.92 598.658 202.333 597.977 200.785 597.136C191.632 592.162 184.563 582.539 181.394 570.736C178.939 561.596 178.607 551.139 180.349 537.823C180.801 534.361 181.407 530.49 182.336 526.468C168.806 533.585 150.022 545.345 131.37 563.161C110.843 582.769 94.4881 605.772 82.7609 631.53C68.0962 663.74 60.6605 700.385 60.6605 740.449C60.6605 786.726 67.7915 826.926 81.8552 859.933C93.0857 886.292 108.741 908.151 128.386 924.901C156.474 948.851 184.881 955.421 193.478 956.934C169.027 930.536 152.418 897.049 146.53 862.055C146.414 861.362 146.881 860.707 147.572 860.591C148.263 860.477 148.92 860.941 149.037 861.633C155.12 897.784 172.801 932.312 198.83 958.877C227.409 976.301 256.618 979.532 276.294 979.11C298.16 978.646 313.245 973.731 313.394 973.681C313.525 973.638 313.659 973.616 313.794 973.616C313.984 973.616 314.174 973.66 314.348 973.744C354.896 993.393 390.841 990.534 413.852 984.676C438.828 978.318 454.411 967.153 454.565 967.042C454.87 966.82 455.257 966.744 455.626 966.838C486.067 974.599 510.722 969.791 526.045 964.39C541.391 958.98 550.698 951.919 552.114 950.803C568.107 931.962 580.365 909.526 587.566 885.887C587.77 885.215 588.48 884.835 589.152 885.042C589.823 885.246 590.202 885.956 589.997 886.628C582.965 909.713 571.169 931.661 555.82 950.317C589.502 949.525 620.214 933.918 644.789 905.048C666.48 879.566 682.733 844.805 691.793 804.523C700.764 764.632 702.06 722.246 695.54 681.947Z" fill="#FF9500"/>
<path d="M350.643 210.633C350.718 210.633 350.794 210.629 350.871 210.623C352.269 210.498 353.301 209.264 353.177 207.866L351.995 194.559C351.871 193.162 350.637 192.127 349.239 192.252C347.84 192.377 346.808 193.611 346.932 195.009L348.114 208.316C348.232 209.638 349.341 210.633 350.643 210.633Z" fill="#5F5FA2"/>
<path d="M364.713 203.778C363.312 203.848 362.231 205.042 362.302 206.444L362.893 218.272C362.961 219.63 364.084 220.686 365.429 220.686C365.472 220.686 365.515 220.686 365.558 220.684C366.96 220.613 368.04 219.42 367.97 218.018L367.379 206.19C367.308 204.788 366.111 203.707 364.713 203.778Z" fill="#5F5FA2"/>
<path d="M350.767 224.006L350.471 237.904C350.441 239.307 351.554 240.469 352.958 240.499C352.976 240.5 352.994 240.5 353.013 240.5C354.391 240.5 355.523 239.397 355.553 238.012L355.848 224.113C355.878 222.71 354.764 221.549 353.361 221.519C351.963 221.485 350.797 222.602 350.767 224.006Z" fill="#5F5FA2"/>
<path d="M365.555 241.672L364.963 253.205C364.892 254.606 365.969 255.801 367.372 255.873C367.416 255.876 367.46 255.876 367.504 255.876C368.848 255.876 369.97 254.822 370.04 253.465L370.631 241.932C370.703 240.53 369.625 239.335 368.223 239.264C366.83 239.187 365.626 240.27 365.555 241.672Z" fill="#5F5FA2"/>
<path d="M378.147 234.585C379.55 234.585 380.688 233.447 380.688 232.044L380.689 221.693C380.689 220.29 379.55 219.152 378.147 219.152C376.743 219.152 375.605 220.29 375.605 221.693L375.605 232.044C375.605 233.447 376.743 234.585 378.147 234.585Z" fill="#5F5FA2"/>
<path d="M381.873 208.264C381.914 208.266 381.954 208.267 381.993 208.267C383.342 208.267 384.467 207.205 384.53 205.843L385.121 193.128C385.186 191.726 384.103 190.536 382.701 190.471C381.296 190.403 380.109 191.49 380.044 192.892L379.452 205.607C379.388 207.009 380.471 208.199 381.873 208.264Z" fill="#5F5FA2"/>
<path d="M364.543 192.595C364.575 192.595 364.607 192.594 364.639 192.593C366.042 192.541 367.136 191.362 367.084 189.959L366.789 181.975C366.737 180.572 365.55 179.463 364.155 179.529C362.752 179.581 361.657 180.76 361.709 182.163L362.005 190.147C362.056 191.517 363.183 192.595 364.543 192.595Z" fill="#5F5FA2"/>
<path d="M492.349 498.448C492.851 499.005 493.543 499.288 494.238 499.288C494.845 499.288 495.453 499.072 495.939 498.634C497.195 497.502 498.732 496.707 500.383 496.336C501.752 496.029 502.614 494.67 502.307 493.3C501.999 491.931 500.638 491.068 499.27 491.377C496.768 491.938 494.438 493.142 492.535 494.859C491.493 495.799 491.409 497.405 492.349 498.448Z" fill="#5F5FA2"/>
<path d="M502.531 497.641C502.801 498.818 503.847 499.615 505.006 499.615C505.194 499.615 505.385 499.595 505.577 499.551L511.337 498.231C512.706 497.917 513.56 496.554 513.247 495.186C512.934 493.818 511.571 492.962 510.202 493.276L504.441 494.596C503.072 494.909 502.217 496.273 502.531 497.641Z" fill="#5F5FA2"/>
<path d="M507.407 489.894C507.651 489.894 507.899 489.859 508.145 489.785L513.305 488.225C514.649 487.819 515.409 486.4 515.003 485.056C514.596 483.713 513.176 482.953 511.835 483.359L506.673 484.919C505.33 485.325 504.57 486.744 504.976 488.087C505.308 489.186 506.316 489.894 507.407 489.894Z" fill="#5F5FA2"/>
<path d="M526.234 489.184C525.986 487.802 524.661 486.882 523.283 487.131L518.601 487.971C517.22 488.219 516.301 489.54 516.549 490.922C516.77 492.151 517.841 493.015 519.048 493.015C519.196 493.015 519.348 493.002 519.5 492.974L524.181 492.134C525.562 491.886 526.481 490.565 526.234 489.184Z" fill="#5F5FA2"/>
<path d="M263.047 499.081L267.995 501.554C268.36 501.737 268.748 501.824 269.13 501.824C270.063 501.824 270.96 501.309 271.405 500.418C272.034 499.163 271.524 497.636 270.269 497.009L265.32 494.534C264.065 493.907 262.538 494.415 261.91 495.671C261.282 496.927 261.791 498.453 263.047 499.081Z" fill="#5F5FA2"/>
<path d="M265.172 505.902C264.225 506.938 264.298 508.545 265.334 509.492L269.891 513.659C270.379 514.105 270.993 514.325 271.605 514.325C272.295 514.325 272.981 514.046 273.482 513.498C274.429 512.462 274.357 510.854 273.321 509.908L268.764 505.741C267.727 504.793 266.12 504.866 265.172 505.902Z" fill="#5F5FA2"/>
<path d="M277.915 506.629L283.385 510.144C283.81 510.418 284.286 510.548 284.756 510.548C285.592 510.548 286.411 510.137 286.897 509.381C287.656 508.2 287.314 506.628 286.134 505.869L280.664 502.353C279.482 501.594 277.91 501.936 277.151 503.117C276.392 504.298 276.734 505.871 277.915 506.629Z" fill="#5F5FA2"/>
<path d="M284.202 520.808C284.691 521.262 285.312 521.487 285.931 521.487C286.613 521.487 287.293 521.214 287.794 520.675C288.749 519.646 288.689 518.038 287.661 517.083L284.013 513.697C282.984 512.742 281.376 512.802 280.422 513.831C279.467 514.86 279.527 516.468 280.556 517.423L284.202 520.808Z" fill="#5F5FA2"/>
<path d="M678.846 413.22C678.846 411.816 677.708 410.678 676.305 410.678L668.371 410.678C666.968 410.678 665.83 411.816 665.83 413.22C665.83 414.623 666.968 415.761 668.371 415.761L676.305 415.761C677.708 415.761 678.846 414.624 678.846 413.22Z" fill="#5F5FA2"/>
<path d="M684.175 417.555L676.566 417.735C675.163 417.768 674.053 418.932 674.086 420.336C674.118 421.719 675.249 422.817 676.625 422.817C676.646 422.817 676.666 422.817 676.687 422.817L684.295 422.637C685.698 422.604 686.809 421.439 686.776 420.036C686.743 418.633 685.587 417.542 684.175 417.555Z" fill="#5F5FA2"/>
<path d="M695.832 414.774C695.975 413.378 694.959 412.13 693.563 411.987L687.249 411.339C685.854 411.195 684.604 412.212 684.461 413.608C684.318 415.005 685.334 416.253 686.73 416.396L693.044 417.043C693.132 417.052 693.22 417.057 693.306 417.057C694.593 417.057 695.697 416.082 695.832 414.774Z" fill="#5F5FA2"/>
<path d="M700.815 420.817L696.929 419.684C695.583 419.292 694.171 420.065 693.778 421.413C693.385 422.76 694.159 424.172 695.506 424.564L699.391 425.698C699.629 425.767 699.868 425.8 700.104 425.8C701.205 425.8 702.219 425.079 702.543 423.969C702.935 422.622 702.161 421.21 700.815 420.817Z" fill="#5F5FA2"/>
<path d="M145.153 122.429L152.632 123.475C152.752 123.491 152.87 123.5 152.987 123.5C154.235 123.5 155.324 122.58 155.501 121.309C155.695 119.919 154.726 118.635 153.336 118.44L145.857 117.395C144.466 117.199 143.181 118.17 142.988 119.56C142.793 120.951 143.763 122.235 145.153 122.429Z" fill="#5F5FA2"/>
<path d="M153.059 128.304C152.626 129.639 153.359 131.071 154.695 131.503L161.949 133.85C162.209 133.934 162.472 133.974 162.731 133.974C163.804 133.974 164.801 133.29 165.149 132.214C165.581 130.878 164.849 129.446 163.513 129.014L156.259 126.667C154.924 126.236 153.49 126.968 153.059 128.304Z" fill="#5F5FA2"/>
<path d="M164.638 124.478L172.607 125.81C172.749 125.833 172.889 125.844 173.029 125.844C174.249 125.844 175.325 124.964 175.532 123.722C175.764 122.337 174.829 121.027 173.444 120.796L165.476 119.464C164.093 119.235 162.782 120.168 162.55 121.552C162.319 122.937 163.254 124.247 164.638 124.478Z" fill="#5F5FA2"/>
<path d="M173.21 132.565C172.78 133.901 173.514 135.334 174.85 135.764L183.061 138.409C183.319 138.492 183.582 138.531 183.841 138.531C184.914 138.531 185.912 137.846 186.259 136.768C186.69 135.433 185.955 134 184.619 133.57L176.409 130.926C175.072 130.495 173.641 131.229 173.21 132.565Z" fill="#5F5FA2"/>
<path d="M589.803 118.345C589.922 118.345 590.041 118.337 590.161 118.32L597.95 117.219C599.339 117.023 600.307 115.737 600.111 114.347C599.915 112.957 598.624 111.989 597.238 112.186L589.45 113.287C588.06 113.483 587.093 114.77 587.289 116.159C587.469 117.428 588.557 118.345 589.803 118.345Z" fill="#5F5FA2"/>
<path d="M581.333 129.924C581.594 129.924 581.859 129.884 582.121 129.799L590.671 127.017C592.005 126.583 592.736 125.148 592.301 123.813C591.867 122.478 590.434 121.749 589.098 122.183L580.547 124.965C579.212 125.4 578.483 126.834 578.917 128.169C579.267 129.242 580.262 129.924 581.333 129.924Z" fill="#5F5FA2"/>
<path d="M559.747 134.642C560.01 134.642 560.278 134.6 560.541 134.513L566.731 132.478C568.064 132.04 568.79 130.603 568.351 129.269C567.912 127.936 566.475 127.211 565.142 127.649L558.953 129.685C557.62 130.123 556.894 131.56 557.333 132.893C557.685 133.963 558.679 134.642 559.747 134.642Z" fill="#5F5FA2"/>
<path d="M564.098 123.281C564.288 123.281 564.48 123.259 564.672 123.215L574.916 120.849C576.283 120.533 577.136 119.168 576.82 117.8C576.503 116.432 575.135 115.581 573.771 115.896L563.528 118.262C562.16 118.578 561.308 119.943 561.624 121.311C561.895 122.486 562.941 123.281 564.098 123.281Z" fill="#5F5FA2"/>
<path d="M664.298 289.397L671.577 306.345C671.712 306.66 671.963 306.911 672.278 307.047L689.227 314.325C690.307 314.789 690.307 316.32 689.227 316.784L672.278 324.063C671.963 324.198 671.712 324.449 671.577 324.764L664.298 341.713C663.834 342.793 662.303 342.793 661.839 341.713L654.561 324.764C654.425 324.449 654.174 324.198 653.859 324.063L636.91 316.784C635.831 316.32 635.831 314.789 636.91 314.325L653.859 307.047C654.174 306.911 654.425 306.66 654.561 306.345L661.839 289.397C662.303 288.317 663.834 288.317 664.298 289.397Z" fill="white"/>
<path d="M65.4873 478.988L72.7666 495.937C72.9018 496.251 73.1527 496.503 73.4674 496.638L90.4161 503.917C91.496 504.381 91.496 505.911 90.4161 506.376L73.4674 513.654C73.1527 513.789 72.9018 514.041 72.7666 514.356L65.4873 531.304C65.0238 532.384 63.4927 532.384 63.0286 531.304L55.75 514.356C55.6148 514.041 55.3639 513.789 55.0485 513.654L38.0999 506.376C37.02 505.911 37.02 504.381 38.0999 503.917L55.0485 496.638C55.3639 496.503 55.6148 496.251 55.75 495.937L63.0286 478.988C63.4927 477.908 65.0238 477.908 65.4873 478.988Z" fill="white"/>
<path d="M214.057 23.1895L221.337 40.1381C221.472 40.4528 221.723 40.7038 222.038 40.8396L238.986 48.1182C240.066 48.5823 240.066 50.1128 238.986 50.5769L222.038 57.8555C221.723 57.9907 221.472 58.2423 221.337 58.557L214.057 75.5056C213.594 76.5856 212.063 76.5856 211.599 75.5056L204.32 58.557C204.185 58.2423 203.934 57.9907 203.619 57.8555L186.67 50.5769C185.59 50.1128 185.59 48.5823 186.67 48.1182L203.619 40.8396C203.934 40.7038 204.185 40.4528 204.32 40.1381L211.599 23.1895C212.063 22.1095 213.594 22.1095 214.057 23.1895Z" fill="white"/>
<path d="M705.983 256.777L709.854 265.791C709.926 265.958 710.06 266.092 710.227 266.164L719.241 270.036C719.816 270.282 719.816 271.097 719.241 271.343L710.227 275.215C710.06 275.287 709.926 275.42 709.854 275.588L705.983 284.602C705.736 285.176 704.922 285.176 704.675 284.602L700.804 275.588C700.732 275.42 700.598 275.287 700.43 275.215L691.416 271.343C690.842 271.097 690.842 270.282 691.416 270.036L700.43 266.164C700.598 266.092 700.732 265.958 700.804 265.791L704.675 256.777C704.922 256.202 705.736 256.202 705.983 256.777Z" fill="white"/>
<path d="M684.82 910.208L688.692 919.222C688.764 919.389 688.898 919.523 689.065 919.595L698.079 923.466C698.654 923.713 698.654 924.527 698.079 924.774L689.065 928.645C688.898 928.717 688.764 928.851 688.692 929.018L684.82 938.032C684.574 938.607 683.759 938.607 683.513 938.032L679.642 929.018C679.569 928.851 679.436 928.717 679.268 928.645L670.254 924.774C669.68 924.527 669.68 923.713 670.254 923.466L679.268 919.595C679.436 919.523 679.569 919.389 679.642 919.222L683.513 910.208C683.759 909.633 684.574 909.633 684.82 910.208Z" fill="white"/>
<path d="M298.541 17.9608L302.412 26.9754C302.484 27.1425 302.618 27.276 302.785 27.348L311.799 31.2197C312.374 31.4665 312.374 32.2807 311.799 32.5275L302.785 36.3986C302.618 36.4706 302.484 36.6041 302.412 36.7718L298.541 45.7864C298.294 46.3603 297.48 46.3603 297.233 45.7864L293.362 36.7718C293.29 36.6041 293.156 36.4706 292.988 36.3986L283.974 32.5275C283.4 32.2807 283.4 31.4665 283.974 31.2197L292.988 27.348C293.156 27.276 293.29 27.1425 293.362 26.9754L297.233 17.9608C297.48 17.3863 298.294 17.3863 298.541 17.9608Z" fill="white"/>
<path d="M14.997 858.892L18.8687 867.907C18.9401 868.074 19.0741 868.208 19.2413 868.28L28.2558 872.151C28.8304 872.398 28.8304 873.212 28.2558 873.459L19.2413 877.33C19.0741 877.402 18.9401 877.536 18.8687 877.703L14.997 886.718C14.7502 887.292 13.9359 887.292 13.6891 886.718L9.81806 877.703C9.74602 877.536 9.61258 877.402 9.44489 877.33L0.43089 873.459C-0.14363 873.212 -0.14363 872.398 0.43089 872.151L9.44489 868.28C9.61258 868.208 9.74602 868.074 9.81806 867.907L13.6891 858.892C13.9359 858.318 14.7502 858.318 14.997 858.892Z" fill="white"/>
<path d="M104.477 424.542L109.778 436.887C109.877 437.117 110.06 437.299 110.289 437.398L122.635 442.7C123.422 443.038 123.422 444.153 122.635 444.491L110.289 449.793C110.06 449.891 109.877 450.074 109.778 450.304L104.477 462.649C104.139 463.436 103.024 463.436 102.686 462.649L97.3841 450.304C97.2855 450.074 97.1024 449.891 96.8733 449.793L84.5279 444.491C83.7409 444.153 83.7409 443.038 84.5279 442.7L96.8733 437.398C97.1024 437.299 97.2855 437.117 97.3841 436.887L102.686 424.542C103.024 423.755 104.139 423.755 104.477 424.542Z" fill="white"/>
</g>
<defs>
<clipPath id="clip0_1112_493">
<rect width="802" height="1000" fill="white"/>
</clipPath>
</defs>
</svg>
