<svg width="2001" height="2000" viewBox="0 0 2001 2000" fill="none" xmlns="http://www.w3.org/2000/svg">
<g clip-path="url(#clip0_1263_205)">
<path d="M0.617188 2000H2000.62V0.000488281H0.617188V2000Z" fill="#9C6368"/>
<path d="M556.139 458.705C564.549 437.375 581.385 420.538 602.714 412.13C581.385 403.721 564.549 386.884 556.139 365.555C547.731 386.884 530.895 403.721 509.564 412.13C530.895 420.538 547.731 437.375 556.139 458.705Z" fill="#FE9541"/>
<path d="M509.564 412.13C530.895 403.721 547.731 386.884 556.139 365.555C564.549 386.884 581.385 403.721 602.714 412.13C581.385 420.538 564.548 437.374 556.139 458.705C547.731 437.375 530.895 420.538 509.564 412.13ZM553.018 461.733L554.265 465.104C554.554 465.889 555.303 466.41 556.139 466.41C556.974 466.41 557.724 465.889 558.013 465.104L559.26 461.733C567.24 440.172 584.183 423.229 605.741 415.251L609.113 414.004C609.897 413.715 610.419 412.965 610.419 412.13C610.419 411.294 609.897 410.545 609.113 410.256L605.741 409.009C584.183 401.028 567.24 384.086 559.26 362.527L558.013 359.156C557.435 357.587 554.843 357.587 554.265 359.156L553.018 362.527C545.039 384.086 528.097 401.028 506.536 409.009L503.165 410.256C502.38 410.545 501.859 411.294 501.859 412.13C501.859 412.965 502.38 413.715 503.165 414.004L506.536 415.251C528.097 423.229 545.039 440.172 553.018 461.733Z" fill="black"/>
<path d="M1304.74 267.03C1296.32 288.36 1279.49 305.196 1258.16 313.604C1279.49 322.013 1296.32 338.849 1304.74 360.18C1313.15 338.849 1329.98 322.013 1351.31 313.604C1329.98 305.196 1313.15 288.362 1304.74 267.03Z" fill="#FE9541"/>
<path d="M1351.31 313.604C1329.98 322.013 1313.15 338.849 1304.74 360.18C1296.32 338.849 1279.49 322.013 1258.16 313.604C1279.49 305.196 1296.32 288.36 1304.74 267.03C1313.15 288.362 1329.98 305.196 1351.31 313.604ZM1357.71 311.73L1354.34 310.483C1332.78 302.506 1315.84 285.564 1307.85 264.001L1306.61 260.63C1306.32 259.845 1305.57 259.324 1304.74 259.324C1303.9 259.324 1303.15 259.845 1302.86 260.628L1301.61 264.001C1293.63 285.564 1276.69 302.506 1255.13 310.483L1251.76 311.73C1250.98 312.019 1250.46 312.768 1250.46 313.604C1250.46 314.439 1250.98 315.189 1251.76 315.478L1255.13 316.725C1276.69 324.703 1293.63 341.646 1301.61 363.208L1302.86 366.58C1303.15 367.363 1303.9 367.884 1304.74 367.884C1305.57 367.884 1306.32 367.363 1306.61 366.578L1307.85 363.207C1315.84 341.646 1332.78 324.703 1354.34 316.725L1357.71 315.478C1358.5 315.189 1359.02 314.441 1359.02 313.604C1359.02 312.766 1358.5 312.019 1357.71 311.73Z" fill="black"/>
<path d="M1521.1 1079.38C1512.7 1100.7 1495.86 1117.54 1474.53 1125.95C1495.86 1134.36 1512.7 1151.2 1521.1 1172.53C1529.51 1151.2 1546.35 1134.36 1567.68 1125.95C1546.34 1117.54 1529.51 1100.7 1521.1 1079.38Z" fill="#FE9541"/>
<path d="M1567.68 1125.95C1546.35 1134.36 1529.51 1151.2 1521.1 1172.53C1512.7 1151.2 1495.86 1134.36 1474.53 1125.95C1495.86 1117.54 1512.7 1100.7 1521.1 1079.38C1529.51 1100.7 1546.34 1117.54 1567.68 1125.95ZM1574.08 1124.08L1570.71 1122.83C1549.14 1114.85 1532.2 1097.9 1524.23 1076.35L1522.97 1072.98C1522.69 1072.19 1521.94 1071.67 1521.1 1071.67C1520.27 1071.67 1519.52 1072.2 1519.23 1072.98L1517.98 1076.35C1510 1097.9 1493.06 1114.85 1471.5 1122.83L1468.13 1124.08C1467.34 1124.37 1466.82 1125.12 1466.82 1125.95C1466.82 1126.79 1467.35 1127.54 1468.13 1127.83L1471.5 1129.07C1493.06 1137.05 1510 1154 1517.98 1175.55L1519.23 1178.92C1519.52 1179.71 1520.26 1180.23 1521.1 1180.23C1521.94 1180.23 1522.69 1179.71 1522.97 1178.93L1524.23 1175.56C1532.2 1154 1549.14 1137.05 1570.71 1129.07L1574.08 1127.83C1574.86 1127.54 1575.38 1126.79 1575.38 1125.95C1575.38 1125.12 1574.86 1124.37 1574.08 1124.08Z" fill="black"/>
<path d="M580.288 1132.5C571.876 1153.83 555.04 1170.67 533.709 1179.08C555.038 1187.48 571.876 1204.32 580.288 1225.65C588.698 1204.32 605.534 1187.48 626.867 1179.08C605.536 1170.67 588.698 1153.84 580.288 1132.5Z" fill="#FE9541"/>
<path d="M626.867 1179.08C605.535 1187.48 588.698 1204.32 580.288 1225.65C571.877 1204.32 555.038 1187.48 533.709 1179.08C555.04 1170.67 571.877 1153.83 580.288 1132.5C588.698 1153.84 605.537 1170.67 626.867 1179.08ZM633.264 1180.95C634.047 1180.66 634.568 1179.91 634.568 1179.08C634.568 1178.24 634.047 1177.49 633.264 1177.2L629.891 1175.95C608.33 1167.98 591.388 1151.04 583.41 1129.47L582.162 1126.1C581.584 1124.53 578.992 1124.53 578.414 1126.1L577.167 1129.47C569.187 1151.04 552.245 1167.98 530.684 1175.95L527.312 1177.2C526.53 1177.49 526.008 1178.24 526.008 1179.08C526.008 1179.91 526.53 1180.66 527.312 1180.95L530.686 1182.2C552.245 1190.18 569.187 1207.12 577.167 1228.68L578.414 1232.05C578.703 1232.84 579.453 1233.36 580.288 1233.36C581.124 1233.36 581.873 1232.84 582.162 1232.05L583.41 1228.68C591.388 1207.12 608.33 1190.18 629.893 1182.2L633.264 1180.95Z" fill="black"/>
<path d="M463.005 497.977C458.187 508.805 449.545 517.445 438.719 522.263C449.545 527.081 458.187 535.723 463.005 546.551C467.821 535.725 476.461 527.083 487.289 522.263C476.461 517.445 467.821 508.805 463.005 497.977Z" fill="#FE9541"/>
<path d="M487.289 522.263C476.461 527.083 467.821 535.725 463.005 546.551C458.187 535.723 449.545 527.081 438.719 522.263C449.545 517.445 458.187 508.805 463.005 497.977C467.821 508.805 476.461 517.445 487.289 522.263ZM493.458 520.387L491.539 519.68C479.502 515.224 470.042 505.766 465.59 493.727L464.879 491.808C464.301 490.243 461.709 490.243 461.131 491.808L460.42 493.729C455.966 505.766 446.506 515.226 434.469 519.678L432.55 520.387C431.766 520.678 431.245 521.426 431.245 522.263C431.245 523.098 431.766 523.846 432.549 524.137L434.469 524.847C446.506 529.302 455.966 538.762 460.42 550.801L461.131 552.72C461.42 553.502 462.17 554.023 463.005 554.023C463.841 554.023 464.59 553.502 464.879 552.72L465.59 550.799C470.042 538.762 479.502 529.304 491.541 524.847L493.46 524.137C494.242 523.846 494.764 523.098 494.764 522.263C494.764 521.426 494.242 520.678 493.458 520.387Z" fill="black"/>
<path d="M1395.51 360.341C1390.69 371.167 1382.05 379.809 1371.22 384.629C1382.05 389.447 1390.69 398.089 1395.51 408.915C1400.32 398.087 1408.97 389.447 1419.8 384.629C1408.97 379.811 1400.33 371.167 1395.51 360.341Z" fill="#FE9541"/>
<path d="M1419.8 384.629C1408.97 389.447 1400.32 398.087 1395.51 408.915C1390.69 398.089 1382.05 389.447 1371.22 384.629C1382.05 379.809 1390.69 371.167 1395.51 360.341C1400.33 371.167 1408.97 379.811 1419.8 384.629ZM1425.96 382.755L1424.05 382.045C1412.01 377.588 1402.55 368.13 1398.09 356.091L1397.38 354.173C1396.8 352.607 1394.21 352.607 1393.63 354.173L1392.92 356.093C1388.47 368.13 1379.01 377.588 1366.97 382.045L1365.05 382.755C1364.27 383.044 1363.75 383.794 1363.75 384.629C1363.75 385.467 1364.27 386.214 1365.06 386.505L1366.97 387.212C1379.01 391.668 1388.47 401.126 1392.92 413.165L1393.63 415.084C1393.92 415.866 1394.67 416.388 1395.51 416.388C1396.34 416.388 1397.09 415.866 1397.38 415.084L1398.09 413.163C1402.55 401.126 1412.01 391.668 1424.05 387.212L1425.96 386.503C1426.74 386.214 1427.27 385.467 1427.27 384.629C1427.27 383.794 1426.75 383.046 1425.96 382.755Z" fill="black"/>
<path d="M648.846 1239.34C644.032 1250.16 635.392 1258.8 624.562 1263.63C635.392 1268.44 644.032 1277.09 648.846 1287.91C653.662 1277.08 662.304 1268.44 673.132 1263.62C662.302 1258.8 653.662 1250.16 648.846 1239.34Z" fill="#FE9541"/>
<path d="M673.132 1263.62C662.304 1268.44 653.662 1277.08 648.846 1287.91C644.032 1277.09 635.392 1268.44 624.562 1263.63C635.392 1258.8 644.032 1250.16 648.846 1239.34C653.662 1250.16 662.302 1258.8 673.132 1263.62ZM679.299 1261.75L677.384 1261.04C665.343 1256.58 655.885 1247.12 651.431 1235.09L650.72 1233.17C650.138 1231.6 647.554 1231.6 646.972 1233.17L646.261 1235.09C641.809 1247.12 632.351 1256.58 620.314 1261.04L618.393 1261.74C617.609 1262.04 617.086 1262.78 617.086 1263.62C617.086 1264.46 617.607 1265.21 618.392 1265.5L620.31 1266.21C632.351 1270.66 641.809 1280.12 646.261 1292.16L646.972 1294.08C647.263 1294.86 648.011 1295.38 648.846 1295.38C649.682 1295.38 650.429 1294.86 650.72 1294.08L651.431 1292.16C655.885 1280.12 665.343 1270.66 677.384 1266.21L679.303 1265.5C680.087 1265.21 680.607 1264.46 680.607 1263.62C680.607 1262.78 680.083 1262.04 679.299 1261.75Z" fill="black"/>
<path d="M1584.83 993.987C1580.02 1004.82 1571.38 1013.46 1560.55 1018.28C1571.38 1023.1 1580.02 1031.74 1584.83 1042.57C1589.65 1031.74 1598.29 1023.1 1609.12 1018.28C1598.29 1013.46 1589.65 1004.82 1584.83 993.987Z" fill="#FE9541"/>
<path d="M1609.12 1018.28C1598.29 1023.1 1589.65 1031.74 1584.83 1042.57C1580.02 1031.74 1571.38 1023.1 1560.55 1018.28C1571.38 1013.46 1580.02 1004.82 1584.83 993.987C1589.65 1004.82 1598.29 1013.46 1609.12 1018.28ZM1615.29 1016.41L1613.37 1015.69C1601.33 1011.24 1591.87 1001.78 1587.41 989.739L1586.7 987.823C1586.13 986.253 1583.53 986.253 1582.95 987.823L1582.25 989.739C1577.79 1001.78 1568.33 1011.24 1556.29 1015.69L1554.37 1016.41C1553.59 1016.69 1553.07 1017.44 1553.07 1018.28C1553.07 1019.12 1553.59 1019.86 1554.38 1020.16L1556.29 1020.86C1568.33 1025.32 1577.79 1034.78 1582.25 1046.81L1582.95 1048.73C1583.24 1049.52 1583.99 1050.04 1584.83 1050.04C1585.67 1050.04 1586.41 1049.52 1586.7 1048.73L1587.41 1046.81C1591.87 1034.77 1601.33 1025.32 1613.37 1020.86L1615.28 1020.15C1616.07 1019.86 1616.59 1019.12 1616.59 1018.28C1616.59 1017.44 1616.07 1016.69 1615.29 1016.41Z" fill="black"/>
<path d="M1516.62 1809.95C1516.62 1825.56 1283.87 1838.21 996.765 1838.21C709.658 1838.21 476.912 1825.56 476.912 1809.95C476.912 1794.35 709.658 1781.7 996.765 1781.7C1283.87 1781.7 1516.62 1794.35 1516.62 1809.95Z" fill="black"/>
<path d="M996.765 1783.69C666.153 1783.69 483.578 1799.01 478.893 1810.07C483.572 1820.89 666.145 1836.21 996.765 1836.21C1326.21 1836.21 1508.66 1821 1514.58 1809.95C1508.68 1798.9 1326.23 1783.69 996.765 1783.69ZM996.765 1840.21C857.868 1840.21 727.283 1837.27 629.065 1831.93C474.913 1823.55 474.913 1813.67 474.913 1809.95C474.913 1806.23 474.913 1796.35 629.065 1787.98C727.29 1782.63 857.875 1779.7 996.765 1779.7C1135.65 1779.7 1266.24 1782.63 1364.47 1787.98C1518.62 1796.35 1518.62 1806.23 1518.62 1809.95C1518.62 1813.67 1518.62 1823.55 1364.47 1831.93C1266.25 1837.27 1135.66 1840.21 996.765 1840.21Z" fill="black"/>
<path d="M1746.45 527.358C1746.17 527.448 1745.87 527.483 1745.56 527.432C1745.22 527.378 1711.99 523.017 1663.51 574.105C1663.13 574.509 1662.6 574.728 1662.06 574.728C1661.87 574.728 1661.66 574.698 1661.47 574.636C1661.42 574.622 1661.39 574.593 1661.34 574.576C1663.02 595.143 1661.31 628.622 1640.35 661.474C1609.04 710.564 1546.52 742.258 1454.55 755.68C1453.47 755.801 1452.45 755.083 1452.28 753.99C1452.13 752.897 1452.88 751.882 1453.97 751.722C1483.56 747.405 1510.02 741.18 1533.35 733.101C1536.23 678.862 1533.61 635.775 1531.78 614.844C1513.92 664.231 1403.11 707.817 1239.29 728.308C1238.2 728.453 1237.19 727.672 1237.06 726.575C1236.92 725.478 1237.7 724.478 1238.79 724.342C1415.9 702.187 1530.33 653.678 1530.33 600.761C1530.33 525.89 1307.39 464.979 1033.35 464.979C759.314 464.979 536.368 525.89 536.368 600.761C536.368 654.785 654.12 703.698 836.357 725.376C837.452 725.505 838.237 726.501 838.106 727.594C837.985 728.613 837.122 729.358 836.123 729.358C836.045 729.358 835.965 729.354 835.885 729.343C667.129 709.271 553.048 665.288 534.924 614.903C533.029 636.545 530.297 681.76 533.656 738.468C571.166 734.571 597.387 737.076 597.994 737.139C599.091 737.253 599.889 738.233 599.774 739.334C599.661 740.431 598.661 741.239 597.582 741.114C596.184 740.969 457.219 727.707 360.036 812.096C301.685 862.762 269.849 937.993 265.342 1035.73C265.639 1035.72 265.943 1035.76 266.232 1035.89C266.533 1036.02 297.448 1049.02 357.703 1012.61C358.357 1012.22 359.181 1012.23 359.821 1012.64C359.834 1012.65 359.842 1012.67 359.854 1012.67C364.068 987.441 376.687 943.644 414.466 910.258C458.275 871.542 523.193 856.902 607.403 866.667L608.187 866.688C608.435 866.695 608.671 866.749 608.889 866.839C609.629 866.927 610.359 867.002 611.102 867.094C612.197 867.231 612.976 868.226 612.839 869.323C612.704 870.42 611.723 871.224 610.61 871.061C609.83 870.964 609.063 870.885 608.286 870.792C606.266 871.656 599.339 874.693 590.975 879.145C654.679 1006.58 782.156 1118.15 1033.35 1118.15C1273.84 1118.15 1400.93 1015.89 1467.23 895.351C1459.2 892.534 1453.24 890.226 1452.65 889.996C1452.41 889.901 1452.2 889.752 1452.02 889.581C1452.01 889.581 1452 889.582 1452 889.582C1450.99 889.582 1450.12 888.821 1450.01 887.794C1449.9 886.697 1450.69 885.713 1451.79 885.596C1453.56 885.408 1629.4 865.544 1712.41 748.661C1754.62 689.229 1766.06 614.78 1746.45 527.358Z" fill="#FEEACA"/>
<path d="M1232.12 1438.47C1231.74 1438.19 1231.47 1437.79 1231.35 1437.33C1231.3 1437.12 1225.97 1415.76 1226.66 1391.22C1227.57 1358.39 1238.75 1334.76 1259.01 1322.89C1259.64 1322.52 1260.43 1322.52 1261.07 1322.91C1265.23 1325.48 1269.38 1328.16 1273.45 1330.78C1281.79 1336.15 1290.27 1341.61 1297.45 1345.09C1293.06 1322.67 1282.41 1306.44 1267.04 1299.45C1251.13 1292.21 1221.94 1285.1 1205.16 1318.74C1204.67 1319.73 1203.47 1320.13 1202.48 1319.64C1201.5 1319.14 1201.09 1317.94 1201.59 1316.96C1206.35 1307.4 1212.08 1300.91 1218.22 1296.66C1206.6 1287.45 1187.55 1274.95 1166.09 1271.16C1158.03 1273.02 1096.27 1291.77 1091.29 1429.44C1085.97 1577.01 1118.33 1634.77 1118.66 1635.33C1118.78 1635.54 1118.86 1635.76 1118.9 1635.99L1119.07 1636.95C1121.64 1638 1124.33 1638.84 1127.16 1639.44C1153.92 1645.1 1175.91 1640.61 1192.5 1626.09C1211.56 1609.4 1223.77 1579.75 1229.06 1537.55C1228.66 1537.46 1228.27 1537.37 1227.87 1537.25L1189.52 1525.5C1186.06 1524.44 1183.21 1522.08 1181.51 1518.87C1179.8 1515.65 1179.45 1511.97 1180.51 1508.52C1181.57 1505.06 1183.92 1502.21 1187.13 1500.51C1190.34 1498.81 1194.01 1498.45 1197.48 1499.5L1231.45 1509.9C1231.64 1506.24 1231.8 1502.51 1231.9 1498.69L1193.6 1486.96C1186.43 1484.76 1182.39 1477.14 1184.58 1469.97C1186.78 1462.82 1194.39 1458.77 1201.56 1460.96L1205.96 1462.31C1187.13 1447.47 1179.89 1432.04 1179.16 1407.32C1179.13 1406.22 1180 1405.3 1181.1 1405.26C1182.25 1405.28 1183.13 1406.1 1183.16 1407.2C1183.96 1434.45 1192.62 1449.2 1217.45 1465.65C1217.64 1465.77 1217.82 1465.88 1218 1466L1239.91 1472.71C1240.61 1472.92 1241.27 1473.2 1241.91 1473.52C1247.36 1473.33 1252.7 1471.79 1257.88 1468.86C1261.55 1466.78 1265.07 1464.01 1268.41 1460.69C1246.66 1448.8 1232.5 1438.74 1232.12 1438.47Z" fill="#AB5C37"/>
<path d="M1473.23 1447.18C1461.16 1466.24 1432.71 1487.98 1383.06 1486.42C1318.56 1484.41 1240.96 1433.01 1240.96 1433.01C1239.45 1422.94 1244.99 1393.21 1244.99 1393.21C1359.05 1454.44 1435.31 1444.75 1465.39 1436.54C1471.65 1434.84 1476.7 1441.7 1473.23 1447.18ZM1365.31 1145.83C1351.81 1168.79 1330.87 1189.55 1311.69 1205.57C1335.77 1260.79 1338.2 1308.84 1333.33 1328.55C1332.27 1332.84 1326.18 1332.61 1325.28 1328.29C1319.3 1299.57 1296.51 1262.25 1275.53 1232.47C1271.62 1235.06 1268.72 1236.86 1267.19 1237.8C1307.36 1295.02 1324.88 1331.35 1319.27 1345.93C1318.02 1349.19 1315.93 1351.31 1313.06 1352.25C1304.56 1355.01 1290.68 1346.59 1274.49 1336.2C1231.79 1356.89 1233.25 1416.33 1234.67 1433.89C1234.83 1434.64 1234.96 1435.23 1235.06 1435.64C1242.82 1441.07 1323.12 1495.84 1394.59 1495.85C1402.41 1495.85 1410.11 1495.19 1417.61 1493.75C1444.39 1488.58 1465.7 1473.82 1480.95 1449.87C1528.2 1375.65 1433.52 1232.7 1365.31 1145.83Z" fill="#FEEACA"/>
<path d="M1067.4 1541.04C1072.74 1575.27 1085.08 1618.37 1113.62 1634.31C1106.98 1620.69 1082.54 1561.07 1087.3 1429.3C1091.58 1310.84 1136.56 1278.54 1156.93 1269.96C1155.84 1269.9 1154.76 1269.88 1153.69 1269.88C1137.76 1269.88 1123.16 1275.6 1110.15 1286.97C1074.93 1317.75 1052.96 1448.34 1067.4 1541.04Z" fill="#FEEACA"/>
<path d="M1465.39 1436.54C1435.31 1444.75 1359.05 1454.44 1244.99 1393.21C1244.99 1393.21 1239.45 1422.94 1240.96 1433.01C1240.96 1433.01 1318.56 1484.41 1383.06 1486.42C1432.71 1487.98 1461.16 1466.24 1473.23 1447.18C1476.7 1441.7 1471.65 1434.84 1465.39 1436.54Z" fill="#E9C39F"/>
<path d="M1333.33 1328.55C1338.2 1308.84 1335.77 1260.79 1311.69 1205.57C1297.39 1217.52 1284.06 1226.84 1275.53 1232.47C1296.51 1262.25 1319.3 1299.57 1325.28 1328.29C1326.18 1332.61 1332.27 1332.84 1333.33 1328.55Z" fill="#E9C39F"/>
<path d="M837.685 1506.17C837.765 1506.28 837.843 1506.4 837.922 1506.51L838.766 1503.23L837.685 1506.17Z" fill="#FEEACA"/>
<path d="M706.204 1410.41C705.686 1410.17 705.198 1409.94 704.769 1409.74L704.68 1410.02C705.183 1410.15 705.695 1410.28 706.204 1410.41Z" fill="#FEEACA"/>
<path d="M900.027 1265.15C897.334 1264.25 894.641 1263.3 891.952 1262.3L840.253 1463.9C840.253 1463.9 814.722 1443.08 784.489 1427.62C784.489 1427.62 823.689 1332.61 858.322 1247.61C814.486 1225.81 777.903 1198.06 772.273 1193.72L705.164 1408.47C719.019 1409.47 773.107 1417.41 844.802 1479.77L900.027 1265.15Z" fill="#FEEACA"/>
<path d="M744.806 1431.08C708.148 1410.56 679.259 1405.91 665.547 1418.3C658.991 1424.23 654.507 1430.42 652.091 1436.82C677.797 1456.99 694.297 1474.27 694.706 1474.7C695.463 1475.5 695.426 1476.77 694.624 1477.52C693.817 1478.28 692.556 1478.25 691.797 1477.44C691.397 1477.02 675.459 1460.32 650.589 1440.67C650.109 1441.62 649.531 1442.53 648.835 1443.36L643.746 1449.47C640.937 1452.84 636.885 1454.58 632.805 1454.58C629.596 1454.58 626.369 1453.51 623.716 1451.3L622.324 1450.14C619.416 1447.72 617.624 1444.29 617.278 1440.5C616.931 1436.71 618.074 1433.02 620.497 1430.11L625.586 1424C625.892 1423.63 626.213 1423.28 626.547 1422.96C625.034 1421.92 623.505 1420.89 621.957 1419.86C621.415 1421.25 620.654 1422.59 619.646 1423.8L614.557 1429.9C612.134 1432.81 608.712 1434.6 604.919 1434.95C604.474 1435 604.031 1435.01 603.59 1435.01C600.271 1435.01 597.095 1433.87 594.526 1431.73L593.135 1430.57C587.11 1425.55 586.291 1416.57 591.307 1410.54L596.397 1404.43C596.41 1404.41 596.425 1404.4 596.438 1404.38C565.11 1387.22 529.458 1374.66 494.947 1377.77C469.385 1380.07 446.621 1390.78 426.934 1409.7C441.765 1407 495.692 1407.06 610.065 1504.2C725.363 1602.14 786.97 1668.87 798.215 1708.05C815.039 1677.77 839.294 1624.58 828.531 1584.95C823.592 1566.76 811.651 1553.15 793.046 1544.49C792.045 1544.02 791.611 1542.83 792.078 1541.83C792.542 1540.83 793.729 1540.39 794.733 1540.86C810.717 1548.3 822.066 1559.23 828.597 1573.42C830.074 1573 831.519 1572.48 832.908 1571.82C841.181 1567.87 846.523 1559.71 848.788 1547.56C854.334 1517.83 797.444 1460.53 744.806 1431.08Z" fill="#AB5C37"/>
<path d="M607.477 1507.25C475.627 1395.26 424.752 1414.31 424.244 1414.51L420.574 1416.24C416.753 1420.41 413.065 1424.9 409.541 1429.64C412.422 1428.2 415.632 1426.97 419.196 1425.96C456.606 1415.41 556.27 1491.99 597.387 1525.42C672.239 1586.28 745.187 1658.08 774.781 1700.02C782.338 1710.73 786.754 1719.07 788.104 1725.19C790.044 1722.12 792.523 1718.08 795.303 1713.27L794.95 1711.29C785.843 1673.44 724.513 1606.66 607.477 1507.25Z" fill="#FEEACA"/>
<path d="M840.253 1463.9L891.952 1262.3C880.537 1258.07 869.207 1253.02 858.322 1247.61C823.689 1332.61 784.489 1427.62 784.489 1427.62C814.723 1443.08 840.253 1463.9 840.253 1463.9Z" fill="#E9C39F"/>
<path d="M1200.39 1464.78C1199.46 1464.5 1198.51 1464.36 1197.59 1464.36C1193.48 1464.36 1189.67 1467.02 1188.4 1471.14C1186.85 1476.2 1189.71 1481.58 1194.77 1483.13L1233.11 1494.88C1238.17 1496.44 1243.55 1493.58 1245.1 1488.52C1246.65 1483.46 1243.8 1478.08 1238.74 1476.53L1200.39 1464.78Z" fill="#FEEACA"/>
<path d="M1234.66 1515.07L1196.31 1503.33C1195.38 1503.04 1194.44 1502.91 1193.51 1502.91C1189.4 1502.91 1185.59 1505.56 1184.33 1509.69C1182.78 1514.75 1185.63 1520.12 1190.69 1521.68L1229.04 1533.42C1231.49 1534.17 1234.07 1533.92 1236.35 1532.71C1238.62 1531.5 1240.28 1529.5 1241.02 1527.06C1241.77 1524.62 1241.52 1522.03 1240.32 1519.76C1239.11 1517.48 1237.1 1515.82 1234.66 1515.07Z" fill="#FEEACA"/>
<path d="M599.47 1406.99L594.38 1413.1C590.772 1417.43 591.363 1423.9 595.695 1427.5L597.087 1428.66C599.173 1430.4 601.826 1431.24 604.555 1430.97C607.286 1430.72 609.746 1429.44 611.485 1427.34L616.573 1421.24C620.181 1416.9 619.591 1410.44 615.261 1406.83L613.871 1405.67C609.533 1402.08 603.074 1402.66 599.47 1406.99Z" fill="#FEEACA"/>
<path d="M636.524 1422.88C633.59 1422.88 630.678 1424.13 628.659 1426.56L623.57 1432.67C621.831 1434.75 621.011 1437.41 621.259 1440.14C621.509 1442.87 622.795 1445.33 624.884 1447.07L626.276 1448.23C630.609 1451.84 637.067 1451.24 640.674 1446.91L645.763 1440.8C647.503 1438.72 648.322 1436.06 648.075 1433.33C647.827 1430.6 646.538 1428.14 644.451 1426.4L643.06 1425.24C641.15 1423.66 638.831 1422.88 636.524 1422.88Z" fill="#FEEACA"/>
<path d="M612.38 1067.97C611.024 1065.6 609.506 1062.53 607.875 1058.92C485.177 1057.5 417.133 1011.7 379.476 963.474C376.74 969.16 374.425 974.763 372.468 980.173C372.734 980.483 373.009 980.8 373.283 981.115C397.389 989.551 406.011 1005.13 409.03 1013.98C448.554 1043.32 513.656 1073.03 612.38 1067.97Z" fill="#FEEACA"/>
<path d="M323.617 844.844C333.699 831.833 344.964 819.886 357.442 809.054C393.258 777.962 434.637 759.961 472.872 749.638C484.907 743.729 500.327 739.702 520.112 739.035L520.114 739.045L525.447 668.352C512.81 664.531 495.189 660.686 475.452 660.686C460.331 660.686 443.974 662.941 427.655 669.193C389.158 683.941 359.384 717.298 339.163 768.338C329.176 793.541 324.049 819.392 323.617 844.844Z" fill="#FEEACA"/>
<path d="M584.845 997.921C579.588 982.613 575.489 970.023 574.294 966.329C534.177 959.696 487.063 945.577 459.187 915.583C453.008 908.935 447.985 901.743 444.11 894.037C434.367 899.565 425.376 905.957 417.155 913.218C407.981 921.318 400.332 930.051 393.944 938.978C469.346 1005.6 569.36 999.344 584.845 997.921Z" fill="#FEEACA"/>
<path d="M1033.35 1229.08C734.201 1229.08 617.527 1053.76 573.863 889.381C568.609 892.966 563.672 896.88 559.794 900.959C578.868 969.587 610.327 1039.46 661.457 1097.9C746.823 1195.48 871.948 1244.95 1033.35 1244.95C1194.76 1244.95 1319.88 1195.48 1405.25 1097.9C1455.11 1040.91 1486.26 973.053 1505.47 906.078C1500.88 905.451 1495.19 904.092 1489.23 902.409C1442.89 1062.88 1324.61 1229.08 1033.35 1229.08Z" fill="#FEEACA"/>
<path d="M1033.35 1118.15C782.156 1118.15 654.678 1006.58 590.975 879.145C585.548 882.034 579.531 885.514 573.863 889.381C617.527 1053.76 734.201 1229.08 1033.35 1229.08C1324.61 1229.08 1442.89 1062.88 1489.23 902.409C1481.7 900.281 1473.78 897.648 1467.23 895.351C1400.93 1015.89 1273.84 1118.15 1033.35 1118.15Z" fill="#E9C39F"/>
<path d="M699.368 599.083C703.083 583.991 748.922 591.665 748.131 602.637C747.339 613.609 695.524 614.702 699.368 599.083ZM759.544 580.152C763.335 566.901 965.008 590.341 956.644 606.437C950.959 617.378 763.335 633.855 759.342 619.906C755.348 605.957 806.335 601.075 806.335 601.075C806.335 601.075 755.754 593.403 759.544 580.152ZM810.883 556.009C810.883 563.799 776.958 565.098 775.601 559.644C774.244 554.191 810.883 547.947 810.883 556.009ZM1010.63 549.257C1010.23 561.332 834.766 567.175 833.138 555.1C831.509 543.026 1011.03 537.417 1010.63 549.257ZM1025.02 550.431C1040.22 529.42 1362.37 564.863 1357.89 606.559C1352.47 657.14 1023.52 695.663 1025.02 663.758C1026.52 631.853 1277.56 619.43 1272.13 600.754C1266.7 582.078 1009.82 571.441 1025.02 550.431ZM971.185 622.123C966.61 606.559 1025.02 601.112 1025.02 601.112C1025.02 601.112 967.075 592.552 971.417 577.767C975.76 562.982 1206.81 589.136 1197.22 607.094C1190.71 619.302 975.76 637.686 971.185 622.123ZM833.138 656.864C834.766 644.789 1010.23 650.632 1010.63 662.706C1011.03 674.547 831.509 668.938 833.138 656.864ZM813.191 654.828C811.057 662.894 775.576 655.731 775.665 649.745C775.754 643.758 815.4 646.481 813.191 654.828ZM1033.35 701.589C1262.8 701.589 1451.69 660.935 1470.69 609.335C1452.02 557.258 1260.23 516.519 1033.35 516.519C806.471 516.519 614.682 557.259 596.011 609.338C615.021 660.936 803.904 701.589 1033.35 701.589Z" fill="#AB5C37"/>
<path d="M1033.35 516.519C1260.23 516.519 1452.02 557.258 1470.69 609.335C1451.69 660.934 1262.8 701.589 1033.35 701.589C803.904 701.589 615.021 660.936 596.011 609.338C614.683 557.259 806.47 516.519 1033.35 516.519ZM1472.28 600.76C1472.28 601.463 1472.23 602.185 1472.14 602.929C1443.05 551.013 1258.34 512.52 1033.35 512.52C808.366 512.52 623.652 551.013 594.562 602.931C594.474 602.187 594.429 601.465 594.429 600.76C594.429 545.161 791.328 499.929 1033.35 499.929C1275.38 499.929 1472.28 545.161 1472.28 600.76ZM1476.27 600.76C1476.27 541.977 1281.72 495.931 1033.35 495.931C784.986 495.931 590.431 541.977 590.431 600.76C590.431 659.542 784.986 705.587 1033.35 705.587C1281.72 705.587 1476.27 659.542 1476.27 600.76Z" fill="black"/>
<path d="M594.429 600.76C594.429 601.465 594.474 602.187 594.562 602.931C623.652 551.013 808.366 512.52 1033.35 512.52C1258.34 512.52 1443.05 551.013 1472.14 602.929C1472.23 602.185 1472.28 601.463 1472.28 600.76C1472.28 545.161 1275.38 499.929 1033.35 499.929C791.328 499.929 594.429 545.161 594.429 600.76Z" fill="#E9C39F"/>
<path d="M1272.13 600.754C1277.56 619.43 1026.52 631.853 1025.02 663.758C1023.52 695.663 1352.47 657.14 1357.89 606.559C1362.37 564.863 1040.22 529.42 1025.02 550.431C1009.82 571.441 1266.7 582.078 1272.13 600.754Z" fill="#FEC193"/>
<path d="M1197.22 607.094C1206.81 589.136 975.76 562.982 971.417 577.767C967.075 592.552 1025.02 601.112 1025.02 601.112C1025.02 601.112 966.61 606.56 971.185 622.123C975.76 637.686 1190.71 619.302 1197.22 607.094Z" fill="#FEC193"/>
<path d="M806.335 601.075C806.335 601.075 755.349 605.957 759.342 619.906C763.335 633.855 950.959 617.378 956.644 606.437C965.008 590.341 763.334 566.9 759.544 580.152C755.754 593.403 806.335 601.075 806.335 601.075Z" fill="#FEC193"/>
<path d="M833.138 555.1C831.509 543.026 1011.03 537.417 1010.63 549.257C1010.23 561.332 834.766 567.174 833.138 555.1Z" fill="#FEC193"/>
<path d="M833.138 656.864C831.51 668.939 1011.03 674.546 1010.63 662.706C1010.23 650.631 834.766 644.789 833.138 656.864Z" fill="#FEC193"/>
<path d="M775.601 559.644C774.244 554.191 810.883 547.947 810.883 556.009C810.883 563.799 776.958 565.098 775.601 559.644Z" fill="#FEC193"/>
<path d="M775.665 649.745C775.576 655.731 811.057 662.893 813.191 654.828C815.4 646.48 775.754 643.759 775.665 649.745Z" fill="#FEC193"/>
<path d="M699.368 599.083C703.083 583.991 748.922 591.665 748.131 602.637C747.339 613.609 695.524 614.702 699.368 599.083Z" fill="#FEC193"/>
<path d="M607.875 1058.92C600.882 1043.46 591.839 1018.29 584.845 997.921C569.361 999.344 469.346 1005.6 393.944 938.978C388.137 947.092 383.377 955.365 379.476 963.474C417.133 1011.7 485.177 1057.5 607.875 1058.92Z" fill="#E9C39F"/>
<path d="M472.872 749.638C489.419 745.171 505.372 742.141 520.033 740.116L520.114 739.045L520.112 739.035C500.327 739.701 484.907 743.729 472.872 749.638Z" fill="#E9C39F"/>
<path d="M1550.48 364.966C1550.74 365.452 1550.78 365.997 1550.63 366.487C1557.5 359.627 1564.31 352.361 1570.79 344.254C1583.33 328.597 1600.24 321.335 1617.25 324.362C1626.15 325.946 1634.22 330.283 1640.6 336.574C1634.57 321.948 1630.55 306.21 1630.15 291.32C1629.69 274.223 1634.38 260.619 1643.71 251.694C1632.29 248.018 1591.55 238.978 1554.66 281.129C1529.86 325.771 1550.27 364.578 1550.48 364.966Z" fill="white"/>
<path d="M1536.42 380.266C1540.69 376.201 1545.01 372.083 1549.31 367.812C1549.12 367.874 1548.92 367.915 1548.72 367.915C1548.01 367.915 1547.32 367.536 1546.96 366.867C1546.75 366.468 1526.18 327.366 1549.65 282.025C1536.01 282.699 1485.77 289.714 1483.04 356.328C1481.97 382.159 1489.26 405.352 1499.21 424.625C1506.35 408.92 1520.58 395.35 1536.42 380.266Z" fill="white"/>
<path d="M1721.46 306.3C1721.16 307.36 1720.06 307.963 1718.99 307.674C1705.99 303.958 1701.2 316.632 1701.01 317.173C1700.71 317.985 1699.94 318.493 1699.13 318.493C1698.9 318.493 1698.67 318.454 1698.45 318.374C1697.41 318.001 1696.87 316.861 1697.25 315.824C1699.32 310.007 1706.77 300.03 1720.09 303.829C1721.16 304.133 1721.77 305.238 1721.46 306.3ZM1789.05 493.595C1783.11 471.626 1761.76 461.253 1733.31 466.518C1732.23 466.715 1731.18 466.002 1730.98 464.915C1730.78 463.83 1731.5 462.787 1732.58 462.586C1744.96 460.292 1756.11 460.8 1765.44 463.807C1784.72 435.383 1795.81 393.77 1769.3 337.764C1744.44 285.233 1718.64 254.355 1692.59 245.988C1672.47 239.526 1656.48 248.292 1648.7 252.617C1638.72 260.611 1633.68 273.951 1634.15 291.212C1635.13 327.634 1659.67 371.744 1680.95 386.847C1692.33 394.929 1705.11 393.898 1714.3 384.169C1728.14 369.511 1730.53 340.141 1708.31 312.373C1707.62 311.51 1707.76 310.253 1708.62 309.562C1709.49 308.873 1710.75 309.014 1711.43 309.874C1735.07 339.425 1732.23 370.998 1717.21 386.913C1711.31 393.164 1704.15 396.328 1696.7 396.33C1690.69 396.33 1684.5 394.271 1678.63 390.107C1670.46 384.307 1661.85 374.568 1654.18 362.649C1657.93 383.097 1649.8 406.492 1631.16 428.585C1645.96 424.788 1682.04 419.148 1713.23 442.749C1714.11 443.417 1714.28 444.67 1713.62 445.55C1712.96 446.431 1711.7 446.597 1710.82 445.939C1672.45 416.899 1626.18 434.213 1625.72 434.39C1624.85 434.722 1623.86 434.418 1623.34 433.646C1622.82 432.875 1622.9 431.847 1623.54 431.165C1646.87 406.067 1655.99 378.957 1648.56 356.783C1643.56 341.834 1631.29 330.92 1616.55 328.298C1601.02 325.55 1585.5 332.274 1573.92 346.753C1562.78 360.673 1550.78 372.105 1539.17 383.162C1506.13 414.639 1482.26 437.383 1511.75 486.284C1535.29 525.306 1577.5 539.269 1608.18 544.157C1612.24 529.779 1621.66 515.677 1635.63 504.64C1636.49 503.959 1637.75 504.097 1638.43 504.968C1639.12 505.835 1638.97 507.092 1638.1 507.775C1612.45 528.053 1602.86 559.041 1615.31 581.459C1623.09 595.458 1637.56 603.248 1656.72 604.535C1660.3 576.593 1654.34 555.902 1654.24 555.574C1654.05 554.941 1654.19 554.254 1654.6 553.741C1696.93 501.64 1747.69 520.708 1748.2 520.909C1748.81 521.149 1749.27 521.674 1749.42 522.314C1753.08 537.959 1755.75 553.191 1757.47 568.019C1784.29 544.871 1795.09 515.928 1789.05 493.595Z" fill="white"/>
<path d="M1643.71 251.694C1634.38 260.619 1629.69 274.223 1630.15 291.319C1630.55 306.21 1634.57 321.948 1640.6 336.574C1634.22 330.283 1626.15 325.946 1617.25 324.362C1600.24 321.335 1583.33 328.597 1570.79 344.254C1564.31 352.361 1557.5 359.627 1550.63 366.487C1550.78 365.997 1550.74 365.452 1550.48 364.966C1550.27 364.578 1529.86 325.771 1554.66 281.129C1591.54 238.978 1632.29 248.017 1643.71 251.694ZM1483.04 356.328C1485.77 289.714 1536.01 282.699 1549.65 282.026C1526.18 327.366 1546.75 366.468 1546.96 366.867C1547.32 367.537 1548.01 367.915 1548.72 367.915C1548.92 367.915 1549.12 367.874 1549.31 367.812C1545.01 372.082 1540.69 376.2 1536.42 380.266C1520.58 395.35 1506.35 408.919 1499.21 424.625C1489.26 405.352 1481.97 382.159 1483.04 356.328ZM1749.42 522.314C1749.27 521.674 1748.81 521.149 1748.2 520.909C1747.69 520.707 1696.93 501.64 1654.6 553.741C1654.19 554.254 1654.05 554.941 1654.24 555.574C1654.34 555.902 1660.3 576.593 1656.72 604.535C1637.56 603.248 1623.09 595.459 1615.31 581.459C1602.86 559.042 1612.45 528.053 1638.1 507.775C1638.97 507.092 1639.12 505.835 1638.43 504.968C1637.75 504.097 1636.49 503.959 1635.63 504.64C1621.66 515.677 1612.24 529.779 1608.18 544.157C1577.5 539.269 1535.29 525.306 1511.75 486.284C1482.26 437.383 1506.13 414.64 1539.17 383.162C1550.78 372.106 1562.78 360.673 1573.92 346.753C1585.5 332.274 1601.02 325.549 1616.55 328.298C1631.29 330.92 1643.56 341.834 1648.56 356.783C1655.99 378.957 1646.87 406.067 1623.54 431.165C1622.9 431.846 1622.82 432.875 1623.34 433.646C1623.86 434.418 1624.85 434.722 1625.72 434.39C1626.18 434.212 1672.45 416.899 1710.82 445.939C1711.69 446.596 1712.96 446.431 1713.62 445.55C1714.28 444.67 1714.11 443.417 1713.23 442.749C1682.04 419.148 1645.96 424.788 1631.16 428.585C1649.8 406.492 1657.93 383.097 1654.18 362.649C1661.85 374.568 1670.46 384.307 1678.63 390.107C1684.5 394.271 1690.69 396.33 1696.7 396.33C1704.15 396.328 1711.31 393.164 1717.21 386.913C1732.23 370.998 1735.07 339.425 1711.43 309.874C1710.75 309.014 1709.49 308.873 1708.62 309.562C1707.76 310.253 1707.62 311.51 1708.31 312.373C1730.53 340.141 1728.14 369.51 1714.3 384.169C1705.11 393.898 1692.33 394.929 1680.95 386.847C1659.67 371.744 1635.13 327.634 1634.15 291.212C1633.68 273.951 1638.72 260.611 1648.7 252.617C1656.48 248.292 1672.48 239.526 1692.59 245.988C1718.64 254.355 1744.44 285.233 1769.3 337.764C1795.81 393.77 1784.73 435.382 1765.44 463.807C1756.11 460.799 1744.96 460.292 1732.58 462.586C1731.5 462.787 1730.78 463.83 1730.98 464.915C1731.18 466.002 1732.23 466.716 1733.31 466.518C1761.76 461.253 1783.11 471.626 1789.05 493.595C1795.08 515.927 1784.29 544.871 1757.47 568.019C1755.75 553.191 1753.08 537.959 1749.42 522.314ZM1700.88 525.054C1706.96 523.052 1712.61 522.019 1717.51 521.557C1722.38 521.103 1726.84 521.164 1730.74 521.475C1719.55 520.917 1709.58 522.425 1700.88 525.054ZM427.655 669.193C443.975 662.941 460.331 660.686 475.452 660.686C495.189 660.686 512.81 664.531 525.447 668.352L520.114 739.045L520.033 740.116C505.372 742.141 489.419 745.171 472.872 749.638C434.638 759.961 393.258 777.962 357.442 809.054C344.964 819.886 333.699 831.833 323.617 844.844C324.048 819.392 329.177 793.541 339.163 768.338C359.385 717.298 389.158 683.941 427.655 669.193ZM409.03 1013.98C406.01 1005.13 397.389 989.551 373.283 981.115C373.009 980.8 372.734 980.482 372.468 980.173C374.425 974.763 376.74 969.16 379.476 963.474C383.377 955.365 388.137 947.092 393.944 938.978C400.332 930.051 407.981 921.318 417.155 913.218C425.376 905.958 434.367 899.564 444.11 894.037C447.985 901.742 453.009 908.935 459.187 915.583C487.064 945.576 534.177 959.696 574.294 966.329C575.489 970.023 579.588 982.613 584.845 997.921C591.839 1018.29 600.883 1043.46 607.875 1058.92C609.506 1062.53 611.025 1065.6 612.38 1067.97C513.656 1073.03 448.554 1043.32 409.03 1013.98ZM306.5 1050.04C309.223 1050.04 311.864 1049.91 314.423 1049.67C297.954 1051.72 284.53 1048.13 275.731 1044.44C286.711 1048.49 297.073 1050.04 306.5 1050.04ZM576.192 962.644C536.471 956.223 489.586 942.422 462.109 912.855C456.168 906.461 451.344 899.537 447.63 892.111C475.176 877.34 508.534 869.263 547.435 867.928C554.426 899.197 563.777 931.175 576.192 962.644ZM406.133 1018.28C412.203 1043.2 394.754 1070.54 364.645 1083.3C363.63 1083.73 363.153 1084.9 363.585 1085.92C364.018 1086.94 365.191 1087.41 366.206 1086.98C377.24 1082.3 386.659 1075.74 393.994 1068.05C418.82 1074.95 463.489 1094.42 479.059 1146.87C489.572 1182.29 454.979 1225.67 445.561 1236.61C440.834 1221.78 436.293 1209.87 432.254 1199.28C426.916 1185.28 422.702 1174.23 420.08 1162C419.954 1161.41 419.578 1160.95 419.092 1160.68C422.187 1159.64 425.476 1157.89 428.402 1154.96C429.183 1154.18 429.183 1152.92 428.402 1152.14C427.621 1151.36 426.356 1151.36 425.575 1152.14C418.349 1159.36 408.03 1158.03 407.929 1158.02C406.851 1157.88 405.828 1158.63 405.674 1159.72C405.522 1160.81 406.277 1161.82 407.368 1161.98C407.509 1162 408.532 1162.13 410.123 1162.13C411.737 1162.13 413.939 1161.98 416.391 1161.44C416.16 1161.85 416.065 1162.34 416.172 1162.83C418.856 1175.37 423.334 1187.11 428.517 1200.7C432.839 1212.03 437.737 1224.87 442.806 1241.17C442.816 1241.19 442.832 1241.21 442.841 1241.24C442.851 1241.26 442.851 1241.29 442.861 1241.32C443.087 1241.88 465.035 1297.96 423.627 1320.2C406.248 1329.53 388.148 1329.25 369.835 1319.35C356.003 1311.88 347.23 1301.45 347.142 1301.34C347.13 1301.33 347.112 1301.32 347.099 1301.3C347.076 1301.28 347.058 1301.25 347.033 1301.22C307.901 1261.31 316.079 1190.77 316.165 1190.06C316.299 1188.96 315.522 1187.97 314.425 1187.83C313.369 1187.69 312.335 1188.47 312.198 1189.57C312.11 1190.28 304.018 1259.9 341.863 1301.55C335.693 1303.09 321.297 1306.17 305.764 1305.96C278.781 1305.55 261.368 1295.78 254.009 1276.94V1276.93V1276.91C254.009 1276.9 253.999 1276.9 253.999 1276.9C253.953 1276.79 253.9 1276.68 253.833 1276.57C228.001 1235.87 237.882 1185.88 237.986 1185.38C238.208 1184.3 237.511 1183.24 236.432 1183.02C235.341 1182.77 234.292 1183.5 234.07 1184.57C233.967 1185.07 224.283 1233.91 248.409 1275.33C239.76 1274.36 218.164 1270.32 203.984 1253.88C192.672 1240.75 188.397 1222.54 191.278 1199.73C198.343 1143.8 209.536 1110.39 228.896 1091.08C237.26 1096.97 248.341 1100.74 261.579 1101.86C261.637 1101.87 261.694 1101.87 261.75 1101.87C262.777 1101.87 263.652 1101.08 263.739 1100.04C263.833 1098.94 263.017 1097.97 261.918 1097.88C233.1 1095.43 215.252 1079.77 215.341 1057.01C215.43 1033.97 233.349 1009.02 265.096 993.783C263.076 1008.54 261.759 1023.88 261.157 1039.81C261.132 1040.46 261.432 1041.09 261.959 1041.48C262.231 1041.68 279.243 1054.02 305.171 1054.02C321.018 1054.02 340.193 1049.41 360.911 1034.61C361.436 1034.24 361.748 1033.63 361.748 1032.98C361.748 1032.6 361.959 1011.53 370.928 984.619C389.837 990.828 402.254 1002.33 406.139 1018.28M837.691 1506.17L838.772 1503.23L837.928 1506.51C837.849 1506.4 837.771 1506.28 837.691 1506.17ZM706.21 1410.41C705.701 1410.28 705.19 1410.15 704.686 1410.02L704.775 1409.74C705.204 1409.94 705.692 1410.17 706.21 1410.41ZM705.171 1408.47L772.279 1193.72C777.91 1198.06 814.492 1225.81 858.328 1247.61C869.213 1253.02 880.543 1258.07 891.958 1262.3C894.647 1263.3 897.34 1264.25 900.033 1265.15L844.808 1479.77C773.113 1417.41 719.026 1409.47 705.171 1408.47ZM648.08 1433.33C648.328 1436.06 647.508 1438.72 645.769 1440.8L640.68 1446.91C637.073 1451.24 630.615 1451.84 626.281 1448.23L624.89 1447.07C622.801 1445.33 621.514 1442.87 621.265 1440.14C621.017 1437.41 621.837 1434.75 623.576 1432.67L628.665 1426.56C630.683 1424.13 633.596 1422.88 636.53 1422.88C638.837 1422.88 641.156 1423.66 643.065 1425.24L644.457 1426.4C646.544 1428.14 647.833 1430.6 648.08 1433.33ZM616.58 1421.24L611.49 1427.34C609.751 1429.44 607.291 1430.72 604.561 1430.97C601.832 1431.24 599.179 1430.4 597.092 1428.66L595.7 1427.5C591.368 1423.9 590.779 1417.43 594.386 1413.1L599.475 1406.99C603.079 1402.66 609.538 1402.08 613.876 1405.67L615.268 1406.83C619.597 1410.44 620.187 1416.9 616.58 1421.24ZM795.309 1713.27C792.529 1718.08 790.05 1722.12 788.11 1725.19C786.76 1719.07 782.344 1710.73 774.787 1700.02C745.193 1658.08 672.245 1586.28 597.393 1525.42C556.276 1491.98 456.612 1415.41 419.202 1425.96C415.638 1426.97 412.428 1428.2 409.547 1429.64C413.071 1424.9 416.759 1420.41 420.58 1416.24L424.25 1414.51C424.758 1414.31 475.633 1395.26 607.483 1507.25C724.518 1606.66 785.849 1673.43 794.956 1711.29L795.309 1713.27ZM848.794 1547.56C846.53 1559.71 841.187 1567.87 832.914 1571.82C831.525 1572.48 830.08 1573 828.603 1573.42C822.073 1559.23 810.723 1548.3 794.739 1540.86C793.736 1540.39 792.549 1540.83 792.084 1541.83C791.617 1542.83 792.051 1544.02 793.052 1544.49C811.658 1553.15 823.599 1566.76 828.537 1584.95C839.301 1624.58 815.046 1677.77 798.221 1708.05C786.976 1668.87 725.37 1602.14 610.071 1504.2C495.699 1407.06 441.772 1407 426.94 1409.7C446.627 1390.78 469.392 1380.07 494.953 1377.77C529.464 1374.66 565.116 1387.22 596.444 1404.38C596.431 1404.4 596.416 1404.41 596.403 1404.43L591.314 1410.54C586.297 1416.57 587.117 1425.55 593.141 1430.57L594.533 1431.73C597.102 1433.87 600.278 1435.01 603.596 1435.01C604.037 1435.01 604.48 1435 604.926 1434.95C608.718 1434.6 612.14 1432.81 614.563 1429.9L619.652 1423.8C620.66 1422.59 621.421 1421.25 621.963 1419.86C623.511 1420.89 625.04 1421.92 626.553 1422.96C626.219 1423.28 625.898 1423.63 625.592 1424L620.503 1430.11C618.081 1433.02 616.937 1436.71 617.284 1440.5C617.63 1444.29 619.422 1447.71 622.33 1450.14L623.722 1451.3C626.375 1453.5 629.602 1454.58 632.811 1454.58C636.891 1454.58 640.944 1452.84 643.753 1449.47L648.842 1443.36C649.538 1442.53 650.115 1441.62 650.595 1440.67C675.466 1460.32 691.403 1477.02 691.803 1477.44C692.563 1478.25 693.824 1478.28 694.63 1477.52C695.432 1476.77 695.469 1475.5 694.712 1474.7C694.303 1474.27 677.803 1456.99 652.097 1436.82C654.513 1430.42 658.997 1424.23 665.554 1418.3C679.265 1405.9 708.154 1410.56 744.812 1431.08C797.45 1460.53 854.34 1517.83 848.794 1547.56ZM1110.16 1286.97C1123.16 1275.6 1137.76 1269.88 1153.7 1269.88C1154.77 1269.88 1155.85 1269.9 1156.93 1269.96C1136.56 1278.54 1091.58 1310.84 1087.3 1429.29C1082.55 1561.07 1106.98 1620.69 1113.62 1634.31C1085.09 1618.37 1072.74 1575.27 1067.41 1541.04C1052.96 1448.34 1074.93 1317.75 1110.16 1286.97ZM1241.03 1527.06C1240.28 1529.5 1238.62 1531.5 1236.35 1532.71C1234.08 1533.92 1231.49 1534.17 1229.05 1533.42L1190.7 1521.68C1185.64 1520.12 1182.78 1514.75 1184.34 1509.69C1185.6 1505.56 1189.41 1502.9 1193.52 1502.9C1194.45 1502.9 1195.39 1503.04 1196.32 1503.33L1234.67 1515.07C1237.11 1515.82 1239.12 1517.48 1240.32 1519.75C1241.52 1522.03 1241.78 1524.62 1241.03 1527.06ZM1241.92 1473.52C1241.28 1473.2 1240.62 1472.92 1239.91 1472.71L1218.01 1466C1217.83 1465.88 1217.64 1465.77 1217.46 1465.65C1192.63 1449.2 1183.97 1434.45 1183.17 1407.2C1183.13 1406.1 1182.26 1405.28 1181.11 1405.26C1180 1405.3 1179.14 1406.22 1179.17 1407.32C1179.9 1432.04 1187.14 1447.47 1205.97 1462.31L1201.57 1460.96C1194.39 1458.77 1186.79 1462.82 1184.58 1469.97C1182.39 1477.14 1186.44 1484.76 1193.6 1486.96L1231.91 1498.69C1231.8 1502.51 1231.64 1506.23 1231.46 1509.9L1197.49 1499.5C1194.02 1498.45 1190.35 1498.8 1187.14 1500.51C1183.92 1502.21 1181.57 1505.06 1180.52 1508.52C1179.45 1511.97 1179.81 1515.65 1181.51 1518.86C1183.22 1522.08 1186.07 1524.44 1189.53 1525.5L1227.88 1537.25C1228.27 1537.37 1228.67 1537.46 1229.07 1537.55C1223.78 1579.75 1211.57 1609.4 1192.5 1626.09C1175.91 1640.61 1153.93 1645.1 1127.17 1639.44C1124.34 1638.84 1121.65 1638 1119.07 1636.95L1118.9 1635.99C1118.86 1635.76 1118.78 1635.54 1118.67 1635.33C1118.34 1634.77 1085.98 1577.01 1091.3 1429.44C1096.27 1291.77 1158.03 1273.02 1166.09 1271.16C1187.55 1274.95 1206.6 1287.45 1218.23 1296.66C1212.09 1300.91 1206.36 1307.4 1201.59 1316.96C1201.1 1317.94 1201.5 1319.14 1202.49 1319.63C1203.48 1320.13 1204.68 1319.73 1205.17 1318.74C1221.94 1285.1 1251.13 1292.21 1267.05 1299.45C1282.42 1306.44 1293.06 1322.67 1297.46 1345.09C1290.28 1341.61 1281.79 1336.15 1273.45 1330.78C1269.39 1328.16 1265.23 1325.48 1261.07 1322.91C1260.44 1322.52 1259.65 1322.52 1259.01 1322.89C1238.76 1334.76 1227.57 1358.39 1226.66 1391.22C1225.98 1415.76 1231.3 1437.12 1231.36 1437.33C1231.47 1437.79 1231.75 1438.19 1232.13 1438.47C1232.51 1438.74 1246.67 1448.79 1268.42 1460.69C1265.08 1464.01 1261.56 1466.78 1257.89 1468.86C1252.7 1471.79 1247.37 1473.33 1241.92 1473.52ZM1245.11 1488.52C1243.55 1493.58 1238.17 1496.44 1233.12 1494.88L1194.77 1483.13C1189.71 1481.58 1186.86 1476.2 1188.41 1471.14C1189.67 1467.02 1193.48 1464.36 1197.59 1464.36C1198.52 1464.36 1199.46 1464.5 1200.4 1464.78L1238.74 1476.53C1243.8 1478.08 1246.66 1483.46 1245.11 1488.52ZM1417.61 1493.75C1410.11 1495.19 1402.42 1495.85 1394.6 1495.85C1323.13 1495.84 1242.83 1441.07 1235.06 1435.64C1234.97 1435.23 1234.84 1434.64 1234.68 1433.89C1233.25 1416.33 1231.79 1356.89 1274.49 1336.2C1290.68 1346.59 1304.56 1355.01 1313.06 1352.25C1315.94 1351.31 1318.03 1349.19 1319.28 1345.93C1324.89 1331.35 1307.37 1295.02 1267.2 1237.8C1268.73 1236.86 1271.63 1235.06 1275.53 1232.47C1284.07 1226.84 1297.39 1217.52 1311.7 1205.57C1330.88 1189.55 1351.81 1168.79 1365.32 1145.83C1433.52 1232.7 1528.21 1375.65 1480.95 1449.87C1465.71 1473.82 1444.4 1488.58 1417.61 1493.75ZM1712.42 748.661C1629.4 865.544 1453.57 885.408 1451.8 885.596C1450.7 885.713 1449.9 886.697 1450.02 887.794C1450.13 888.821 1451 889.582 1452 889.582C1452.01 889.582 1452.02 889.581 1452.02 889.581C1452.21 889.752 1452.41 889.901 1452.66 889.996C1453.25 890.226 1459.21 892.534 1467.24 895.351C1473.79 897.648 1481.7 900.281 1489.24 902.409C1495.19 904.092 1500.89 905.451 1505.47 906.078C1486.27 973.053 1455.11 1040.91 1405.25 1097.9C1319.89 1195.48 1194.77 1244.95 1033.36 1244.95C871.954 1244.95 746.829 1195.48 661.462 1097.9C610.333 1039.46 578.873 969.587 559.799 900.959C563.677 896.88 568.614 892.966 573.868 889.381C579.536 885.514 585.554 882.033 590.981 879.145C599.345 874.693 606.272 871.656 608.292 870.792C609.069 870.885 609.836 870.964 610.616 871.061C611.729 871.225 612.71 870.42 612.845 869.323C612.982 868.226 612.203 867.231 611.108 867.094C610.365 867.002 609.635 866.927 608.895 866.839C608.677 866.749 608.441 866.695 608.193 866.688L607.409 866.667C523.199 856.902 458.281 871.542 414.472 910.258C376.692 943.644 364.074 987.441 359.86 1012.67C359.848 1012.67 359.84 1012.65 359.827 1012.65C359.187 1012.23 358.363 1012.22 357.709 1012.61C297.454 1049.02 266.539 1036.02 266.238 1035.89C265.949 1035.76 265.645 1035.72 265.348 1035.73C269.855 937.993 301.691 862.762 360.042 812.096C457.225 727.707 596.19 740.969 597.588 741.114C598.667 741.239 599.667 740.431 599.78 739.334C599.895 738.233 599.097 737.253 597.999 737.14C597.393 737.076 571.172 734.571 533.662 738.468C530.303 681.76 533.035 636.545 534.93 614.903C553.054 665.288 667.135 709.271 835.891 729.343C835.971 729.355 836.051 729.358 836.129 729.358C837.128 729.358 837.991 728.613 838.112 727.594C838.243 726.501 837.458 725.505 836.363 725.376C654.126 703.698 536.374 654.785 536.374 600.761C536.374 525.89 759.32 464.979 1033.36 464.979C1307.4 464.979 1530.34 525.89 1530.34 600.761C1530.34 653.678 1415.91 702.187 1238.8 724.342C1237.71 724.478 1236.93 725.478 1237.07 726.575C1237.2 727.672 1238.21 728.453 1239.3 728.308C1403.11 707.817 1513.93 664.231 1531.78 614.844C1533.62 635.776 1536.24 678.862 1533.35 733.101C1510.03 741.18 1483.57 747.405 1453.98 751.722C1452.89 751.882 1452.13 752.897 1452.29 753.99C1452.45 755.083 1453.47 755.801 1454.56 755.68C1546.53 742.258 1609.04 710.564 1640.36 661.475C1661.31 628.622 1663.03 595.143 1661.35 574.576C1661.39 574.593 1661.43 574.622 1661.47 574.636C1661.67 574.698 1661.87 574.728 1662.07 574.728C1662.61 574.728 1663.14 574.509 1663.52 574.105C1712 523.017 1745.22 527.378 1745.57 527.433C1745.87 527.483 1746.18 527.448 1746.46 527.358C1766.06 614.78 1754.63 689.229 1712.42 748.661ZM1792.91 492.551C1789.33 479.303 1780.75 469.879 1768.69 464.994C1788.4 435.521 1799.76 392.755 1772.92 336.054C1747.57 282.482 1720.95 250.9 1693.81 242.182C1672.61 235.373 1655.91 244.059 1647.4 248.762C1640.21 246.162 1593.15 231.584 1552.11 277.973C1543.59 278.121 1482.09 281.821 1479.04 356.164C1477.89 384.175 1486.23 409.117 1497.26 429.486C1491.69 445.479 1493.6 463.923 1508.33 488.35C1532.55 528.509 1575.74 542.945 1607.21 548.025C1604.56 560.386 1605.91 572.765 1611.82 583.401C1615.57 590.16 1627.5 606.33 1656.15 608.546C1653.68 624.201 1648.13 641.844 1636.98 659.323C1616.89 690.81 1583.54 715.01 1537.41 731.682C1541.26 657.026 1534.74 603.786 1534.33 600.621C1534.2 562.89 1481.79 527.66 1386.72 501.409C1292.31 475.339 1166.81 460.981 1033.35 460.981C899.894 460.981 774.4 475.339 679.985 501.409C584.927 527.656 532.518 562.879 532.374 600.604C532.124 602.543 529.13 626.854 528.298 664.998C528.093 664.917 527.874 664.867 527.643 664.858C504.878 657.84 465.481 650.434 426.263 665.445C386.659 680.603 356.104 714.726 335.445 766.862C324.568 794.314 319.355 822.522 319.594 850.184C291.927 887.907 273.936 934.293 265.805 988.905C254.306 994.132 245.542 1000.13 239.133 1005.52C221.537 1020.33 211.406 1039.09 211.337 1057C211.287 1069.94 216.42 1080.78 225.676 1088.6C205.882 1108.61 194.447 1142.7 187.305 1199.23C184.276 1223.21 188.867 1242.47 200.949 1256.48C218.076 1276.35 244.49 1279.18 250.766 1279.58C269.123 1323.34 335.039 1307.54 344.94 1304.88C349.383 1309.74 370.339 1330.9 398.1 1330.9C406.683 1330.9 415.918 1328.87 425.517 1323.72C444.015 1313.79 453.504 1296.06 452.959 1272.46C452.614 1257.54 448.43 1244.88 447.021 1241.02C453.736 1233.6 494.841 1185.99 482.893 1145.73C467.18 1092.8 422.932 1072.35 396.944 1064.75C408.104 1051.52 413.373 1035.48 410.587 1020.05C447.863 1046.62 505.922 1072.56 590.519 1072.55C604.42 1072.55 619.051 1071.84 634.416 1070.33C641.902 1080.67 649.892 1090.75 658.434 1100.52C690.096 1136.71 727.164 1166.34 769.45 1189.35L700.764 1409.15C684.276 1405.82 671.198 1407.81 662.865 1415.34C657.883 1419.84 654.011 1424.52 651.229 1429.34C650.38 1427.02 648.95 1424.95 647.009 1423.33L645.617 1422.17C641.082 1418.4 634.869 1417.93 629.932 1420.5C627.624 1418.91 625.273 1417.32 622.881 1415.75C623.204 1411.32 621.478 1406.81 617.819 1403.77L616.427 1402.61C611.522 1398.52 604.656 1398.31 599.565 1401.61C567.333 1383.78 530.407 1370.57 494.597 1373.79C457.691 1377.1 426.483 1397.24 401.779 1433.65C401.145 1434.59 400.52 1435.53 399.899 1436.48C394.509 1441.94 391.675 1448.95 391.486 1457.51C389.85 1531.86 593.545 1701.97 710.43 1740.69C726.898 1746.15 741.031 1748.88 752.777 1748.88C768.592 1748.88 780.079 1743.93 787.096 1734.06C787.102 1734.05 787.105 1734.04 787.11 1734.04C787.155 1733.97 788.453 1732.08 790.588 1728.74H790.59C790.824 1728.37 791.068 1727.99 791.322 1727.59C791.448 1727.39 791.579 1727.18 791.71 1726.97C791.836 1726.77 791.961 1726.57 792.091 1726.36C792.295 1726.04 792.504 1725.7 792.717 1725.36C792.77 1725.28 792.821 1725.19 792.874 1725.11C794.678 1722.2 796.804 1718.68 799.131 1714.64C799.141 1714.62 799.147 1714.6 799.157 1714.58C804.235 1705.76 810.259 1694.5 815.886 1681.95C833.704 1642.19 839.258 1609.21 832.391 1583.92C831.757 1581.58 831.011 1579.32 830.163 1577.13C831.681 1576.68 833.173 1576.13 834.62 1575.44C844.115 1570.91 850.205 1561.78 852.72 1548.3C854.641 1538 849.966 1524.94 840.911 1510.95L911.063 1238.32C949.186 1245.4 989.97 1248.95 1033.35 1248.95C1112.62 1248.95 1183.21 1237.08 1244.74 1213.51C1310.57 1302.56 1319.61 1333.91 1315.54 1344.5C1314.73 1346.6 1313.51 1347.9 1311.81 1348.45C1309.36 1349.25 1305.93 1348.61 1301.87 1347.04C1297.57 1321.92 1285.9 1303.64 1268.7 1295.82C1259 1291.4 1239.28 1284.9 1221.82 1294.44C1210.09 1284.99 1190.21 1271.6 1167.56 1267.34C1167.35 1267.21 1167.12 1267.11 1166.86 1267.07C1152.51 1264.53 1139.06 1266.07 1126.65 1271.59C1126.54 1271.64 1126.43 1271.69 1126.32 1271.74C1123.98 1272.79 1121.67 1273.99 1119.41 1275.33C1118.97 1275.59 1118.52 1275.85 1118.08 1276.12C1117.56 1276.45 1117.04 1276.79 1116.51 1277.13C1115.98 1277.48 1115.45 1277.84 1114.92 1278.21C1114.44 1278.54 1113.96 1278.87 1113.49 1279.22C1112.9 1279.65 1112.3 1280.09 1111.71 1280.55C1111.3 1280.87 1110.88 1281.18 1110.46 1281.51C1109.66 1282.15 1108.86 1282.83 1108.05 1283.51C1107.88 1283.67 1107.7 1283.8 1107.52 1283.96C1106.9 1284.5 1106.28 1285.08 1105.66 1285.68C1105.54 1285.8 1105.42 1285.94 1105.29 1286.06C1104.82 1286.53 1104.34 1287.02 1103.87 1287.53C1103.68 1287.73 1103.49 1287.95 1103.3 1288.16C1102.9 1288.61 1102.5 1289.06 1102.1 1289.54C1101.89 1289.78 1101.68 1290.04 1101.47 1290.29C1101.09 1290.76 1100.71 1291.23 1100.33 1291.72C1100.13 1291.98 1099.93 1292.24 1099.73 1292.5C1099.33 1293.03 1098.94 1293.57 1098.54 1294.12C1098.38 1294.36 1098.21 1294.59 1098.04 1294.82C1097.58 1295.48 1097.12 1296.16 1096.67 1296.85C1096.58 1296.99 1096.49 1297.12 1096.41 1297.25C1066.52 1343.13 1050.13 1456.19 1063.45 1541.66C1064.1 1545.82 1064.86 1550.11 1065.73 1554.47C1066.72 1559.5 1067.83 1564.39 1069.05 1569.1C1070.89 1576.15 1072.96 1582.72 1075.25 1588.83C1075.26 1588.87 1075.28 1588.91 1075.3 1588.95C1075.69 1589.99 1076.08 1591.03 1076.49 1592.04C1076.7 1592.57 1076.92 1593.1 1077.14 1593.63C1077.35 1594.14 1077.56 1594.65 1077.77 1595.16C1078.15 1596.06 1078.54 1596.95 1078.93 1597.84C1078.98 1597.94 1079.03 1598.05 1079.08 1598.16C1086.19 1614.03 1095.88 1627.87 1109.06 1636.22C1109.43 1636.45 1109.79 1636.69 1110.17 1636.92C1110.47 1637.1 1110.77 1637.27 1111.07 1637.44C1111.75 1637.84 1112.44 1638.22 1113.13 1638.58C1113.3 1638.67 1113.47 1638.76 1113.64 1638.84C1117.68 1640.9 1121.91 1642.42 1126.33 1643.36C1134.11 1645 1141.51 1645.82 1148.51 1645.82C1166.79 1645.82 1182.41 1640.23 1195.13 1629.1C1218.11 1608.99 1228.81 1573.79 1233.37 1537.75C1235.04 1537.56 1236.69 1537.06 1238.22 1536.25C1241.43 1534.54 1243.79 1531.69 1244.84 1528.23C1245.91 1524.78 1245.55 1521.1 1243.85 1517.88C1242.14 1514.67 1239.29 1512.31 1235.84 1511.25L1235.71 1511.21C1235.93 1507.2 1236.08 1503.22 1236.19 1499.29C1241.9 1499.18 1247.16 1495.44 1248.93 1489.69C1250.31 1485.17 1249.2 1480.48 1246.41 1477.07C1251 1476.37 1255.5 1474.8 1259.85 1472.34C1264.25 1469.85 1268.33 1466.57 1272.11 1462.69C1304.21 1479.85 1350.98 1499.84 1394.71 1499.84C1402.73 1499.84 1410.65 1499.16 1418.36 1497.68C1446.27 1492.3 1468.46 1476.94 1484.32 1452.03C1514.68 1404.34 1493.96 1325.54 1422.72 1217.83C1404.32 1190.01 1384.75 1163.77 1367.03 1141.36C1381.66 1128.83 1395.41 1115.22 1408.27 1100.52C1466.33 1034.15 1499.21 953.215 1517.43 875.956C1577.22 859.248 1664.05 823.646 1715.66 750.995C1750.86 701.45 1765.03 641.727 1758.02 572.967C1767.93 564.773 1774.91 556.538 1779.73 549.548C1792.78 530.613 1797.58 509.84 1792.91 492.555" fill="black"/>
<path d="M1720.09 303.829C1706.77 300.03 1699.32 310.006 1697.25 315.824C1696.87 316.86 1697.41 318.001 1698.45 318.374C1698.68 318.454 1698.9 318.493 1699.13 318.493C1699.94 318.493 1700.71 317.985 1701.01 317.173C1701.21 316.633 1706 303.957 1718.99 307.674C1720.06 307.963 1721.16 307.36 1721.46 306.3C1721.77 305.238 1721.16 304.133 1720.09 303.829Z" fill="black"/>
<path d="M1717.51 521.557C1712.61 522.019 1706.96 523.052 1700.88 525.054C1709.58 522.426 1719.55 520.918 1730.74 521.475C1726.84 521.164 1722.38 521.103 1717.51 521.557Z" fill="#FEEACA"/>
<path d="M1737.87 658.203C1712.56 708.589 1640.17 806.871 1455.07 827.669C1434.03 830.033 1430.78 878.51 1459.59 873.426C1488.4 868.342 1622.85 838.967 1682.16 771.743C1717.42 731.782 1734.72 688.627 1742.95 660.196C1743.88 656.98 1739.37 655.211 1737.87 658.203Z" fill="#E9C39F"/>
<path d="M370.921 984.618C361.952 1011.53 361.741 1032.6 361.741 1032.98C361.741 1033.63 361.429 1034.24 360.904 1034.61C340.186 1049.41 321.011 1054.02 305.164 1054.02C279.236 1054.02 262.224 1041.68 261.952 1041.48C261.425 1041.09 261.125 1040.46 261.15 1039.81C261.752 1023.88 263.069 1008.54 265.089 993.782C233.342 1009.02 215.423 1033.97 215.335 1057.01C215.245 1079.77 233.093 1095.43 261.911 1097.88C263.01 1097.97 263.826 1098.94 263.733 1100.04C263.645 1101.08 262.77 1101.87 261.743 1101.87C261.687 1101.87 261.63 1101.87 261.572 1101.86C248.334 1100.74 237.253 1096.97 228.889 1091.08C209.529 1110.39 198.336 1143.8 191.271 1199.73C188.39 1222.54 192.665 1240.75 203.977 1253.88C218.157 1270.32 239.753 1274.36 248.402 1275.33C224.276 1233.91 233.96 1185.08 234.063 1184.57C234.285 1183.5 235.334 1182.77 236.425 1183.02C237.504 1183.24 238.201 1184.3 237.979 1185.38C237.875 1185.88 227.994 1235.87 253.826 1276.57C253.893 1276.68 253.946 1276.79 253.992 1276.9C253.994 1276.91 253.998 1276.91 253.999 1276.92C254.001 1276.92 254.002 1276.92 254.004 1276.93C254.005 1276.93 254.008 1276.93 254.009 1276.94C261.368 1295.78 278.78 1305.55 305.763 1305.96C321.296 1306.17 335.693 1303.09 341.863 1301.55C304.018 1259.9 312.11 1190.28 312.198 1189.57C312.335 1188.47 313.369 1187.69 314.425 1187.83C315.523 1187.97 316.299 1188.96 316.164 1190.06C316.078 1190.77 307.901 1261.31 347.032 1301.22C347.057 1301.25 347.076 1301.28 347.099 1301.3C347.112 1301.32 347.129 1301.33 347.141 1301.34C347.229 1301.45 356.002 1311.88 369.835 1319.35C388.147 1329.25 406.247 1329.53 423.626 1320.2C465.034 1297.96 443.087 1241.88 442.86 1241.32C442.849 1241.29 442.85 1241.26 442.84 1241.24C442.831 1241.21 442.813 1241.19 442.806 1241.17C437.736 1224.87 432.838 1212.03 428.516 1200.7C423.333 1187.11 418.856 1175.37 416.172 1162.83C416.065 1162.34 416.16 1161.85 416.391 1161.44C413.939 1161.98 411.736 1162.13 410.122 1162.13C408.531 1162.13 407.508 1162 407.367 1161.98C406.276 1161.82 405.521 1160.81 405.673 1159.72C405.827 1158.63 406.851 1157.88 407.929 1158.02C408.03 1158.03 418.348 1159.36 425.574 1152.14C426.355 1151.36 427.621 1151.36 428.402 1152.14C429.183 1152.92 429.183 1154.18 428.402 1154.96C425.476 1157.89 422.186 1159.64 419.091 1160.68C419.577 1160.95 419.954 1161.41 420.08 1162C422.702 1174.23 426.916 1185.28 432.254 1199.28C436.293 1209.87 440.833 1221.78 445.56 1236.61C454.978 1225.67 489.571 1182.29 479.058 1146.87C463.488 1094.42 418.82 1074.95 393.994 1068.05C386.659 1075.74 377.239 1082.3 366.206 1086.98C365.19 1087.41 364.018 1086.94 363.585 1085.92C363.154 1084.9 363.63 1083.73 364.645 1083.3C394.754 1070.54 412.203 1043.2 406.132 1018.28C402.247 1002.33 389.83 990.827 370.921 984.618Z" fill="white"/>
<path d="M314.423 1049.67C311.864 1049.91 309.223 1050.04 306.5 1050.04C297.072 1050.04 286.711 1048.49 275.731 1044.44C284.53 1048.13 297.954 1051.72 314.423 1049.67Z" fill="#FEEACA"/>
<path d="M618.986 826.401C600.909 824.706 529.731 808.889 432.567 846.738C335.403 884.586 332.579 1017.34 332.579 1017.34L355.74 1002.65C355.74 1002.65 358.544 940.03 421.834 891.93C492.447 838.264 606.276 860.295 606.276 860.295C661.354 864.25 637.063 828.096 618.986 826.401Z" fill="#E9C39F"/>
<path d="M1135.84 975.75C1135.81 979.314 1135.63 985.128 1134.95 992.292C1055.74 1058.64 964.999 1009.08 937.808 991.355C936.834 984.995 936.38 979.927 936.171 976.921C936.504 977.062 936.854 977.214 937.209 977.366C1016.49 1011.48 1086.83 1010.86 1135.84 975.75ZM1042.87 1098.88H1042.3C1013.75 1098.88 990.216 1089.23 972.323 1070.2C998.641 1058.69 1048.16 1045.65 1102.35 1075.22C1087.13 1090.81 1067.13 1098.77 1042.87 1098.88ZM1151.52 971.733C1136.84 973.013 1131.75 960.395 1131.54 959.852C1131.15 958.821 1129.98 958.291 1128.97 958.693C1127.94 959.079 1127.42 960.227 1127.8 961.258C1127.83 961.352 1129.98 966.886 1135.38 971.105C1087.48 1006.72 1017.76 1007.67 938.788 973.693C937.697 973.223 936.889 972.874 936.267 972.614C938.715 970.572 940.931 967.64 942.523 963.448C942.915 962.413 942.396 961.261 941.363 960.867C940.338 960.489 939.177 961 938.786 962.027C933.451 976.082 919.902 972.833 919.328 972.685C918.252 972.392 917.171 973.056 916.898 974.126C916.624 975.196 917.265 976.281 918.331 976.558C918.389 976.57 920.343 977.054 923.172 977.054C925.685 977.054 928.887 976.672 932.061 975.245C932.193 977.815 932.627 984.165 933.994 992.85C934.025 993.048 934.095 993.233 934.182 993.41C937.536 1013.72 945.988 1045.92 967.108 1070.16C967.193 1070.4 967.313 1070.63 967.488 1070.83C1001.54 1109 1069.11 1115.72 1105.77 1077.51C1138.76 1043.12 1139.97 985.644 1139.85 973.818C1142.52 975.029 1145.68 975.824 1149.42 975.824C1150.22 975.824 1151.03 975.789 1151.87 975.715C1152.98 975.617 1153.79 974.649 1153.69 973.548C1153.59 972.451 1152.59 971.623 1151.52 971.733Z" fill="black"/>
<path d="M1102.35 1075.22C1048.16 1045.65 998.641 1058.69 972.323 1070.2C990.216 1089.23 1013.75 1098.88 1042.3 1098.88H1042.87C1067.13 1098.77 1087.13 1090.81 1102.35 1075.22Z" fill="#FE6278"/>
<path d="M936.171 976.921C936.38 979.927 936.834 984.995 937.808 991.355C964.998 1009.08 1055.74 1058.64 1134.95 992.292C1135.63 985.128 1135.81 979.314 1135.84 975.75C1086.83 1010.86 1016.49 1011.48 937.209 977.366C936.853 977.214 936.505 977.062 936.171 976.921Z" fill="white"/>
<path d="M1008.11 864.663C1001.81 860.397 947.016 825.942 879.649 867.205C881.284 915.694 910.047 954.394 944.614 954.398C944.887 954.398 945.154 954.394 945.426 954.39C980.425 953.773 1008.28 913.693 1008.11 864.663Z" fill="#E9C39F"/>
<path d="M972.023 845.652C989.846 849.478 1002.47 856.366 1008 859.81C1006.01 811.775 977.408 773.585 943.07 773.585C942.796 773.585 942.529 773.589 942.258 773.593C925.224 773.889 909.328 783.486 897.496 800.613C885.946 817.337 879.64 839.255 879.593 862.576C917.142 840.328 950.485 841.027 972.023 845.652Z" fill="#E9C39F"/>
<path d="M897.496 800.613C909.328 783.485 925.223 773.889 942.257 773.592C942.529 773.588 942.796 773.584 943.069 773.584C977.407 773.584 1006.01 811.774 1008 859.81C1002.47 856.366 989.846 849.478 972.023 845.652C950.485 841.027 917.142 840.328 879.593 862.576C879.64 839.256 885.945 817.336 897.496 800.613ZM944.614 954.398C910.047 954.394 881.284 915.695 879.649 867.205C947.015 825.943 1001.81 860.397 1008.11 864.663C1008.28 913.693 980.425 953.773 945.426 954.39C945.154 954.394 944.887 954.398 944.614 954.398ZM1012.09 862.795C1011.17 810.744 980.001 768.892 942.187 769.594C923.83 769.914 906.79 780.124 894.207 798.341C881.764 816.351 875.154 840.092 875.596 865.188C876.501 916.833 907.377 958.396 944.619 958.396C944.91 958.396 945.205 958.393 945.496 958.389C983.126 957.725 1013 914.841 1012.09 862.795Z" fill="black"/>
<path d="M910.665 739.427C911.454 740.282 912.531 740.719 913.613 740.719C914.577 740.719 915.547 740.372 916.314 739.665C916.535 739.462 938.992 719.371 967.465 739.029C969.284 740.278 971.771 739.829 973.026 738.01C974.28 736.19 973.823 733.699 972.005 732.446C938.35 709.216 911.18 733.532 910.907 733.778C909.281 735.269 909.172 737.799 910.665 739.427Z" fill="black"/>
<path d="M1177.95 864.661C1171.63 860.382 1116.84 825.952 1049.49 867.205C1051.13 915.695 1079.89 954.395 1114.46 954.399C1114.73 954.399 1115 954.395 1115.27 954.391C1150.27 953.774 1178.12 913.692 1177.95 864.661Z" fill="#E9C39F"/>
<path d="M1141.87 845.651C1159.69 849.476 1172.31 856.363 1177.84 859.807C1175.85 811.773 1147.25 773.584 1112.91 773.584C1112.64 773.584 1112.37 773.588 1112.1 773.592C1095.06 773.888 1079.17 783.485 1067.34 800.612C1055.79 817.335 1049.48 839.258 1049.44 862.575C1086.99 840.328 1120.33 841.034 1141.87 845.651Z" fill="#E9C39F"/>
<path d="M1067.34 800.612C1079.17 783.484 1095.07 773.889 1112.1 773.592C1112.37 773.588 1112.64 773.584 1112.91 773.584C1147.25 773.584 1175.85 811.772 1177.84 859.807C1172.31 856.363 1159.68 849.476 1141.87 845.651C1120.33 841.034 1086.99 840.328 1049.44 862.575C1049.48 839.258 1055.79 817.335 1067.34 800.612ZM1114.46 954.399C1079.89 954.395 1051.13 915.695 1049.49 867.205C1116.84 825.952 1171.63 860.382 1177.95 864.661C1178.12 913.692 1150.27 953.774 1115.27 954.391C1115 954.395 1114.73 954.399 1114.46 954.399ZM1181.93 862.795C1181.02 811.15 1150.15 769.587 1112.91 769.587C1112.61 769.587 1112.32 769.59 1112.03 769.594C1093.67 769.914 1076.63 780.124 1064.05 798.341C1051.61 816.355 1045 840.092 1045.44 865.188C1046.34 916.833 1077.22 958.396 1114.46 958.396C1114.75 958.396 1115.05 958.393 1115.34 958.389C1152.97 957.725 1182.84 914.841 1181.93 862.795Z" fill="black"/>
<path d="M1080.75 733.777C1079.13 735.265 1079.02 737.783 1080.51 739.411C1081.29 740.274 1082.37 740.711 1083.46 740.711C1084.42 740.711 1085.38 740.367 1086.15 739.672C1087.07 738.841 1109 719.484 1137.3 739.028C1139.13 740.277 1141.61 739.825 1142.87 738.009C1144.12 736.19 1143.66 733.699 1141.85 732.446C1108.18 709.216 1081.02 733.527 1080.75 733.777Z" fill="black"/>
<path d="M1014.44 984.859C1019.36 986.944 1024.69 987.967 1029.99 987.963C1037.77 987.963 1045.5 985.765 1051.78 981.486C1062.77 974.005 1069.01 960.36 1067.32 947.535C1065.56 934.202 1055.41 922.79 1042.62 919.784C1029.57 916.692 1015.03 923.146 1008.87 934.761C1008.35 935.737 1008.73 936.947 1009.7 937.462C1010.68 937.985 1011.89 937.607 1012.4 936.635C1017.74 926.578 1030.34 921.014 1041.71 923.673C1052.73 926.265 1061.84 936.521 1063.36 948.058C1064.85 959.423 1059.3 971.53 1049.53 978.183C1040.07 984.621 1026.91 985.804 1016.01 981.181C1014.99 980.748 1013.82 981.22 1013.38 982.239C1012.95 983.258 1013.43 984.43 1014.44 984.859Z" fill="black"/>
<path d="M1194.1 973.613C1213.77 973.613 1229.72 964.044 1229.72 952.241C1229.72 940.437 1213.77 930.867 1194.1 930.867C1174.43 930.867 1158.48 940.437 1158.48 952.241C1158.48 964.044 1174.43 973.613 1194.1 973.613Z" fill="#FE7A80"/>
<path d="M862.385 973.613C882.058 973.613 898.005 964.044 898.005 952.241C898.005 940.437 882.058 930.867 862.385 930.867C842.712 930.867 826.765 940.437 826.765 952.241C826.765 964.044 842.712 973.613 862.385 973.613Z" fill="#FE7A80"/>
</g>
<defs>
<clipPath id="clip0_1263_205">
<rect width="2000" height="2000" fill="white" transform="translate(0.617188)"/>
</clipPath>
</defs>
</svg>
