<svg width="2001" height="2000" viewBox="0 0 2001 2000" fill="none" xmlns="http://www.w3.org/2000/svg">
<g clip-path="url(#clip0_1263_202)">
<path d="M0.617188 2000H2000.62V0.000488281H0.617188V2000Z" fill="#551E60"/>
<path d="M1835.58 801.723L1836.11 812.258C1836.2 813.913 1837.04 815.439 1838.39 816.399L1846.57 822.207C1850.1 824.714 1849.4 830.146 1845.35 831.684L1835.48 835.437C1833.93 836.024 1832.74 837.285 1832.24 838.861L1828.93 849.288C1827.67 853.258 1822.59 854.379 1819.77 851.307L1812.03 842.844C1811.06 841.787 1809.71 841.157 1808.28 841.092L1797.9 840.619C1793.75 840.429 1791.35 835.814 1793.58 832.302L1799.06 823.693C1799.88 822.402 1800.12 820.825 1799.71 819.35L1796.7 808.39C1795.57 804.279 1799.41 800.535 1803.49 801.772L1813.77 804.89C1815.44 805.396 1817.25 805.067 1818.64 804.008L1826.88 797.697C1830.34 795.047 1835.36 797.368 1835.58 801.723Z" fill="#FFE07D"/>
<path d="M502.598 255.79L511.572 261.334C512.982 262.205 514.714 262.382 516.271 261.815L525.697 258.382C529.765 256.9 533.841 260.556 532.808 264.761L530.288 275.022C529.893 276.628 530.254 278.326 531.267 279.632L537.971 288.277C540.523 291.568 538.559 296.389 534.433 296.959L523.068 298.53C521.648 298.726 520.364 299.477 519.497 300.619L513.215 308.891C510.698 312.206 505.536 311.559 503.915 307.725L499.941 298.325C499.345 296.916 498.182 295.825 496.737 295.321L486.005 291.577C481.98 290.173 481.081 284.884 484.416 282.228L492.82 275.537C494.184 274.451 494.942 272.775 494.856 271.034L494.344 260.664C494.129 256.308 498.888 253.498 502.598 255.79Z" fill="#FFE07D"/>
<path d="M506.435 1684.87L514.429 1691.75C515.685 1692.83 517.367 1693.28 518.994 1692.96L528.841 1691.05C533.092 1690.23 536.544 1694.48 534.865 1698.47L530.766 1708.21C530.125 1709.73 530.215 1711.46 531.01 1712.91L536.275 1722.5C538.28 1726.15 535.584 1730.61 531.42 1730.52L519.949 1730.29C518.516 1730.26 517.129 1730.8 516.094 1731.79L508.593 1738.98C505.586 1741.86 500.591 1740.41 499.591 1736.37L497.14 1726.46C496.773 1724.98 495.795 1723.72 494.447 1722.99L484.435 1717.61C480.679 1715.59 480.621 1710.23 484.331 1708.13L493.681 1702.84C495.199 1701.98 496.21 1700.44 496.398 1698.71L497.519 1688.39C497.989 1684.05 503.13 1682.03 506.435 1684.87Z" fill="#FFE07D"/>
<path d="M1501.45 266.275L1504.89 276.247C1505.43 277.814 1506.65 279.047 1508.22 279.594L1517.69 282.902C1521.78 284.33 1522.62 289.74 1519.16 292.342L1510.71 298.691C1509.39 299.684 1508.59 301.227 1508.55 302.88L1508.27 313.815C1508.16 317.979 1503.59 320.468 1500.04 318.298L1490.24 312.32C1489.02 311.574 1487.55 311.343 1486.16 311.678L1476.06 314.106C1472.01 315.079 1468.42 311.311 1469.59 307.317L1472.47 297.524C1472.9 296.056 1472.69 294.475 1471.89 293.17L1465.95 283.479C1463.72 279.844 1466.37 275.18 1470.64 275.235L1481.38 275.374C1483.12 275.397 1484.77 274.579 1485.8 273.176L1491.97 264.824C1494.56 261.316 1500.02 262.152 1501.45 266.275Z" fill="#FFE07D"/>
<path d="M198.948 919.476L211.047 935.972C212.948 938.564 215.932 940.142 219.144 940.256L238.586 940.943C246.979 941.239 251.645 950.778 246.728 957.586L234.731 974.198C232.853 976.797 232.266 980.112 233.137 983.198L238.897 1003.62C241.091 1011.39 234.052 1018.63 226.22 1016.65L204.647 1011.2C201.951 1010.52 199.096 1010.94 196.707 1012.36L179.395 1022.66C172.457 1026.79 163.65 1021.87 163.526 1013.8L163.221 994.007C163.176 991.041 161.877 988.232 159.648 986.275L143.079 971.736C136.864 966.283 139.097 956.12 147.024 953.773L167.002 947.86C170.244 946.9 172.826 944.439 173.938 941.246L180.563 922.232C183.346 914.245 193.946 912.656 198.948 919.476Z" fill="#FFE07D"/>
<path d="M1772.23 1526.09L1769.14 1546.32C1768.65 1549.49 1769.65 1552.72 1771.84 1555.07L1785.11 1569.29C1790.84 1575.44 1787.4 1585.48 1779.11 1586.82L1758.88 1590.1C1755.71 1590.61 1752.96 1592.54 1751.39 1595.34L1741.04 1613.86C1737.1 1620.91 1727 1621.05 1722.86 1614.12L1711.44 1595.02C1710.02 1592.63 1707.7 1590.91 1705.01 1590.23L1685.48 1585.28C1677.66 1583.3 1674.9 1573.6 1680.52 1567.8L1694.29 1553.58C1696.35 1551.45 1697.42 1548.54 1697.22 1545.58L1695.77 1523.59C1695.23 1515.34 1703.99 1509.72 1711.26 1513.67L1729.57 1523.6C1732.54 1525.21 1736.11 1525.3 1739.15 1523.82L1757.28 1515.05C1764.89 1511.37 1773.51 1517.73 1772.23 1526.09Z" fill="#FFE07D"/>
<path d="M712.021 1747.21L714.616 1767.5C715.024 1770.69 716.869 1773.52 719.625 1775.17L736.301 1785.19C743.499 1789.52 742.962 1800.12 735.362 1803.7L716.82 1812.42C713.918 1813.78 711.799 1816.4 711.066 1819.52L706.216 1840.17C704.369 1848.04 694.706 1850.96 688.812 1845.43L672.576 1830.22C670.547 1828.32 667.848 1827.3 665.07 1827.39L644.935 1828.01C636.866 1828.26 631.544 1819.69 635.345 1812.57L644.664 1795.11C646.061 1792.49 646.286 1789.41 645.283 1786.62L637.83 1765.87C635.034 1758.09 641.91 1750.28 649.982 1752.07L670.324 1756.57C673.625 1757.3 677.076 1756.4 679.596 1754.14L694.602 1740.72C700.905 1735.08 710.948 1738.82 712.021 1747.21Z" fill="#FFE07D"/>
<path d="M1364.62 150.589L1381.01 162.831C1383.59 164.755 1386.9 165.393 1390.01 164.563L1408.8 159.541C1416.92 157.373 1424.17 165.132 1421.45 173.08L1414.83 192.471C1413.8 195.506 1414.2 198.847 1415.94 201.544L1427.41 219.389C1431.78 226.183 1427.16 235.16 1419.09 235.557L1396.87 236.651C1394.09 236.787 1391.48 238.019 1389.61 240.076L1376.07 254.983C1370.64 260.958 1360.78 258.826 1358.3 251.142L1352.23 232.305C1351.32 229.482 1349.26 227.175 1346.55 225.955L1326.46 216.89C1318.92 213.49 1318.09 203.118 1324.98 198.558L1342.36 187.067C1345.18 185.202 1346.93 182.093 1347.06 178.715L1347.85 158.595C1348.18 150.144 1357.85 145.528 1364.62 150.589Z" fill="#FFE07D"/>
<path d="M939.443 108.643C934.17 108.774 934.184 116.498 939.443 116.643C944.716 116.512 944.702 108.788 939.443 108.643Z" fill="white"/>
<path d="M285.031 577.44C279.759 577.571 279.772 585.295 285.031 585.44C290.304 585.309 290.29 577.585 285.031 577.44Z" fill="white"/>
<path d="M189.844 729.739C184.571 729.87 184.585 737.594 189.844 737.739C195.117 737.608 195.103 729.884 189.844 729.739Z" fill="white"/>
<path d="M327.866 1077.17C322.594 1077.3 322.607 1085.03 327.866 1085.17C333.139 1085.04 333.125 1077.32 327.866 1077.17Z" fill="white"/>
<path d="M239.818 1505.51C234.546 1505.65 234.559 1513.37 239.818 1513.51C245.091 1513.38 245.077 1505.66 239.818 1505.51Z" fill="white"/>
<path d="M1047.6 1894.45C1042.33 1894.59 1042.34 1902.31 1047.6 1902.45C1052.88 1902.32 1052.86 1894.6 1047.6 1894.45Z" fill="white"/>
<path d="M1310.32 1732.78C1305.05 1732.91 1305.06 1740.64 1310.32 1740.78C1315.59 1740.65 1315.58 1732.93 1310.32 1732.78Z" fill="white"/>
<path d="M1738.08 1395.96C1732.81 1396.1 1732.82 1403.82 1738.08 1403.96C1743.35 1403.83 1743.34 1396.11 1738.08 1395.96Z" fill="white"/>
<path d="M1923.33 1049.04C1918.06 1049.17 1918.07 1056.9 1923.33 1057.04C1928.6 1056.91 1928.59 1049.19 1923.33 1049.04Z" fill="white"/>
<path d="M1643.77 617.916C1638.5 618.047 1638.51 625.771 1643.77 625.916C1649.04 625.785 1649.03 618.061 1643.77 617.916Z" fill="white"/>
<path d="M1791.97 432.667C1786.7 432.798 1786.71 440.522 1791.97 440.667C1797.24 440.536 1797.23 432.812 1791.97 432.667Z" fill="white"/>
<path d="M1558.1 190.684C1552.83 190.815 1552.84 198.539 1558.1 198.684C1563.37 198.553 1563.36 190.829 1558.1 190.684Z" fill="white"/>
<path d="M267.662 137.941C262.39 138.072 262.403 145.796 267.662 145.941C272.935 145.81 272.921 138.086 267.662 137.941Z" fill="white"/>
<path d="M313.373 1850.32C308.101 1850.45 308.114 1858.17 313.373 1858.32C318.646 1858.19 318.632 1850.46 313.373 1850.32Z" fill="white"/>
<path d="M1747.97 1804.61C1742.7 1804.74 1742.71 1812.46 1747.97 1812.61C1753.24 1812.48 1753.23 1804.75 1747.97 1804.61Z" fill="white"/>
<path d="M526.097 1206.16C544.377 1112.05 576.642 1020.66 621.504 935.927C611.894 937.764 602.285 939.601 592.675 941.437C602.354 897.771 612.033 854.104 621.712 810.437C612.362 813.023 603.012 815.608 597.381 817.864C607.604 706.185 634.893 596.084 678.009 492.557C687.255 470.356 700.845 445.541 724.606 441.828C743.538 438.869 761.254 450.796 776.706 462.127C803.002 481.409 829.298 500.691 857.461 519.129C932.949 470.34 1030.63 457.533 1113.27 487.079C1123.03 456.481 1139.19 427.941 1160.4 403.83C1175.86 386.266 1197.08 370.034 1220.29 373.025C1238.56 375.382 1253.13 389.109 1265.21 403.028C1318.56 464.534 1349.41 541.888 1378.95 617.763C1386.35 636.764 1393.73 655.773 1401.11 674.781C1404.12 682.536 1407.13 691.233 1403.99 698.934C1400.85 706.634 1388.28 709.97 1377.73 705.83C1386.09 743.523 1404.93 778.835 1431.58 806.773C1422.12 811.344 1412.66 815.915 1404.42 823.924C1473.24 893.582 1523.66 981.255 1551.46 1078.86C1533.5 1113.77 1505.07 1142.5 1473.12 1165.31C1441.16 1188.13 1405.63 1205.39 1369.81 1221.48C1249.03 1275.76 1120.19 1318.54 988.685 1322.56C846.116 1331.78 701.283 1303.41 572.725 1241.09C553.266 1231.66 533.624 1221.02 526.097 1206.16Z" fill="white"/>
<path d="M523.849 1201.69C494.655 1201.48 476.569 1170.42 466.338 1143.07C411.576 996.713 406.912 832.121 453.3 682.894C499.687 533.667 596.839 400.726 726.651 317.31C779.357 279.456 842.097 256.798 906.235 246.945C970.373 237.092 1035.98 239.7 1100.16 249.28C1161.16 258.385 1221.8 273.981 1276.45 302.569C1331.1 331.157 1379.68 373.46 1407.97 432.288C1444.83 469.933 1467.92 518.785 1486.98 567.902C1537.38 697.745 1564.29 836.664 1566.02 975.933C1566.43 1008.44 1565.31 1041.82 1552.98 1071.91C1519.85 981.231 1469.43 896.904 1402.66 822.108C1408.71 816.058 1416.69 811.97 1425.13 810.597C1405.29 776.255 1389.61 739.504 1378.56 701.41C1386.85 698.342 1396.21 698.282 1404.52 701.244C1376.83 614.993 1341.88 531.073 1300.57 451.734C1285.07 422.211 1261.77 396.829 1233.68 378.869C1222 371.407 1208.09 365.02 1194.67 368.48C1182.89 371.52 1174.31 381.443 1166.94 391.133C1146.33 418.243 1128.88 447.751 1113.5 484.011C1026.74 459.075 929.982 471.152 850.441 517.554C821.602 490.955 788.598 468.881 753.002 452.384C745.588 448.948 737.896 445.71 729.752 445.043C721.608 444.376 712.833 446.663 706.64 452.908C688.046 461.913 674.376 479.035 665.586 497.733C656.797 516.43 652.37 536.826 648.009 557.021C628.981 645.152 609.953 733.282 590.925 821.412C599.252 822.788 608.04 821.178 615.34 816.941C616.591 859.205 609.13 901.707 593.557 941.016C603.207 937.778 612.857 934.539 620.342 934.42C575.906 1016.9 544.217 1106.24 523.849 1201.69Z" fill="#52FFFF"/>
<path d="M449.266 1084.15C460.068 1098.15 467.226 1114.93 469.849 1132.42C442.046 1148.33 425.199 1181.54 428.786 1213.37C432.318 1244.72 453.779 1271.79 479.819 1289.59C505.859 1307.39 536.33 1317.33 576.956 1329.47C808.566 1410.52 1065.96 1415.95 1300.79 1344.74C1400.36 1314.55 1498.19 1269.34 1570.64 1194.66C1590.61 1174.07 1609.23 1149.6 1611.8 1121.03C1614.36 1092.46 1594.42 1060.41 1564.46 1061.47C1564.8 1042.83 1568.66 1024.27 1575.8 1007.05C1606.24 1009.22 1635.86 1021.73 1665.6 1045.67C1700.81 1082.7 1709.6 1139.41 1697.93 1189.15C1686.25 1238.9 1656.72 1282.66 1623.39 1321.39C1574.67 1378.01 1516.57 1426.55 1446.96 1470.84C1279.62 1551.21 1093.23 1591.56 907.627 1587.61C722.027 1583.66 544.897 1558.03 372.887 1449.28C341.851 1418.17 316.031 1380.81 304.006 1338.55C291.981 1296.28 294.847 1248.79 317.347 1211.05C329.887 1190.01 347.807 1172.8 365.503 1155.87C393.121 1129.45 420.74 1103.02 449.266 1084.15Z" fill="#FF9694"/>
<path d="M1166.83 491.043C1170.96 467.425 1184.61 449.795 1197.62 431.56C1202.23 425.106 1208.1 418.352 1216.01 417.737C1224 417.115 1230.91 423.026 1236.29 428.969C1249.96 444.059 1260.48 461.978 1267.01 481.26C1269.53 488.73 1271.1 497.991 1265.62 503.659C1262.2 507.194 1256.99 508.199 1252.12 508.867C1232.11 511.608 1211.74 511.66 1191.72 509.021C1184.73 508.1 1178.19 505.544 1172.35 501.601C1167.52 498.334 1166.12 495.102 1166.83 491.043Z" fill="#FF9694"/>
<path d="M1202.05 735.512C1196.89 714.032 1218.82 690.343 1251.04 682.602C1283.26 674.86 1313.57 685.997 1318.73 707.478C1323.89 728.958 1301.95 752.646 1269.73 760.388C1237.51 768.129 1207.21 756.992 1202.05 735.512Z" fill="#FF9694"/>
<path d="M772.05 825.512C766.889 804.032 788.825 780.343 821.045 772.602C853.265 764.86 883.568 775.997 888.729 797.478C893.89 818.958 871.955 842.646 839.735 850.388C807.514 858.129 777.211 846.992 772.05 825.512Z" fill="#FF9694"/>
<path d="M770.265 509.865C763.41 504.051 756.438 498.161 748.34 494.554C740.242 490.947 730.724 489.863 722.811 493.78C712.057 499.105 706.871 511.928 703.378 523.904C698.117 541.936 694.601 560.546 692.902 579.353C692.249 586.58 691.874 593.969 693.511 601.04C695.148 608.111 699.071 614.915 705.178 618.342C715.872 624.343 728.772 618.48 739.468 612.653C750.153 606.831 760.838 601.01 771.523 595.188C782.088 589.432 793.418 582.835 798.078 571.301C802.614 560.073 799.44 546.655 792.873 536.51C786.306 526.366 778.613 516.946 770.265 509.865Z" fill="#FF9694"/>
<path d="M663.112 1358.51C602.217 1347.94 543.602 1324.42 492.301 1289.95C473.727 1277.48 455.846 1263.32 442.862 1245.09C429.877 1226.87 422.157 1204.05 425.664 1181.95C429.17 1159.85 445.425 1139.25 467.258 1134.35C473.292 1158.75 488.784 1180.05 507.703 1196.6C526.622 1213.15 548.911 1225.35 571.509 1236.35C666.575 1282.64 770.805 1310.02 880.456 1311.26C951.254 1333.11 1027.54 1318.93 1100.23 1304.6C1190.53 1286.81 1281.68 1268.75 1365.95 1231.75C1450.22 1194.76 1528.24 1136.71 1574.02 1053.42C1596.5 1063.18 1610.78 1087.31 1612.63 1111.74C1614.49 1136.18 1605.29 1160.5 1591.17 1180.53C1577.06 1200.55 1558.25 1216.78 1538.93 1231.85C1417.15 1326.84 1265.89 1383.47 1107.57 1386.05C955.448 1402.75 802.829 1382.74 663.112 1358.51Z" fill="#FFE07D"/>
<path d="M762.445 1630.83C799.714 1661.08 845.727 1679.25 892.827 1688.5C939.927 1697.75 988.302 1698.45 1036.27 1696.6C1103.49 1694.02 1171.25 1686.34 1234.53 1663.5C1297.81 1640.66 1356.72 1601.58 1394.35 1545.81C1295.91 1593.23 1187.05 1615.96 1078.15 1624.94C969.261 1633.93 859.758 1629.59 762.445 1630.83Z" fill="#FFE07D"/>
<path d="M741.682 1625.73C783.382 1646.29 825.634 1665.72 868.376 1684.01C845.446 1715.17 798.656 1722.85 763.645 1706.4C728.634 1689.95 705.586 1653.76 697.999 1615.83C711.563 1615.56 724.126 1617.08 741.682 1625.73Z" fill="#FF9694"/>
<path d="M1000.07 1703.23C1066.49 1703.31 1132.92 1694.02 1196.78 1675.73C1188.53 1718.86 1150.32 1754.5 1106.72 1759.72C1063.13 1764.94 1017.57 1739.34 1000.07 1703.23Z" fill="#FF9694"/>
<path d="M1317.19 1630.59C1341.26 1613.68 1362.59 1592.86 1380.07 1569.2C1387.13 1559.63 1393.65 1549.51 1402.43 1541.49C1411.2 1533.46 1422.82 1527.63 1434.65 1528.84C1445.63 1555.84 1442.65 1588.43 1425.75 1612.19C1408.86 1635.95 1378.19 1649.55 1349.44 1644.76C1336.63 1642.63 1324.41 1637.08 1317.19 1630.59Z" fill="#FF9694"/>
<path d="M373.983 1460.05C410.602 1513.05 467.175 1549.79 527.329 1572.85C587.483 1595.92 651.612 1606.41 715.34 1615.86C778.816 1625.27 842.813 1633.8 911.888 1625.65C1102.13 1640.46 1296.4 1598.94 1461.23 1504.57C1565.62 1452.73 1648.66 1359.36 1687.96 1249.63C1570.91 1406.28 1394.9 1517.75 1201.73 1553.8C1059.18 1575.89 914.435 1589.62 770.659 1577.9C626.884 1566.17 483.497 1528.07 373.983 1460.05Z" fill="#FF5970"/>
<path d="M1062.65 1692.76C1055.65 1705.74 1062.04 1722.67 1073.25 1732.25C1084.45 1741.84 1099.25 1745.83 1113.52 1749.55C1097.63 1758.33 1077.65 1756.8 1060.86 1749.87C1044.08 1742.94 1029.8 1731.21 1015.8 1719.64C1011.48 1716.07 1007 1712.3 1004.78 1707.15C1002.56 1702 1003.42 1695.06 1008.18 1692.1C1010.79 1690.47 1014.03 1690.31 1017.11 1690.2C1031.49 1689.68 1045.87 1689.15 1062.65 1692.76Z" fill="#FF5970"/>
<path d="M761.398 1634.39C746.077 1651.72 743.809 1679.29 756.094 1698.89C744.318 1692.65 734.812 1682.68 727.629 1671.46C720.446 1660.23 715.452 1647.76 711.175 1635.14C709.247 1629.45 707.565 1622.79 710.874 1617.78C713.142 1614.34 717.375 1612.58 721.488 1612.44C725.601 1612.31 729.63 1613.6 733.419 1615.2C744.163 1619.75 753.764 1626.97 761.398 1634.39Z" fill="#FF5970"/>
<path d="M1391.34 1558.47C1400.51 1565.16 1405.94 1576 1408.34 1587.09C1410.74 1598.18 1410.42 1609.65 1410.09 1620.99C1422.39 1610.24 1432.24 1596.52 1437.58 1581.08C1442.91 1565.64 1443.6 1548.48 1438.61 1532.92C1437.85 1530.55 1436.66 1527.93 1434.28 1527.21C1432.49 1526.67 1430.59 1527.4 1428.89 1528.16C1412.79 1535.4 1398.87 1547.39 1391.34 1558.47Z" fill="#FF5970"/>
<path d="M866.211 1104.08C876.977 1090.07 888.034 1075.91 902.387 1065.59C916.74 1055.28 935.084 1049.16 952.286 1053.21C969.488 1057.27 984.245 1073.47 982.88 1091.09C981.681 1106.56 969.539 1118.64 958.163 1129.2C939.331 1146.68 920.499 1164.16 901.666 1181.64C895.009 1152.37 882.06 1124.56 866.211 1104.08Z" fill="#5F46B3"/>
<path d="M774.443 1216.49C770.499 1212.41 775.96 1205.16 781.631 1205.29C787.302 1205.42 791.906 1209.63 796.347 1213.16C809.249 1223.41 825.321 1229.61 841.764 1230.68C847.904 1231.08 855.189 1231.36 858.479 1236.56C860.287 1239.42 860.292 1243.02 860.238 1246.4L859.156 1314.74C831.019 1313.07 802.904 1311.01 774.823 1308.56C768.682 1308.03 762.095 1307.29 757.458 1303.23C750.824 1297.42 750.733 1287.25 751.758 1278.49C754.585 1254.33 761.965 1230.7 774.443 1216.49Z" fill="#5F46B3"/>
<path d="M1067.51 1310.93C1067.18 1283.73 1088.39 1257.83 1115.14 1252.8C1141.88 1247.78 1171.05 1264.2 1180.62 1289.68L1233.59 1277.55C1225.31 1240.82 1197.8 1209 1162.65 1195.5C1127.5 1182 1085.76 1187.22 1055.02 1208.96C1024.28 1230.71 1005.45 1268.33 1006.48 1305.97C1006.57 1309.26 1006.95 1312.88 1009.35 1315.14C1011.59 1317.25 1014.95 1317.53 1018.03 1317.67C1034.73 1318.39 1051.48 1318.01 1067.51 1310.93Z" fill="#5F46B3"/>
<path d="M1277.2 1047.85C1258.16 1032.81 1233.21 1025.45 1209.05 1027.76C1201.19 1028.51 1192.73 1030.67 1188.01 1037C1182.44 1044.49 1184.13 1055.28 1188.55 1063.5C1195.21 1075.92 1207.11 1084.88 1219.98 1090.61C1232.86 1096.34 1246.81 1099.16 1260.62 1101.95C1264.59 1085.24 1268.57 1068.52 1277.2 1047.85Z" fill="#5F46B3"/>
<path d="M1441.65 1184.94C1436.91 1157.11 1422.66 1130.98 1401.82 1111.92C1388.23 1130.93 1370.87 1147.24 1351.06 1159.63C1361.46 1175.87 1371.87 1192.12 1382.28 1208.36C1384.2 1211.36 1386.44 1214.6 1389.89 1215.48C1392.54 1216.15 1395.3 1215.25 1397.86 1214.31C1415 1208.02 1431.15 1199.04 1441.65 1184.94Z" fill="#5F46B3"/>
<path d="M890.177 510.581C907.049 545.936 935.28 575.761 969.656 594.546C985.304 603.097 1005.88 608.98 1019.98 598.062C1027.62 592.145 1031.38 582.615 1034.55 573.482C1045.89 540.736 1054.01 506.872 1058.74 472.54C1000.27 466.395 940.145 476.998 890.177 510.581Z" fill="#C2C2C2"/>
<path d="M612.361 850.236C631.647 818.442 662.958 794.143 698.545 783.355C714.248 778.594 733.006 776.99 745.491 787.637C763.171 802.715 757.255 831.12 748.2 852.519C712.005 938.05 648.86 1011.94 570.018 1061.03C583.228 1019.05 600.538 978.355 621.621 939.722C608.048 940.339 594.474 940.956 580.901 941.573C591.153 911.098 595.608 877.854 612.361 850.236Z" fill="#C2C2C2"/>
<path d="M1448.97 885.382C1434.98 893.632 1422.05 904.496 1414.36 918.801C1406.67 933.106 1404.95 951.251 1412.71 965.516C1419.66 978.284 1432.9 986.276 1446.1 992.363C1471.54 1004.1 1498.9 1010.98 1526.08 1017.8C1507.51 969.656 1483.09 923.765 1448.97 885.382Z" fill="#C2C2C2"/>
<path d="M1274.02 1067.69C1285.38 1071.29 1296.97 1074.94 1308.9 1074.85C1320.82 1074.77 1333.34 1070.34 1340.27 1060.65C1348.54 1049.1 1346.94 1032.71 1340.1 1020.26C1333.27 1007.81 1322.1 998.423 1311.19 989.336C1298.51 1014.91 1286.77 1040.95 1274.02 1067.69Z" fill="#C2C2C2"/>
<path d="M636.436 1262.97C650.526 1239.82 672.24 1221.41 697.374 1211.29C722.509 1201.17 750.924 1199.4 777.121 1206.32C762.822 1233.25 756.681 1264.44 759.703 1294.78C759.975 1297.51 759.933 1300.98 757.439 1302.13C756.022 1302.78 754.366 1302.35 752.869 1301.91C714.606 1290.62 676.342 1279.33 636.436 1262.97Z" fill="#C2C2C2"/>
<path d="M880.667 1229.52C917.664 1244.38 944.944 1280.99 948.596 1320.69C915.846 1321.91 882.991 1320.27 850.525 1315.8C854.767 1301.46 853.737 1286.16 855.244 1271.29C856.752 1256.41 861.707 1240.55 880.667 1229.52Z" fill="#C2C2C2"/>
<path d="M788.002 1204.34C795.559 1189.36 803.479 1173.92 816.481 1163.32C821.34 1159.36 827.477 1156.04 833.631 1157.24C839.054 1158.3 843.317 1162.75 845.603 1167.78C847.888 1172.81 848.52 1178.41 849.123 1183.9C850.521 1196.64 851.919 1209.38 853.317 1222.11C853.604 1224.73 853.759 1227.74 851.889 1229.59C850.101 1231.35 847.241 1231.27 844.743 1230.98C824.235 1228.63 804.423 1220.49 788.002 1204.34Z" fill="#C2C2C2"/>
<path d="M1252.4 1266.87C1260.35 1242.87 1277.87 1222.19 1300.23 1210.39C1322.59 1198.6 1349.55 1195.82 1373.85 1202.8C1377.53 1203.86 1381.27 1205.21 1383.98 1207.91C1386.68 1210.62 1388.04 1215.01 1386.22 1218.37C1384.92 1220.76 1382.36 1222.15 1379.93 1223.38C1343.38 1241.97 1304.82 1256.62 1252.4 1266.87Z" fill="#C2C2C2"/>
<path d="M1098.34 767.559C1096.83 767.559 1095.34 766.882 1094.36 765.594C1092.68 763.4 1093.1 760.262 1095.3 758.585C1112.22 745.655 1134.76 740.574 1155.6 745.003C1158.3 745.577 1160.03 748.231 1159.45 750.933C1158.88 753.634 1156.22 755.357 1153.52 754.785C1135.5 750.955 1116.01 755.349 1101.37 766.532C1100.46 767.224 1099.4 767.559 1098.34 767.559Z" fill="#C2C2C2"/>
<path d="M1143.1 792.883C1141.97 792.883 1140.83 792.501 1139.89 791.718C1131.59 784.77 1118.26 784.362 1109.54 790.788C1107.32 792.426 1104.19 791.953 1102.55 789.732C1100.91 787.509 1101.38 784.379 1103.61 782.74C1116.07 773.548 1134.43 774.11 1146.31 784.048C1148.43 785.82 1148.71 788.973 1146.94 791.091C1145.95 792.273 1144.53 792.883 1143.1 792.883Z" fill="#C2C2C2"/>
<path d="M977.521 788.008C976.554 788.008 975.577 787.728 974.716 787.144C960.802 777.694 941.795 775.802 926.292 782.323C923.749 783.392 920.815 782.198 919.745 779.653C918.674 777.107 919.87 774.176 922.415 773.105C940.96 765.306 963.695 767.569 980.335 778.871C982.619 780.423 983.212 783.532 981.661 785.817C980.693 787.241 979.122 788.008 977.521 788.008Z" fill="#C2C2C2"/>
<path d="M937.097 815.969C935.868 815.969 934.636 815.519 933.671 814.61C931.661 812.718 931.564 809.553 933.457 807.542C942.407 798.032 955.534 792.709 968.584 793.296C971.343 793.421 973.478 795.758 973.354 798.517C973.229 801.275 970.895 803.401 968.133 803.286C957.959 802.815 947.719 806.979 940.739 814.396C939.755 815.441 938.428 815.969 937.097 815.969Z" fill="#C2C2C2"/>
<path d="M498.036 1184.46C498.036 1184.46 500.561 1182.37 498.195 1178.53C467.97 1036.04 455.439 887.704 483.535 744.779C511.63 601.855 583.291 464.251 691.144 384.28C772.767 323.227 872.15 286.215 973.826 279.006C1075.5 271.797 1179.11 294.416 1264.61 343.575C1353.1 393.995 1416.34 480.797 1456.77 574.279C1497.2 667.76 1517.04 768.613 1536.61 868.566C1547.75 925.5 1558.9 982.434 1570.04 1039.37C1565.31 922.633 1556.47 805.28 1527.05 692.214C1497.62 579.148 1446.5 469.793 1365.96 385.156C1285.42 300.518 1173.43 242.523 1056.43 239.606C968.424 241.006 879.535 249.608 796.436 278.614C713.337 307.619 635.896 358.496 581.753 438.966C467.438 571.533 411.777 752.929 432.991 925.436C435.463 969.304 439.444 1013.09 444.923 1056.68C448.142 1082.29 451.925 1108.03 460.494 1132.38C469.064 1156.73 481.775 1191.83 498.036 1184.46Z" fill="white"/>
<path d="M1139.08 288.02C1099.34 272.316 1055.35 267.533 1013.16 274.327C1001.8 276.157 990.219 278.967 980.973 285.812C971.726 292.657 965.305 304.398 967.709 315.648C970.358 328.043 982.265 336.025 993.661 341.573C1032.04 360.253 1076.38 366.431 1118.4 358.951C1135.79 355.854 1155.14 348.297 1160.67 331.512C1164.12 321.029 1160.92 309.054 1153.97 300.481C1147.02 291.909 1136.76 286.482 1139.08 288.02Z" fill="white"/>
<path d="M928.868 328.784C909.535 320.528 886.623 321.121 867.744 330.368C858.934 334.682 850.371 341.82 849.069 351.542C847.7 361.762 855.181 371.575 864.497 375.994C873.814 380.413 884.544 380.536 894.841 379.989C905.238 379.437 915.937 378.187 925.016 373.089C934.095 367.991 941.228 358.188 940.317 347.816C939.406 337.443 928.199 328.38 928.868 328.784Z" fill="white"/>
<path d="M346.612 1319.35C346.612 1300.02 363.401 1284.35 384.112 1284.35C404.823 1284.35 421.612 1300.02 421.612 1319.35C421.612 1338.68 404.823 1354.35 384.112 1354.35C363.401 1354.35 346.612 1338.68 346.612 1319.35Z" fill="#FFE07D"/>
<path d="M499.612 1416.35C499.612 1397.02 516.401 1381.35 537.112 1381.35C557.823 1381.35 574.612 1397.02 574.612 1416.35C574.612 1435.68 557.823 1451.35 537.112 1451.35C516.401 1451.35 499.612 1435.68 499.612 1416.35Z" fill="#FFE07D"/>
<path d="M681.612 1459.35C681.612 1440.02 698.401 1424.35 719.112 1424.35C739.823 1424.35 756.612 1440.02 756.612 1459.35C756.612 1478.68 739.823 1494.35 719.112 1494.35C698.401 1494.35 681.612 1478.68 681.612 1459.35Z" fill="#FFE07D"/>
<path d="M913.612 1483.35C913.612 1464.02 930.401 1448.35 951.112 1448.35C971.823 1448.35 988.612 1464.02 988.612 1483.35C988.612 1502.68 971.823 1518.35 951.112 1518.35C930.401 1518.35 913.612 1502.68 913.612 1483.35Z" fill="#FFE07D"/>
<path d="M1133.61 1470.35C1133.61 1453.78 1150.4 1440.35 1171.11 1440.35C1191.82 1440.35 1208.61 1453.78 1208.61 1470.35C1208.61 1486.92 1191.82 1500.35 1171.11 1500.35C1150.4 1500.35 1133.61 1486.92 1133.61 1470.35Z" fill="#FFE07D"/>
<path d="M1347.61 1408.35C1347.61 1391.78 1364.4 1378.35 1385.11 1378.35C1405.82 1378.35 1422.61 1391.78 1422.61 1408.35C1422.61 1424.92 1405.82 1438.35 1385.11 1438.35C1364.4 1438.35 1347.61 1424.92 1347.61 1408.35Z" fill="#FFE07D"/>
<path d="M1513.61 1305.35C1513.61 1292.65 1527.67 1282.35 1545.02 1282.35C1562.37 1282.35 1576.43 1292.65 1576.43 1305.35C1576.43 1318.05 1562.37 1328.35 1545.02 1328.35C1527.67 1328.35 1513.61 1318.05 1513.61 1305.35Z" fill="#FFE07D"/>
<path d="M1615.61 1197.35C1615.61 1189.07 1625.46 1182.35 1637.61 1182.35C1649.76 1182.35 1659.61 1189.07 1659.61 1197.35C1659.61 1205.64 1649.76 1212.35 1637.61 1212.35C1625.46 1212.35 1615.61 1205.64 1615.61 1197.35Z" fill="#FFE07D"/>
<path d="M1641.61 1097.85C1641.61 1093.71 1647.88 1090.35 1655.61 1090.35C1663.34 1090.35 1669.61 1093.71 1669.61 1097.85C1669.61 1101.99 1663.34 1105.35 1655.61 1105.35C1647.88 1105.35 1641.61 1101.99 1641.61 1097.85Z" fill="#FFE07D"/>
<path d="M1593.11 1045.6C1593.11 1042.98 1597.92 1040.85 1603.86 1040.85C1609.8 1040.85 1614.61 1042.98 1614.61 1045.6C1614.61 1048.22 1609.8 1050.35 1603.86 1050.35C1597.92 1050.35 1593.11 1048.22 1593.11 1045.6Z" fill="#FFE07D"/>
<path d="M364.612 1194.35C364.612 1187.72 372.671 1182.35 382.612 1182.35C392.553 1182.35 400.612 1187.72 400.612 1194.35C400.612 1200.98 392.553 1206.35 382.612 1206.35C372.671 1206.35 364.612 1200.98 364.612 1194.35Z" fill="#FFE07D"/>
<path d="M408.612 1134.85C408.612 1131.81 412.977 1129.35 418.362 1129.35C423.747 1129.35 428.112 1131.81 428.112 1134.85C428.112 1137.89 423.747 1140.35 418.362 1140.35C412.977 1140.35 408.612 1137.89 408.612 1134.85Z" fill="#FFE07D"/>
<path d="M1576.26 1024.67C1602.37 1030.74 1628.55 1040.32 1649.03 1057.62C1668.91 1074.41 1680.17 1096.8 1683.94 1122.55C1687.71 1148.3 1684.26 1174.71 1677.64 1196.74C1648.46 1293.88 1566.67 1360.43 1478.4 1417.78C1418.1 1460.66 1349.48 1490.75 1279.02 1513.31C1208.56 1535.87 1136 1551.13 1063.59 1566.34C1111.14 1578.97 1161.31 1565.53 1208.5 1551.61C1318.93 1519.04 1430.19 1482.65 1524.06 1414.82C1564.26 1382.01 1604.73 1348.93 1638.01 1309.11C1671.29 1269.29 1697.31 1221.85 1703.83 1170.37C1706.45 1149.7 1705.86 1128.42 1699.94 1108.45C1691.65 1080.5 1673 1056.09 1649.38 1038.99C1625.76 1021.9 1597.38 1011.92 1568.45 1008.29C1568.32 1012.26 1568.18 1016.22 1576.26 1024.67Z" fill="#FFE07D"/>
<path d="M1302.12 1507C1036.31 1581.4 748.532 1575.29 492.111 1487.15C439.414 1474.35 391.429 1442.96 358.576 1399.82C325.724 1356.67 308.236 1302.07 309.912 1247.86C293.986 1289.92 299.09 1338.26 318.35 1378.9C337.611 1419.54 370.037 1452.94 406.936 1478.65C443.835 1504.37 485.231 1522.89 532.686 1534.72C665.87 1574.87 807.352 1587.28 946.302 1574.2C1005.36 1587.76 1067.22 1585.05 1126.82 1574.13C1186.42 1563.21 1244.22 1544.28 1302.12 1507Z" fill="#FFE07D"/>
<path d="M459.562 1144C446.034 1154.46 440.856 1173.28 443.464 1190.18C446.073 1207.08 455.381 1222.26 466.37 1235.37C503.589 1279.75 559.582 1303.55 614.79 1321.08C720.231 1354.55 831.09 1370.9 942.781 1365.3C1052.11 1368.52 1162.49 1359.69 1267.69 1329.75C1372.9 1299.81 1472.98 1248.12 1552.08 1172.58C1566.22 1159.07 1579.9 1144.5 1588.18 1126.78C1596.45 1109.06 1598.64 1087.56 1589.74 1070.15C1601.66 1082.86 1614.33 1097.36 1614.35 1114.79C1614.38 1131.73 1602.42 1146.03 1591.12 1158.66C1550.25 1204.35 1508.79 1250.56 1457.71 1284.45C1411.81 1314.91 1359.61 1334.41 1307.33 1351.77C1251.96 1370.16 1195.62 1386.51 1137.78 1394.18C1077.81 1402.14 1016.59 1400.64 964.255 1388.56C809.137 1403.9 647.388 1381.47 511.542 1305.03C489.613 1292.69 468.147 1278.77 451.449 1259.94C434.751 1241.12 423.115 1216.77 423.811 1191.62C424.508 1166.47 439.301 1141.08 459.562 1144Z" fill="white"/>
<path d="M1385.56 1557.46C1352.7 1594.74 1305.23 1615.62 1258.01 1631.1C1100.86 1682.61 928.187 1685.64 769.328 1639.67C823.617 1668.8 884.928 1683.24 946.36 1687.9C1007.79 1692.55 1069.57 1687.7 1130.7 1680.02C1182.97 1673.45 1235.51 1664.67 1284.28 1644.73C1333.04 1624.78 1378.22 1592.72 1385.56 1557.46Z" fill="white"/>
<path d="M746.212 1688.9C777.57 1699.99 814.399 1694.04 840.667 1673.64C848.466 1677.32 856.265 1681.01 864.064 1684.7C848.84 1700.53 825.911 1707.29 803.959 1706.64C782.006 1706 760.781 1698.69 746.212 1688.9Z" fill="#FFE07D"/>
<path d="M1171.86 1682.21C1157.76 1711.88 1132.07 1735.84 1101.49 1747.85C1123.41 1747.2 1145.06 1739.32 1162.27 1725.73C1179.48 1712.14 1192.16 1692.91 1197.88 1671.74C1187.42 1672.1 1176.58 1672.28 1171.86 1682.21Z" fill="#FFE07D"/>
<path d="M1331.86 1618.66C1357.86 1624.78 1385.53 1623.64 1410.94 1615.4C1399.75 1627.97 1384.11 1636.52 1367.48 1639.15C1350.85 1641.79 1333.34 1638.5 1318.8 1630C1321.99 1624.49 1326.55 1617.41 1331.86 1618.66Z" fill="#FFE07D"/>
<path d="M1384.3 1611.08C1378.05 1610.22 1369.15 1609.51 1361.94 1611.77C1360.06 1612.36 1358.06 1613.22 1357.17 1614.97C1356.2 1616.87 1356.9 1619.29 1358.35 1620.85C1359.79 1622.41 1361.84 1623.26 1363.87 1623.89C1368.21 1625.22 1372.8 1625.73 1377.33 1625.38C1380.49 1625.13 1383.75 1624.4 1386.23 1622.41C1388.71 1620.42 1390.18 1616.92 1389.04 1613.95C1387.9 1610.99 1386.02 1611.32 1384.3 1611.08Z" fill="#FFE07D"/>
<path d="M1138.66 1704.15C1133.33 1707.35 1129.73 1708.3 1127.22 1712.34C1124.71 1716.39 1125.53 1722.84 1129.99 1724.52C1132.71 1725.54 1135.73 1724.52 1138.45 1723.5C1142.3 1722.05 1146.27 1720.53 1149.17 1717.62C1151.61 1715.16 1153.14 1711.7 1152.85 1708.26C1152.55 1704.81 1150.26 1701.5 1146.97 1700.41C1143.69 1699.32 1141.63 1702.37 1138.66 1704.15Z" fill="#FFE07D"/>
<path d="M805.911 1680.22C803.152 1680.05 800.425 1679.29 797.671 1679.53C794.918 1679.78 792.127 1680.82 790.326 1682.91C788.526 1685.01 787.97 1688.28 789.483 1690.6C791.119 1693.1 794.463 1693.79 797.451 1693.86C802.617 1693.98 807.809 1692.9 812.5 1690.73C814.549 1689.78 816.704 1688.36 817.109 1686.14C817.562 1683.66 815.482 1681.29 813.086 1680.51C810.69 1679.72 808.087 1680.36 805.911 1680.22Z" fill="#FFE07D"/>
<path d="M877.579 1123.24C886.046 1104.76 901.106 1089.38 919.406 1080.54C937.706 1071.69 959.11 1069.44 978.851 1074.28C964.448 1060.67 942.654 1056.33 923.4 1061.01C904.145 1065.69 887.494 1078.59 875.911 1094.67C872.602 1099.26 869.584 1104.35 869.111 1109.99C868.637 1115.63 871.392 1121.88 877.579 1123.24Z" fill="#FF9694"/>
<path d="M1018.07 1312.87C1023.43 1281.15 1040.6 1251.39 1066.02 1231.66C1078.45 1222.01 1092.91 1214.69 1108.39 1211.86C1131.47 1207.63 1155.64 1213.64 1176.1 1225.14C1196.56 1236.64 1213.66 1253.32 1228.82 1271.25C1228.71 1254.52 1219.94 1238.68 1207.75 1227.22C1195.56 1215.77 1180.21 1208.24 1164.57 1202.34C1146.67 1195.59 1127.47 1190.71 1108.52 1193.29C1088.62 1196.01 1070.68 1206.72 1054.84 1219.07C1039.72 1230.86 1025.73 1244.59 1016.43 1261.36C1007.14 1278.13 1002.89 1298.26 1018.07 1312.87Z" fill="#FF9694"/>
<path d="M1186.4 1057.96C1196.04 1045.8 1213.26 1041.81 1228.61 1044.07C1243.95 1046.33 1257.96 1053.81 1271.61 1061.18C1275.18 1057.41 1274.95 1051.16 1272.31 1046.69C1269.66 1042.23 1265.12 1039.24 1260.52 1036.84C1241.5 1026.9 1218.28 1024.66 1198.19 1032.2C1193.3 1034.04 1188.49 1036.53 1185.05 1040.47C1181.61 1044.41 1179.77 1050.04 1186.4 1057.96Z" fill="#FF9694"/>
<path d="M481.523 1152.86C493.567 1176.22 512.426 1196.25 539.152 1214.07C560.765 1228.49 586.714 1241.01 620.812 1253.49C749 1300.41 890.888 1318.75 1031.14 1306.53C1171.39 1294.31 1307.98 1251.72 1426.12 1183.34C1477.87 1153.39 1519.89 1111.67 1551.02 1059.32C1574.71 988.363 1541.74 832.844 1519.9 729.782C1504.11 655.306 1484.26 592.108 1459.2 536.575C1429.63 471.055 1392.21 416.054 1347.98 373.099C1317.54 343.543 1280.36 318.578 1237.46 298.896C1196.63 280.166 1151.62 266.634 1103.67 258.676C1009.47 243.041 911.573 250.118 828.013 278.604C666.124 333.795 550.525 448.568 484.428 619.736C453.913 698.756 438.891 788.462 439.779 886.36C440.586 975.47 455.019 1067.6 481.523 1152.86ZM946.426 1330.21C832.018 1330.21 718.529 1310.55 613.938 1272.27C578.312 1259.23 551.021 1246.03 528.055 1230.71C498.115 1210.74 476.939 1188 463.314 1161.18C463.061 1160.69 462.85 1160.17 462.683 1159.63C435.443 1072.3 420.607 977.868 419.78 886.541C418.869 786.107 434.343 693.917 465.77 612.532C499.084 526.26 545.362 452.889 603.317 394.458C663.359 333.922 736.786 288.575 821.559 259.674C908.189 230.141 1009.54 222.779 1106.95 238.946C1156.64 247.194 1203.36 261.248 1245.8 280.717C1290.77 301.351 1329.84 327.605 1361.91 358.751C1407.96 403.466 1446.82 460.527 1477.43 528.349C1503.08 585.206 1523.38 649.738 1539.46 725.634C1561.87 831.318 1595.72 991.027 1569.61 1066.78C1569.39 1067.42 1569.11 1068.03 1568.77 1068.61C1535.81 1124.37 1491.18 1168.79 1436.14 1200.65C1315.47 1270.48 1176.03 1313.99 1032.88 1326.46C1004.09 1328.96 975.226 1330.21 946.426 1330.21Z" fill="#551E60"/>
<path d="M918.667 1588.31C894.99 1588.31 870.442 1587.92 844.893 1587.15C712.011 1583.1 558.407 1569.19 426.658 1496.71C391.885 1477.58 362.777 1455.57 340.144 1431.3C313.033 1402.22 295.879 1370.47 289.159 1336.92C279.248 1287.45 292.707 1230.78 326.084 1181.44C358.402 1133.67 404.576 1097.82 441.192 1071.92C445.702 1068.73 451.942 1069.8 455.131 1074.31C458.32 1078.82 457.25 1085.06 452.741 1088.25C417.51 1113.17 373.158 1147.55 342.649 1192.65C312.252 1237.58 299.903 1288.73 308.769 1332.99C314.75 1362.85 330.228 1391.34 354.771 1417.66C375.956 1440.38 403.386 1461.08 436.298 1479.18C564.33 1549.62 715 1563.18 845.501 1567.16C926.993 1569.64 998.164 1568.14 1063.08 1562.59C1140.88 1555.93 1210.42 1543.54 1275.65 1524.71C1347.64 1503.92 1414.09 1474.71 1473.15 1437.89C1536.79 1398.21 1590.35 1350.51 1632.33 1296.13C1678.37 1236.49 1698.92 1180 1693.41 1128.23C1690.3 1098.98 1679.5 1076.11 1660.4 1058.29C1641.34 1040.5 1613.2 1027.57 1576.77 1019.85C1571.37 1018.7 1567.92 1013.39 1569.06 1007.99C1570.21 1002.59 1575.52 999.134 1580.92 1000.28C1621.52 1008.89 1651.98 1023.08 1674.04 1043.66C1696.5 1064.61 1709.71 1092.35 1713.3 1126.11C1719.37 1183.18 1697.46 1244.49 1648.16 1308.35C1604.72 1364.62 1549.4 1413.91 1483.73 1454.86C1423.1 1492.66 1354.96 1522.62 1281.2 1543.92C1214.69 1563.12 1143.9 1575.75 1064.78 1582.52C1019.49 1586.39 971.232 1588.31 918.667 1588.31Z" fill="#551E60"/>
<path d="M982.065 1405.31C928.724 1405.31 872.413 1402.34 811.003 1396.32C738.203 1389.17 680.947 1379.04 630.814 1364.43C565.712 1345.45 512.613 1318.93 468.484 1283.35C437.194 1258.12 420.319 1233.99 415.38 1207.41C411.88 1188.58 416.823 1167.22 428.281 1151.67C437.709 1138.88 450.798 1130.91 465.136 1129.22C470.623 1128.58 475.59 1132.5 476.234 1137.99C476.878 1143.47 472.953 1148.44 467.468 1149.08C456.215 1150.41 448.703 1157.67 444.381 1163.54C436.1 1174.78 432.521 1190.19 435.043 1203.75C439.06 1225.38 453.675 1245.72 481.037 1267.78C523.07 1301.67 573.894 1327 636.411 1345.23C685.323 1359.48 741.422 1369.39 812.956 1376.41C887.033 1383.68 953.552 1386.45 1016.32 1384.89C1088.68 1383.09 1154.4 1375.62 1217.23 1362.07C1359.84 1331.3 1482.24 1268.3 1571.21 1179.86C1588.53 1162.64 1606.63 1141.76 1609.49 1117.46C1610.59 1108.13 1605.5 1096.15 1596.21 1086.19C1586.48 1075.74 1574.22 1069.53 1564.25 1070.02C1558.73 1070.25 1554.05 1066.02 1553.79 1060.51C1553.53 1054.99 1557.79 1050.31 1563.3 1050.04C1579.26 1049.31 1597 1057.71 1610.84 1072.55C1624.22 1086.9 1631.14 1104.56 1629.35 1119.79C1625.77 1150.2 1605.08 1174.39 1585.31 1194.04C1493.63 1285.18 1367.8 1350.04 1221.45 1381.62C1157.38 1395.44 1090.44 1403.05 1016.82 1404.88C1005.36 1405.17 993.783 1405.31 982.065 1405.31Z" fill="#551E60"/>
<path d="M934.923 1639.04C901.941 1639.04 868.163 1638.08 833.604 1636.17C714.326 1629.55 611.723 1610.38 528.644 1579.18C461.627 1554.01 406.998 1520.97 366.275 1480.98C295.913 1411.88 291.438 1346.39 291.282 1343.63C290.97 1338.12 295.187 1333.39 300.701 1333.08C306.2 1332.78 310.92 1336.97 311.249 1342.47C311.268 1342.76 312.367 1358.11 321.495 1381.05C329.958 1402.32 347.261 1434.67 381.638 1468.02C420.522 1505.75 472.846 1537.04 537.158 1561.01C618.069 1591.17 718.18 1609.73 834.712 1616.2C1012.52 1626.06 1169.33 1610.25 1300.79 1569.2C1413.33 1534.07 1505.29 1481.38 1574.1 1412.6C1616.8 1369.92 1648.97 1322.6 1669.72 1271.93C1688.21 1226.77 1696.74 1180.26 1694.39 1137.41C1694.09 1131.89 1698.31 1127.18 1703.83 1126.87C1709.34 1126.6 1714.06 1130.8 1714.36 1136.31C1716.88 1182.1 1707.84 1231.62 1688.23 1279.51C1666.47 1332.65 1632.83 1382.18 1588.24 1426.74C1517.12 1497.83 1422.41 1552.19 1306.75 1588.29C1198.65 1622.04 1073.92 1639.04 934.923 1639.04Z" fill="#551E60"/>
<path d="M1002.67 1703.77C978.591 1703.77 955.331 1702.6 933.013 1700.24C891.197 1695.83 852.554 1687.3 818.156 1674.88C758.823 1653.45 732.565 1627.86 731.476 1626.78C727.552 1622.9 727.523 1616.57 731.41 1612.64C735.289 1608.73 741.603 1608.69 745.529 1612.55C745.774 1612.79 770.643 1636.72 826.437 1656.6C920.072 1689.97 1027.13 1686.48 1100.45 1677.67C1173.62 1668.89 1275.32 1647.63 1344.32 1596.21C1385.14 1565.8 1395.19 1538.84 1395.28 1538.57C1397.08 1533.34 1402.76 1530.6 1407.98 1532.4C1413.2 1534.2 1415.97 1539.92 1414.17 1545.14C1413.73 1546.42 1402.85 1576.92 1358.16 1610.83C1332.53 1630.28 1300.78 1647.11 1263.78 1660.85C1217.94 1677.87 1163.79 1690.21 1102.83 1697.53C1068.19 1701.69 1034.71 1703.77 1002.67 1703.77Z" fill="#551E60"/>
<path d="M855.567 1241.79C847.271 1241.79 838.668 1240.68 830.284 1238.48C789.813 1227.87 753.822 1200 732.675 1163.83L721.819 1182.73C719.658 1186.5 715.313 1188.44 711.067 1187.54C706.82 1186.63 703.641 1183.09 703.199 1178.78L698.347 1131.43C697.784 1125.93 701.782 1121.02 707.275 1120.46C712.777 1119.9 717.68 1123.9 718.243 1129.39L719.93 1145.86L724.574 1137.77C726.464 1134.48 730.054 1132.55 733.844 1132.76C737.633 1132.99 740.967 1135.34 742.451 1138.84C758.945 1177.67 794.544 1208.44 835.355 1219.14C864.86 1226.87 884.999 1217.39 891.228 1205.32C895.682 1196.68 895.147 1184.51 889.76 1171.91C886.308 1163.83 881.465 1156.3 876.338 1148.32C873.71 1144.23 870.992 1140.01 868.449 1135.66C849.569 1103.39 840.974 1065.11 844.247 1027.87C844.73 1022.37 849.584 1018.32 855.083 1018.78C860.585 1019.27 864.653 1024.12 864.169 1029.62C861.257 1062.77 868.907 1096.84 885.711 1125.56C888.043 1129.55 890.529 1133.41 893.161 1137.51C898.508 1145.83 904.038 1154.43 908.15 1164.04C912.698 1174.68 918.857 1195.38 909.003 1214.49C902.309 1227.46 890.011 1236.26 873.439 1239.92C867.801 1241.17 861.77 1241.79 855.567 1241.79Z" fill="#551E60"/>
<path d="M1315.76 1171.66C1296.77 1171.66 1279.27 1165.15 1267.66 1153.23C1247.32 1132.32 1247.9 1100.37 1255.23 1077.45C1260.22 1061.83 1268.16 1047.71 1275.83 1034.05C1279.6 1027.35 1283.49 1020.42 1286.88 1013.56C1298.51 989.997 1301.67 969.885 1296.27 953.78C1294.51 948.544 1297.33 942.874 1302.57 941.117C1307.8 939.362 1313.47 942.181 1315.23 947.415C1322.37 968.71 1318.87 993.943 1304.82 1022.41C1301.19 1029.76 1297.16 1036.92 1293.26 1043.85C1285.75 1057.22 1278.65 1069.85 1274.28 1083.54C1265.8 1110.07 1272.7 1129.73 1282 1139.28C1294.47 1152.1 1314.7 1153.33 1329.48 1150.21C1355.84 1144.64 1375.65 1126.97 1387.62 1113.13C1403.84 1094.38 1415.59 1071.75 1425.88 1050.09C1427.51 1046.64 1430.97 1044.43 1434.78 1044.38C1438.59 1044.33 1442.11 1046.45 1443.83 1049.85L1454.41 1070.71C1459.36 1062.07 1463.04 1052.69 1465.25 1043C1466.47 1037.61 1471.82 1034.23 1477.22 1035.46C1482.6 1036.68 1485.98 1042.04 1484.75 1047.43C1480.69 1065.31 1472.43 1082.3 1460.87 1096.54C1458.74 1099.17 1455.42 1100.55 1452.05 1100.18C1448.68 1099.83 1445.72 1097.79 1444.19 1094.77L1435.04 1076.73C1426.17 1093.9 1415.9 1111.02 1402.75 1126.22C1388.76 1142.38 1365.42 1163.05 1333.62 1169.77C1327.61 1171.04 1321.61 1171.66 1315.76 1171.66Z" fill="#551E60"/>
<path d="M908.226 1185.67C906.171 1185.67 904.098 1185.03 902.315 1183.72C897.864 1180.46 896.905 1174.2 900.175 1169.75C916.779 1147.14 935.706 1126.09 956.431 1107.19C963.77 1100.5 972.089 1092.92 972.269 1085.08C972.382 1080.2 968.921 1074.77 963.658 1071.58C958.476 1068.43 951.473 1066.92 942.831 1067.11C917.043 1067.64 892.305 1082.57 879.807 1105.13C877.131 1109.96 871.045 1111.71 866.214 1109.03C861.382 1106.36 859.635 1100.27 862.311 1095.44C878.196 1066.76 909.639 1047.79 942.416 1047.11C954.914 1046.86 965.552 1049.33 974.034 1054.48C985.559 1061.47 992.544 1073.38 992.265 1085.54C991.887 1101.93 979.182 1113.51 969.907 1121.97C950.156 1139.98 932.118 1160.04 916.294 1181.58C914.334 1184.25 911.301 1185.67 908.226 1185.67Z" fill="#551E60"/>
<path d="M853.372 1323.01C848.397 1323.01 844.088 1319.31 843.46 1314.24C839.614 1283.2 847.103 1250.29 864.01 1223.96C866.994 1219.32 873.181 1217.97 877.828 1220.95C882.474 1223.94 883.822 1230.12 880.838 1234.77C866.416 1257.23 860.027 1285.3 863.309 1311.78C863.988 1317.26 860.095 1322.26 854.614 1322.94C854.197 1322.99 853.782 1323.01 853.372 1323.01Z" fill="#551E60"/>
<path d="M758.367 1300.75C752.907 1300.75 748.445 1296.36 748.371 1290.88C747.937 1258.6 755.507 1226.35 770.263 1197.63C772.787 1192.72 778.817 1190.79 783.728 1193.31C788.64 1195.83 790.576 1201.86 788.052 1206.77C774.785 1232.59 767.979 1261.58 768.369 1290.61C768.443 1296.13 764.027 1300.67 758.504 1300.75C758.459 1300.75 758.412 1300.75 758.367 1300.75Z" fill="#551E60"/>
<path d="M1257.07 1115.64C1255.22 1115.64 1253.36 1115.13 1251.69 1114.06C1244.38 1109.38 1235.86 1106.39 1226.84 1103.21C1223.69 1102.11 1220.44 1100.96 1217.23 1099.74C1206.02 1095.46 1190.02 1088.12 1180.57 1073.78C1175.84 1066.61 1173.35 1057.54 1173.74 1048.91C1174.19 1039.06 1178.21 1030.45 1185.07 1024.67C1194.26 1016.93 1206.2 1015.87 1214.38 1015.74C1239.55 1015.34 1264.95 1022.88 1285.86 1036.94C1290.44 1040.02 1291.66 1046.23 1288.58 1050.82C1285.5 1055.4 1279.28 1056.61 1274.7 1053.53C1257.15 1041.73 1235.84 1035.37 1214.69 1035.74C1206.55 1035.86 1201.24 1037.21 1197.96 1039.97C1192 1044.99 1192.81 1056.02 1197.26 1062.78C1203.54 1072.29 1215.73 1077.76 1224.35 1081.05C1227.32 1082.18 1230.31 1083.23 1233.47 1084.35C1243.17 1087.76 1253.21 1091.29 1262.47 1097.22C1267.12 1100.2 1268.48 1106.38 1265.5 1111.03C1263.59 1114.02 1260.37 1115.64 1257.07 1115.64Z" fill="#551E60"/>
<path d="M1384.31 1219.18C1380.91 1219.18 1377.6 1217.45 1375.73 1214.33C1368.34 1202.05 1359.24 1191.32 1349.6 1179.96C1344.8 1174.3 1339.83 1168.45 1335.12 1162.41C1331.72 1158.06 1332.49 1151.77 1336.85 1148.37C1341.2 1144.98 1347.48 1145.75 1350.88 1150.11C1355.35 1155.82 1360.18 1161.52 1364.85 1167.02C1374.58 1178.49 1384.64 1190.35 1392.87 1204.02C1395.71 1208.76 1394.18 1214.9 1389.45 1217.75C1387.84 1218.72 1386.06 1219.18 1384.31 1219.18Z" fill="#551E60"/>
<path d="M1067.75 1318.68C1062.33 1318.68 1057.87 1314.34 1057.76 1308.9C1057.42 1293.4 1062.99 1277.83 1073.43 1265.05C1083.88 1252.27 1098.03 1243.71 1113.27 1240.95C1128.53 1238.19 1144.78 1241.25 1159.04 1249.56C1173.3 1257.87 1183.97 1270.5 1189.09 1285.13C1190.91 1290.34 1188.16 1296.05 1182.95 1297.87C1177.73 1299.69 1172.03 1296.94 1170.21 1291.73C1162.94 1270.95 1138.5 1256.71 1116.84 1260.63C1094.8 1264.62 1077.27 1286.07 1077.75 1308.46C1077.87 1313.98 1073.49 1318.56 1067.97 1318.68C1067.9 1318.68 1067.82 1318.68 1067.75 1318.68Z" fill="#551E60"/>
<path d="M815.342 645.049C815.666 628.792 822.949 612.788 834.993 601.864C847.038 590.94 863.673 585.249 879.885 586.508C888.094 587.146 896.551 589.73 902.186 595.733C907.821 601.735 909.673 611.725 904.755 618.328C900.865 623.552 893.92 625.521 887.416 625.869C880.912 626.217 874.344 625.29 867.899 626.234C859.385 627.481 851.415 632.111 846.114 638.889C843.126 642.711 840.981 647.142 837.93 650.914C834.879 654.686 830.531 657.883 825.681 657.799C820.83 657.715 815.181 653.117 815.342 645.049Z" fill="#551E60"/>
<path d="M1196.83 561.8C1188.12 548.067 1173.59 538.16 1157.63 535.064C1141.67 531.969 1124.49 535.73 1111.28 545.213C1104.59 550.014 1098.7 556.609 1097 564.663C1095.29 572.718 1098.89 582.22 1106.52 585.316C1112.55 587.765 1119.51 585.848 1125.25 582.773C1130.99 579.698 1136.13 575.499 1142.13 572.965C1150.06 569.617 1159.27 569.443 1167.32 572.49C1171.86 574.207 1175.99 576.884 1180.55 578.528C1185.12 580.171 1190.49 580.65 1194.6 578.063C1198.7 575.476 1201.15 568.615 1196.83 561.8Z" fill="#551E60"/>
<path d="M1443.75 1193.12C1439.36 1193.12 1435.34 1190.2 1434.12 1185.76C1427.45 1161.51 1413.08 1139.34 1393.65 1123.35C1389.39 1119.85 1388.77 1113.54 1392.28 1109.28C1395.79 1105.01 1402.09 1104.4 1406.36 1107.91C1428.94 1126.5 1445.65 1152.26 1453.4 1180.47C1454.86 1185.79 1451.73 1191.3 1446.41 1192.76C1445.52 1193 1444.63 1193.12 1443.75 1193.12Z" fill="#551E60"/>
<path d="M1009.69 1318.91C1004.25 1318.91 999.792 1314.55 999.695 1309.09C998.666 1250.46 1044.86 1194.77 1102.67 1184.94C1160.46 1175.11 1222.48 1212.41 1240.88 1268.09C1242.61 1273.33 1239.77 1278.99 1234.52 1280.72C1229.28 1282.45 1223.62 1279.61 1221.89 1274.37C1214.47 1251.92 1198.27 1232.26 1176.28 1219.03C1154.28 1205.8 1129.33 1200.7 1106.02 1204.66C1082.71 1208.62 1060.85 1221.68 1044.46 1241.44C1028.07 1261.2 1019.28 1285.1 1019.69 1308.74C1019.79 1314.26 1015.39 1318.81 1009.87 1318.91C1009.81 1318.91 1009.75 1318.91 1009.69 1318.91Z" fill="#551E60"/>
<path d="M803.896 1720.31C788.502 1720.31 773.103 1717.22 758.878 1710.9C722.47 1694.73 696.565 1658.64 692.885 1618.97C692.375 1613.47 696.419 1608.6 701.918 1608.09C707.416 1607.58 712.289 1611.62 712.799 1617.12C715.775 1649.2 737.556 1679.54 766.998 1692.62C796.441 1705.7 833.555 1701.52 859.354 1682.23C863.777 1678.92 870.044 1679.83 873.351 1684.25C876.659 1688.67 875.755 1694.94 871.333 1698.25C851.893 1712.78 827.904 1720.31 803.896 1720.31Z" fill="#551E60"/>
<path d="M1093.93 1764.81C1050.93 1764.81 1008.27 1740.06 987.681 1702.21C985.042 1697.35 986.835 1691.28 991.687 1688.64C996.538 1686 1002.61 1687.8 1005.25 1692.65C1023.72 1726.61 1063.53 1747.91 1102.02 1744.44C1140.53 1740.98 1175.88 1712.92 1187.99 1676.21C1189.72 1670.96 1195.38 1668.11 1200.62 1669.84C1205.87 1671.57 1208.72 1677.23 1206.99 1682.47C1192.45 1726.53 1150.02 1760.21 1103.81 1764.36C1100.53 1764.66 1097.23 1764.81 1093.93 1764.81Z" fill="#551E60"/>
<path d="M1358.95 1653.29C1342.33 1653.29 1326.02 1648.95 1312.38 1640.82C1307.64 1637.99 1306.09 1631.85 1308.92 1627.11C1311.75 1622.37 1317.88 1620.82 1322.63 1623.64C1347.41 1638.43 1381.69 1636 1404.15 1617.88C1426.6 1599.76 1436.21 1566.76 1426.99 1539.41C1425.23 1534.18 1428.04 1528.51 1433.28 1526.74C1438.51 1524.98 1444.18 1527.79 1445.95 1533.03C1451.7 1550.1 1451.95 1569.51 1446.65 1587.7C1441.36 1605.88 1430.72 1622.13 1416.71 1633.44C1402.69 1644.75 1384.57 1651.72 1365.67 1653.05C1363.43 1653.21 1361.19 1653.29 1358.95 1653.29Z" fill="#551E60"/>
<path d="M524.708 1217.27C524.054 1217.27 523.391 1217.2 522.725 1217.07C517.311 1215.98 513.804 1210.71 514.894 1205.29C532.726 1116.66 562.01 1030.89 602.051 949.934C597.751 952.027 593.647 954.217 589.454 956.455C585.814 958.4 581.353 957.905 578.224 955.215C575.095 952.524 573.94 948.187 575.318 944.297C588.246 907.774 598.154 870.04 604.859 831.838C599.602 834.959 594.657 837.753 589.791 840.502C586.144 842.562 581.594 842.135 578.399 839.426C575.205 836.716 574.031 832.306 575.468 828.371C592.794 780.926 601.845 729.38 610.598 679.53C622.905 609.442 635.63 536.967 671.516 473.655C679.922 458.824 693.677 438.558 715.982 433.809C735.915 429.566 754.737 439.142 772.107 450.122C802.953 469.619 829.466 488.661 851.032 506.801C890.147 485.168 932.151 470.88 975.996 464.305C1021.2 457.526 1066.11 459.324 1109.61 469.643C1115.94 459.578 1120.99 448.616 1126.29 437.118C1131.54 425.703 1136.98 413.9 1143.88 402.813C1152.34 389.209 1163.61 377.392 1175.6 369.538C1190.17 360 1205.79 356.162 1220.79 358.443C1245.91 362.261 1264.21 382.043 1278.8 400.891C1347.79 489.996 1394.38 595.79 1413.54 706.839C1414.13 710.297 1412.87 713.815 1410.22 716.108C1407.56 718.401 1403.9 719.134 1400.56 718.041C1398.22 717.271 1395.91 716.514 1393.59 715.798C1406.11 748.043 1423.51 777.962 1445.43 804.944C1447.87 807.944 1448.36 812.08 1446.69 815.567C1445.03 819.04 1441.52 821.249 1437.67 821.25H1437.63C1430.92 821.217 1424.84 821.195 1417.04 823.393C1479.46 892.335 1528.88 974.487 1560.4 1061.85C1562.27 1067.05 1559.58 1072.78 1554.38 1074.65C1549.19 1076.53 1543.46 1073.84 1541.58 1068.64C1509.33 979.222 1457.78 895.428 1392.51 826.317C1390.32 824.004 1389.37 820.79 1389.94 817.66C1390.51 814.53 1392.53 811.858 1395.39 810.463C1404.36 806.088 1411.84 803.781 1418.38 802.568C1396.76 772.864 1380.01 740.144 1368.51 705.065C1367.43 701.785 1368.13 698.182 1370.34 695.534C1372.56 692.885 1375.98 691.568 1379.4 692.046C1383.5 692.621 1387.29 693.39 1390.87 694.274C1370.69 592.279 1326.66 495.38 1262.99 413.134C1250.21 396.624 1235.88 380.967 1217.78 378.215C1194.15 374.626 1172.35 394.911 1160.86 413.376C1154.62 423.402 1149.68 434.129 1144.45 445.486C1138.05 459.385 1131.43 473.758 1122.19 486.815C1119.79 490.209 1115.55 491.764 1111.52 490.722C1068.49 479.58 1023.9 477.347 978.962 484.083C935.29 490.633 893.536 505.277 854.86 527.61C851.167 529.745 846.527 529.299 843.305 526.503C821.584 507.652 794.034 487.642 761.421 467.028C748.57 458.905 733.723 450.479 720.147 453.371C705.728 456.441 695.417 472.046 688.916 483.517C654.732 543.826 642.863 611.423 630.296 682.989C622.919 725.001 615.336 768.195 602.752 809.703C605.883 807.739 609.152 805.622 612.631 803.283C615.911 801.078 620.181 801.011 623.528 803.112C626.875 805.212 628.67 809.087 628.11 812.998C622.539 851.918 613.725 890.516 601.852 928.046C607.306 925.728 613.278 923.536 620.078 921.573C623.928 920.461 628.073 921.757 630.604 924.865C633.136 927.973 633.567 932.292 631.7 935.839C586.387 1021.9 553.685 1113.89 534.501 1209.24C533.545 1213.99 529.372 1217.27 524.708 1217.27Z" fill="#551E60"/>
<path d="M850.323 729.922C844.533 702.357 856.928 676.422 878.007 671.994C899.086 667.567 920.867 686.323 926.657 713.889C932.447 741.453 920.053 767.389 898.974 771.816C877.894 776.244 856.113 757.487 850.323 729.922Z" fill="#551E60"/>
<path d="M847.537 701.263C847.537 691.012 855.847 682.702 866.098 682.702C876.349 682.702 884.658 691.012 884.658 701.263C884.658 711.514 876.349 719.825 866.098 719.825C855.847 719.825 847.537 711.514 847.537 701.263Z" fill="white"/>
<path d="M1126.32 674.922C1120.53 647.357 1132.93 621.422 1154.01 616.994C1175.09 612.567 1196.87 631.323 1202.66 658.889C1208.45 686.453 1196.05 712.389 1174.97 716.816C1153.89 721.244 1132.11 702.487 1126.32 674.922Z" fill="#551E60"/>
<path d="M1123.54 646.263C1123.54 636.012 1131.85 627.702 1142.1 627.702C1152.35 627.702 1160.66 636.012 1160.66 646.263C1160.66 656.514 1152.35 664.824 1142.1 664.824C1131.85 664.824 1123.54 656.514 1123.54 646.263Z" fill="white"/>
<path d="M1038.12 794.392C1020.66 796.731 1002.19 787.808 993.171 772.667C987.916 763.847 986.201 751.56 993.057 743.918C998.367 737.999 1007.39 736.659 1015.12 738.545C1022.84 740.432 1029.6 745.001 1036.16 749.486C1039.76 742.609 1043.54 735.504 1049.72 730.8C1055.89 726.097 1065.18 724.524 1071.3 729.296C1077.55 734.173 1078.2 743.444 1076.67 751.228C1072.69 771.47 1057.52 791.796 1038.12 794.392Z" fill="#551E60"/>
<path d="M986.719 892.808C982.946 892.808 979.135 892.493 975.325 891.845C956.118 888.58 937.309 877.185 922.365 859.76C918.769 855.568 919.253 849.255 923.445 845.659C927.638 842.064 933.949 842.546 937.546 846.74C949.457 860.628 964.064 869.644 978.677 872.128C994.565 874.828 1010.95 869.138 1019.45 857.966C1024.98 850.696 1028.13 840.459 1029.07 826.669C1029.86 815.044 1029.12 803.077 1028.35 790.408C1028.07 785.854 1027.78 781.145 1027.56 776.36C1027.3 770.921 1031.45 766.28 1036.88 765.918C1042.3 765.575 1047.04 769.605 1047.51 775.03C1049 792.139 1052.12 814.04 1063.2 831.676C1073.71 848.413 1090.89 858.645 1106.95 857.733C1116.71 857.182 1126.37 852.45 1132.78 845.076C1139.2 837.703 1142.56 827.484 1141.76 817.741C1141.31 812.237 1145.4 807.409 1150.91 806.957C1156.43 806.505 1161.24 810.601 1161.69 816.105C1162.94 831.335 1157.9 846.681 1147.87 858.207C1137.84 869.733 1123.33 876.839 1108.08 877.701C1085.23 878.992 1061.36 865.563 1046.96 843.399C1044.71 854.029 1040.88 862.834 1035.36 870.078C1024.41 884.475 1006.11 892.808 986.719 892.808Z" fill="#551E60"/>
</g>
<defs>
<clipPath id="clip0_1263_202">
<rect width="2000" height="2000" fill="white" transform="translate(0.617188)"/>
</clipPath>
</defs>
</svg>
