<svg width="2000" height="2000" viewBox="0 0 2000 2000" fill="none" xmlns="http://www.w3.org/2000/svg">
    <path fill="#49D2FF" d="M0 0H2000V2000H0z"/>
    <path fill="#FFAD40" d="M1330.13 1170.65C1280.25 1180.98 1237.61 1174.61 1203.17 1149.22C1193.35 1142.02 1184.19 1133.26 1175.74 1122.9L1052.24 979.65L1119.6 962.799C1123.79 961.032 1128.3 959.74 1133.13 958.866C1148.46 956.03 1166.9 957.351 1187.62 960.915C1201.6 963.329 1216.65 966.786 1232.48 970.69C1279.66 982.263 1334 997.88 1389.08 1002.12C1391.47 1007.82 1393.54 1013.72 1395.31 1019.73C1396.46 1023.6 1397.47 1027.57 1398.34 1031.52C1410.72 1088.21 1394.44 1151.58 1330.13 1170.65Z"/>
    <path fill="#FF9343" d="M1330.13 1170.65C1280.25 1180.98 1237.61 1174.61 1203.17 1149.22C1192.7 1122.98 1181.36 1097.11 1169.15 1071.67L1171.08 1064.51C1193.76 1077.93 1219.76 1085.68 1246.09 1086.92C1253.36 1087.26 1260.83 1087.09 1267.59 1084.45C1274.35 1081.81 1280.36 1076.31 1281.91 1069.2C1289.59 1070.57 1297.28 1071.93 1304.96 1073.3C1305.46 1078.82 1306.54 1086.82 1309.08 1096.22C1312.74 1109.75 1314.68 1116.56 1320.31 1118.69C1326.89 1121.17 1335.72 1116.19 1339.96 1110.26C1346.54 1101.07 1344.66 1086 1334.34 1073.75C1339.28 1073.12 1374.15 1068.35 1385.29 1052.65C1386.82 1050.5 1388.07 1048.27 1388.07 1048.27C1392.82 1039.74 1394.62 1029.82 1395.31 1019.74C1395.46 1017.74 1395.57 1015.75 1395.63 1013.75C1396.92 1019.66 1397.81 1025.58 1398.35 1031.53C1410.72 1088.21 1394.44 1151.58 1330.13 1170.65Z"/>
    <path d="M1287.04 1181.43C1239.67 1181.43 1200.8 1163.16 1171.08 1126.81L1047.63 983.632C1046.25 982.03 1045.8 979.83 1046.43 977.815C1047.07 975.799 1048.71 974.26 1050.76 973.745L1117.68 957.001C1150.35 943.54 1199.81 956.069 1257.04 970.56C1297.69 980.859 1343.78 992.529 1389.54 996.049C1391.82 996.224 1393.8 997.662 1394.69 999.774C1412.01 1041.2 1412.69 1088.16 1396.47 1122.34C1383.83 1148.98 1361.49 1167.7 1331.85 1176.49C1331.69 1176.54 1331.53 1176.57 1331.36 1176.61C1315.86 1179.83 1301.08 1181.43 1287.04 1181.43ZM1063.3 983.161L1180.35 1118.92C1180.39 1118.96 1180.42 1119 1180.46 1119.04C1216.34 1162.96 1264.82 1177.92 1328.64 1164.73C1355.12 1156.82 1374.24 1140.8 1385.48 1117.11C1399.82 1086.88 1399.52 1045.34 1384.84 1007.88C1339.3 1003.96 1294.08 992.504 1254.05 982.365C1198.69 968.345 1150.87 956.229 1121.96 968.408C1121.67 968.53 1121.38 968.627 1121.08 968.705L1063.3 983.161Z"
          fill="#000072"/>
    <path d="M1187.62 960.92C1186.3 964.713 1184.7 968.617 1182.76 972.633C1182.76 972.633 1173.95 990.863 1157.5 1006.34C1151.88 1011.62 1146.89 1015.13 1140.65 1017.58C1136.17 1019.32 1132.21 1020.05 1129.42 1020.38L1128.75 1016.9C1108.2 1000.84 1094.31 990.023 1090.18 986.959C1089.57 986.483 1087.38 984.798 1084.51 982.467C1082.64 980.923 1080.81 979.349 1079.07 977.693C1097.59 973.061 1115.42 966.063 1133.13 958.876C1148.46 956.03 1166.9 957.351 1187.62 960.92Z"
          fill="#FF9343"/>
    <path d="M992.406 1318.74C993.843 1373.73 998.177 1406.74 999.783 1443.34C1004.24 1506.29 989.193 1647.14 998.06 1694.19C1002.1 1715.64 1038.12 1730.68 1120.32 1730.68C1166.73 1730.68 1193.45 1718.11 1198.58 1699.76C1209.04 1662.39 1168.14 1644.75 1168.14 1644.75C1168.14 1644.75 1216.8 1494.44 1226.88 1374L992.406 1318.74Z"
          fill="#FFAD40"/>
    <path d="M995.256 1640.1C995.038 1662.61 995.707 1681.71 998.066 1694.19C1002.11 1715.63 1038.13 1730.69 1120.32 1730.69C1166.73 1730.69 1193.46 1718.11 1198.59 1699.78C1209.06 1662.39 1168.14 1644.75 1168.14 1644.75C1168.14 1644.75 1168.2 1644.57 1168.32 1644.22C1171.46 1634.41 1217.17 1490.31 1226.89 1374L992.412 1318.73C993.849 1373.74 998.187 1406.74 999.799 1443.34C1003.07 1489.58 995.804 1577.86 995.256 1640.1Z"
          fill="#FFAD40"/>
    <path d="M1168.34 1644.21C1168.2 1644.56 1168.15 1644.75 1168.15 1644.75C1168.15 1644.75 1196.38 1656.92 1199.94 1682.48C1200.66 1687.68 1200.37 1693.44 1198.59 1699.78C1193.48 1718.12 1166.75 1730.7 1120.32 1730.7C1038.14 1730.7 1002.12 1715.64 998.08 1694.2C995.711 1681.7 995.037 1662.61 995.255 1640.12C995.362 1628.75 995.687 1616.52 996.114 1603.84C998.133 1547.03 1002.5 1481.15 999.803 1443.34C998.186 1406.73 993.853 1373.74 992.426 1318.74L1226.91 1374.01C1225.08 1395.72 1222.03 1418.37 1218.21 1440.97C1204.05 1524.87 1179.64 1607.59 1171.16 1635.14C1169.71 1639.9 1168.71 1643.02 1168.34 1644.21Z"
          fill="#FFAD40"/>
    <path d="M1198.59 1699.78C1193.48 1718.12 1166.75 1730.69 1120.32 1730.69C1038.14 1730.69 1002.12 1715.64 998.08 1694.2C995.712 1681.7 995.037 1662.61 995.255 1640.12C995.362 1628.75 995.687 1616.52 996.114 1603.84L998.725 1601.85C1013.85 1608.99 1029.95 1614.13 1046.4 1617.07C1067.53 1620.84 1089.22 1620.97 1110.57 1618.79C1133.56 1616.42 1156.28 1611.39 1178 1603.46C1176.01 1614.13 1173.21 1624.66 1169.63 1634.9C1170.14 1634.98 1170.65 1635.06 1171.16 1635.14C1169.71 1639.91 1168.71 1643.03 1168.34 1644.22C1168.2 1644.57 1168.15 1644.76 1168.15 1644.76C1168.15 1644.76 1196.38 1656.93 1199.94 1682.49C1200.66 1687.68 1200.37 1693.44 1198.59 1699.78Z"
          fill="#FFF3E9"/>
    <path d="M1198.58 1699.78C1193.47 1718.12 1166.74 1730.69 1120.32 1730.69C1038.15 1730.69 1002.12 1715.64 998.08 1694.2C995.716 1681.71 995.037 1662.61 995.255 1640.1C995.304 1633.74 995.449 1627.11 995.619 1620.27C995.668 1618.57 995.716 1616.84 995.765 1615.11C995.813 1612.94 995.886 1610.75 995.959 1608.56C996.008 1607 996.056 1605.42 996.105 1603.83L996.129 1603.81L998.735 1601.86C1006.86 1605.71 1015.29 1608.98 1023.88 1611.6C1031.29 1613.9 1038.81 1615.72 1046.4 1617.06C1067.53 1620.84 1089.23 1620.99 1110.58 1618.79C1133.56 1616.43 1156.27 1611.39 1178.01 1603.47C1176.02 1614.14 1173.22 1624.66 1169.63 1634.89C1170.14 1634.99 1170.66 1635.06 1171.17 1635.14C1169.71 1639.91 1168.71 1643.03 1168.34 1644.22C1168.2 1644.56 1168.15 1644.76 1168.15 1644.76C1168.15 1644.76 1196.39 1656.94 1199.94 1682.49C1200.06 1683.34 1200.16 1684.22 1200.21 1685.1C1200.5 1689.59 1200.07 1694.49 1198.58 1699.78Z"
          fill="#FFF3E9"/>
    <path d="M1226.9 1373.99C1225.1 1395.72 1222.03 1418.38 1218.2 1440.98C1168.15 1528.6 1047.74 1500.57 1036.23 1543.98C1033.43 1554.53 1026.44 1582.39 1023.89 1611.6C1015.29 1608.97 1006.87 1605.7 998.74 1601.86L996.133 1603.81C998.104 1547.02 1002.49 1481.13 999.807 1443.33C998.177 1406.74 993.843 1373.73 992.406 1318.73L1226.9 1373.99Z"
          fill="#FF9343"/>
    <path d="M999.706 1318.55C1000.48 1360.16 1005 1401.84 1007.11 1443.49C1009.36 1485.55 1006.36 1527.68 1004.8 1569.54C1003.63 1597.35 1002.38 1625.16 1002.54 1652.72C1002.58 1659.61 1002.77 1666.46 1003.14 1673.25C1003.52 1680 1004.11 1686.84 1005.28 1693C1005.76 1695.26 1006.72 1697.41 1008.26 1699.44C1027.05 1721.22 1083.39 1722.48 1111.39 1723.3C1131.31 1723.61 1151.78 1722.96 1170.46 1716.01C1179.9 1712.22 1189.13 1706.98 1191.73 1697.04C1192.06 1695.98 1192.44 1693.82 1192.6 1692.73C1195.19 1677.53 1185.43 1664.06 1173.11 1655.96C1170.73 1654.36 1167.65 1652.54 1165.17 1651.42C1161.74 1649.87 1160.08 1646 1161.19 1642.49C1185.51 1566.01 1203.04 1486.67 1217.6 1407.75C1219.75 1396.39 1221.32 1384.96 1223.26 1373.54C1223.6 1371.55 1225.48 1370.21 1227.47 1370.55C1229.31 1370.86 1230.59 1372.49 1230.51 1374.3C1229.9 1397.2 1227.64 1421.14 1224.49 1443.9C1221.46 1466.98 1216.77 1489.79 1211.4 1512.42C1200.95 1557.77 1189.08 1602.54 1175.08 1646.99L1171.03 1638.03C1174.92 1639.81 1177.87 1641.58 1181.29 1643.84C1202.6 1657.79 1214.31 1682.3 1203.63 1706.94C1194.22 1725.41 1172.73 1731.96 1154.16 1735.36C1125.78 1739.78 1097.29 1738.04 1068.81 1735.52C1043.17 1732.27 998.099 1726.3 990.955 1695.85C988.315 1681.25 988.175 1667.33 987.932 1652.82C987.791 1596.85 992.324 1541.28 993.222 1485.55C994.246 1429.74 985.952 1374.73 985.107 1318.91C985.117 1309.45 999.084 1308.69 999.706 1318.55Z"
          fill="#000072"/>
    <path d="M889.714 1376.21C910.495 1467.86 1120.93 1493.43 1186.93 1394.47C1191.31 1387.91 1195.16 1381.15 1198.54 1374.25C1170.49 1404.12 1122.65 1432.56 1042.74 1429.79C899.833 1424.81 904.802 1309.98 892.388 1238.62C891.427 1233.08 889.675 1227.77 887.399 1222.68C886.079 1285.51 881.973 1342.06 889.714 1376.21Z"
          fill="#F9D3B7"/>
    <path d="M891.213 1381.71C918.939 1468.85 1122.28 1491.4 1186.95 1394.47C1200.87 1373.6 1209.53 1350.85 1214.02 1327.01C1190.33 1361.89 1141.86 1405.57 1046.51 1411.2C970.314 1415.67 918.958 1396.59 891.213 1381.71Z"
          fill="#F9D3B7"/>
    <path d="M799.747 1417.41C799.747 1417.41 831.924 1475.25 896.737 1487.12C1056.07 1516.34 1156.11 1458.21 1156.11 1458.21C1201.54 1425 1224.98 1381.53 1232.37 1330.38C1236.1 1304.67 1235.77 1277.02 1232.13 1247.77C1225.93 1197.83 1199.05 1124.21 1163.46 1057.04C1163.46 1057.04 1138.27 955.753 982.73 965.31C827.168 974.867 817.859 1072.4 817.859 1072.4C808.575 1106.47 802.247 1135.29 797.855 1159.39C787.91 1214.16 788.041 1244.68 786.785 1257.63C776.37 1363.99 792.4 1401.04 799.747 1417.41Z"
          fill="#FFAD40"/>
    <path d="M830.424 1038.56C959.197 1068.84 1064.61 1053.81 1141.05 1017.65C1129.33 1004.01 1111.9 989.571 1086.32 979.217C1049.84 964.455 1019.81 963.887 982.725 965.319C931.801 967.286 858.96 970.103 836.801 1013.93C832.152 1023.14 830.788 1032.06 830.424 1038.56Z"
          fill="#FF9343"/>
    <path d="M1097.97 1425.1C1155.95 1425.1 1202.95 1363.6 1202.95 1287.74C1202.95 1211.87 1155.95 1150.37 1097.97 1150.37C1039.99 1150.37 992.994 1211.87 992.994 1287.74C992.994 1363.6 1039.99 1425.1 1097.97 1425.1Z"
          fill="#FFF3E9"/>
    <path d="M1097.97 1425.1C1155.95 1425.1 1202.95 1363.6 1202.95 1287.74C1202.95 1211.87 1155.95 1150.37 1097.97 1150.37C1039.99 1150.37 992.994 1211.87 992.994 1287.74C992.994 1363.6 1039.99 1425.1 1097.97 1425.1Z"
          fill="#FFF3E9"/>
    <path d="M1097.97 1425.1C1155.95 1425.1 1202.95 1363.6 1202.95 1287.74C1202.95 1211.87 1155.95 1150.37 1097.97 1150.37C1039.99 1150.37 992.994 1211.87 992.994 1287.74C992.994 1363.6 1039.99 1425.1 1097.97 1425.1Z"
          fill="#FFF3E9"/>
    <path d="M1202.94 1287.74C1202.94 1325.01 1191.59 1358.81 1173.17 1383.54C1146.07 1400.4 1109.68 1415.31 1063.96 1417.74C1063.96 1417.74 1063.96 1417.74 1063.93 1417.74C1022.67 1399.21 992.994 1348.03 992.994 1287.74C992.994 1211.85 1040 1150.37 1097.97 1150.37C1155.95 1150.38 1202.94 1211.86 1202.94 1287.74Z"
          fill="#fff"/>
    <path d="M1232.37 1330.39C1224.97 1381.55 1201.52 1425 1156.1 1458.23C1156.1 1458.23 1056.06 1516.35 896.731 1487.12C831.927 1475.25 799.741 1417.43 799.741 1417.43C792.388 1401.03 776.368 1363.98 786.763 1257.63C788.03 1244.67 787.884 1214.15 797.838 1159.39L861.55 1143.38C861.55 1143.38 847.311 1200.87 851.058 1257.63C854.834 1315.07 885.141 1406.88 1032.55 1417.43C1043.45 1418.21 1053.92 1418.28 1063.93 1417.74C1063.95 1417.74 1063.95 1417.74 1063.95 1417.74C1074.61 1422.52 1086.06 1425.1 1097.96 1425.1C1127.47 1425.1 1154.1 1409.19 1173.16 1383.54C1212.65 1359.01 1232.37 1330.39 1232.37 1330.39Z"
          fill="#FF9343"/>
    <path d="M1173.17 1383.54C1154.1 1409.19 1127.47 1425.1 1097.97 1425.1C1086.06 1425.1 1074.62 1422.52 1063.96 1417.74C1109.68 1415.31 1146.07 1400.4 1173.17 1383.54Z"
          fill="#000072"/>
    <path d="M788.05 1652.63C788.293 1673.11 786.793 1686.28 791.423 1699.5C801.853 1729.34 830.127 1735.8 912.606 1733.31C956.58 1731.98 969.815 1714.17 973.605 1699.01C979.735 1674.48 966.636 1650.4 966.636 1650.4C966.636 1650.4 966.636 1650.37 966.636 1650.36C966.99 1647.07 983.331 1494.43 986.131 1493.73C990.586 1492.6 1041.84 1495.56 1103.61 1479.12C1103.61 1479.12 961.793 1487.73 864.686 1424.6C806.803 1386.97 781.566 1319.91 781.566 1319.91C786.526 1384.27 783.906 1549.91 787.783 1642.06C787.939 1645.79 788.026 1649.29 788.05 1652.63Z"
          fill="#F87B38"/>
    <path d="M1103.63 1479.1C1041.85 1495.56 990.596 1492.6 986.131 1493.73C985.433 1493.89 983.87 1503.64 981.933 1518.18C977.629 1550.56 971.407 1606.64 968.393 1634.19C967.369 1643.64 966.724 1649.73 966.646 1650.35C966.646 1650.38 966.646 1650.4 966.646 1650.4C966.646 1650.4 979.754 1674.49 973.62 1699.02C969.825 1714.15 956.61 1731.99 912.626 1733.31C830.151 1735.78 801.858 1729.32 791.443 1699.5C786.813 1686.28 788.322 1673.11 788.079 1652.61C788.05 1649.3 787.973 1645.8 787.813 1642.06C787.274 1629.26 786.871 1615.04 786.546 1599.85C786.517 1599.64 786.517 1599.42 786.517 1599.21C786.517 1598.88 786.488 1598.53 786.488 1598.18C785.813 1566.8 785.517 1531.46 785.274 1496.29C784.789 1426.15 784.415 1356.58 781.586 1319.9C781.586 1319.9 806.808 1386.97 864.711 1424.59C961.793 1487.72 1103.63 1479.1 1103.63 1479.1Z"
          fill="#FFAD40"/>
    <path d="M781.57 1319.9C784.395 1356.58 784.769 1426.15 785.273 1496.28C855.537 1469.67 950.605 1504.93 981.923 1518.19C983.864 1503.65 985.431 1493.9 986.135 1493.72C990.59 1492.6 1041.84 1495.55 1103.62 1479.11C1103.62 1479.11 961.792 1487.72 864.69 1424.59C806.802 1386.97 781.57 1319.9 781.57 1319.9Z"
          fill="#FF9343"/>
    <path d="M973.609 1699.02C969.814 1714.16 956.599 1731.99 912.615 1733.31C830.141 1735.78 801.847 1729.32 791.432 1699.5C786.802 1686.28 788.311 1673.11 788.069 1652.61C788.04 1649.3 787.962 1645.8 787.802 1642.06C787.263 1629.26 786.86 1615.04 786.535 1599.85C786.831 1600.12 787.234 1600.34 787.583 1600.47C801.798 1606.48 817.057 1609.53 832.373 1611.52C877.891 1617.36 924.622 1613.8 968.712 1601.07C968.606 1612.14 968.499 1623.15 968.387 1634.19C967.363 1643.65 966.718 1649.73 966.64 1650.36C966.64 1650.39 966.64 1650.41 966.64 1650.41C966.64 1650.41 979.749 1674.49 973.609 1699.02Z"
          fill="#FFF3E9"/>
    <path d="M791.429 1699.49C801.858 1729.33 830.133 1735.79 912.612 1733.3C956.586 1731.98 969.821 1714.17 973.611 1699.01C976.013 1689.39 975.465 1679.86 973.897 1671.8C973.81 1672.22 973.723 1672.66 973.611 1673.08C969.816 1688.24 956.586 1706.05 912.612 1707.38C830.133 1709.87 801.858 1703.4 791.429 1673.57C789.09 1666.88 788.318 1660.22 788.1 1652.6C788.075 1652.6 788.075 1652.63 788.056 1652.63C788.299 1673.11 786.799 1686.28 791.429 1699.49Z"
          fill="#000072"/>
    <path d="M788.846 1319.33C794.611 1432.88 791.17 1546.54 795.383 1659.97 795.436 1672.54 794.335 1685.58 798.343 1697.16 804.143 1715.29 820.687 1721.33 839.411 1723.98 852.005 1725.83 865.142 1726.31 878.279 1726.46 887.767 1726.64 898.439 1726.31 908.005 1726.13 923.215 1725.91 940.254 1724.07 952.46 1716.38 973.809 1703.23 969.776 1673.39 960.225 1653.9 959.487 1652.55 959.215 1651.05 959.38 1649.63L967 1580.81C970.678 1551.53 973.12 1522.02 978.604 1492.88 979.273 1490.4 980.574 1488.14 983.316 1486.98 985.044 1486.38 984.068 1486.73 984.651 1486.57L985.349 1486.44C985.908 1486.34 986.053 1486.35 986.335 1486.31 996.623 1485.77 1007.67 1485.64 1017.91 1484.96 1046.18 1483.83 1074.75 1480.87 1102.66 1475.6 1106.94 1474.88 1108.86 1481.04 1104.54 1482.66 1082.5 1490.38 1059.48 1495.21 1036.27 1498.29 1024.68 1499.85 1012.95 1500.48 1001.27 1500.64 997.929 1500.65 990.969 1500.76 987.752 1500.88 987.679 1500.88 987.461 1500.89 987.669 1500.88 987.723 1500.87 987.781 1500.85 987.834 1500.84 989.795 1500.42 991.731 1498.8 992.43 1497.31 985.612 1540.16 979.147 1604.98 973.891 1651.18L973.047 1646.91C986.495 1672.75 988.247 1711.97 960.268 1728.73 941.603 1740.36 919.39 1740.62 898.328 1740.97 868.131 1740.73 819.969 1743.85 796.761 1721.72 779.877 1705.56 780.26 1681.08 780.775 1659.91 779.169 1599.86 777.984 1539.83 777.844 1479.96 777.242 1426.89 777.616 1373.28 774.281 1320.46 773.767 1310.91 787.773 1309.47 788.846 1319.33ZM1153.96 1455.28C1213.9 1406.28 1232.63 1339.65 1225.81 1264.52 1223.13 1228.62 1213.32 1193.73 1201.43 1159.8 1189.45 1125.56 1175.28 1092.03 1160.22 1058.75 1159.38 1056.91 1160.19 1054.74 1162.03 1053.9 1163.73 1053.12 1165.72 1053.77 1166.67 1055.33 1185.86 1086.88 1201.89 1120.29 1215.05 1154.83 1228.16 1189.54 1238.86 1225.97 1241.8 1263.19 1246.51 1319.03 1237.26 1379.72 1200.29 1423.89 1188.29 1438.57 1173.89 1451.02 1158.27 1461.18 1154.45 1463.53 1150.43 1458.29 1153.96 1455.28Z"
          fill="#000072"/>
    <path d="M861.552 1143.39C838.296 1190.75 830.273 1245.18 823.464 1294.34C813.773 1364.31 806.478 1423.62 761.068 1436.68C707.635 1452.06 670.867 1419.02 662.573 1351.95C659.341 1325.93 659.909 1298.24 663.704 1270.18C679.452 1153.12 751.026 1029.62 836.33 994.748L861.552 1143.39Z"
          fill="#FFAD40"/>
    <path d="M823.58 1293.17C823.556 1293.56 823.483 1293.95 823.459 1294.34C823.168 1296.53 822.877 1298.7 822.556 1300.87C821.95 1305.2 821.362 1309.47 820.756 1313.71C819.902 1319.8 819.028 1325.79 818.101 1331.63C817.858 1333.24 817.591 1334.85 817.344 1336.43C816.247 1343.08 815.107 1349.51 813.84 1355.73C813.476 1357.6 813.083 1359.43 812.67 1361.26C812.306 1362.99 811.913 1364.67 811.501 1366.35C811.452 1366.59 811.404 1366.81 811.331 1367.06C811.04 1368.32 810.724 1369.57 810.404 1370.78C809.846 1373.02 809.259 1375.21 808.628 1377.35C808.191 1378.94 807.725 1380.5 807.24 1382.03C806.483 1384.47 805.682 1386.85 804.828 1389.17C804.415 1390.32 803.998 1391.46 803.537 1392.55C802.78 1394.53 802.003 1396.43 801.149 1398.28C800.858 1398.94 800.542 1399.6 800.246 1400.23C799.931 1400.93 799.591 1401.62 799.247 1402.3C798.907 1402.95 798.591 1403.61 798.247 1404.24C797.543 1405.61 796.81 1406.95 796.005 1408.24C795.277 1409.51 794.495 1410.75 793.69 1411.96C793.301 1412.55 792.908 1413.11 792.496 1413.69C792.496 1413.74 792.447 1413.79 792.399 1413.84C791.593 1414.96 790.768 1416.05 789.914 1417.13C789.526 1417.64 789.108 1418.13 788.72 1418.61C788.235 1419.19 787.745 1419.76 787.211 1420.32C786.774 1420.8 786.332 1421.29 785.871 1421.75C785.847 1421.8 785.774 1421.88 785.701 1421.92C784.774 1422.88 783.828 1423.8 782.828 1424.68C782.367 1425.09 781.877 1425.51 781.392 1425.94C781.295 1426.04 781.198 1426.11 781.076 1426.19C780.101 1426.99 779.082 1427.77 778.058 1428.5C776.937 1429.33 775.816 1430.09 774.627 1430.77C774.044 1431.11 773.457 1431.48 772.85 1431.8C771.826 1432.38 770.759 1432.92 769.686 1433.43C769.346 1433.62 768.982 1433.77 768.638 1433.91C768.152 1434.11 767.662 1434.33 767.177 1434.52C766.522 1434.84 765.862 1435.08 765.182 1435.3C763.843 1435.81 762.455 1436.25 761.043 1436.66C757.781 1437.61 754.593 1438.37 751.477 1438.95C743.906 1440.37 736.723 1440.73 729.982 1440.1C729.201 1440.03 728.425 1439.95 727.668 1439.86C727.134 1439.81 726.619 1439.74 726.11 1439.64C725.454 1439.54 724.819 1439.44 724.188 1439.32C723.969 1439.3 723.775 1439.27 723.581 1439.2C722.654 1439.03 721.756 1438.84 720.854 1438.62C720.781 1438.62 720.708 1438.62 720.66 1438.57C719.733 1438.38 718.811 1438.11 717.884 1437.84C714.913 1436.98 712.04 1435.91 709.289 1434.65C708.483 1434.26 707.707 1433.87 706.901 1433.43C706.852 1433.43 706.804 1433.4 706.755 1433.36C706.1 1433.02 705.416 1432.65 704.761 1432.26C704.421 1432.09 704.081 1431.89 703.761 1431.68C703.13 1431.31 702.494 1430.92 701.888 1430.5C701.669 1430.38 701.475 1430.26 701.281 1430.12C700.674 1429.73 700.087 1429.31 699.505 1428.9C698.408 1428.12 697.364 1427.31 696.34 1426.44C694.904 1425.31 693.516 1424.07 692.176 1422.74C691.419 1422 690.691 1421.25 689.988 1420.49C689.357 1419.84 688.745 1419.15 688.139 1418.45C687.969 1418.28 687.823 1418.11 687.678 1417.94C687.168 1417.33 686.654 1416.69 686.144 1416.06C685.901 1415.8 685.707 1415.53 685.513 1415.26C685.028 1414.63 684.538 1413.99 684.077 1413.36C683.882 1413.12 683.713 1412.87 683.543 1412.63C683.009 1411.9 682.494 1411.17 681.985 1410.39C681.936 1410.31 681.864 1410.22 681.839 1410.14C680.597 1408.34 679.452 1406.44 678.384 1404.49C677.801 1403.49 677.263 1402.47 676.705 1401.4C676.195 1400.4 675.656 1399.35 675.171 1398.3C675.147 1398.26 675.123 1398.21 675.098 1398.18C674.637 1397.16 674.147 1396.11 673.686 1395.06C673.637 1394.97 673.613 1394.87 673.565 1394.77C673.079 1393.68 672.613 1392.56 672.177 1391.41C671.788 1390.41 671.395 1389.42 671.007 1388.37C669.182 1383.4 667.576 1378.09 666.236 1372.46C664.679 1366.03 663.46 1359.18 662.563 1351.95C659.35 1325.93 659.908 1298.23 663.708 1270.17C703.805 1297.65 755.316 1299.79 804.541 1295.24C810.918 1294.66 817.3 1293.95 823.58 1293.17Z"
          fill="#FFF3E9"/>
    <path d="M678.389 1404.49C679.364 1406.22 680.359 1407.9 681.432 1409.51C680.335 1407.9 679.34 1406.22 678.389 1404.49Z"
          fill="#FFF3E9"/>
    <path d="M804.54 1295.24C792.49 1347.98 781.168 1392.82 745.41 1400.98C707.312 1409.71 681.897 1398.69 666.24 1372.46C664.682 1366.03 663.464 1359.18 662.567 1351.95C659.354 1325.93 659.912 1298.23 663.712 1270.17C703.804 1297.65 755.315 1299.79 804.54 1295.24Z"
          fill="#fff"/>
    <path d="M761.061 1436.67C761.619 1436.5 762.182 1436.33 762.74 1436.16C762.207 1436.38 761.644 1436.53 761.086 1436.7C760.256 1436.94 759.431 1437.16 758.625 1437.35C759.431 1437.13 760.231 1436.91 761.061 1436.67Z"
          fill="#390075"/>
    <path d="M823.459 1294.34C823.483 1293.95 823.556 1293.56 823.58 1293.17C817.3 1293.95 810.923 1294.66 804.541 1295.24C815.131 1249 826.307 1196.73 855.033 1157.8C836.698 1201.58 829.593 1250.1 823.459 1294.34Z"
          fill="#FF9343"/>
    <path d="M823.58 1293.17C823.556 1293.56 823.483 1293.95 823.459 1294.34C823.168 1296.53 822.876 1298.7 822.556 1300.87C821.949 1305.2 821.362 1309.47 820.756 1313.71C819.901 1319.8 819.028 1325.79 818.101 1331.64C817.858 1333.24 817.591 1334.85 817.344 1336.43C816.247 1343.08 815.107 1349.52 813.84 1355.73C813.476 1357.6 813.083 1359.43 812.67 1361.26C812.306 1362.99 811.913 1364.67 811.501 1366.35C811.452 1366.59 811.404 1366.81 811.331 1367.06C811.04 1368.32 810.724 1369.57 810.404 1370.78C809.846 1373.02 809.258 1375.21 808.628 1377.36C808.191 1378.94 807.725 1380.5 807.24 1382.03C806.482 1384.47 805.682 1386.85 804.828 1389.17C804.415 1390.32 803.998 1391.46 803.537 1392.56C802.78 1394.53 802.003 1396.43 801.149 1398.28C800.858 1398.94 800.542 1399.6 800.246 1400.23C799.931 1400.93 799.591 1401.62 799.246 1402.3C798.907 1402.95 798.591 1403.61 798.247 1404.24C797.543 1405.61 796.81 1406.95 796.005 1408.24C795.277 1409.53 794.495 1410.78 793.69 1411.96C793.301 1412.55 792.908 1413.11 792.496 1413.69C792.496 1413.74 792.447 1413.79 792.399 1413.84C791.593 1414.96 790.768 1416.05 789.914 1417.13C789.526 1417.64 789.108 1418.13 788.72 1418.61C788.235 1419.2 787.744 1419.76 787.211 1420.32C786.774 1420.8 786.332 1421.29 785.871 1421.75C785.847 1421.8 785.774 1421.88 785.701 1421.92C784.799 1422.9 783.828 1423.82 782.828 1424.68C782.367 1425.09 781.877 1425.51 781.392 1425.95C781.295 1426.04 781.198 1426.12 781.076 1426.19C780.101 1426.99 779.082 1427.77 778.058 1428.5C776.937 1429.34 775.815 1430.09 774.626 1430.77C774.044 1431.11 773.457 1431.48 772.85 1431.8C771.826 1432.38 770.758 1432.92 769.686 1433.43C769.346 1433.62 768.982 1433.77 768.638 1433.91C768.152 1434.11 767.662 1434.33 767.177 1434.52C766.522 1434.84 765.862 1435.08 765.182 1435.3C763.843 1435.83 762.479 1436.27 761.067 1436.69C757.805 1437.61 754.617 1438.37 751.477 1438.95C743.906 1440.36 736.723 1440.73 729.982 1440.1C729.201 1440.02 728.425 1439.95 727.667 1439.85C727.134 1439.8 726.619 1439.73 726.11 1439.63C725.454 1439.54 724.819 1439.44 724.188 1439.32C723.969 1439.3 723.775 1439.27 723.581 1439.2C722.654 1439.03 721.756 1438.83 720.854 1438.62C720.781 1438.62 720.708 1438.62 720.659 1438.57C719.733 1438.37 718.81 1438.11 717.883 1437.83C714.913 1436.98 712.04 1435.91 709.289 1434.64C708.483 1434.25 707.706 1433.87 706.901 1433.42C706.852 1433.42 706.804 1433.4 706.755 1433.35C706.1 1433.01 705.416 1432.65 704.761 1432.25C704.421 1432.08 704.081 1431.89 703.761 1431.67C703.13 1431.31 702.494 1430.92 701.888 1430.5C701.669 1430.38 701.475 1430.26 701.281 1430.11C700.674 1429.72 700.087 1429.31 699.505 1428.89C698.408 1428.11 697.364 1427.31 696.34 1426.43C694.904 1425.29 693.516 1424.02 692.176 1422.73C691.419 1422 690.691 1421.24 689.988 1420.49C689.357 1419.83 688.745 1419.15 688.139 1418.44C687.969 1418.27 687.823 1418.1 687.678 1417.93C687.168 1417.33 686.653 1416.69 686.144 1416.06C685.901 1415.79 685.707 1415.52 685.513 1415.25C685.028 1414.62 684.538 1413.99 684.076 1413.35C683.882 1413.11 683.712 1412.87 683.543 1412.63C683.009 1411.9 682.494 1411.16 681.985 1410.38C681.936 1410.31 681.863 1410.21 681.839 1410.14C680.621 1408.34 679.476 1406.46 678.384 1404.49C677.801 1403.49 677.263 1402.47 676.705 1401.39C676.195 1400.39 675.656 1399.35 675.171 1398.3C675.147 1398.25 675.122 1398.2 675.098 1398.18C674.637 1397.15 674.147 1396.11 673.686 1395.06C673.637 1394.96 673.613 1394.87 673.565 1394.77C673.079 1393.67 672.613 1392.55 672.177 1391.41C671.788 1390.41 671.395 1389.41 671.007 1388.36C669.182 1383.4 667.576 1378.08 666.236 1372.46C681.888 1398.69 707.304 1409.7 745.406 1400.98C781.168 1392.82 792.486 1347.98 804.536 1295.23C810.918 1294.66 817.3 1293.95 823.58 1293.17Z"
          fill="#000072"/>
    <path d="M839.09 1001.52C731.457 1049.06 665.61 1209.98 667.881 1322.47C668.891 1362.63 676.597 1418.25 721.416 1431.11C733.67 1434.26 746.643 1432.96 758.766 1429.5C789.21 1420.77 799.163 1386.49 805.337 1358.56C816.475 1304.83 819.362 1247.19 836.314 1193.94C841.949 1175.93 849.073 1158.28 858.275 1141.77C859.26 1140.01 861.483 1139.37 863.249 1140.36C864.904 1141.28 865.559 1143.3 864.831 1145C843.448 1196.1 836.756 1251.56 829.428 1306.23C822.939 1348.5 818.29 1414.02 777.426 1437.9C750.462 1452.29 713.835 1451.99 690.317 1430.97C660.262 1403.85 654.302 1361.06 653.283 1322.75C651.06 1204.15 719.781 1037.93 833.567 987.988C842.585 984.565 848.064 997.564 839.09 1001.52Z"
          fill="#000072"/>
    <path d="M659.345 1275.1C660.204 1275.78 659.316 1277.98 658.428 1277.07L659.345 1275.1Z" fill="#FFCEDA"/>
    <path d="M840.25 503.815L985.349 517.781L1181.71 536.657C1203.46 474.435 1181.08 317.914 1129.5 276.496C1113.92 264.001 1095.7 262 1075.22 276.243C1023.68 312.091 962.826 438.393 840.25 503.815Z"
          fill="#FFAD40"/>
    <path d="M840.25 503.815L866.316 506.33C976.284 438.651 1033.42 323.639 1082.22 289.7C1102.7 275.457 1120.92 277.462 1136.49 289.952C1144.62 296.484 1152.03 305.904 1158.68 317.336C1150.41 299.757 1140.65 285.441 1129.5 276.486C1113.92 263.991 1095.7 261.991 1075.22 276.234C1023.68 312.091 962.826 438.393 840.25 503.815Z"
          fill="#fff"/>
    <path d="M985.346 517.776L1181.71 536.652C1203.46 474.431 1181.07 317.909 1129.49 276.491C1120.77 275.937 1111.31 279.672 1102.59 292.016C1080.24 323.571 1046.49 465.602 985.346 517.776Z"
          fill="#FF9343"/>
    <path d="M1181.72 543.97C1180.92 543.97 1180.11 543.839 1179.31 543.557C1175.5 542.227 1173.49 538.056 1174.82 534.248C1196.75 471.483 1171.36 317.491 1123.83 281.357C1109.96 270.805 1095.42 271.091 1079.4 282.236C1061.54 294.658 1041.62 319.584 1018.55 348.444C975.998 401.667 923.05 467.904 843.687 510.269C840.13 512.168 835.704 510.823 833.806 507.258C831.908 503.699 833.253 499.27 836.815 497.371C913.524 456.424 965.433 391.489 1007.14 339.315C1030.92 309.566 1051.46 283.873 1071.06 270.232C1092.34 255.425 1113.65 255.246 1132.67 269.712C1168.66 297.076 1184.79 367.296 1190.06 396.218C1200.14 451.622 1199.57 507.69 1188.61 539.066C1187.56 542.086 1184.74 543.97 1181.72 543.97Z"
          fill="#000072"/>
    <path d="M1029.45 409.184L1172.16 501.897C1171.92 499.677 1171.58 466.253 1166.37 429.652C1164.09 413.569 1160.86 396.888 1156.28 381.97C1144.59 343.869 1130.95 319.38 1120.94 309.833C1118.1 307.138 1115.55 305.637 1113.42 305.36C1096.6 303.17 1077.75 345.506 1029.45 409.184Z"
          fill="#fff"/>
    <path d="M1029.45 409.184L1172.16 501.897C1171.92 499.677 1171.58 466.253 1166.37 429.652C1160.07 428.56 1152.18 425.884 1143.75 419.93C1131.48 411.291 1107.86 390.095 1103.49 364.736C1101.17 351.309 1109.93 328.509 1120.94 309.833C1118.1 307.138 1115.55 305.637 1113.42 305.36C1096.6 303.17 1077.75 345.506 1029.45 409.184Z"
          fill="#000072"/>
    <path d="M1172.07 509.176C1170.71 509.176 1169.36 508.797 1168.18 508.03L1025.47 415.312C1023.77 414.205 1022.6 412.442 1022.25 410.442C1021.9 408.441 1022.4 406.387 1023.63 404.77C1040.33 382.752 1053.62 363.099 1064.31 347.307C1087.36 313.222 1098.92 296.1 1114.36 298.125C1132.69 300.514 1152.16 343.631 1163.26 379.829C1172.24 409.101 1177.64 448.878 1179.31 498.051C1179.36 499.692 1179.39 500.78 1179.43 501.226C1179.64 503.999 1178.26 506.709 1175.87 508.127C1174.7 508.821 1173.38 509.176 1172.07 509.176ZM1039.99 407.319L1164.29 488.076C1161.8 434.693 1154.86 402.24 1149.3 384.117C1133.53 332.705 1116.72 313.703 1112.39 312.601C1105.96 311.848 1091.62 333.011 1076.4 355.5C1066.65 369.927 1054.73 387.545 1039.99 407.319Z"
          fill="#000072"/>
    <path d="M1083.17 451.399C1081.79 451.399 1080.4 451.005 1079.19 450.219L1025.47 415.313C1023.76 414.206 1022.6 412.443 1022.25 410.442C1021.9 408.441 1022.4 406.387 1023.62 404.77C1036.62 387.623 1047.28 372.259 1054.16 362.192C1054.75 361.332 1055.52 360.604 1056.41 360.065C1069.21 352.324 1079.83 350.863 1087.97 355.714C1093.15 358.793 1096.48 363.236 1097.61 368.568C1098.76 373.997 1097.45 379.465 1095.45 384.142C1101.86 384.491 1108.49 386.22 1113.26 390.882C1116.87 394.403 1120.76 401.007 1118.83 412.462C1116.96 423.486 1106.71 435.747 1087.5 449.966C1086.23 450.918 1084.7 451.399 1083.17 451.399ZM1039.99 407.32L1082.84 435.165C1100.78 421.135 1103.94 412.992 1104.44 410.025C1105.15 405.843 1104.69 402.92 1103.08 401.347C1100.25 398.579 1092.71 397.904 1083.87 399.613C1083.35 399.715 1083.01 399.759 1082.9 399.773C1080.04 400.094 1077.24 398.681 1075.78 396.199C1073.35 392.052 1075.83 388.556 1077.02 386.876C1081.9 379.99 1084.02 374.852 1083.34 371.608C1083.15 370.729 1082.66 369.559 1080.52 368.282C1077.68 366.592 1072.18 367.874 1065.3 371.802C1059.21 380.684 1050.49 393.208 1039.99 407.32Z"
          fill="#000072"/>
    <path d="M645.698 669.233L709.793 596.858L851.476 436.888C772.224 344.249 661 309.668 627.266 328.762C622.553 331.419 618.399 336.435 614.939 343.719C595.201 385.04 597.346 499.236 645.698 669.233Z"
          fill="#FFAD40"/>
    <path d="M606.174 375.303C607.892 368.17 609.95 362.095 612.352 357.093C615.812 349.809 619.971 344.792 624.679 342.136C657.772 323.406 765.41 356.321 844.279 444.998L851.471 436.884C772.224 344.249 661 309.668 627.266 328.762C622.553 331.419 618.399 336.435 614.939 343.719C611.163 351.625 608.183 362.192 606.174 375.303Z"
          fill="#fff"/>
    <path d="M645.698 669.233L709.793 596.858C715.641 563.307 719.514 513.294 703.732 468.259C679.971 400.521 651.59 329.656 614.939 343.719C595.201 385.04 597.346 499.236 645.698 669.233Z"
          fill="#FF9343"/>
    <path d="M645.692 676.537C642.509 676.537 639.587 674.439 638.67 671.229C605.479 554.561 597.19 476.116 596.083 430.852C594.637 371.802 604.431 333.288 623.669 322.401C661.513 300.995 776.164 337.629 857.013 432.124C859.638 435.188 859.279 439.802 856.217 442.429C853.15 445.056 848.539 444.697 845.918 441.632C768.618 351.28 660.198 318.521 630.861 335.124C605.634 349.396 595.142 464.816 652.72 667.228C653.826 671.112 651.574 675.153 647.697 676.255C647.027 676.444 646.357 676.537 645.692 676.537Z"
          fill="#000072"/>
    <path d="M1311.05 786.824C1310.75 793.928 1309.99 800.965 1308.75 807.904C1293.25 896.999 1203.8 971.312 1047.28 1012.5L951.388 1029.15C793.525 1046.14 661.782 1021.96 616.764 915.811C608.426 896.149 601.525 872.281 596.905 845.65C579.293 745.115 593.498 605.366 680.539 505.437C772.671 399.651 920.187 390.075 952.247 387.735C1145.21 373.589 1208.28 506.894 1267.2 668.048C1267.21 668.102 1271.76 672.749 1277.92 681.267C1280.51 684.821 1283.37 689.085 1286.3 693.965C1298.88 714.881 1312.77 747.305 1311.05 786.824Z"
          fill="#FFAD40"/>
    <path d="M1311.06 786.824C1306.79 885.213 1215.99 968.102 1047.28 1012.5L951.384 1029.15C793.521 1046.14 661.777 1021.96 616.759 915.812C608.422 896.149 601.521 872.281 596.9 845.651C617.788 829.334 652.367 808.885 708.736 795.565C816.85 770.017 841.509 827.615 888.492 811.235C934.514 795.191 934.757 736.32 1018.33 731.673C1071.98 728.691 1089.19 764.039 1110.94 765.17C1166.88 768.079 1192.52 686.997 1277.92 681.271C1291.56 700.162 1313.18 738.078 1311.06 786.824Z"
          fill="#fff"/>
    <path d="M596.895 845.656C601.524 872.272 608.435 896.145 616.768 915.807C661.786 1021.96 793.525 1046.15 951.383 1029.15L1047.28 1012.5C1186.94 975.741 1273.2 912.621 1301.17 836.167C1259.29 896.669 1177.52 946.245 1058.71 977.518L958.74 994.864C794.146 1012.57 656.802 987.371 609.862 876.711C605.698 866.901 601.879 856.077 598.515 844.383C597.962 844.821 597.419 845.248 596.895 845.656Z"
          fill="#000072"/>
    <path d="M1036.85 745.183C1037.39 747.844 1032.12 751.428 1027.99 753.783C1025.14 755.415 1021.25 756.245 1017.99 755.92C1013.28 755.449 1007.05 754.327 1006.5 751.666C1005.61 747.344 1035.96 740.856 1036.85 745.183Z"
          fill="#fff"/>
    <path d="M1311.05 786.824C1310.75 793.929 1309.99 800.965 1308.75 807.905 1299.75 812.227 1289.78 815.635 1279.09 817.855 1230.03 828.033 1184.83 809.143 1178.16 775.679 1171.48 742.216 1205.86 706.81 1254.92 696.632 1265.68 694.398 1276.28 693.563 1286.3 693.966 1298.88 714.881 1312.77 747.305 1311.05 786.824ZM771.218 922.664C820.224 912.158 854.159 876.589 847.014 843.219 839.869 809.849 794.348 791.314 745.342 801.82 696.335 812.327 662.4 847.896 669.545 881.266 676.691 914.636 722.211 933.171 771.218 922.664Z"
          fill="#FF8080"/>
    <path d="M642.15 566.599C633.458 589.768 624.912 612.596 618.049 636.255 604.155 683.146 597.657 732.28 598.705 781.191 599.098 805.69 601.471 830.184 605.946 854.246L605.412 854.353C609.848 871.907 614.783 889.234 620.995 905.988 627.076 922.736 635.851 938.096 646.955 951.737 719.126 1036.43 849.263 1029.38 951.067 1026.2 952.708 1026.13 954.091 1027.4 954.164 1029.04 954.232 1030.55 953.149 1031.84 951.703 1032.1 915.261 1038.37 878.134 1041.27 840.916 1040.23 758.233 1037.87 662.761 1014.84 619.146 937.397 605.232 912.577 596.463 885.063 592.158 857.019L591.624 857.125C583.752 819.855 580.768 781.657 582.456 743.619 584.15 705.542 590.484 667.611 602.272 631.326 610.299 607.206 621.233 583.882 636.22 563.356 638.578 560.369 643.533 562.705 642.15 566.599ZM1046.39 1009.1C1123.41 983.413 1204.24 953.106 1259.43 891.06 1308.44 836.03 1318.55 760.674 1279.19 697.204 1274.18 689.022 1268.55 681.145 1262.13 674.016 1261.67 673.434 1261.44 673.477 1260.47 671.875 1210.81 531.66 1144.18 382.407 961.861 394.596 937.406 395.995 911.801 397.617 887.69 401.929 863.129 406.076 838.907 412.083 815.185 419.741 813.224 420.411 811.084 419.338 810.438 417.366 809.827 415.492 810.788 413.482 812.578 412.748 836.087 402.988 860.532 395.529 885.443 390.24 1121.11 337.726 1209.18 475.698 1274.07 664.411 1273.53 663.377 1272.51 662.386 1273.21 663.134 1280.45 671.108 1286.81 679.97 1292.41 689.138 1335.23 758.493 1324.38 840.809 1270.5 900.748 1213.12 964.047 1130.11 998.579 1048.18 1015.89 1043.88 1016.53 1042.17 1010.69 1046.39 1009.1Z"
          fill="#000072"/>
    <path d="M802.352 641.592C797.411 628.782 830.791 577.074 857.877 583.134 884.962 589.195 886.428 618.569 872.81 629.816 853.033 646.152 807.287 654.403 802.352 641.592ZM1126.05 584.125C1125.95 570.363 1079.94 535.064 1058.82 550.978 1037.71 566.891 1046.37 594.707 1061.82 599.971 1084.24 607.619 1126.15 597.888 1126.05 584.125Z"
          fill="#FFF3E9"/>
    <path d="M645.998 522.468C648.74 530.48 651.899 537.769 655.515 544.009C713.097 469.454 760.319 476.675 754.271 439.054C747.705 398.326 678.354 353.058 638.922 357.341C636.471 357.608 634.447 362.547 632.938 370.768C627.512 400.817 629.458 474.553 645.998 522.468Z"
          fill="#fff"/>
    <path d="M645.999 522.468C648.741 530.48 651.901 537.769 655.516 544.009C713.099 469.454 760.32 476.675 754.273 439.054C747.707 398.326 678.355 353.058 638.923 357.341C636.473 357.608 634.449 362.547 632.939 370.768C652.988 374.857 686.081 386.696 693.565 420.611C703.402 465.239 663.786 483.799 645.999 522.468Z"
          fill="#000072"/>
    <path d="M655.516 551.323C655.356 551.323 655.191 551.318 655.026 551.308C652.599 551.148 650.41 549.784 649.192 547.676C618.715 494.924 618.574 378.402 629.459 356.928C632.085 351.752 635.633 350.343 638.147 350.067C680.544 345.482 754.054 391.771 761.48 437.889C765.362 462.005 750.875 471.688 730.822 485.086C712.89 497.071 688.328 513.479 661.296 548.482C659.903 550.284 657.768 551.323 655.516 551.323ZM642.005 364.416C635.113 380.029 634.22 478.744 656.923 530.568C682.538 499.766 705.528 484.411 722.703 472.931C743.013 459.358 749.332 454.39 747.051 440.215C741.223 403.994 677.18 362.692 642.005 364.416Z"
          fill="#000072"/>
    <path d="M710.293 464.495C710.463 465.088 710.298 464.889 710.701 465.228 714.166 467.176 718.577 467.176 723.348 470.502 726.847 472.668 729.337 478.219 729.07 482.162L718.024 476.32C724.139 472.182 730.327 468.239 735.767 464.116 741.217 459.969 745.527 455.633 746.895 450.854 750.026 439.506 743.236 425.952 736.151 416.361 736.146 416.357 739.742 418.921 739.742 418.921 731.855 417.255 724.474 416.104 717.626 419.295 715.195 420.611 711.715 422.767 711.846 425.35 711.977 426.404 712.943 428.104 714.428 429.667 717.636 433.178 723.838 436.242 728.948 439.423 730.594 440.564 731.006 442.822 729.866 444.473 727.478 446.766 724.056 447.984 721.431 450.145 716.908 453.637 709.745 458.488 710.293 464.495ZM695.899 466.981C693.933 450.354 713.287 442.672 726.153 438.942L726.798 445.76C719.203 446.11 712.37 444.503 705.843 440.074 686.702 425.433 702.3 403.546 722.363 402.07 730.259 401.303 737.475 402.949 743.974 405.377 745.425 405.843 746.755 406.722 747.565 407.936 757.126 421.018 765.255 438.282 760.44 455.06 755.16 471.24 738.499 479.088 725.944 488.081 722.717 490.286 718.31 489.446 716.117 486.207 715.161 485.066 714.903 482.861 714.835 481.895 714.879 482.065 715.117 482.288 714.967 482.191 711.924 480.54 706.886 480.253 702.615 477.306 699.276 475.305 696.418 470.823 695.899 466.981ZM1049.41 739.409C1041.39 726.414 986.476 738.37 982.205 755.366 977.934 772.362 1020.06 788.222 1030.88 784.289 1041.7 780.355 1057.53 752.574 1049.41 739.409Z"
          fill="#000072"/>
    <path d="M1039.21 773.227L1046.4 799.401L1034.87 795.57C1057.36 778.53 1083.19 798.717 1074.91 824.745C1072.9 831.165 1070.01 836.487 1065.97 841.829L1063.97 830.937C1074.86 838.274 1085.74 849.91 1083.1 864.303C1079.12 881.469 1060.57 894.168 1043.18 890.016C1038.5 888.666 1026.55 884.641 1030.8 878.25C1032.25 876.322 1034.93 875.88 1036.9 877.211C1048.65 885.49 1064.75 878.347 1069.74 865.847C1074.2 856.344 1064.01 847.982 1056.59 843.558L1054.59 832.661C1059.09 826.707 1064.1 816.534 1060.8 809.623C1057.17 802.111 1049.76 802.801 1043.7 807.215C1039.72 810.303 1033.56 808.133 1032.31 803.281L1025.13 777.107C1022.81 767.774 1036.41 763.971 1039.21 773.227Z"
          fill="#000072"/>
    <path d="M1060.94 825.872C1060.94 825.872 1034.36 847.501 1037.93 854.858C1043.73 866.814 1067.16 859.908 1060.94 825.872Z"
          fill="#000072"/>
    <path d="M1026.17 750.631C1033.08 749.069 1038.23 745.844 1037.69 743.426C1037.14 741.009 1031.1 740.316 1024.19 741.877C1017.29 743.439 1012.13 746.665 1012.68 749.082C1013.22 751.499 1019.26 752.192 1026.17 750.631Z"
          fill="#fff"/>
    <path d="M806.56 763.845C796.888 730.1 810.273 684.316 846.545 672.963 884.104 660.055 926.176 692.208 924.861 730.833 924.652 737.855 915.179 740.026 911.844 733.975 897.843 711.54 875.004 690.081 847.705 703.323 829.768 714.444 822.003 741.492 819.829 762.058 819.499 769.658 808.832 771.051 806.56 763.845ZM1163.06 692.912C1149.08 672.07 1123.51 639.184 1096.65 655.209 1084.16 665.66 1081.52 686.818 1079.49 703.751 1079.15 707.194 1076.09 709.714 1072.65 709.379 1064.74 708.835 1062.01 688.911 1061.66 682.709 1059.51 640.709 1093.67 610.985 1134.06 630.968 1149.3 638.932 1159.56 651.849 1166.9 666.655 1170.25 673.638 1172.8 680.864 1174.33 688.318 1175.02 691.669 1172.86 694.942 1169.51 695.631 1166.93 696.156 1164.4 695 1163.06 692.912Z"
          fill="#000072"/>
    <path d="M1342.31 1100.77L1285.95 862.472C1308.4 847.501 1321.48 817.393 1321.48 782.084C1321.48 769.303 1319.77 755.822 1316.18 742.143C1300.18 681.475 1253.98 642.855 1210.97 654.204C1167.97 665.552 1146.8 721.951 1162.81 782.618C1170.1 810.313 1184.25 834.666 1202.64 851.182C1218.3 865.225 1235.68 872.558 1252.77 872.558H1253.69L1309.53 1108.52C1311.35 1116.27 1318.29 1121.5 1325.92 1121.5C1327.18 1121.5 1328.5 1121.36 1329.79 1121.05C1338.86 1118.91 1344.44 1109.81 1342.31 1100.77ZM1195.37 774.028C1184.56 733.047 1195.65 693.111 1219.56 686.788C1221.75 686.225 1223.97 685.943 1226.25 685.943C1237.48 685.943 1249.35 692.824 1259.68 704.396C1269.98 715.939 1278.71 732.149 1283.6 750.738C1294.09 790.568 1283.91 829.436 1261.36 837.361C1261.19 837.419 1261.03 837.473 1260.86 837.555C1260.38 837.696 1259.9 837.837 1259.4 837.978C1245.28 841.712 1231.89 832.136 1225.15 826.095C1211.79 814.076 1200.92 795.118 1195.37 774.028Z"
          fill="#7BA2FF"/>
    <path d="M1342.31 1100.77 1285.95 862.473C1308.4 847.501 1321.48 817.393 1321.48 782.085 1321.48 769.303 1319.77 755.823 1316.18 742.143 1302.06 688.59 1264.4 652.237 1226.18 652.252 1260.34 658.521 1292.21 692.81 1304.95 741.104 1308.55 754.784 1310.26 768.264 1310.26 781.046 1310.26 816.349 1297.18 846.462 1274.72 861.433L1331.09 1099.73C1333.19 1108.65 1327.78 1117.62 1318.92 1119.9 1321.09 1120.9 1323.46 1121.5 1325.92 1121.5 1327.18 1121.5 1328.5 1121.36 1329.79 1121.05 1338.86 1118.91 1344.44 1109.81 1342.31 1100.77ZM1242.5 871.67 1242.47 871.52H1241.68C1241.96 871.568 1242.23 871.622 1242.5 871.67Z"
          fill="#fff"/>
    <path d="M1297.17 850.201 1297.69 852.377C1299.64 850.254 1301.47 847.962 1303.21 845.559 1301.27 847.219 1299.28 848.798 1297.17 850.201ZM1341.02 1108.77C1339.73 1109.08 1338.41 1109.22 1337.15 1109.22 1329.51 1109.22 1322.58 1104 1320.76 1096.24L1264.92 860.282H1264C1246.9 860.282 1229.53 852.949 1213.86 838.906 1195.48 822.39 1181.33 798.037 1174.03 770.342 1163.38 729.954 1169.22 691.479 1186.99 666.907 1160.75 689.381 1150.16 734.655 1162.81 782.618 1170.11 810.313 1184.26 834.666 1202.64 851.182 1218.3 865.226 1235.68 872.558 1252.77 872.558H1253.7L1309.53 1108.52C1311.35 1116.27 1318.29 1121.5 1325.92 1121.5 1327.19 1121.5 1328.51 1121.36 1329.8 1121.05 1336.26 1119.53 1340.94 1114.46 1342.33 1108.39 1341.9 1108.53 1341.47 1108.67 1341.02 1108.77Z"
          fill="#000072"/>
    <path d="M1325.92 1127.58C1315.23 1127.58 1306.05 1120.32 1303.6 1109.92L1248.86 878.532C1231.44 877.507 1214.14 869.674 1198.58 855.718C1179.31 838.41 1164.52 813.003 1156.92 784.173C1148.87 753.623 1149.63 722.942 1159.07 697.778C1168.78 671.89 1186.66 654.325 1209.42 648.318C1255.72 636.105 1305.2 676.634 1322.07 740.594C1325.72 754.507 1327.58 768.468 1327.58 782.089C1327.58 817.772 1314.66 848.395 1292.82 865.051L1348.24 1099.37C1349.65 1105.33 1348.66 1111.48 1345.44 1116.69C1342.22 1121.92 1337.16 1125.57 1331.19 1126.97C1329.5 1127.38 1327.72 1127.58 1325.92 1127.58ZM1226.26 658.312C1221.67 658.312 1217.07 658.895 1212.52 660.094C1193.68 665.067 1178.74 679.97 1170.46 702.061C1161.9 724.88 1161.27 752.938 1168.69 781.07C1175.68 807.628 1189.19 830.922 1206.7 846.656C1221.16 859.617 1237.09 866.469 1252.77 866.469H1258.51L1315.45 1107.12C1316.6 1112 1320.9 1115.41 1325.91 1115.41C1326.75 1115.41 1327.6 1115.31 1328.37 1115.13C1331.19 1114.47 1333.56 1112.75 1335.07 1110.3C1336.58 1107.86 1337.04 1104.97 1336.38 1102.17L1279.04 859.758L1282.57 857.408C1303.12 843.704 1315.39 815.548 1315.39 782.089C1315.39 769.512 1313.67 756.595 1310.28 743.697C1296.9 692.922 1261.7 658.312 1226.26 658.312ZM1252.89 844.903C1239.29 844.903 1227.49 836.376 1221.09 830.636C1206.84 817.816 1195.32 797.75 1189.48 775.577C1177.63 730.658 1190.43 688.182 1218 680.898C1220.72 680.199 1223.48 679.854 1226.24 679.854C1238.93 679.854 1252.42 687.128 1264.21 700.342C1275.57 713.07 1284.54 730.42 1289.47 749.194C1300.75 791.957 1289.03 834.089 1263.37 843.111C1263.37 843.111 1263.37 843.111 1263.37 843.111L1262.56 843.407L1261.02 843.854C1258.26 844.578 1255.54 844.903 1252.89 844.903ZM1226.24 692.033C1224.47 692.033 1222.78 692.247 1221.07 692.684C1200.74 698.055 1191.46 735.345 1201.25 772.469C1206.51 792.409 1216.7 810.303 1229.22 821.569C1235.03 826.78 1246.5 835.084 1257.84 832.093L1258.8 831.816C1259.01 831.728 1259.23 831.656 1259.45 831.583C1278.83 824.77 1287.24 788.446 1277.71 752.297C1273.26 735.345 1265.24 719.776 1255.14 708.456C1245.68 697.865 1235.42 692.033 1226.24 692.033Z"
          fill="#000072"/>
    <path d="M1215.04 687.546C1215.84 687.177 1216.59 686.866 1217.33 686.599C1217.33 686.599 1220.63 685.375 1223.97 684.894C1230.75 683.923 1239.23 687.128 1240.31 687.541C1248.1 690.552 1247.87 692.713 1251.54 693.159C1258.25 693.975 1263.77 687.308 1271.19 679.116C1283.44 665.586 1291.12 657.108 1299.26 651.028C1313.52 640.378 1328.3 637.756 1332.94 636.984C1335.35 636.586 1357.53 633.162 1377.85 642.602C1414.56 659.647 1430.94 712.001 1419.96 752.142C1418.53 757.352 1407.84 794.453 1377.85 805.505C1367.23 809.424 1357.39 808.885 1346.98 808.312C1314.33 806.525 1297.64 791.651 1288.03 799.887C1283.37 803.883 1286.71 807.894 1279.61 819.549C1276.65 824.42 1271.47 832.913 1262.77 836.4C1250.46 841.339 1237.25 833.748 1231.9 830.781C1211.36 819.413 1203.68 798.182 1198.21 783.031C1190.61 761.99 1191.08 745.018 1191.44 731.994C1191.7 722.762 1192.71 716.493 1195.4 710.005C1197.14 705.814 1202.5 693.354 1215.04 687.546Z"
          fill="#fff"/>
    <path d="M1217.44 691.65C1223.03 689.149 1228.72 689.095 1234.55 690.678C1238.97 691.873 1242.45 693.951 1246.33 696.282C1258.76 703.761 1270.64 686.774 1277.64 679.063C1285.91 669.948 1294.17 660.095 1304.44 653.15C1313.55 647.003 1323.82 643.302 1334.61 641.505C1334.81 641.471 1335 641.447 1335.2 641.418C1336.27 641.258 1334 641.554 1335.29 641.413C1336.05 641.331 1336.81 641.243 1337.58 641.17C1340.2 640.932 1342.82 640.821 1345.45 640.811C1352.17 640.796 1358.85 641.505 1365.36 643.195C1377.24 646.279 1387.49 652.776 1395.7 661.848C1411.4 679.189 1418.72 703.717 1418.57 726.813C1418.46 743.556 1413.97 759.514 1405.85 773.664C1400.59 782.803 1393.7 791.268 1384.68 796.886C1371.93 804.816 1357.13 804.593 1342.67 803.253C1330.47 802.126 1319.01 798.353 1307.34 794.929C1299.8 792.715 1290.87 790.763 1284.48 796.711C1281.18 799.78 1280.71 803.738 1279.63 807.851C1278.2 813.261 1275.17 818.209 1271.9 822.711C1268.39 827.572 1263.66 831.86 1257.6 832.986C1251.38 834.147 1244.85 832.049 1239.3 829.339C1228.39 824.017 1219.76 816.374 1213.5 805.933C1207.28 795.575 1202.79 783.595 1199.71 771.945C1196.36 759.281 1195.8 746.441 1196.15 733.412C1196.33 726.696 1196.8 720.087 1199.04 713.701C1200 710.982 1199.83 711.433 1201.05 708.918C1202.05 706.859 1203.18 704.858 1204.45 702.959C1207.74 698.05 1212.11 694.209 1217.44 691.65C1222.94 688.998 1218.13 680.806 1212.65 683.448C1202.1 688.527 1195.13 698.147 1190.82 708.758C1185.75 721.218 1186.04 735.942 1186.71 749.194C1187.45 763.87 1191.01 777.743 1196.24 791.418C1200.83 803.398 1206.6 815.077 1215.67 824.338C1224.73 833.579 1238.07 841.349 1251.11 842.631C1265.94 844.092 1276.25 834.205 1283.41 822.439C1286.71 817.024 1288.2 811.722 1289.85 805.734C1289.92 805.447 1290 805.166 1290.1 804.884C1290.52 803.626 1289.63 805.593 1290.3 804.452C1290.27 804.505 1291.51 803.155 1291.08 803.476C1291.61 803.078 1292.21 802.728 1292.82 802.466C1291.67 802.961 1295.21 802.126 1293.94 802.233C1295.7 802.082 1297.19 802.238 1298.21 802.437C1300.44 802.869 1302.63 803.447 1304.81 804.088C1310.34 805.71 1315.8 807.54 1321.37 808.992C1336.33 812.892 1352.96 814.907 1368.35 812.737C1381.88 810.828 1393.94 803.724 1403.06 793.671C1414.62 780.924 1422.61 764.137 1425.98 747.262C1430.98 722.267 1426.95 695.161 1414.82 672.73C1408.89 661.765 1400.79 652.014 1390.7 644.672C1378.76 635.989 1364.14 632.002 1349.52 631.385C1327.14 630.443 1305.53 638.194 1288.99 653.456C1284.15 657.924 1279.67 662.77 1275.22 667.622C1269.66 673.682 1264.44 680.641 1258.07 685.871C1256.32 687.308 1254.38 688.381 1252.3 688.503C1252.31 688.503 1250.95 688.129 1251.62 688.372C1252.25 688.6 1251.15 688.09 1251.12 688.071C1250.18 687.42 1249.24 686.74 1248.26 686.133C1243.6 683.229 1237.95 681.398 1232.54 680.519C1225.55 679.378 1219.07 680.573 1212.65 683.438C1210.31 684.482 1209.75 687.896 1210.94 689.935C1212.36 692.354 1215.09 692.698 1217.44 691.65Z"
          fill="#fff"/>
    <path d="M1405.19 734.645C1401.46 741.385 1393.71 747.426 1385.99 745.236C1380.12 743.58 1376.81 737.903 1373.81 732.848C1369.15 724.957 1363.59 717.202 1355.51 712.346C1346.89 707.179 1336.31 705.858 1326.09 705.659C1311.41 705.377 1308.12 705.013 1303.94 701.39C1297.4 695.772 1296.78 685.297 1298.07 678.528C1300.85 673.866 1304.1 669.486 1307.78 665.494L1303.55 669.175C1309.55 660.662 1319.43 655.694 1329.37 652.519C1341.89 648.532 1355.84 647.012 1367.91 652.154C1376.25 655.694 1382.98 662.1 1389.35 668.5C1392.8 672.011 1396.26 675.58 1398.87 679.761C1402.07 684.875 1403.89 690.746 1405.67 696.5C1407.35 702.119 1409.06 707.762 1409.9 713.579C1410.07 720.63 1409.09 727.681 1405.19 734.645Z"
          fill="#FD6CCB"/>
    <path d="M1382.05 688.877C1386.6 678.955 1377.8 665.173 1362.4 658.093C1346.99 651.013 1330.81 653.317 1326.25 663.238C1321.7 673.159 1330.5 686.942 1345.91 694.021C1361.32 701.101 1377.5 698.798 1382.05 688.877Z"
          fill="#fff"/>
    <path d="M1384.87 770.401C1379.81 774.699 1370.42 782.478 1356.8 784.445C1349.81 785.45 1343.91 784.615 1342.76 784.445C1342.76 784.445 1333.95 783.134 1325.92 778.826C1325.47 778.583 1322.75 777.112 1319.59 775.378C1318.08 774.558 1316.81 773.868 1316.66 773.771C1308.26 768.182 1301.44 760.456 1295.54 752.259C1292.99 748.748 1290.57 745.067 1288.95 741.021C1287.12 736.442 1286.4 731.499 1286.09 726.555C1285.08 709.845 1289.4 692.849 1298.07 678.523C1296.78 685.293 1297.4 695.767 1303.94 701.386C1308.12 705.009 1311.41 705.373 1326.09 705.655C1336.31 705.849 1346.89 707.17 1355.51 712.341C1363.6 717.202 1369.15 724.953 1373.81 732.844C1376.82 737.899 1380.13 743.571 1385.99 745.232C1393.71 747.422 1401.46 741.386 1405.19 734.641C1409.09 727.677 1410.07 720.626 1409.91 713.575C1410.05 714.42 1410.23 715.677 1410.36 717.197C1412.79 746.052 1387.45 768.211 1384.87 770.401Z"
          fill="#39A1FF"/>
    <path d="M1398.9 1042.85L1348.37 1068.13C1265.65 1090.54 1224.19 1022.96 1232.47 970.696C1236.63 944.24 1253.58 921.683 1284.37 916.769C1300.23 914.214 1316.4 917.638 1330.66 924.971C1366.06 943.142 1387.84 977.383 1395.62 1013.75C1396.91 1019.65 1397.8 1025.58 1398.34 1031.53C1398.68 1035.32 1398.87 1039.08 1398.9 1042.85Z"
          fill="#fff"/>
    <path d="M1259.78 923.965C1246.94 930.195 1241.1 944.977 1236.52 958.497C1231.62 972.968 1226.82 988.338 1230 1003.28C1231.85 1012 1236.31 1019.93 1241.28 1027.31C1254.83 1047.38 1273.82 1065.13 1297.33 1070.87C1304.74 1072.68 1312.4 1073.25 1320.03 1073.48C1337.68 1074.01 1356.1 1072.52 1371.39 1063.69C1377.35 1060.26 1382.7 1055.76 1387.11 1050.49C1391.1 1045.72 1394.37 1040.21 1395.8 1034.15C1396.86 1029.62 1396.89 1024.92 1396.62 1020.29C1394.36 980.34 1369.9 942.37 1334.47 923.815C1330.48 921.726 1326.35 919.862 1322.01 918.691C1316.6 917.234 1310.95 916.875 1305.35 916.681C1299.08 916.462 1292.8 916.443 1286.53 916.623C1276.06 916.919 1264.12 918.575 1258.28 927.267L1259.78 923.965Z"
          fill="#fff"/>
    <path d="M1396.2 1015.73C1396.08 1016.48 1395.97 1017.24 1395.79 1017.98C1394.37 1024.04 1391.1 1029.55 1387.1 1034.33C1382.69 1039.6 1377.35 1044.1 1371.39 1047.53C1356.09 1056.36 1337.67 1057.85 1320.02 1057.32C1312.4 1057.09 1304.74 1056.52 1297.33 1054.71C1273.81 1048.96 1254.83 1031.22 1241.28 1011.15C1236.3 1003.77 1231.84 995.836 1229.99 987.124C1229.83 986.352 1229.7 985.575 1229.57 984.803C1228.74 990.975 1228.69 997.166 1229.99 1003.29C1231.84 1012 1236.3 1019.93 1241.28 1027.31C1254.83 1047.38 1273.81 1065.12 1297.33 1070.87C1304.74 1072.68 1312.4 1073.25 1320.02 1073.48C1337.67 1074.01 1356.09 1072.52 1371.39 1063.69C1377.34 1060.26 1382.69 1055.76 1387.1 1050.49C1391.1 1045.72 1394.36 1040.21 1395.79 1034.15C1396.86 1029.62 1396.88 1024.92 1396.62 1020.29C1396.53 1018.76 1396.35 1017.25 1396.2 1015.73Z"
          fill="#000072"/>
    <path d="M1348.91 1070.1C1323.51 1080.01 1293.75 1080.05 1269.8 1065.93C1232.53 1043.58 1215.17 993.573 1230.51 952.849C1238.86 930.191 1258.86 914.025 1282.71 910.354C1323.68 903.788 1362.26 932.07 1382.82 965.558C1386.45 971.74 1390.23 978.713 1392.82 985.361C1400.44 1003.54 1404.12 1023.19 1404.16 1042.79C1404.17 1045.7 1401.82 1048.06 1398.91 1048.07C1396.03 1048.08 1393.69 1045.76 1393.64 1042.91C1392.58 1008.94 1379.67 975.226 1355.61 951.043C1341.47 937.417 1323.74 925.854 1304.05 923.135C1207.07 913.578 1218.53 1073.09 1327.11 1068.06C1333.86 1067.83 1341.16 1067 1347.84 1066.15C1350.29 1065.69 1351.26 1069.27 1348.91 1070.1Z"
          fill="#000072"/>
    <path d="M1395.66 525.905C1334.73 495.482 1353.4 417.969 1430.98 432.557L1467.49 444.279C1492.7 449.334 1530.98 433.669 1573.3 411.583C1581.54 407.285 1587.92 400.37 1591.71 392.115C1619.01 332.589 1677.9 322.896 1693.9 366.912C1697.13 383.374 1695.74 399.72 1688.33 415.92C1685.52 422.058 1688.09 429.264 1694.3 432.309C1699.29 434.752 1703.87 437.893 1708.11 441.652C1725.17 456.808 1733.09 479.709 1726.36 501.105C1718.68 525.532 1695.72 536.395 1667.12 528.688L1645.72 519.073C1635.8 514.615 1624.49 514.057 1614.1 517.388C1580.83 528.062 1553.94 537.191 1531.68 552.318C1522.92 558.276 1516.85 562.127 1511.32 568.542C1507.98 572.417 1507.09 574.36 1496.71 589.642C1490.62 598.621 1487.57 603.108 1486.98 603.71C1476.62 614.185 1458.8 618.608 1443.16 615.433C1438.33 614.452 1427.49 612.252 1419.61 603.525C1404.66 586.99 1399.87 570.698 1401.39 535.234C1401.55 531.31 1399.28 527.712 1395.66 525.905Z"
          fill="#fff"/>
    <path d="M1453.31 623.747C1449.42 623.747 1445.52 623.373 1441.7 622.596C1436.3 621.503 1423.68 618.939 1414.18 608.431C1397.59 590.07 1392.51 571.519 1394.08 534.924C1394.13 533.938 1393.48 532.991 1392.39 532.447C1355.75 514.149 1347.16 481.711 1354.69 459.314C1361.76 438.253 1386.35 416.731 1432.32 425.375C1432.62 425.428 1432.92 425.506 1433.21 425.598L1469.32 437.19C1494.75 442.007 1536.41 422.592 1569.93 405.106C1576.53 401.663 1581.91 395.966 1585.07 389.066C1601.42 353.427 1630.44 331.133 1659.06 332.317C1678.44 333.109 1693.64 344.807 1700.76 364.411C1700.89 364.766 1700.99 365.13 1701.06 365.499C1704.73 384.142 1702.68 402.129 1694.97 418.96C1693.79 421.539 1694.88 424.452 1697.52 425.744C1702.96 428.415 1708.15 431.926 1712.95 436.185C1732.65 453.671 1740.64 480.016 1733.33 503.296C1724.38 531.743 1697.65 544.481 1665.22 535.74C1664.85 535.638 1664.48 535.507 1664.13 535.351L1642.73 525.736C1634.48 522.026 1625.1 521.531 1616.34 524.342C1582.51 535.191 1556.93 543.985 1535.79 558.359L1533.52 559.899C1526.14 564.901 1521.26 568.198 1516.85 573.316C1514.96 575.506 1513.96 577.012 1510.64 581.994C1508.82 584.733 1506.36 588.443 1502.75 593.751L1502.6 593.979C1494.28 606.221 1493.18 607.824 1492.16 608.853C1482.8 618.313 1468.14 623.747 1453.31 623.747ZM1412.94 438.113C1390.78 438.113 1374.07 447.485 1368.54 463.971C1362.96 480.56 1370.09 504.976 1398.92 519.37C1405.13 522.473 1408.96 528.825 1408.67 535.545C1407.26 568.475 1411.08 583.208 1425.01 598.626C1431.28 605.57 1440.27 607.396 1444.59 608.27C1458.01 610.99 1473.17 607.09 1481.57 598.767C1482.48 597.577 1485.88 592.575 1490.51 585.762L1490.66 585.539C1494.23 580.28 1496.68 576.609 1498.48 573.899C1501.99 568.625 1503.3 566.654 1505.78 563.769C1511.46 557.184 1517.58 553.042 1525.33 547.797L1527.57 546.277C1550.33 530.801 1576.87 521.657 1611.87 510.43C1624.08 506.516 1637.16 507.215 1648.71 512.406L1669.57 521.778C1693.89 528.13 1712.95 519.399 1719.39 498.916C1725.08 480.846 1718.89 461.004 1703.26 447.121C1699.45 443.736 1695.36 440.963 1691.09 438.875C1681.33 434.092 1677.2 422.675 1681.69 412.88C1688.11 398.861 1689.79 384.467 1686.84 368.889C1681.71 355.258 1671.65 347.464 1658.47 346.925C1639.97 346.201 1614.11 360.789 1598.35 395.165C1593.84 404.999 1586.15 413.133 1576.69 418.067C1522.77 446.198 1489.68 456.177 1466.06 451.447C1465.8 451.394 1465.53 451.326 1465.27 451.239L1429.19 439.657C1423.53 438.618 1418.08 438.113 1412.94 438.113ZM1481.77 598.573C1481.76 598.582 1481.75 598.592 1481.74 598.602C1481.75 598.597 1481.76 598.587 1481.77 598.573Z"
          fill="#fff"/>
    <path d="M1410.28 494.643C1423.05 494.643 1433.41 487.009 1433.41 477.593 1433.41 468.176 1423.05 460.543 1410.28 460.543 1397.51 460.543 1387.16 468.176 1387.16 477.593 1387.16 487.009 1397.51 494.643 1410.28 494.643ZM1574.38 465.053C1598.73 455.841 1616.63 443.509 1614.36 437.508 1612.09 431.507 1590.52 434.11 1566.17 443.322 1541.83 452.534 1523.93 464.867 1526.19 470.867 1528.46 476.868 1550.04 474.265 1574.38 465.053ZM1654.94 402.075C1664.35 402.075 1671.98 394.442 1671.98 385.025 1671.98 375.609 1664.35 367.976 1654.94 367.976 1645.53 367.976 1637.9 375.609 1637.9 385.025 1637.9 394.442 1645.53 402.075 1654.94 402.075Z"
          fill="#fff"/>
</svg>