<svg width="2001" height="2000" viewBox="0 0 2001 2000" fill="none" xmlns="http://www.w3.org/2000/svg">
<rect width="2000" height="2000" transform="translate(0.617188)" fill="#49D2FF"/>
<path d="M1330.75 1170.65C1280.87 1180.98 1238.23 1174.61 1203.79 1149.22C1193.96 1142.02 1184.81 1133.26 1176.36 1122.9L1052.85 979.65L1120.22 962.8C1124.4 961.032 1128.92 959.74 1133.75 958.866C1149.08 956.03 1167.52 957.351 1188.24 960.915C1202.21 963.329 1217.26 966.786 1233.09 970.691C1280.28 982.263 1334.62 997.88 1389.69 1002.12C1392.08 1007.82 1394.16 1013.72 1395.93 1019.73C1397.08 1023.6 1398.09 1027.57 1398.96 1031.52C1411.33 1088.21 1395.06 1151.58 1330.75 1170.65Z" fill="#FFAD40"/>
<path d="M1330.75 1170.65C1280.87 1180.98 1238.23 1174.61 1203.79 1149.22C1193.32 1122.98 1181.98 1097.11 1169.76 1071.67L1171.7 1064.51C1194.38 1077.93 1220.37 1085.68 1246.71 1086.92C1253.98 1087.26 1261.45 1087.09 1268.21 1084.45C1274.97 1081.81 1280.98 1076.31 1282.52 1069.2C1290.21 1070.57 1297.89 1071.93 1305.58 1073.3C1306.08 1078.82 1307.15 1086.82 1309.7 1096.22C1313.35 1109.75 1315.3 1116.56 1320.93 1118.69C1327.5 1121.17 1336.33 1116.19 1340.58 1110.26C1347.15 1101.07 1345.28 1086 1334.96 1073.75C1339.89 1073.12 1374.77 1068.35 1385.91 1052.65C1387.44 1050.5 1388.69 1048.27 1388.69 1048.27C1393.43 1039.73 1395.23 1029.82 1395.93 1019.74C1396.07 1017.74 1396.18 1015.75 1396.24 1013.75C1397.53 1019.65 1398.43 1025.58 1398.96 1031.53C1411.34 1088.21 1395.06 1151.58 1330.75 1170.65Z" fill="#FF9343"/>
<path d="M1287.65 1181.43C1240.29 1181.43 1201.42 1163.16 1171.7 1126.81L1048.24 983.632C1046.86 982.03 1046.41 979.83 1047.05 977.815C1047.68 975.799 1049.32 974.26 1051.37 973.745L1118.3 957.001C1150.97 943.54 1200.43 956.069 1257.66 970.56C1298.31 980.859 1344.4 992.529 1390.16 996.049C1392.43 996.224 1394.42 997.662 1395.31 999.774C1412.63 1041.2 1413.31 1088.16 1397.09 1122.34C1384.45 1148.98 1362.1 1167.7 1332.47 1176.49C1332.31 1176.54 1332.15 1176.57 1331.98 1176.61C1316.48 1179.83 1301.69 1181.43 1287.65 1181.43ZM1063.92 983.161L1180.97 1118.92C1181 1118.96 1181.04 1119 1181.07 1119.04C1216.96 1162.96 1265.43 1177.92 1329.26 1164.73C1355.73 1156.82 1374.86 1140.8 1386.1 1117.11C1400.44 1086.88 1400.13 1045.34 1385.46 1007.88C1339.92 1003.96 1294.7 992.504 1254.67 982.365C1199.31 968.345 1151.49 956.229 1122.58 968.408C1122.29 968.53 1122 968.627 1121.69 968.705L1063.92 983.161Z" fill="#000072"/>
<path d="M1188.24 960.92C1186.92 964.713 1185.31 968.617 1183.38 972.633C1183.38 972.633 1174.56 990.863 1158.11 1006.34C1152.5 1011.62 1147.5 1015.13 1141.27 1017.58C1136.78 1019.32 1132.82 1020.05 1130.04 1020.38L1129.37 1016.9C1108.82 1000.84 1094.92 990.023 1090.8 986.959C1090.18 986.483 1087.99 984.798 1085.13 982.467C1083.25 980.923 1081.42 979.349 1079.69 977.693C1098.21 973.061 1116.04 966.063 1133.75 958.876C1149.08 956.03 1167.52 957.351 1188.24 960.92Z" fill="#FF9343"/>
<path d="M993.023 1318.74C994.46 1373.73 998.794 1406.74 1000.4 1443.34C1004.86 1506.29 989.81 1647.14 998.677 1694.19C1002.72 1715.64 1038.74 1730.68 1120.94 1730.68C1167.35 1730.68 1194.06 1718.11 1199.2 1699.76C1209.66 1662.39 1168.76 1644.75 1168.76 1644.75C1168.76 1644.75 1217.42 1494.44 1227.49 1374L993.023 1318.74Z" fill="#FFAD40"/>
<path d="M995.872 1640.1C995.654 1662.61 996.323 1681.71 998.682 1694.19C1002.73 1715.63 1038.75 1730.69 1120.93 1730.69C1167.34 1730.69 1194.08 1718.11 1199.2 1699.78C1209.67 1662.39 1168.76 1644.75 1168.76 1644.75C1168.76 1644.75 1168.82 1644.57 1168.94 1644.22C1172.08 1634.41 1217.78 1490.31 1227.51 1374L993.028 1318.73C994.465 1373.74 998.803 1406.74 1000.41 1443.34C1003.69 1489.58 996.42 1577.86 995.872 1640.1Z" fill="#FFAD40"/>
<path d="M1168.95 1644.21C1168.82 1644.56 1168.77 1644.75 1168.77 1644.75C1168.77 1644.75 1197 1656.92 1200.55 1682.48C1201.28 1687.68 1200.99 1693.44 1199.21 1699.78C1194.09 1718.12 1167.37 1730.7 1120.93 1730.7C1038.75 1730.7 1002.73 1715.64 998.697 1694.2C996.328 1681.7 995.654 1662.61 995.872 1640.12C995.979 1628.75 996.304 1616.52 996.731 1603.84C998.75 1547.03 1003.11 1481.15 1000.42 1443.34C998.803 1406.74 994.47 1373.74 993.043 1318.74L1227.52 1374.01C1225.69 1395.72 1222.65 1418.37 1218.83 1440.97C1204.67 1524.87 1180.25 1607.59 1171.77 1635.14C1170.32 1639.9 1169.33 1643.02 1168.95 1644.21Z" fill="#FFAD40"/>
<path d="M1199.21 1699.78C1194.09 1718.12 1167.37 1730.7 1120.93 1730.7C1038.75 1730.7 1002.73 1715.64 998.697 1694.2C996.328 1681.7 995.654 1662.61 995.872 1640.12C995.979 1628.75 996.304 1616.52 996.731 1603.84L999.342 1601.85C1014.47 1608.99 1030.57 1614.13 1047.01 1617.07C1068.15 1620.84 1089.84 1620.97 1111.19 1618.79C1134.18 1616.42 1156.89 1611.39 1178.62 1603.47C1176.63 1614.13 1173.83 1624.66 1170.25 1634.9C1170.76 1634.98 1171.27 1635.06 1171.78 1635.14C1170.33 1639.91 1169.33 1643.03 1168.95 1644.22C1168.82 1644.57 1168.77 1644.76 1168.77 1644.76C1168.77 1644.76 1197 1656.93 1200.55 1682.49C1201.28 1687.68 1200.99 1693.44 1199.21 1699.78Z" fill="#FFF3E9"/>
<path d="M1199.2 1699.78C1194.09 1718.12 1167.36 1730.69 1120.93 1730.69C1038.77 1730.69 1002.74 1715.64 998.697 1694.2C996.333 1681.71 995.654 1662.61 995.872 1640.1C995.921 1633.74 996.066 1627.11 996.236 1620.27C996.285 1618.57 996.333 1616.84 996.382 1615.11C996.43 1612.94 996.503 1610.75 996.576 1608.56C996.624 1607 996.673 1605.42 996.721 1603.83L996.746 1603.81L999.352 1601.86C1007.48 1605.71 1015.91 1608.98 1024.5 1611.6C1031.9 1613.9 1039.42 1615.72 1047.02 1617.06C1068.15 1620.84 1089.84 1620.99 1111.19 1618.79C1134.17 1616.43 1156.88 1611.39 1178.63 1603.47C1176.63 1614.14 1173.83 1624.66 1170.25 1634.89C1170.76 1634.99 1171.27 1635.06 1171.78 1635.14C1170.32 1639.91 1169.32 1643.03 1168.96 1644.22C1168.81 1644.56 1168.77 1644.76 1168.77 1644.76C1168.77 1644.76 1197.01 1656.94 1200.56 1682.49C1200.68 1683.34 1200.78 1684.22 1200.83 1685.1C1201.12 1689.59 1200.68 1694.49 1199.2 1699.78Z" fill="#FFF3E9"/>
<path d="M1227.51 1374C1225.71 1395.72 1222.64 1418.38 1218.82 1440.99C1168.77 1528.6 1048.36 1500.57 1036.85 1543.98C1034.05 1554.53 1027.06 1582.39 1024.51 1611.6C1015.91 1608.97 1007.49 1605.7 999.357 1601.86L996.75 1603.81C998.721 1547.02 1003.1 1481.13 1000.42 1443.33C998.794 1406.74 994.46 1373.73 993.023 1318.73L1227.51 1374Z" fill="#FF9343"/>
<path d="M1201.13 1687.77C1201.13 1691.52 1200.6 1695.51 1199.41 1699.78C1194.3 1718.12 1167.57 1730.69 1121.14 1730.69C1038.98 1730.69 1002.95 1715.64 998.904 1694.2C996.541 1681.71 995.861 1662.61 996.08 1640.1C996.104 1636.91 996.153 1633.67 996.225 1630.36C996.25 1628.7 996.274 1627.05 996.322 1625.37C996.444 1619.88 996.589 1614.28 996.784 1608.56C996.832 1606.98 996.905 1605.39 996.953 1603.81L999.559 1601.86C1007.69 1605.71 1016.11 1608.98 1024.71 1611.6C1021.3 1650.24 1025.61 1691.14 1057.65 1697.2C1138.71 1712.55 1183.68 1691.82 1200.77 1682.49C1200.89 1683.34 1200.98 1684.22 1201.03 1685.1C1201.11 1685.97 1201.13 1686.84 1201.13 1687.77Z" fill="#D8D0CB"/>
<path d="M1000.32 1318.55C1001.1 1360.16 1005.61 1401.84 1007.72 1443.49C1009.98 1485.55 1006.97 1527.68 1005.42 1569.54C1004.24 1597.35 1003 1625.16 1003.15 1652.72C1003.2 1659.61 1003.38 1666.46 1003.75 1673.25C1004.13 1680 1004.72 1686.84 1005.89 1693C1006.38 1695.26 1007.34 1697.41 1008.88 1699.44C1027.66 1721.22 1084 1722.48 1112.01 1723.3C1131.92 1723.61 1152.4 1722.96 1171.08 1716C1180.52 1712.22 1189.74 1706.98 1192.34 1697.04C1192.67 1695.98 1193.05 1693.82 1193.22 1692.72C1195.81 1677.53 1186.05 1664.06 1173.73 1655.96C1171.34 1654.36 1168.27 1652.54 1165.79 1651.42C1162.35 1649.86 1160.69 1646 1161.8 1642.49C1186.12 1566 1203.66 1486.67 1218.22 1407.75C1220.36 1396.39 1221.93 1384.96 1223.88 1373.54C1224.22 1371.55 1226.1 1370.21 1228.09 1370.55C1229.92 1370.86 1231.2 1372.49 1231.13 1374.3C1230.52 1397.2 1228.25 1421.14 1225.11 1443.9C1222.08 1466.98 1217.39 1489.79 1212.02 1512.42C1201.56 1557.77 1189.7 1602.54 1175.7 1646.99L1171.64 1638.03C1175.53 1639.81 1178.48 1641.58 1181.91 1643.84C1203.21 1657.79 1214.93 1682.3 1204.24 1706.94C1194.83 1725.41 1173.35 1731.96 1154.78 1735.36C1126.39 1739.78 1097.91 1738.04 1069.42 1735.52C1043.79 1732.27 998.714 1726.29 991.57 1695.85C988.93 1681.25 988.789 1667.33 988.547 1652.82C988.406 1596.85 992.939 1541.28 993.837 1485.55C994.861 1429.74 986.567 1374.73 985.722 1318.91C985.732 1309.45 999.699 1308.69 1000.32 1318.55Z" fill="#000072"/>
<path d="M890.329 1376.21C911.11 1467.86 1121.55 1493.43 1187.55 1394.47C1191.93 1387.91 1195.78 1381.15 1199.15 1374.25C1171.11 1404.12 1123.26 1432.56 1043.36 1429.79C900.448 1424.81 905.417 1309.98 893.003 1238.62C892.042 1233.08 890.29 1227.77 888.014 1222.68C886.694 1285.51 882.588 1342.06 890.329 1376.21Z" fill="#F9D3B7"/>
<path d="M891.828 1381.71C919.554 1468.85 1122.89 1491.4 1187.56 1394.47C1201.48 1373.6 1210.14 1350.85 1214.64 1327.01C1190.94 1361.89 1142.47 1405.57 1047.12 1411.2C970.93 1415.67 919.574 1396.59 891.828 1381.71Z" fill="#F9D3B7"/>
<path d="M800.361 1417.41C800.361 1417.41 832.538 1475.25 897.351 1487.12C1056.68 1516.34 1156.72 1458.21 1156.72 1458.21C1202.15 1425 1225.59 1381.53 1232.99 1330.38C1236.71 1304.67 1236.38 1277.02 1232.74 1247.76C1226.54 1197.83 1199.66 1124.21 1164.07 1057.04C1164.07 1057.04 1138.89 955.753 983.344 965.309C827.782 974.866 818.473 1072.4 818.473 1072.4C809.189 1106.47 802.861 1135.29 798.469 1159.39C788.524 1214.16 788.655 1244.68 787.398 1257.63C776.984 1363.99 793.014 1401.04 800.361 1417.41Z" fill="#FFAD40"/>
<path d="M831.038 1038.56C959.811 1068.84 1065.22 1053.81 1141.67 1017.65C1129.94 1004.01 1112.51 989.57 1086.93 979.217C1050.45 964.455 1020.43 963.887 983.339 965.319C932.415 967.286 859.574 970.102 837.415 1013.93C832.766 1023.14 831.402 1032.06 831.038 1038.56Z" fill="#FF9343"/>
<path d="M1098.59 1425.1C1156.56 1425.1 1203.56 1363.6 1203.56 1287.73C1203.56 1211.87 1156.56 1150.37 1098.59 1150.37C1040.61 1150.37 993.608 1211.87 993.608 1287.73C993.608 1363.6 1040.61 1425.1 1098.59 1425.1Z" fill="#FFF3E9"/>
<path d="M1098.59 1425.1C1156.56 1425.1 1203.56 1363.6 1203.56 1287.73C1203.56 1211.87 1156.56 1150.37 1098.59 1150.37C1040.61 1150.37 993.608 1211.87 993.608 1287.73C993.608 1363.6 1040.61 1425.1 1098.59 1425.1Z" fill="#FFF3E9"/>
<path d="M1098.59 1425.1C1156.56 1425.1 1203.56 1363.6 1203.56 1287.73C1203.56 1211.87 1156.56 1150.37 1098.59 1150.37C1040.61 1150.37 993.608 1211.87 993.608 1287.73C993.608 1363.6 1040.61 1425.1 1098.59 1425.1Z" fill="#FFF3E9"/>
<path d="M1203.55 1287.73C1203.55 1325 1192.21 1358.81 1173.78 1383.54C1146.68 1400.4 1110.29 1415.3 1064.57 1417.74C1064.57 1417.74 1064.57 1417.74 1064.55 1417.74C1023.28 1399.21 993.607 1348.03 993.607 1287.73C993.607 1211.85 1040.61 1150.37 1098.58 1150.37C1156.57 1150.37 1203.55 1211.86 1203.55 1287.73Z" fill="white"/>
<path d="M1232.98 1330.39C1225.58 1381.54 1202.14 1425 1156.71 1458.23C1156.71 1458.23 1056.68 1516.35 897.345 1487.12C832.541 1475.25 800.354 1417.43 800.354 1417.43C793.002 1401.03 776.982 1363.98 787.377 1257.63C788.644 1244.67 788.498 1214.14 798.452 1159.39L862.164 1143.38C862.164 1143.38 847.925 1200.87 851.672 1257.63C855.447 1315.06 885.755 1406.88 1033.16 1417.43C1044.06 1418.2 1054.53 1418.28 1064.54 1417.74C1064.56 1417.74 1064.56 1417.74 1064.56 1417.74C1075.23 1422.52 1086.67 1425.1 1098.58 1425.1C1128.08 1425.1 1154.71 1409.19 1173.77 1383.54C1213.26 1359.01 1232.98 1330.39 1232.98 1330.39Z" fill="#FF9343"/>
<path d="M1173.78 1383.54C1154.72 1409.19 1128.09 1425.1 1098.58 1425.1C1086.67 1425.1 1075.23 1422.52 1064.57 1417.74C1110.29 1415.3 1146.68 1400.4 1173.78 1383.54Z" fill="#D7D0CA"/>
<path d="M788.662 1652.63C788.905 1673.1 787.405 1686.28 792.035 1699.5C802.465 1729.33 830.739 1735.8 913.218 1733.31C957.193 1731.98 970.427 1714.17 974.217 1699.01C980.347 1674.47 967.248 1650.4 967.248 1650.4C967.248 1650.4 967.248 1650.37 967.248 1650.35C967.603 1647.07 983.943 1494.43 986.743 1493.72C991.199 1492.6 1042.45 1495.56 1104.22 1479.12C1104.22 1479.12 962.405 1487.73 865.298 1424.6C807.415 1386.97 782.179 1319.91 782.179 1319.91C787.138 1384.27 784.518 1549.91 788.395 1642.06C788.551 1645.78 788.638 1649.29 788.662 1652.63Z" fill="#F87B38"/>
<path d="M1104.24 1479.1C1042.46 1495.56 991.208 1492.59 986.743 1493.72C986.045 1493.89 984.482 1503.64 982.545 1518.18C978.241 1550.56 972.019 1606.63 969.005 1634.19C967.981 1643.64 967.336 1649.73 967.258 1650.35C967.258 1650.38 967.258 1650.4 967.258 1650.4C967.258 1650.4 980.366 1674.48 974.232 1699.02C970.437 1714.15 957.222 1731.98 913.238 1733.31C830.763 1735.78 802.47 1729.32 792.055 1699.5C787.425 1686.28 788.934 1673.1 788.691 1652.61C788.662 1649.3 788.585 1645.8 788.425 1642.05C787.886 1629.26 787.483 1615.04 787.158 1599.85C787.129 1599.64 787.129 1599.42 787.129 1599.2C787.129 1598.88 787.1 1598.53 787.1 1598.18C786.425 1566.8 786.129 1531.46 785.886 1496.29C785.401 1426.15 785.027 1356.58 782.198 1319.9C782.198 1319.9 807.42 1386.96 865.323 1424.59C962.405 1487.72 1104.24 1479.1 1104.24 1479.1Z" fill="#FFAD40"/>
<path d="M782.183 1319.9C785.008 1356.57 785.382 1426.15 785.886 1496.28C856.15 1469.67 951.218 1504.93 982.536 1518.19C984.477 1503.65 986.045 1493.89 986.748 1493.72C991.203 1492.59 1042.46 1495.55 1104.23 1479.11C1104.23 1479.11 962.405 1487.72 865.303 1424.58C807.415 1386.96 782.183 1319.9 782.183 1319.9Z" fill="#FF9343"/>
<path d="M974.222 1699.02C970.427 1714.15 957.212 1731.98 913.228 1733.31C830.754 1735.78 802.46 1729.32 792.045 1699.5C787.415 1686.28 788.924 1673.1 788.682 1652.61C788.653 1649.3 788.575 1645.8 788.415 1642.05C787.876 1629.26 787.473 1615.04 787.148 1599.85C787.444 1600.12 787.847 1600.34 788.196 1600.47C802.411 1606.48 817.67 1609.52 832.986 1611.51C878.504 1617.36 925.235 1613.8 969.325 1601.06C969.219 1612.14 969.112 1623.15 969 1634.19C967.976 1643.65 967.331 1649.73 967.253 1650.35C967.253 1650.38 967.253 1650.41 967.253 1650.41C967.253 1650.41 980.361 1674.48 974.222 1699.02Z" fill="#FFF3E9"/>
<path d="M792.043 1699.49C802.472 1729.33 830.747 1735.79 913.226 1733.3C957.2 1731.98 970.435 1714.17 974.225 1699.01C976.627 1689.39 976.079 1679.86 974.511 1671.8C974.424 1672.22 974.337 1672.66 974.225 1673.08C970.43 1688.24 957.2 1706.05 913.226 1707.38C830.747 1709.87 802.472 1703.4 792.043 1673.57C789.704 1666.88 788.932 1660.22 788.714 1652.6C788.689 1652.6 788.689 1652.63 788.67 1652.63C788.913 1673.11 787.413 1686.28 792.043 1699.49Z" fill="#DAD2CD"/>
<path d="M789.461 1319.33C795.227 1432.88 791.786 1546.54 795.998 1659.97C796.052 1672.54 794.95 1685.58 798.959 1697.16C804.758 1715.29 821.303 1721.33 840.026 1723.98C852.62 1725.83 865.757 1726.31 878.895 1726.46C888.383 1726.64 899.055 1726.31 908.62 1726.13C923.83 1725.91 940.869 1724.07 953.075 1716.38C974.424 1703.23 970.391 1673.39 960.84 1653.9C960.103 1652.55 959.831 1651.05 959.996 1649.63L967.615 1580.81C971.294 1551.53 973.735 1522.02 979.219 1492.88C979.889 1490.4 981.189 1488.14 983.931 1486.98C985.659 1486.38 984.684 1486.73 985.266 1486.57L985.965 1486.44C986.523 1486.34 986.669 1486.35 986.95 1486.31C997.239 1485.77 1008.28 1485.64 1018.53 1484.96C1046.79 1483.83 1075.36 1480.87 1103.28 1475.6C1107.55 1474.88 1109.48 1481.04 1105.16 1482.66C1083.12 1490.38 1060.09 1495.21 1036.88 1498.29C1025.29 1499.85 1013.56 1500.48 1001.89 1500.64C998.544 1500.65 991.585 1500.76 988.367 1500.88C988.294 1500.88 988.076 1500.89 988.285 1500.88C988.338 1500.87 988.396 1500.85 988.45 1500.84C990.41 1500.42 992.347 1498.8 993.046 1497.31C986.227 1540.16 979.763 1604.98 974.507 1651.18L973.662 1646.91C987.11 1672.75 988.862 1711.97 960.884 1728.73C942.219 1740.36 920.006 1740.62 898.943 1740.97C868.747 1740.73 820.584 1743.85 797.377 1721.72C780.492 1705.55 780.876 1681.08 781.39 1659.91C779.784 1599.86 778.6 1539.83 778.459 1479.95C777.857 1426.89 778.231 1373.28 774.897 1320.46C774.382 1310.91 788.389 1309.47 789.461 1319.33Z" fill="#000072"/>
<path d="M1154.57 1455.28C1214.51 1406.28 1233.24 1339.65 1226.43 1264.52C1223.74 1228.62 1213.93 1193.73 1202.04 1159.8C1190.06 1125.56 1175.9 1092.02 1160.83 1058.75C1159.99 1056.91 1160.8 1054.74 1162.64 1053.9C1164.34 1053.12 1166.34 1053.77 1167.29 1055.33C1186.48 1086.88 1202.51 1120.29 1215.66 1154.83C1228.77 1189.54 1239.48 1225.97 1242.41 1263.19C1247.13 1319.03 1237.87 1379.72 1200.91 1423.89C1188.91 1438.57 1174.5 1451.02 1158.88 1461.18C1155.07 1463.53 1151.04 1458.29 1154.57 1455.28Z" fill="#000072"/>
<path d="M862.165 1143.39C838.909 1190.74 830.887 1245.18 824.078 1294.33C814.386 1364.31 807.092 1423.62 761.681 1436.68C708.248 1452.06 671.48 1419.02 663.186 1351.95C659.954 1325.93 660.522 1298.24 664.317 1270.18C680.065 1153.12 751.64 1029.62 836.943 994.747L862.165 1143.39Z" fill="#FFAD40"/>
<path d="M824.194 1293.17C824.17 1293.56 824.097 1293.95 824.073 1294.34C823.782 1296.53 823.49 1298.7 823.17 1300.87C822.563 1305.2 821.976 1309.47 821.37 1313.71C820.515 1319.8 819.642 1325.79 818.715 1331.63C818.472 1333.24 818.205 1334.85 817.958 1336.43C816.861 1343.08 815.72 1349.51 814.454 1355.73C814.09 1357.6 813.697 1359.43 813.284 1361.26C812.92 1362.99 812.527 1364.67 812.115 1366.35C812.066 1366.59 812.018 1366.81 811.945 1367.05C811.654 1368.32 811.338 1369.57 811.018 1370.78C810.46 1373.02 809.872 1375.21 809.242 1377.35C808.805 1378.94 808.339 1380.5 807.854 1382.03C807.096 1384.47 806.296 1386.85 805.442 1389.17C805.029 1390.32 804.612 1391.46 804.151 1392.55C803.394 1394.53 802.617 1396.43 801.763 1398.28C801.472 1398.94 801.156 1399.6 800.86 1400.23C800.545 1400.93 800.205 1401.62 799.86 1402.3C799.521 1402.95 799.205 1403.61 798.861 1404.24C798.157 1405.61 797.424 1406.95 796.619 1408.24C795.891 1409.51 795.109 1410.75 794.304 1411.96C793.915 1412.55 793.522 1413.11 793.11 1413.69C793.11 1413.74 793.061 1413.79 793.013 1413.84C792.207 1414.96 791.382 1416.05 790.528 1417.13C790.14 1417.64 789.722 1418.13 789.334 1418.61C788.849 1419.19 788.358 1419.76 787.825 1420.32C787.388 1420.8 786.946 1421.29 786.485 1421.75C786.461 1421.8 786.388 1421.88 786.315 1421.92C785.388 1422.88 784.442 1423.8 783.442 1424.68C782.981 1425.09 782.491 1425.51 782.006 1425.94C781.909 1426.04 781.812 1426.11 781.69 1426.19C780.715 1426.99 779.696 1427.77 778.672 1428.5C777.551 1429.33 776.429 1430.09 775.24 1430.77C774.658 1431.11 774.071 1431.48 773.464 1431.8C772.44 1432.38 771.372 1432.92 770.3 1433.43C769.96 1433.62 769.596 1433.77 769.252 1433.91C768.766 1434.11 768.276 1434.33 767.791 1434.52C767.136 1434.84 766.476 1435.08 765.796 1435.3C764.457 1435.81 763.069 1436.25 761.656 1436.66C758.395 1437.61 755.207 1438.37 752.091 1438.95C744.52 1440.37 737.337 1440.73 730.596 1440.1C729.815 1440.03 729.038 1439.95 728.281 1439.86C727.748 1439.81 727.233 1439.74 726.724 1439.64C726.068 1439.54 725.433 1439.44 724.802 1439.32C724.583 1439.3 724.389 1439.27 724.195 1439.2C723.268 1439.03 722.37 1438.84 721.468 1438.62C721.395 1438.62 721.322 1438.62 721.273 1438.57C720.347 1438.38 719.424 1438.11 718.497 1437.84C715.527 1436.98 712.654 1435.91 709.903 1434.65C709.097 1434.26 708.32 1433.87 707.515 1433.43C707.466 1433.43 707.418 1433.4 707.369 1433.36C706.714 1433.02 706.03 1432.65 705.375 1432.26C705.035 1432.09 704.695 1431.89 704.375 1431.68C703.744 1431.31 703.108 1430.92 702.501 1430.5C702.283 1430.38 702.089 1430.26 701.895 1430.12C701.288 1429.73 700.701 1429.31 700.119 1428.9C699.022 1428.12 697.978 1427.31 696.954 1426.44C695.518 1425.31 694.13 1424.07 692.79 1422.73C692.033 1422 691.305 1421.25 690.602 1420.49C689.971 1419.84 689.359 1419.15 688.753 1418.45C688.583 1418.28 688.437 1418.11 688.291 1417.94C687.782 1417.33 687.267 1416.69 686.758 1416.06C686.515 1415.8 686.321 1415.53 686.127 1415.26C685.642 1414.63 685.152 1413.99 684.69 1413.36C684.496 1413.11 684.326 1412.87 684.157 1412.63C683.623 1411.9 683.108 1411.17 682.599 1410.39C682.55 1410.31 682.477 1410.22 682.453 1410.14C681.211 1408.34 680.065 1406.44 678.998 1404.49C678.415 1403.49 677.877 1402.47 677.319 1401.4C676.809 1400.4 676.27 1399.35 675.785 1398.3C675.761 1398.26 675.736 1398.21 675.712 1398.18C675.251 1397.16 674.761 1396.11 674.3 1395.06C674.251 1394.97 674.227 1394.87 674.179 1394.77C673.693 1393.68 673.227 1392.56 672.791 1391.41C672.402 1390.41 672.009 1389.42 671.621 1388.37C669.796 1383.4 668.19 1378.09 666.85 1372.46C665.292 1366.03 664.074 1359.18 663.176 1351.95C659.964 1325.93 660.522 1298.23 664.322 1270.17C704.418 1297.65 755.93 1299.79 805.155 1295.24C811.532 1294.66 817.914 1293.95 824.194 1293.17Z" fill="#FFF3E9"/>
<path d="M679.003 1404.49C679.978 1406.22 680.973 1407.9 682.045 1409.51C680.949 1407.9 679.954 1406.22 679.003 1404.49Z" fill="#FFF3E9"/>
<path d="M805.155 1295.24C793.105 1347.98 781.782 1392.82 746.024 1400.98C707.927 1409.71 682.511 1398.69 666.855 1372.46C665.297 1366.03 664.079 1359.18 663.181 1351.95C659.969 1325.93 660.527 1298.23 664.327 1270.17C704.418 1297.65 755.93 1299.79 805.155 1295.24Z" fill="white"/>
<path d="M761.676 1436.67C762.234 1436.5 762.797 1436.33 763.355 1436.16C762.821 1436.38 762.258 1436.53 761.7 1436.7C760.87 1436.94 760.045 1437.16 759.24 1437.35C760.045 1437.13 760.846 1436.92 761.676 1436.67Z" fill="#390075"/>
<path d="M824.073 1294.34C824.097 1293.95 824.17 1293.56 824.194 1293.17C817.914 1293.95 811.537 1294.66 805.155 1295.24C815.745 1249 826.922 1196.73 855.647 1157.8C837.312 1201.58 830.207 1250.1 824.073 1294.34Z" fill="#FF9343"/>
<path d="M824.194 1293.17C824.17 1293.56 824.097 1293.95 824.073 1294.34C823.782 1296.53 823.49 1298.7 823.17 1300.87C822.563 1305.2 821.976 1309.47 821.37 1313.71C820.515 1319.8 819.642 1325.79 818.715 1331.63C818.472 1333.24 818.205 1334.85 817.958 1336.43C816.861 1343.08 815.72 1349.51 814.454 1355.73C814.09 1357.6 813.697 1359.43 813.284 1361.26C812.92 1362.99 812.527 1364.67 812.115 1366.35C812.066 1366.59 812.018 1366.81 811.945 1367.05C811.654 1368.32 811.338 1369.57 811.018 1370.78C810.46 1373.02 809.872 1375.21 809.242 1377.35C808.805 1378.94 808.339 1380.5 807.854 1382.03C807.096 1384.47 806.296 1386.85 805.442 1389.17C805.029 1390.32 804.612 1391.46 804.151 1392.55C803.394 1394.53 802.617 1396.43 801.763 1398.28C801.472 1398.94 801.156 1399.6 800.86 1400.23C800.545 1400.93 800.205 1401.62 799.86 1402.3C799.521 1402.95 799.205 1403.61 798.861 1404.24C798.157 1405.61 797.424 1406.95 796.619 1408.24C795.891 1409.53 795.109 1410.77 794.304 1411.96C793.915 1412.55 793.522 1413.11 793.11 1413.69C793.11 1413.74 793.061 1413.79 793.013 1413.84C792.207 1414.96 791.382 1416.05 790.528 1417.13C790.14 1417.64 789.722 1418.13 789.334 1418.61C788.849 1419.19 788.358 1419.76 787.825 1420.32C787.388 1420.8 786.946 1421.29 786.485 1421.75C786.461 1421.8 786.388 1421.88 786.315 1421.92C785.413 1422.9 784.442 1423.82 783.442 1424.68C782.981 1425.09 782.491 1425.51 782.006 1425.94C781.909 1426.04 781.812 1426.11 781.69 1426.19C780.715 1426.99 779.696 1427.77 778.672 1428.5C777.551 1429.33 776.429 1430.09 775.24 1430.77C774.658 1431.11 774.071 1431.48 773.464 1431.8C772.44 1432.38 771.372 1432.92 770.3 1433.43C769.96 1433.62 769.596 1433.77 769.252 1433.91C768.766 1434.11 768.276 1434.33 767.791 1434.52C767.136 1434.84 766.476 1435.08 765.796 1435.3C764.457 1435.83 763.093 1436.27 761.681 1436.69C758.419 1437.61 755.231 1438.37 752.091 1438.95C744.52 1440.36 737.337 1440.73 730.596 1440.1C729.815 1440.02 729.038 1439.95 728.281 1439.85C727.748 1439.8 727.233 1439.73 726.724 1439.63C726.068 1439.54 725.433 1439.44 724.802 1439.32C724.583 1439.29 724.389 1439.27 724.195 1439.2C723.268 1439.03 722.37 1438.83 721.468 1438.61C721.395 1438.61 721.322 1438.61 721.273 1438.57C720.347 1438.37 719.424 1438.1 718.497 1437.83C715.527 1436.98 712.654 1435.91 709.903 1434.64C709.097 1434.25 708.32 1433.87 707.515 1433.42C707.466 1433.42 707.418 1433.4 707.369 1433.35C706.714 1433.01 706.03 1432.65 705.375 1432.25C705.035 1432.08 704.695 1431.89 704.375 1431.67C703.744 1431.31 703.108 1430.92 702.501 1430.5C702.283 1430.38 702.089 1430.26 701.895 1430.11C701.288 1429.72 700.701 1429.31 700.119 1428.89C699.022 1428.11 697.978 1427.31 696.954 1426.43C695.518 1425.28 694.13 1424.02 692.79 1422.73C692.033 1422 691.305 1421.24 690.602 1420.49C689.971 1419.83 689.359 1419.15 688.753 1418.44C688.583 1418.27 688.437 1418.1 688.291 1417.93C687.782 1417.33 687.267 1416.69 686.758 1416.06C686.515 1415.79 686.321 1415.52 686.127 1415.25C685.642 1414.62 685.152 1413.98 684.69 1413.35C684.496 1413.11 684.326 1412.87 684.157 1412.63C683.623 1411.9 683.108 1411.16 682.599 1410.38C682.55 1410.31 682.477 1410.21 682.453 1410.14C681.235 1408.34 680.09 1406.46 678.998 1404.49C678.415 1403.49 677.877 1402.47 677.319 1401.39C676.809 1400.39 676.27 1399.35 675.785 1398.3C675.761 1398.25 675.736 1398.2 675.712 1398.18C675.251 1397.15 674.761 1396.11 674.3 1395.06C674.251 1394.96 674.227 1394.87 674.179 1394.77C673.693 1393.67 673.227 1392.55 672.791 1391.41C672.402 1390.41 672.009 1389.41 671.621 1388.36C669.796 1383.4 668.19 1378.08 666.85 1372.46C682.502 1398.69 707.918 1409.7 746.02 1400.98C781.782 1392.82 793.1 1347.98 805.15 1295.23C811.532 1294.66 817.914 1293.95 824.194 1293.17Z" fill="#D6CFC9"/>
<path d="M839.705 1001.52C732.072 1049.06 666.224 1209.98 668.496 1322.47C669.505 1362.63 677.212 1418.25 722.031 1431.11C734.285 1434.26 747.257 1432.96 759.38 1429.49C789.824 1420.77 799.778 1386.49 805.951 1358.56C817.089 1304.83 819.977 1247.19 836.929 1193.94C842.563 1175.93 849.688 1158.28 858.889 1141.77C859.874 1140.01 862.097 1139.37 863.864 1140.36C865.519 1141.28 866.174 1143.3 865.446 1145C844.063 1196.1 837.37 1251.56 830.042 1306.23C823.553 1348.49 818.904 1414.02 778.041 1437.9C751.077 1452.29 714.45 1451.99 690.932 1430.97C660.876 1403.84 654.916 1361.06 653.897 1322.75C651.675 1204.15 720.395 1037.93 834.182 987.988C843.199 984.564 848.678 997.564 839.705 1001.52Z" fill="#000072"/>
<path d="M659.959 1275.1C660.818 1275.77 659.93 1277.98 659.042 1277.07L659.959 1275.1Z" fill="#FFCEDA"/>
<path d="M840.864 503.815L1182.33 536.657C1204.07 474.436 1181.69 317.914 1130.11 276.496C1114.54 264.001 1096.32 262.001 1075.84 276.244C1024.29 312.091 963.44 438.394 840.864 503.815Z" fill="#FFAD40"/>
<path d="M840.864 503.815L866.93 506.331C976.897 438.651 1034.03 323.639 1082.83 289.7C1103.31 275.457 1121.53 277.462 1137.1 289.952C1145.23 296.484 1152.64 305.905 1159.29 317.336C1151.03 299.757 1141.26 285.441 1130.11 276.486C1114.54 263.992 1096.32 261.991 1075.84 276.234C1024.29 312.091 963.44 438.394 840.864 503.815Z" fill="white"/>
<path d="M985.958 517.776L1182.32 536.652C1204.07 474.431 1181.69 317.909 1130.11 276.491C1121.39 275.938 1111.93 279.672 1103.2 292.016C1080.86 323.571 1047.1 465.602 985.958 517.776Z" fill="#FF9343"/>
<path d="M1182.33 543.97C1181.53 543.97 1180.72 543.839 1179.92 543.557C1176.11 542.227 1174.1 538.056 1175.43 534.248C1197.37 471.483 1171.97 317.491 1124.45 281.357C1110.57 270.805 1096.04 271.091 1080.01 282.236C1062.15 294.658 1042.23 319.584 1019.16 348.444C976.611 401.667 923.663 467.904 844.3 510.269C840.742 512.168 836.316 510.823 834.419 507.258C832.521 503.699 833.865 499.27 837.428 497.371C914.136 456.424 966.046 391.489 1007.75 339.315C1031.53 309.566 1052.08 283.873 1071.67 270.232C1092.96 255.425 1114.26 255.246 1133.29 269.712C1169.27 297.076 1185.4 367.296 1190.67 396.218C1200.75 451.622 1200.19 507.69 1189.23 539.066C1188.17 542.086 1185.35 543.97 1182.33 543.97Z" fill="#000072"/>
<path d="M1030.06 409.185L1172.77 501.897C1172.54 499.678 1172.2 466.254 1166.98 429.653C1164.7 413.57 1161.47 396.889 1156.89 381.971C1145.2 343.87 1131.57 319.381 1121.55 309.834C1118.71 307.139 1116.17 305.638 1114.04 305.361C1097.21 303.171 1078.36 345.507 1030.06 409.185Z" fill="white"/>
<path d="M1030.05 409.186L1172.77 501.899C1172.53 499.679 1172.19 466.255 1166.98 429.654C1160.68 428.562 1152.79 425.886 1144.36 419.932C1132.09 411.293 1108.47 390.097 1104.1 364.738C1101.78 351.311 1110.54 328.511 1121.55 309.835C1118.71 307.14 1116.16 305.639 1114.03 305.362C1097.21 303.172 1078.36 345.508 1030.05 409.186Z" fill="#D9D9EB"/>
<path d="M1172.67 509.178C1171.32 509.178 1169.97 508.799 1168.79 508.032L1026.08 415.314C1024.38 414.207 1023.21 412.444 1022.86 410.444C1022.51 408.443 1023.01 406.389 1024.24 404.772C1040.94 382.754 1054.23 363.102 1064.92 347.309C1087.97 313.224 1099.53 296.102 1114.97 298.127C1133.3 300.516 1152.77 343.633 1163.87 379.831C1172.85 409.103 1178.25 448.88 1179.92 498.053C1179.97 499.694 1180 500.782 1180.04 501.228C1180.25 504.001 1178.87 506.711 1176.48 508.129C1175.3 508.823 1173.99 509.178 1172.67 509.178ZM1040.6 407.321L1164.9 488.078C1162.4 434.695 1155.47 402.242 1149.91 384.119C1134.14 332.707 1117.33 313.705 1113 312.603C1106.57 311.85 1092.23 333.013 1077.01 355.502C1067.25 369.929 1055.33 387.547 1040.6 407.321Z" fill="#000072"/>
<path d="M1083.78 451.4C1082.4 451.4 1081.01 451.006 1079.8 450.22L1026.08 415.314C1024.37 414.207 1023.21 412.444 1022.86 410.443C1022.51 408.443 1023.01 406.388 1024.23 404.771C1037.23 387.624 1047.89 372.26 1054.77 362.193C1055.36 361.333 1056.13 360.605 1057.02 360.066C1069.82 352.325 1080.44 350.864 1088.58 355.715C1093.76 358.794 1097.09 363.237 1098.22 368.569C1099.37 373.998 1098.06 379.466 1096.06 384.143C1102.47 384.492 1109.1 386.221 1113.87 390.883C1117.48 394.404 1121.37 401.008 1119.44 412.463C1117.57 423.487 1107.32 435.748 1088.11 449.967C1086.84 450.919 1085.31 451.4 1083.78 451.4ZM1040.6 407.321L1083.45 435.166C1101.39 421.136 1104.55 412.993 1105.05 410.026C1105.76 405.845 1105.3 402.921 1103.69 401.348C1100.86 398.58 1093.32 397.905 1084.48 399.614C1083.96 399.716 1083.62 399.76 1083.51 399.774C1080.65 400.095 1077.85 398.682 1076.39 396.2C1073.96 392.053 1076.44 388.557 1077.63 386.877C1082.51 379.991 1084.63 374.853 1083.95 371.609C1083.77 370.73 1083.28 369.56 1081.13 368.283C1078.29 366.593 1072.79 367.875 1065.92 371.803C1059.82 380.685 1051.1 393.209 1040.6 407.321Z" fill="#000072"/>
<path d="M646.308 669.235L852.086 436.89C772.834 344.25 661.61 309.669 627.876 328.764C623.163 331.42 619.009 336.436 615.549 343.72C595.811 385.041 597.956 499.237 646.308 669.235Z" fill="#FFAD40"/>
<path d="M606.784 375.304C608.502 368.171 610.56 362.096 612.962 357.094C616.422 349.81 620.581 344.794 625.289 342.137C658.383 323.407 766.02 356.322 844.889 444.999L852.081 436.885C772.834 344.25 661.61 309.669 627.876 328.764C623.163 331.42 619.009 336.436 615.549 343.72C611.773 351.626 608.793 362.193 606.784 375.304Z" fill="white"/>
<path d="M646.309 669.234L710.404 596.859C716.252 563.308 720.125 513.295 704.343 468.26C680.582 400.522 652.201 329.657 615.55 343.72C595.812 385.041 597.957 499.237 646.309 669.234Z" fill="#FF9343"/>
<path d="M646.304 676.538C643.12 676.538 640.199 674.44 639.282 671.23C606.091 554.562 597.802 476.117 596.695 430.853C595.249 371.803 605.043 333.289 624.281 322.402C662.125 300.996 776.776 337.63 857.625 432.125C860.25 435.19 859.891 439.803 856.829 442.43C853.761 445.057 849.151 444.698 846.53 441.634C769.229 351.281 660.81 318.522 631.473 335.125C606.246 349.397 595.754 464.817 653.331 667.229C654.438 671.114 652.186 675.154 648.308 676.256C647.639 676.446 646.969 676.538 646.304 676.538Z" fill="#000072"/>
<path d="M1311.67 786.825C1311.36 793.929 1310.6 800.966 1309.36 807.905C1293.86 897 1204.42 971.313 1047.89 1012.5L951.999 1029.15C794.136 1046.14 662.392 1021.96 617.375 915.813C609.037 896.15 602.136 872.282 597.515 845.652C579.903 745.116 594.109 605.367 681.15 505.438C773.282 399.653 920.798 390.076 952.858 387.736C1145.82 373.59 1208.89 506.895 1267.81 668.049C1267.82 668.103 1272.37 672.75 1278.53 681.268C1281.12 684.822 1283.98 689.086 1286.91 693.966C1299.49 714.882 1313.38 747.306 1311.67 786.825Z" fill="#FFAD40"/>
<path d="M1311.67 786.824C1307.41 885.213 1216.6 968.102 1047.89 1012.5L951.996 1029.15C794.133 1046.14 662.389 1021.96 617.372 915.812C609.034 896.149 602.133 872.282 597.512 845.651C618.4 829.334 652.979 808.885 709.348 795.565C817.462 770.017 842.121 827.615 889.104 811.236C935.126 795.191 935.369 736.32 1018.94 731.673C1072.59 728.692 1089.81 764.039 1111.55 765.171C1167.49 768.079 1193.13 686.997 1278.53 681.272C1292.17 700.162 1313.79 738.078 1311.67 786.824Z" fill="white"/>
<path d="M597.51 845.656C602.14 872.272 609.051 896.145 617.384 915.807C662.402 1021.96 794.14 1046.15 951.998 1029.15L1047.9 1012.5C1187.56 975.741 1273.82 912.621 1301.79 836.167C1259.9 896.669 1178.14 946.245 1059.32 977.518L959.356 994.864C794.761 1012.57 657.417 987.371 610.478 876.711C606.314 866.901 602.494 856.077 599.131 844.383C598.578 844.821 598.034 845.248 597.51 845.656Z" fill="#D9D9EB"/>
<path d="M1037.46 745.183C1038.01 747.844 1032.74 751.428 1028.61 753.783C1025.75 755.415 1021.87 756.245 1018.61 755.92C1013.9 755.449 1007.66 754.327 1007.12 751.666C1006.23 747.344 1036.57 740.856 1037.46 745.183Z" fill="white"/>
<path d="M1311.67 786.826C1311.37 793.93 1310.6 800.967 1309.37 807.906C1300.37 812.228 1290.39 815.637 1279.7 817.856C1230.65 828.035 1185.44 809.144 1178.77 775.681C1172.1 742.218 1206.48 706.812 1255.53 696.633C1266.3 694.4 1276.9 693.564 1286.92 693.967C1299.49 714.883 1313.39 747.307 1311.67 786.826Z" fill="#FF8080"/>
<path d="M771.832 922.666C820.839 912.16 854.774 876.591 847.629 843.221C840.483 809.851 794.963 791.316 745.957 801.822C696.95 812.329 663.015 847.898 670.16 881.268C677.306 914.638 722.826 933.173 771.832 922.666Z" fill="#FF8080"/>
<path d="M642.765 566.601C634.073 589.77 625.527 612.598 618.665 636.257C604.77 683.148 598.272 732.282 599.32 781.192C599.713 805.691 602.086 830.186 606.561 854.248L606.027 854.354C610.463 871.909 615.399 889.236 621.611 905.989C627.692 922.738 636.466 938.098 647.57 951.739C719.741 1036.43 849.878 1029.38 951.683 1026.2C953.323 1026.13 954.706 1027.4 954.779 1029.04C954.847 1030.55 953.765 1031.85 952.318 1032.1C915.876 1038.38 878.75 1041.28 841.531 1040.24C758.848 1037.88 663.377 1014.84 619.761 937.399C605.848 912.579 597.078 885.064 592.773 857.02L592.239 857.127C584.368 819.857 581.383 781.659 583.072 743.621C584.765 705.544 591.099 667.613 602.887 631.328C610.914 607.208 621.848 583.884 636.835 563.357C639.193 560.371 644.149 562.707 642.765 566.601Z" fill="#000072"/>
<path d="M1047.01 1009.1C1124.03 983.415 1204.85 953.108 1260.05 891.062C1309.05 836.032 1319.16 760.675 1279.8 697.206C1274.8 689.024 1269.16 681.147 1262.75 674.018C1262.28 673.435 1262.06 673.479 1261.09 671.877C1211.42 531.661 1144.79 382.409 962.476 394.598C938.021 395.997 912.416 397.618 888.305 401.931C863.744 406.078 839.522 412.085 815.799 419.743C813.839 420.413 811.698 419.34 811.053 417.368C810.442 415.494 811.402 413.483 813.193 412.75C836.702 402.989 861.147 395.53 886.058 390.242C1121.72 337.728 1209.8 475.7 1274.69 664.413C1274.14 663.378 1273.12 662.388 1273.82 663.136C1281.07 671.109 1287.42 679.972 1293.02 689.14C1335.85 758.495 1325 840.811 1271.11 900.75C1213.74 964.049 1130.73 998.581 1048.8 1015.89C1044.5 1016.53 1042.79 1010.69 1047.01 1009.1Z" fill="#000072"/>
<path d="M802.968 641.594C798.028 628.783 831.407 577.075 858.493 583.136C885.578 589.196 887.044 618.571 873.426 629.818C853.649 646.153 807.904 654.404 802.968 641.594Z" fill="#FFF3E9"/>
<path d="M1126.67 584.126C1126.57 570.364 1080.55 535.065 1059.44 550.978C1038.32 566.892 1046.99 594.708 1062.43 599.972C1084.86 607.62 1126.77 597.888 1126.67 584.126Z" fill="#FFF3E9"/>
<path d="M646.614 522.468C649.356 530.48 652.516 537.769 656.131 544.009C713.714 469.454 760.935 476.675 754.888 439.054C748.321 398.326 678.97 353.058 639.538 357.341C637.087 357.608 635.064 362.547 633.554 370.768C628.128 400.818 630.075 474.553 646.614 522.468Z" fill="white"/>
<path d="M646.615 522.468C649.357 530.48 652.517 537.769 656.132 544.009C713.715 469.454 760.936 476.675 754.889 439.054C748.323 398.326 678.971 353.058 639.54 357.341C637.089 357.608 635.065 362.546 633.556 370.768C653.604 374.857 686.698 386.696 694.181 420.611C704.018 465.238 664.402 483.798 646.615 522.468Z" fill="#D5D5E9"/>
<path d="M656.132 551.323C655.972 551.323 655.807 551.318 655.642 551.308C653.216 551.148 651.027 549.783 649.809 547.676C619.331 494.924 619.19 378.402 630.076 356.928C632.701 351.751 636.249 350.343 638.763 350.066C681.16 345.482 754.671 391.77 762.096 437.889C765.978 462.004 751.492 471.687 731.439 485.085C713.506 497.07 688.945 513.479 661.913 548.482C660.52 550.283 658.384 551.323 656.132 551.323ZM642.621 364.416C635.73 380.028 634.837 478.743 657.54 530.568C683.155 499.765 706.144 484.41 723.319 472.931C743.63 459.358 749.949 454.39 747.668 440.215C741.839 403.993 677.797 362.692 642.621 364.416Z" fill="#000072"/>
<path d="M710.91 464.495C711.08 465.088 710.915 464.889 711.318 465.229C714.783 467.176 719.194 467.176 723.965 470.502C727.464 472.668 729.954 478.219 729.687 482.162L718.641 476.32C724.756 472.183 730.944 468.24 736.384 464.117C741.834 459.97 746.144 455.633 747.512 450.855C750.643 439.506 743.853 425.953 736.767 416.362C736.763 416.357 740.359 418.921 740.359 418.921C732.472 417.255 725.091 416.104 718.243 419.295C715.812 420.611 712.332 422.767 712.463 425.35C712.594 426.404 713.56 428.104 715.045 429.667C718.253 433.178 724.455 436.243 729.565 439.423C731.211 440.565 731.623 442.823 730.483 444.474C728.095 446.766 724.673 447.985 722.048 450.146C717.525 453.637 710.361 458.488 710.91 464.495ZM696.515 466.982C694.55 450.354 713.904 442.672 726.77 438.943L727.415 445.761C719.82 446.11 712.987 444.503 706.46 440.074C687.319 425.433 702.917 403.547 722.98 402.07C730.876 401.303 738.092 402.949 744.591 405.377C746.042 405.843 747.372 406.722 748.182 407.936C757.743 421.019 765.872 438.282 761.057 455.06C755.777 471.241 739.116 479.088 726.561 488.082C723.334 490.286 718.927 489.446 716.734 486.207C715.778 485.066 715.52 482.861 715.452 481.895C715.496 482.065 715.734 482.288 715.583 482.191C712.541 480.54 707.503 480.254 703.232 477.306C699.893 475.305 697.035 470.823 696.515 466.982Z" fill="#000072"/>
<path d="M1050.02 739.409C1042.01 726.414 987.093 738.37 982.822 755.366C979.083 770.247 1011.58 784.463 1026.79 784.892C1028.31 784.355 1034.46 782.2 1035.81 781.71C1046.62 777.776 1058.15 752.574 1050.02 739.409Z" fill="#000072"/>
<path d="M1035.81 781.71L1041.1 793.447C1063.58 776.407 1081.65 808.063 1077.53 822.756C1075.52 829.176 1074.81 830.297 1070.77 835.639C1081.66 842.976 1086.35 849.91 1083.72 864.303C1079.74 881.47 1061.19 894.168 1043.8 890.016C1039.12 888.666 1027.17 884.641 1031.42 878.25C1032.86 876.322 1035.55 875.88 1037.52 877.211C1049.27 885.491 1065.37 878.347 1070.35 865.848C1074.81 856.344 1067.74 848.72 1060.32 844.296L1057.21 829.587C1061.7 823.634 1064.72 816.534 1061.42 809.624C1057.78 802.111 1050.37 802.801 1044.32 807.215C1040.34 810.304 1028.03 789.743 1026.79 784.892L1035.81 781.71Z" fill="#000072"/>
<path d="M1057.21 829.587C1057.21 829.587 1034.97 847.501 1038.55 854.858C1043.17 864.376 1058.33 861.899 1060.32 844.296C1059.57 840.778 1058.71 836.674 1057.21 829.587Z" fill="#000072"/>
<path d="M1026.79 750.631C1033.69 749.07 1038.85 745.844 1038.31 743.427C1037.76 741.01 1031.72 740.316 1024.81 741.878C1017.9 743.44 1012.75 746.665 1013.29 749.082C1013.84 751.5 1019.88 752.193 1026.79 750.631Z" fill="white"/>
<path d="M807.177 763.845C797.505 730.1 810.889 684.317 847.162 672.963C884.72 660.056 926.792 692.208 925.477 730.833C925.268 737.855 915.795 740.026 912.461 733.975C898.46 711.54 875.621 690.081 848.322 703.323C830.385 714.444 822.62 741.492 820.445 762.058C820.115 769.658 809.448 771.052 807.177 763.845Z" fill="#000072"/>
<path d="M1163.67 692.912C1149.7 672.07 1124.13 639.184 1097.26 655.209C1084.78 665.66 1082.14 686.818 1080.1 703.751C1079.77 707.194 1076.71 709.714 1073.27 709.379C1065.35 708.835 1062.62 688.911 1062.27 682.709C1060.12 640.709 1094.29 610.985 1134.68 630.967C1149.92 638.931 1160.18 651.849 1167.52 666.655C1170.86 673.638 1173.41 680.864 1174.95 688.318C1175.64 691.669 1173.48 694.942 1170.13 695.631C1167.55 696.156 1165.01 695 1163.67 692.912Z" fill="#000072"/>
<path d="M1342.93 1100.77L1286.57 862.473C1309.02 847.502 1322.1 817.394 1322.1 782.085C1322.1 769.304 1320.39 755.823 1316.8 742.144C1300.79 681.477 1254.59 642.856 1211.59 654.205C1168.59 665.553 1147.42 721.952 1163.42 782.619C1170.72 810.314 1184.87 834.667 1203.25 851.183C1218.91 865.227 1236.29 872.559 1253.38 872.559H1254.31L1310.14 1108.52C1311.97 1116.27 1318.9 1121.5 1326.54 1121.5C1327.8 1121.5 1329.12 1121.36 1330.41 1121.05C1339.47 1118.91 1345.06 1109.81 1342.93 1100.77ZM1195.98 774.029C1185.17 733.048 1196.26 693.112 1220.18 686.789C1222.37 686.226 1224.59 685.944 1226.86 685.944C1238.09 685.944 1249.96 692.825 1260.29 704.397C1270.6 715.94 1279.33 732.15 1284.21 750.739C1294.71 790.569 1284.52 829.437 1261.98 837.362C1261.81 837.421 1261.64 837.474 1261.47 837.557C1261 837.697 1260.52 837.838 1260.01 837.979C1245.9 841.713 1232.51 832.137 1225.77 826.096C1212.4 814.077 1201.54 795.119 1195.98 774.029Z" fill="#7BA2FF"/>
<path d="M1297.79 850.201L1298.3 852.377C1300.26 850.255 1302.09 847.963 1303.82 845.559C1301.89 847.22 1299.9 848.798 1297.79 850.201Z" fill="#5F85E2"/>
<path d="M1341.64 1108.77C1340.35 1109.08 1339.03 1109.22 1337.77 1109.22C1330.13 1109.22 1323.2 1104 1321.37 1096.25L1265.54 860.283H1264.61C1247.52 860.283 1230.14 852.95 1214.48 838.906C1196.1 822.391 1181.95 798.037 1174.65 770.343C1164 729.955 1169.84 691.48 1187.6 666.908C1161.37 689.382 1150.77 734.655 1163.43 782.619C1170.73 810.313 1184.87 834.667 1203.26 851.182C1218.92 865.226 1236.3 872.559 1253.39 872.559H1254.32L1310.15 1108.52C1311.97 1116.27 1318.91 1121.5 1326.54 1121.5C1327.8 1121.5 1329.12 1121.36 1330.41 1121.05C1336.88 1119.53 1341.56 1114.46 1342.94 1108.4C1342.51 1108.53 1342.09 1108.67 1341.64 1108.77Z" fill="#5F85E2"/>
<path d="M1326.54 1127.58C1315.84 1127.58 1306.67 1120.32 1304.22 1109.92L1249.47 878.532C1232.06 877.507 1214.75 869.674 1199.19 855.718C1179.93 838.411 1165.14 813.003 1157.54 784.173C1149.48 753.623 1150.25 722.942 1159.68 697.778C1169.4 671.89 1187.28 654.325 1210.04 648.318C1256.34 636.105 1305.82 676.634 1322.69 740.594C1326.34 754.507 1328.2 768.468 1328.2 782.089C1328.2 817.772 1315.28 848.395 1293.44 865.051L1348.86 1099.37C1350.27 1105.33 1349.27 1111.48 1346.06 1116.69C1342.84 1121.92 1337.78 1125.57 1331.81 1126.97C1330.11 1127.38 1328.34 1127.58 1326.54 1127.58ZM1226.88 658.312C1222.29 658.312 1217.69 658.895 1213.14 660.094C1194.3 665.067 1179.36 679.97 1171.08 702.061C1162.51 724.88 1161.88 752.938 1169.3 781.07C1176.3 807.628 1189.8 830.922 1207.32 846.656C1221.78 859.617 1237.7 866.469 1253.38 866.469H1259.13L1316.06 1107.12C1317.21 1112 1321.52 1115.41 1326.53 1115.41C1327.37 1115.41 1328.22 1115.31 1328.99 1115.13C1331.81 1114.47 1334.17 1112.75 1335.68 1110.3C1337.19 1107.86 1337.66 1104.97 1337 1102.17L1279.66 859.758L1283.18 857.408C1303.74 843.704 1316 815.548 1316 782.089C1316 769.512 1314.29 756.595 1310.9 743.697C1297.52 692.922 1262.32 658.312 1226.88 658.312ZM1253.51 844.903C1239.91 844.903 1228.11 836.376 1221.7 830.636C1207.45 817.816 1195.94 797.75 1190.09 775.577C1178.25 730.658 1191.05 688.182 1218.62 680.898C1221.34 680.199 1224.1 679.854 1226.86 679.854C1239.55 679.854 1253.04 687.128 1264.83 700.342C1276.19 713.07 1285.16 730.42 1290.09 749.194C1301.36 791.957 1289.65 834.089 1263.99 843.111C1263.98 843.111 1263.98 843.111 1263.98 843.111L1263.18 843.407L1261.64 843.854C1258.88 844.578 1256.16 844.903 1253.51 844.903ZM1226.86 692.033C1225.09 692.033 1223.4 692.247 1221.69 692.684C1201.36 698.055 1192.07 735.345 1201.87 772.469C1207.12 792.409 1217.32 810.303 1229.84 821.57C1235.65 826.78 1247.12 835.084 1258.46 832.093L1259.42 831.816C1259.63 831.728 1259.85 831.656 1260.07 831.583C1279.45 824.77 1287.86 788.446 1278.32 752.297C1273.87 735.345 1265.86 719.776 1255.76 708.456C1246.3 697.865 1236.04 692.033 1226.86 692.033Z" fill="#000072"/>
<path d="M1215.66 687.547C1216.46 687.178 1217.21 686.867 1217.95 686.6C1217.95 686.6 1221.25 685.376 1224.59 684.895C1231.37 683.924 1239.84 687.129 1240.92 687.542C1248.72 690.553 1248.48 692.714 1252.15 693.16C1258.86 693.976 1264.38 687.309 1271.8 679.116C1284.06 665.587 1291.74 657.109 1299.87 651.029C1314.13 640.379 1328.92 637.757 1333.56 636.985C1335.97 636.587 1358.15 633.163 1378.47 642.603C1415.17 659.648 1431.56 712.002 1420.57 752.143C1419.15 757.353 1408.45 794.454 1378.47 805.506C1367.85 809.425 1358.01 808.886 1347.59 808.313C1314.94 806.526 1298.25 791.652 1288.65 799.888C1283.98 803.884 1287.33 807.895 1280.23 819.55C1277.26 824.421 1272.09 832.914 1263.39 836.401C1251.07 841.339 1237.86 833.749 1232.51 830.782C1211.97 819.414 1204.3 798.183 1198.82 783.032C1191.22 761.991 1191.7 745.019 1192.06 731.995C1192.32 722.763 1193.33 716.494 1196.02 710.006C1197.75 705.815 1203.12 693.355 1215.66 687.547Z" fill="#D7F5FF"/>
<path d="M1218.05 691.65C1223.65 689.149 1229.33 689.096 1235.17 690.679C1239.59 691.874 1243.07 693.952 1246.94 696.283C1259.37 703.761 1271.25 686.775 1278.25 679.063C1286.52 669.948 1294.78 660.095 1305.06 653.151C1314.16 647.003 1324.44 643.303 1335.22 641.506C1335.42 641.472 1335.62 641.448 1335.82 641.419C1336.89 641.259 1334.62 641.555 1335.9 641.414C1336.67 641.331 1337.43 641.244 1338.2 641.171C1340.81 640.933 1343.44 640.822 1346.06 640.812C1352.78 640.797 1359.46 641.506 1365.97 643.196C1377.86 646.28 1388.11 652.777 1396.32 661.848C1412.02 679.19 1419.33 703.718 1419.19 726.813C1419.08 743.557 1414.59 759.514 1406.46 773.665C1401.21 782.804 1394.32 791.268 1385.29 796.887C1372.55 804.817 1357.75 804.594 1343.28 803.253C1331.09 802.127 1319.63 798.353 1307.96 794.93C1300.42 792.716 1291.49 790.763 1285.09 796.712C1281.8 799.781 1281.32 803.739 1280.24 807.852C1278.81 813.262 1275.78 818.21 1272.52 822.712C1269 827.573 1264.28 831.861 1258.21 832.987C1251.99 834.148 1245.46 832.05 1239.91 829.34C1229 824.018 1220.37 816.375 1214.11 805.934C1207.9 795.576 1203.41 783.596 1200.32 771.946C1196.98 759.281 1196.41 746.442 1196.76 733.413C1196.94 726.697 1197.41 720.088 1199.66 713.702C1200.62 710.983 1200.45 711.434 1201.67 708.919C1202.67 706.86 1203.8 704.859 1205.07 702.96C1208.35 698.051 1212.73 694.21 1218.05 691.65C1223.56 688.999 1218.75 677.878 1213.26 680.52C1202.71 685.6 1195.74 698.148 1191.43 708.758C1186.37 721.219 1184.32 735.772 1184.99 749.025C1185.73 763.7 1189.43 781.255 1194.66 794.93C1199.25 806.91 1208.98 820.08 1218.05 829.34C1227.11 838.581 1239.2 844.458 1252.24 845.74C1267.07 847.202 1279.54 834.478 1286.7 822.712C1290.1 817.118 1290.44 812.887 1292.18 807.093C1292.85 804.869 1292.22 804.094 1293.47 802.933C1295 801.498 1296.99 802.08 1298.82 802.437C1301.06 802.87 1303.24 803.448 1305.43 804.089C1310.95 805.711 1316.41 807.541 1321.98 808.993C1336.95 812.893 1353.57 814.908 1368.96 812.737C1382.49 810.829 1394.55 803.724 1403.67 793.672C1415.24 780.925 1423.22 764.137 1426.6 747.262C1431.6 722.268 1427.56 695.161 1415.44 672.731C1409.51 661.766 1401.41 652.015 1391.31 644.672C1379.38 635.99 1364.76 632.003 1350.14 631.386C1327.75 630.444 1306.14 638.194 1289.61 653.457C1284.77 657.925 1280.28 662.771 1275.83 667.622C1270.28 673.683 1265.06 680.642 1258.69 685.872C1256.94 687.309 1254.99 688.382 1252.91 688.504C1252.92 688.504 1251.57 688.13 1252.24 688.372C1252.87 688.601 1251.77 688.091 1251.74 688.071C1250.79 687.421 1249.86 686.741 1248.88 686.134C1244.21 683.23 1238.57 681.399 1233.16 680.52C1226.16 679.379 1219.69 677.655 1213.26 680.52C1210.92 681.564 1210.37 687.897 1211.56 689.936C1212.97 692.354 1215.7 692.699 1218.05 691.65Z" fill="white"/>
<path d="M1405.81 734.647C1402.07 741.387 1394.32 747.428 1386.61 745.238C1380.74 743.582 1377.43 737.905 1374.43 732.85C1369.77 724.959 1364.21 717.204 1356.12 712.347C1347.51 707.181 1336.93 705.86 1326.7 705.661C1312.02 705.379 1308.74 705.015 1304.55 701.392C1298.01 695.774 1297.4 685.299 1298.69 678.53C1301.47 673.868 1304.72 669.488 1308.4 665.496L1304.16 669.177C1310.17 660.664 1320.05 655.696 1329.99 652.52C1342.51 648.533 1356.45 647.013 1368.52 652.156C1376.86 655.696 1383.6 662.101 1389.97 668.502C1393.42 672.013 1396.88 675.582 1399.49 679.763C1402.69 684.876 1404.51 690.748 1406.28 696.502C1407.97 702.12 1409.68 707.763 1410.52 713.581C1410.69 720.632 1409.71 727.683 1405.81 734.647Z" fill="#FFB8E7"/>
<path d="M1382.67 688.878C1387.22 678.957 1378.42 665.175 1363.01 658.095C1347.6 651.015 1331.42 653.318 1326.87 663.24C1322.32 673.161 1331.12 686.943 1346.52 694.023C1361.93 701.103 1378.11 698.8 1382.67 688.878Z" fill="white"/>
<path d="M1385.48 770.402C1380.42 774.7 1371.03 782.479 1357.41 784.446C1350.43 785.451 1344.52 784.616 1343.38 784.446C1343.38 784.446 1334.56 783.135 1326.53 778.827C1326.08 778.585 1323.37 777.113 1320.2 775.38C1318.7 774.559 1317.42 773.869 1317.27 773.772C1308.88 768.183 1302.06 760.457 1296.16 752.26C1293.61 748.749 1291.19 745.068 1289.56 741.023C1287.74 736.443 1287.01 731.5 1286.7 726.556C1285.69 709.847 1290.01 692.85 1298.69 678.525C1297.4 685.294 1298.01 695.769 1304.55 701.387C1308.74 705.01 1312.02 705.374 1326.7 705.656C1336.92 705.85 1347.51 707.171 1356.12 712.343C1364.21 717.204 1369.77 724.954 1374.43 732.845C1377.43 737.9 1380.74 743.572 1386.61 745.233C1394.33 747.423 1402.07 741.387 1405.81 734.642C1409.71 727.678 1410.69 720.627 1410.52 713.576C1410.66 714.421 1410.84 715.679 1410.97 717.199C1413.41 746.054 1388.06 768.212 1385.48 770.402Z" fill="#A2E1FF"/>
<path d="M1260.4 923.968C1247.56 930.198 1241.72 944.98 1237.13 958.499C1232.23 972.971 1227.44 988.34 1230.61 1003.29C1232.46 1012 1236.92 1019.93 1241.9 1027.31C1255.45 1047.39 1274.43 1065.13 1297.95 1070.87C1305.36 1072.68 1313.02 1073.25 1320.64 1073.48C1338.29 1074.01 1356.71 1072.52 1372.01 1063.7C1377.96 1060.26 1383.31 1055.77 1387.72 1050.49C1391.72 1045.72 1394.98 1040.21 1396.41 1034.15C1397.48 1029.63 1397.5 1024.93 1397.24 1020.29C1394.98 980.342 1370.51 942.372 1335.09 923.817C1331.1 921.729 1326.97 919.864 1322.62 918.694C1317.21 917.237 1311.57 916.878 1305.97 916.683C1299.7 916.465 1293.42 916.446 1287.14 916.625C1276.67 916.921 1264.74 918.577 1258.89 927.27L1260.4 923.968Z" fill="white"/>
<path d="M1396.82 1015.73C1396.7 1016.49 1396.59 1017.24 1396.41 1017.99C1394.98 1024.05 1391.71 1029.55 1387.72 1034.33C1383.31 1039.61 1377.96 1044.1 1372 1047.54C1356.71 1056.36 1338.29 1057.85 1320.64 1057.32C1313.01 1057.09 1305.36 1056.52 1297.94 1054.71C1274.43 1048.96 1255.44 1031.22 1241.9 1011.15C1236.92 1003.77 1232.46 995.838 1230.61 987.126C1230.44 986.354 1230.31 985.577 1230.19 984.805C1229.35 990.977 1229.31 997.168 1230.61 1003.29C1232.46 1012 1236.92 1019.93 1241.9 1027.31C1255.44 1047.39 1274.43 1065.12 1297.94 1070.87C1305.36 1072.68 1313.01 1073.25 1320.64 1073.48C1338.29 1074.01 1356.71 1072.52 1372 1063.7C1377.96 1060.26 1383.31 1055.77 1387.72 1050.49C1391.71 1045.72 1394.98 1040.21 1396.41 1034.15C1397.48 1029.63 1397.5 1024.93 1397.23 1020.29C1397.15 1018.76 1396.97 1017.25 1396.82 1015.73Z" fill="#E0E0F0"/>
<path d="M1349.53 1070.11C1324.12 1080.01 1294.37 1080.05 1270.42 1065.94C1233.14 1043.58 1215.78 993.575 1231.13 952.851C1239.47 930.193 1259.48 914.027 1283.32 910.356C1324.3 903.79 1362.88 932.072 1383.43 965.56C1387.06 971.742 1390.84 978.715 1393.43 985.363C1401.06 1003.54 1404.74 1023.2 1404.78 1042.8C1404.78 1045.7 1402.43 1048.06 1399.53 1048.07C1396.65 1048.08 1394.31 1045.76 1394.26 1042.91C1393.19 1008.94 1380.28 975.228 1356.22 951.045C1342.08 937.419 1324.36 925.856 1304.67 923.137C1207.69 913.58 1219.14 1073.09 1327.72 1068.06C1334.48 1067.83 1341.78 1067 1348.46 1066.15C1350.9 1065.69 1351.88 1069.28 1349.53 1070.11Z" fill="#000072"/>
<path d="M1396.27 525.907C1335.35 495.484 1354.02 417.971 1431.59 432.559L1468.11 444.281C1493.32 449.336 1531.59 433.671 1573.92 411.585C1582.16 407.287 1588.53 400.372 1592.32 392.117C1619.62 332.591 1678.51 322.898 1694.51 366.914C1697.75 383.376 1696.36 399.722 1688.94 415.922C1686.13 422.06 1688.71 429.266 1694.92 432.311C1699.9 434.754 1704.48 437.895 1708.72 441.654C1725.79 456.81 1733.7 479.711 1726.98 501.107C1719.29 525.533 1696.34 536.397 1667.73 528.69L1646.34 519.075C1636.42 514.617 1625.1 514.059 1614.72 517.39C1581.45 528.064 1554.55 537.193 1532.3 552.32C1523.53 558.278 1517.46 562.129 1511.93 568.544C1508.59 572.419 1507.7 574.362 1497.33 589.644C1491.23 598.623 1488.18 603.11 1487.59 603.712C1477.23 614.186 1459.41 618.61 1443.77 615.435C1438.94 614.454 1428.11 612.254 1420.22 603.527C1405.28 586.992 1400.49 570.7 1402.01 535.236C1402.16 531.312 1399.89 527.714 1396.27 525.907Z" fill="#8AE2FF"/>
<path d="M1453.93 623.748C1450.04 623.748 1446.13 623.374 1442.31 622.597C1436.92 621.505 1424.29 618.941 1414.79 608.432C1398.2 590.071 1393.13 571.521 1394.7 534.925C1394.74 533.939 1394.09 532.992 1393.01 532.449C1356.37 514.151 1347.78 481.712 1355.3 459.316C1362.38 438.255 1386.96 416.732 1432.94 425.376C1433.24 425.43 1433.53 425.507 1433.82 425.6L1469.93 437.191C1495.36 442.009 1537.03 422.594 1570.55 405.107C1577.15 401.664 1582.52 395.968 1585.69 389.067C1602.03 353.428 1631.06 331.134 1659.68 332.319C1679.05 333.11 1694.25 344.809 1701.38 364.413C1701.5 364.767 1701.61 365.132 1701.68 365.501C1705.34 384.143 1703.29 402.13 1695.58 418.961C1694.4 421.54 1695.49 424.454 1698.13 425.745C1703.58 428.416 1708.77 431.927 1713.56 436.186C1733.26 453.673 1741.26 480.017 1733.94 503.297C1725 531.744 1698.26 544.482 1665.84 535.741C1665.46 535.639 1665.09 535.508 1664.75 535.353L1643.35 525.737C1635.09 522.027 1625.72 521.532 1616.95 524.344C1583.13 535.192 1557.54 543.987 1536.4 558.361L1534.13 559.9C1526.75 564.902 1521.87 568.199 1517.46 573.318C1515.57 575.508 1514.57 577.013 1511.26 581.995C1509.44 584.734 1506.97 588.444 1503.37 593.752L1503.21 593.98C1494.9 606.222 1493.8 607.825 1492.78 608.854C1483.42 618.314 1468.75 623.748 1453.93 623.748ZM1413.55 438.114C1391.39 438.114 1374.69 447.486 1369.15 463.973C1363.57 480.561 1370.71 504.978 1399.53 519.371C1405.75 522.474 1409.58 528.826 1409.29 535.547C1407.87 568.476 1411.69 583.209 1425.62 598.628C1431.9 605.572 1440.89 607.398 1445.21 608.272C1458.62 610.991 1473.78 607.092 1482.19 598.768C1483.1 597.579 1486.49 592.577 1491.12 585.764L1491.28 585.54C1494.85 580.281 1497.29 576.61 1499.09 573.9C1502.6 568.627 1503.91 566.655 1506.4 563.77C1512.08 557.186 1518.19 553.043 1525.94 547.799L1528.19 546.279C1550.95 530.802 1577.48 521.658 1612.49 510.431C1624.69 506.517 1637.78 507.216 1649.33 512.407L1670.18 521.78C1694.5 528.132 1713.57 519.4 1720.01 498.917C1725.69 480.848 1719.51 461.006 1703.87 447.122C1700.06 443.737 1695.97 440.964 1691.7 438.876C1681.95 434.093 1677.82 422.676 1682.3 412.882C1688.72 398.862 1690.41 384.469 1687.46 368.89C1682.32 355.259 1672.27 347.465 1659.09 346.926C1640.59 346.202 1614.73 360.79 1598.97 395.167C1594.46 405 1586.77 413.134 1577.3 418.068C1523.38 446.199 1490.3 456.179 1466.68 451.449C1466.41 451.395 1466.14 451.327 1465.88 451.24L1429.81 439.658C1424.14 438.619 1418.7 438.114 1413.55 438.114ZM1482.38 598.574C1482.37 598.584 1482.36 598.594 1482.35 598.603C1482.36 598.598 1482.37 598.589 1482.38 598.574Z" fill="white"/>
<path d="M1410.9 494.644C1423.67 494.644 1434.02 487.01 1434.02 477.594C1434.02 468.178 1423.67 460.544 1410.9 460.544C1398.13 460.544 1387.77 468.178 1387.77 477.594C1387.77 487.01 1398.13 494.644 1410.9 494.644Z" fill="white"/>
<path d="M1575 465.055C1599.35 455.843 1617.24 443.511 1614.98 437.51C1612.71 431.509 1591.13 434.112 1566.79 443.324C1542.44 452.536 1524.54 464.869 1526.81 470.869C1529.08 476.87 1550.65 474.267 1575 465.055Z" fill="white"/>
<path d="M1655.56 402.077C1664.97 402.077 1672.6 394.443 1672.6 385.027C1672.6 375.611 1664.97 367.977 1655.56 367.977C1646.15 367.977 1638.52 375.611 1638.52 385.027C1638.52 394.443 1646.15 402.077 1655.56 402.077Z" fill="white"/>
</svg>
