<svg xmlns="http://www.w3.org/2000/svg" viewBox="0 0 2000 2000" width="2000" height="2000" >
        <path fill="#fff" d="M0 0H2000V2000H0z"/>
        <path fill="#49D2FF" d="M0 0H2000V2000H0V0Z"/>
         <path fill="#000072"
              d="M1228.65 1213.78C1182.03 1213.78 1143.76 1195.81 1114.51 1160.05L992.978 1019.19C991.621 1017.61 991.177 1015.45 991.803 1013.46C992.429 1011.48 994.043 1009.97 996.059 1009.46L1061.94 992.987C1094.1 979.744 1142.79 992.07 1199.12 1006.33C1239.15 1016.46 1284.51 1027.94 1329.56 1031.4C1331.8 1031.57 1333.76 1032.99 1334.63 1035.07C1351.68 1075.82 1352.35 1122.02 1336.39 1155.65C1323.94 1181.85 1301.94 1200.28 1272.77 1208.92C1272.62 1208.97 1272.45 1209.01 1272.29 1209.04C1257.03 1212.21 1242.48 1213.78 1228.65 1213.78Z"/>
        <path fill="#FF9343"
              d="M1130.79 996.843C1129.49 1000.57 1127.91 1004.42 1126.01 1008.37C1126.01 1008.37 1117.33 1026.3 1101.13 1041.53C1095.61 1046.72 1090.69 1050.17 1084.56 1052.58C1080.14 1054.3 1076.24 1055.01 1073.5 1055.34L1072.84 1051.92C1052.61 1036.11 1038.93 1025.47 1034.87 1022.46C1034.26 1021.99 1032.11 1020.33 1029.29 1018.04C1027.44 1016.52 1025.64 1014.97 1023.93 1013.34C1042.17 1008.79 1059.71 1001.9 1077.15 994.832C1092.24 992.032 1110.39 993.331 1130.79 996.843Z"/>
        <path fill="#FFAD40"
              d="M1271.08 1203.17C1221.98 1213.34 1180 1207.07 1146.1 1182.09C1136.43 1175.01 1127.42 1166.39 1119.1 1156.2L997.517 1015.27L1063.83 998.692C1067.95 996.953 1072.4 995.682 1077.15 994.822C1092.24 992.032 1110.39 993.331 1130.79 996.838C1144.55 999.212 1159.36 1002.61 1174.95 1006.46C1221.4 1017.84 1274.89 1033.2 1329.1 1037.37C1331.46 1042.98 1333.5 1048.79 1335.24 1054.7C1336.37 1058.51 1337.36 1062.41 1338.22 1066.3C1350.41 1122.07 1334.38 1184.41 1271.08 1203.17Z"/>
        <path fill="#FF9343"
              d="M1271.08 1203.17C1221.98 1213.34 1180 1207.07 1146.1 1182.09C1135.79 1156.28 1124.63 1130.83 1112.61 1105.8L1114.51 1098.75C1136.84 1111.96 1162.42 1119.59 1188.35 1120.8C1195.5 1121.13 1202.86 1120.97 1209.51 1118.37C1216.17 1115.77 1222.09 1110.36 1223.6 1103.37C1231.17 1104.71 1238.73 1106.06 1246.3 1107.4C1246.79 1112.83 1247.85 1120.7 1250.35 1129.95C1253.96 1143.26 1255.87 1149.97 1261.41 1152.05C1267.88 1154.5 1276.58 1149.6 1280.75 1143.76C1287.23 1134.72 1285.38 1119.9 1275.22 1107.84C1280.08 1107.22 1314.41 1102.53 1325.38 1087.09C1326.88 1084.97 1328.12 1082.78 1328.12 1082.78C1332.78 1074.38 1334.56 1064.63 1335.24 1054.71C1335.38 1052.74 1335.49 1050.79 1335.55 1048.82C1336.82 1054.63 1337.7 1060.45 1338.23 1066.31C1350.41 1122.07 1334.38 1184.41 1271.08 1203.17Z"/>
        <path fill="#FFAD40"
              d="M938.62 1348.87C940.034 1402.97 944.301 1435.44 945.882 1471.45C950.272 1533.38 935.458 1671.95 944.186 1718.24C948.166 1739.34 983.624 1754.14 1064.54 1754.14C1110.23 1754.14 1136.53 1741.77 1141.58 1723.72C1151.88 1686.95 1111.61 1669.6 1111.61 1669.6C1111.61 1669.6 1159.51 1521.72 1169.43 1403.23L938.62 1348.87Z"/>
        <path fill="#FFAD40"
              d="M941.425 1665.03C941.21 1687.17 941.869 1705.96 944.191 1718.24C948.175 1739.33 983.633 1754.15 1064.53 1754.15C1110.22 1754.15 1136.54 1741.77 1141.59 1723.73C1151.89 1686.96 1111.62 1669.6 1111.62 1669.6C1111.62 1669.6 1111.67 1669.42 1111.79 1669.07C1114.88 1659.42 1159.87 1517.66 1169.45 1403.23L938.625 1348.86C940.039 1402.98 944.31 1435.44 945.896 1471.45C949.121 1516.94 941.964 1603.79 941.425 1665.03Z"/>
        <path fill="#FFAD40"
              d="M1111.81 1669.07C1111.67 1669.41 1111.62 1669.6 1111.62 1669.6C1111.62 1669.6 1139.42 1681.57 1142.91 1706.72C1143.63 1711.83 1143.34 1717.5 1141.59 1723.73C1136.55 1741.78 1110.24 1754.15 1064.53 1754.15C983.638 1754.15 948.18 1739.34 944.205 1718.25C941.874 1705.95 941.21 1687.17 941.424 1665.04C941.53 1653.86 941.85 1641.83 942.27 1629.35C944.258 1573.46 948.552 1508.65 945.901 1471.45C944.31 1435.44 940.044 1402.98 938.639 1348.87L1169.46 1403.24C1167.66 1424.6 1164.67 1446.88 1160.9 1469.12C1146.96 1551.66 1122.93 1633.04 1114.58 1660.15C1113.15 1664.83 1112.18 1667.9 1111.81 1669.07Z"/>
        <path fill="#FFF3E9"
              d="M1141.59 1723.73C1136.55 1741.78 1110.24 1754.15 1064.53 1754.15C983.638 1754.15 948.18 1739.34 944.205 1718.25C941.874 1705.95 941.21 1687.17 941.424 1665.04C941.53 1653.86 941.85 1641.83 942.27 1629.35L944.84 1627.39C959.732 1634.41 975.578 1639.47 991.769 1642.36C1012.57 1646.08 1033.93 1646.2 1054.94 1644.06C1077.57 1641.73 1099.94 1636.77 1121.32 1628.98C1119.36 1639.47 1116.6 1649.84 1113.08 1659.91C1113.58 1659.99 1114.09 1660.06 1114.59 1660.15C1113.16 1664.84 1112.18 1667.91 1111.81 1669.07C1111.67 1669.42 1111.62 1669.6 1111.62 1669.6C1111.62 1669.6 1139.42 1681.58 1142.91 1706.73C1143.63 1711.83 1143.34 1717.5 1141.59 1723.73Z"/>
        <path fill="#FFF3E9"
              d="M1141.58 1723.73C1136.55 1741.78 1110.24 1754.15 1064.53 1754.15C983.652 1754.15 948.185 1739.34 944.205 1718.25C941.878 1705.96 941.21 1687.17 941.424 1665.02C941.472 1658.77 941.616 1652.25 941.783 1645.52C941.831 1643.84 941.878 1642.14 941.926 1640.44C941.974 1638.31 942.046 1636.15 942.117 1633.99C942.165 1632.46 942.213 1630.9 942.261 1629.35L942.284 1629.32L944.85 1627.41C952.852 1631.19 961.146 1634.4 969.607 1636.99C976.892 1639.24 984.297 1641.04 991.774 1642.36C1012.57 1646.08 1033.93 1646.22 1054.95 1644.06C1077.57 1641.73 1099.93 1636.77 1121.33 1628.99C1119.37 1639.48 1116.61 1649.84 1113.08 1659.9C1113.58 1660 1114.09 1660.07 1114.59 1660.14C1113.15 1664.84 1112.17 1667.9 1111.81 1669.08C1111.67 1669.41 1111.62 1669.6 1111.62 1669.6C1111.62 1669.6 1139.42 1681.59 1142.92 1706.73C1143.04 1707.57 1143.13 1708.43 1143.18 1709.29C1143.47 1713.72 1143.04 1718.53 1141.58 1723.73Z"/>
        <path fill="#FF9343"
              d="M1169.45 1403.23C1167.68 1424.6 1164.66 1446.89 1160.9 1469.13C1111.63 1555.33 993.093 1527.75 981.76 1570.46C979.004 1580.83 972.124 1608.25 969.611 1636.98C961.151 1634.4 952.862 1631.18 944.855 1627.4L942.289 1629.32C944.229 1573.45 948.543 1508.63 945.906 1471.44C944.301 1435.44 940.034 1402.97 938.62 1348.86L1169.45 1403.23Z"/>
        <path fill="#D9D9EA"
              d="M1143.49 1711.92C1143.49 1715.61 1142.96 1719.54 1141.79 1723.73C1136.76 1741.78 1110.44 1754.15 1064.74 1754.15C983.858 1754.15 948.39 1739.34 944.41 1718.25C942.084 1705.96 941.415 1687.17 941.63 1665.02C941.654 1661.88 941.702 1658.7 941.773 1655.44C941.797 1653.81 941.821 1652.18 941.869 1650.53C941.988 1645.13 942.132 1639.63 942.323 1633.99C942.37 1632.44 942.442 1630.88 942.49 1629.32L945.055 1627.41C953.058 1631.19 961.351 1634.4 969.812 1636.99C966.458 1675 970.701 1715.23 1002.24 1721.2C1082.04 1736.3 1126.3 1715.9 1143.12 1706.73C1143.24 1707.57 1143.34 1708.43 1143.39 1709.29C1143.46 1710.15 1143.49 1711.01 1143.49 1711.92Z"/>
        <path fill="#000072"
              d="M945.805 1348.68C946.57 1389.62 951.013 1430.63 953.091 1471.6C955.313 1512.98 952.355 1554.42 950.822 1595.61C949.666 1622.97 948.443 1650.32 948.591 1677.44C948.638 1684.21 948.82 1690.96 949.183 1697.64C949.556 1704.28 950.139 1711.01 951.29 1717.06C951.768 1719.29 952.714 1721.4 954.228 1723.4C972.722 1744.83 1028.18 1746.07 1055.75 1746.88C1075.36 1747.19 1095.51 1746.54 1113.9 1739.7C1123.19 1735.98 1132.27 1730.82 1134.83 1721.04C1135.16 1720 1135.53 1717.87 1135.69 1716.8C1138.24 1701.84 1128.63 1688.6 1116.51 1680.63C1114.16 1679.05 1111.13 1677.26 1108.69 1676.16C1105.31 1674.63 1103.68 1670.83 1104.77 1667.37C1128.71 1592.13 1145.97 1514.08 1160.3 1436.44C1162.41 1425.26 1163.96 1414.02 1165.87 1402.78C1166.21 1400.82 1168.06 1399.5 1170.02 1399.84C1171.83 1400.14 1173.09 1401.75 1173.01 1403.53C1172.41 1426.06 1170.18 1449.61 1167.09 1472C1164.1 1494.71 1159.49 1517.15 1154.2 1539.41C1143.91 1584.03 1132.23 1628.07 1118.45 1671.8L1114.45 1662.98C1118.29 1664.74 1121.19 1666.48 1124.56 1668.71C1145.53 1682.43 1157.06 1706.54 1146.54 1730.79C1137.29 1748.95 1116.14 1755.39 1097.85 1758.74C1069.91 1763.09 1041.87 1761.38 1013.83 1758.9C988.592 1755.7 944.224 1749.82 937.192 1719.87C934.593 1705.51 934.454 1691.82 934.215 1677.54C934.077 1622.48 938.539 1567.8 939.423 1512.98C940.431 1458.07 932.266 1403.95 931.435 1349.04C931.444 1339.73 945.194 1338.99 945.805 1348.68Z"/>
        <path fill="#F9D3B7"
              d="M837.529 1405.41C857.986 1495.57 1065.14 1520.72 1130.11 1423.37C1134.42 1416.92 1138.21 1410.27 1141.54 1403.48C1113.93 1432.87 1066.83 1460.84 988.172 1458.12C847.49 1453.22 852.382 1340.25 840.162 1270.04C839.216 1264.59 837.491 1259.37 835.251 1254.36C833.951 1316.18 829.909 1371.81 837.529 1405.41Z"/>
        <path fill="#F9D3B7"
              d="M839.006 1410.81C866.299 1496.55 1066.46 1518.73 1130.13 1423.37C1143.83 1402.84 1152.35 1380.46 1156.78 1357C1133.45 1391.32 1085.74 1434.3 991.879 1439.83C916.873 1444.23 866.318 1425.46 839.006 1410.81Z"/>
        <path fill="#FFAD40"
              d="M748.965 1445.94C748.965 1445.94 780.64 1502.84 844.442 1514.52C1001.29 1543.27 1099.77 1486.08 1099.77 1486.08C1144.49 1453.41 1167.56 1410.64 1174.84 1360.32C1178.51 1335.03 1178.19 1307.83 1174.6 1279.04C1168.5 1229.92 1142.04 1157.49 1107 1091.41C1107 1091.41 1082.21 991.76 929.094 1001.16C775.958 1010.56 766.795 1106.52 766.795 1106.52C757.655 1140.04 751.426 1168.39 747.102 1192.1C737.313 1245.98 737.442 1276 736.205 1288.75C725.952 1393.39 741.732 1429.84 748.965 1445.94Z"/>
        <path fill="#FF9343"
              d="M779.163 1073.23C905.928 1103.01 1009.69 1088.23 1084.95 1052.66C1073.41 1039.24 1056.25 1025.03 1031.06 1014.84C995.156 1000.32 965.598 999.762 929.089 1001.17C878.959 1003.11 807.255 1005.88 785.441 1049C780.864 1058.05 779.522 1066.83 779.163 1073.23Z"/>
        <path fill="#FFF3E9"
              d="M1042.54 1453.51C1099.61 1453.51 1145.88 1393 1145.88 1318.37C1145.88 1243.73 1099.61 1183.23 1042.54 1183.23C985.466 1183.23 939.198 1243.73 939.198 1318.37C939.198 1393 985.466 1453.51 1042.54 1453.51Z"/>
        <path fill="#FFF3E9"
              d="M1042.54 1453.51C1099.61 1453.51 1145.88 1393 1145.88 1318.37C1145.88 1243.73 1099.61 1183.23 1042.54 1183.23C985.466 1183.23 939.198 1243.73 939.198 1318.37C939.198 1393 985.466 1453.51 1042.54 1453.51Z"/>
        <path fill="#FFF3E9"
              d="M1042.54 1453.51C1099.61 1453.51 1145.88 1393 1145.88 1318.37C1145.88 1243.73 1099.61 1183.23 1042.54 1183.23C985.466 1183.23 939.198 1243.73 939.198 1318.37C939.198 1393 985.466 1453.51 1042.54 1453.51Z"/>
        <path fill="#fff"
              d="M1145.87 1318.37C1145.87 1355.03 1134.7 1388.29 1116.56 1412.62C1089.89 1429.2 1054.06 1443.87 1009.05 1446.27C1009.05 1446.27 1009.05 1446.27 1009.03 1446.27C968.408 1428.03 939.198 1377.68 939.198 1318.37C939.198 1243.71 985.473 1183.23 1042.53 1183.23C1099.62 1183.23 1145.87 1243.72 1145.87 1318.37Z"/>
        <path fill="#FF9343"
              d="M1174.84 1360.33C1167.56 1410.66 1144.48 1453.41 1099.76 1486.1C1099.76 1486.1 1001.29 1543.28 844.438 1514.52C780.644 1502.85 748.96 1445.96 748.96 1445.96C741.723 1429.83 725.952 1393.38 736.185 1288.75C737.432 1275.99 737.289 1245.97 747.088 1192.1L809.806 1176.35C809.806 1176.35 795.789 1232.91 799.477 1288.75C803.194 1345.25 833.029 1435.58 978.134 1445.96C988.869 1446.72 999.174 1446.79 1009.03 1446.27C1009.05 1446.27 1009.05 1446.27 1009.05 1446.27C1019.55 1450.96 1030.81 1453.51 1042.53 1453.51C1071.58 1453.51 1097.79 1437.85 1116.56 1412.62C1155.43 1388.49 1174.84 1360.33 1174.84 1360.33Z"/>
        <path fill="#D9D9EA"
              d="M1116.56 1412.62C1097.8 1437.86 1071.58 1453.51 1042.53 1453.51C1030.82 1453.51 1019.55 1450.96 1009.05 1446.27C1054.06 1443.87 1089.89 1429.2 1116.56 1412.62Z"/>
        <path fill="#F87B38"
              d="M737.451 1677.35C737.69 1697.5 736.214 1710.46 740.772 1723.46C751.039 1752.81 778.872 1759.17 860.065 1756.72C903.353 1755.42 916.381 1737.9 920.112 1722.98C926.146 1698.84 913.252 1675.16 913.252 1675.16C913.252 1675.16 913.252 1675.13 913.252 1675.11C913.601 1671.88 929.686 1521.71 932.443 1521.02C936.829 1519.91 987.279 1522.82 1048.09 1506.65C1048.09 1506.65 908.484 1515.12 812.892 1453.01C755.911 1415.99 731.069 1350.02 731.069 1350.02C735.951 1413.34 733.372 1576.3 737.189 1666.95C737.342 1670.62 737.428 1674.07 737.451 1677.35Z"/>
        <path fill="#FFAD40"
              d="M1048.1 1506.63C987.293 1522.82 936.838 1519.91 932.443 1521.02C931.755 1521.18 930.217 1530.77 928.31 1545.08C924.073 1576.93 917.948 1632.1 914.981 1659.21C913.973 1668.51 913.338 1674.5 913.261 1675.11C913.261 1675.14 913.261 1675.16 913.261 1675.16C913.261 1675.16 926.165 1698.85 920.127 1722.99C916.391 1737.88 903.382 1755.42 860.084 1756.72C778.896 1759.16 751.043 1752.8 740.791 1723.47C736.233 1710.46 737.719 1697.5 737.48 1677.33C737.451 1674.08 737.375 1670.63 737.217 1666.95C736.687 1654.36 736.291 1640.37 735.971 1625.43C735.942 1625.22 735.942 1625 735.942 1624.79C735.942 1624.47 735.913 1624.13 735.913 1623.78C735.249 1592.91 734.958 1558.15 734.719 1523.54C734.241 1454.54 733.873 1386.1 731.088 1350.01C731.088 1350.01 755.916 1415.99 812.916 1453C908.484 1515.11 1048.1 1506.63 1048.1 1506.63Z"/>
        <path fill="#FF9343"
              d="M731.074 1350.01C733.854 1386.09 734.222 1454.54 734.719 1523.53C803.887 1497.35 897.472 1532.04 928.301 1545.09C930.212 1530.78 931.755 1521.19 932.448 1521.02C936.833 1519.91 987.288 1522.82 1048.1 1506.65C1048.1 1506.65 908.484 1515.11 812.897 1453C755.912 1415.99 731.074 1350.01 731.074 1350.01Z"/>
        <path fill="#FFF3E9"
              d="M920.117 1722.99C916.381 1737.88 903.372 1755.42 860.074 1756.72C778.886 1759.16 751.034 1752.8 740.781 1723.47C736.224 1710.46 737.709 1697.5 737.471 1677.33C737.442 1674.08 737.365 1670.63 737.208 1666.95C736.678 1654.36 736.281 1640.37 735.961 1625.43C736.252 1625.69 736.649 1625.91 736.993 1626.04C750.986 1631.95 766.006 1634.94 781.084 1636.9C825.892 1642.66 871.894 1639.15 915.297 1626.62C915.192 1637.51 915.086 1648.35 914.977 1659.21C913.969 1668.52 913.333 1674.5 913.257 1675.11C913.257 1675.14 913.257 1675.17 913.257 1675.17C913.257 1675.17 926.161 1698.85 920.117 1722.99Z"/>
        <path fill="#D9D9EA"
              d="M740.777 1723.46C751.043 1752.81 778.877 1759.17 860.069 1756.72C903.358 1755.41 916.386 1737.89 920.117 1722.98C922.482 1713.51 921.942 1704.14 920.399 1696.21C920.313 1696.62 920.227 1697.06 920.117 1697.47C916.381 1712.39 903.358 1729.91 860.069 1731.21C778.877 1733.67 751.043 1727.3 740.777 1697.95C738.474 1691.37 737.714 1684.82 737.499 1677.33C737.475 1677.33 737.475 1677.35 737.456 1677.35C737.695 1697.5 736.219 1710.45 740.777 1723.46Z"/>
        <path fill="#000072"
              d="M738.235 1349.45C743.911 1461.16 740.523 1572.98 744.67 1684.57 744.723 1696.94 743.638 1709.77 747.584 1721.16 753.294 1739 769.58 1744.94 788.011 1747.55 800.409 1749.36 813.341 1749.83 826.274 1749.99 835.614 1750.16 846.119 1749.84 855.536 1749.66 870.508 1749.45 887.282 1747.63 899.297 1740.07 920.313 1727.13 916.343 1697.78 906.941 1678.6 906.215 1677.27 905.947 1675.8 906.11 1674.4L913.61 1606.69C917.232 1577.89 919.635 1548.85 925.033 1520.19 925.692 1517.74 926.973 1515.53 929.672 1514.39 931.373 1513.79 930.412 1514.14 930.986 1513.98L931.674 1513.85C932.223 1513.75 932.366 1513.76 932.644 1513.73 942.772 1513.2 953.645 1513.06 963.73 1512.39 991.554 1511.28 1019.68 1508.38 1047.16 1503.19 1051.36 1502.48 1053.26 1508.54 1049.01 1510.13 1027.31 1517.72 1004.64 1522.48 981.799 1525.51 970.39 1527.05 958.843 1527.67 947.349 1527.82 944.057 1527.83 937.206 1527.94 934.039 1528.05 933.967 1528.06 933.752 1528.07 933.957 1528.05 934.01 1528.04 934.067 1528.03 934.12 1528.02 936.05 1527.6 937.956 1526.01 938.644 1524.54 931.932 1566.7 925.568 1630.47 920.394 1675.93L919.563 1671.73C932.801 1697.15 934.526 1735.72 906.984 1752.22 888.61 1763.66 866.744 1763.91 846.009 1764.26 816.284 1764.03 768.873 1767.09 746.027 1745.32 729.406 1729.42 729.784 1705.34 730.29 1684.51 728.709 1625.43 727.543 1566.38 727.405 1507.47 726.812 1455.26 727.18 1402.52 723.898 1350.56 723.391 1341.16 737.179 1339.75 738.235 1349.45ZM1097.65 1483.19C1156.66 1434.99 1175.09 1369.44 1168.39 1295.53 1165.74 1260.21 1156.08 1225.88 1144.38 1192.5 1132.58 1158.82 1118.64 1125.82 1103.81 1093.09 1102.99 1091.28 1103.79 1089.14 1105.6 1088.32 1107.27 1087.55 1109.23 1088.19 1110.17 1089.72 1129.06 1120.77 1144.84 1153.63 1157.79 1187.61 1170.69 1221.76 1181.23 1257.6 1184.12 1294.22 1188.76 1349.16 1179.65 1408.87 1143.26 1452.32 1131.45 1466.75 1117.27 1479 1101.89 1489 1098.14 1491.31 1094.17 1486.16 1097.65 1483.19Z"/>
        <path fill="#FFAD40"
              d="M809.806 1176.36C786.912 1222.95 779.015 1276.5 772.312 1324.86C762.772 1393.7 755.591 1452.05 710.889 1464.9C658.289 1480.03 622.095 1447.52 613.931 1381.54C610.749 1355.94 611.308 1328.7 615.044 1301.09C630.547 1185.93 701.004 1064.43 784.978 1030.12L809.806 1176.36Z"/>
        <path fill="#FFF3E9"
              d="M772.427 1323.71C772.403 1324.09 772.332 1324.48 772.308 1324.86C772.021 1327.02 771.734 1329.15 771.419 1331.28C770.822 1335.55 770.244 1339.74 769.647 1343.92C768.806 1349.91 767.946 1355.8 767.033 1361.55C766.795 1363.14 766.532 1364.72 766.288 1366.27C765.208 1372.81 764.086 1379.14 762.839 1385.26C762.481 1387.1 762.094 1388.9 761.688 1390.7C761.329 1392.4 760.942 1394.05 760.536 1395.7C760.488 1395.94 760.441 1396.16 760.369 1396.4C760.082 1397.65 759.772 1398.87 759.456 1400.07C758.907 1402.27 758.329 1404.43 757.708 1406.53C757.278 1408.09 756.819 1409.63 756.341 1411.13C755.596 1413.53 754.808 1415.88 753.967 1418.16C753.561 1419.29 753.15 1420.41 752.696 1421.49C751.951 1423.43 751.187 1425.3 750.346 1427.12C750.059 1427.77 749.749 1428.41 749.457 1429.04C749.147 1429.73 748.812 1430.4 748.473 1431.07C748.139 1431.72 747.828 1432.37 747.489 1432.99C746.796 1434.33 746.075 1435.65 745.282 1436.92C744.565 1438.17 743.796 1439.39 743.003 1440.58C742.621 1441.16 742.234 1441.71 741.828 1442.28C741.828 1442.33 741.78 1442.38 741.732 1442.43C740.939 1443.53 740.127 1444.61 739.286 1445.66C738.904 1446.16 738.493 1446.65 738.111 1447.12C737.633 1447.7 737.151 1448.25 736.625 1448.8C736.195 1449.28 735.76 1449.76 735.306 1450.21C735.283 1450.26 735.211 1450.33 735.139 1450.38C734.227 1451.32 733.295 1452.23 732.311 1453.09C731.857 1453.5 731.375 1453.91 730.897 1454.34C730.801 1454.43 730.706 1454.5 730.586 1454.58C729.626 1455.37 728.623 1456.13 727.615 1456.86C726.511 1457.67 725.408 1458.41 724.237 1459.09C723.664 1459.42 723.086 1459.78 722.489 1460.09C721.48 1460.67 720.429 1461.2 719.374 1461.7C719.039 1461.89 718.681 1462.03 718.342 1462.18C717.864 1462.37 717.381 1462.58 716.904 1462.77C716.259 1463.08 715.609 1463.32 714.94 1463.54C713.622 1464.04 712.255 1464.48 710.865 1464.88C707.655 1465.82 704.516 1466.56 701.449 1467.14C693.996 1468.53 686.925 1468.88 680.289 1468.26C679.52 1468.19 678.756 1468.12 678.011 1468.02C677.485 1467.98 676.979 1467.91 676.477 1467.81C675.832 1467.71 675.206 1467.62 674.585 1467.5C674.37 1467.48 674.179 1467.45 673.988 1467.38C673.075 1467.21 672.192 1467.02 671.303 1466.81C671.231 1466.81 671.16 1466.81 671.112 1466.76C670.199 1466.57 669.292 1466.3 668.379 1466.04C665.455 1465.2 662.627 1464.15 659.918 1462.9C659.125 1462.52 658.361 1462.13 657.568 1461.7C657.52 1461.7 657.472 1461.68 657.424 1461.63C656.78 1461.29 656.106 1460.94 655.461 1460.55C655.127 1460.38 654.792 1460.19 654.477 1459.97C653.856 1459.62 653.23 1459.23 652.633 1458.82C652.418 1458.7 652.227 1458.58 652.036 1458.44C651.438 1458.06 650.86 1457.65 650.287 1457.24C649.207 1456.47 648.18 1455.68 647.172 1454.82C645.758 1453.72 644.392 1452.49 643.073 1451.18C642.328 1450.46 641.611 1449.72 640.918 1448.97C640.297 1448.33 639.695 1447.65 639.098 1446.96C638.931 1446.79 638.788 1446.63 638.644 1446.46C638.143 1445.86 637.636 1445.24 637.135 1444.62C636.896 1444.35 636.705 1444.09 636.514 1443.82C636.036 1443.2 635.553 1442.58 635.1 1441.95C634.908 1441.72 634.741 1441.48 634.574 1441.24C634.048 1440.52 633.542 1439.8 633.04 1439.03C632.993 1438.96 632.921 1438.86 632.897 1438.79C631.674 1437.02 630.547 1435.15 629.496 1433.23C628.922 1432.25 628.392 1431.24 627.843 1430.19C627.341 1429.2 626.811 1428.18 626.333 1427.14C626.309 1427.1 626.285 1427.05 626.261 1427.02C625.807 1426.02 625.325 1424.99 624.871 1423.96C624.823 1423.86 624.799 1423.77 624.752 1423.67C624.274 1422.59 623.815 1421.49 623.385 1420.36C623.003 1419.38 622.616 1418.4 622.234 1417.37C620.438 1412.48 618.856 1407.26 617.538 1401.72C616.004 1395.39 614.805 1388.66 613.921 1381.54C610.758 1355.95 611.308 1328.69 615.049 1301.09C654.52 1328.12 705.228 1330.23 753.685 1325.75C759.963 1325.17 766.245 1324.48 772.427 1323.71Z"/>
        <path fill="#FFF3E9"
              d="M629.5 1433.23C630.461 1434.93 631.44 1436.58 632.496 1438.17C631.416 1436.58 630.437 1434.93 629.5 1433.23Z"/>
        <path fill="#fff"
              d="M753.685 1325.75C741.823 1377.63 730.677 1421.75 695.477 1429.78C657.974 1438.36 632.954 1427.53 617.542 1401.72C616.009 1395.39 614.81 1388.66 613.926 1381.54C610.763 1355.95 611.313 1328.69 615.053 1301.09C654.52 1328.12 705.228 1330.23 753.685 1325.75Z"/>
        <path fill="#390075"
              d="M710.884 1464.89C711.434 1464.72 711.988 1464.56 712.537 1464.39C712.012 1464.6 711.457 1464.75 710.908 1464.91C710.091 1465.15 709.279 1465.37 708.486 1465.56C709.279 1465.34 710.067 1465.13 710.884 1464.89Z"/>
        <path fill="#FF9343"
              d="M772.308 1324.86C772.332 1324.48 772.403 1324.09 772.427 1323.71C766.245 1324.48 759.968 1325.17 753.685 1325.75C764.11 1280.26 775.112 1228.83 803.39 1190.54C785.341 1233.6 778.346 1281.34 772.308 1324.86Z"/>
        <path fill="#D9D9EA"
              d="M772.427 1323.71C772.403 1324.09 772.332 1324.48 772.308 1324.86C772.021 1327.02 771.734 1329.15 771.419 1331.28C770.822 1335.55 770.244 1339.74 769.647 1343.92C768.806 1349.91 767.946 1355.8 767.033 1361.55C766.795 1363.14 766.532 1364.72 766.288 1366.27C765.208 1372.81 764.086 1379.14 762.839 1385.26C762.481 1387.1 762.094 1388.9 761.688 1390.7C761.329 1392.4 760.942 1394.05 760.536 1395.7C760.488 1395.94 760.441 1396.16 760.369 1396.4C760.082 1397.65 759.772 1398.87 759.456 1400.07C758.907 1402.27 758.329 1404.43 757.708 1406.53C757.278 1408.09 756.819 1409.63 756.341 1411.13C755.596 1413.53 754.808 1415.88 753.967 1418.16C753.561 1419.29 753.15 1420.41 752.696 1421.49C751.951 1423.43 751.187 1425.3 750.346 1427.12C750.059 1427.77 749.749 1428.41 749.457 1429.04C749.147 1429.73 748.812 1430.4 748.473 1431.07C748.139 1431.72 747.828 1432.37 747.489 1432.99C746.796 1434.33 746.075 1435.65 745.282 1436.92C744.565 1438.19 743.796 1439.41 743.003 1440.58C742.621 1441.16 742.234 1441.71 741.828 1442.28C741.828 1442.33 741.78 1442.38 741.732 1442.43C740.939 1443.53 740.127 1444.61 739.286 1445.66C738.904 1446.16 738.493 1446.65 738.111 1447.12C737.633 1447.7 737.151 1448.25 736.625 1448.8C736.195 1449.28 735.76 1449.76 735.306 1450.21C735.283 1450.26 735.211 1450.33 735.139 1450.38C734.251 1451.34 733.295 1452.25 732.311 1453.09C731.857 1453.5 731.375 1453.91 730.897 1454.34C730.801 1454.43 730.706 1454.5 730.586 1454.58C729.626 1455.37 728.623 1456.13 727.615 1456.86C726.511 1457.67 725.408 1458.41 724.237 1459.09C723.664 1459.42 723.086 1459.78 722.489 1460.09C721.48 1460.67 720.429 1461.2 719.374 1461.7C719.039 1461.89 718.681 1462.03 718.342 1462.18C717.864 1462.37 717.381 1462.58 716.904 1462.77C716.259 1463.08 715.609 1463.32 714.94 1463.54C713.622 1464.06 712.279 1464.5 710.889 1464.91C707.678 1465.82 704.54 1466.56 701.449 1467.13C693.996 1468.52 686.925 1468.88 680.289 1468.26C679.52 1468.19 678.756 1468.12 678.011 1468.02C677.485 1467.97 676.979 1467.9 676.477 1467.8C675.832 1467.71 675.206 1467.61 674.585 1467.49C674.37 1467.47 674.179 1467.45 673.988 1467.38C673.075 1467.21 672.192 1467.02 671.303 1466.8C671.231 1466.8 671.16 1466.8 671.112 1466.75C670.199 1466.56 669.292 1466.3 668.379 1466.03C665.455 1465.19 662.627 1464.14 659.918 1462.89C659.125 1462.51 658.361 1462.13 657.568 1461.69C657.52 1461.69 657.472 1461.67 657.424 1461.62C656.78 1461.29 656.106 1460.93 655.461 1460.54C655.127 1460.38 654.792 1460.18 654.477 1459.97C653.856 1459.61 653.23 1459.23 652.633 1458.82C652.418 1458.7 652.227 1458.58 652.036 1458.44C651.438 1458.05 650.86 1457.64 650.287 1457.24C649.207 1456.47 648.18 1455.68 647.172 1454.82C645.758 1453.69 644.392 1452.44 643.073 1451.17C642.328 1450.45 641.611 1449.71 640.918 1448.97C640.297 1448.32 639.695 1447.65 639.098 1446.96C638.931 1446.79 638.788 1446.62 638.644 1446.45C638.143 1445.86 637.636 1445.23 637.135 1444.61C636.896 1444.35 636.705 1444.08 636.514 1443.82C636.036 1443.2 635.553 1442.57 635.1 1441.95C634.908 1441.71 634.741 1441.47 634.574 1441.23C634.048 1440.52 633.542 1439.79 633.04 1439.03C632.993 1438.95 632.921 1438.86 632.897 1438.79C631.698 1437.01 630.571 1435.17 629.496 1433.23C628.922 1432.24 628.392 1431.24 627.843 1430.18C627.341 1429.2 626.811 1428.17 626.333 1427.14C626.309 1427.09 626.285 1427.04 626.261 1427.02C625.807 1426.01 625.325 1424.98 624.871 1423.95C624.823 1423.86 624.799 1423.76 624.752 1423.67C624.274 1422.59 623.815 1421.49 623.385 1420.36C623.003 1419.38 622.616 1418.4 622.234 1417.36C620.438 1412.48 618.856 1407.25 617.538 1401.71C632.945 1427.53 657.964 1438.36 695.472 1429.78C730.677 1421.75 741.818 1377.63 753.68 1325.74C759.963 1325.17 766.245 1324.48 772.427 1323.71Z"/>
        <path fill="#000072"
              d="M787.696 1036.78C681.742 1083.55 616.921 1241.87 619.157 1352.54C620.151 1392.05 627.737 1446.77 671.857 1459.42C683.92 1462.52 696.69 1461.24 708.624 1457.83C738.593 1449.25 748.392 1415.52 754.469 1388.05C765.433 1335.19 768.276 1278.47 784.963 1226.09C790.51 1208.37 797.523 1191.01 806.581 1174.77C807.551 1173.03 809.739 1172.4 811.478 1173.37C813.107 1174.28 813.752 1176.27 813.035 1177.94C791.986 1228.21 785.398 1282.77 778.184 1336.56C771.797 1378.14 767.22 1442.61 726.994 1466.09C700.45 1480.26 664.395 1479.96 641.243 1459.28C611.657 1432.59 605.79 1390.5 604.787 1352.82C602.599 1236.14 670.247 1072.6 782.259 1023.47C791.136 1020.1 796.529 1032.89 787.696 1036.78Z"/>
        <path fill="#FFCEDA" d="M610.754 1305.94C611.599 1306.6 610.725 1308.77 609.851 1307.87L610.754 1305.94Z"/>
        <path fill="#FFAD40"
              d="M788.838 547.141L1124.97 579.45C1146.38 518.237 1124.35 364.25 1073.57 323.503C1058.24 311.21 1040.31 309.242 1020.15 323.254C969.406 358.521 909.502 482.779 788.838 547.141Z"/>
        <path fill="#fff"
              d="M788.838 547.141L814.497 549.615C922.75 483.032 978.994 369.882 1027.03 336.493C1047.19 322.48 1065.13 324.453 1080.46 336.741C1088.46 343.167 1095.76 352.435 1102.3 363.681C1094.16 346.387 1084.55 332.303 1073.57 323.493C1058.24 311.201 1040.31 309.232 1020.15 323.245C969.406 358.521 909.502 482.779 788.838 547.141Z"/>
        <path fill="#FF9343"
              d="M931.669 560.876L1124.97 579.446C1146.38 518.232 1124.34 364.245 1073.57 323.498C1064.98 322.953 1055.67 326.627 1047.08 338.771C1025.09 369.815 991.855 509.547 931.669 560.876Z"/>
        <path fill="#000072"
              d="M1124.98 586.645C1124.19 586.645 1123.39 586.516 1122.6 586.239C1118.85 584.93 1116.88 580.826 1118.19 577.081C1139.78 515.332 1114.78 363.834 1068 328.285C1054.34 317.904 1040.03 318.185 1024.26 329.15C1006.67 341.37 987.063 365.893 964.351 394.286C922.468 446.647 870.346 511.811 792.22 553.49C788.718 555.358 784.361 554.034 782.493 550.528C780.625 547.026 781.949 542.669 785.455 540.801C860.968 500.517 912.067 436.633 953.124 385.304C976.534 356.037 996.757 330.76 1016.05 317.34C1037 302.773 1057.97 302.597 1076.7 316.829C1112.12 343.75 1128 412.832 1133.19 441.286C1143.11 495.792 1142.55 550.953 1131.77 581.82C1130.73 584.792 1127.95 586.645 1124.98 586.645Z"/>
        <path fill="#fff"
              d="M975.082 454.042L1115.57 545.253C1115.34 543.07 1115 510.187 1109.87 474.179C1107.62 458.356 1104.45 441.946 1099.94 427.269C1088.43 389.785 1075.01 365.692 1065.15 356.3C1062.35 353.648 1059.85 352.172 1057.75 351.9C1041.19 349.745 1022.63 391.395 975.082 454.042Z"/>
        <path fill="#D9D9EA"
              d="M975.082 454.042L1115.57 545.253C1115.34 543.07 1115 510.187 1109.87 474.179C1103.67 473.104 1095.9 470.472 1087.6 464.615C1075.53 456.115 1052.27 435.262 1047.98 410.314C1045.69 397.104 1054.31 374.674 1065.15 356.3C1062.35 353.648 1059.85 352.172 1057.75 351.9C1041.19 349.745 1022.63 391.395 975.082 454.042Z"/>
        <path fill="#000072"
              d="M1115.48 552.415C1114.14 552.415 1112.82 552.042 1111.65 551.287L971.169 460.071C969.492 458.982 968.345 457.248 968.001 455.279C967.657 453.311 968.15 451.29 969.358 449.699C985.797 428.038 998.883 408.704 1009.4 393.168C1032.1 359.635 1043.47 342.789 1058.67 344.782C1076.72 347.132 1095.88 389.551 1106.81 425.162C1115.65 453.961 1120.97 493.093 1122.6 541.47C1122.66 543.084 1122.69 544.155 1122.72 544.594C1122.93 547.322 1121.58 549.988 1119.23 551.383C1118.07 552.066 1116.77 552.415 1115.48 552.415ZM985.463 452.208L1107.82 531.657C1105.37 479.138 1098.54 447.21 1093.07 429.381C1077.54 378.802 1061 360.108 1056.73 359.023C1050.4 358.283 1036.29 379.103 1021.31 401.227C1011.7 415.421 999.967 432.754 985.463 452.208Z"/>
        <path fill="#000072"
              d="M1027.97 495.573C1026.61 495.573 1025.24 495.186 1024.05 494.412L971.164 460.071C969.487 458.982 968.341 457.248 967.997 455.279C967.653 453.311 968.145 451.29 969.349 449.699C982.143 432.83 992.639 417.714 999.413 407.811C999.991 406.965 1000.75 406.248 1001.63 405.718C1014.23 398.103 1024.68 396.665 1032.7 401.437C1037.79 404.466 1041.07 408.838 1042.19 414.083C1043.32 419.425 1042.03 424.804 1040.06 429.405C1046.37 429.749 1052.89 431.449 1057.59 436.036C1061.14 439.499 1064.97 445.997 1063.07 457.267C1061.23 468.112 1051.14 480.175 1032.23 494.163C1030.98 495.1 1029.47 495.573 1027.97 495.573ZM985.458 452.208L1027.65 479.601C1045.31 465.799 1048.41 457.788 1048.91 454.869C1049.6 450.755 1049.15 447.879 1047.56 446.331C1044.78 443.608 1037.36 442.944 1028.66 444.626C1028.14 444.726 1027.82 444.769 1027.71 444.783C1024.89 445.099 1022.13 443.708 1020.7 441.267C1018.3 437.187 1020.74 433.747 1021.91 432.094C1026.72 425.32 1028.81 420.265 1028.14 417.074C1027.95 416.209 1027.47 415.058 1025.36 413.802C1022.56 412.139 1017.15 413.4 1010.38 417.265C1004.38 426.003 995.801 438.324 985.458 452.208Z"/>
        <path fill="#FFAD40"
              d="M597.319 709.88L660.415 638.677L799.888 481.297C721.872 390.158 612.383 356.138 579.175 374.923C574.536 377.536 570.446 382.471 567.04 389.637C547.61 430.289 549.722 542.635 597.319 709.88Z"/>
        <path fill="#fff"
              d="M558.412 420.71C560.103 413.692 562.129 407.715 564.494 402.794C567.9 395.628 571.994 390.693 576.628 388.08C609.206 369.653 715.165 402.035 792.803 489.276L799.883 481.293C721.872 390.158 612.383 356.138 579.175 374.923C574.536 377.536 570.446 382.471 567.04 389.637C563.323 397.415 560.39 407.811 558.412 420.71Z"/>
        <path fill="#FF9343"
              d="M597.319 709.88L660.415 638.677C666.172 605.669 669.984 556.466 654.448 512.16C631.058 445.519 603.119 375.802 567.04 389.637C547.61 430.289 549.722 542.635 597.319 709.88Z"/>
        <path fill="#000072"
              d="M597.315 717.065C594.181 717.065 591.305 715.001 590.402 711.843C557.729 597.065 549.569 519.89 548.48 475.359C547.056 417.265 556.697 379.375 575.635 368.664C612.889 347.605 725.752 383.646 805.339 476.611C807.924 479.625 807.57 484.164 804.556 486.749C801.536 489.333 796.998 488.98 794.418 485.965C718.323 397.076 611.594 364.847 582.715 381.181C557.882 395.222 547.553 508.773 604.232 707.907C605.322 711.729 603.105 715.704 599.288 716.788C598.628 716.974 597.969 717.065 597.315 717.065Z"/>
        <path fill="#FFAD40"
              d="M1253.94 824.591C1253.65 831.58 1252.89 838.503 1251.68 845.329C1236.42 932.982 1148.36 1006.09 994.282 1046.61L899.885 1063C744.484 1079.71 614.796 1055.92 570.48 951.489C562.272 932.146 555.479 908.664 550.931 882.465C533.593 783.557 547.577 646.071 633.26 547.761C723.955 443.688 869.171 434.267 900.73 431.964C1090.68 418.048 1152.77 549.194 1210.77 707.739C1210.78 707.791 1215.26 712.363 1221.33 720.743C1223.87 724.24 1226.69 728.435 1229.57 733.236C1241.95 753.812 1255.63 785.712 1253.94 824.591Z"/>
        <path fill="#fff"
              d="M1252.3 825.566C1248.1 922.362 1158.72 1003.91 992.634 1047.59L898.236 1063.97C742.836 1080.68 613.147 1056.89 568.832 952.465C560.624 933.121 553.83 909.64 549.282 883.44C569.844 867.388 603.884 847.27 659.374 834.166C765.801 809.031 790.075 865.697 836.326 849.582C881.63 833.798 881.869 775.88 964.141 771.308C1016.95 768.375 1033.9 803.15 1055.3 804.263C1110.37 807.125 1135.61 727.356 1219.68 721.723C1233.1 740.308 1254.39 777.61 1252.3 825.566Z"/>
        <path fill="#D9D9EA"
              d="M549.278 883.445C553.835 909.63 560.638 933.116 568.841 952.46C613.157 1056.89 742.84 1080.69 898.236 1063.97L992.639 1047.58C1130.12 1011.42 1215.04 949.326 1242.57 874.11C1201.34 933.632 1120.85 982.405 1003.88 1013.17L905.479 1030.24C743.452 1047.66 608.25 1022.87 562.043 913.997C557.944 904.346 554.184 893.698 550.873 882.193C550.329 882.623 549.794 883.044 549.278 883.445Z"/>
        <path fill="#fff"
              d="M982.367 784.599C982.907 787.217 977.719 790.743 973.653 793.06C970.839 794.666 967.017 795.482 963.807 795.162C959.168 794.699 953.034 793.595 952.494 790.977C951.62 786.725 981.493 780.343 982.367 784.599Z"/>
        <path fill="#FF8080"
              d="M1252.3 825.566C1252 832.556 1251.25 839.478 1250.03 846.305 1241.17 850.557 1231.35 853.911 1220.83 856.094 1172.54 866.108 1128.04 847.523 1121.47 814.602 1114.9 781.68 1148.75 746.848 1197.04 736.834 1207.63 734.637 1218.07 733.815 1227.93 734.212 1240.31 754.788 1253.99 786.687 1252.3 825.566ZM720.881 959.207C769.124 948.871 802.529 913.878 795.495 881.048 788.461 848.218 743.651 829.983 695.409 840.32 647.167 850.656 613.761 885.649 620.795 918.479 627.829 951.308 672.639 969.543 720.881 959.207Z"/>
        <path fill="#000072"
              d="M593.827 608.908C585.271 631.702 576.858 654.16 570.102 677.436 556.425 723.567 550.028 771.906 551.06 820.024 551.446 844.127 553.783 868.224 558.187 891.896L557.662 892.001C562.029 909.272 566.887 926.318 573.002 942.8 578.988 959.278 587.626 974.389 598.557 987.809 669.602 1071.13 797.709 1064.2 897.926 1061.07 899.541 1060.99 900.902 1062.25 900.974 1063.86 901.041 1065.34 899.975 1066.62 898.552 1066.87 862.678 1073.04 826.13 1075.9 789.492 1074.87 708.099 1072.55 614.117 1049.89 571.182 973.701 557.485 949.283 548.852 922.214 544.615 894.624L544.089 894.729C536.34 858.062 533.402 820.483 535.065 783.061 536.732 745.601 542.966 708.284 554.571 672.587 562.473 648.857 573.236 625.911 587.989 605.717 590.311 602.779 595.189 605.077 593.827 608.908ZM991.764 1044.24C1067.58 1018.97 1147.15 989.156 1201.48 928.114 1249.72 873.976 1259.67 799.839 1220.93 737.398 1216 729.348 1210.45 721.599 1204.14 714.586 1203.68 714.012 1203.46 714.055 1202.5 712.479 1153.61 574.534 1088.03 427.699 908.551 439.691 884.477 441.066 859.272 442.662 835.537 446.905 811.359 450.984 787.514 456.894 764.162 464.428 762.232 465.088 760.125 464.032 759.49 462.092 758.888 460.248 759.834 458.27 761.597 457.549 784.739 447.946 808.803 440.608 833.325 435.405 1065.31 383.742 1152.01 519.479 1215.89 705.136 1215.35 704.118 1214.35 703.144 1215.04 703.879 1222.17 711.724 1228.43 720.443 1233.94 729.463 1276.1 797.694 1265.42 878.677 1212.37 937.645 1155.89 999.92 1074.18 1033.89 993.527 1050.92 989.295 1051.55 987.608 1045.8 991.764 1044.24Z"/>
        <path fill="#FFF3E9"
              d="M751.531 682.687C746.667 670.084 779.526 619.213 806.189 625.175 832.852 631.138 834.295 660.037 820.89 671.101 801.422 687.173 756.389 695.29 751.531 682.687ZM1070.18 626.15C1070.08 612.611 1024.79 577.883 1004 593.539 983.213 609.195 991.745 636.56 1006.95 641.739 1029.02 649.263 1070.28 639.689 1070.18 626.15Z"/>
        <path fill="#fff"
              d="M597.616 565.491C600.315 573.373 603.425 580.544 606.984 586.683C663.669 513.335 710.153 520.439 704.201 483.428C697.737 443.36 629.467 398.824 590.65 403.038C588.238 403.301 586.245 408.159 584.76 416.248C579.418 445.81 581.334 518.351 597.616 565.491Z"/>
        <path fill="#D9D9EA"
              d="M597.616 565.491C600.315 573.373 603.425 580.544 606.984 586.683C663.669 513.335 710.153 520.439 704.201 483.428C697.737 443.36 629.467 398.824 590.65 403.038C588.238 403.301 586.245 408.159 584.76 416.248C604.495 420.27 637.073 431.918 644.439 465.283C654.123 509.188 615.125 527.448 597.616 565.491Z"/>
        <path fill="#000072"
              d="M606.984 593.878C606.827 593.878 606.664 593.874 606.502 593.864C604.113 593.706 601.958 592.364 600.759 590.29C570.757 538.393 570.618 423.758 581.334 402.632C583.919 397.539 587.411 396.154 589.886 395.881C631.622 391.371 703.985 436.91 711.295 482.282C715.117 506.007 700.856 515.533 681.116 528.714C663.463 540.505 639.285 556.648 612.674 591.083C611.303 592.856 609.201 593.878 606.984 593.878ZM593.684 409.999C586.9 425.358 586.021 522.474 608.37 573.459C633.585 543.156 656.216 528.05 673.123 516.756C693.117 503.403 699.337 498.515 697.092 484.57C691.354 448.935 628.311 408.303 593.684 409.999Z"/>
        <path fill="#000072"
              d="M660.907 508.457C661.075 509.04 660.912 508.844 661.309 509.179 664.72 511.094 669.062 511.095 673.759 514.367 677.203 516.498 679.654 521.958 679.391 525.838L668.518 520.09C674.537 516.02 680.629 512.141 685.984 508.085 691.349 504.005 695.592 499.738 696.939 495.037 700.02 483.873 693.337 470.539 686.362 461.103 686.357 461.098 689.897 463.621 689.897 463.621 682.133 461.982 674.867 460.85 668.126 463.989 665.732 465.283 662.307 467.405 662.436 469.946 662.565 470.983 663.516 472.655 664.978 474.193 668.136 477.647 674.241 480.662 679.272 483.791 680.891 484.914 681.297 487.136 680.175 488.76 677.824 491.015 674.456 492.214 671.872 494.34 667.419 497.775 660.367 502.548 660.907 508.457ZM646.737 510.903C644.802 494.545 663.855 486.987 676.52 483.318L677.155 490.026C669.679 490.37 662.952 488.789 656.526 484.431 637.684 470.027 653.039 448.495 672.789 447.043 680.562 446.288 687.666 447.908 694.063 450.297 695.491 450.755 696.8 451.62 697.598 452.814 707.01 465.685 715.012 482.669 710.273 499.175 705.075 515.093 688.674 522.814 676.315 531.661 673.138 533.83 668.8 533.004 666.64 529.817 665.699 528.695 665.446 526.526 665.379 525.575 665.422 525.742 665.656 525.962 665.508 525.866 662.512 524.242 657.554 523.96 653.349 521.06 650.062 519.092 647.249 514.682 646.737 510.903ZM994.733 778.919C986.841 766.135 932.784 777.897 928.58 794.618 924.753 809.838 958.764 824.131 972.934 823.657 974.332 823.611 975.537 823.42 976.493 823.073 979.359 822.031 982.584 819.29 985.609 815.586 993.825 805.531 1000.58 788.385 994.733 778.919ZM999.84 870.661C999.84 870.661 1000.61 877.298 1001.81 881.382 1002.43 883.493 1003.63 885.287 1005.06 886.901 1007.16 881.456 1007.9 873.887 1006.09 863.982 1006.09 863.982 1004.45 865.311 1002.06 867.418 1001.33 868.592 1000.58 869.684 999.84 870.661Z"/>
        <path fill="#000072"
              d="M1002.06 867.418C1001.33 868.592 1000.58 869.684 999.84 870.661C999.84 870.661 1000.61 877.298 1001.81 881.382C1002.43 883.493 1003.63 885.287 1005.06 886.901C1000.08 899.863 987.457 900.782 983.434 892.499C980.796 887.07 994.861 873.741 1002.06 867.418ZM984.696 812.19L985.609 815.586C982.584 819.29 979.359 822.031 976.493 823.073C975.537 823.42 974.332 823.611 972.934 823.657L970.832 816.007C968.548 806.825 981.935 803.084 984.696 812.19Z"
              />
        <path fill="#000072"
              d="M988.609 927.088C1005.72 931.172 1023.99 918.679 1027.9 901.791C1030.63 886.909 1018.54 876.258 1014.75 873.24L1014.94 872.98C1016.77 870.562 1017.52 869.576 1018.03 868.48C1018.38 867.724 1018.62 866.916 1019.03 865.552C1019.24 864.836 1019.5 863.968 1019.84 862.874C1033.45 820.116 995.912 828.149 990.13 832.396L985.609 815.586C982.584 819.29 979.359 822.031 976.493 823.073C975.537 823.42 974.332 823.611 972.934 823.657L977.907 841.757C979.13 846.53 985.198 848.666 989.12 845.627C995.077 841.284 1002.37 840.606 1005.95 847.997C1008.66 853.661 1005.68 861.554 1002.06 867.418C1004.45 865.311 1006.09 863.982 1006.09 863.982C1007.9 873.887 1007.16 881.456 1005.06 886.901C1006.37 888.369 1007.88 889.688 1009.34 890.964C1013.51 894.619 1017.28 897.914 1014.75 903.31C1009.84 915.607 993.988 922.635 982.427 914.489C980.487 913.18 977.84 913.615 976.421 915.512C972.232 921.799 983.998 925.76 988.609 927.088Z"/>
        <path fill="#fff"
              d="M971.859 789.959C978.659 788.423 983.735 785.249 983.198 782.871C982.661 780.493 976.713 779.811 969.913 781.347C963.114 782.884 958.037 786.057 958.575 788.435C959.112 790.813 965.06 791.495 971.859 789.959Z"/>
        <path fill="#000072"
              d="M755.673 802.959C746.152 769.761 759.328 724.719 795.035 713.549 832.007 700.851 873.423 732.482 872.128 770.482 871.923 777.39 862.597 779.526 859.315 773.573 845.532 751.501 823.049 730.39 796.176 743.418 778.519 754.358 770.875 780.969 768.735 801.201 768.41 808.678 757.909 810.049 755.673 802.959ZM1106.61 733.175C1092.85 712.67 1067.68 680.317 1041.23 696.083 1028.94 706.364 1026.34 727.179 1024.34 743.838 1024.01 747.225 1021 749.705 1017.62 749.375 1009.82 748.84 1007.13 729.238 1006.79 723.137 1004.67 681.817 1038.31 652.574 1078.06 672.233 1093.07 680.068 1103.16 692.777 1110.39 707.343 1113.68 714.213 1116.2 721.322 1117.71 728.655 1118.39 731.952 1116.26 735.172 1112.96 735.85 1110.42 736.366 1107.93 735.229 1106.61 733.175Z"/>
        <path fill="#7BA2FF"
              d="M1283.07 1134.42L1227.58 899.989C1249.69 885.26 1262.56 855.64 1262.56 820.903C1262.56 808.329 1260.88 795.067 1257.34 781.609C1241.59 721.924 1196.11 683.929 1153.78 695.094C1111.44 706.259 1090.61 761.744 1106.36 821.429C1113.55 848.675 1127.47 872.634 1145.57 888.882C1160.99 902.698 1178.09 909.912 1194.92 909.912H1195.83L1250.79 1142.05C1252.59 1149.68 1259.42 1154.82 1266.93 1154.82C1268.17 1154.82 1269.47 1154.68 1270.74 1154.37C1279.67 1152.27 1285.17 1143.32 1283.07 1134.42ZM1138.41 812.977C1127.77 772.66 1138.69 733.371 1162.23 727.15C1164.39 726.596 1166.57 726.319 1168.81 726.319C1179.87 726.319 1191.55 733.089 1201.72 744.474C1211.87 755.83 1220.46 771.777 1225.27 790.065C1235.6 829.25 1225.57 867.488 1203.38 875.285C1203.21 875.342 1203.05 875.395 1202.88 875.476C1202.42 875.615 1201.94 875.753 1201.45 875.892C1187.55 879.566 1174.37 870.145 1167.74 864.201C1154.58 852.377 1143.88 833.726 1138.41 812.977Z"/>
        <path fill="#fff"
              d="M1283.07 1134.42 1227.58 899.989C1249.69 885.26 1262.56 855.64 1262.56 820.903 1262.56 808.329 1260.88 795.067 1257.34 781.609 1243.44 728.923 1206.37 693.159 1168.74 693.173 1202.37 699.341 1233.75 733.075 1246.29 780.586 1249.83 794.044 1251.51 807.307 1251.51 819.881 1251.51 854.613 1238.64 884.238 1216.53 898.967L1272.02 1133.4C1274.09 1142.18 1268.76 1151 1260.04 1153.25 1262.18 1154.23 1264.51 1154.82 1266.93 1154.82 1268.17 1154.82 1269.47 1154.68 1270.74 1154.37 1279.67 1152.27 1285.17 1143.32 1283.07 1134.42ZM1184.82 909.038 1184.78 908.89H1184.01C1184.28 908.938 1184.54 908.99 1184.82 909.038Z"/>
        <path fill="#000072"
              d="M1238.63 887.917 1239.14 890.057C1241.07 887.969 1242.87 885.714 1244.57 883.35 1242.67 884.983 1240.71 886.536 1238.63 887.917ZM1281.8 1142.3C1280.53 1142.6 1279.23 1142.74 1277.99 1142.74 1270.47 1142.74 1263.64 1137.6 1261.85 1129.98L1206.89 897.835H1205.98C1189.15 897.835 1172.04 890.621 1156.62 876.804 1138.53 860.556 1124.6 836.597 1117.42 809.351 1106.93 769.617 1112.68 731.765 1130.17 707.591 1104.34 729.702 1093.91 774.242 1106.37 821.429 1113.55 848.675 1127.48 872.634 1145.57 888.882 1160.99 902.698 1178.1 909.912 1194.93 909.912H1195.84L1250.8 1142.05C1252.59 1149.68 1259.42 1154.82 1266.94 1154.82 1268.18 1154.82 1269.48 1154.68 1270.75 1154.37 1277.11 1152.88 1281.72 1147.89 1283.08 1141.93 1282.66 1142.06 1282.24 1142.2 1281.8 1142.3Z"/>
        <path fill="#000072"
              d="M1266.93 1160.81C1256.41 1160.81 1247.37 1153.66 1244.96 1143.42L1191.07 915.789C1173.93 914.78 1156.89 907.074 1141.58 893.344C1122.61 876.317 1108.05 851.321 1100.57 822.958C1092.64 792.903 1093.39 762.719 1102.68 737.962C1112.24 712.493 1129.85 695.213 1152.25 689.303C1197.83 677.288 1246.54 717.161 1263.14 780.085C1266.74 793.772 1268.56 807.507 1268.56 820.908C1268.56 856.013 1255.85 886.14 1234.35 902.526L1288.91 1133.05C1290.29 1138.91 1289.31 1144.96 1286.15 1150.09C1282.98 1155.23 1278 1158.83 1272.12 1160.21C1270.45 1160.6 1268.7 1160.81 1266.93 1160.81ZM1168.83 699.135C1164.31 699.135 1159.78 699.709 1155.3 700.889C1136.76 705.781 1122.05 720.443 1113.9 742.176C1105.47 764.625 1104.85 792.229 1112.15 819.905C1119.04 846.033 1132.33 868.95 1149.57 884.429C1163.81 897.18 1179.48 903.921 1194.92 903.921H1200.57L1256.62 1140.67C1257.75 1145.48 1261.99 1148.83 1266.93 1148.83C1267.75 1148.83 1268.59 1148.73 1269.35 1148.55C1272.12 1147.9 1274.45 1146.21 1275.94 1143.81C1277.42 1141.4 1277.88 1138.56 1277.23 1135.8L1220.79 897.319L1224.25 895.007C1244.49 881.525 1256.56 853.825 1256.56 820.908C1256.56 808.535 1254.87 795.826 1251.54 783.137C1238.37 733.184 1203.72 699.135 1168.83 699.135ZM1195.04 882.705C1181.65 882.705 1170.04 874.315 1163.73 868.668C1149.71 856.056 1138.37 836.315 1132.62 814.502C1120.96 770.31 1133.55 728.522 1160.7 721.355C1163.38 720.667 1166.09 720.328 1168.81 720.328C1181.3 720.328 1194.58 727.485 1206.19 740.484C1217.37 753.006 1226.2 770.076 1231.05 788.546C1242.15 830.616 1230.62 872.065 1205.36 880.942C1205.35 880.942 1205.35 880.942 1205.35 880.942L1204.56 881.233L1203.04 881.673C1200.33 882.384 1197.65 882.705 1195.04 882.705ZM1168.81 732.31C1167.07 732.31 1165.4 732.52 1163.72 732.95C1143.71 738.234 1134.57 774.92 1144.21 811.444C1149.38 831.06 1159.41 848.665 1171.74 859.749C1177.46 864.875 1188.75 873.045 1199.91 870.102L1200.86 869.829C1201.07 869.743 1201.28 869.672 1201.5 869.6C1220.58 862.897 1228.85 827.162 1219.47 791.598C1215.09 774.92 1207.2 759.604 1197.26 748.467C1187.95 738.048 1177.85 732.31 1168.81 732.31Z"/>
        <path fill="#fff"
              d="M1157.79 727.896C1158.57 727.533 1159.31 727.227 1160.04 726.964C1160.04 726.964 1163.28 725.76 1166.57 725.287C1173.25 724.332 1181.59 727.485 1182.65 727.891C1190.32 730.853 1190.1 732.979 1193.71 733.418C1200.31 734.221 1205.75 727.662 1213.05 719.602C1225.11 706.292 1232.68 697.951 1240.68 691.969C1254.72 681.492 1269.28 678.912 1273.84 678.153C1276.22 677.761 1298.05 674.393 1318.05 683.68C1354.19 700.449 1370.31 751.955 1359.5 791.445C1358.1 796.572 1347.57 833.072 1318.05 843.945C1307.6 847.8 1297.91 847.27 1287.66 846.706C1255.52 844.948 1239.09 830.315 1229.63 838.417C1225.04 842.349 1228.33 846.296 1221.34 857.761C1218.43 862.553 1213.33 870.909 1204.77 874.339C1192.65 879.198 1179.64 871.731 1174.37 868.812C1154.15 857.628 1146.6 836.741 1141.21 821.835C1133.73 801.134 1134.19 784.437 1134.55 771.624C1134.81 762.542 1135.8 756.374 1138.45 749.991C1140.16 745.869 1145.44 733.61 1157.79 727.896Z"/>
        <path fill="#fff"
              d="M1160.14 731.933C1165.65 729.472 1171.24 729.42 1176.99 730.977C1181.34 732.152 1184.77 734.197 1188.58 736.49C1200.82 743.848 1212.51 727.136 1219.4 719.549C1227.54 710.582 1235.67 700.889 1245.79 694.057C1254.75 688.009 1264.87 684.368 1275.48 682.601C1275.68 682.567 1275.87 682.543 1276.07 682.515C1277.12 682.357 1274.89 682.648 1276.15 682.51C1276.91 682.429 1277.66 682.343 1278.41 682.271C1280.99 682.037 1283.57 681.927 1286.16 681.917C1292.77 681.903 1299.35 682.601 1305.75 684.263C1317.45 687.297 1327.54 693.689 1335.63 702.613C1351.08 719.674 1358.28 743.805 1358.14 766.526C1358.03 782.999 1353.61 798.698 1345.61 812.619C1340.44 821.61 1333.66 829.938 1324.77 835.465C1312.23 843.267 1297.66 843.047 1283.42 841.728C1271.41 840.62 1260.13 836.908 1248.64 833.54C1241.22 831.361 1232.43 829.441 1226.14 835.293C1222.89 838.312 1222.42 842.206 1221.36 846.253C1219.95 851.575 1216.97 856.443 1213.76 860.872C1210.29 865.654 1205.65 869.872 1199.67 870.981C1193.55 872.122 1187.12 870.059 1181.66 867.393C1170.92 862.157 1162.42 854.637 1156.26 844.365C1150.15 834.175 1145.72 822.389 1142.69 810.928C1139.39 798.468 1138.84 785.837 1139.18 773.019C1139.36 766.412 1139.82 759.909 1142.03 753.627C1142.98 750.952 1142.81 751.396 1144.01 748.921C1145 746.896 1146.11 744.927 1147.36 743.059C1150.59 738.229 1154.9 734.45 1160.14 731.933C1165.56 729.324 1160.82 721.265 1155.43 723.864C1145.04 728.861 1138.18 738.325 1133.94 748.764C1128.95 761.023 1129.23 775.508 1129.89 788.546C1130.62 802.983 1134.12 816.632 1139.28 830.086C1143.8 841.872 1149.47 853.361 1158.4 862.472C1167.32 871.564 1180.45 879.207 1193.29 880.469C1207.89 881.907 1218.04 872.18 1225.09 860.604C1228.33 855.277 1229.8 850.06 1231.42 844.17C1231.5 843.888 1231.57 843.611 1231.67 843.333C1232.08 842.096 1231.21 844.031 1231.87 842.908C1231.84 842.961 1233.06 841.633 1232.63 841.948C1233.16 841.556 1233.75 841.212 1234.35 840.954C1233.22 841.442 1236.7 840.62 1235.45 840.725C1237.19 840.577 1238.65 840.73 1239.65 840.926C1241.85 841.351 1244 841.919 1246.15 842.55C1251.59 844.146 1256.97 845.947 1262.45 847.375C1277.18 851.211 1293.55 853.194 1308.7 851.059C1322.01 849.181 1333.89 842.192 1342.86 832.302C1354.25 819.762 1362.11 803.246 1365.43 786.644C1370.35 762.055 1366.38 735.387 1354.44 713.32C1348.61 702.532 1340.64 692.939 1330.7 685.715C1318.95 677.173 1304.56 673.251 1290.16 672.644C1268.13 671.718 1246.86 679.342 1230.58 694.358C1225.82 698.753 1221.4 703.521 1217.02 708.294C1211.55 714.256 1206.42 721.102 1200.14 726.247C1198.42 727.662 1196.51 728.717 1194.46 728.837C1194.47 728.837 1193.13 728.469 1193.79 728.708C1194.41 728.932 1193.33 728.431 1193.3 728.412C1192.37 727.771 1191.45 727.103 1190.49 726.505C1185.89 723.648 1180.33 721.847 1175.01 720.983C1168.12 719.86 1161.75 721.035 1155.43 723.854C1153.12 724.881 1152.57 728.24 1153.75 730.246C1155.14 732.625 1157.83 732.965 1160.14 731.933Z"/>
        <path fill="#FD6CCB"
              d="M1344.97 774.232C1341.29 780.863 1333.66 786.807 1326.07 784.652C1320.29 783.023 1317.03 777.438 1314.07 772.465C1309.49 764.701 1304.02 757.072 1296.06 752.294C1287.57 747.211 1277.16 745.911 1267.1 745.716C1252.65 745.439 1249.41 745.08 1245.29 741.516C1238.85 735.989 1238.25 725.684 1239.52 719.024C1242.26 714.438 1245.46 710.128 1249.08 706.201L1244.91 709.823C1250.82 701.448 1260.55 696.56 1270.33 693.436C1282.65 689.514 1296.38 688.018 1308.27 693.078C1316.47 696.56 1323.1 702.862 1329.38 709.159C1332.77 712.613 1336.18 716.124 1338.75 720.237C1341.89 725.268 1343.69 731.044 1345.43 736.705C1347.09 742.233 1348.78 747.784 1349.6 753.508C1349.77 760.445 1348.81 767.381 1344.97 774.232Z"/>
        <path fill="#fff"
              d="M1322.19 729.205C1326.67 719.444 1318.01 705.885 1302.84 698.92C1287.67 691.955 1271.74 694.221 1267.26 703.982C1262.78 713.742 1271.44 727.301 1286.61 734.267C1301.77 741.232 1317.7 738.966 1322.19 729.205Z"/>
        <path fill="#39A1FF"
              d="M1324.96 809.409C1319.98 813.637 1310.74 821.29 1297.33 823.225C1290.45 824.214 1284.64 823.392 1283.51 823.225C1283.51 823.225 1274.83 821.935 1266.93 817.698C1266.49 817.459 1263.81 816.011 1260.7 814.306C1259.22 813.498 1257.96 812.82 1257.81 812.724C1249.55 807.225 1242.83 799.624 1237.03 791.56C1234.52 788.106 1232.14 784.485 1230.54 780.505C1228.74 776 1228.02 771.136 1227.72 766.273C1226.72 749.834 1230.98 733.113 1239.52 719.019C1238.25 725.679 1238.85 735.984 1245.29 741.511C1249.41 745.075 1252.65 745.434 1267.1 745.711C1277.15 745.902 1287.57 747.201 1296.06 752.289C1304.02 757.072 1309.49 764.696 1314.07 772.46C1317.03 777.433 1320.29 783.013 1326.07 784.647C1333.67 786.802 1341.29 780.863 1344.97 774.227C1348.81 767.377 1349.77 760.44 1349.61 753.503C1349.75 754.334 1349.92 755.571 1350.05 757.067C1352.45 785.455 1327.5 807.254 1324.96 809.409Z"/>
        <path fill="#fff"
              d="M1338.77 1077.44L1289.04 1102.31C1207.6 1124.37 1166.79 1057.88 1174.94 1006.46C1179.03 980.432 1195.72 958.241 1226.03 953.406C1241.64 950.893 1257.56 954.261 1271.6 961.475C1306.45 979.353 1327.89 1013.04 1335.54 1048.82C1336.81 1054.63 1337.69 1060.45 1338.22 1066.31C1338.55 1070.04 1338.75 1073.74 1338.77 1077.44Z"/>
        <path fill="#fff"
              d="M1201.82 960.486C1189.19 966.616 1183.44 981.158 1178.93 994.459C1174.1 1008.7 1169.38 1023.82 1172.5 1038.52C1174.32 1047.09 1178.72 1054.89 1183.62 1062.16C1196.95 1081.91 1215.64 1099.36 1238.79 1105.01C1246.09 1106.79 1253.63 1107.36 1261.13 1107.58C1278.51 1108.1 1296.64 1106.63 1311.7 1097.95C1317.56 1094.57 1322.82 1090.15 1327.17 1084.96C1331.1 1080.27 1334.31 1074.84 1335.72 1068.88C1336.77 1064.43 1336.79 1059.81 1336.53 1055.25C1334.31 1015.95 1310.22 978.593 1275.35 960.338C1271.42 958.284 1267.36 956.449 1263.08 955.298C1257.75 953.865 1252.2 953.511 1246.68 953.32C1240.51 953.105 1234.33 953.086 1228.15 953.263C1217.85 953.554 1206.1 955.183 1200.34 963.735L1201.82 960.486Z"/>
        <path fill="#D9D9EA"
              d="M1336.12 1050.76C1336 1051.51 1335.89 1052.25 1335.72 1052.98C1334.31 1058.94 1331.09 1064.36 1327.16 1069.06C1322.82 1074.25 1317.56 1078.67 1311.69 1082.05C1296.63 1090.74 1278.5 1092.21 1261.13 1091.68C1253.62 1091.46 1246.08 1090.89 1238.79 1089.11C1215.64 1083.46 1196.95 1066.01 1183.61 1046.26C1178.71 1038.99 1174.32 1031.19 1172.5 1022.62C1172.34 1021.86 1172.21 1021.1 1172.09 1020.34C1171.27 1026.41 1171.22 1032.5 1172.5 1038.52C1174.32 1047.09 1178.71 1054.89 1183.61 1062.16C1196.95 1081.91 1215.64 1099.36 1238.79 1105.01C1246.08 1106.79 1253.62 1107.35 1261.13 1107.58C1278.5 1108.1 1296.63 1106.63 1311.69 1097.95C1317.55 1094.57 1322.82 1090.15 1327.16 1084.96C1331.09 1080.27 1334.31 1074.84 1335.72 1068.88C1336.77 1064.43 1336.79 1059.81 1336.53 1055.25C1336.44 1053.75 1336.27 1052.26 1336.12 1050.76Z"/>
        <path fill="#000072"
              d="M1289.57 1104.26C1264.56 1114.01 1235.27 1114.04 1211.69 1100.16C1174.99 1078.16 1157.9 1028.97 1173.01 988.903C1181.23 966.611 1200.92 950.707 1224.39 947.095C1264.73 940.636 1302.71 968.46 1322.94 1001.41C1326.52 1007.49 1330.24 1014.35 1332.78 1020.89C1340.29 1038.77 1343.91 1058.11 1343.95 1077.39C1343.96 1080.25 1341.65 1082.57 1338.78 1082.58C1335.95 1082.59 1333.65 1080.31 1333.6 1077.5C1332.55 1044.09 1319.84 1010.92 1296.15 987.125C1282.24 973.72 1264.79 962.345 1245.4 959.669C1149.94 950.267 1161.22 1107.19 1268.1 1102.24C1274.75 1102.02 1281.94 1101.21 1288.51 1100.37C1290.92 1099.92 1291.88 1103.44 1289.57 1104.26Z"/>
        <path fill="#8AE2FF"
              d="M1335.58 568.873C1275.61 538.942 1293.99 462.684 1370.35 477.036L1406.29 488.569C1431.11 493.542 1468.79 478.13 1510.46 456.402C1518.57 452.174 1524.84 445.371 1528.57 437.249C1555.45 378.687 1613.42 369.151 1629.17 412.454C1632.35 428.65 1630.99 444.731 1623.69 460.668C1620.92 466.707 1623.45 473.797 1629.57 476.792C1634.47 479.195 1638.98 482.286 1643.15 485.984C1659.96 500.895 1667.75 523.425 1661.13 544.475C1653.56 568.505 1630.97 579.192 1602.81 571.611L1581.75 562.151C1571.98 557.766 1560.84 557.216 1550.62 560.493C1517.87 570.994 1491.39 579.976 1469.48 594.858C1460.86 600.72 1454.88 604.508 1449.44 610.819C1446.15 614.632 1445.27 616.543 1435.06 631.577C1429.06 640.411 1426.06 644.825 1425.48 645.418C1415.28 655.723 1397.74 660.075 1382.34 656.95C1377.59 655.985 1366.92 653.821 1359.15 645.236C1344.45 628.969 1339.73 612.94 1341.22 578.051C1341.38 574.19 1339.14 570.65 1335.58 568.873Z"/>
        <path fill="#fff"
              d="M1392.34 665.129C1388.51 665.129 1384.66 664.762 1380.9 663.997C1375.59 662.922 1363.16 660.4 1353.81 650.061C1337.48 631.998 1332.49 613.748 1334.03 577.745C1334.07 576.775 1333.43 575.843 1332.37 575.308C1296.3 557.307 1287.84 525.393 1295.25 503.36C1302.22 482.64 1326.41 461.466 1371.68 469.97C1371.97 470.023 1372.26 470.099 1372.55 470.19L1408.09 481.594C1433.12 486.333 1474.14 467.233 1507.14 450.029C1513.63 446.642 1518.93 441.038 1522.04 434.249C1538.13 399.187 1566.71 377.254 1594.88 378.42C1613.95 379.198 1628.91 390.707 1635.93 409.994C1636.05 410.343 1636.15 410.701 1636.22 411.064C1639.83 429.405 1637.81 447.1 1630.22 463.659C1629.06 466.196 1630.14 469.062 1632.73 470.333C1638.09 472.961 1643.2 476.415 1647.92 480.605C1667.31 497.808 1675.19 523.726 1667.98 546.629C1659.18 574.616 1632.86 587.147 1600.94 578.547C1600.57 578.447 1600.21 578.318 1599.87 578.165L1578.8 568.706C1570.68 565.056 1561.45 564.569 1552.82 567.335C1519.52 578.008 1494.34 586.66 1473.53 600.801L1471.29 602.315C1464.02 607.236 1459.22 610.48 1454.88 615.516C1453.02 617.67 1452.04 619.151 1448.77 624.053C1446.98 626.747 1444.56 630.397 1441.01 635.619L1440.85 635.844C1432.67 647.888 1431.59 649.464 1430.58 650.477C1421.37 659.783 1406.93 665.129 1392.34 665.129ZM1352.59 482.501C1330.78 482.501 1314.33 491.722 1308.88 507.941C1303.39 524.261 1310.42 548.282 1338.79 562.443C1344.91 565.495 1348.68 571.744 1348.39 578.356C1347 610.752 1350.76 625.247 1364.47 640.416C1370.65 647.247 1379.5 649.044 1383.75 649.904C1396.96 652.579 1411.88 648.743 1420.16 640.554C1421.05 639.384 1424.4 634.463 1428.95 627.76L1429.11 627.54C1432.62 622.366 1435.03 618.755 1436.8 616.089C1440.25 610.901 1441.54 608.961 1443.99 606.123C1449.58 599.645 1455.6 595.57 1463.23 590.41L1465.44 588.915C1487.84 573.689 1513.96 564.693 1548.42 553.647C1560.44 549.797 1573.32 550.485 1584.69 555.592L1605.22 564.812C1629.16 571.061 1647.93 562.471 1654.27 542.32C1659.86 524.543 1653.78 505.022 1638.38 491.364C1634.63 488.034 1630.6 485.306 1626.41 483.251C1616.8 478.546 1612.74 467.314 1617.15 457.678C1623.47 443.885 1625.13 429.725 1622.22 414.399C1617.17 400.988 1607.27 393.321 1594.3 392.79C1576.08 392.078 1550.63 406.43 1535.11 440.25C1530.67 449.924 1523.1 457.926 1513.79 462.78C1460.71 490.456 1428.14 500.274 1404.89 495.62C1404.63 495.568 1404.36 495.501 1404.11 495.415L1368.59 484.021C1363.01 482.998 1357.65 482.501 1352.59 482.501ZM1420.35 640.363C1420.34 640.373 1420.33 640.382 1420.32 640.392C1420.33 640.387 1420.34 640.377 1420.35 640.363Z"/>
        <path fill="#fff"
              d="M1349.98 538.116C1362.55 538.116 1372.74 530.606 1372.74 521.342 1372.74 512.078 1362.55 504.568 1349.98 504.568 1337.4 504.568 1327.21 512.078 1327.21 521.342 1327.21 530.606 1337.4 538.116 1349.98 538.116ZM1511.52 509.006C1535.49 499.944 1553.11 487.811 1550.87 481.907 1548.64 476.004 1527.4 478.565 1503.44 487.627 1479.47 496.69 1461.85 508.823 1464.08 514.726 1466.31 520.63 1487.55 518.069 1511.52 509.006ZM1590.82 447.048C1600.09 447.048 1607.6 439.538 1607.6 430.274 1607.6 421.01 1600.09 413.501 1590.82 413.501 1581.56 413.501 1574.05 421.01 1574.05 430.274 1574.05 439.538 1581.56 447.048 1590.82 447.048ZM1331.45 1047.27C1340.03 1091.96 1270.71 1097.38 1237.55 1097.38 1204.39 1097.38 1175.7 1048.56 1175.7 1017.02 1175.7 985.48 1201.23 954.269 1234.39 954.269 1295.79 956.977 1325.84 1018.01 1331.45 1047.27Z"/>
</svg>