<svg xmlns="http://www.w3.org/2000/svg" width="3000" height="2000" fill="none">
    <path fill="#fff" d="M0 0h3000v2000H0z"/>
    <path fill="url(#b)" d="M1 1998h2998V0H1v1998Z"/>
    <path fill="#FFC68A" d="M1190 1340s588-296 966-284 843 361 843 361l-1809-77Z"/>
    <path fill="#FFCF95" d="M17 1250s583-275 867-292 1244 442 1244 442L1 1418l16-168Z"/>
    <path fill="#932500" d="M432 1405s19-50-10-82c-28-31-66 3-66 3s-2-18-11-29-26-3-26-3-6-75-57-88c-50-13-78 33-78 33s-29-16-47-1c-17 15-17 42-17 42s-53-27-84 23c0 0-12-20-35 18v126l431-42Z"/>
    <path fill="#D5000D" d="M195 1316c-1 3-4 5-7 5h-3c-4-2-6-7-4-12 0-2 6-18 19-21 8-2 15 2 20 6 5-9 13-17 26-17 24 0 35 27 35 28 2 5 0 10-4 12s-9 0-10-5c0 0-8-18-21-18-12 0-16 17-16 17-1 4-3 6-6 7s-7-1-8-4c-1-2-8-10-13-9-3 1-6 7-8 11Zm-127 49c1-10 7-26 21-27 10-1 17 6 22 12 8-8 20-14 35-7 7 4 12 11 16 18 6-4 15-7 24-3 16 8 18 26 17 35-1 4-5 8-9 8h-1c-5-1-9-6-8-11 0-2 1-10-6-13-5-3-11 3-12 4l1 18c0 4-3 8-8 8-4 0-8-4-7-9 0-8-2-33-14-39-13-6-22 8-22 10-2 2-5 4-8 4-2-1-5-2-6-5s-7-13-12-13c-6 0-8 12-8 12 0 5-4 8-9 8-4-1-7-5-6-10Zm309-121s0-23 9-38c7-11 27-14 41-27 0 0-5 10-14 19-10 9-9 34-36 46Zm-6 15s7-15 4-33-11-25-14-41c0 0-6 17-4 35 3 17 9 20 11 27l3 12Zm-6 43v-19c0-9-14-23-25-28 0 0 6 7 10 25 3 18 7 22 17 31 0 0 0-5-2-9Zm4-24s4-18 17-26 28-17 37-27c0 0-8 23-19 35-12 12-25 12-35 18Z"/>
    <path fill="#932500" d="M355 1272s5 8 6 17c0 8 5 23 5 23v-8l-3-13c-1-6-1-11-8-19Zm41-20-18 13c-6 5-10 15-10 15v3s5-11 12-17l16-14Zm-31-37 4 16c4 11 1 33 1 33l2-7s2-12 0-22l-7-20Z"/>
    <path fill="#932500" d="M391 1220a79 79 0 0 0-6 9l-1 2-1 2a153 153 0 0 0-11 29l-1 4-1 4-1 7a208 208 0 0 0-1 34v6a281 281 0 0 0-1 8 254 254 0 0 1 0-48 116 116 0 0 1 7-27l1-4a128 128 0 0 1 16-26Zm2178 185s-19-50 9-82c28-31 67 3 67 3s1-18 11-29c9-11 25-3 25-3s7-75 57-88c51-13 79 33 79 33s29-16 46-1c18 15 18 42 18 42s52-27 84 23c0 0 34-31 34 15v157l-430-70Z"/>
    <path fill="#D5000D" d="M2806 1316c1 3 4 5 7 5h3c4-2 6-7 4-12-1-2-7-18-20-21-7-2-14 2-19 6-5-9-14-17-26-17h-1c-23 0-34 27-34 28-2 5 0 10 4 12s8 0 10-5c0 0 7-18 20-18h1c12 0 16 17 16 17 0 4 3 6 6 7s6-1 8-4c1-2 7-10 12-9 3 1 7 7 9 11Zm127 49c-1-10-7-26-22-27-10-1-17 6-21 12-8-8-21-14-35-7-8 4-13 11-16 18-7-4-16-7-25-3-15 8-17 26-16 35 1 4 4 8 9 8h1c5-1 8-6 7-11 0-2 0-10 6-13 5-3 11 3 13 4l-2 18c1 4 4 8 8 8h1c4 0 7-4 7-9 0-8 1-33 13-39 13-6 22 8 23 10 2 2 4 4 7 4 3-1 6-2 7-5s6-13 12-13 7 12 8 12c0 5 4 8 8 8 5-1 8-5 7-10Zm-310-121s1-23-9-38c-6-11-27-14-41-27 0 0 5 10 15 19s8 34 35 46Zm7 15s-7-15-4-33 11-25 13-41c0 0 7 17 4 35-3 17-8 20-11 27l-2 12Zm5 43 1-19c0-9 13-23 25-28 0 0-6 7-10 25s-7 22-17 31l1-9Zm-4-24s-3-18-16-26-29-17-37-27c0 0 8 23 19 35 12 12 25 12 34 18Z"/>
    <path fill="#932500" d="M2646 1272s-5 8-6 17c-1 8-6 23-6 23l1-8 3-13c0-6 1-11 8-19Zm-41-20 17 13c6 5 11 15 11 15v3s-5-11-12-17l-16-14Zm30-37s0 7-4 16c-3 11 0 33 0 33l-2-7s-2-12 0-22l6-20Z"/>
    <path fill="#932500" d="M2610 1220a90 90 0 0 1 4 6l2 3 1 2 1 2a156 156 0 0 1 11 29l1 4v4l2 7 1 32v8a263 263 0 0 1 1 8 264 264 0 0 0 0-48 115 115 0 0 0-6-23l-1-4-2-4a122 122 0 0 0-15-26Z"/>
    <path fill="#FF6700" d="M1500 1319C778 1319 1 1457 1 1457v541h2998v-541s-777-138-1499-138Z"/>
    <path fill="#E54000" d="M774 1998s1035-537 2225-365v365H774Z"/>
    <path fill="#fff" d="M1072 325s-28 45-76 45c-49 0-68-45-68-45s-24 46-80 45c-46-1-72-38-72-38s-77 58-155 43c-92-19-116-123-116-123h-1c-3-1-100-20-100-75 1-75 143-83 143-83s7-69 49-94h512c41 27 44 51 44 51s150 8 156 138c7 130-236 136-236 136Z"/>
    <path fill="url(#c)" d="M808 0c-42 40-49 112-49 112s-72-61-112-46-72 82-72 82-128 2-126 30c3 27 54 72 55 74h1s24 104 116 123c78 15 155-43 155-43s26 37 72 38c56 1 80-45 80-45s19 45 68 45c48 0 76-45 76-45s185-47 179-126c-7-79-129-70-129-70s7-52-43-78c-50-25-93 46-93 46s-20-61-59-97H808Z"/>
    <path fill="#fff" d="M2345 610c3 83-213 86-213 86s-22 58-72 57-77-33-77-33-37 42-97 36c-60-7-84-39-84-39s-155 12-163-64c-8-75 95-74 95-74s-20-57 12-97c37-48 86-30 86-30s17-128 126-118c91 7 104 124 104 124s45-46 97-14c45 27 37 77 37 77s145 5 149 89Z"/>
    <path fill="url(#d)" d="M1907 535s-36-48-76-24c-45 27-37 87-37 87s-108 8-106 50c3 41 114 69 114 69s24 32 84 39c60 6 97-36 97-36s27 32 77 33 72-57 72-57 189-52 180-94c-9-41-147-29-147-29s0-40-33-58c-47-26-79 35-79 35s-2-101-68-109h-6c-55 0-72 94-72 94Z"/>
    <path fill="#fff" d="M1505 899c-4 18-24 26-46 30-30 5-64 1-64 1s-11 28-39 34c-28 5-53-27-53-27-27 2-55 1-77-4-29-6-50-17-50-32-1-19 26-17 26-17s-8-24 5-38 35-4 35-4-3-33 19-48c23-16 49 2 49 2s15-39 47-40c32 0 47 52 47 52s23-13 39-1c16 11 14 35 14 35s55 22 48 57Z"/>
    <path fill="url(#e)" d="M1322 827s-14-14-33-7c-26 8-27 44-27 44s-21-13-35-7-8 35-8 35-19 0-24 10c-2 6 15 20 31 31 22 5 50 6 77 4 0 0 25 32 53 27 28-6 39-34 39-34s34 4 64-1c15-5 29-12 29-20 1-20-50-33-50-33s4-23-11-36-41 0-41 0 0-30-23-38l-8-1c-21 0-33 26-33 26Z"/>
    <path fill="#FF7500" d="M2999 869v50s-2 80-98 42c0 0-90 62-135-6 0 0-32 26-67-5 0 0-85 106-170 16 0 0-109 74-176 18-67-57-60-119-60-119s-63-34-51-93 62-63 62-63c0-1-23-30-12-68 0 0-111-6-126-79-15-72 54-119 54-119s-17-70 3-115c21-45 83-54 83-54s0-113 113-123c0 0-35-91 51-151h529v869Z"/>
    <path fill="#EF5000" d="M2999 379V22c0 94 10 198-78 114 0 0 2 76-46 101s-71-14-71-14-22 30-40 24-36-7-36-7-23 40-12 123c0 0 6 81 67 101s76 8 76 8 5 59 66 67c5 1 74 0 74 103V379Z"/>
    <path fill="#EF5000" d="M2999 509v276c-104 44-107-48-107-48s-25 42-86 66l-4 2-33-86s-19 21-52 21c-33-1-45-54-45-54s-16 23-37 26c-22 4-46-33-46-33s-6 49-33 62c-28 14-60-24-60-24-17 21-49 34-49 34 15 53 89 87 92 87 1-1 55 2 103 5-8 3-16 5-26 5-70 2-90-10-90-10s-40 106-124 80c-54-18-37-110-37-110s-43 29-76-11c-34-40 15-88 15-88s-50 4-62 63 51 93 51 93-7 62 60 119c67 56 176-18 176-18 85 90 170-16 170-16 35 31 67 5 67 5 45 68 135 6 135 6 96 38 98-42 98-42V509Z"/>
    <path fill="#65443A" d="M2999 1199v645c-81-342-43-751-142-892-100-142-234-65-320-100s-92-110-92-110c40 61 68 96 182 92-20-14-26-44-28-63v-16l5 13c26 63 70 64 72 64h1c100 1 135 36 136 37-1-1-33-75-44-117-13-50-2-103-7-170-6-67-9-115-75-193-65-78-52-164-52-164 11 104 71 139 71 139-14-75 9-117 21-132l5-7-5 19c-26 113 33 177 57 263 24 87 11 176 9 184 2-7 19-87 32-124 14-38 24-56 25-108 0-23 3-40 7-53 6-18 12-27 12-27l-2 12c-10 52 9 81 2 122-8 45-44 136-38 227 4 70 78 162 110 249 33 88 58 210 58 210Z"/>
    <path fill="#7D554B" d="M2999 1258v16c-18-56-32-137-53-201-27-82-50-123-82-181l-35-65c-21-40-28-89-20-145 6-46 20-86 28-109l3-8c13-40 17-54 14-106-1-23 1-40 3-53 6-18 12-27 12-27l-2 12c-5 12-10 35-8 67a216 216 0 0 1-18 117c-16 47-55 158-7 250l34 64c32 58 55 100 83 183 19 58 31 132 48 186Z"/>
    <path fill="#7D554B" d="M2999 1419v16c-23-67-30-156-48-235-13-58-26-112-37-150-18-57-30-85-45-114-1-2-18-23-66-55-31-21-64-25-96-29-21-2-41-4-58-11-31-13-45-49-50-70v-16l5 13c4 20 17 56 47 68 16 6 36 9 56 11 32 4 67 8 98 29 28 19 45 33 55 43a3712 3712 0 0 0-39-72c-47-90-46-163-44-233v-7c1-58-4-73-27-133l-21-56c-22-59-20-108-15-140 3-21 9-37 13-46l5-7-5 19-9 36c-5 30-6 79 15 136l21 56c24 61 29 76 28 135v7c-2 73-3 141 43 230l30 55c26 47 39 71 63 149 12 39 24 93 37 151 17 74 23 156 44 220Z"/>
    <path fill="#FFB200" d="m2262 200 1-4c1-5 1-24-18-30-23-7-32-35-32-35s-23 35-3 74c19 35 47 13 47 13l14 11v-6s-29-21-44-45c0 0 28 33 35 22Zm46 813 2-2c5-1 22-3 29 18 9 24 35 31 35 31s-30 29-66 11c-33-17-16-51-16-51l-12-15h6s21 30 44 45c0 0-32-28-22-37Zm378 47 2 3c2 7 5 30-18 41-26 13-33 48-33 48s-33-39-14-89c17-46 55-25 55-25l15-16 1 8s-33 30-47 62c0 0 29-45 39-32Z"/>
    <path fill="#EF5000" d="M2367 715s5 35 32 40c25 5 39-26 39-26s32 8 42-17c11-25 4-39 4-39s29 26 9 60c-17 27-39 20-39 20s-27 45-62 29c-35-15-25-67-25-67Z"/>
    <path fill="#FF7500" d="M2568 745s4 19 14 19c11 1 17-12 17-12s8 13 15 8c8-6 7-14 7-14s7 11-2 22-19 3-19 3-12 18-28 6c-12-9-4-32-4-32Zm275-415s-4 28 10 35c15 7 25-11 25-11s8 27 21 24 16-15 16-15 3 20-14 29-29-7-29-7-23 16-39-9c-12-19 10-46 10-46Z"/>
    <path fill="#EF5000" d="M2557 142s-30 61 18 89c45 27 71-9 71-9s6 21 26 26c21 5 43-13 43-13s3 19 33 25c30 5 54-34 54-34s-68 33-71-35c0 0-33 37-58 18-19-14-21-32-21-32s-32 36-63 25c-34-11-32-60-32-60Z"/>
    <path fill="#FFB200" d="M2313 545s-47-9-54-42 25-52 25-52-35-51-14-92c17-35 86-18 86-18s22-60 54-59c37 1 49 61 49 61s-28-36-49-31c-21 4-35 62-35 62s-64-20-72 4c-10 31 41 80 41 80s-61 11-60 38c1 28 29 49 29 49Zm319-445s-15-29-3-46c11-18 33-8 33-8s9-40 35-45c23-5 43 40 43 40s36-13 49 5c14 21-8 52-8 52s5-30-6-40c-10-10-42 6-42 6s-17-43-31-37c-18 7-18 55-18 55s-30-29-42-17-10 35-10 35Zm-126 425s-24-47 2-68 49 14 49 14 21-19 39-12c16 6 13 40 13 40s-8-23-20-25-36 25-36 25-25-35-36-26c-10 8-11 52-11 52Z"/>
    <path fill="#FF7500" d="M1 902s189 121 233 53c0 0 33 26 67-5 0 0 86 106 171 16 0 0 108 74 176 18 67-57 60-119 60-119s63-34 51-93-63-63-63-63c1-1 24-30 13-68 0 0 111-6 126-79 14-72-54-119-54-119s17-70-4-115-82-54-82-54-1-113-114-123c0 0 22-91-64-151H1v902Z"/>
    <path fill="#EF5000" d="M1 0v148c61 38 79-12 79-12s-3 76 45 101 71-14 71-14 23 30 41 24c17-6 35-7 35-7s24 40 12 123c0 0-5 81-66 101s-76 8-76 8-5 59-66 67c-5 1-75-75-75 75V0Z"/>
    <path fill="#EF5000" d="M1 363v251c0 222 55 135 193 189l5 2 33-86s19 21 52 21c33-1 45-54 45-54s15 23 37 26c21 4 46-33 46-33s6 49 33 62c27 14 60-24 60-24 16 21 49 34 49 34-15 53-89 87-92 87-2-1-56 2-103 5 7 3 16 5 26 5 70 2 90-10 90-10s40 106 124 80c54-18 37-110 37-110s43 29 76-11-16-88-16-88 51 4 63 63-51 93-51 93 7 62-60 119c-68 56-176-18-176-18-85 90-171-16-171-16-34 31-67 5-67 5-44 68-233-53-233-53V363Z"/>
    <path fill="#65443A" d="M1 1198v645c81-342 43-750 143-891 99-142 234-65 320-100s92-110 92-110c-40 61-68 96-182 92 20-14 26-44 27-63l1-16-5 13c-27 63-70 64-73 64-100 1-135 36-136 37 0-1 32-75 44-117 13-50 2-103 7-170s9-115 74-193c66-78 53-164 53-164-12 104-71 139-71 139 14-75-9-117-21-132l-6-7 5 19c27 113-32 177-56 263-24 87-11 176-10 184-1-7-18-87-32-124-14-38-24-56-24-108 0-23-4-40-8-53-5-18-12-27-12-27l3 12c10 52-10 81-2 122 8 45 43 136 38 227-5 70-78 162-111 249-33 88-58 209-58 209Z"/>
    <path fill="#7D554B" d="M1 1257v16c18-56 32-136 53-200 28-82 51-123 82-181l35-65c21-40 28-89 21-145-6-46-20-86-28-109l-3-8c-14-40-18-54-14-106 1-23-1-40-4-53-5-18-12-27-12-27l3 12c4 12 10 35 8 67-3 54 1 69 14 109l3 8c17 47 56 158 8 250l-35 64c-32 58-54 100-82 183-20 58-31 131-49 185Z"/>
    <path fill="#7D554B" d="M1 1419v15c23-67 31-155 49-234 13-58 25-112 37-150 18-57 29-85 44-114 2-2 18-23 67-55 30-21 64-25 96-29 21-2 40-4 58-11 31-13 44-49 49-70l1-16-5 13c-5 20-17 56-47 68-17 6-36 9-57 11-31 4-66 8-98 29-27 19-44 33-55 43l10-17 30-55c47-90 45-163 44-233v-7c-2-58 4-73 27-133l21-56c22-59 20-108 15-140-4-21-9-37-13-46l-6-7 5 19a270 270 0 0 1-6 172l-20 56c-24 61-30 76-28 135v7c1 73 3 141-44 230-11 23-21 40-30 55-25 47-38 71-62 149-12 39-25 93-38 151-17 74-23 155-44 220Z"/>
    <path fill="#FFB200" d="m738 200-1-4c0-5-1-24 19-30 23-7 31-35 31-35s23 35 3 74c-18 35-46 13-46 13l-15 11v-6s30-21 45-45c0 0-28 33-36 22Zm-45 813-3-2c-4-1-21-3-29 18-8 24-34 31-34 31s29 29 66 11c33-17 16-51 16-51l12-15h-6s-21 30-44 45c0 0 32-28 22-37Zm-379 47-1 3c-2 7-5 30 17 41 27 13 34 48 34 48s33-39 14-89c-17-46-55-25-55-25l-15-16-1 8s32 30 47 62c0 0-29-45-40-32Z"/>
    <path fill="#EF5000" d="M634 715s-5 35-32 40c-26 5-39-26-39-26s-32 8-43-17c-10-25-3-39-3-39s-30 26-9 60c16 27 38 20 38 20s28 45 63 29c35-15 25-67 25-67Z"/>
    <path fill="#FF7500" d="M433 745s-4 19-15 19c-10 1-17-12-17-12s-7 13-15 8c-8-6-7-14-7-14s-6 11 3 22 19 3 19 3 12 18 27 6c13-9 5-32 5-32ZM158 330s3 28-11 35-24-11-24-11-8 27-21 24c-14-3-16-15-16-15s-3 20 14 29 28-7 28-7 23 16 39-9c13-19-9-46-9-46Z"/>
    <path fill="#EF5000" d="M443 142s30 61-17 89c-46 27-71-9-71-9s-6 21-27 26c-20 5-43-13-43-13s-2 19-32 25c-30 5-54-34-54-34s67 33 71-35c0 0 33 37 58 18 19-14 21-32 21-32s32 36 63 25c33-11 31-60 31-60Z"/>
    <path fill="#FFB200" d="M687 545s47-9 54-42c8-33-24-52-24-52s34-51 14-92c-18-35-86-18-86-18s-22-60-54-59c-37 1-49 61-49 61s27-36 49-31c21 4 35 62 35 62s63-20 71 4c11 31-41 80-41 80s62 11 61 38c-1 28-30 49-30 49ZM368 100s16-29 4-46c-12-18-33-8-33-8s-9-40-35-45c-23-5-43 40-43 40s-37-13-49 5c-14 21 7 52 7 52s-5-30 6-40 42 6 42 6 17-43 31-37c19 7 19 55 19 55s30-29 42-17 9 35 9 35Z"/>
    <path fill="#EF5000" d="M495 525s24-47-2-68-49 14-49 14-21-19-39-12c-17 6-13 40-13 40s8-23 20-25c11-2 36 25 36 25s24-35 35-26c11 8 12 52 12 52Z"/>
    <path fill="#570000" d="M2840 1708s-47-17-92-82-49-103-32-113c22-13 87 36 87 36s-76-89-62-125c15-36 84 26 84 26s-56-87-39-113c16-25 59 47 59 47s-40-98-15-117c24-20 40 40 40 40s18-112 57-100c39 11-3 116-3 116s43-38 60-20c31 31-55 81-55 81s62 8 70 33-75 44-75 44 75-42 75-8c0 36-71 103-71 103s56-48 71-12c0 0-28 124-159 164Z"/>
    <path fill="#932500" d="M2890 1319a1656 1656 0 0 0-17 78l-5 26a1982 1982 0 0 0-16 104l-4 26-2 26-1 14-1 13-1 13-1 7v6l-1 13v80l1 13-3-26-1-7v-7l-1-13a781 781 0 0 1 7-159 1231 1231 0 0 1 24-130l4-13a799 799 0 0 1 18-64Z"/>
    <path fill="#932500" d="M2741 1551c10 6 20 14 29 21a311 311 0 0 1 49 53l3 4 1 2 1 2 5 7a184 184 0 0 1 10 16l-6-6-6-7-12-13-24-27-25-26-25-26Zm32-97a281 281 0 0 1 72 104l-9-14-9-13a1525 1525 0 0 0-54-77Zm40-74 14 19a216 216 0 0 1 30 65l-11-21-10-21-12-21-11-21Zm29-66c5 6 8 13 11 19a199 199 0 0 1 19 63l-7-21-7-20-8-20-8-21Zm-3 354a411 411 0 0 1 65-49 479 479 0 0 1 71-37l-34 22-34 22-34 22-34 20Zm8-114a360 360 0 0 1 73-54l8-4a434 434 0 0 1 40-19l-30 19-30 20-31 19-30 19Z"/>
    <path fill="#932500" d="M2856 1464a280 280 0 0 1 44-33 325 325 0 0 1 49-25l-24 15-23 14-23 15-23 14Zm17-79a204 204 0 0 1 33-25 241 241 0 0 1 36-19l-17 11-17 11a1396 1396 0 0 1-35 22Zm-406 613s-12-50 19-100c40-66 129-35 129-35s2-52 50-63c0 0-17-88 29-143 50-60 124-35 124-35s14-45 43-59c28-14 58-1 58-1s-1-106 81-102l-1 538h-532Z"/>
    <path fill="#D5000D" d="M2782 1748h-1c-5-1-8-6-7-10 0-2 6-36 38-41 14-2 25 4 33 11 5-13 14-30 34-39 35-18 69 24 70 26 3 4 3 9-1 13-4 3-10 2-13-2 0 0-26-32-49-21-25 12-27 43-27 43 0 4-3 7-7 8s-8 0-10-4c0 0-13-19-27-17-20 3-23 25-24 25 0 5-4 8-9 8Zm160 71-2-1a9 9 0 0 1-6-12c0-2 1-13-8-17-10-5-17 7-18 9-2 4-8 5-12 3-4-3-6-9-3-13 5-9 21-25 40-16 21 10 20 33 18 40-2 5-5 7-9 7Zm-306 179s-7-29 7-54c14-26 42-25 42-25s-19-72 40-95c53-20 83 21 83 21s37-29 68-12c32 18 24 56 24 56s50-32 83-14c18 14 16 66 16 66v56l-363 1Z"/>
    <path fill="#932500" d="M2742 1960c-3 0-6-2-7-5-7-12-16-39 3-57 17-15 36-10 49-3 8-9 20-17 36-13 20 6 23 28 21 38 0 5-5 9-10 8-5 0-8-5-8-10 1 0 2-15-8-18-12-4-21 12-21 13a9 9 0 0 1-14 2c0-1-19-16-33-3-13 12 0 33 0 34 3 4 1 10-3 12l-5 2Z"/>
    <path fill="#570000" d="m2419 1999-55 1h-53s-27-234 156-259c0 0-106 50-48 258Z"/>
    <path fill="#570000" d="M2416 1998s20-151 128-134c0 0-86 18-71 134h-57Z"/>
    <path fill="#932500" d="M2345 1999h-75s30-72-27-99 16-24 16-24 88 7 86 123Z"/>
    <path fill="#570000" d="M2345 1999s10-72-46-118c-56-47-136-14-110 71 0 0 27-50 79-50 51 0 74 33 77 97Z"/>
    <path fill="#570000" d="m2309 1982-1 7v10h-8l1-4 1-3v-4l1-6v-19l-5-25-3-6-1-3-1-2-7-11 7 10 2 3 2 2 3 6 7 25 1 7v7l1 3v3Z"/>
    <path fill="#932500" d="m2432 1998-33 1h-26s0-120 94-138c0 0-49 37-35 137Z"/>
    <path fill="#570000" d="M2408 1935a175 175 0 0 0-8 44v6l-1 6v8h-4l1-9v-5l1-3v-3a213 213 0 0 1 11-44Z"/>
    <path fill="#932500" d="M2383 1809a238 238 0 0 0-17 58 405 405 0 0 0-6 90l1 15 1 8v7l2 13h-10l-1-12-1-8v-23a418 418 0 0 1 31-148Z"/>
    <path fill="#570000" d="M2999 1998h-29s-7-32 29-80v-5 85Zm-46 0h-54c-37-53-66-37-63-83 4-45 60-42 88-8l4 5c24 35 25 86 25 86Z"/>
    <path fill="#570000" d="M2999 1913v5c-8 21-10 45-6 80h-50s-19-26-15-86v-7c7-65 45-100 71-69v77Z"/>
    <path fill="#932500" d="m2965 1990 2 8h-9l-1-7v-9l-1-4v-23l4-35 2-9 2-8 7-17-6 17-1 9-2 8-1 35 1 9 1 9v4l2 13Zm34 8h-3v-1c4-26 3-41 3 1Zm-67 0h-8v-1l-3-11-2-6-1-3-1-2-1-1-4-11-6-11-4-5-3-4-4-5-2-2-1-1-2-1-9-6 10 5 1 1 1 1 3 2 4 4 4 5 4 4 7 10 6 11 1 2 1 1 3 9 5 12 1 3Z"/>
    <path fill="#D5000D" d="M2522 1660s2-62-24-103c-19-28-74-38-112-72 0 0 14 27 40 51 27 24 22 91 96 124Zm17 42s-18-41-10-90 29-68 37-111c0 0 18 47 10 94s-22 54-29 75-8 32-8 32Zm16 116 2-51c0-24 35-63 67-76 0 0-17 17-27 67-9 49-18 59-46 84 0 0 0-14 4-24Zm-11-65s-10-50-45-71c-34-21-77-44-101-74 0 0 22 63 53 96s67 32 93 49Z"/>
    <path fill="#932500" d="M2583 1736s-14 22-15 46c-2 23-16 63-16 63l1-22s6-17 8-34c2-18 4-31 22-53Zm-110-55 47 36c16 13 29 41 29 41l-1 8s-13-29-33-46-42-39-42-39Zm81-98s-1 17-10 43c-10 29-1 90-1 90l-5-19s-7-33 0-61c5-22 10-28 16-53Z"/>
    <path fill="#932500" d="M2486 1594a224 224 0 0 1 16 27l2 5 2 5a417 417 0 0 1 31 79l2 10 2 10 4 22a566 566 0 0 1 4 91v5l-1 11a740 740 0 0 1-5 65 485 485 0 0 0 11-130 426 426 0 0 0-18-107l-4-10-4-10a339 339 0 0 0-42-73Z"/>
    <path fill="#570000" d="M161 1708s47-17 92-82 48-103 31-113c-21-13-86 36-86 36s76-89 61-125c-14-36-83 26-83 26s55-87 39-113c-16-25-59 47-59 47s39-98 15-117c-25-20-41 40-41 40s-17-112-56-100c-39 11 3 116 3 116s-43-38-60-20c-32 31 55 81 55 81s-63-24-71 1 75 76 75 76-62-37-75-4c-12 33 71 99 71 99-169-14 28 134 89 152Z"/>
    <path fill="#932500" d="M111 1319a1676 1676 0 0 1 17 78l5 26a1926 1926 0 0 1 16 104l3 26 3 26 1 14 1 13 1 13v7l1 6v13l1 14v53l-1 6v20l3-26v-7l1-7v-13a779 779 0 0 0-7-159 1239 1239 0 0 0-24-130l-3-13a820 820 0 0 0-18-64Z"/>
    <path fill="#932500" d="M260 1551c-11 6-20 14-29 21a311 311 0 0 0-49 53l-3 4-1 2-2 2-5 7a185 185 0 0 0-9 16l6-6 6-7 12-13 24-27 25-26 25-26Zm-32-97a282 282 0 0 0-72 104l9-14 8-13 18-26a1410 1410 0 0 1 37-51Zm-40-74-15 19a216 216 0 0 0-30 65l11-21 11-21 11-21 12-21Zm-30-66-11 19a198 198 0 0 0-19 63l7-21 8-20 7-20 8-21Zm4 354a411 411 0 0 0-65-49 479 479 0 0 0-72-37l34 22 34 22 34 22 35 20Zm-8-114a359 359 0 0 0-73-54l-8-4a417 417 0 0 0-41-19l31 19 30 20 30 19 31 19Z"/>
    <path fill="#932500" d="M145 1464a282 282 0 0 0-44-33 323 323 0 0 0-49-25l23 15 23 14 23 15 24 14Zm-18-79a206 206 0 0 0-33-25 241 241 0 0 0-36-19l17 11 18 11a1429 1429 0 0 0 34 22Zm407 613s12-50-19-100c-41-66-129-35-129-35s-2-52-51-63c0 0 18-88-28-143-50-60-124-35-124-35s-14-45-43-59-58-1-58-1 1-106-81-102v538h533Z"/>
    <path fill="#D5000D" d="M218 1748h2c5-1 8-6 7-10 0-2-6-36-39-41-13-2-24 4-32 11-5-13-14-30-34-39-36-18-69 24-70 26-4 4-3 9 1 13 4 3 9 2 13-2 0 0 25-32 48-21 25 12 28 43 28 43 0 4 3 7 6 8 4 1 8 0 10-4 0 0 13-19 28-17 19 3 23 25 23 25 1 5 5 8 9 8Zm-159 71 2-1a9 9 0 0 0 6-12c0-2-2-13 8-17 9-5 17 7 18 9 2 4 8 5 12 3 4-3 5-9 3-13-6-9-21-25-41-16-20 10-20 33-17 40 1 5 5 7 9 7Zm306 179s6-29-7-54c-14-26-43-25-43-25s20-72-39-95c-54-20-84 21-84 21s-37-29-67-12c-32 18-24 56-24 56s-51-32-83-14c-17 18-17 66-17 66v57h364Z"/>
    <path fill="#932500" d="M258 1960c3 0 6-2 8-5 7-12 16-39-4-57-16-15-36-10-48-3-8-9-21-17-36-13-20 6-23 28-22 38 1 5 5 9 10 8 5 0 9-5 8-10 0 0-1-15 9-18 12-4 20 12 20 13a9 9 0 0 0 14 2c1-1 20-16 33-3 13 12 1 33 1 34-3 4-2 10 3 12l4 2Z"/>
    <path fill="#570000" d="m582 1999 55 1h53s26-234-156-259c0 0 105 50 48 258Z"/>
    <path fill="#570000" d="M585 1998s-21-151-128-134c0 0 86 18 70 134h58Z"/>
    <path fill="#932500" d="M656 1999h75s-31-72 26-99c58-27-16-24-16-24s-88 7-85 123Z"/>
    <path fill="#570000" d="M656 1999s-10-72 46-118c55-47 135-14 110 71 0 0-27-50-79-50-51 0-75 33-77 97Z"/>
    <path fill="#570000" d="M692 1982v10l1 4v3h7v-4l-1-3v-4l-1-6v-19c1-8 2-17 5-25l2-6 2-3 1-2 7-11-8 10-2 3-1 2-3 6c-4 8-6 17-7 25l-1 7-1 7v6Z"/>
    <path fill="#932500" d="m569 1998 32 1h26s1-120-93-138c0 0 48 37 35 137Z"/>
    <path fill="#570000" d="M593 1935a176 176 0 0 1 8 44v20h4v-9l-1-5v-6a212 212 0 0 0-11-44Z"/>
    <path fill="#932500" d="M618 1809a237 237 0 0 1 16 58 405 405 0 0 1 7 90l-1 15-1 8-1 7-1 13h10l1-12v-31a415 415 0 0 0-30-148Z"/>
    <path fill="#570000" d="M47 1998h54c38-53 67-37 63-83-3-45-59-42-87-8l-4 5c-25 35-26 86-26 86Z"/>
    <path fill="#570000" d="M1 1916v82h57s19-26 15-86l-1-7c-6-65-45-99-71-69v80Z"/>
    <path fill="#932500" d="m35 1990-1 8h8l1-7 1-9v-9l1-9-1-9c0-12-1-23-3-35l-2-9-2-8-7-17c3 6 4 11 5 17l2 9 1 8c2 12 2 24 1 35v9l-1 9-1 4-2 13Zm34 8h8v-1l3-11 2-6 1-3 1-2v-1l5-11 6-11 3-5 4-4 4-5 2-2 1-1 1-1 10-6-10 5-2 1-1 1-2 2-5 4-4 5-4 4-7 10-6 11v2l-1 1-4 9-4 12-1 3Z"/>
    <path fill="#D5000D" d="M478 1660s-1-62 25-103c18-28 73-38 112-72 0 0-14 27-41 51s-22 91-96 124Zm-16 42s18-41 10-90-29-68-37-111c0 0-18 47-10 94 7 47 22 54 29 75s8 32 8 32Zm-16 116-2-51c0-24-36-63-67-76 0 0 16 17 26 67 10 49 19 59 46 84 0 0 0-14-3-24Zm11-65s9-50 44-71 78-44 102-74c0 0-22 63-53 96s-68 32-93 49Z"/>
    <path fill="#932500" d="M417 1736s14 22 16 46c2 23 15 63 15 63l-1-22s-5-17-7-34c-3-18-4-31-23-53Zm111-55-47 36c-16 13-29 41-29 41v8s14-29 34-46l42-39Zm-82-98s2 17 11 43c10 29 1 90 1 90l5-19s6-33 0-61c-5-22-10-28-17-53Z"/>
    <path fill="#932500" d="M515 1594a221 221 0 0 0-16 27l-2 5-3 5a416 416 0 0 0-30 79l-3 10-2 10-3 22a566 566 0 0 0-4 91v5l1 11a758 758 0 0 0 5 65 487 487 0 0 1-12-130 424 424 0 0 1 19-107l4-10 4-10a341 341 0 0 1 42-73Zm1779-198c-26-6-42-2-51 4-5 4-8 10-8 17a122 122 0 0 0-16 5l17-2 3 9c7 10 22 23 55 25 35 3 48-12 72-13 0 0-25-35-72-45Z"/>
    <path fill="#D5000D" d="M2245 1392c-9 6-10 19-4 29 7 9 22 22 54 25 36 2 49-12 73-13 0 0-25-36-72-46-26-6-42-2-51 5Z"/>
    <path fill="#570000" d="m2221 1413 16-5 4-1a152 152 0 0 1 13-1c11-2 22-2 34-1l8 1 9 1 8 2 4 1 4 1a120 120 0 0 1 31 15 173 173 0 0 0-48-14l-8-1h-9a282 282 0 0 0-66 2c0 1 0 0 0 0Z"/>
    <path fill="#570000" d="M2250 1408h1v1l1 2 3 3 1 1 2 1 3 3 13 7 2 1h2l4 2h3l4 1 8 1 7 1 1 1-1 2-8-1-7-1-4-1-4-1-4-1h-2l-2-1-14-7-3-3-2-1-1-1v-1l-3-3-2-2-1-2 1-2h2v1Zm40-11a47 47 0 0 0-15 3 32 32 0 0 0-10 6l-2 3h-3v-3a27 27 0 0 1 14-9 48 48 0 0 1 16-2l1 1-1 1Zm21 5a29 29 0 0 0-11 4l-3 2-2 1a2 2 0 0 1 0-3l4-3a22 22 0 0 1 8-2h4l1 1h-1Zm-24 4 1 1 1 1 1 1 1 1 1 1 1 1 2 2 10 6 2 1 3 1 5 2h3l2 1 6 1 1 1-1 1-6-1h-3l-3-1-5-2-3-1-3-1-10-5-2-2-1-1-2-1-1-1-1-1-1-1-1-2v-2h3Z"/>
    <path fill="#932500" d="M830 1709c-19-3-31 0-37 6-3 3-5 7-5 12a88 88 0 0 0-12 4l12-2 3 7c6 6 17 15 41 15 26 0 34-11 52-12 0 0-20-25-54-30Z"/>
    <path fill="#D5000D" d="M794 1708c-6 5-7 15-2 21 6 7 17 16 41 16 26 0 34-11 52-13 0 0-20-24-54-29-19-3-31 0-37 5Z"/>
    <path fill="#570000" d="M777 1725a88 88 0 0 1 24-7l24-2h7l6 1 6 1h3l3 1a86 86 0 0 1 23 9v1a124 124 0 0 0-36-8l-6-1h-6a206 206 0 0 0-48 5Z"/>
    <path fill="#570000" d="M798 1720h1v1l1 1 2 2 1 1 1 1 2 1 11 5h1l1 1h3l3 1h2l6 1h6v2h-6l-6-1h-3l-2-1h-3l-2-1h-1l-11-5-2-1-1-1-1-1h-1l-2-2-1-2-1-1 1-2h1v1Zm29-10a34 34 0 0 0-16 6l-2 2-1 2h-2l-1-2a19 19 0 0 1 5-4l5-3a35 35 0 0 1 12-2v1Zm15 3a22 22 0 0 0-5 2l-2 1-2 2h-2a1 1 0 0 1 0-2l3-2a16 16 0 0 1 5-2h4l-1 1Zm-17 4h1v1l1 1h1l1 1v1l2 1 7 4h2l2 1 4 1 2 1h2l4 1h1l-1 1h-4l-2-1h-2l-4-1h-2l-2-1-8-4-2-1-1-1h-1l-1-1v-1l-1-1h-1v-3l2 1Z"/>
    <path fill="#932500" d="M1692 1463c33-5 53 1 64 10 6 5 9 13 9 21a157 157 0 0 1 20 8l-21-4c-1 4-2 8-5 12-9 11-29 26-70 27-45 0-60-19-90-22 0 0 34-43 93-52Z"/>
    <path fill="#D5000D" d="M1754 1462c11 9 12 26 3 37s-28 26-69 27c-46 0-61-19-91-22 0 0 34-42 94-52 32-5 52 1 63 10Z"/>
    <path fill="#570000" d="M1783 1490a155 155 0 0 0-41-11c-14-3-28-4-42-4l-11 1-11 1-10 1-5 2-6 1a149 149 0 0 0-40 16h1a216 216 0 0 1 61-14h10l11-1a357 357 0 0 1 83 9h1l-1-1Z"/>
    <path fill="#570000" d="m1747 1482-1 1v1l-2 1-3 4-1 1-1 1-2 1-4 3-18 8-2 1h-2l-5 1-5 1-4 1-10 1h-10l-1 2 1 1h20l5-1 5-1 4-1 3-1h2a76 76 0 0 0 23-11l2-2 1-1 1-1 4-3 2-3 1-2v-3h-3v1Zm-49-16a61 61 0 0 1 18 5 41 41 0 0 1 12 8l2 3c1 2 3 2 4 1a3 3 0 0 0 1-4 35 35 0 0 0-18-12 60 60 0 0 0-19-4l-1 1 1 2Zm-27 4a36 36 0 0 1 13 6l3 3h3a2 2 0 0 0 0-3 20 20 0 0 0-9-6 37 37 0 0 0-10-2l-1 1 1 1Zm30 7-1 1-2 1-1 1-1 2-2 1-1 1-3 2-12 6-4 2-3 1-7 2h-3l-4 1-7 1-1 1 2 2 7-1 3-1h4l7-2 3-1 4-1 13-6 3-2 2-1 1-2 2-1 1-1 2-1 1-2v-4a2 2 0 0 0-3 1Z"/>
    <path fill="#932500" d="M729 1426c-33 8-50 21-57 34-5 7-5 16-2 24a177 177 0 0 0-18 15h1l18-11c2 3 5 6 9 8 12 8 36 15 75 0 44-18 52-41 81-56 0 0-46-28-107-14Z"/>
    <path fill="#D5000D" d="M670 1449c-8 12-4 29 8 36 12 8 36 15 76-1 43-17 52-41 80-55 0 0-46-28-106-14-33 8-51 21-58 34Z"/>
    <path fill="#570000" d="M651 1487a174 174 0 0 1 35-27c13-7 26-14 40-19l11-4 10-3 11-3 5-1h5a146 146 0 0 1 44 0 217 217 0 0 0-63 11l-11 3-10 4a381 381 0 0 0-77 40h-1l1-1Z"/>
    <path fill="#570000" d="m683 1465 1 1h1l2 1 4 2 1 1h1l3 1 4 1c7 2 13 2 20 1h5l5-1 4-1 5-1 10-3 9-3c1-1 2 0 2 1l-1 2-9 3-10 4-5 1-5 1-5 1h-5a74 74 0 0 1-25-2h-3l-1-1h-1l-5-2-2-2-3-2v-3h3Zm42-34a67 67 0 0 0-22 19 39 39 0 0 0-4 9c-1 2-2 3-3 2-2 0-3-2-2-3v-1a38 38 0 0 1 5-10l7-8a67 67 0 0 1 18-11l2 1-1 2Zm28-6a39 39 0 0 0-12 10l-2 4c0 2-1 2-2 2-2-1-2-2-2-3a23 23 0 0 1 8-10 42 42 0 0 1 9-5h1v2Zm-27 17 1 1 2 1 1 1h2l1 1h2l4 1 14 2h3l4-1h7l3-1 4-1 7-1h1l-1 2-7 2-3 1-4 1-7 1h-4l-3 1-15-1-4-1-2-1h-1l-2-1h-2l-2-1-2-1-1-4 3-1h1Z"/>
    <path fill="#932500" d="M2285 1659c23-3 37 2 45 9 4 4 6 10 5 15a110 110 0 0 1 14 6v1l-14-4-4 8c-7 8-21 18-50 16-32-1-42-15-64-18 0 0 26-29 68-33Z"/>
    <path fill="#FF6700" d="M2329 1660c7 7 7 19 1 26-7 8-21 18-50 17-32-2-42-16-63-19 0 0 25-29 67-33 23-3 37 2 45 9Z"/>
    <path fill="#932500" d="M2348 1681a111 111 0 0 0-28-9c-10-3-20-4-30-4h-15l-8 1h-3l-4 1a104 104 0 0 0-29 10 151 151 0 0 1 44-8h7l8 1a252 252 0 0 1 58 9h1l-1-1Z"/>
    <path fill="#932500" d="M2323 1674h-1v1l-1 1-3 3-1 1-1 1-3 2-13 5h-3l-4 1h-3l-3 1h-14l-1 1 1 1 7 1 7-1h7l3-1h2l2-1c4-1 9-2 13-5l3-2 2-1 1-1 3-2 1-2 1-1v-3l-2 1Zm-34-13a43 43 0 0 1 18 8l2 2 2 3h3v-3a24 24 0 0 0-5-5l-6-4a42 42 0 0 0-14-3l-1 1 1 1Zm-19 2a26 26 0 0 1 9 4l2 3h2v-2l-3-3a21 21 0 0 0-7-3h-4v1h1Zm21 6h-1l-1 1-1 1-1 1-1 1h-1l-2 2-9 4-3 1h-2l-5 1-2 1h-8v2h11l5-1 2-1 3-1 9-4 2-1 2-1h1l1-1 1-1 1-1 1-1v-3h-2v1Zm-946 160c-32-2-51 7-61 17-5 6-8 14-6 22h-1a157 157 0 0 0-19 10h1l19-6 7 10c9 10 30 23 70 18 44-5 57-25 87-32 0 0-38-37-97-39Z"/>
    <path fill="#FF6700" d="M1285 1835c-10 10-9 27 0 36 10 10 31 23 71 18 44-5 57-25 86-32 0 0-37-37-96-39-33-1-51 7-61 17Z"/>
    <path fill="#932500" d="M1259 1866a157 157 0 0 1 39-16c13-4 27-7 41-8l11-1h26l5 1a143 143 0 0 1 41 11h-1a208 208 0 0 0-61-6l-10 1-10 1a353 353 0 0 0-81 18v-1Z"/>
    <path fill="#932500" d="M1294 1853v1l1 1 2 2 4 3 1 1 2 1 5 3 18 5 2 1h2l5 1h19l9-1 2 1-1 2-10 1-10 1h-4l-5-1h-8l-2-1c-6-1-13-3-19-6l-4-2-2-1-2-1-1-1-4-3-2-2-1-2v-3h3Zm46-21a60 60 0 0 0-25 13 34 34 0 0 0-5 7c-1 1-2 2-4 1l-1-4a35 35 0 0 1 8-8l8-6a60 60 0 0 1 19-6l1 1-1 2Zm27 1a37 37 0 0 0-12 7c-2 1-3 2-3 4h-3l-1-3 4-4a29 29 0 0 1 10-5l5-1 1 1-1 1Zm-29 10 1 1 2 1 1 1 2 1 1 1 1 1 3 2 13 5h4l3 1 7 1h3l4 1h7l1 1-1 1-7 1-4-1h-11l-3-1-3-1-14-4-3-2-2-1-2-1-1-1-2-1-1-1-2-1v-4h3Z"/>
    <path fill="#D5000D" d="M898 1553c-1-2-4-2-6 0a31 31 0 0 0-5 12 53 53 0 0 0-2 12l1 1 1-1a47 47 0 0 1 8-14l3-3 1-1c2-2 1-5-1-6Zm-16 12-2-6c0-2-1-4-3-5v-1l-1-1c-2-1-5 0-6 2s-1 5 1 6l4 3a32 32 0 0 1 5 9l2 5 1 1 1-1a52 52 0 0 0-2-12Z"/>
    <path fill="#E54000" d="M1350 1428c-2-2-5-1-7 1a34 34 0 0 0-6 13 61 61 0 0 0-2 14l1 1 1-1a53 53 0 0 1 9-16l3-3 2-1c1-3 1-6-1-8Zm-18 14-2-6-4-7-1-1c-3-2-6-1-7 2-1 2-1 6 1 7l4 3a35 35 0 0 1 7 10l2 6 1 1 1-1a60 60 0 0 0-2-14Z"/>
    <path fill="#D5000D" d="M1994 1517c-2-2-5-1-7 1a35 35 0 0 0-6 13 61 61 0 0 0-2 14l1 1 1-1a52 52 0 0 1 9-16l4-3 1-1c1-3 1-6-1-8Zm-18 14-2-6-4-7-1-1c-2-2-5-1-7 2-1 2-1 6 2 7l3 3a37 37 0 0 1 7 10l2 6 1 1 1-1a60 60 0 0 0-2-14Z"/>
    <path fill="#E54000" d="M1628 1669c-4-2-8-2-10 2h-1a52 52 0 0 0-8 19 89 89 0 0 0-3 20l1 1h2v-1a81 81 0 0 1 12-23l6-5 2-1c2-4 2-9-1-12Zm-27 21-4-9-5-10-2-2c-3-2-8-1-10 3-2 3-1 8 3 11l5 5a52 52 0 0 1 9 14l4 9 1 1 2-2a89 89 0 0 0-3-20Z"/>
    <path fill="#FF6700" d="M2106 1924c-2-2-5-2-7 1a36 36 0 0 0-6 14 62 62 0 0 0-2 14l1 1 1-1a57 57 0 0 1 9-16l4-4 1-1c2-3 2-6-1-8Zm-19 15-2-7-4-7-1-1c-2-2-6-1-7 2-2 2-1 6 1 7l4 4a38 38 0 0 1 7 10l2 6h1v1l1-1a63 63 0 0 0-2-14Z"/>
    <path fill="#D5000D" d="M534 1352c-4-3-8-2-10 1h-1a52 52 0 0 0-8 20 90 90 0 0 0-3 20l1 1 2-1a79 79 0 0 1 12-23l6-5 2-2c2-3 2-8-1-11Zm-27 21-4-10-5-9-2-2c-3-3-8-1-10 2-2 4-1 9 3 11l5 5a52 52 0 0 1 10 15l3 8 1 1 2-1a88 88 0 0 0-3-20Zm2177 59c-4-3-8-2-11 1a52 52 0 0 0-8 20 92 92 0 0 0-3 20l1 1 2-1a80 80 0 0 1 12-23l6-5 2-2c2-3 2-8-1-11Zm-27 21-4-10-5-9-2-2c-3-3-8-1-10 2-2 4-1 9 3 11l5 5a53 53 0 0 1 9 15l4 8 1 1 2-1a89 89 0 0 0-3-20Z"/>
    <path fill="#FF6700" d="M1037 1920c3-2 6-2 8 1a39 39 0 0 1 6 14 67 67 0 0 1 2 15v1h-2a60 60 0 0 0-9-18l-4-3-2-2c-1-2-1-6 1-8Zm11-4v-1c-1-3 0-7 3-8s6 1 7 4l2 11a106 106 0 0 1-1 19 178 178 0 0 1-2 11l-1-1a183 183 0 0 0-5-27l-3-8Zm15 20 2-7 4-7h1l1-2c2-1 6-1 7 2 2 3 1 7-1 8l-5 4a39 39 0 0 0-7 11l-2 7h-1l-1-1a68 68 0 0 1 2-15Z"/>
    <path fill="#D5000D" d="M2035 1307c3-3 7-3 10 1a54 54 0 0 1 9 20 90 90 0 0 1 3 21l-1 1-2-1a83 83 0 0 0-13-24l-6-5-2-2c-2-3-2-9 2-11Zm15-5-1-2c-1-5 1-9 5-11 3-1 8 1 9 6l2 14a142 142 0 0 1 0 27 251 251 0 0 1-3 15l-1-2a248 248 0 0 0-7-37l-4-10Zm20 27 3-10 6-10 2-2c3-2 8-1 10 3s1 9-2 11l-6 5a53 53 0 0 0-10 15l-3 9-2 1-1-1a87 87 0 0 1 3-21Zm-981-7c-2-2-5-1-6 1a31 31 0 0 0-5 11 53 53 0 0 0-2 12l1 1 1-1a50 50 0 0 1 4-10l3-4 3-3 1-1c2-2 2-5 0-6Zm-9-3 1-1c0-3-1-5-3-6s-5 0-5 3l-2 8a82 82 0 0 0 0 16 136 136 0 0 0 2 8l1-1a139 139 0 0 1 4-21l2-6Zm-11 16-2-6-4-6-1-1c-2-1-4 0-6 2-1 2 0 5 2 6l3 3a31 31 0 0 1 6 9l2 5v1l1-1a50 50 0 0 0-1-12Zm62 338c2-2 4-2 6 0a30 30 0 0 1 5 12 53 53 0 0 1 2 12l-1 1-1-1a45 45 0 0 0-7-14l-4-3-1-1c-1-2-1-5 1-6Zm9-3-1-1c-1-3 1-6 3-6 2-1 4 0 5 3l2 8a82 82 0 0 1-1 16 147 147 0 0 1-1 8l-1-1a152 152 0 0 0-4-21l-2-6Zm11 16 2-6 3-6 1-1c2-1 5-1 6 2 2 2 1 5-1 6l-3 3a31 31 0 0 0-6 9l-2 5h-1v-1a50 50 0 0 1 1-11Z"/>
    <path fill="#FF6700" d="M2006 1728c-3-3-8-3-10 1a51 51 0 0 0-9 19 90 90 0 0 0-3 20l1 1c1 1 2 0 2-1a78 78 0 0 1 12-23l6-5 2-1c2-4 2-9-1-11Zm-15-5 1-2c1-4-1-9-5-10-3-1-7 1-8 5h-1l-2 14a138 138 0 0 0 0 26 244 244 0 0 0 3 14l1-1a232 232 0 0 1 7-36l4-10Zm-19 26-4-9-5-10-2-2c-3-2-7-1-10 3-2 3-1 8 3 11l5 5a52 52 0 0 1 9 14l4 9 1 1 2-2a90 90 0 0 0-3-20Zm-240 134c-2-2-6-2-7 1a36 36 0 0 0-7 14 63 63 0 0 0-2 14l1 1 1-1a55 55 0 0 1 9-16l4-4 2-1c1-3 1-6-1-8Zm-11-4 1-1c1-3-1-6-3-7-3-1-6 1-7 4l-1 10a96 96 0 0 0 0 18 183 183 0 0 0 2 10l1-1a164 164 0 0 1 4-26l3-7Zm-14 19-2-7-4-6-1-2c-3-1-6-1-7 2-2 3-1 6 1 8l4 3 4 5a55 55 0 0 1 5 12l1 1 1-1a62 62 0 0 0-2-15Zm956-273c-2-2-4-2-6 0a30 30 0 0 0-5 12 53 53 0 0 0-2 12h2a45 45 0 0 1 7-14l4-3 1-1c1-2 1-5-1-6Zm-9-3 1-1c1-3-1-6-3-6-2-1-4 0-5 3l-2 8a82 82 0 0 0 1 16 146 146 0 0 0 1 8l1-1a152 152 0 0 1 4-21l2-6Zm-11 16-2-6-3-6-1-1c-2-1-5-1-6 1-2 3-1 6 1 7l3 3a31 31 0 0 1 6 9l2 5h1v-1a50 50 0 0 0-1-11Z"/>
</svg>
