<?xml version="1.0" encoding="UTF-8" ?>
<!DOCTYPE svg PUBLIC "-//W3C//DTD SVG 1.1//EN" "http://www.w3.org/Graphics/SVG/1.1/DTD/svg11.dtd">
<svg width="1191pt" height="1191pt" viewBox="0 0 1191 1191" version="1.1" xmlns="http://www.w3.org/2000/svg">
<path fill="#7cffd7"  d="M 0 0 L 1191 0 L 1191 1191 L 0 1191 L 0 0 Z" />
<path fill="#203a13"  d="M 860 167 C 870 155 885 147 901 145 C 917 143 933 147 946 155 C 959 164 969 177 973 192 C 978 207 977 223 971 238 C 965 251 954 263 941 270 C 921 280 896 280 877 269 C 868 271 859 273 850 275 C 847 276 843 272 844 268 C 847 260 849 252 852 244 C 845 232 842 219 843 206 C 844 191 850 178 860 167 Z" />
<path fill="#ffffff"  d="M 872 169 C 883 158 899 153 914 155 C 929 156 943 163 952 174 C 962 185 967 200 966 215 C 966 219 965 222 964 225 C 962 227 961 229 959 231 C 948 246 930 257 911 259 C 893 261 876 256 861 246 C 862 244 863 242 861 240 C 855 229 852 217 853 204 C 855 191 862 178 872 169 Z" />
<path fill="#203a13"  d="M 576 184 C 587 175 600 169 614 168 C 628 167 642 170 653 179 C 648 180 643 180 638 181 C 627 176 614 177 602 181 C 593 184 584 189 577 197 C 574 200 571 203 568 206 C 567 208 564 206 564 204 C 566 200 568 196 570 193 C 542 187 512 190 486 201 C 489 204 492 207 495 210 C 491 210 487 210 483 209 C 479 207 475 204 471 203 C 458 197 445 194 431 195 C 421 196 412 198 404 203 C 391 211 380 220 373 233 C 367 242 363 252 359 261 C 355 263 350 265 346 267 C 351 252 357 238 366 226 C 371 216 379 208 388 202 C 398 194 409 188 421 186 C 440 183 459 186 476 194 C 507 180 543 176 576 184 Z" />
<path fill="#59da41"  d="M 602 181 C 614 177 627 176 638 181 C 636 182 634 182 632 183 C 615 177 595 183 583 197 C 579 202 575 207 574 213 C 585 203 597 192 612 190 C 599 196 586 203 578 215 C 562 211 546 215 533 222 C 522 215 508 212 495 210 C 492 207 489 204 486 201 C 512 190 542 187 570 193 C 568 196 566 200 564 204 C 564 206 567 208 568 206 C 571 203 574 200 577 197 C 584 189 593 184 602 181 Z" />
<path fill="#1e88fe"  d="M 653 179 C 666 178 679 178 692 180 C 699 182 706 185 711 190 C 714 194 715 199 716 204 C 719 217 719 231 718 244 C 717 253 716 263 712 272 C 710 275 708 278 706 281 C 706 281 706 281 706 281 C 703 281 701 279 698 278 C 699 277 700 276 701 274 C 703 271 705 268 706 265 C 710 253 711 241 711 229 C 710 219 710 210 708 201 C 706 196 702 193 698 191 C 692 188 685 187 678 186 C 674 186 670 186 666 186 C 660 186 654 187 648 187 C 643 188 637 189 632 191 C 616 195 601 202 589 214 C 586 216 583 219 583 222 C 585 239 589 256 597 271 C 594 272 591 272 589 273 C 584 264 581 254 579 244 C 566 244 552 245 543 254 C 545 266 545 278 542 290 C 539 292 536 293 532 296 C 538 278 537 260 533 242 C 532 238 531 234 529 230 C 527 227 524 226 521 225 C 515 222 509 221 503 219 C 503 220 502 221 502 222 C 501 222 500 222 499 222 C 496 217 490 218 485 217 C 473 216 462 217 451 219 C 436 221 421 225 406 230 C 398 234 390 238 384 244 C 380 247 377 251 377 256 C 378 267 382 277 385 287 C 391 300 397 313 406 324 C 411 329 417 334 424 337 C 429 338 434 340 439 341 C 444 341 450 342 455 342 C 458 341 461 341 464 341 C 468 340 471 340 473 339 C 480 337 487 335 493 332 C 495 331 497 331 499 330 C 497 333 495 336 494 339 C 499 334 503 328 508 323 C 505 328 502 333 498 338 C 481 347 461 351 441 349 C 427 347 413 342 403 331 C 391 319 384 304 377 288 L 377 288 C 367 292 357 296 347 301 C 347 306 347 312 344 316 C 342 318 338 319 335 319 C 332 318 329 316 326 313 C 322 306 320 297 321 289 C 321 284 322 278 327 276 C 333 272 340 269 346 267 C 350 265 355 263 359 261 C 362 260 366 259 369 257 C 368 246 377 238 385 233 C 398 225 411 220 425 216 C 439 213 453 210 467 209 C 473 209 478 209 483 209 C 487 210 491 210 495 210 C 508 212 522 215 533 222 C 546 215 562 211 578 215 C 586 203 599 196 612 190 C 619 187 625 184 632 183 C 634 182 636 182 638 181 C 643 180 648 180 653 179 Z" />
<path fill="#aded9f"  d="M 583 197 C 595 183 615 177 632 183 C 625 184 619 187 612 190 C 597 192 585 203 574 213 C 575 207 579 202 583 197 Z" />
<path fill="#c1e4ea"  d="M 648 187 C 654 187 660 186 666 186 C 665 187 664 189 664 190 C 662 193 661 197 659 200 L 659 200 C 655 196 652 192 648 187 Z" />
<path fill="#4de3f4"  d="M 666 186 C 670 186 674 186 678 186 C 676 192 674 197 672 203 L 672 203 C 669 198 667 194 664 190 C 664 189 665 187 666 186 Z" />
<path fill="#c9f6fb"  d="M 678 186 C 685 187 692 188 698 191 C 693 202 687 213 681 224 C 678 217 675 210 672 203 C 674 197 676 192 678 186 Z" />
<path fill="#c6f3ee"  d="M 632 191 C 637 189 643 188 648 187 C 652 192 655 196 659 200 C 656 207 652 214 649 221 C 643 214 635 209 626 209 C 628 203 630 197 632 191 Z" />
<path fill="#43d8c5"  d="M 589 214 C 601 202 616 195 632 191 C 630 197 628 203 626 209 C 626 210 626 211 626 211 C 626 211 625 210 625 210 C 616 210 608 217 605 226 C 598 239 599 256 605 270 C 602 270 599 271 597 271 C 589 256 585 239 583 222 C 583 219 586 216 589 214 Z" />
<path fill="#31a6b7"  d="M 664 190 C 667 194 669 198 672 203 C 670 207 669 211 667 216 C 665 210 661 205 659 200 C 661 197 662 193 664 190 Z" />
<path fill="#4de3f4"  d="M 698 191 C 702 193 706 196 708 201 C 710 210 710 219 711 229 C 711 241 710 253 706 265 C 701 259 696 254 691 249 C 689 248 688 247 687 245 C 685 238 684 231 681 225 C 681 225 681 224 681 224 C 687 213 693 202 698 191 Z" />
<path fill="#ff0068"  d="M 886 207 C 885 200 889 192 895 190 C 901 189 906 191 910 195 C 914 191 921 188 927 191 C 935 195 937 206 931 212 C 925 218 919 224 913 230 C 912 232 909 232 907 230 C 903 226 898 221 893 216 C 890 213 887 211 886 207 Z" />
<path fill="#59da41"  d="M 404 203 C 412 198 421 196 431 195 C 445 194 458 197 471 203 C 475 204 479 207 483 209 C 478 209 473 209 467 209 C 453 201 435 200 419 204 C 404 209 393 220 385 233 C 377 238 368 246 369 257 C 366 259 362 260 359 261 C 363 252 367 242 373 233 C 380 220 391 211 404 203 Z" />
<path fill="#43d8c5"  d="M 659 200 L 659 200 C 661 205 665 210 667 216 C 667 216 667 217 667 217 C 664 224 662 231 659 238 L 659 238 C 656 232 653 226 649 221 L 649 221 C 652 214 656 207 659 200 Z" />
<path fill="#aded9f"  d="M 419 204 C 435 200 453 201 467 209 C 453 210 439 213 425 216 C 411 220 398 225 385 233 C 393 220 404 209 419 204 Z" />
<path fill="#c1e4ea"  d="M 672 203 L 672 203 C 675 210 678 217 681 224 C 681 224 681 225 681 225 C 679 229 677 233 675 237 L 675 236 C 673 230 671 223 667 217 C 667 217 667 216 667 216 C 669 211 670 207 672 203 Z" />
<path fill="#31a6b7"  d="M 605 226 C 608 217 616 210 625 210 C 625 210 626 211 626 211 C 624 218 622 224 620 230 C 617 231 614 232 612 234 C 608 241 608 251 613 257 C 612 261 610 265 609 269 C 608 269 606 270 605 270 C 599 256 598 239 605 226 Z" />
<path fill="#c1e4ea"  d="M 626 209 C 635 209 643 214 649 221 L 649 221 C 642 237 635 252 627 268 C 621 268 615 269 609 269 C 610 265 612 261 613 257 C 613 257 613 256 613 255 C 613 262 622 264 626 260 C 635 252 632 235 620 230 C 622 224 624 218 626 211 C 626 211 626 210 626 209 Z" />
<path fill="#c6f3ee"  d="M 451 219 C 462 217 473 216 485 217 C 481 227 477 237 474 247 C 467 245 460 243 454 246 C 450 247 447 249 444 250 C 446 240 449 229 451 219 Z" />
<path fill="#43d8c5"  d="M 485 217 C 490 218 496 217 499 222 C 500 222 501 222 502 222 C 498 235 494 248 490 261 L 490 261 C 485 255 480 250 474 247 L 474 247 C 477 237 481 227 485 217 Z" />
<path fill="#c6f3ee"  d="M 667 217 C 671 223 673 230 675 236 C 671 245 666 253 662 262 C 662 259 662 256 662 253 C 662 248 660 243 659 238 C 662 231 664 224 667 217 Z" />
<path fill="#43d8c5"  d="M 406 230 C 421 225 436 221 451 219 C 449 229 446 240 444 250 C 444 252 443 254 443 256 C 443 255 443 254 443 253 C 437 257 434 264 432 270 C 428 282 428 294 431 306 C 431 307 431 307 431 308 C 429 318 426 327 424 337 C 417 334 411 329 406 324 C 397 313 391 300 385 287 C 382 277 378 267 377 256 C 377 251 380 247 384 244 C 390 238 398 234 406 230 Z" />
<path fill="#c6f3ee"  d="M 503 219 C 509 221 515 222 521 225 C 514 243 506 260 499 278 C 496 272 494 266 490 261 C 494 248 498 235 502 222 C 502 221 503 220 503 219 Z" />
<path fill="#39d4ff"  d="M 538 229 C 549 223 562 219 575 222 C 576 227 576 232 577 236 C 565 237 552 238 541 245 C 540 239 539 234 538 229 Z" />
<path fill="#31a6b7"  d="M 627 268 C 635 252 642 237 649 221 C 653 226 656 232 659 238 C 657 245 654 252 651 259 C 649 257 646 255 643 257 C 638 258 635 263 634 268 C 632 268 630 268 627 268 Z" />
<path fill="#43d8c5"  d="M 521 225 C 524 226 527 227 529 230 C 531 234 532 238 533 242 C 537 260 538 278 532 296 C 519 304 507 316 499 330 C 497 331 495 331 493 332 C 495 328 497 324 499 320 C 502 309 503 297 500 285 C 500 283 499 281 498 279 C 498 279 499 279 499 278 C 506 260 514 243 521 225 Z" />
<path fill="#31a6b7"  d="M 681 225 C 684 231 685 238 687 245 C 688 247 689 248 691 249 C 696 254 701 259 706 265 C 705 268 703 271 701 274 C 696 268 690 262 684 257 C 682 255 679 253 678 250 C 677 245 676 241 675 237 C 677 233 679 229 681 225 Z" />
<path fill="#bcc4b7"  d="M 959 231 C 961 229 962 227 964 225 C 961 238 952 250 941 258 C 924 269 901 271 883 261 C 881 260 879 258 876 259 C 870 260 863 262 856 263 C 858 257 860 252 861 246 C 876 256 893 261 911 259 C 930 257 948 246 959 231 Z" />
<path fill="#75e2ff"  d="M 612 234 C 614 232 617 231 620 230 C 618 239 616 247 613 255 C 613 256 613 257 613 257 C 608 251 608 241 612 234 Z" />
<path fill="#d5f6ff"  d="M 620 230 C 632 235 635 252 626 260 C 622 264 613 262 613 255 C 616 247 618 239 620 230 Z" />
<path fill="#43d8c5"  d="M 675 236 L 675 237 C 676 241 677 245 678 250 C 679 253 682 255 684 257 C 690 262 696 268 701 274 C 700 276 699 277 698 278 C 685 274 672 271 658 269 C 660 267 661 264 662 262 C 666 253 671 245 675 236 Z" />
<path fill="#c1e4ea"  d="M 659 238 L 659 238 C 660 243 662 248 662 253 C 662 256 662 259 662 262 C 661 264 660 267 658 269 C 655 269 651 269 648 268 C 649 265 650 262 651 259 C 654 252 657 245 659 238 Z" />
<path fill="#c1e4ea"  d="M 454 246 C 460 243 467 245 474 247 L 474 247 C 471 255 468 262 465 270 C 464 273 463 275 462 278 C 459 287 456 296 452 304 C 451 310 449 315 447 320 C 445 323 444 327 443 330 L 443 330 C 437 324 434 316 431 308 C 431 307 431 307 431 306 C 435 289 439 272 443 256 C 443 254 444 252 444 250 C 447 249 450 247 454 246 Z" />
<path fill="#59da41"  d="M 543 254 C 552 245 566 244 579 244 C 581 254 584 264 589 273 C 573 276 557 282 542 290 C 545 278 545 266 543 254 Z" />
<path fill="#31a6b7"  d="M 474 247 C 480 250 485 255 490 261 C 489 265 487 270 486 274 C 483 271 479 267 474 266 C 471 265 468 268 465 270 C 468 262 471 255 474 247 Z" />
<path fill="#31a6b7"  d="M 432 270 C 434 264 437 257 443 253 C 443 254 443 255 443 256 C 439 272 435 289 431 306 C 428 294 428 282 432 270 Z" />
<path fill="#4bbbd1"  d="M 634 268 C 635 263 638 258 643 257 C 646 255 649 257 651 259 C 650 262 649 265 648 268 C 643 268 639 268 634 268 Z" />
<path fill="#c1e4ea"  d="M 490 261 L 490 261 C 494 266 496 272 499 278 C 499 279 498 279 498 279 C 490 299 482 319 473 339 C 471 340 468 340 464 341 C 465 338 466 336 467 333 C 468 328 470 324 471 319 C 473 314 475 308 476 303 C 479 303 483 302 485 300 C 491 293 490 282 485 275 C 485 275 486 274 486 274 C 487 270 489 265 490 261 Z" />
<path fill="#39d4ff"  d="M 351 273 C 357 270 364 268 370 265 C 371 271 373 275 374 280 C 364 285 353 290 342 295 C 338 296 340 301 340 304 C 339 306 340 310 337 311 C 333 310 331 306 330 302 C 328 296 327 289 330 283 C 337 279 344 276 351 273 Z" />
<path fill="#75e2ff"  d="M 465 270 C 468 268 471 265 474 266 C 479 267 483 271 486 274 C 486 274 485 275 485 275 C 482 284 479 294 476 303 C 466 300 461 288 462 278 C 463 275 464 273 465 270 Z" />
<path fill="#203a13"  d="M 609 269 C 615 269 621 268 627 268 C 630 268 632 268 634 268 C 639 268 643 268 648 268 C 651 269 655 269 658 269 C 672 271 685 274 698 278 C 701 279 703 281 706 281 L 706 281 L 706 281 C 708 278 710 275 712 272 C 717 278 721 285 725 292 C 726 294 727 295 729 296 C 747 288 767 286 787 290 C 802 294 817 301 828 313 C 842 327 849 346 851 366 C 852 383 849 402 842 418 C 839 426 834 433 827 439 C 823 451 818 463 809 472 C 806 476 802 479 797 479 C 793 479 790 476 788 473 C 780 484 767 489 755 495 C 747 499 739 504 731 510 C 718 520 703 529 687 536 C 697 540 707 545 716 550 C 735 561 756 569 778 573 C 793 576 808 578 823 580 C 825 573 828 565 830 558 C 831 556 832 555 833 553 C 833 552 833 551 833 549 C 817 547 800 545 784 543 C 781 543 778 539 778 536 C 777 530 777 524 779 520 C 781 516 784 514 787 514 C 807 517 827 520 846 522 C 852 523 857 528 858 533 C 860 539 861 544 862 549 C 877 549 892 549 907 549 C 905 541 906 533 909 525 C 914 515 924 506 935 504 C 946 501 958 504 967 510 C 977 518 982 530 982 543 C 981 557 971 571 957 576 C 955 576 957 577 957 578 C 964 581 968 588 970 595 C 976 609 978 625 976 641 C 975 654 971 669 963 680 C 957 687 948 693 938 694 C 937 694 935 694 934 695 C 926 701 917 705 908 708 C 908 719 908 730 908 742 C 919 745 930 752 937 763 C 940 767 939 773 935 777 C 932 780 928 780 925 781 C 901 788 876 787 854 780 C 848 778 845 773 846 767 C 846 763 849 760 851 757 C 857 750 866 746 874 742 C 874 730 874 719 874 708 C 869 707 864 704 859 704 C 813 710 766 709 721 695 C 733 759 735 825 733 890 C 732 913 729 936 715 954 C 733 958 749 967 762 980 C 768 986 774 993 777 1001 C 779 1006 780 1012 781 1018 C 781 1020 779 1022 776 1022 C 769 1023 762 1023 755 1022 C 755 1025 757 1029 754 1032 C 751 1033 748 1032 745 1032 C 730 1031 714 1028 699 1028 C 671 1028 644 1028 616 1028 C 609 1028 602 1024 599 1018 C 593 1008 593 997 593 986 C 593 977 593 969 591 961 C 589 951 584 944 579 936 C 574 929 569 922 563 915 C 560 924 556 932 552 941 C 547 949 545 959 545 968 C 545 974 545 980 545 985 C 545 997 545 1009 538 1019 C 533 1028 524 1034 514 1034 C 488 1035 462 1035 437 1038 C 424 1039 412 1043 400 1043 C 394 1042 388 1042 382 1041 C 379 1039 380 1035 381 1033 C 373 1033 365 1032 358 1031 C 355 1031 353 1029 353 1026 C 353 1016 358 1006 365 998 C 378 983 397 976 414 968 C 409 961 405 952 400 944 C 367 940 335 929 307 911 C 279 894 255 871 238 843 C 221 815 210 784 204 752 C 202 739 200 725 202 712 C 202 708 204 702 209 700 C 213 698 217 701 220 703 C 227 710 233 717 239 724 C 246 721 253 719 260 720 C 264 721 268 724 269 728 C 270 736 268 743 266 750 C 269 753 272 755 275 758 C 281 754 287 750 295 750 C 299 749 304 752 306 756 C 309 763 309 770 308 778 C 311 779 314 780 318 781 C 321 775 325 768 332 764 C 336 761 342 762 346 765 C 352 770 356 778 358 785 C 359 785 360 785 360 785 C 357 774 356 763 356 752 C 338 743 321 734 306 722 C 295 713 283 703 276 690 C 270 679 269 666 269 654 C 267 640 269 627 273 615 C 279 595 291 578 308 567 C 328 553 352 546 376 541 C 363 535 351 528 341 518 C 326 506 313 490 305 472 C 296 450 293 427 295 404 C 299 371 311 341 326 313 C 329 316 332 318 335 319 C 321 347 308 378 307 410 C 305 440 313 471 333 494 C 348 513 369 526 391 536 C 431 555 475 563 519 569 C 510 571 501 570 492 570 C 460 570 428 563 398 551 C 395 550 392 548 389 548 C 373 551 356 555 341 561 C 326 567 311 575 300 587 C 288 600 280 618 279 636 C 278 645 279 653 279 662 C 279 671 282 681 287 690 C 294 699 302 706 311 713 C 312 714 313 714 314 715 C 328 725 343 734 359 742 L 359 741 C 361 735 362 730 365 726 C 365 724 366 724 368 723 C 368 727 367 730 366 734 C 365 742 366 750 366 758 C 367 766 368 776 371 784 C 374 790 378 796 383 801 C 387 797 390 793 392 788 C 390 780 390 772 393 763 C 393 764 394 764 395 764 C 396 770 395 776 397 782 C 398 787 402 791 405 794 C 407 797 409 799 412 801 C 419 791 421 778 423 766 C 421 760 420 753 422 746 C 423 745 424 747 424 749 C 426 755 428 762 433 766 C 436 770 441 771 446 772 C 441 757 443 740 440 725 C 439 718 441 712 444 706 C 448 702 452 698 455 693 C 446 688 435 688 425 690 C 423 690 421 689 420 687 C 412 678 405 669 397 659 C 395 656 393 652 390 649 C 384 641 377 633 370 625 C 370 624 372 623 373 624 C 381 630 389 638 396 645 C 402 625 408 604 418 586 C 419 584 421 582 422 585 C 416 599 412 615 408 629 C 407 637 405 645 403 652 C 411 661 418 671 426 680 C 432 679 438 679 444 680 C 450 681 456 682 461 685 C 465 688 466 695 463 700 C 458 705 452 710 450 716 C 448 721 450 726 451 730 C 452 743 451 757 456 769 C 457 772 458 776 455 779 C 452 783 447 782 443 781 C 439 780 435 779 431 777 C 429 788 427 798 421 807 C 418 811 412 813 408 810 C 403 808 400 804 397 801 C 393 804 390 809 386 811 C 386 832 388 853 391 874 C 396 905 405 937 423 964 C 429 969 438 970 446 972 C 446 973 446 974 447 974 C 439 977 431 976 423 975 C 410 980 397 986 385 993 C 375 1000 365 1010 363 1022 C 370 1023 377 1024 383 1023 C 388 1009 398 996 413 991 C 414 989 416 992 416 994 C 412 996 408 998 406 1002 C 398 1010 394 1022 391 1033 C 406 1035 422 1030 437 1029 C 462 1026 487 1025 512 1025 C 517 1025 523 1023 527 1019 C 533 1013 535 1003 536 994 C 536 986 536 978 536 970 C 535 959 538 947 543 938 C 547 929 552 920 555 910 C 554 910 552 910 552 910 C 523 907 494 898 471 879 C 469 877 465 875 466 871 C 468 871 470 872 472 873 C 486 883 502 890 519 894 C 526 896 533 898 541 898 C 555 901 570 901 584 900 C 611 898 636 891 660 880 C 667 877 674 874 680 870 C 681 871 682 872 682 873 C 678 878 671 881 665 885 C 639 901 608 909 577 910 C 575 911 574 911 572 911 C 581 921 589 933 596 945 C 600 953 602 961 602 969 C 602 981 602 992 604 1004 C 605 1009 606 1014 610 1017 C 613 1018 616 1019 618 1019 C 646 1019 673 1019 700 1019 C 715 1019 730 1021 745 1023 C 746 1021 744 1020 744 1018 C 737 1005 724 996 711 991 C 709 991 709 989 710 988 C 726 989 742 998 751 1012 C 757 1013 764 1013 771 1013 C 768 998 756 985 743 977 C 732 969 719 963 705 962 C 695 965 685 968 675 968 C 672 967 673 964 675 963 C 684 961 693 957 701 953 C 703 951 707 949 708 947 C 715 937 718 926 719 915 C 722 897 721 879 721 862 C 721 822 720 783 716 743 C 716 740 715 737 716 734 C 715 734 715 734 715 734 C 710 693 702 652 687 614 C 682 600 676 586 670 572 C 669 571 670 569 672 569 C 673 571 674 572 675 574 C 696 606 710 643 718 681 C 718 682 719 683 719 684 C 760 698 804 701 847 696 C 846 694 845 693 843 692 C 829 680 821 661 818 642 C 815 625 817 606 821 589 C 806 587 792 585 777 583 C 756 578 735 570 715 560 C 702 553 689 546 674 542 C 672 542 671 542 670 543 C 658 547 646 550 634 553 C 623 555 612 557 600 557 C 641 548 681 534 715 509 C 724 503 731 496 740 490 C 745 488 749 486 754 483 C 762 479 769 475 776 470 C 779 467 782 464 782 460 C 781 455 780 450 779 445 C 772 443 766 440 760 440 C 748 441 737 447 729 454 C 718 463 705 469 692 472 C 689 481 687 489 682 497 C 680 501 677 505 672 505 C 667 505 663 502 660 498 C 654 491 650 482 647 473 C 639 472 631 471 622 469 C 607 467 591 463 576 463 C 569 463 562 463 555 463 C 550 473 546 482 540 491 C 538 494 534 498 530 498 C 524 498 520 494 517 490 C 511 479 509 468 507 456 C 500 453 493 451 487 446 C 479 441 472 435 467 428 C 463 419 458 410 451 403 C 447 399 443 394 438 391 C 436 390 434 389 432 388 C 441 386 450 390 457 396 C 463 401 468 408 473 415 C 474 415 475 414 476 413 C 484 407 492 402 502 401 C 507 400 511 404 511 409 C 511 417 508 425 506 433 C 505 436 505 439 504 443 C 524 452 547 454 568 452 C 569 448 571 444 572 440 C 576 433 580 425 586 419 C 589 417 593 414 597 415 C 601 416 603 420 604 423 C 606 430 608 437 610 444 C 611 448 612 453 614 457 C 633 461 652 465 672 465 C 685 464 699 461 711 454 C 718 451 723 445 730 441 C 739 435 751 430 762 431 C 774 431 784 437 795 439 C 806 440 819 435 826 425 C 834 415 838 404 840 391 C 843 374 841 356 835 339 C 827 322 812 309 794 303 C 774 295 751 297 731 306 C 727 307 724 306 721 306 C 700 302 678 302 658 308 C 645 313 632 320 624 332 C 615 342 611 356 611 370 C 610 374 611 379 610 384 C 606 369 605 353 610 338 C 616 323 627 312 641 304 C 660 293 683 290 705 292 C 689 284 672 281 655 279 C 630 277 606 280 583 285 C 556 292 529 304 508 323 C 503 328 499 334 494 339 C 495 336 497 333 499 330 C 507 316 519 304 532 296 C 536 293 539 292 542 290 C 557 282 573 276 589 273 C 591 272 594 272 597 271 C 599 271 602 270 605 270 C 606 270 608 269 609 269 Z" />
<path fill="#d5f6ff"  d="M 476 303 C 479 294 482 284 485 275 C 490 282 491 293 485 300 C 483 302 479 303 476 303 Z" />
<path fill="#31a6b7"  d="M 462 278 C 461 288 466 300 476 303 C 475 308 473 314 471 319 C 469 314 466 309 462 307 C 459 305 456 305 452 304 C 456 296 459 287 462 278 Z" />
<path fill="#59da41"  d="M 583 285 C 606 280 630 277 655 279 C 672 281 689 284 705 292 C 683 290 660 293 641 304 C 627 312 616 323 610 338 C 605 353 606 369 610 384 C 611 379 610 374 611 370 C 611 356 615 342 624 332 C 632 320 645 313 658 308 C 678 302 700 302 721 306 C 724 306 727 307 731 306 C 751 297 774 295 794 303 C 812 309 827 322 835 339 C 841 356 843 374 840 391 C 835 399 832 408 825 414 C 820 419 813 422 805 424 C 798 425 789 424 782 421 C 775 419 768 416 761 416 C 748 416 736 423 726 431 C 718 438 709 443 700 447 C 681 453 660 452 641 450 C 630 448 620 447 610 444 C 608 437 606 430 604 423 C 603 420 601 416 597 415 C 593 414 589 417 586 419 C 580 425 576 433 572 440 C 565 440 558 441 552 441 C 541 441 530 440 519 438 C 515 436 510 435 506 433 C 508 425 511 417 511 409 C 511 404 507 400 502 401 C 492 402 484 407 476 413 C 471 409 469 402 463 398 C 461 396 459 396 457 396 C 450 390 441 386 432 388 C 434 389 436 390 438 391 C 430 390 422 391 413 392 C 398 393 384 400 373 410 C 361 420 354 436 353 451 C 351 474 358 497 371 515 C 364 514 357 510 351 506 C 345 502 339 497 333 494 C 313 471 305 440 307 410 C 308 378 321 347 335 319 C 338 319 342 318 344 316 C 347 312 347 306 347 301 C 357 296 367 292 377 288 L 377 288 C 384 304 391 319 403 331 C 413 342 427 347 441 349 C 461 351 481 347 498 338 C 502 333 505 328 508 323 C 529 304 556 292 583 285 Z" />
<path fill="#31a6b7"  d="M 473 339 C 482 319 490 299 498 279 C 499 281 500 283 500 285 C 503 297 502 309 499 320 C 497 324 495 328 493 332 C 487 335 480 337 473 339 Z" />
<path fill="#3ea561"  d="M 706 281 C 706 281 706 281 706 281 L 706 281 L 706 281 Z" />
<path fill="#aded9f"  d="M 730 313 C 744 304 761 300 778 302 C 792 304 805 310 814 320 C 806 315 796 311 787 310 C 767 307 746 312 730 323 C 695 315 659 322 629 339 C 636 328 648 321 660 317 C 680 310 702 310 723 313 C 725 313 728 314 730 313 Z" />
<path fill="#4bbbd1"  d="M 452 304 C 456 305 459 305 462 307 C 466 309 469 314 471 319 C 470 324 468 328 467 333 C 463 333 459 333 456 331 C 452 329 449 324 447 320 C 449 315 451 310 452 304 Z" />
<path fill="#c6f3ee"  d="M 431 308 C 434 316 437 324 443 330 C 442 334 440 337 439 341 C 434 340 429 338 424 337 C 426 327 429 318 431 308 Z" />
<path fill="#31a6b7"  d="M 447 320 C 449 324 452 329 456 331 C 459 333 463 333 467 333 C 466 336 465 338 464 341 C 461 341 458 341 455 342 C 450 338 445 335 443 330 C 444 327 445 323 447 320 Z" />
<path fill="#42b72a"  d="M 361 322 C 368 321 376 323 380 329 C 385 334 386 342 382 348 C 376 358 362 361 353 356 C 346 352 341 344 343 336 C 345 329 353 323 361 322 Z" />
<path fill="#43d8c5"  d="M 443 330 L 443 330 C 445 335 450 338 455 342 C 450 342 444 341 439 341 C 440 337 442 334 443 330 Z" />
<path fill="#203a13"  d="M 790 338 C 793 334 799 333 803 336 C 808 341 809 348 807 355 C 805 359 800 363 796 361 C 792 360 790 357 787 355 C 784 354 782 358 781 360 C 782 352 784 344 790 338 Z" />
<path fill="#42b72a"  d="M 413 344 C 421 342 431 348 430 357 C 429 369 414 374 405 367 C 401 364 399 358 401 353 C 403 348 408 344 413 344 Z" />
<path fill="#203a13"  d="M 657 362 C 658 358 662 356 665 356 C 670 355 674 358 677 362 C 680 366 684 371 686 376 C 684 375 682 372 679 373 C 676 375 676 380 672 381 C 669 384 663 383 660 379 C 656 374 655 368 657 362 Z" />
<path fill="#42b72a"  d="M 327 367 C 334 365 342 370 343 377 C 343 384 338 390 332 391 C 326 393 318 389 316 383 C 314 376 320 368 327 367 Z" />
<path fill="#42b72a"  d="M 372 371 C 376 370 380 372 383 375 C 386 378 387 383 385 387 C 381 393 372 395 367 390 C 362 388 361 382 363 377 C 365 374 368 372 372 371 Z" />
<path fill="#ffdf46"  d="M 413 392 C 422 391 430 390 438 391 C 443 394 447 399 451 403 C 458 410 463 419 467 428 C 472 435 479 441 487 446 C 493 451 500 453 507 456 C 509 468 511 479 517 490 C 520 494 524 498 530 498 C 534 498 538 494 540 491 C 546 482 550 473 555 463 C 562 463 569 463 576 463 C 591 463 607 467 622 469 C 631 471 639 472 647 473 C 650 482 654 491 660 498 C 663 502 667 505 672 505 C 677 505 680 501 682 497 C 687 489 689 481 692 472 C 705 469 718 463 729 454 C 737 447 748 441 760 440 C 766 440 772 443 779 445 C 780 450 781 455 782 460 C 782 464 779 467 776 470 C 769 475 762 479 754 483 C 752 483 749 483 747 484 C 743 486 738 487 735 490 C 718 494 703 502 687 507 C 670 513 652 513 634 509 C 635 510 636 510 637 511 C 635 512 632 511 630 511 C 622 509 614 510 605 512 C 562 519 518 529 473 531 C 444 532 415 530 386 522 C 382 520 378 518 373 518 C 372 517 372 516 371 515 C 358 497 351 474 353 451 C 354 436 361 420 373 410 C 384 400 398 393 413 392 Z" />
<path fill="#48aa31"  d="M 825 414 C 832 408 835 399 840 391 C 838 404 834 415 826 425 C 819 435 806 440 795 439 C 784 437 774 431 762 431 C 751 430 739 435 730 441 C 723 445 718 451 711 454 C 699 461 685 464 672 465 C 652 465 633 461 614 457 C 612 453 611 448 610 444 C 620 447 630 448 641 450 C 660 452 681 453 700 447 C 709 443 718 438 726 431 C 736 423 748 416 761 416 C 768 416 775 419 782 421 C 789 424 798 425 805 424 C 813 422 820 419 825 414 Z" />
<path fill="#48aa31"  d="M 457 396 C 459 396 461 396 463 398 C 469 402 471 409 476 413 C 475 414 474 415 473 415 C 468 408 463 401 457 396 Z" />
<path fill="#42b72a"  d="M 329 409 C 335 407 342 410 345 416 C 348 422 344 429 338 432 C 332 435 322 432 320 424 C 317 418 322 410 329 409 Z" />
<path fill="#ffffff"  d="M 479 424 C 485 418 493 413 501 411 C 500 420 497 429 495 438 C 489 434 483 429 479 424 Z" />
<path fill="#ffffff"  d="M 579 452 C 582 442 587 432 594 425 C 598 435 599 445 602 455 C 595 454 587 453 579 452 Z" />
<path fill="#48aa31"  d="M 504 443 C 505 439 505 436 506 433 C 510 435 515 436 519 438 C 530 440 541 441 552 441 C 558 441 565 440 572 440 C 571 444 569 448 568 452 C 547 454 524 452 504 443 Z" />
<path fill="#ffffff"  d="M 790 448 C 798 450 806 449 814 447 C 810 455 806 463 798 469 C 796 468 795 466 794 463 C 792 458 791 453 790 448 Z" />
<path fill="#ffffff"  d="M 518 459 C 526 462 535 463 544 463 C 539 472 536 481 529 488 C 526 486 525 482 523 479 C 521 473 519 466 518 459 Z" />
<path fill="#ffffff"  d="M 658 474 C 666 475 673 475 681 474 C 678 481 677 489 672 495 C 665 490 661 482 658 474 Z" />
<path fill="#c8b63a"  d="M 747 484 C 749 483 752 483 754 483 C 749 486 745 488 740 490 C 731 496 724 503 715 509 C 681 534 641 548 600 557 C 587 561 573 564 559 567 C 550 569 541 568 532 569 C 528 570 523 569 519 569 C 475 563 431 555 391 536 C 384 531 378 525 373 518 C 378 518 382 520 386 522 C 415 530 444 532 473 531 C 518 529 562 519 605 512 C 614 510 622 509 630 511 C 632 511 635 512 637 511 C 650 518 666 520 681 517 C 696 513 709 506 722 498 C 726 495 731 493 735 490 C 738 487 743 486 747 484 Z" />
<path fill="#203a13"  d="M 687 507 C 703 502 718 494 735 490 C 731 493 726 495 722 498 C 709 506 696 513 681 517 C 666 520 650 518 637 511 C 636 510 635 510 634 509 C 652 513 670 513 687 507 Z" />
<path fill="#48aa31"  d="M 333 494 C 339 497 345 502 351 506 C 357 510 364 514 371 515 C 372 516 372 517 373 518 C 378 525 384 531 391 536 C 369 526 348 513 333 494 Z" />
<path fill="#febc1d"  d="M 931 513 C 943 506 960 510 968 522 C 977 533 977 550 967 560 C 964 565 959 568 954 570 C 952 564 951 558 947 553 C 946 550 945 548 944 545 C 943 547 943 548 942 550 C 941 550 939 549 938 549 C 939 547 940 545 940 543 C 935 545 930 547 925 549 C 921 549 918 549 914 549 C 910 535 917 519 931 513 Z" />
<path fill="#ffecce"  d="M 938 520 C 942 519 946 519 950 520 C 948 525 946 530 944 535 C 941 530 940 525 938 520 Z" />
<path fill="#ffecce"  d="M 926 530 C 928 527 931 524 934 522 C 936 526 938 531 940 536 C 935 534 930 532 926 530 Z" />
<path fill="#ffecce"  d="M 954 522 C 958 524 961 527 963 531 C 958 533 953 535 948 536 C 950 532 952 527 954 522 Z" />
<path fill="#ffffff"  d="M 786 534 C 785 530 786 526 787 523 C 806 525 826 528 845 531 C 847 531 849 532 850 535 C 851 540 852 544 853 549 C 849 549 845 549 841 549 C 840 545 838 542 833 541 C 818 539 802 537 786 534 Z" />
<path fill="#ffecce"  d="M 924 534 C 929 536 934 537 938 540 C 933 541 928 544 923 545 C 923 541 923 537 924 534 Z" />
<path fill="#ffecce"  d="M 949 540 C 954 538 959 536 964 535 C 965 538 965 542 964 546 C 959 544 954 542 949 540 Z" />
<path fill="#59da41"  d="M 670 543 C 671 542 672 542 674 542 C 689 546 702 553 715 560 C 735 570 756 578 777 583 C 792 585 806 587 821 589 C 817 606 815 625 818 642 C 818 643 818 644 818 645 C 784 644 751 633 723 614 C 710 605 699 593 687 583 C 683 580 680 576 675 574 C 674 572 673 571 672 569 C 670 569 669 571 670 572 C 676 586 682 600 687 614 C 680 602 673 590 664 580 C 658 574 652 568 646 562 C 650 560 655 558 658 554 C 662 550 667 548 670 543 Z" />
<path fill="#48aa31"  d="M 634 553 C 646 550 658 547 670 543 C 667 548 662 550 658 554 C 655 558 650 560 646 562 L 646 563 C 642 559 638 556 634 553 Z" />
<path fill="#ffebce"  d="M 925 549 C 930 547 935 545 940 543 C 940 545 939 547 938 549 C 934 549 929 549 925 549 Z" />
<path fill="#ffecce"  d="M 947 543 C 952 545 958 548 963 550 C 961 554 958 557 954 559 C 952 554 949 549 947 543 Z" />
<path fill="#ffffff"  d="M 942 550 C 943 548 943 547 944 545 C 945 548 946 550 947 553 C 946 552 944 551 942 550 L 942 550 Z" />
<path fill="#59da41"  d="M 341 561 C 356 555 373 551 389 548 C 392 553 397 556 402 559 C 414 567 428 572 442 576 C 456 579 470 582 483 584 C 465 613 452 646 444 680 C 438 679 432 679 426 680 C 418 671 411 661 403 652 C 405 645 407 637 408 629 C 412 615 416 599 422 585 C 421 582 419 584 418 586 C 408 604 402 625 396 645 C 389 638 381 630 373 624 C 372 623 370 624 370 625 C 377 633 384 641 390 649 C 393 652 395 656 397 659 C 405 669 412 678 420 687 C 421 689 423 690 425 690 C 435 688 446 688 455 693 C 452 698 448 702 444 706 C 441 712 439 718 440 725 C 443 740 441 757 446 772 C 441 771 436 770 433 766 C 428 762 426 755 424 749 C 424 747 423 745 422 746 C 420 753 421 760 423 766 C 421 778 419 791 412 801 C 409 799 407 797 405 794 C 402 791 398 787 397 782 C 395 776 396 770 395 764 C 394 764 393 764 393 763 C 390 772 390 780 392 788 C 390 793 387 797 383 801 C 378 796 374 790 371 784 C 368 776 367 766 366 758 C 366 750 365 742 366 734 C 367 730 368 727 368 723 C 354 714 339 706 327 695 C 315 686 305 674 298 660 C 292 646 289 631 291 616 C 291 612 292 608 293 604 C 291 605 290 607 289 609 C 284 619 281 631 281 644 C 281 651 281 659 282 667 C 283 680 289 692 299 700 C 303 705 307 708 312 712 L 311 713 C 302 706 294 699 287 690 C 282 681 279 671 279 662 C 279 653 278 645 279 636 C 280 618 288 600 300 587 C 311 575 326 567 341 561 Z" />
<path fill="#48aa31"  d="M 389 548 C 392 548 395 550 398 551 C 428 563 460 570 492 570 C 489 575 486 579 483 584 C 470 582 456 579 442 576 C 428 572 414 567 402 559 C 397 556 392 553 389 548 Z" />
<path fill="#bcad36"  d="M 600 557 C 612 557 623 555 634 553 C 638 556 642 559 646 563 C 628 572 608 577 588 581 C 554 587 518 587 483 584 C 486 579 489 575 492 570 C 501 570 510 571 519 569 C 523 569 528 570 532 569 C 541 568 550 569 559 567 C 573 564 587 561 600 557 Z" />
<path fill="#a5b0a0"  d="M 836 568 C 838 564 838 558 843 557 C 847 574 850 591 854 608 C 851 608 848 608 845 608 C 844 603 843 598 842 593 C 842 591 840 591 839 591 C 836 591 833 590 829 590 C 830 587 831 584 832 581 C 834 581 837 581 840 582 C 838 577 838 572 836 568 Z" />
<path fill="#ffffff"  d="M 843 557 C 847 558 851 557 855 558 C 858 574 862 591 866 607 C 862 607 858 607 854 608 C 850 591 847 574 843 557 Z" />
<path fill="#a5b0a0"  d="M 855 558 C 858 557 861 557 864 557 C 866 566 867 575 869 584 C 886 585 902 587 918 587 C 916 590 913 592 911 596 C 898 596 885 595 872 594 C 872 598 873 603 874 607 C 872 607 869 607 866 607 C 862 591 858 574 855 558 Z" />
<path fill="#cbfff0"  d="M 864 557 C 879 557 895 557 910 558 C 915 567 924 574 934 577 C 928 579 923 583 918 587 C 902 587 886 585 869 584 C 867 575 866 566 864 557 Z" />
<path fill="#a5b0a0"  d="M 910 558 C 913 557 916 557 918 557 C 924 566 935 571 945 571 C 945 572 946 574 946 575 C 942 575 938 576 934 577 C 924 574 915 567 910 558 Z" />
<path fill="#ffe5a4"  d="M 918 557 C 925 557 931 557 938 558 C 940 558 941 559 942 561 C 943 564 944 568 945 571 C 935 571 924 566 918 557 Z" />
<path fill="#ffdf46"  d="M 646 563 L 646 562 C 652 568 658 574 664 580 C 673 590 680 602 687 614 C 702 652 710 693 715 734 C 716 745 714 757 713 768 C 710 787 706 805 700 823 C 700 824 699 825 699 825 C 691 835 682 845 672 852 C 664 859 656 865 647 869 C 601 886 550 885 505 870 C 498 868 491 866 484 863 C 484 863 483 862 482 861 C 472 851 464 839 457 827 C 450 812 446 797 443 781 C 447 782 452 783 455 779 C 458 776 457 772 456 769 C 451 757 452 743 451 730 C 450 726 448 721 450 716 C 452 710 458 705 463 700 C 466 695 465 688 461 685 C 456 682 450 681 444 680 C 452 646 465 613 483 584 C 518 587 554 587 588 581 C 608 577 628 572 646 563 Z" />
<path fill="#cbfff0"  d="M 836 568 C 838 572 838 577 840 582 C 837 581 834 581 832 581 C 833 576 835 572 836 568 Z" />
<path fill="#42b72a"  d="M 675 574 C 680 576 683 580 687 583 C 699 593 710 605 723 614 C 751 633 784 644 818 645 C 818 644 818 643 818 642 C 821 661 829 680 843 692 C 802 697 759 694 718 681 C 710 643 696 606 675 574 Z" />
<path fill="#59da41"  d="M 922 597 C 927 590 935 586 944 584 C 949 583 956 586 958 592 C 966 604 968 619 968 633 C 967 648 964 664 954 676 C 946 684 934 687 923 682 C 926 674 931 668 939 663 C 942 663 946 663 950 662 C 951 661 951 658 949 658 C 944 657 941 656 937 654 C 930 651 922 647 918 639 C 921 631 927 622 936 619 C 940 619 945 619 949 617 C 950 616 948 614 946 614 C 940 613 934 609 929 606 C 926 604 922 601 922 597 Z" />
<path fill="#bdf1b3"  d="M 825 626 C 825 614 827 602 829 590 C 833 590 836 591 839 591 C 840 591 842 591 842 593 C 843 598 844 603 845 608 C 843 609 839 608 839 611 C 837 624 836 637 839 650 C 832 643 829 635 825 626 Z" />
<path fill="#bdf1b3"  d="M 872 594 C 885 595 898 596 911 596 C 913 602 916 607 920 612 C 905 611 890 608 874 607 C 873 603 872 598 872 594 Z" />
<path fill="#42b72a"  d="M 289 609 C 290 607 291 605 293 604 C 292 608 291 612 291 616 C 289 631 292 646 298 660 C 305 674 315 686 327 695 C 339 706 354 714 368 723 C 366 724 365 724 365 726 C 362 730 361 735 359 741 C 345 733 330 725 316 715 C 316 715 315 715 314 715 C 313 714 312 714 311 713 L 312 712 C 307 708 303 705 299 700 C 289 692 283 680 282 667 C 281 659 281 651 281 644 C 281 631 284 619 289 609 Z" />
<path fill="#febc1d"  d="M 845 608 C 848 608 851 608 854 608 C 858 607 862 607 866 607 C 869 607 872 607 874 607 C 890 608 905 611 920 612 C 922 612 923 614 924 615 C 916 621 911 630 909 640 C 911 649 919 656 927 660 C 924 662 922 666 919 668 C 910 672 899 675 889 675 C 873 674 858 668 846 658 C 844 656 842 654 839 652 C 839 651 839 651 839 650 C 836 637 837 624 839 611 C 839 608 843 609 845 608 Z" />
<path fill="#203a13"  d="M 662 617 C 670 616 677 614 684 614 C 684 614 684 615 684 616 C 677 619 670 620 663 622 C 622 632 579 636 538 635 C 514 635 490 633 466 629 C 465 629 464 629 464 627 C 530 629 597 626 662 617 Z" />
<path fill="#aded9f"  d="M 359 625 C 358 623 362 622 363 624 C 383 644 402 666 417 691 C 411 690 405 686 401 683 C 389 674 381 661 374 650 C 369 642 364 634 359 625 Z" />
<path fill="#87af7b"  d="M 825 626 C 829 635 832 643 839 650 C 839 651 839 651 839 652 C 842 664 848 676 859 683 C 864 687 871 689 877 690 C 872 693 866 693 860 694 C 848 687 839 677 833 664 C 828 652 825 639 825 626 Z" />
<path fill="#bb951a"  d="M 839 652 C 842 654 844 656 846 658 C 858 668 873 674 889 675 C 899 675 910 672 919 668 C 916 674 912 681 913 688 C 902 691 889 692 877 690 C 871 689 864 687 859 683 C 848 676 842 664 839 652 Z" />
<path fill="#59da41"  d="M 718 681 C 759 694 802 697 843 692 C 845 693 846 694 847 696 C 804 701 760 698 719 684 C 719 683 718 682 718 681 Z" />
<path fill="#7e8c75"  d="M 877 690 C 889 692 902 691 913 688 C 914 689 916 690 917 690 C 905 694 892 697 880 700 C 873 699 866 697 860 694 C 866 693 872 693 877 690 Z" />
<path fill="#97c4ad"  d="M 880 700 C 892 697 905 694 917 690 C 919 691 921 691 923 692 C 910 700 894 703 880 700 Z" />
<path fill="#203a13"  d="M 701 706 C 703 705 707 704 706 707 C 691 715 675 720 658 724 C 621 733 583 735 546 734 C 514 732 483 728 453 717 C 451 716 453 713 454 714 C 493 724 533 727 572 726 C 598 725 623 723 648 718 C 666 715 684 712 701 706 Z" />
<path fill="#59da41"  d="M 212 708 C 216 710 218 714 221 717 C 232 728 242 740 253 751 C 268 765 285 777 303 786 C 318 792 333 796 348 795 C 354 795 359 795 364 794 C 367 797 369 801 373 805 C 365 808 361 816 359 824 C 356 837 356 851 353 864 L 353 864 C 333 863 313 858 296 848 C 271 836 252 816 237 793 C 225 773 217 752 211 730 C 210 723 210 715 212 708 Z" />
<path fill="#cbfff0"  d="M 882 709 C 888 710 893 710 899 709 C 899 721 899 733 899 744 C 899 747 901 749 903 749 C 913 752 923 758 929 767 C 931 768 930 771 928 772 C 905 779 880 779 857 772 C 854 771 853 768 855 767 C 861 758 870 753 879 749 C 881 748 882 746 882 745 C 882 733 882 721 882 709 Z" />
<path fill="#59da41"  d="M 314 715 C 315 715 316 715 316 715 C 330 725 345 733 359 741 L 359 742 C 343 734 328 725 314 715 Z" />
<path fill="#246f10"  d="M 246 731 C 250 730 255 728 259 729 C 261 733 260 739 259 743 C 257 743 257 742 256 741 C 253 738 249 735 246 731 Z" />
<path fill="#ffdf46"  d="M 211 730 C 217 752 225 773 237 793 C 252 816 271 836 296 848 C 313 858 333 863 353 864 C 351 872 346 880 338 883 C 329 887 320 886 311 885 C 309 878 309 871 308 863 C 307 870 307 877 308 884 C 296 882 285 876 275 869 L 274 869 C 270 860 269 850 269 840 C 267 848 267 856 268 863 C 264 861 261 857 257 854 C 252 849 248 841 245 834 C 242 827 242 819 244 812 C 241 817 240 823 240 829 C 230 810 223 791 218 771 C 214 757 211 744 211 730 Z" />
<path fill="#59da41"  d="M 715 734 C 715 734 715 734 716 734 C 715 737 716 740 716 743 C 720 783 721 822 721 862 C 721 879 722 897 719 915 C 718 926 715 937 708 947 C 707 949 703 951 701 953 C 693 957 684 961 675 963 C 673 964 672 967 675 968 C 685 968 695 965 705 962 C 719 963 732 969 743 977 C 756 985 768 998 771 1013 C 764 1013 757 1013 751 1012 C 742 998 726 989 710 988 C 709 989 709 991 711 991 C 724 996 737 1005 744 1018 C 720 1018 696 1017 673 1011 C 667 1010 661 1006 660 1000 C 659 993 660 987 662 980 C 664 977 666 973 667 970 C 667 966 663 966 660 965 C 656 964 652 960 650 956 C 648 947 647 938 647 930 C 646 919 648 908 654 899 C 657 894 662 890 665 885 C 671 881 678 878 682 873 C 682 872 681 871 680 870 C 691 859 697 845 700 830 C 700 827 700 825 700 823 C 706 805 710 787 713 768 C 714 757 716 745 715 734 Z" />
<path fill="#42b72a"  d="M 407 754 C 409 751 413 748 418 749 C 418 753 417 758 416 763 C 416 771 416 779 415 786 C 414 788 413 789 412 790 C 407 789 406 783 405 779 C 403 770 402 761 407 754 Z" />
<path fill="#246f10"  d="M 284 763 C 288 761 292 758 296 759 C 300 762 300 769 299 773 C 294 771 289 768 284 764 C 284 764 284 763 284 763 Z" />
<path fill="#42b72a"  d="M 387 760 C 388 760 388 762 388 763 C 387 770 388 777 389 784 C 390 786 390 790 388 792 C 385 793 382 791 381 789 C 376 783 376 774 378 767 C 379 763 383 760 387 760 Z" />
<path fill="#246f10"  d="M 336 772 C 338 771 340 772 342 773 C 345 777 348 781 349 786 C 341 786 334 786 327 784 C 329 779 332 775 336 772 Z" />
<path fill="#59da41"  d="M 431 777 C 435 779 439 780 443 781 C 446 797 450 812 457 827 C 464 839 472 851 482 861 C 476 860 470 856 464 854 C 461 854 460 857 461 859 C 463 863 466 867 468 870 C 467 870 466 871 466 871 C 465 875 469 877 471 879 C 473 882 475 885 477 887 C 490 906 495 931 491 953 C 490 960 488 966 483 971 C 481 972 478 975 480 977 C 482 983 485 988 486 995 C 487 1001 485 1009 480 1013 C 474 1020 464 1022 455 1023 C 440 1025 425 1026 410 1028 C 404 1029 397 1030 391 1033 C 394 1022 398 1010 406 1002 C 408 998 412 996 416 994 C 416 992 414 989 413 991 C 398 996 388 1009 383 1023 C 377 1024 370 1023 363 1022 C 365 1010 375 1000 385 993 C 397 986 410 980 423 975 C 431 976 439 977 447 974 C 446 974 446 973 446 972 C 438 970 429 969 423 964 C 405 937 396 905 391 874 C 388 853 386 832 386 811 C 390 809 393 804 397 801 C 400 804 403 808 408 810 C 412 813 418 811 421 807 C 427 798 429 788 431 777 Z" />
<path fill="#42b72a"  d="M 373 805 C 374 805 373 807 374 809 C 374 827 375 846 378 864 C 370 865 361 865 353 864 C 356 851 356 837 359 824 C 361 816 365 808 373 805 Z" />
<path fill="#203a13"  d="M 690 812 C 691 812 693 811 695 811 C 697 810 697 814 695 814 C 666 827 635 835 604 838 C 569 841 534 839 500 832 C 487 829 474 826 462 820 C 459 819 461 816 463 817 C 529 836 599 834 665 819 C 673 817 682 815 690 812 Z" />
<path fill="#48aa31"  d="M 700 823 C 700 825 700 827 700 830 C 697 845 691 859 680 870 C 674 874 667 877 660 880 C 678 866 691 847 699 825 C 699 825 700 824 700 823 Z" />
<path fill="#bcad36"  d="M 672 852 C 682 845 691 835 699 825 C 691 847 678 866 660 880 C 636 891 611 898 584 900 C 570 901 555 901 541 898 C 520 891 500 880 484 863 C 491 866 498 868 505 870 C 550 885 601 886 647 869 C 656 865 664 859 672 852 Z" />
<path fill="#48aa31"  d="M 464 854 C 470 856 476 860 482 861 C 483 862 484 863 484 863 C 500 880 520 891 541 898 C 533 898 526 896 519 894 C 502 890 486 883 472 873 C 470 872 468 871 466 871 C 466 871 467 870 468 870 C 466 867 463 863 461 859 C 460 857 461 854 464 854 Z" />
<path fill="#a59d31"  d="M 257 854 C 261 857 264 861 268 863 L 268 863 C 269 865 269 867 269 869 C 265 864 260 860 257 854 Z" />
<path fill="#bcad36"  d="M 353 864 L 353 864 C 361 865 370 865 378 864 C 382 888 387 912 396 934 C 390 933 384 932 378 931 C 369 926 364 916 359 907 C 354 898 350 888 348 877 C 348 879 348 880 348 882 C 351 898 355 913 364 927 C 353 924 342 919 332 914 C 320 910 314 897 311 885 C 320 886 329 887 338 883 C 346 880 351 872 353 864 Z" />
<path fill="#bcad36"  d="M 275 869 C 285 876 296 882 308 884 C 308 891 310 898 313 904 C 303 898 293 891 284 883 C 280 879 276 874 275 869 Z" />
<path fill="#42b72a"  d="M 471 879 C 494 898 523 907 552 910 C 548 919 545 928 540 936 C 538 940 536 945 535 949 C 530 966 535 985 532 1002 C 531 1008 528 1013 527 1019 C 523 1023 517 1025 512 1025 C 487 1025 462 1026 437 1029 C 422 1030 406 1035 391 1033 C 397 1030 404 1029 410 1028 C 425 1026 440 1025 455 1023 C 464 1022 474 1020 480 1013 C 485 1009 487 1001 486 995 C 485 988 482 983 480 977 C 478 975 481 972 483 971 C 488 966 490 960 491 953 C 495 931 490 906 477 887 C 475 885 473 882 471 879 Z" />
<path fill="#42b72a"  d="M 577 910 C 608 909 639 901 665 885 C 662 890 657 894 654 899 C 648 908 646 919 647 930 C 647 938 648 947 650 956 C 652 960 656 964 660 965 C 663 966 667 966 667 970 C 666 973 664 977 662 980 C 660 987 659 993 660 1000 C 661 1006 667 1010 673 1011 C 696 1017 720 1018 744 1018 C 744 1020 746 1021 745 1023 C 730 1021 715 1019 700 1019 C 673 1019 646 1019 618 1019 C 616 1019 613 1018 610 1017 C 610 1013 608 1008 607 1004 C 605 991 606 978 605 965 C 605 954 599 943 593 933 C 588 925 583 918 577 910 Z" />
<path fill="#42b72a"  d="M 405 909 C 412 907 416 914 419 919 C 424 928 430 937 437 945 C 441 949 445 953 444 959 C 444 962 442 966 438 966 C 430 967 423 961 419 955 C 414 945 410 935 406 925 C 404 920 402 915 404 910 C 404 909 404 909 405 909 Z" />
<path fill="#59da41"  d="M 552 910 C 552 910 554 910 555 910 C 552 920 547 929 543 938 C 538 947 535 959 536 970 C 536 978 536 986 536 994 C 535 1003 533 1013 527 1019 C 528 1013 531 1008 532 1002 C 535 985 530 966 535 949 C 536 945 538 940 540 936 C 545 928 548 919 552 910 Z" />
<path fill="#59da41"  d="M 572 911 C 574 911 575 911 577 910 C 583 918 588 925 593 933 C 599 943 605 954 605 965 C 606 978 605 991 607 1004 C 608 1008 610 1013 610 1017 C 606 1014 605 1009 604 1004 C 602 992 602 981 602 969 C 602 961 600 953 596 945 C 589 933 581 921 572 911 Z" />
<path fill="#7cffd7"  d="M 552 941 C 556 932 560 924 563 915 C 569 922 574 929 579 936 C 584 944 589 951 591 961 C 593 969 593 977 593 986 C 577 985 561 985 545 985 C 545 980 545 974 545 968 C 545 959 547 949 552 941 Z" />
<path fill="#aded9f"  d="M 717 971 C 716 968 720 969 722 970 C 731 972 740 977 748 984 C 747 984 747 985 747 986 C 736 983 724 980 717 971 Z" />
<path fill="#5fc49c"  d="M 545 985 C 561 985 577 985 593 986 C 593 997 593 1008 599 1018 C 602 1024 609 1028 616 1028 C 644 1028 671 1028 699 1028 C 714 1028 730 1031 745 1032 C 748 1032 751 1033 754 1032 C 757 1029 755 1025 755 1022 C 762 1023 769 1023 776 1022 C 779 1022 781 1020 781 1018 C 780 1012 779 1006 777 1001 C 789 1003 802 1006 814 1010 C 821 1012 827 1015 833 1019 C 836 1022 838 1026 836 1030 C 832 1035 826 1038 820 1040 C 803 1047 786 1050 768 1053 C 725 1060 681 1064 637 1066 C 582 1068 528 1068 474 1065 C 429 1062 385 1059 341 1051 C 327 1047 312 1044 299 1038 C 295 1036 289 1033 288 1028 C 287 1022 292 1019 295 1016 C 306 1010 317 1007 329 1005 C 341 1002 353 999 365 998 C 358 1006 353 1016 353 1026 C 353 1029 355 1031 358 1031 C 365 1032 373 1033 381 1033 C 380 1035 379 1039 382 1041 C 388 1042 394 1042 400 1043 C 412 1043 424 1039 437 1038 C 462 1035 488 1035 514 1034 C 524 1034 533 1028 538 1019 C 545 1009 545 997 545 985 Z" />
</svg>
