<svg width="2001" height="2000" viewBox="0 0 2001 2000" fill="none" xmlns="http://www.w3.org/2000/svg">
<g clip-path="url(#clip0_1267_737)">
<path d="M2000.62 0H0.617188V2000H2000.62V0Z" fill="#FFF3F3"/>
<path d="M1121.81 636.333C1140.51 554.514 1146.86 479.571 1168.58 401.667C1180.51 358.314 1212.02 317.143 1255.29 304.676C1300.85 291.648 1351.77 318.781 1374.73 360.41C1397.71 401.905 1396.02 453.533 1380.26 498.295C1353.32 574.324 1288.72 618.171 1233.28 668.552L1230.28 674.6C1198.92 658.533 1164.46 646.076 1127.45 637.619C1125.52 637.181 1123.61 636.743 1121.78 636.457L1121.81 636.333Z" fill="white"/>
<path d="M1157.61 640.41C1167.66 596.438 1171.07 556.152 1182.75 514.286C1189.16 490.981 1206.09 468.857 1229.36 462.152C1253.85 455.152 1281.22 469.733 1293.55 492.105C1305.9 514.41 1304.99 542.152 1296.52 566.21C1282.04 607.076 1247.32 630.638 1217.52 657.714L1215.91 660.962C1199.06 652.333 1180.53 645.629 1160.64 641.086C1159.61 640.848 1158.57 640.61 1157.59 640.467L1157.61 640.4V640.41Z" fill="#FC9DB7"/>
<path d="M1066.89 627.819L1066.86 627.943C1020.29 623.629 975.589 627.019 933.732 636.848C904.189 562.724 876.522 478.657 878.941 397.962C880.341 350.581 897.446 301.676 933.893 271.343C970.208 240.971 1027.48 233.857 1065.38 262.6C1101.07 289.762 1111.03 339.324 1111.24 384.381C1111.47 460.562 1078.68 566.248 1066.9 627.819H1066.89Z" fill="white"/>
<path d="M1034.17 624.857L1034.15 624.933C1007.26 622.438 981.465 624.4 957.303 630.076C940.255 587.295 924.284 538.771 925.674 492.2C926.484 464.857 936.36 436.629 957.389 419.114C978.351 401.591 1011.41 397.476 1033.27 414.067C1053.87 429.743 1059.63 458.352 1059.74 484.352C1059.87 528.324 1040.95 589.324 1034.15 624.857H1034.17Z" fill="#FC9DB7"/>
<path d="M1071.59 640.895C1069.33 641.714 1066.81 641.962 1064.26 641.476C1056.76 640.038 1051.85 632.79 1053.29 625.286C1056.71 607.409 1061.86 585.895 1067.48 562.476C1080.87 506.59 1097.53 437.019 1097.46 384.381C1097.22 347.695 1089.96 298.61 1057 273.552C1026.41 250.39 976.312 254 942.751 281.895C912.474 307.105 894.227 349.562 892.731 398.352C890.322 479.438 920.236 565.667 946.589 631.733C949.417 638.829 945.941 646.876 938.865 649.695C938.712 649.762 938.56 649.819 938.436 649.867C931.446 652.39 923.646 648.933 920.874 641.981C893.541 573.438 862.512 483.705 865.084 397.524C866.817 340.81 888.693 290.905 925.074 260.629C968.751 224.305 1032.66 220.419 1073.72 251.514C1107.4 277.114 1124.69 321.762 1125.16 384.257C1125.24 440.276 1108.13 511.609 1094.4 568.933C1088.9 591.886 1083.83 612.981 1080.47 630.495C1079.51 635.467 1076.02 639.305 1071.6 640.905L1071.59 640.895Z" fill="#4A0000"/>
<path d="M1238.01 681.648C1232.9 683.495 1226.95 682.21 1223.07 677.933C1217.93 672.276 1218.33 663.543 1224 658.391C1234.19 649.133 1244.66 640.105 1255.15 631.057C1302.06 590.629 1346.35 552.429 1367.16 493.733C1383.45 447.848 1381.75 401.676 1362.54 367.057C1341.56 328.895 1296.1 307.362 1259.03 317.991C1223.71 328.171 1193.66 362.343 1181.99 405.267C1169.71 449.2 1162.53 491.562 1154.92 536.409C1149.27 569.6 1143.46 603.924 1135.37 639.381C1133.66 646.838 1126.24 651.476 1118.79 649.791C1111.33 648.086 1106.67 640.676 1108.38 633.229C1116.32 598.524 1122.07 564.6 1127.66 531.781C1135.37 486.21 1142.68 443.162 1155.32 397.924C1169.46 345.933 1207.69 303.943 1251.43 291.39C1301.22 277.143 1359.4 303.924 1386.79 353.686C1409.82 395.2 1412.17 449.638 1393.26 502.99C1369.98 568.619 1320.8 611.019 1273.22 652.029C1262.93 660.924 1252.63 669.791 1242.62 678.895C1241.23 680.143 1239.66 681.067 1238.02 681.667L1238.01 681.648Z" fill="#4A0000"/>
<path d="M1443.6 1628.04C1410.36 1702.41 1323.12 1735.75 1248.75 1702.51C1174.38 1669.28 1141.04 1582.04 1174.27 1507.68C1207.51 1433.3 1313.41 1358.2 1387.78 1391.44C1462.15 1424.68 1476.84 1553.68 1443.6 1628.05V1628.04Z" fill="white"/>
<path d="M1443.6 1628.04C1446.58 1621.38 1449.15 1614.27 1451.35 1606.84C1451.27 1601.92 1451.15 1597.02 1451.02 1592.15C1438.5 1610.02 1421.28 1625.07 1400.74 1632.39C1380.2 1639.71 1356.23 1638.64 1337.72 1627.1C1319.22 1615.54 1307.46 1592.92 1311.16 1571.43C1318.04 1531.53 1369.4 1512.53 1379.41 1473.3C1381.86 1463.72 1381.56 1453.69 1382.75 1443.88C1383.87 1434.64 1386.61 1425.39 1393.21 1418.56C1398.09 1413.5 1405.14 1410.7 1410.34 1405.93C1403.53 1400.08 1396.05 1395.14 1387.78 1391.45C1313.41 1358.21 1207.51 1433.31 1174.27 1507.69C1141.04 1582.06 1174.38 1669.3 1248.75 1702.52C1323.12 1735.76 1410.36 1702.42 1443.6 1628.05V1628.04Z" fill="#FFCFDB"/>
<path d="M1407.12 1554.7C1421.44 1554.7 1433.06 1543.09 1433.06 1528.77C1433.06 1514.45 1421.44 1502.84 1407.12 1502.84C1392.8 1502.84 1381.19 1514.45 1381.19 1528.77C1381.19 1543.09 1392.8 1554.7 1407.12 1554.7Z" fill="#F7AEB7"/>
<path d="M1267.1 1647.13C1277.23 1647.13 1285.45 1638.92 1285.45 1628.79C1285.45 1618.66 1277.23 1610.45 1267.1 1610.45C1256.97 1610.45 1248.76 1618.66 1248.76 1628.79C1248.76 1638.92 1256.97 1647.13 1267.1 1647.13Z" fill="#F7AEB7"/>
<path d="M1272.18 1565.65C1279.76 1565.65 1285.9 1559.5 1285.9 1551.92C1285.9 1544.34 1279.76 1538.2 1272.18 1538.2C1264.6 1538.2 1258.46 1544.34 1258.46 1551.92C1258.46 1559.5 1264.6 1565.65 1272.18 1565.65Z" fill="#AFA8EE"/>
<path d="M1438.09 1613.68C1445.43 1606.34 1445.43 1594.44 1438.09 1587.1C1430.75 1579.75 1418.85 1579.75 1411.5 1587.1C1404.16 1594.44 1404.16 1606.34 1411.5 1613.68C1418.85 1621.03 1430.75 1621.03 1438.09 1613.68Z" fill="#AFA8EE"/>
<path d="M1391.48 1451.63C1392.73 1443.92 1387.5 1436.66 1379.8 1435.41C1372.09 1434.16 1364.83 1439.39 1363.58 1447.1C1362.33 1454.8 1367.56 1462.06 1375.27 1463.31C1382.97 1464.56 1390.23 1459.33 1391.48 1451.63Z" fill="#D2E771"/>
<path d="M1357.93 1674C1359.97 1661.41 1351.43 1649.55 1338.84 1647.51C1326.26 1645.47 1314.4 1654.02 1312.35 1666.6C1310.31 1679.19 1318.86 1691.04 1331.44 1693.09C1344.03 1695.13 1355.89 1686.58 1357.93 1674Z" fill="#D2E771"/>
<path d="M1371.89 1612.62C1373.69 1605.02 1368.98 1597.41 1361.39 1595.62C1353.79 1593.82 1346.18 1598.53 1344.38 1606.12C1342.59 1613.72 1347.3 1621.33 1354.89 1623.13C1362.49 1624.92 1370.1 1620.21 1371.89 1612.62Z" fill="#C4F0F9"/>
<path d="M1340.38 1560.86C1347.43 1557.94 1350.78 1549.86 1347.86 1542.81C1344.94 1535.76 1336.86 1532.41 1329.81 1535.33C1322.76 1538.25 1319.41 1546.33 1322.33 1553.38C1325.25 1560.44 1333.33 1563.78 1340.38 1560.86Z" fill="#F8CB70"/>
<path d="M1308.87 1727.96C1286.67 1727.96 1264.52 1723.28 1243.65 1713.95C1204.63 1696.51 1174.73 1664.92 1159.46 1625C1144.21 1585.08 1145.41 1541.6 1162.85 1502.57C1196.66 1426.92 1308.15 1342.13 1392.89 1380.01C1430.9 1396.99 1457.69 1436.75 1468.34 1491.94C1477.74 1540.69 1472.76 1593.48 1455.04 1633.15C1437.6 1672.17 1406.01 1702.07 1366.08 1717.33C1347.52 1724.43 1328.18 1727.97 1308.88 1727.97L1308.87 1727.96ZM1348.32 1395.97C1324.86 1395.97 1298.46 1404.11 1272.03 1419.95C1234.26 1442.58 1201.18 1478.15 1185.69 1512.8C1170.98 1545.71 1169.97 1582.39 1182.85 1616.07C1195.72 1649.74 1220.93 1676.39 1253.86 1691.1C1286.78 1705.82 1323.46 1706.83 1357.12 1693.95C1390.8 1681.08 1417.45 1655.87 1432.16 1622.94C1447.65 1588.3 1452.08 1539.92 1443.74 1496.7C1434.82 1450.44 1412.56 1416.24 1382.66 1402.88C1372.32 1398.26 1360.73 1395.97 1348.32 1395.97Z" fill="#4A0000"/>
<path d="M1330.25 1312.9C1390.75 1272.55 1417.27 1394.04 1344.1 1419.86C1407.52 1467.15 1214.86 1576.86 1155.93 1452.56C1205.84 1427.99 1227.49 1375.68 1198.96 1327.95C1190.19 1279.69 1238.26 1261.63 1263.49 1298.72C1280.25 1251.5 1331.56 1262 1330.26 1312.9H1330.25Z" fill="white"/>
<path d="M1332.38 1311.56C1330.95 1313.75 1329.82 1316.14 1329.13 1318.7C1326.46 1328.57 1329.89 1339.1 1328.55 1349.24C1326.3 1366.25 1308.67 1379.62 1291.69 1377.22C1299.75 1382.56 1300.99 1394.98 1295.6 1403C1290.21 1411.02 1279.86 1414.7 1270.22 1414.05C1249.39 1412.65 1232.79 1392.48 1231.82 1371.63C1230.85 1350.78 1243.16 1330.8 1260.18 1318.72L1244.95 1313.42C1238.46 1306.83 1227.42 1306.66 1219.12 1310.74C1211 1314.75 1205.02 1322 1199.78 1329.41C1226.43 1375.69 1206.26 1425.94 1159.16 1450.9C1159.07 1453.5 1159.06 1456.1 1159.06 1458.7C1221.35 1573.13 1406.45 1466.35 1344.11 1419.87C1416.42 1394.35 1391.37 1275.46 1332.39 1311.57L1332.38 1311.56Z" fill="#FFC6D4"/>
<path d="M1246.45 1522.36C1200.96 1522.36 1164.24 1499.31 1144.62 1457.92C1141.68 1451.74 1144.26 1444.35 1150.4 1441.33C1173.84 1429.79 1190.19 1411.75 1196.46 1390.54C1201.94 1371.98 1199.08 1352.56 1188.21 1334.38C1187.44 1333.1 1186.9 1331.68 1186.64 1330.19C1181.56 1302.28 1192.29 1278.5 1213.98 1269.63C1229.44 1263.3 1246.56 1266.45 1260.44 1277.24C1272.76 1259.65 1290.6 1253.85 1305.3 1256.57C1320.61 1259.41 1335.78 1271.91 1340.93 1294.05C1356.29 1289.65 1367.9 1294.14 1374.33 1298.02C1392.83 1309.15 1403.32 1335.5 1400.47 1363.57C1397.83 1389.52 1384.68 1411.07 1364.33 1423.9C1369.43 1432.87 1370.65 1443.16 1367.61 1453.74C1358.18 1486.59 1307.92 1517.79 1257.86 1521.89C1254 1522.2 1250.19 1522.36 1246.44 1522.36H1246.45ZM1172.82 1457.51C1194.95 1493.57 1229.56 1499.09 1255.83 1496.93C1298.81 1493.42 1337.59 1467.59 1343.54 1446.84C1344.84 1442.32 1345.23 1436.31 1336.62 1429.9C1332.91 1427.13 1331.03 1422.55 1331.72 1417.98C1332.42 1413.41 1335.58 1409.59 1339.93 1408.06C1368.81 1397.87 1374.46 1371.79 1375.56 1361.05C1377.4 1343.01 1371.45 1325.52 1361.42 1319.49C1354.98 1315.61 1346.83 1316.9 1337.19 1323.33C1333.3 1325.92 1328.29 1326.13 1324.2 1323.88C1320.1 1321.62 1317.61 1317.27 1317.73 1312.59C1318.23 1293.17 1309.56 1282.84 1300.74 1281.2C1290.66 1279.33 1280.63 1287.85 1275.28 1302.9C1273.7 1307.35 1269.76 1310.53 1265.08 1311.13C1260.43 1311.73 1255.79 1309.66 1253.13 1305.75C1245.03 1293.83 1233.37 1288.74 1223.47 1292.79C1215.6 1296.02 1208.34 1305.78 1210.94 1323.63C1224.47 1347.38 1227.77 1372.9 1220.47 1397.62C1213.29 1421.91 1196.57 1442.82 1172.82 1457.5V1457.51Z" fill="#4A0000"/>
<path d="M778.084 1420.6L765.493 1636.32C765.493 1636.32 733.379 1680.86 744.246 1704.65C755.122 1728.44 877.474 1746.91 920.655 1727.36C963.836 1707.81 1036.01 1546.31 1040.46 1513.06" fill="white"/>
<path d="M778.084 1420.6L775.189 1470.24C793.703 1508.31 827.741 1553.65 888.703 1573.08C981.084 1613.41 839.57 1738.37 744.255 1704.65C755.132 1728.44 877.493 1746.91 920.665 1727.36C963.846 1707.81 1036.02 1546.31 1040.46 1513.06L778.084 1420.61V1420.6Z" fill="#FFD7E2"/>
<path d="M887.531 1747C830.227 1751.71 745.16 1736.74 732.865 1709.85C720.817 1683.48 744.331 1645.06 753.208 1632.05L765.598 1419.87C765.998 1412.96 771.893 1407.69 778.827 1408.1C785.731 1408.5 790.998 1414.42 790.598 1421.32L778.008 1637.05C777.874 1639.42 777.055 1641.71 775.665 1643.64C764.446 1659.25 750.322 1687.77 755.655 1699.43C758.16 1703.3 779.036 1714.18 824.17 1720.12C862.808 1725.21 898.674 1723.57 915.522 1715.94C951.951 1699.44 1023.73 1543.9 1028.07 1511.38C1028.99 1504.52 1035.3 1499.72 1042.14 1500.63C1049 1501.54 1053.81 1507.85 1052.89 1514.7C1050.35 1533.71 1029.86 1584.81 1006.26 1631.02C984.636 1673.34 953.141 1726.38 925.846 1738.74C916.408 1743.02 902.979 1745.71 887.541 1746.98L887.531 1747Z" fill="#4A0000"/>
<path d="M1001.26 1554.6C760.903 1540.87 698.541 1342.11 793.922 1199.1C853.122 1110.34 969.198 1070.87 1077.08 1098.72C1128.48 1111.96 1180.43 1138.55 1208.72 1190.54C1277.75 1317.22 1242.47 1598.03 1246.57 1639.78C1250.66 1681.5 1283.05 1686.61 1272.36 1723.12C1260.82 1762.39 1085.65 1768.66 1054.79 1736.2C1023.93 1703.77 1001.26 1554.61 1001.26 1554.61L1001.26 1554.6Z" fill="white"/>
<path d="M1246.42 1637.71C1246.4 1637.47 1246.39 1637.18 1246.38 1636.92C1246.35 1636.41 1246.33 1635.9 1246.31 1635.33C1246.3 1635 1246.29 1634.64 1246.28 1634.3C1246.27 1633.75 1246.26 1633.22 1246.25 1632.64C1246.25 1632.25 1246.25 1631.84 1246.25 1631.43C1246.25 1630.85 1246.25 1630.26 1246.25 1629.64C1246.25 1629.2 1246.25 1628.73 1246.25 1628.27C1246.25 1627.63 1246.26 1626.99 1246.26 1626.32C1246.26 1625.86 1246.28 1625.36 1246.29 1624.88C1246.3 1624.16 1246.32 1623.43 1246.34 1622.69C1246.35 1622.2 1246.36 1621.7 1246.38 1621.21C1246.4 1620.41 1246.43 1619.58 1246.45 1618.74C1246.46 1618.26 1246.47 1617.76 1246.49 1617.27C1246.52 1616.35 1246.55 1615.41 1246.59 1614.46C1246.61 1614 1246.62 1613.54 1246.64 1613.08C1246.67 1611.96 1246.72 1610.82 1246.77 1609.65C1246.78 1609.35 1246.79 1609.06 1246.81 1608.75C1246.86 1607.3 1246.93 1605.83 1247 1604.31C1247 1604.25 1247 1604.19 1247 1604.13C1248.45 1571.17 1251.5 1521.35 1251.95 1466.16C1252.74 1370.32 1245.68 1258.35 1208.72 1190.53C1200.05 1174.59 1189.12 1161.06 1176.69 1149.54H1176.62C1174.43 1147.51 1172.21 1145.52 1169.92 1143.63L1169.7 1148.85L995.96 1131.47L961.189 1292.27C961.189 1292.27 934.074 1458.96 1158.26 1474.02C1159.12 1474.08 1159.95 1474.1 1160.8 1474.15C1164.21 1537.09 1171.05 1635 1181.34 1653.45C1196.75 1681.06 1219.33 1738.77 1131.5 1750.07C1121.96 1751.3 1115.31 1752.92 1111.03 1754.85C1114.93 1755.3 1118.95 1755.69 1123.04 1756C1123.09 1756 1123.14 1756 1123.2 1756.01C1127.28 1756.32 1131.45 1756.56 1135.66 1756.72C1135.68 1756.72 1135.7 1756.72 1135.72 1756.72C1142.03 1756.97 1148.45 1757.07 1154.89 1757C1155.01 1757 1155.12 1757 1155.24 1757C1159.46 1756.95 1163.7 1756.85 1167.93 1756.67C1168.1 1756.67 1168.26 1756.65 1168.44 1756.65C1172.66 1756.47 1176.86 1756.22 1181.03 1755.9C1181.15 1755.9 1181.27 1755.89 1181.4 1755.88C1183.33 1755.73 1185.25 1755.56 1187.16 1755.39C1187.38 1755.37 1187.59 1755.35 1187.81 1755.33C1191.81 1754.96 1195.76 1754.52 1199.65 1754.02C1199.97 1753.98 1200.28 1753.93 1200.61 1753.9C1204.43 1753.39 1208.18 1752.84 1211.84 1752.21C1212.16 1752.15 1212.48 1752.1 1212.81 1752.04C1214.37 1751.77 1215.92 1751.49 1217.46 1751.19C1217.73 1751.13 1218.02 1751.09 1218.3 1751.03C1220.06 1750.69 1221.78 1750.33 1223.48 1749.96C1223.71 1749.91 1223.94 1749.86 1224.18 1749.81C1225.63 1749.49 1227.06 1749.15 1228.46 1748.81C1228.84 1748.71 1229.22 1748.63 1229.59 1748.53C1232.78 1747.73 1235.86 1746.89 1238.79 1745.97C1239.15 1745.86 1239.51 1745.74 1239.87 1745.63C1241.09 1745.24 1242.28 1744.85 1243.46 1744.44C1243.69 1744.35 1243.94 1744.28 1244.18 1744.19C1245.53 1743.7 1246.86 1743.21 1248.13 1742.7C1248.43 1742.59 1248.7 1742.47 1249 1742.35C1250.02 1741.93 1251.01 1741.51 1251.97 1741.08C1252.27 1740.94 1252.59 1740.8 1252.88 1740.67C1254.06 1740.12 1255.19 1739.57 1256.27 1739C1256.41 1738.92 1256.53 1738.86 1256.67 1738.78C1257.62 1738.28 1258.53 1737.76 1259.4 1737.23C1259.67 1737.07 1259.94 1736.9 1260.21 1736.73C1261.06 1736.2 1261.87 1735.66 1262.65 1735.11C1262.76 1735.03 1262.88 1734.95 1263 1734.87C1263.86 1734.24 1264.66 1733.6 1265.41 1732.95C1265.61 1732.78 1265.8 1732.61 1265.99 1732.43C1266.57 1731.9 1267.12 1731.36 1267.64 1730.82C1267.79 1730.66 1267.96 1730.49 1268.11 1730.32C1268.73 1729.64 1269.29 1728.94 1269.8 1728.24C1269.9 1728.1 1269.98 1727.95 1270.08 1727.81C1270.48 1727.22 1270.84 1726.62 1271.15 1726.01C1271.26 1725.8 1271.37 1725.6 1271.46 1725.39C1271.82 1724.64 1272.13 1723.89 1272.36 1723.1C1283.04 1686.59 1250.66 1681.49 1246.57 1639.76C1246.51 1639.13 1246.46 1638.44 1246.41 1637.7L1246.42 1637.71Z" fill="#FFDBE4"/>
<path d="M994.77 1541.74C1028.8 1543.39 1064.58 1543.55 1099.13 1544.41C1106.31 1544.62 1107.58 1554.92 1100.71 1556.89C1082.99 1561.91 1064.95 1565.11 1046.69 1567.42C1027.67 1569.5 1008.52 1571.47 989.541 1566.24C974.817 1561.49 979.512 1540.14 994.77 1541.75V1541.74Z" fill="#4A0000"/>
<path d="M1150.83 1769.46C1106.31 1769.46 1062.29 1762.25 1045.72 1744.82C1016.85 1714.48 996.427 1602.6 990.465 1566.42C881.293 1557.71 800.151 1510.46 761.351 1432.69C724.855 1359.53 733.341 1267.37 783.503 1192.16C844.532 1100.66 966.531 1057.25 1080.22 1086.61C1146.73 1103.74 1193.67 1136.7 1219.72 1184.56C1275.09 1286.17 1265.67 1478.25 1260.61 1581.45C1259.27 1608.69 1258.22 1630.2 1259.04 1638.57C1260.58 1654.29 1266.74 1663.49 1273.26 1673.22C1281.99 1686.25 1291.88 1701.01 1284.39 1726.65C1279.86 1742.06 1261.92 1753.65 1231.08 1761.1C1209.12 1766.4 1179.86 1769.48 1150.84 1769.48L1150.83 1769.46ZM1008.23 1102.51C926.236 1102.51 847.941 1140.68 804.331 1206.05C758.455 1274.83 750.76 1355.37 783.75 1421.5C804.484 1463.08 860.417 1534.02 1001.97 1542.1C1007.88 1542.44 1012.74 1546.88 1013.64 1552.72C1022.52 1611.12 1043.23 1705.88 1063.86 1727.56C1080.91 1745.5 1168.35 1750.48 1225.19 1736.74C1250.84 1730.54 1259.41 1722.81 1260.35 1719.58C1264.56 1705.2 1260.26 1698.78 1252.46 1687.14C1245.25 1676.37 1236.26 1662.98 1234.1 1641C1233.1 1630.8 1234.09 1610.68 1235.59 1580.21C1240.53 1479.48 1249.73 1291.96 1197.72 1196.52C1175.12 1155 1133.48 1126.18 1073.96 1110.84C1052.18 1105.22 1030.06 1102.5 1008.23 1102.5V1102.51Z" fill="#4A0000"/>
<path d="M1054.99 1220.73C1018.95 1217.82 983.103 1212.54 947.741 1204.96C888.522 1192.27 828.493 1174.45 776.836 1141.98C688.874 1086.71 640.446 995.533 675.055 844.867C708.103 702.552 830.846 595.181 988.093 579.124C996.227 578.181 1004.48 577.629 1012.72 577.276C1037.65 576.038 1063.35 577.381 1089.48 581.076C1091.35 581.343 1093.03 581.581 1094.68 582C1112.21 584.667 1128.85 588.162 1145.14 592.743C1186.88 604.543 1224.56 622.238 1257.57 644.61C1359.87 714.276 1417.59 828.667 1414.63 949.343C1412.46 1037.9 1387.07 1132.14 1307.69 1181.76C1256.95 1213.48 1196.46 1222.11 1137.69 1223.28C1110.09 1223.82 1082.47 1222.96 1054.96 1220.73H1054.99Z" fill="white"/>
<path d="M1208.3 617.275C1200.96 613.665 1193.35 610.389 1185.7 607.304C1162.62 597.808 1137.94 590.494 1112.08 585.246C1110.23 584.875 1108.56 584.532 1106.87 584.38C1100.45 583.151 1094.11 582.113 1087.82 581.18C1101.88 584.961 1115.5 589.437 1128.49 594.78C1135.15 597.475 1141.78 600.323 1148.17 603.465C1272.57 662.38 1342.09 786.208 1327.82 912.627C1312.41 1046.35 1246.13 1107.11 1157.87 1126.89C1106.03 1138.51 1051.57 1135.68 999.276 1128.88C968.057 1124.82 937.095 1118.72 906.666 1110.64C883.438 1104.47 860.514 1097.13 838.019 1088.66C790.114 1070.61 742.981 1045.92 710.562 1005.14C674.781 960.132 667.533 904.713 674.771 850.237C654.209 927.818 653.514 1012.86 705.752 1078.56C742.99 1125.4 797.114 1153.75 852.124 1174.47C877.952 1184.21 904.276 1192.63 930.962 1199.71C965.905 1209 1001.46 1216 1037.31 1220.67C1097.37 1228.48 1159.9 1231.73 1219.44 1218.38C1320.81 1195.67 1396.9 1125.89 1414.61 972.323C1430.99 827.142 1351.16 684.942 1208.3 617.285V617.275Z" fill="#FFD6E0"/>
<path d="M1180.87 958.181C1182.67 959.733 1184.92 960.819 1187.46 961.181C1194.47 962.171 1200.97 957.295 1201.97 950.276C1203.81 937.41 1215.74 928.4 1228.62 930.219C1241.46 932.019 1250.47 944 1248.66 956.848C1247.66 963.867 1252.55 970.324 1259.58 971.352C1266.6 972.343 1273.09 967.467 1274.09 960.448C1277.86 933.552 1259.09 908.61 1232.21 904.8C1205.34 901.019 1180.37 919.781 1176.56 946.648C1175.92 951.143 1177.69 955.429 1180.88 958.181H1180.87Z" fill="#4A0000"/>
<path d="M895.703 917.895C897.503 919.448 899.76 920.524 902.293 920.886C909.312 921.876 915.808 917 916.808 909.981C917.684 903.752 920.931 898.219 925.951 894.429C930.998 890.657 937.208 889.057 943.436 889.933C949.646 890.8 955.16 894.076 958.96 899.105C962.741 904.124 964.341 910.324 963.455 916.543C962.446 923.581 967.36 930.057 974.36 931.067C981.379 932.057 987.874 927.181 988.874 920.162C990.731 907.143 987.389 894.181 979.484 883.657C971.532 873.191 960.084 866.352 947.036 864.514C934.027 862.676 921.046 866.01 910.541 873.914C900.017 881.819 893.208 893.343 891.379 906.371C890.75 910.857 892.522 915.143 895.712 917.895H895.703Z" fill="#4A0000"/>
<path d="M929.159 989.957C932.8 964.177 908.347 939.407 874.541 934.631C840.735 929.856 810.377 946.884 806.736 972.665C803.094 998.445 827.547 1023.22 861.354 1027.99C895.16 1032.77 925.517 1015.74 929.159 989.957Z" fill="#FC9DB7"/>
<path d="M662.579 841.971C697.074 693.41 827.36 582.648 986.636 566.381C995.065 565.4 1003.65 564.819 1012.12 564.467C1037.39 563.19 1064.05 564.505 1091.24 568.371C1093.62 568.686 1095.74 569.019 1096.65 569.314C1115.18 572.124 1132.18 575.752 1148.66 580.4C1190.84 592.305 1229.91 610.343 1264.82 634.01C1369.83 705.371 1430.56 823.476 1427.49 949.667C1425.52 1029.54 1404.32 1136.52 1314.53 1192.65C1269.48 1220.79 1213.38 1234.62 1137.99 1236.1C1110.05 1236.64 1081.78 1235.78 1053.96 1233.52C1017.5 1230.57 980.855 1225.19 945.065 1217.51C869.331 1201.29 815.35 1181.34 770.036 1152.85C757.084 1144.71 745.217 1135.98 734.379 1126.63C658.37 1061.03 634.198 965.486 662.579 841.962V841.971ZM1250.39 655.229C1217.8 633.133 1181.23 616.267 1141.7 605.095C1126.26 600.762 1110.26 597.352 1091.56 594.438C1090.36 594.133 1089.13 593.981 1087.72 593.79C1062.07 590.171 1037.06 588.914 1013.31 590.114C1005.37 590.448 997.436 590.981 989.417 591.895C840.893 607.067 719.589 709.914 687.589 847.762C657.474 978.857 688.75 1071.38 783.693 1131.12C826.369 1157.95 877.789 1176.84 950.436 1192.42C985.141 1199.86 1020.67 1205.08 1056.05 1207.94C1083 1210.12 1110.42 1210.97 1137.49 1210.45C1208.05 1209.05 1259.99 1196.47 1300.94 1170.89C1381.04 1120.82 1400.03 1022.61 1401.83 949.038C1404.38 845.048 1360.28 747.029 1282.32 679.743C1272.25 671.048 1261.59 662.867 1250.39 655.238V655.229Z" fill="#4A0000"/>
<path d="M1341.82 1048.25C1345.46 1022.47 1321 997.702 1287.2 992.927C1253.39 988.152 1223.03 1005.18 1219.39 1030.96C1215.75 1056.74 1240.2 1081.51 1274.01 1086.29C1307.82 1091.06 1338.17 1074.03 1341.82 1048.25Z" fill="#FC9DB7"/>
<path d="M1015.52 1004.47C1010.09 1042.91 1031.63 1077.75 1063.64 1082.27C1095.64 1086.79 1125.99 1059.29 1131.42 1020.83C1136.85 982.381 1111.21 976.552 1079.21 972.029C1047.21 967.505 1020.96 966.01 1015.52 1004.46V1004.47Z" fill="#4A0000"/>
<path d="M1075.92 1006.49C1086.57 1007.94 1096.04 1011.84 1103.51 1017.28C1112.04 1023.48 1113.8 1036.11 1106.58 1043.92C1095.99 1055.38 1081.64 1061.64 1066.88 1059.62C1052.66 1057.67 1041.06 1048.37 1034.09 1035.26C1029.7 1027 1032.81 1015.88 1041.24 1011.68C1050.95 1006.83 1063.1 1004.72 1075.92 1006.48V1006.49Z" fill="#FC9DB7"/>
<path d="M1114.8 935.511C1116.04 926.75 1104.37 917.859 1088.74 915.651C1073.11 913.444 1059.44 918.756 1058.2 927.516C1056.96 936.276 1068.63 945.167 1084.26 947.375C1099.89 949.582 1113.56 944.271 1114.8 935.511Z" fill="#4A0000"/>
<path d="M1267.84 1266.47C1267.06 1276.13 1265.7 1285.6 1263.77 1294.76C1260.9 1308.72 1256.77 1321.9 1251.41 1333.7C1217.74 1407.89 1130.32 1440.71 1056.13 1407.06C1017.66 1389.63 990.341 1357.76 977.608 1320.73V1320.7C974.274 1311.03 971.941 1301 970.674 1290.8C967.446 1264.73 971.141 1237.48 982.77 1211.81C989.903 1196.08 1000.33 1180.31 1013.04 1165.58C1020.13 1157.31 1028 1149.35 1036.37 1141.89C1083.4 1100.12 1147.36 1074.3 1196.95 1096.79C1218.58 1106.62 1235.11 1124.59 1246.78 1146.91C1250.87 1154.68 1254.38 1162.98 1257.27 1171.65C1267.14 1200.98 1270.5 1234.64 1267.84 1266.47Z" fill="#76F5FF"/>
<path d="M1257.26 1171.65C1245.7 1182.01 1231.73 1190.28 1216.24 1195.45C1177.01 1208.65 1137.07 1201.14 1110.48 1192.55C1100.82 1189.46 1091.42 1185.75 1082.32 1182.15C1071.89 1178.06 1062.03 1174.19 1051.86 1171.12C1037.49 1166.79 1024.49 1164.92 1013.03 1165.59C1020.12 1157.32 1027.99 1149.36 1036.36 1141.9C1043.63 1142.99 1051.19 1144.76 1059.09 1147.16C1070.26 1150.52 1081.06 1154.76 1091.49 1158.86C1100.63 1162.46 1109.29 1165.86 1118.19 1168.75C1141.19 1176.18 1175.48 1182.71 1208.28 1171.71C1223.51 1166.62 1236.82 1157.85 1246.78 1146.91C1250.87 1154.68 1254.38 1162.98 1257.27 1171.65H1257.26Z" fill="white"/>
<path d="M1267.84 1266.47C1267.06 1276.13 1265.7 1285.6 1263.77 1294.76C1241.77 1302.19 1218.51 1305.86 1195.21 1305.43C1171.25 1304.96 1147.91 1300.23 1125.31 1295.7C1116.75 1293.96 1107.88 1292.16 1099.22 1290.67C1073.79 1286.27 1040.86 1282.64 1011.92 1294.03C998.989 1299.12 986.227 1308.63 977.589 1320.7C974.255 1311.03 971.922 1301 970.655 1290.8C979.684 1282.47 990.55 1275.57 1002.75 1270.77C1037.48 1257.08 1074.85 1261.04 1103.5 1266.01C1112.5 1267.57 1121.53 1269.37 1130.26 1271.14C1152.73 1275.68 1173.99 1279.97 1195.66 1280.41C1220.39 1280.88 1245.08 1276.05 1267.82 1266.48L1267.84 1266.47Z" fill="white"/>
<path d="M1116.84 1432.77C1094.75 1432.77 1072.33 1428.18 1050.95 1418.48C970.598 1382.02 934.893 1286.98 971.36 1206.64C989.322 1167.07 1025.55 1128.35 1068.28 1103.09C1116.67 1074.47 1164.2 1068.19 1202.1 1085.39C1240.02 1102.59 1266.58 1142.5 1276.91 1197.75C1286.04 1246.54 1280.76 1299.3 1262.8 1338.88C1236.04 1397.84 1177.73 1432.76 1116.85 1432.76L1116.84 1432.77ZM1156.87 1101.09C1133.56 1101.09 1107.33 1109.08 1081.03 1124.63C1043.13 1147.04 1009.85 1182.43 994.17 1216.98C963.417 1284.75 993.531 1364.91 1061.3 1395.68C1129.09 1426.43 1209.25 1396.31 1240 1328.53C1255.67 1293.98 1260.39 1245.63 1252.3 1202.35C1243.65 1156.04 1221.58 1121.71 1191.76 1108.19C1181.28 1103.44 1169.5 1101.1 1156.87 1101.1V1101.09Z" fill="#4A0000"/>
<path d="M1277.14 1307.79C1244.8 1270.53 1171.44 1257.77 1112.89 1237.97C1112.89 1237.97 1105.66 1180.01 1075 1183.59C1049.39 1186.58 1050.09 1234.55 1050.09 1234.55C1050.09 1234.55 1005.4 1225.9 1005.4 1284.39C1005.4 1284.39 966.255 1367.64 1047.42 1398.92C1107.02 1421.9 1219.16 1443.84 1278.86 1410.25C1319.34 1387.48 1298.64 1332.55 1277.15 1307.79H1277.14Z" fill="white"/>
<path d="M1277.14 1307.79C1269.46 1298.95 1259.46 1291.5 1247.9 1284.99C1262.11 1312.3 1267.76 1349.62 1236.18 1367.38C1176.48 1400.96 1064.35 1379.03 1004.74 1356.06C1003.08 1355.42 1001.55 1354.72 999.998 1354.05C1006 1371.48 1019.67 1388.23 1047.41 1398.92C1107.01 1421.9 1219.15 1443.84 1278.85 1410.25C1319.33 1387.48 1298.63 1332.55 1277.14 1307.79Z" fill="#FFD4DF"/>
<path d="M1196.27 1439.97C1141.34 1439.97 1081.71 1425.55 1042.91 1410.6C1016.38 1400.37 998.427 1383.97 989.551 1361.86C975.931 1327.93 988.76 1291.78 992.903 1281.73C993.389 1259.36 999.998 1242.77 1012.59 1232.38C1021.19 1225.29 1030.68 1222.67 1038.28 1221.87C1038.75 1217.5 1039.51 1212.4 1040.78 1207.22C1047.48 1179.79 1062.29 1172.47 1073.54 1171.15C1084.26 1169.91 1104.13 1172.61 1117.05 1204.77C1120.56 1213.51 1122.72 1222.34 1123.95 1228.45C1135.61 1232.22 1147.93 1235.81 1159.9 1239.31C1208.87 1253.62 1259.51 1268.41 1286.58 1299.59C1303.06 1318.58 1318.51 1352.25 1313.47 1381.29C1310.47 1398.56 1300.62 1412.35 1284.96 1421.16C1260.86 1434.72 1229.41 1439.98 1196.25 1439.98L1196.27 1439.97ZM1044.21 1246.61C1040.24 1246.61 1033.64 1247.38 1028.37 1251.82C1019.73 1259.1 1017.92 1273.54 1017.92 1284.37C1017.92 1286.21 1017.51 1288.03 1016.73 1289.7C1016.59 1290 1001.19 1323.83 1012.85 1352.65C1019.05 1367.98 1032.19 1379.61 1051.92 1387.22C1084.92 1399.94 1126.94 1409.7 1164.31 1413.31C1210.94 1417.83 1248.42 1412.99 1272.71 1399.31C1281.85 1394.18 1287.11 1386.88 1288.83 1376.98C1292.27 1357.13 1280.5 1330.74 1267.69 1315.98C1245.45 1290.36 1198.4 1276.62 1152.9 1263.32C1138.23 1259.04 1123.06 1254.61 1108.88 1249.81C1104.34 1248.27 1101.06 1244.27 1100.47 1239.5C1098.66 1225.22 1090.09 1194.41 1076.46 1196.01C1066.38 1197.19 1062.47 1221.58 1062.63 1234.37C1062.66 1238.13 1061.02 1241.72 1058.13 1244.13C1055.25 1246.54 1051.44 1247.54 1047.73 1246.82C1047.73 1246.82 1046.35 1246.6 1044.22 1246.6L1044.21 1246.61Z" fill="#4A0000"/>
<path d="M971.531 1224.28V1224.3C981.398 1302.69 928.093 1375.84 849.427 1389.69C768.351 1403.92 691.046 1349.78 676.77 1268.68C676.16 1265.23 675.674 1261.7 675.284 1258.11C674.16 1247.74 673.931 1236.8 674.57 1225.61C675.331 1211.64 677.436 1197.32 680.789 1183.1C683.712 1170.65 687.598 1158.3 692.36 1146.44C711.674 1098.39 745.512 1058.27 789.789 1050.48C838.17 1041.95 888.008 1073.98 923.408 1118.46C932.674 1130.07 940.932 1142.55 947.941 1155.35C954.17 1166.84 959.417 1178.57 963.446 1190.23C966.503 1199.26 968.893 1208.25 970.436 1217.02C970.874 1219.45 971.236 1221.86 971.541 1224.27L971.531 1224.28Z" fill="#F8CB70"/>
<path d="M835.904 1326.93C853.068 1324.56 864.588 1305.28 861.636 1283.86C858.683 1262.45 842.376 1247.01 825.212 1249.37C808.048 1251.74 796.528 1271.02 799.481 1292.43C802.433 1313.85 818.741 1329.29 835.904 1326.93Z" fill="white"/>
<path d="M930.832 1295.59C937.962 1279.8 933.483 1262.37 920.827 1256.65C908.171 1250.94 892.132 1259.11 885.002 1274.9C877.872 1290.69 882.352 1308.12 895.007 1313.84C907.663 1319.55 923.703 1311.38 930.832 1295.59Z" fill="white"/>
<path d="M774.113 1330.32C784.751 1321.4 784.346 1303.4 773.209 1290.13C762.072 1276.86 744.42 1273.33 733.783 1282.26C723.146 1291.19 723.551 1309.18 734.688 1322.45C745.824 1335.73 763.476 1339.25 774.113 1330.32Z" fill="white"/>
<path d="M947.931 1155.36C853.217 1125.09 742.884 1158.19 680.779 1183.1C683.703 1170.66 687.589 1158.31 692.351 1146.45C705.141 1141.83 719.198 1137.19 734.227 1132.93C803.57 1113.18 867.97 1108.34 923.408 1118.46C932.674 1130.07 940.932 1142.55 947.941 1155.35L947.931 1155.36Z" fill="white"/>
<path d="M811.711 1099.64C818.201 1086.89 815.13 1072.31 804.852 1067.08C794.575 1061.85 780.982 1067.94 774.492 1080.69C768.003 1093.44 771.073 1108.01 781.351 1113.24C791.628 1118.48 805.221 1112.38 811.711 1099.64Z" fill="#FFE4AC"/>
<path d="M778.87 1180.8C782.984 1172.72 781.041 1163.48 774.53 1160.17C768.019 1156.85 759.406 1160.72 755.292 1168.8C751.178 1176.88 753.121 1186.12 759.632 1189.43C766.143 1192.75 774.756 1188.88 778.87 1180.8Z" fill="#FFE4AC"/>
<path d="M963.436 1190.24C902.874 1173.39 829.57 1176.36 749.732 1199.08C720.141 1207.53 694.341 1217.28 674.56 1225.62C673.912 1236.81 674.141 1247.74 675.274 1258.12C731.808 1233.04 863.303 1185.07 971.531 1224.28V1224.3L963.436 1190.23V1190.24Z" fill="white"/>
<path d="M823.531 1404.47C746.598 1404.47 678.227 1349.17 664.446 1270.84C649.951 1188.41 695.274 1054.38 787.608 1038.14C828.989 1030.86 873.903 1048.97 914.027 1089.13C949.465 1124.61 975.17 1171.61 982.77 1214.84C990.246 1257.35 980.722 1300.23 955.951 1335.58C931.179 1370.93 894.122 1394.51 851.608 1401.99C842.179 1403.65 832.789 1404.45 823.531 1404.45V1404.47ZM805.274 1061.67C800.751 1061.67 796.303 1062.05 791.941 1062.81C759.303 1068.55 729.017 1096.62 708.865 1139.81C690.036 1180.16 682.465 1228.71 689.112 1266.5C700.76 1332.7 758.531 1379.42 823.551 1379.43C831.379 1379.43 839.303 1378.75 847.274 1377.35C883.198 1371.03 914.512 1351.1 935.455 1321.23C956.389 1291.35 964.436 1255.11 958.122 1219.19C951.474 1181.39 927.789 1138.34 896.322 1106.84C867.131 1077.62 834.665 1061.67 805.284 1061.67H805.274Z" fill="#4A0000"/>
<path d="M723.684 1351.83C735.75 1319.82 710.446 1302.26 710.446 1302.26C712.055 1289.48 708.255 1265.21 688.96 1258.69C722.522 1213.32 669.255 1188.91 629.503 1219.11C544.446 1273.56 631.436 1422.71 764.398 1382.29C745.465 1372.42 727.817 1362.49 723.684 1351.84V1351.83Z" fill="white"/>
<path d="M720.008 1401.63C660.322 1401.63 613.151 1366.45 593.303 1323.43C572.598 1278.56 583.998 1233.64 622.331 1208.84C648.455 1189.25 683.084 1187.99 701.351 1206.03C711.341 1215.9 716.855 1233.14 706.284 1254.39C718.903 1265.26 723.36 1282.88 723.293 1296.8C733.312 1306.75 744.055 1325.68 737.331 1350.28C743.693 1357.38 761.817 1366.82 770.17 1371.17C774.684 1373.52 777.322 1378.37 776.855 1383.43C776.379 1388.5 772.893 1392.77 768.027 1394.25C751.37 1399.31 735.265 1401.62 719.998 1401.62L720.008 1401.63ZM666.674 1218.27C657.941 1218.27 647.351 1221.27 637.074 1229.08C636.808 1229.28 636.531 1229.47 636.255 1229.65C602.884 1251.02 603.931 1286.68 616.046 1312.93C637.665 1359.77 684.608 1378.49 728.951 1375.92C720.884 1370 714.846 1363.67 712.017 1356.35C710.903 1353.48 710.884 1350.3 711.979 1347.41C720.189 1325.63 704.97 1313.74 703.198 1312.47C699.512 1309.78 697.455 1305.22 698.027 1300.7C699.008 1292.96 697.065 1274.65 684.951 1270.55C681.16 1269.28 678.217 1266.26 677.017 1262.44C675.817 1258.62 676.522 1254.47 678.903 1251.25C683.046 1245.66 691.808 1231.78 683.77 1223.85C680.408 1220.52 674.236 1218.28 666.684 1218.28L666.674 1218.27Z" fill="#4A0000"/>
<path d="M1463.69 1241.6C1463.84 1252.69 1455.47 1260.24 1445.72 1264.04C1432.38 1269.24 1415.74 1269.79 1400.74 1269.1C1400.21 1269.08 1395.12 1269.21 1394.8 1268.7C1385.11 1253.34 1377.28 1234.54 1376.87 1217.55C1376.54 1203.48 1384.89 1186.99 1401.39 1187.66C1415.4 1188.23 1422.76 1203.58 1425.64 1214.88C1425.96 1216.14 1426.25 1217.43 1426.47 1218.7C1426.39 1218.2 1432.74 1217.4 1433.2 1217.35C1437.97 1216.81 1443.11 1217.04 1447.96 1218.8C1457.86 1222.41 1463.59 1232.27 1463.69 1241.6Z" fill="#FC9DB7"/>
<path d="M591.341 993.819C602.322 995.343 608.531 1004.74 610.827 1014.96C613.97 1028.93 612.017 1045.47 609.074 1060.19C608.979 1060.71 608.341 1065.76 607.789 1066.01C591.141 1073.28 571.379 1078.19 554.531 1076.05C540.57 1074.27 525.522 1063.52 528.655 1047.32C531.322 1033.56 547.608 1028.58 559.208 1027.44C560.512 1027.3 561.817 1027.22 563.112 1027.19C562.617 1027.2 562.779 1020.8 562.789 1020.34C562.97 1015.54 563.97 1010.5 566.436 1005.96C571.484 996.724 582.093 992.533 591.341 993.829V993.819Z" fill="#FC9DB7"/>
</g>
<defs>
<clipPath id="clip0_1267_737">
<rect width="2000" height="2000" fill="white" transform="translate(0.617188)"/>
</clipPath>
</defs>
</svg>
