<svg width="234" height="159" viewBox="0 0 234 159" fill="none" xmlns="http://www.w3.org/2000/svg">
<path d="M51 1.26445L62.44 27.837L62.5701 28.1393H62.8992H99.4542L70.013 44.2829L69.6144 44.5015L69.7941 44.9191L81.1187 71.2235L51.2404 54.8402L51 54.7084L50.7596 54.8402L20.8813 71.2235L32.2059 44.9191L32.3856 44.5015L31.987 44.2829L2.54579 28.1393H39.1007H39.4299L39.56 27.837L51 1.26445ZM139.094 87.4038L150.534 113.976L150.664 114.279H150.993H189.291L232.307 158H170.375L139.334 140.98L139.094 140.848L138.854 140.98L108.975 157.363L120.3 131.058L120.48 130.641L120.081 130.422L90.6398 114.279H127.195H127.524L127.654 113.976L139.094 87.4038Z" stroke="black"/>
</svg>
