<svg width="1244" height="1035" viewBox="0 0 1244 1035" fill="none" xmlns="http://www.w3.org/2000/svg">
<path d="M971.84 221.59C971.84 221.59 966.74 246.43 966.28 254.54C965.82 262.65 961.26 276.09 963.42 276.55C965.58 277.01 967.9 270.53 968.6 267.74C969.3 264.96 973 245.26 971.84 242.95C970.68 240.64 971.84 221.59 971.84 221.59Z" fill="#92B5C6"/>
<path d="M981.3 206.91C981.3 206.91 978.09 206.75 977.16 212.92C976.23 219.09 975.77 225.46 975.54 229.11C975.31 232.76 973.22 240.41 973.22 242.03C973.22 243.65 970.67 251.76 973.22 254.31C975.77 256.86 979.01 257.36 979.94 258.27C980.87 259.18 982.49 259.87 982.49 255.7C982.49 251.53 981.33 235.03 982.49 230.19C983.65 225.35 986.43 207.51 992.22 202.18C998.02 196.84 981.3 206.91 981.3 206.91Z" fill="#92B5C6"/>
<path d="M937.59 389.26C937.59 389.26 954.39 369.15 955.76 362.16C957.12 355.17 956.68 353.66 963.42 348.66C970.15 343.65 974.74 335.26 978.19 334.49C981.64 333.72 997.66 335.72 1001.17 339.09C1004.68 342.46 1004.23 350.57 1004.23 350.57L1018.85 345.6L1024.14 345.98L1027.2 344.07L1034.48 348.28L1044.4 354.41L1070.02 475.18L986.22 409.99L937.59 389.26Z" fill="#92B3C5"/>
<path d="M1044.41 224.05L996.1 195.09C996.1 195.09 977.76 215.35 984.45 244.57C991.13 273.8 994.69 277.13 998.66 276.58C1002.64 276.02 1004.49 261.95 1004.49 261.95C1004.49 261.95 1004.49 286.58 1008.21 289.84C1011.92 293.1 1015.26 283.08 1015.26 283.08C1015.26 283.08 1013.19 312.03 1017.75 311.29C1022.31 310.55 1023.43 293.47 1026.4 296.44C1029.37 299.41 1026.4 338.76 1026.4 338.76L1030.85 334.33C1030.85 334.33 1032.71 335.05 1036.79 336.91C1040.87 338.76 1042.75 339.13 1044.41 336.91C1046.07 334.68 1048.11 326.14 1050.25 328C1052.38 329.85 1055.35 335.31 1056.84 331.47C1058.32 327.62 1055.35 326.51 1058.32 327.62C1061.29 328.74 1063.24 320.65 1067.46 332.68C1071.69 344.7 1074.06 355.88 1081.34 356.58C1088.62 357.29 1088.62 352.5 1088.62 352.5C1087.28 344.7 1083.57 340.99 1083.57 338.39C1083.57 335.79 1087.59 333.19 1087.44 328.74C1087.28 324.28 1085.5 314.62 1088.62 320.19C1091.73 325.77 1093.7 329.69 1091.73 331.47C1089.76 333.24 1090.84 339.5 1093.89 343.22C1096.93 346.93 1098.79 350.27 1099.9 347.3C1101.01 344.33 1098.42 330.22 1102.87 336.53C1107.33 342.85 1106.21 346.19 1109.55 348.41C1112.89 350.64 1120.32 350.57 1120.32 350.57L1044.41 224.05ZM1066.27 299.95C1066.27 299.95 1061.94 288.66 1058.67 283.73C1055.39 278.81 1052.83 273.06 1051.65 272.44C1050.47 271.83 1047.18 272.24 1047.18 272.24C1047.18 272.24 1050.99 266.08 1051.65 262.8C1052.31 259.51 1053.13 264.44 1056.42 270.19C1059.7 275.93 1065.65 288.04 1066.27 292.15C1066.89 296.25 1066.27 299.95 1066.27 299.95Z" fill="#F5F9FA"/>
<path d="M1011.46 425.75C1011.46 425.75 1013.5 412.5 1018.86 412.91C1024.21 413.31 1029.09 412.15 1029.53 407.62C1029.97 403.09 1028.84 393.26 1032.24 391.94C1035.64 390.62 1036.95 391.69 1044.42 401.17C1051.89 410.64 1048.85 407.24 1058.68 414.04C1068.51 420.84 1083.02 436.62 1084.45 435.53C1085.88 434.44 1080.23 422.25 1084.45 419.33C1088.67 416.41 1090.64 408.19 1095.06 409.98C1099.48 411.77 1106.16 406.31 1104.62 408.28C1103.09 410.25 1102.12 427.6 1106.28 422.89C1110.43 418.19 1115.76 406.78 1119.71 404.74C1123.66 402.7 1134.08 422.89 1134.08 422.89C1134.08 422.89 1148.21 410.51 1148.96 406.23C1149.72 401.95 1148.96 381.17 1148.96 381.17H1187.46L1228.86 449.15L1206.37 484.31L1070.04 489.19L1011.46 425.75Z" fill="#52A3C0"/>
<path d="M998.66 374L1000.79 364.59L1011.46 369.3L1020.77 364.59L1028.65 358.06L1032.5 353.64L1037.3 350.57L1044.41 354.41L1061.55 435.19L1012.76 430.62L988.3 387.46L998.66 374Z" fill="#E9F1F5"/>
<path d="M1003.81 370.55L1036.15 373.11L1043.45 381.18L1052.37 391.94L1061.55 433.58L1016.16 416.86L996.75 391.94L1003.81 370.55Z" fill="#86AEC5"/>
<path d="M1012.32 388.99L1023.47 390.53L1028.27 383.42L1034.61 392.88L1045.52 394.49L1052.48 417.63L1056.86 437.8H1034.59L1000.98 413.78L1012.32 388.99Z" fill="#D1DFE8"/>
<path d="M59.3299 277.62C59.3299 277.62 69.7699 273.58 75.4999 273.58C81.2299 273.58 86.6099 271.22 89.3099 270.21C92.0099 269.2 110.87 239.9 111.88 239.9C112.89 239.9 117.61 257.08 126.03 253.37C134.45 249.66 128.05 247.98 134.45 249.67C140.85 251.35 150.95 261.12 168.8 241.92C186.65 222.72 197.43 212.28 200.8 212.95C204.17 213.62 234.14 245.59 239.2 245.27C244.26 244.95 248.63 249.66 254.36 251.68C260.09 253.7 260.09 254.04 262.78 254.37C265.47 254.71 266.48 252.01 270.86 255.04C275.24 258.07 284 262.79 298.14 253.02C312.29 243.25 324.07 232.47 324.07 232.47C324.07 232.47 328.45 234.15 329.8 233.82C331.15 233.49 350.68 212.91 350.68 212.91C350.68 212.91 375.6 243.25 395.81 253.02C416.02 262.79 414.67 261.1 414.67 261.1C414.67 261.1 418.37 258.74 421.07 261.1C423.76 263.46 430.84 271.88 433.87 272.21C436.9 272.55 455.09 254.36 456.77 247.96C458.45 241.56 467.88 269.18 473.27 271.2C478.66 273.22 483.04 283.66 483.04 283.66C483.04 283.66 486.74 280.63 496.18 283.66C505.61 286.69 516.05 295.11 534.24 283.66C541.4 287.45 546.03 289.49 546.03 289.49C546.03 289.49 555.12 280.29 556.13 275.24C557.14 270.19 560.85 278.94 563.2 278.61C565.56 278.27 568.59 272.55 572.97 272.21C574.3 269.98 587.12 242.91 593.18 241.56C599.24 240.21 598.23 243.92 598.23 243.92C598.23 243.92 616.42 224.39 620.46 220.34C624.5 216.29 671.32 248.3 679.4 253.01C687.48 257.73 693.21 262.44 695.23 262.44C697.25 262.44 705.67 262.1 709.04 262.78C712.41 263.46 720.83 263.79 720.83 265.14C720.83 266.49 708.37 269.52 711.74 271.54C715.11 273.56 725.21 280.3 727.23 280.3C729.25 280.3 731.95 273.56 737 274.91C742.05 276.26 747.44 289.39 752.16 294.11C756.88 298.83 767.32 293.77 773.72 297.81C780.12 301.85 806.39 317.01 818.52 321.72C830.65 326.44 833.34 332.5 837.72 334.18C842.1 335.86 842.77 341.59 842.77 341.59C842.77 341.59 869.71 349.34 883.86 357.08C898.01 364.83 910.8 361.46 910.8 361.46C910.8 361.46 934.38 390.43 951.89 392.78C969.4 395.14 974.12 385.47 974.12 385.47C974.12 385.47 1003.09 406.25 1005.11 414C1007.13 421.75 1022.62 429.49 1024.31 431.18C1025.99 432.86 1057.65 457.79 1057.65 457.79L1088.64 496.19V771L23.7899 874.02L59.3299 277.62Z" fill="url(#paint2_linear_108_3609)"/>
<path d="M305.62 236.44C305.62 236.44 302.18 257.09 300.55 260.17C298.92 263.25 295.48 271.95 298.74 272.13C302 272.31 304.18 266.88 305.62 270.68C307.07 274.48 302.4 281.22 305.09 282.83C307.79 284.44 322.46 291.69 322.46 291.69L352.17 252.74L350.18 208.35L328.08 212.92L305.62 236.44Z" fill="#95B4C6"/>
<path d="M333.7 250.03C333.7 250.03 333.88 254.02 331.53 256.19C329.17 258.36 322.64 263.42 319.21 268.33C315.79 273.24 313.23 278.29 313.23 278.29C313.23 278.29 308.88 288.44 313.23 292.96C317.58 297.49 327.72 292.24 331.53 286.98C335.33 281.73 337.38 260.01 336.63 257.55C335.87 255.1 333.7 250.03 333.7 250.03Z" fill="#B1BECB"/>
<path d="M59.8499 351.47C59.8499 351.47 70.3999 333.37 74.9999 329.99C79.5999 326.62 94.9399 306.98 105.68 301.15C116.42 295.32 119.79 283.66 119.79 283.66C119.79 283.66 124.09 290.1 132.98 292.25C141.88 294.4 147.09 295.93 149.24 295.93C151.39 295.93 148.36 289.92 159.91 292.12C171.46 294.31 172.25 296.85 177.46 294.4C182.68 291.95 185.74 289.62 190.96 288.33C196.18 287.04 199.86 274.46 199.86 274.46C199.86 274.46 196.18 281.21 199.86 283.36C203.54 285.51 204.46 280.29 213.36 281.83C222.26 283.36 229.31 283.98 236.37 285.2C243.43 286.43 245.57 282.44 252.02 284.59C258.46 286.74 255.7 284.28 267.67 291.34C279.64 298.4 282.09 296.86 289.15 296.25C296.21 295.64 301.73 285.51 308.79 279.07C315.85 272.63 318.3 271.09 322.29 271.09C326.28 271.09 314.01 282.44 322.29 282.44C330.57 282.44 324.74 269.55 329.35 269.25C333.95 268.94 336.41 263.73 336.1 260.05C335.79 256.37 341.32 252.07 342.54 250.85C343.76 249.63 342.54 239.5 342.54 239.5C342.54 239.5 346.53 241.95 348.06 235.82C349.59 229.68 350.68 212.94 350.68 212.94L443.18 216.49L497.49 251.77L543.82 266L546.04 289.53C546.04 289.53 516.01 309.32 494.53 303.8C502.86 299.46 482.83 292.92 482.83 292.92C482.83 292.92 462.51 302.39 459.14 302.39C459.14 302.39 445.64 304.54 443.8 304.54C441.96 304.54 420.48 318.65 420.48 318.65L229.63 420.59L51.6799 405.77L59.8499 351.47Z" fill="#CFC8CA"/>
<path d="M434.33 269.33C434.33 269.33 440.3 281.89 434.33 290.13C428.36 298.37 442.57 286.83 442.98 285.6C443.39 284.36 445.86 277.36 446.28 280.25C446.69 283.13 443.81 286.32 442.78 288.33C441.75 290.34 436.08 299.82 436.08 299.82C436.08 299.82 440.1 299 442.98 294.88C445.86 290.76 446.69 285.61 448.33 283.14C449.98 280.67 449.77 280.12 451.42 279.05C453.07 277.99 453.48 275.72 454.3 277.16C455.12 278.6 455.3 282.51 456.34 282.51C457.38 282.51 459.24 282.51 460.06 278.18C460.88 273.85 462.29 265.53 460.87 259.62C459.44 253.71 456.34 243.69 456.34 243.69L434.33 269.33Z" fill="#91B2C4"/>
<path d="M455.63 256.56C455.63 256.56 451.66 262.62 452.5 268.6C452.9 271.46 455.85 268.45 456.35 266.87C457.19 264.22 455.63 256.56 455.63 256.56Z" fill="#FEFEFD"/>
<path d="M148.76 343.77C148.76 343.77 165.17 291.18 175.66 298.48C186.15 305.78 190.32 320.25 195.47 323.87C200.63 327.49 201.32 332.85 199.19 333.46C197.06 334.07 189.53 330.02 184.95 322.67C180.37 315.32 176.72 309.1 172.24 316.34C167.76 323.58 154.19 343.47 148.76 343.77Z" fill="#9FB4C6"/>
<path d="M371.49 302.14C369.27 290.07 350.19 273.62 350.19 273.62C350.19 273.62 347.17 279.55 344.15 281.62C341.14 283.69 339.63 284.67 335.69 286.18C331.75 287.69 332.7 293.11 329.68 294.68C326.66 296.25 322.14 295.53 318.22 297.79C314.3 300.04 313.7 304.87 311.29 308.26C308.89 311.64 310.68 313.62 306.76 314.9C302.84 316.18 301.94 313.32 298.92 310.91C295.91 308.49 293.19 309.1 291.08 308.26C288.97 307.42 291.69 312.41 294.63 312.71C297.57 313.02 296.81 316.63 300.13 320.78C303.45 324.92 304.95 327.19 301.34 325.38C297.72 323.57 287.46 315.73 284.45 313.62C281.43 311.51 280.53 306.99 279.02 307.95C277.51 308.92 276.31 309.4 273.59 307.95C270.88 306.51 269.37 301.86 266.06 303.19C262.74 304.51 261.83 306.68 261.86 309.4C261.88 312.11 259.72 311.21 256.71 311.51C253.69 311.81 247.96 316.33 245.85 320.78C243.74 325.23 246.76 326.59 248.67 328.03C250.58 329.48 252.19 326.28 257.61 329.9C263.04 333.52 261.83 339.85 261.53 341.39C261.23 342.93 258.22 343.77 253.69 341.39C249.17 339.01 251.58 337.14 250.96 334.12C250.35 331.11 241.03 335.03 237.84 334.12C234.65 333.22 233.79 329 231.88 324.17C229.97 319.35 225.95 317.54 220.83 314.9C215.7 312.26 212.99 308.79 209.07 307.95C205.15 307.11 206.05 309.4 205.15 311.21C204.24 313.02 197.31 322.36 197.31 322.36L196.89 379.35L235.3 401.06C235.3 401.06 373.7 314.22 371.49 302.14ZM225.01 336.22V345.86C225.01 345.86 223.19 345.13 220.83 343.77C218.46 342.42 212.65 340.95 214.3 335.49C215.96 330.04 210.65 322.04 210.65 322.04L200.31 343.77L199.19 337.34L207.74 318.4C217.19 321.5 220.28 321.31 221.74 322.41C223.19 323.51 219.55 328.22 221.74 328.4C223.92 328.59 222.46 324.95 225.92 326.4C229.37 327.86 240.82 341.39 241.73 350.4C240.89 346.84 225.01 336.22 225.01 336.22ZM266.64 326.04C264.09 327.31 261.55 318.4 261.55 318.4L250.64 324.59C250.64 324.59 253.73 315.86 257.55 314.22L265.55 315.86C265.55 315.86 269.19 324.77 266.64 326.04Z" fill="#B2BDCD"/>
<path d="M549.1 276.23C549.1 276.23 540.01 298 536.98 304.89C533.95 311.78 524.58 322.25 524.58 322.25C524.58 322.25 540.01 302.96 541.39 306.27C542.77 309.58 538.36 316.19 535.05 319.5C531.74 322.81 515.49 337.41 513.83 339.06C512.18 340.71 519.34 338.51 521.82 336.3C524.3 334.1 522.65 335.75 527.61 333.54C532.57 331.34 532.57 330.23 534.77 327.75C536.97 325.27 540.83 317.55 544.97 315.35C549.1 313.15 551.58 307.36 553.79 304.6C555.99 301.84 557.79 298.81 559.65 297.44C561.51 296.07 562.89 293.86 562.89 296.34C562.89 298.82 564.41 300.78 559.65 307.93C554.89 315.08 551.86 319.49 552.69 323.07C553.52 326.65 555.72 323.07 557.65 321.14C559.58 319.21 561.78 314.83 564.81 307.93C567.84 301.03 568.67 298.82 573.08 294.41C577.49 290 579.97 286.14 581.9 283.11C583.83 280.08 584.38 278.43 587.14 276.22C589.9 274.02 591.82 272.09 592.65 267.95C593.48 263.82 594.85 257.75 596.23 253.35C597.61 248.94 598.43 249.22 598.71 241.5C598.99 233.78 592.1 226.9 583 237.09C573.91 247.29 564.54 277.87 562.88 280.08C561.22 282.29 561.92 287.19 559.64 288.32C557.36 289.45 556.58 288.02 556.14 284.74C555.71 281.46 554.88 274.29 554.88 272.09C554.88 269.89 549.1 276.23 549.1 276.23Z" fill="#91B2C4"/>
<path d="M589.42 301.11C589.42 301.11 587.07 302.87 589.42 306.68C591.77 310.49 593.82 304.04 594.7 301.11C595.58 298.18 593.23 292.31 594.7 290.55C596.17 288.79 596.56 284.68 598.71 283.51C600.86 282.34 602.85 278.86 602.85 278.86C602.85 278.86 612.64 240.17 612.18 229.14C611.71 218.11 607.02 218.53 607.02 218.53L584.44 296.72L589.42 301.11Z" fill="#A8BCCB"/>
<path d="M605.26 229.14C605.26 229.14 606.14 238.35 603.5 247.73C600.86 257.12 598.22 272.07 594.7 273.83C591.18 275.59 577.98 297.29 575.93 302.28C573.88 307.27 577.1 314.01 570.65 316.06C564.2 318.11 549.53 332.78 548.95 335.42C548.37 338.06 558.34 335.42 558.34 335.42C558.34 335.42 557.75 340.99 553.94 342.46C550.13 343.93 543.38 345.1 536.34 350.09C529.3 355.08 526.07 361.24 521.09 362.7C516.1 364.17 513.59 364.75 513.59 364.75C513.59 364.75 510.2 367.98 513.59 370.91C516.98 373.84 516.1 373.84 522.26 370.91C528.42 367.98 533.99 362.99 535.46 359.76C536.93 356.53 536.93 352.13 543.97 349.2C551.01 346.27 564.21 343.63 567.14 341.87C570.07 340.11 570.95 338.94 574.18 333.36C577.41 327.79 585.33 306.38 585.91 304.62C586.5 302.86 590.9 291.42 590.9 291.42L584.45 299.8C584.45 299.8 592.47 287.9 598.73 274.41C604.99 260.92 609.09 246.55 608.5 241.56C607.91 236.57 608.56 226.02 608.56 226.02L605.26 229.14Z" fill="#91B2C4"/>
<path d="M613.47 223.83C613.47 223.83 611.42 230.72 610.83 238.34C610.24 245.97 602.91 276.76 601.44 279.4C599.97 282.04 605.55 274.71 607.45 279.4C609.36 284.09 614.64 289.08 617.57 291.72C620.5 294.36 624.02 296.71 624.02 296.71C624.02 296.71 612.05 282.34 612.61 280.58C613.17 278.82 621.38 260.64 621.68 247.44C621.97 234.24 618.45 212.92 618.45 212.92C618.45 212.92 619.04 224.62 617.57 229.14C616.1 233.65 612.93 250.46 612.61 254.82C612.29 259.17 610.24 260.93 610.24 260.93C610.24 260.93 613.18 226.62 613.47 223.83Z" fill="#91B2C4"/>
<path d="M484.25 317.95C484.25 317.95 478.71 321.03 479.94 321.64C481.17 322.26 484.87 325.13 483.22 325.33C481.58 325.54 483.01 320.81 477.47 323.48C471.93 326.15 469.47 326.97 466.18 326.76C462.9 326.55 459.94 324.3 456.59 323.68C453.25 323.06 454.48 327.02 454.48 326.79C454.48 326.55 449.14 324.13 445.65 322.37C442.16 320.61 438.88 317.73 438.47 316.09C438.06 314.45 440.11 314.04 438.06 314.45C436.01 314.86 422.24 318.61 422.35 316.02C422.46 313.43 439.08 301.11 440.93 301.11C442.78 301.11 449.14 305.96 448.52 307.85C447.9 309.74 435.59 309.98 439.69 313.96C443.79 317.94 445.64 321.43 451.39 321.84C457.14 322.25 450.57 314.04 455.49 317.32C460.42 320.6 461.44 324.3 464.93 323.48C468.42 322.66 471.5 321.84 473.55 320.61C475.6 319.38 477.04 317.33 480.12 316.92C483.22 316.51 484.25 317.95 484.25 317.95Z" fill="#91B2C4"/>
<path d="M482.35 306.45C482.35 306.45 476.04 313.43 473.17 312.61C470.3 311.79 469.89 306.66 473.17 306.45C476.45 306.24 477.89 304.81 478.51 304.19C479.13 303.57 484.05 302.96 488.36 303.37C492.67 303.78 496.59 302.38 497.09 304.31C497.59 306.24 490.17 306.63 482.35 306.45Z" fill="#91B2C4"/>
<path d="M629 218.52C629 218.52 624.36 234.85 622.98 238.05C621.59 241.25 621.46 251.24 621.16 253.06C620.85 254.88 618.84 274.19 619.22 278.71C619.6 283.23 623.93 291.7 630.51 289.44C637.09 287.18 639.36 285.49 636.91 281.54C634.46 277.59 632.77 279.47 632.39 273.07C632.01 266.67 628.22 251.99 628.52 248.41C628.82 244.83 629.19 241.63 630.51 244.27C631.83 246.9 633.37 267.98 637.87 269.3C642.37 270.62 641.66 267.23 640.51 260.27C639.36 253.31 636.54 248.04 636.54 246.15C636.54 244.26 636.35 245.59 639.55 245.96C642.75 246.34 642.18 239.18 639.55 234.29C636.9 229.4 629 218.52 629 218.52Z" fill="#F5F9FA"/>
<path d="M643.3 224.88C643.3 224.88 640.48 243.32 643.3 249.72C646.12 256.12 645.75 268.73 650.08 273.62C654.41 278.51 659.11 283.97 662.31 286.61C665.51 289.24 670.4 294.7 670.4 291.69C670.4 288.68 666.45 274 666.45 274C666.45 274 674.73 280.96 678.68 283.03C682.63 285.1 687.53 288.86 685.83 282.28C684.14 275.69 680.75 271.93 680.75 271.93C680.75 271.93 711.43 291.5 716.89 295.08C722.35 298.66 723.85 299.22 727.62 301.29C731.38 303.36 730.63 305.43 733.45 305.81C736.27 306.19 738.34 303.18 736.46 300.73C734.58 298.28 732.88 299.41 730.06 298.47C727.24 297.53 724.6 294.89 723.1 292.64C721.6 290.39 720.09 290.42 715.76 288.33C711.43 286.24 710.3 284.55 711.81 284.55C713.32 284.55 718.4 284.74 721.41 286.81C724.42 288.88 725.74 292.83 731.57 295.28C737.4 297.73 737.22 296.41 743.99 300.55C750.77 304.69 751.52 306.76 758.67 307.89C765.82 309.02 762.06 311.65 772.79 313.16C783.52 314.67 786.53 315.42 791.8 315.23C797.07 315.04 801.02 315.42 800.83 309.96C800.64 304.5 735.9 241.26 735.9 241.26L643.3 224.88Z" fill="#F5F9FA"/>
<path d="M624.86 315.25C624.86 315.25 618.84 307.83 618.08 307.85C617.33 307.88 614.13 306.94 614.69 309.2C615.25 311.46 624.86 315.25 624.86 315.25Z" fill="#F5F9FA"/>
<path d="M652.52 326.14C652.52 326.14 651.01 323.51 647.06 322.19C643.11 320.87 642.17 320.5 637.08 319.18C632 317.86 630.12 315.04 629.36 316.17C628.61 317.3 627.93 317.68 630.43 319.93C632.93 322.18 633.69 323.51 636.51 324.26C639.35 325.01 649.7 327.08 652.52 326.14Z" fill="#F5F9FA"/>
<path d="M676.43 331.22C676.43 331.22 674.36 329.34 671.91 329.34C669.46 329.34 668.2 329.81 663.31 327.18C658.42 324.55 654.03 319.74 653.84 322.19C653.65 324.64 654.97 328.02 658.17 329.72C661.37 331.41 671.91 332.92 676.43 331.22Z" fill="#F5F9FA"/>
<path d="M690.35 322.75C690.35 322.75 687.34 318.84 685.46 315.9C683.58 312.96 679.81 309.57 677.56 309.57C675.3 309.57 674.93 315.03 676.43 318.23C677.94 321.43 681.51 322.75 683.96 322.75C686.41 322.75 690.35 322.75 690.35 322.75Z" fill="#F5F9FA"/>
<path d="M715.2 332.73C715.2 332.73 711.25 327.46 707.86 325.2C704.47 322.94 702.03 322.57 699.2 322.75C696.38 322.94 694.12 320.49 694.87 322.75C695.62 325.01 695.43 324.93 699.01 326.38C702.59 327.83 715.2 332.73 715.2 332.73Z" fill="#F5F9FA"/>
<path d="M713.32 327.26C713.32 327.26 722.92 329.34 728.75 329.34C734.58 329.34 742.11 331.79 744.37 333.86C746.63 335.93 741.74 335.93 740.23 335.55C738.72 335.17 733.83 334.61 733.83 334.61C733.83 334.61 739.48 337.43 738.72 338.56C737.97 339.69 735.33 338.75 732.7 337.05C730.07 335.36 713.32 327.26 713.32 327.26Z" fill="#F5F9FA"/>
<path d="M604.94 327.26L590.59 321.52L601.2 316.17C601.2 316.17 610.54 325.69 616.49 326.39C622.44 327.08 625.14 331.62 628.69 331.97C632.24 332.32 641.34 338.63 647.99 342.13C654.64 345.63 662.34 354.73 662.34 354.73V360.68C662.34 360.68 664.79 359.28 671.44 360.68C678.09 362.08 682.32 362.08 690.36 363.83C698.4 365.58 709.94 367.68 709.94 367.68C709.94 367.68 710.29 359.28 709.94 358.23C709.59 357.18 706.44 353.68 706.44 353.68C706.44 353.68 707.1 351.93 710.1 352.98C713.1 354.03 722.89 358.93 724.99 358.93C727.09 358.93 729.14 358.23 729.14 358.23C729.14 358.23 734.44 355.78 733.39 354.38C732.34 352.98 731.22 353.68 733.53 350.88C735.84 348.08 735.49 348.08 741.44 347.03C747.39 345.98 747.74 345.28 755.09 344.23C762.44 343.18 760.34 346.33 760.34 346.33C760.34 346.33 752.99 355.78 756.84 354.03C760.69 352.28 765.38 350.47 770.51 344.81C777.36 337.25 785.54 329.88 785.54 329.88C785.54 329.88 775.81 346.75 771.04 350.82C766.27 354.89 768.03 360.55 768.03 360.55L716.72 410L669.24 413.59L604.94 327.26Z" fill="#9DBFD2"/>
<path d="M810.12 335.64L823.63 350.24C823.63 350.24 824.02 341.78 827.3 345.26C830.57 348.74 829.14 361.42 829.35 362.17C829.55 362.92 833.03 359.46 834.46 357.94C835.89 356.42 843.05 343.01 843.05 343.01L844.28 333.17L832.62 331.35L819.73 330.53L813.8 332.78L810.12 335.64Z" fill="#F5F9FA"/>
<path d="M885.8 371.43L877.41 362.27L876.59 366.85L881.19 371.43C881.19 371.43 882.72 373.68 885.79 376.13C888.86 378.58 898.47 385.5 898.47 385.5C898.47 385.5 895.4 379.82 893.36 378.38C891.31 376.95 891.72 371.63 887.53 367.95C883.34 364.27 892.34 370.4 895 371.63C897.66 372.86 897.66 370.4 902.57 373.88C907.48 377.36 907.07 377.56 910.75 379.61C914.43 381.66 916.68 382.06 916.68 382.06L926.29 377.97L923.22 364.87L901.44 350.16L899.5 362.27C899.5 362.27 895.2 365.18 889.07 362.27C882.93 359.36 875.57 355.07 875.57 355.07L885.8 371.43Z" fill="#F5F9FA"/>
<path d="M713.1 378.29L699.52 385.5C699.52 385.5 693.2 385.08 694.37 387.42C695.54 389.76 698.35 388.59 702.1 387.42C705.85 386.25 716.15 381.8 713.1 378.29Z" fill="#F5F9FA"/>
<path d="M685.24 403.34C685.24 403.34 679.64 394.91 676.7 393.51C673.76 392.11 670.25 390.47 670.25 392.34C670.25 394.21 672.84 397.73 676.7 399.6C680.56 401.47 685.24 403.34 685.24 403.34Z" fill="#F5F9FA"/>
<path d="M968.26 782.56C968.26 782.56 962.94 766.69 962.94 761.23C962.94 757.94 959.28 744.86 955.9 740.84C952.52 736.82 943.49 724.74 941.26 722.59C939.03 720.44 930.88 713.71 924.98 708.81C938.2 718.59 946.26 715.81 946.26 715.81L944.23 711.48L948.46 713.22C948.46 713.22 941.9 704.8 938.66 704.89C935.42 704.98 932.08 702.47 932.08 702.47C932.08 702.47 933.58 705.44 931.97 705.89C930.36 706.34 921.82 699.02 922.17 696.76C922.52 694.5 922.52 694.5 922.52 694.5C922.52 694.5 928.54 702.42 937.61 702.31C946.68 702.21 943.86 702.14 943.86 702.14C943.86 702.14 955.17 712.84 957.72 712.96C960.28 713.07 961.24 714.07 961.24 714.07C961.24 714.07 953.24 717.13 950.85 715.17C948.46 713.21 958.84 731.3 961.12 743.08C963.39 754.87 963.6 754.25 964.7 758.92C965.81 763.6 965.8 767.73 968.26 782.56Z" fill="#92B5C6"/>
<path d="M976.95 789.9C976.95 789.9 971.08 768.15 970.36 761.02C969.64 753.89 964.67 742.18 966.81 741.71C968.96 741.24 971.48 746.89 972.26 749.32C973.04 751.75 977.37 769 976.28 771.07C975.19 773.14 976.95 789.9 976.95 789.9Z" fill="#92B5C6"/>
<path d="M986.87 802.57C986.87 802.57 983.67 802.8 982.55 797.39C981.43 791.98 980.77 786.38 980.42 783.17C980.07 779.96 977.75 773.28 977.7 771.85C977.65 770.42 974.85 763.35 977.31 761.03C979.77 758.71 983 758.18 983.9 757.36C984.8 756.53 986.4 755.88 986.53 759.55C986.66 763.22 986.02 777.79 987.33 782.03C988.64 786.26 991.98 801.9 997.93 806.44C1003.89 810.97 986.87 802.57 986.87 802.57Z" fill="#92B5C6"/>
<path d="M937.46 643.14C937.46 643.14 954.89 660.39 956.47 666.51C958.05 672.63 957.66 673.97 964.55 678.19C971.44 682.41 976.29 689.69 979.76 690.27C983.23 690.85 999.18 688.65 1002.58 685.59C1005.99 682.53 1005.28 675.39 1005.28 675.39L1020.05 679.36L1025.33 678.88L1028.45 680.48L1035.59 676.57L1045.31 670.9L1067.13 563.8L985.42 623.54L937.46 643.14Z" fill="#92B3C5"/>
<path d="M1121.31 672.17C1121.31 672.17 1113.88 672.31 1110.61 674.37C1107.34 676.42 1108.57 679.33 1104.31 685.02C1100.06 690.7 1102.21 678.2 1101 675.61C1099.8 673.02 1098.04 676.02 1095.12 679.37C1092.19 682.73 1091.31 688.28 1093.33 689.78C1095.35 691.29 1093.51 694.8 1090.58 699.8C1087.64 704.79 1089.11 696.23 1089.13 692.3C1089.14 688.38 1085.04 686.2 1084.96 683.91C1084.88 681.62 1088.47 678.25 1089.56 671.34C1089.56 671.34 1089.41 667.12 1082.16 667.95C1074.91 668.77 1072.89 678.68 1069.04 689.39C1065.2 700.1 1063 693.03 1060.06 694.1C1057.13 695.16 1060.06 694.1 1058.46 690.75C1056.85 687.41 1054.05 692.3 1051.98 693.99C1049.9 695.69 1047.59 688.22 1045.86 686.3C1044.13 684.39 1042.26 684.77 1038.24 686.51C1034.22 688.26 1032.38 688.95 1032.38 688.95L1027.79 685.17C1027.79 685.17 1031.99 719.75 1029.12 722.45C1026.24 725.15 1024.59 710.13 1020.01 709.61C1015.43 709.08 1018.41 734.53 1018.41 734.53C1018.41 734.53 1014.76 725.8 1011.15 728.77C1007.53 731.74 1008.31 753.44 1008.31 753.44C1008.31 753.44 1006.02 741.1 1002.02 740.71C998.03 740.34 994.58 743.37 988.82 769.3C983.05 795.23 1002.02 812.57 1002.02 812.57L1049.4 785.72L1121.31 672.17ZM1069.12 725.13C1068.63 728.77 1063.06 739.6 1059.96 744.75C1056.85 749.91 1056.19 754.27 1055.42 751.39C1054.66 748.52 1050.66 743.2 1050.66 743.2C1050.66 743.2 1053.96 743.47 1055.12 742.9C1056.28 742.32 1058.66 737.18 1061.78 732.76C1064.89 728.33 1068.87 718.26 1068.87 718.26C1068.87 718.26 1069.61 721.5 1069.12 725.13Z" fill="#F5F9FA"/>
<path d="M1010.14 608.95C1010.14 608.95 1012.6 620.56 1017.94 620.06C1023.28 619.56 1028.19 620.44 1028.77 624.42C1029.35 628.4 1028.53 637.09 1031.97 638.16C1035.41 639.23 1036.69 638.25 1043.85 629.7C1051.01 621.15 1048.09 624.23 1057.7 617.97C1067.31 611.71 1081.32 597.41 1082.79 598.33C1084.26 599.25 1078.99 610.14 1083.3 612.6C1087.61 615.06 1089.83 622.24 1094.2 620.54C1098.57 618.84 1105.41 623.46 1103.81 621.77C1102.22 620.08 1100.71 604.82 1105.01 608.85C1109.31 612.88 1114.99 622.78 1119 624.47C1123.01 626.16 1132.8 608.08 1132.8 608.08C1132.8 608.08 1147.31 618.6 1148.2 622.35C1149.09 626.1 1148.99 644.42 1148.99 644.42L1187.47 643.36L1226.72 582.33L1203.14 551.98L1066.72 551.45L1010.14 608.95Z" fill="#52A3C0"/>
<path d="M998.98 654.89L1001.4 663.12L1011.91 658.68L1021.37 662.57L1029.45 668.11L1033.43 671.9L1038.33 674.47L1045.32 670.89L1059.91 599.24L1011.29 604.62L988.2 643.32L998.98 654.89Z" fill="#E9F1F5"/>
<path d="M1004.23 657.79L1036.47 654.64L1043.52 647.33L1052.1 637.6L1059.97 600.67L1015.13 616.65L996.51 639.14L1004.23 657.79Z" fill="#86AEC5"/>
<path d="M1012.16 641.31L1023.25 639.64L1028.27 645.77L1034.32 637.27L1045.17 635.55L1051.4 614.97L1055.15 597.08L1032.89 597.69L1000.05 619.78L1012.16 641.31Z" fill="#D1DFE8"/>
<path d="M63.1299 765.77C63.1299 765.77 73.6899 769.04 79.4199 768.88C85.1399 768.72 90.5999 770.65 93.3299 771.47C96.0499 772.29 115.83 797.58 116.84 797.55C117.85 797.52 122.02 782.26 130.56 785.29C139.09 788.32 132.75 789.98 139.09 788.32C145.43 786.66 155.23 777.78 173.67 794.19C192.11 810.61 203.21 819.51 206.56 818.82C209.91 818.13 238.86 789.14 243.92 789.29C248.98 789.43 253.21 785.16 258.87 783.22C264.53 781.28 264.52 780.98 267.2 780.61C269.88 780.24 270.98 782.58 275.26 779.79C279.54 777 288.15 772.6 302.59 780.82C317.03 789.04 329.16 798.2 329.16 798.2C329.16 798.2 333.48 796.6 334.84 796.85C336.2 797.11 356.37 814.7 356.37 814.7C356.37 814.7 380.33 787.28 400.22 778.12C420.11 768.96 418.82 770.48 418.82 770.48C418.82 770.48 422.6 772.45 425.22 770.3C427.84 768.15 434.64 760.54 437.66 760.15C440.68 759.77 459.43 775.29 461.31 780.88C463.19 786.47 471.75 761.88 477.08 759.95C482.4 758.02 486.45 748.7 486.45 748.7C486.45 748.7 490.25 751.27 499.58 748.34C508.91 745.41 519.08 737.7 537.62 747.29C544.65 743.76 549.22 741.83 549.22 741.83C549.22 741.83 558.6 749.68 559.77 754.11C560.94 758.54 564.37 750.72 566.73 750.95C569.1 751.18 572.31 756.14 576.69 756.32C578.09 758.24 591.75 781.74 597.85 782.76C603.95 783.78 602.83 780.54 602.83 780.54C602.83 780.54 621.62 797.25 625.79 800.7C629.96 804.15 675.75 774.67 683.68 770.29C691.61 765.91 697.19 761.6 699.21 761.54C701.23 761.48 709.66 761.55 713 760.86C716.34 760.17 724.75 759.64 724.71 758.46C724.67 757.27 712.12 754.95 715.42 753.07C718.72 751.2 728.61 744.98 730.63 744.93C732.65 744.87 735.55 750.73 740.56 749.41C745.57 748.08 750.54 736.36 755.11 732.08C759.68 727.8 770.27 731.96 776.54 728.22C782.81 724.48 808.59 710.4 820.56 705.92C832.53 701.44 835.03 696.02 839.36 694.41C843.68 692.81 844.18 687.74 844.18 687.74C844.18 687.74 870.87 680.17 884.76 672.96C898.65 665.75 911.55 668.36 911.55 668.36C911.55 668.36 934.21 642.19 951.64 639.63C969.07 637.07 974.09 645.45 974.09 645.45C974.09 645.45 1002.39 626.34 1004.17 619.46C1005.95 612.58 1021.19 605.33 1022.82 603.8C1024.45 602.27 1055.31 579.44 1055.31 579.44L1085.08 544.76L1068.76 504.09L40.7199 465.65L63.1299 765.77Z" fill="url(#paint5_linear_108_3609)"/>
<path d="M310.59 795.24C310.59 795.24 306.5 777.14 304.78 774.47C303.05 771.8 299.34 764.24 302.59 763.99C305.84 763.74 308.19 768.47 309.52 765.08C310.85 761.69 305.97 755.88 308.61 754.39C311.26 752.89 325.7 746.1 325.7 746.1L356.62 779.59L356.02 818.75L333.79 815.34L310.59 795.24Z" fill="#95B4C6"/>
<path d="M338.23 782.49C338.23 782.49 338.29 778.97 335.86 777.12C333.44 775.27 326.74 771 323.17 766.77C319.59 762.54 316.88 758.16 316.88 758.16C316.88 758.16 312.22 749.34 316.42 745.23C320.62 741.12 330.93 745.47 334.9 749.99C338.87 754.51 341.6 773.59 340.92 775.77C340.24 777.96 338.23 782.49 338.23 782.49Z" fill="#B1BECB"/>
<path d="M61.3299 700.7C61.3299 700.7 72.4399 716.36 77.1399 719.2C81.8399 722.04 97.7899 738.92 108.71 743.76C119.63 748.6 123.36 758.78 123.36 758.78C123.36 758.78 127.45 752.99 136.28 750.85C145.11 748.71 150.27 747.22 152.42 747.16C154.57 747.1 151.73 752.48 163.21 750.22C174.69 747.96 175.39 745.71 180.68 747.73C185.97 749.75 189.11 751.71 194.36 752.71C199.61 753.7 203.69 764.68 203.69 764.68C203.69 764.68 199.8 758.84 203.41 756.84C207.02 754.85 208.11 759.42 216.95 757.82C225.79 756.22 232.83 755.49 239.84 754.21C246.85 752.93 249.13 756.39 255.5 754.32C261.87 752.25 259.19 754.49 270.93 747.94C282.67 741.39 285.17 742.68 292.24 743.02C299.31 743.36 305.15 752.13 312.41 757.61C319.67 763.09 322.17 764.37 326.15 764.26C330.14 764.15 317.51 754.49 325.79 754.26C334.07 754.03 328.65 765.54 333.26 765.69C337.87 765.84 340.49 770.36 340.3 773.61C340.11 776.86 345.76 780.49 347.03 781.54C348.3 782.59 347.39 791.54 347.39 791.54C347.39 791.54 351.3 789.27 353.03 794.63C354.76 799.99 356.36 814.71 356.36 814.71L448.7 809.03L501.87 776.45L547.73 762.63L549.21 741.84C549.21 741.84 518.57 725.23 497.28 730.69C505.74 734.28 485.93 740.6 485.93 740.6C485.93 740.6 465.32 732.82 461.95 732.91C461.95 732.91 448.39 731.39 446.55 731.44C444.71 731.49 422.8 719.65 422.8 719.65L228.86 635.11L51.4599 653.09L61.3299 700.7Z" fill="#CFC8CA"/>
<path d="M189.08 810.36C189.08 810.36 185.68 796.76 185.67 790.93C185.66 785.11 186.15 782.53 190.4 781.9C194.65 781.27 197.41 787.87 197.41 787.87C197.41 787.87 198.73 786.64 201.85 787.06C204.97 787.49 208.64 797.83 208.14 805.38C211.95 803.22 212.68 807.31 212.68 807.31C212.68 807.31 220.55 782.78 224.99 782.14C229.44 781.5 230.14 784.91 230.14 784.91C230.14 784.91 234.34 777.43 237.47 778.03C240.6 778.63 239.44 784.31 239.44 784.31C239.44 784.31 251.96 770.44 254.73 771.73C257.5 773.02 256.22 775.28 253.58 777.58C250.94 779.88 248.51 782.51 248.51 782.51C248.51 782.51 265.79 771.29 274.1 770.18C282.41 769.07 286.91 769.83 286.91 769.83C286.91 769.83 278.09 773.13 276.22 775.24C274.35 777.35 276.25 781.57 276.25 781.57L231.79 820.64L199.17 826.68L189.08 810.36Z" fill="#F5F9FA"/>
<path d="M356.02 818.74C356.02 818.74 356.68 801.63 359.21 801.56C361.75 801.49 362.77 804.91 362.77 804.91C362.77 804.91 365.66 789.4 368.29 786.77C370.92 784.14 371.37 771.35 374.15 768.08C376.93 764.81 380.35 764.07 380.35 764.07C380.35 764.07 378.6 775.94 380.73 774.6C382.86 773.26 387.65 765.46 389.41 763.82C391.16 762.17 392.31 763.9 393.03 763.72C393.75 763.54 395.89 767.79 395.89 767.79C395.89 767.79 386.14 773.81 387.92 778.08C389.7 782.34 395.95 769.55 395.95 769.55L396.9 775.75C396.9 775.75 407.02 764.61 409.18 764.39C411.35 764.17 413.18 764.6 413.18 764.6C413.18 764.6 414.44 759.13 416.8 759.23C419.16 759.32 419.78 761.54 419.1 762.68C418.42 763.82 416.13 765.87 416.13 765.87C416.13 765.87 429.91 755.67 433.15 755.1C436.39 754.53 439.25 753.33 439.67 754.92C440.09 756.51 434.85 767.19 434.85 767.19L356.02 818.74Z" fill="#F5F9FA"/>
<path d="M461.02 784.67C461.02 784.67 463.98 776.3 465.05 770.52C466.11 764.74 468.67 755.08 468.67 755.08C468.67 755.08 472.66 754.59 474.86 753.12C477.06 751.65 479.15 749.04 482.73 747.98C486.32 746.92 490.88 752.81 490.87 752.68C490.86 752.55 461.02 784.67 461.02 784.67Z" fill="#F5F9FA"/>
<path d="M716.95 699.09C716.95 699.09 713.16 703.84 709.85 705.93C706.53 708.01 704.1 708.41 701.27 708.32C698.44 708.23 696.26 710.45 696.94 708.44C697.62 706.43 697.44 706.51 700.96 705.13C704.48 703.75 716.95 699.09 716.95 699.09Z" fill="#F5F9FA"/>
<path d="M797.71 699.02C797.71 699.02 793.16 691.93 791.77 687.28C790.38 682.63 789.76 676.87 784.33 673.6C778.89 670.32 774.15 663.42 770.77 660.45C767.39 657.48 759.77 650.47 759.77 650.47C759.77 650.47 770.38 655.3 772.09 657.38C773.8 659.46 774.45 660.34 778.33 663.12C782.21 665.9 785.61 669.25 786.91 671.19C788.21 673.13 789.5 674.9 792.65 677.33C795.8 679.76 795.97 678.5 799.42 683.46C802.87 688.42 804.34 689.46 804.28 693.61C804.22 697.76 801.93 702.33 801.93 702.33L797.71 699.02Z" fill="#90B9CD"/>
<path d="M838.08 674.82C838.08 674.82 828.98 669.97 823.62 663.63C818.26 657.29 813.5 648.99 813.5 648.99L799.33 652.01L790.4 639.32C790.4 639.32 790.41 639.57 783.59 636.21C776.78 632.86 775.08 629.14 772.64 629.42C770.2 629.7 761.94 629.71 761.94 629.71L749.59 615.13C749.59 615.13 765.53 624.13 767.51 623.29C769.49 622.45 771.07 616.7 772.63 616.66C774.19 616.62 774.26 624.88 774.26 624.88L782.48 623.87L786.12 619.64C786.12 619.64 794.09 624.07 795.06 626.34C796.03 628.61 796.03 628.61 796.03 628.61C796.03 628.61 812.9 632.47 819.08 636.63C825.25 640.79 835.94 646.4 835.94 646.4C835.94 646.4 869.06 649.02 883 645.78C896.94 642.54 905.27 638.16 911.79 633.37C918.31 628.58 922.87 627.83 929.18 625.12C935.5 622.4 955.14 608.47 955.14 608.47C955.14 608.47 938.43 623.28 936.7 624.91C934.97 626.55 929.46 632.88 929.46 632.88L923.07 636.9C923.07 636.9 934.57 634.02 937.69 630.79C940.81 627.56 946.27 624.45 946.27 624.45C946.27 624.45 943.42 631.78 942.78 632.5C942.15 633.21 838.08 674.82 838.08 674.82Z" fill="#E4ECF2"/>
<path d="M825.27 647.36C823.89 647.37 815.39 645.54 813.54 643.93C811.7 642.32 805.35 639.45 803.32 638.97C801.29 638.48 798.53 636 796.29 635.87C794.05 635.74 787.96 633.83 787.01 632.34C786.06 630.85 784.84 625.68 790.15 626.47C795.45 627.27 802.02 630.13 802.02 630.13C802.02 630.13 818.54 636.32 820.36 637.46C822.18 638.6 828.7 642.45 830.55 643.46C832.41 644.47 839.77 647.25 825.27 647.36Z" fill="#F1F8FC"/>
</svg>
