<svg width="1244" height="1035" viewBox="0 0 1244 1035" fill="none" xmlns="http://www.w3.org/2000/svg">
<path d="M1220 0H60.9999V771H1220V0Z" fill="url(#paint0_linear_108_3609)"/>
<path d="M1054.6 284.74C1054.6 284.74 1072.72 264.97 1076.01 264.97C1079.3 264.97 1079.38 267.85 1088.61 270.32C1097.84 272.79 1106.07 280.2 1109.37 284.73C1112.66 289.26 1124.19 299.14 1124.19 299.14C1124.19 299.14 1151.37 278.96 1156.31 273.61C1161.25 268.26 1164.55 260.84 1166.19 262.08C1167.83 263.32 1179.37 276.49 1179.37 276.49L1183.08 273.2L1201.61 295.85L1212.73 289.26L1234.97 341.15L1131.2 521.93L1054.6 284.74Z" fill="#D7DFE5"/>
<path d="M1076.66 259.81C1076.66 259.81 1071.93 278.58 1076.66 282.13C1081.38 285.68 1084.86 288.23 1089.57 295.04C1094.28 301.84 1096.37 300.16 1099.51 299.95C1102.65 299.74 1104.74 297.3 1104.74 295.73C1104.74 294.16 1102.12 288.58 1104.04 289.37C1105.96 290.16 1108.23 291.2 1108.75 294.69C1109.27 298.18 1108.92 301.32 1112.06 301.84C1115.2 302.36 1115.72 305.15 1118.69 301.84C1121.65 298.53 1123.22 292.08 1123.22 289.37C1123.22 286.66 1076.66 259.81 1076.66 259.81Z" fill="#F5F9FA"/>
<path d="M1124.2 299.15L1105.79 334.32C1105.79 334.32 1107.85 340.21 1113.8 339.68C1119.75 339.15 1127.54 332.52 1130.62 328.86C1133.7 325.2 1120.44 341.07 1123.23 341.94C1126.02 342.81 1132.54 332.35 1134.07 337.23C1135.6 342.11 1129.85 346.65 1132.47 349.09C1135.09 351.53 1143.28 342.81 1146.77 347.52C1150.26 352.23 1150.43 354.78 1153.4 356.64C1156.36 358.5 1152.7 316.13 1155.84 307.75C1158.98 299.38 1159.33 293.11 1160.72 288.31C1162.11 283.51 1169.61 259.27 1169.79 258.22C1169.96 257.17 1135.96 280.83 1135.96 280.83L1124.2 299.15Z" fill="#B2C9DA"/>
<path d="M1166.2 262.09C1166.2 262.09 1158.97 272.19 1158.28 274.63C1157.58 277.07 1156.19 287.97 1152 293.6C1147.81 299.22 1143.68 307.88 1140.08 311.14C1136.48 314.4 1131.6 322.77 1131.95 327.48C1132.3 332.19 1125.67 339.34 1125.67 339.34L1137.79 335.15C1137.79 335.15 1145.45 320.5 1145.94 316.14C1146.43 311.78 1150.79 304.86 1151.66 303.44C1152.53 302.02 1155.85 294.48 1158.11 292.08C1160.37 289.68 1160.59 288.72 1160.37 289.68C1160.15 290.64 1156.36 305.33 1154.45 308.65C1152.53 311.96 1150.33 315.42 1147.82 320.51C1145.32 325.6 1140.83 331.79 1141.36 333.56C1141.89 335.33 1141.07 346.79 1142.61 349.17C1144.15 351.55 1150.78 342.48 1153.92 345.27C1157.06 348.06 1160.57 351.76 1163.34 354.16C1166.1 356.57 1174.26 358.02 1174.26 358.02L1182 349.8C1182 349.8 1165.08 355.55 1168.92 348.75C1172.76 341.95 1176.24 334.62 1177.81 331.14C1179.38 327.65 1182 323.64 1182 316.84C1182 310.04 1180.26 307.42 1182 304.63C1183.74 301.84 1183.92 301.49 1182 298.53C1180.08 295.57 1178.34 293.6 1178.34 293.6C1178.34 293.6 1182.35 303.23 1177.29 302.54C1172.23 301.85 1174.36 292.95 1174.25 292.25C1174.15 291.55 1172.23 289.37 1172.23 289.37C1172.23 289.37 1170.31 296.61 1169.09 296.78C1167.87 296.95 1166.13 294.34 1166.47 291.9C1166.82 289.46 1167.34 287.02 1168.56 285.97C1169.78 284.92 1170.83 281.78 1171.35 283.35C1171.87 284.92 1172.22 285.79 1172.92 285.44C1173.62 285.09 1172.4 278.29 1171.87 277.07C1171.35 275.85 1167.16 281.78 1165.77 283.7C1164.37 285.62 1165.77 288.59 1164.72 289.37C1163.67 290.15 1163.15 287.54 1163.15 287.54L1161.42 285.92L1166.2 262.09Z" fill="#97B7CA"/>
<path d="M1179.2 309.16C1179.2 309.16 1165.77 331.13 1165.25 333.4C1164.73 335.67 1162.81 347 1162.81 347C1162.81 347 1169.79 334.44 1171.88 329.39C1173.97 324.33 1179.2 309.16 1179.2 309.16Z" fill="url(#paint1_linear_108_3609)"/>
<path d="M817 319.33C817 319.33 842.12 307.8 845.83 304.92C849.54 302.04 851.6 281.45 857.36 282.27C863.12 283.09 868.48 284.69 871.36 282.25C874.24 279.8 874.65 275.27 878.36 275.69C882.07 276.1 887.01 267.45 889.48 270.75C891.95 274.04 895.25 282.28 896.89 282.28C898.54 282.28 900.18 286.81 904.71 285.57C909.24 284.33 912.53 270.48 915.42 270C918.3 269.51 915.01 277.34 919.54 272.81C924.07 268.28 932.31 250.57 934.36 248.51C936.42 246.45 953.71 237.39 956.6 234.51C959.49 231.63 971.84 211.86 981.31 206.92C990.78 201.98 998.61 203.21 1002.72 206.92C1006.84 210.63 1017.54 217.21 1017.54 217.21C1017.54 217.21 1032.78 244.8 1036.07 246.86C1039.36 248.92 1043.07 242.74 1045.54 246.45C1048.01 250.16 1055.42 260.59 1058.31 261.96C1061.19 263.33 1072.72 288.86 1076.43 292.57C1080.14 296.28 1094.55 314.81 1099.49 324.28C1104.43 333.75 1113.49 337.05 1115.96 352.28C1118.43 367.52 1156.73 391.01 1178.96 398.21C1201.2 405.4 1219.99 469.64 1219.99 469.64L1176.48 608.83L848.71 432.57L815.51 323.52L817 319.33Z" fill="#AAC1D1"/>
<path d="M848.92 272.86L850.71 309.44H856.09C856.09 309.44 860.75 308.01 861.83 305.85C862.91 303.69 866.13 298.32 866.13 298.32C866.13 298.32 871.87 291.9 874.74 289.37C877.61 286.84 882.63 276.8 882.63 276.8V270.35L848.92 272.86Z" fill="#91B6C8"/>
<path d="M845.7 299.75C845.7 299.75 846.06 310.87 842.83 312.3C839.6 313.73 838.89 320.19 838.89 320.19C838.89 320.19 841.4 315.17 844.27 314.81C847.14 314.45 844.99 308.36 848.93 309.97C852.87 311.58 857.07 305.13 857.84 296.88C858.61 288.63 859.32 288.14 854.66 291.5C850 294.86 849.36 297.05 848.92 298.39C848.49 299.73 845.7 299.75 845.7 299.75Z" fill="#F3FAF9"/>
<path d="M871.51 277.88H878.68C878.68 277.88 871.55 286.17 871.51 289.37C871.47 292.57 868.11 294.7 864.97 300.27C861.83 305.85 866.13 305.49 863.62 309.43C861.11 313.37 856.81 314.09 856.45 320.19C856.09 326.29 860.39 316.25 865.77 314.45C871.15 312.66 874.02 306.56 874.73 302.26C875.45 297.96 882.62 293.59 882.62 293.59L879.03 300C879.03 300 884.41 294.97 886.56 293.59C888.71 292.22 893.73 288.32 893.73 288.32L899.11 280.02L890.5 261.94L871.51 277.88Z" fill="#FDFDFC"/>
<path d="M902.71 270.35L893.75 288.33C893.75 288.33 892.67 295.45 889.45 298.68C886.23 301.91 877.79 313.02 877.79 313.02C877.79 313.02 879.77 332.74 869.01 347.44C858.25 362.14 886.58 320.19 891.96 318.75C897.34 317.32 899.79 319.83 905.2 316.6C910.61 313.37 913.48 310.45 913.48 310.45C913.48 310.45 911.33 315.52 916.35 313.73C921.37 311.94 924.96 305.84 926.75 302.26C928.54 298.68 934.72 287.92 940.06 285.05C945.4 282.18 947.19 283.26 950.06 274.65C952.93 266.04 954.36 254.1 955.08 246.63C955.8 239.15 955.08 229.11 955.08 229.11L902.71 270.35Z" fill="#92B5C7"/>
<path d="M963.42 230.19C963.42 230.19 958.67 248.36 958.86 254.54C958.98 258.27 955.78 273.22 952.55 277.88C949.32 282.54 940.72 296.53 938.56 299.04C936.4 301.55 928.5 309.44 922.78 315.18C935.65 303.67 943.8 306.57 943.8 306.57L941.93 311.55L946.1 309.44C946.1 309.44 939.84 319.19 936.6 319.19C933.36 319.19 930.11 322.14 930.11 322.14C930.11 322.14 931.5 318.73 929.88 318.27C928.26 317.81 919.98 326.38 920.41 328.93C920.84 331.48 920.84 331.48 920.84 331.48C920.84 331.48 926.57 322.31 935.64 322.15C944.71 321.98 941.89 322.15 941.89 322.15C941.89 322.15 952.81 309.66 955.36 309.45C957.91 309.24 958.84 308.08 958.84 308.08C958.84 308.08 950.73 304.86 948.41 307.15C946.09 309.45 955.82 288.61 957.68 275.17C959.54 261.73 959.77 262.43 960.69 257.1C961.64 251.76 961.49 247.08 963.42 230.19Z" fill="#92B5C6"/>
<path d="M971.84 221.59C971.84 221.59 966.74 246.43 966.28 254.54C965.82 262.65 961.26 276.09 963.42 276.55C965.58 277.01 967.9 270.53 968.6 267.74C969.3 264.96 973 245.26 971.84 242.95C970.68 240.64 971.84 221.59 971.84 221.59Z" fill="#92B5C6"/>
<path d="M981.3 206.91C981.3 206.91 978.09 206.75 977.16 212.92C976.23 219.09 975.77 225.46 975.54 229.11C975.31 232.76 973.22 240.41 973.22 242.03C973.22 243.65 970.67 251.76 973.22 254.31C975.77 256.86 979.01 257.36 979.94 258.27C980.87 259.18 982.49 259.87 982.49 255.7C982.49 251.53 981.33 235.03 982.49 230.19C983.65 225.35 986.43 207.51 992.22 202.18C998.02 196.84 981.3 206.91 981.3 206.91Z" fill="#92B5C6"/>
<path d="M937.59 389.26C937.59 389.26 954.39 369.15 955.76 362.16C957.12 355.17 956.68 353.66 963.42 348.66C970.15 343.65 974.74 335.26 978.19 334.49C981.64 333.72 997.66 335.72 1001.17 339.09C1004.68 342.46 1004.23 350.57 1004.23 350.57L1018.85 345.6L1024.14 345.98L1027.2 344.07L1034.48 348.28L1044.4 354.41L1070.02 475.18L986.22 409.99L937.59 389.26Z" fill="#92B3C5"/>
<path d="M1044.41 224.05L996.1 195.09C996.1 195.09 977.76 215.35 984.45 244.57C991.13 273.8 994.69 277.13 998.66 276.58C1002.64 276.02 1004.49 261.95 1004.49 261.95C1004.49 261.95 1004.49 286.58 1008.21 289.84C1011.92 293.1 1015.26 283.08 1015.26 283.08C1015.26 283.08 1013.19 312.03 1017.75 311.29C1022.31 310.55 1023.43 293.47 1026.4 296.44C1029.37 299.41 1026.4 338.76 1026.4 338.76L1030.85 334.33C1030.85 334.33 1032.71 335.05 1036.79 336.91C1040.87 338.76 1042.75 339.13 1044.41 336.91C1046.07 334.68 1048.11 326.14 1050.25 328C1052.38 329.85 1055.35 335.31 1056.84 331.47C1058.32 327.62 1055.35 326.51 1058.32 327.62C1061.29 328.74 1063.24 320.65 1067.46 332.68C1071.69 344.7 1074.06 355.88 1081.34 356.58C1088.62 357.29 1088.62 352.5 1088.62 352.5C1087.28 344.7 1083.57 340.99 1083.57 338.39C1083.57 335.79 1087.59 333.19 1087.44 328.74C1087.28 324.28 1085.5 314.62 1088.62 320.19C1091.73 325.77 1093.7 329.69 1091.73 331.47C1089.76 333.24 1090.84 339.5 1093.89 343.22C1096.93 346.93 1098.79 350.27 1099.9 347.3C1101.01 344.33 1098.42 330.22 1102.87 336.53C1107.33 342.85 1106.21 346.19 1109.55 348.41C1112.89 350.64 1120.32 350.57 1120.32 350.57L1044.41 224.05ZM1066.27 299.95C1066.27 299.95 1061.94 288.66 1058.67 283.73C1055.39 278.81 1052.83 273.06 1051.65 272.44C1050.47 271.83 1047.18 272.24 1047.18 272.24C1047.18 272.24 1050.99 266.08 1051.65 262.8C1052.31 259.51 1053.13 264.44 1056.42 270.19C1059.7 275.93 1065.65 288.04 1066.27 292.15C1066.89 296.25 1066.27 299.95 1066.27 299.95Z" fill="#F5F9FA"/>
<path d="M1011.46 425.75C1011.46 425.75 1013.5 412.5 1018.86 412.91C1024.21 413.31 1029.09 412.15 1029.53 407.62C1029.97 403.09 1028.84 393.26 1032.24 391.94C1035.64 390.62 1036.95 391.69 1044.42 401.17C1051.89 410.64 1048.85 407.24 1058.68 414.04C1068.51 420.84 1083.02 436.62 1084.45 435.53C1085.88 434.44 1080.23 422.25 1084.45 419.33C1088.67 416.41 1090.64 408.19 1095.06 409.98C1099.48 411.77 1106.16 406.31 1104.62 408.28C1103.09 410.25 1102.12 427.6 1106.28 422.89C1110.43 418.19 1115.76 406.78 1119.71 404.74C1123.66 402.7 1134.08 422.89 1134.08 422.89C1134.08 422.89 1148.21 410.51 1148.96 406.23C1149.72 401.95 1148.96 381.17 1148.96 381.17H1187.46L1228.86 449.15L1206.37 484.31L1070.04 489.19L1011.46 425.75Z" fill="#52A3C0"/>
<path d="M998.66 374L1000.79 364.59L1011.46 369.3L1020.77 364.59L1028.65 358.06L1032.5 353.64L1037.3 350.57L1044.41 354.41L1061.55 435.19L1012.76 430.62L988.3 387.46L998.66 374Z" fill="#E9F1F5"/>
<path d="M1003.81 370.55L1036.15 373.11L1043.45 381.18L1052.37 391.94L1061.55 433.58L1016.16 416.86L996.75 391.94L1003.81 370.55Z" fill="#86AEC5"/>
<path d="M1012.32 388.99L1023.47 390.53L1028.27 383.42L1034.61 392.88L1045.52 394.49L1052.48 417.63L1056.86 437.8H1034.59L1000.98 413.78L1012.32 388.99Z" fill="#D1DFE8"/>
<path d="M59.3299 277.62C59.3299 277.62 69.7699 273.58 75.4999 273.58C81.2299 273.58 86.6099 271.22 89.3099 270.21C92.0099 269.2 110.87 239.9 111.88 239.9C112.89 239.9 117.61 257.08 126.03 253.37C134.45 249.66 128.05 247.98 134.45 249.67C140.85 251.35 150.95 261.12 168.8 241.92C186.65 222.72 197.43 212.28 200.8 212.95C204.17 213.62 234.14 245.59 239.2 245.27C244.26 244.95 248.63 249.66 254.36 251.68C260.09 253.7 260.09 254.04 262.78 254.37C265.47 254.71 266.48 252.01 270.86 255.04C275.24 258.07 284 262.79 298.14 253.02C312.29 243.25 324.07 232.47 324.07 232.47C324.07 232.47 328.45 234.15 329.8 233.82C331.15 233.49 350.68 212.91 350.68 212.91C350.68 212.91 375.6 243.25 395.81 253.02C416.02 262.79 414.67 261.1 414.67 261.1C414.67 261.1 418.37 258.74 421.07 261.1C423.76 263.46 430.84 271.88 433.87 272.21C436.9 272.55 455.09 254.36 456.77 247.96C458.45 241.56 467.88 269.18 473.27 271.2C478.66 273.22 483.04 283.66 483.04 283.66C483.04 283.66 486.74 280.63 496.18 283.66C505.61 286.69 516.05 295.11 534.24 283.66C541.4 287.45 546.03 289.49 546.03 289.49C546.03 289.49 555.12 280.29 556.13 275.24C557.14 270.19 560.85 278.94 563.2 278.61C565.56 278.27 568.59 272.55 572.97 272.21C574.3 269.98 587.12 242.91 593.18 241.56C599.24 240.21 598.23 243.92 598.23 243.92C598.23 243.92 616.42 224.39 620.46 220.34C624.5 216.29 671.32 248.3 679.4 253.01C687.48 257.73 693.21 262.44 695.23 262.44C697.25 262.44 705.67 262.1 709.04 262.78C712.41 263.46 720.83 263.79 720.83 265.14C720.83 266.49 708.37 269.52 711.74 271.54C715.11 273.56 725.21 280.3 727.23 280.3C729.25 280.3 731.95 273.56 737 274.91C742.05 276.26 747.44 289.39 752.16 294.11C756.88 298.83 767.32 293.77 773.72 297.81C780.12 301.85 806.39 317.01 818.52 321.72C830.65 326.44 833.34 332.5 837.72 334.18C842.1 335.86 842.77 341.59 842.77 341.59C842.77 341.59 869.71 349.34 883.86 357.08C898.01 364.83 910.8 361.46 910.8 361.46C910.8 361.46 934.38 390.43 951.89 392.78C969.4 395.14 974.12 385.47 974.12 385.47C974.12 385.47 1003.09 406.25 1005.11 414C1007.13 421.75 1022.62 429.49 1024.31 431.18C1025.99 432.86 1057.65 457.79 1057.65 457.79L1088.64 496.19V771L23.7899 874.02L59.3299 277.62Z" fill="url(#paint2_linear_108_3609)"/>
<path d="M305.62 236.44C305.62 236.44 302.18 257.09 300.55 260.17C298.92 263.25 295.48 271.95 298.74 272.13C302 272.31 304.18 266.88 305.62 270.68C307.07 274.48 302.4 281.22 305.09 282.83C307.79 284.44 322.46 291.69 322.46 291.69L352.17 252.74L350.18 208.35L328.08 212.92L305.62 236.44Z" fill="#95B4C6"/>
<path d="M333.7 250.03C333.7 250.03 333.88 254.02 331.53 256.19C329.17 258.36 322.64 263.42 319.21 268.33C315.79 273.24 313.23 278.29 313.23 278.29C313.23 278.29 308.88 288.44 313.23 292.96C317.58 297.49 327.72 292.24 331.53 286.98C335.33 281.73 337.38 260.01 336.63 257.55C335.87 255.1 333.7 250.03 333.7 250.03Z" fill="#B1BECB"/>
<path d="M59.8499 351.47C59.8499 351.47 70.3999 333.37 74.9999 329.99C79.5999 326.62 94.9399 306.98 105.68 301.15C116.42 295.32 119.79 283.66 119.79 283.66C119.79 283.66 124.09 290.1 132.98 292.25C141.88 294.4 147.09 295.93 149.24 295.93C151.39 295.93 148.36 289.92 159.91 292.12C171.46 294.31 172.25 296.85 177.46 294.4C182.68 291.95 185.74 289.62 190.96 288.33C196.18 287.04 199.86 274.46 199.86 274.46C199.86 274.46 196.18 281.21 199.86 283.36C203.54 285.51 204.46 280.29 213.36 281.83C222.26 283.36 229.31 283.98 236.37 285.2C243.43 286.43 245.57 282.44 252.02 284.59C258.46 286.74 255.7 284.28 267.67 291.34C279.64 298.4 282.09 296.86 289.15 296.25C296.21 295.64 301.73 285.51 308.79 279.07C315.85 272.63 318.3 271.09 322.29 271.09C326.28 271.09 314.01 282.44 322.29 282.44C330.57 282.44 324.74 269.55 329.35 269.25C333.95 268.94 336.41 263.73 336.1 260.05C335.79 256.37 341.32 252.07 342.54 250.85C343.76 249.63 342.54 239.5 342.54 239.5C342.54 239.5 346.53 241.95 348.06 235.82C349.59 229.68 350.68 212.94 350.68 212.94L443.18 216.49L497.49 251.77L543.82 266L546.04 289.53C546.04 289.53 516.01 309.32 494.53 303.8C502.86 299.46 482.83 292.92 482.83 292.92C482.83 292.92 462.51 302.39 459.14 302.39C459.14 302.39 445.64 304.54 443.8 304.54C441.96 304.54 420.48 318.65 420.48 318.65L229.63 420.59L51.6799 405.77L59.8499 351.47Z" fill="#CFC8CA"/>
<path d="M183.63 223.1C183.63 223.1 180.72 238.63 180.91 245.24C181.1 251.84 181.69 254.75 185.96 255.34C190.23 255.93 192.76 248.35 192.76 248.35C192.76 248.35 194.12 249.71 197.23 249.13C200.34 248.55 203.64 236.7 202.86 228.16C206.74 230.49 207.33 225.83 207.33 225.83C207.33 225.83 216.07 253.4 220.53 253.99C225 254.57 225.58 250.69 225.58 250.69C225.58 250.69 230.05 259.04 233.15 258.26C236.26 257.48 234.9 251.08 234.9 251.08C234.9 251.08 247.91 266.42 250.63 264.87C253.35 263.32 251.99 260.79 249.27 258.27C246.55 255.75 244.03 252.83 244.03 252.83C244.03 252.83 261.7 265.01 270.05 266.01C278.4 267.01 282.87 266.01 282.87 266.01C282.87 266.01 273.94 262.54 272 260.21C270.06 257.88 271.81 253.03 271.81 253.03L225.99 210.12L193.17 204.29L183.63 223.1Z" fill="#F5F9FA"/>
<path d="M350.19 208.36C350.19 208.36 351.46 227.75 353.99 227.75C356.52 227.75 357.43 223.84 357.43 223.84C357.43 223.84 360.87 241.34 363.59 244.24C366.31 247.14 367.21 261.63 370.11 265.26C373.01 268.89 376.45 269.61 376.45 269.61C376.45 269.61 374.28 256.2 376.45 257.65C378.62 259.1 383.7 267.8 385.51 269.61C387.32 271.42 388.41 269.43 389.13 269.61C389.85 269.79 391.85 264.9 391.85 264.9C391.85 264.9 381.89 258.38 383.52 253.49C385.15 248.6 391.85 262.91 391.85 262.91L392.57 255.84C392.57 255.84 403.08 268.16 405.25 268.34C407.42 268.52 409.24 267.98 409.24 267.98C409.24 267.98 410.69 274.14 413.04 273.96C415.39 273.78 415.94 271.24 415.21 269.97C414.48 268.7 412.13 266.45 412.13 266.45C412.13 266.45 426.26 277.58 429.52 278.13C432.78 278.67 435.68 279.94 436.04 278.13C436.4 276.32 430.79 264.36 430.79 264.36L350.19 208.36Z" fill="#F5F9FA"/>
<path d="M456.35 243.7C456.35 243.7 459.61 253.1 460.88 259.63C462.15 266.15 465.05 277.02 465.05 277.02C465.05 277.02 469.06 277.45 471.31 279.05C473.56 280.65 475.74 283.55 479.36 284.63C482.98 285.72 487.33 278.9 487.33 279.05C487.33 279.19 456.35 243.7 456.35 243.7Z" fill="#F5F9FA"/>
<path d="M57.7799 331.55C57.7799 331.55 57.5999 326.48 61.7699 325.39C65.9399 324.3 62.3099 310.35 67.0199 309.99C71.7299 309.63 71.0099 319.41 71.0099 319.41C71.0099 319.41 73.1799 321.22 75.1799 312.34C77.1699 303.46 82.6099 287.7 83.4199 285.53C84.2299 283.36 77.8899 285.35 78.0699 281.91C78.2499 278.47 79.8799 277.02 81.6899 278.11C83.4999 279.2 82.7999 281.55 84.6899 280.47C86.5799 279.38 88.9399 273.59 92.1999 273.4C95.4599 273.22 86.5799 281.91 87.8499 284.63C89.1199 287.35 100.35 267.6 101.08 262.71C101.81 257.82 101.99 286.26 96.0099 292.97C90.0299 299.67 95.4699 302.39 98.9099 295.87C102.35 289.35 103.62 267.99 103.62 266.44C103.62 264.89 107.64 264.67 106.99 262.15C106.34 259.63 104.53 253.11 105.98 252.75C107.43 252.39 109.06 259.86 108.7 266C108.34 272.14 108.7 287.9 103.08 294.97C97.4599 302.04 107.53 294.97 108.75 285.55C109.97 276.13 111.05 245.51 111.05 245.51C111.05 245.51 112.32 245.33 114.13 249.31C115.94 253.29 114.85 285.54 112.68 286.99C110.51 288.44 114.33 288.98 115.04 286.81C115.76 284.64 116.3 254.92 116.3 253.66C116.3 252.4 118.29 252.75 119.74 255.65C121.19 258.55 119.02 267.61 119.74 267.61C120.46 267.61 120.28 255.65 121.55 255.65C122.82 255.65 125.76 256.09 126.62 254.38C127.48 252.67 121.73 266.88 121.73 269.42C121.73 271.96 119.79 283.67 119.79 283.67L114.49 301.12L59.8499 351.47L57.7799 331.55Z" fill="#97B5C7"/>
<path d="M180.91 257.82C180.91 257.82 182.97 256.01 182.61 257.82C182.25 259.63 174.93 273.04 173.06 273.58C171.19 274.12 170.11 269.78 172.1 267.6C174.09 265.42 180.91 257.82 180.91 257.82Z" fill="#B2BDCD"/>
<path d="M195.47 260.35C195.47 260.35 192.57 264.92 190.76 265.99C188.95 267.06 187.32 271.59 188.95 271.95C190.58 272.31 192.75 270.68 193.48 269.41C194.2 268.14 195.47 260.35 195.47 260.35Z" fill="#B2BDCD"/>
<path d="M206.34 270.5C206.34 270.5 208.7 262.35 213.77 263.62C218.84 264.89 225.63 271.32 227.67 273.63C229.71 275.94 227.54 281.37 225.36 280.83C223.19 280.29 217.57 270.77 216.3 272.18C215.03 273.59 213.4 276.49 212.13 276.49C210.86 276.49 205.97 278.92 203.62 280.88C201.26 282.83 199.82 280.55 200.18 279.06C200.54 277.58 200.36 272.43 201.81 272.01C203.26 271.6 205.25 270.51 205.25 270.51H206.34V270.5Z" fill="#99B5C6"/>
<path d="M331.52 230.28L332.43 241.51C332.43 241.51 338.23 234.44 338.95 231.18C339.67 227.92 339.86 219.95 339.86 219.95L331.52 230.28Z" fill="#B1BECB"/>
<path d="M65.8699 347.8C65.8699 347.8 83.8099 328.03 92.2399 323.5C100.67 318.97 106.24 317.73 109.12 316.09C112 314.44 115.71 309.71 115.71 309.71C115.71 309.71 109.94 310.53 108.3 312.39C106.66 314.25 105.21 308.27 101.92 308.27C98.6299 308.27 99.0399 312.8 99.0399 312.8C99.0399 312.8 97.7999 308.68 96.1599 310.33C94.5099 311.98 95.9499 314.66 94.7199 315.89C93.4699 317.11 70.7399 338.33 65.8699 347.8Z" fill="#B2BDCD"/>
<path d="M136.1 305.58C136.1 305.58 142.69 304.76 146.81 301.46C150.93 298.16 155.8 297.37 156.42 299.94C157.04 302.51 149.21 305.58 146.26 307.43C143.31 309.28 136.1 305.58 136.1 305.58Z" fill="#B2BDCD"/>
<path d="M434.33 269.33C434.33 269.33 440.3 281.89 434.33 290.13C428.36 298.37 442.57 286.83 442.98 285.6C443.39 284.36 445.86 277.36 446.28 280.25C446.69 283.13 443.81 286.32 442.78 288.33C441.75 290.34 436.08 299.82 436.08 299.82C436.08 299.82 440.1 299 442.98 294.88C445.86 290.76 446.69 285.61 448.33 283.14C449.98 280.67 449.77 280.12 451.42 279.05C453.07 277.99 453.48 275.72 454.3 277.16C455.12 278.6 455.3 282.51 456.34 282.51C457.38 282.51 459.24 282.51 460.06 278.18C460.88 273.85 462.29 265.53 460.87 259.62C459.44 253.71 456.34 243.69 456.34 243.69L434.33 269.33Z" fill="#91B2C4"/>
<path d="M455.63 256.56C455.63 256.56 451.66 262.62 452.5 268.6C452.9 271.46 455.85 268.45 456.35 266.87C457.19 264.22 455.63 256.56 455.63 256.56Z" fill="#FEFEFD"/>
<path d="M148.76 343.77C148.76 343.77 165.17 291.18 175.66 298.48C186.15 305.78 190.32 320.25 195.47 323.87C200.63 327.49 201.32 332.85 199.19 333.46C197.06 334.07 189.53 330.02 184.95 322.67C180.37 315.32 176.72 309.1 172.24 316.34C167.76 323.58 154.19 343.47 148.76 343.77Z" fill="#9FB4C6"/>
<path d="M371.49 302.14C369.27 290.07 350.19 273.62 350.19 273.62C350.19 273.62 347.17 279.55 344.15 281.62C341.14 283.69 339.63 284.67 335.69 286.18C331.75 287.69 332.7 293.11 329.68 294.68C326.66 296.25 322.14 295.53 318.22 297.79C314.3 300.04 313.7 304.87 311.29 308.26C308.89 311.64 310.68 313.62 306.76 314.9C302.84 316.18 301.94 313.32 298.92 310.91C295.91 308.49 293.19 309.1 291.08 308.26C288.97 307.42 291.69 312.41 294.63 312.71C297.57 313.02 296.81 316.63 300.13 320.78C303.45 324.92 304.95 327.19 301.34 325.38C297.72 323.57 287.46 315.73 284.45 313.62C281.43 311.51 280.53 306.99 279.02 307.95C277.51 308.92 276.31 309.4 273.59 307.95C270.88 306.51 269.37 301.86 266.06 303.19C262.74 304.51 261.83 306.68 261.86 309.4C261.88 312.11 259.72 311.21 256.71 311.51C253.69 311.81 247.96 316.33 245.85 320.78C243.74 325.23 246.76 326.59 248.67 328.03C250.58 329.48 252.19 326.28 257.61 329.9C263.04 333.52 261.83 339.85 261.53 341.39C261.23 342.93 258.22 343.77 253.69 341.39C249.17 339.01 251.58 337.14 250.96 334.12C250.35 331.11 241.03 335.03 237.84 334.12C234.65 333.22 233.79 329 231.88 324.17C229.97 319.35 225.95 317.54 220.83 314.9C215.7 312.26 212.99 308.79 209.07 307.95C205.15 307.11 206.05 309.4 205.15 311.21C204.24 313.02 197.31 322.36 197.31 322.36L196.89 379.35L235.3 401.06C235.3 401.06 373.7 314.22 371.49 302.14ZM225.01 336.22V345.86C225.01 345.86 223.19 345.13 220.83 343.77C218.46 342.42 212.65 340.95 214.3 335.49C215.96 330.04 210.65 322.04 210.65 322.04L200.31 343.77L199.19 337.34L207.74 318.4C217.19 321.5 220.28 321.31 221.74 322.41C223.19 323.51 219.55 328.22 221.74 328.4C223.92 328.59 222.46 324.95 225.92 326.4C229.37 327.86 240.82 341.39 241.73 350.4C240.89 346.84 225.01 336.22 225.01 336.22ZM266.64 326.04C264.09 327.31 261.55 318.4 261.55 318.4L250.64 324.59C250.64 324.59 253.73 315.86 257.55 314.22L265.55 315.86C265.55 315.86 269.19 324.77 266.64 326.04Z" fill="#B2BDCD"/>
<path d="M549.1 276.23C549.1 276.23 540.01 298 536.98 304.89C533.95 311.78 524.58 322.25 524.58 322.25C524.58 322.25 540.01 302.96 541.39 306.27C542.77 309.58 538.36 316.19 535.05 319.5C531.74 322.81 515.49 337.41 513.83 339.06C512.18 340.71 519.34 338.51 521.82 336.3C524.3 334.1 522.65 335.75 527.61 333.54C532.57 331.34 532.57 330.23 534.77 327.75C536.97 325.27 540.83 317.55 544.97 315.35C549.1 313.15 551.58 307.36 553.79 304.6C555.99 301.84 557.79 298.81 559.65 297.44C561.51 296.07 562.89 293.86 562.89 296.34C562.89 298.82 564.41 300.78 559.65 307.93C554.89 315.08 551.86 319.49 552.69 323.07C553.52 326.65 555.72 323.07 557.65 321.14C559.58 319.21 561.78 314.83 564.81 307.93C567.84 301.03 568.67 298.82 573.08 294.41C577.49 290 579.97 286.14 581.9 283.11C583.83 280.08 584.38 278.43 587.14 276.22C589.9 274.02 591.82 272.09 592.65 267.95C593.48 263.82 594.85 257.75 596.23 253.35C597.61 248.94 598.43 249.22 598.71 241.5C598.99 233.78 592.1 226.9 583 237.09C573.91 247.29 564.54 277.87 562.88 280.08C561.22 282.29 561.92 287.19 559.64 288.32C557.36 289.45 556.58 288.02 556.14 284.74C555.71 281.46 554.88 274.29 554.88 272.09C554.88 269.89 549.1 276.23 549.1 276.23Z" fill="#91B2C4"/>
<path d="M589.42 301.11C589.42 301.11 587.07 302.87 589.42 306.68C591.77 310.49 593.82 304.04 594.7 301.11C595.58 298.18 593.23 292.31 594.7 290.55C596.17 288.79 596.56 284.68 598.71 283.51C600.86 282.34 602.85 278.86 602.85 278.86C602.85 278.86 612.64 240.17 612.18 229.14C611.71 218.11 607.02 218.53 607.02 218.53L584.44 296.72L589.42 301.11Z" fill="#A8BCCB"/>
<path d="M605.26 229.14C605.26 229.14 606.14 238.35 603.5 247.73C600.86 257.12 598.22 272.07 594.7 273.83C591.18 275.59 577.98 297.29 575.93 302.28C573.88 307.27 577.1 314.01 570.65 316.06C564.2 318.11 549.53 332.78 548.95 335.42C548.37 338.06 558.34 335.42 558.34 335.42C558.34 335.42 557.75 340.99 553.94 342.46C550.13 343.93 543.38 345.1 536.34 350.09C529.3 355.08 526.07 361.24 521.09 362.7C516.1 364.17 513.59 364.75 513.59 364.75C513.59 364.75 510.2 367.98 513.59 370.91C516.98 373.84 516.1 373.84 522.26 370.91C528.42 367.98 533.99 362.99 535.46 359.76C536.93 356.53 536.93 352.13 543.97 349.2C551.01 346.27 564.21 343.63 567.14 341.87C570.07 340.11 570.95 338.94 574.18 333.36C577.41 327.79 585.33 306.38 585.91 304.62C586.5 302.86 590.9 291.42 590.9 291.42L584.45 299.8C584.45 299.8 592.47 287.9 598.73 274.41C604.99 260.92 609.09 246.55 608.5 241.56C607.91 236.57 608.56 226.02 608.56 226.02L605.26 229.14Z" fill="#91B2C4"/>
<path d="M613.47 223.83C613.47 223.83 611.42 230.72 610.83 238.34C610.24 245.97 602.91 276.76 601.44 279.4C599.97 282.04 605.55 274.71 607.45 279.4C609.36 284.09 614.64 289.08 617.57 291.72C620.5 294.36 624.02 296.71 624.02 296.71C624.02 296.71 612.05 282.34 612.61 280.58C613.17 278.82 621.38 260.64 621.68 247.44C621.97 234.24 618.45 212.92 618.45 212.92C618.45 212.92 619.04 224.62 617.57 229.14C616.1 233.65 612.93 250.46 612.61 254.82C612.29 259.17 610.24 260.93 610.24 260.93C610.24 260.93 613.18 226.62 613.47 223.83Z" fill="#91B2C4"/>
<path d="M484.25 317.95C484.25 317.95 478.71 321.03 479.94 321.64C481.17 322.26 484.87 325.13 483.22 325.33C481.58 325.54 483.01 320.81 477.47 323.48C471.93 326.15 469.47 326.97 466.18 326.76C462.9 326.55 459.94 324.3 456.59 323.68C453.25 323.06 454.48 327.02 454.48 326.79C454.48 326.55 449.14 324.13 445.65 322.37C442.16 320.61 438.88 317.73 438.47 316.09C438.06 314.45 440.11 314.04 438.06 314.45C436.01 314.86 422.24 318.61 422.35 316.02C422.46 313.43 439.08 301.11 440.93 301.11C442.78 301.11 449.14 305.96 448.52 307.85C447.9 309.74 435.59 309.98 439.69 313.96C443.79 317.94 445.64 321.43 451.39 321.84C457.14 322.25 450.57 314.04 455.49 317.32C460.42 320.6 461.44 324.3 464.93 323.48C468.42 322.66 471.5 321.84 473.55 320.61C475.6 319.38 477.04 317.33 480.12 316.92C483.22 316.51 484.25 317.95 484.25 317.95Z" fill="#91B2C4"/>
<path d="M482.35 306.45C482.35 306.45 476.04 313.43 473.17 312.61C470.3 311.79 469.89 306.66 473.17 306.45C476.45 306.24 477.89 304.81 478.51 304.19C479.13 303.57 484.05 302.96 488.36 303.37C492.67 303.78 496.59 302.38 497.09 304.31C497.59 306.24 490.17 306.63 482.35 306.45Z" fill="#91B2C4"/>
<path d="M629 218.52C629 218.52 624.36 234.85 622.98 238.05C621.59 241.25 621.46 251.24 621.16 253.06C620.85 254.88 618.84 274.19 619.22 278.71C619.6 283.23 623.93 291.7 630.51 289.44C637.09 287.18 639.36 285.49 636.91 281.54C634.46 277.59 632.77 279.47 632.39 273.07C632.01 266.67 628.22 251.99 628.52 248.41C628.82 244.83 629.19 241.63 630.51 244.27C631.83 246.9 633.37 267.98 637.87 269.3C642.37 270.62 641.66 267.23 640.51 260.27C639.36 253.31 636.54 248.04 636.54 246.15C636.54 244.26 636.35 245.59 639.55 245.96C642.75 246.34 642.18 239.18 639.55 234.29C636.9 229.4 629 218.52 629 218.52Z" fill="#F5F9FA"/>
<path d="M643.3 224.88C643.3 224.88 640.48 243.32 643.3 249.72C646.12 256.12 645.75 268.73 650.08 273.62C654.41 278.51 659.11 283.97 662.31 286.61C665.51 289.24 670.4 294.7 670.4 291.69C670.4 288.68 666.45 274 666.45 274C666.45 274 674.73 280.96 678.68 283.03C682.63 285.1 687.53 288.86 685.83 282.28C684.14 275.69 680.75 271.93 680.75 271.93C680.75 271.93 711.43 291.5 716.89 295.08C722.35 298.66 723.85 299.22 727.62 301.29C731.38 303.36 730.63 305.43 733.45 305.81C736.27 306.19 738.34 303.18 736.46 300.73C734.58 298.28 732.88 299.41 730.06 298.47C727.24 297.53 724.6 294.89 723.1 292.64C721.6 290.39 720.09 290.42 715.76 288.33C711.43 286.24 710.3 284.55 711.81 284.55C713.32 284.55 718.4 284.74 721.41 286.81C724.42 288.88 725.74 292.83 731.57 295.28C737.4 297.73 737.22 296.41 743.99 300.55C750.77 304.69 751.52 306.76 758.67 307.89C765.82 309.02 762.06 311.65 772.79 313.16C783.52 314.67 786.53 315.42 791.8 315.23C797.07 315.04 801.02 315.42 800.83 309.96C800.64 304.5 735.9 241.26 735.9 241.26L643.3 224.88Z" fill="#F5F9FA"/>
<path d="M624.86 315.25C624.86 315.25 618.84 307.83 618.08 307.85C617.33 307.88 614.13 306.94 614.69 309.2C615.25 311.46 624.86 315.25 624.86 315.25Z" fill="#F5F9FA"/>
<path d="M652.52 326.14C652.52 326.14 651.01 323.51 647.06 322.19C643.11 320.87 642.17 320.5 637.08 319.18C632 317.86 630.12 315.04 629.36 316.17C628.61 317.3 627.93 317.68 630.43 319.93C632.93 322.18 633.69 323.51 636.51 324.26C639.35 325.01 649.7 327.08 652.52 326.14Z" fill="#F5F9FA"/>
<path d="M676.43 331.22C676.43 331.22 674.36 329.34 671.91 329.34C669.46 329.34 668.2 329.81 663.31 327.18C658.42 324.55 654.03 319.74 653.84 322.19C653.65 324.64 654.97 328.02 658.17 329.72C661.37 331.41 671.91 332.92 676.43 331.22Z" fill="#F5F9FA"/>
<path d="M690.35 322.75C690.35 322.75 687.34 318.84 685.46 315.9C683.58 312.96 679.81 309.57 677.56 309.57C675.3 309.57 674.93 315.03 676.43 318.23C677.94 321.43 681.51 322.75 683.96 322.75C686.41 322.75 690.35 322.75 690.35 322.75Z" fill="#F5F9FA"/>
<path d="M715.2 332.73C715.2 332.73 711.25 327.46 707.86 325.2C704.47 322.94 702.03 322.57 699.2 322.75C696.38 322.94 694.12 320.49 694.87 322.75C695.62 325.01 695.43 324.93 699.01 326.38C702.59 327.83 715.2 332.73 715.2 332.73Z" fill="#F5F9FA"/>
<path d="M713.32 327.26C713.32 327.26 722.92 329.34 728.75 329.34C734.58 329.34 742.11 331.79 744.37 333.86C746.63 335.93 741.74 335.93 740.23 335.55C738.72 335.17 733.83 334.61 733.83 334.61C733.83 334.61 739.48 337.43 738.72 338.56C737.97 339.69 735.33 338.75 732.7 337.05C730.07 335.36 713.32 327.26 713.32 327.26Z" fill="#F5F9FA"/>
<path d="M604.94 327.26L590.59 321.52L601.2 316.17C601.2 316.17 610.54 325.69 616.49 326.39C622.44 327.08 625.14 331.62 628.69 331.97C632.24 332.32 641.34 338.63 647.99 342.13C654.64 345.63 662.34 354.73 662.34 354.73V360.68C662.34 360.68 664.79 359.28 671.44 360.68C678.09 362.08 682.32 362.08 690.36 363.83C698.4 365.58 709.94 367.68 709.94 367.68C709.94 367.68 710.29 359.28 709.94 358.23C709.59 357.18 706.44 353.68 706.44 353.68C706.44 353.68 707.1 351.93 710.1 352.98C713.1 354.03 722.89 358.93 724.99 358.93C727.09 358.93 729.14 358.23 729.14 358.23C729.14 358.23 734.44 355.78 733.39 354.38C732.34 352.98 731.22 353.68 733.53 350.88C735.84 348.08 735.49 348.08 741.44 347.03C747.39 345.98 747.74 345.28 755.09 344.23C762.44 343.18 760.34 346.33 760.34 346.33C760.34 346.33 752.99 355.78 756.84 354.03C760.69 352.28 765.38 350.47 770.51 344.81C777.36 337.25 785.54 329.88 785.54 329.88C785.54 329.88 775.81 346.75 771.04 350.82C766.27 354.89 768.03 360.55 768.03 360.55L716.72 410L669.24 413.59L604.94 327.26Z" fill="#9DBFD2"/>
<path d="M810.12 335.64L823.63 350.24C823.63 350.24 824.02 341.78 827.3 345.26C830.57 348.74 829.14 361.42 829.35 362.17C829.55 362.92 833.03 359.46 834.46 357.94C835.89 356.42 843.05 343.01 843.05 343.01L844.28 333.17L832.62 331.35L819.73 330.53L813.8 332.78L810.12 335.64Z" fill="#F5F9FA"/>
<path d="M885.8 371.43L877.41 362.27L876.59 366.85L881.19 371.43C881.19 371.43 882.72 373.68 885.79 376.13C888.86 378.58 898.47 385.5 898.47 385.5C898.47 385.5 895.4 379.82 893.36 378.38C891.31 376.95 891.72 371.63 887.53 367.95C883.34 364.27 892.34 370.4 895 371.63C897.66 372.86 897.66 370.4 902.57 373.88C907.48 377.36 907.07 377.56 910.75 379.61C914.43 381.66 916.68 382.06 916.68 382.06L926.29 377.97L923.22 364.87L901.44 350.16L899.5 362.27C899.5 362.27 895.2 365.18 889.07 362.27C882.93 359.36 875.57 355.07 875.57 355.07L885.8 371.43Z" fill="#F5F9FA"/>
<path d="M713.1 378.29L699.52 385.5C699.52 385.5 693.2 385.08 694.37 387.42C695.54 389.76 698.35 388.59 702.1 387.42C705.85 386.25 716.15 381.8 713.1 378.29Z" fill="#F5F9FA"/>
<path d="M685.24 403.34C685.24 403.34 679.64 394.91 676.7 393.51C673.76 392.11 670.25 390.47 670.25 392.34C670.25 394.21 672.84 397.73 676.7 399.6C680.56 401.47 685.24 403.34 685.24 403.34Z" fill="#F5F9FA"/>
<path d="M1201.12 476.13L58.2799 449.27L73.6199 1034.52L1232.05 1002.47L1201.12 476.13Z" fill="url(#paint3_linear_108_3609)"/>
<path d="M1057.69 731.98C1057.69 731.98 1076.42 748.89 1079.71 748.8C1083 748.71 1082.99 746.17 1092.14 743.74C1101.28 741.31 1109.28 734.55 1112.43 730.47C1115.58 726.39 1126.8 717.36 1126.8 717.36C1126.8 717.36 1154.6 734.38 1159.71 738.96C1164.82 743.54 1168.34 749.98 1169.95 748.84C1171.56 747.7 1182.67 735.78 1182.67 735.78L1186.48 738.58L1204.29 718.12L1215.61 723.62L1236.21 677.3L1126.82 520.91L1057.69 731.98Z" fill="#D7DFE5"/>
<path d="M1080.52 753.33C1080.52 753.33 1075.21 736.92 1079.82 733.67C1084.43 730.41 1087.82 728.07 1092.31 721.94C1096.8 715.82 1098.95 717.24 1102.09 717.34C1105.23 717.43 1107.4 719.53 1107.45 720.91C1107.5 722.29 1105.06 727.28 1106.95 726.54C1108.84 725.8 1111.08 724.81 1111.49 721.73C1111.9 718.64 1111.46 715.89 1114.58 715.34C1117.7 714.79 1118.14 712.32 1121.2 715.16C1124.27 718 1126.04 723.64 1126.12 726.02C1126.22 728.39 1080.52 753.33 1080.52 753.33Z" fill="#F5F9FA"/>
<path d="M1126.8 717.36L1107.29 686.88C1107.29 686.88 1109.17 681.63 1115.12 681.93C1121.08 682.23 1129.08 687.86 1132.27 691C1135.46 694.14 1121.71 680.53 1124.48 679.68C1127.24 678.83 1134.08 687.87 1135.47 683.53C1136.86 679.19 1130.96 675.35 1133.5 673.13C1136.04 670.91 1144.5 678.36 1147.84 674.12C1151.18 669.88 1151.27 667.62 1154.18 665.9C1157.09 664.18 1154.75 701.61 1158.15 708.9C1161.55 716.19 1162.1 721.7 1163.64 725.89C1165.19 730.08 1173.44 751.23 1173.65 752.15C1173.86 753.07 1139.13 733.17 1139.13 733.17L1126.8 717.36Z" fill="#B2C9DA"/>
<path d="M1169.94 748.85C1169.94 748.85 1162.4 740.15 1161.63 738.02C1160.86 735.89 1159.12 726.32 1154.76 721.49C1150.4 716.65 1146 709.14 1142.29 706.37C1138.58 703.6 1133.45 696.36 1133.65 692.2C1133.85 688.04 1127 681.93 1127 681.93L1139.25 685.28C1139.25 685.28 1147.37 697.97 1147.99 701.8C1148.61 705.63 1153.19 711.61 1154.1 712.83C1155.01 714.05 1158.57 720.61 1160.91 722.66C1163.25 724.71 1163.5 725.55 1163.25 724.71C1163 723.87 1158.75 711.03 1156.73 708.16C1154.71 705.29 1152.4 702.31 1149.73 697.9C1147.06 693.49 1142.39 688.15 1142.87 686.58C1143.35 685.01 1142.16 674.93 1143.63 672.79C1145.1 670.65 1152.01 678.46 1155.06 675.91C1158.11 673.36 1161.51 670.01 1164.19 667.81C1166.88 665.61 1174.98 664.11 1174.98 664.11L1182.98 671.13C1182.98 671.13 1165.89 666.53 1169.94 672.41C1173.99 678.3 1177.7 684.65 1179.38 687.68C1181.06 690.71 1183.8 694.17 1184.01 700.16C1184.22 706.15 1182.56 708.5 1184.39 710.91C1186.22 713.32 1186.41 713.62 1184.58 716.29C1182.76 718.95 1181.07 720.73 1181.07 720.73C1181.07 720.73 1184.78 712.13 1179.74 712.89C1174.71 713.64 1177.11 721.42 1177.03 722.04C1176.95 722.66 1175.1 724.63 1175.1 724.63C1175.1 724.63 1172.96 718.31 1171.73 718.19C1170.5 718.07 1168.84 720.42 1169.27 722.56C1169.7 724.7 1170.29 726.84 1171.55 727.73C1172.8 728.62 1173.95 731.35 1174.42 729.96C1174.89 728.56 1175.21 727.79 1175.92 728.07C1176.63 728.36 1175.62 734.38 1175.14 735.47C1174.66 736.56 1170.29 731.45 1168.83 729.8C1167.37 728.15 1168.68 725.5 1167.61 724.83C1166.54 724.16 1166.1 726.49 1166.1 726.49L1164.43 727.96L1169.94 748.85Z" fill="#97B7CA"/>
<path d="M1181.46 707.02C1181.46 707.02 1167.35 688.03 1166.76 686.05C1166.17 684.07 1163.89 674.13 1163.89 674.13C1163.89 674.13 1171.26 685 1173.51 689.4C1175.76 693.8 1181.46 707.02 1181.46 707.02Z" fill="url(#paint4_linear_108_3609)"/>
<path d="M819.12 708.08C819.12 708.08 844.59 717.54 848.38 719.98C852.17 722.42 854.88 740.5 860.62 739.61C866.36 738.72 871.66 737.17 874.61 739.24C877.57 741.32 878.12 745.29 881.81 744.83C885.5 744.36 890.71 751.85 893.08 748.88C895.45 745.91 898.48 738.56 900.13 738.52C901.78 738.47 903.28 734.44 907.85 735.4C912.42 736.36 916.14 748.48 919.04 748.82C921.94 749.16 918.4 742.37 923.07 746.23C927.74 750.1 936.53 765.47 938.65 767.22C940.77 768.98 958.34 776.48 961.32 778.94C964.3 781.4 977.26 798.47 986.88 802.56C996.5 806.65 1004.28 805.35 1008.28 801.97C1012.28 798.59 1022.77 792.49 1022.77 792.49C1022.77 792.49 1037.13 767.76 1040.36 765.86C1043.59 763.96 1047.49 769.29 1049.84 765.96C1052.19 762.63 1059.27 753.23 1062.11 751.94C1064.95 750.65 1075.67 727.84 1079.26 724.47C1082.85 721.1 1096.67 704.38 1101.31 695.9C1105.95 687.42 1114.9 684.27 1116.9 670.78C1118.89 657.29 1156.43 635.53 1178.43 628.58C1200.43 621.63 1217.2 564.52 1217.2 564.52L1169.35 443.11L847.25 607.44L817.49 704.42L819.12 708.08Z" fill="#AAC1D1"/>
<path d="M852.49 748.13L853.13 715.86L858.51 715.71C858.51 715.71 863.21 716.84 864.36 718.71C865.5 720.58 868.9 725.22 868.9 725.22C868.9 725.22 874.84 730.72 877.78 732.87C880.73 735.02 886.06 743.72 886.06 743.72L886.26 749.41L852.49 748.13Z" fill="#91B6C8"/>
<path d="M848.42 724.53C848.42 724.53 848.43 714.73 845.16 713.55C841.89 712.38 840.97 706.71 840.97 706.71C840.97 706.71 843.64 711.06 846.51 711.3C849.39 711.54 847.43 716.97 851.32 715.44C855.21 713.91 859.61 719.48 860.64 726.72C861.67 733.96 862.4 734.38 857.63 731.55C852.87 728.72 852.16 726.8 851.68 725.64C851.2 724.48 848.42 724.53 848.42 724.53Z" fill="#F3FAF9"/>
<path d="M874.91 743.08L882.08 742.88C882.08 742.88 874.7 735.77 874.55 732.96C874.4 730.15 870.99 728.36 867.67 723.54C864.35 718.71 868.67 718.91 866.03 715.51C863.4 712.1 859.07 711.59 858.52 706.23C857.97 700.87 862.59 709.6 868.02 711.03C873.45 712.46 876.51 717.75 877.36 721.52C878.21 725.29 885.52 728.94 885.52 728.94L881.73 723.39C881.73 723.39 887.26 727.68 889.46 728.83C891.65 729.98 896.79 733.27 896.79 733.27L902.43 740.43L894.4 756.59L874.91 743.08Z" fill="#FDFDFC"/>
<path d="M906.33 748.86L896.81 733.27C896.81 733.27 895.51 727.03 892.18 724.27C888.85 721.52 880.07 711.96 880.07 711.96C880.07 711.96 881.43 694.53 870.22 681.88C859.01 669.23 888.64 705.4 894.06 706.52C899.48 707.63 901.86 705.36 907.36 708.05C912.86 710.74 915.82 713.24 915.82 713.24C915.82 713.24 913.51 708.83 918.58 710.27C923.65 711.71 927.43 716.98 929.33 720.09C931.23 723.2 937.75 732.51 943.17 734.89C948.6 737.27 950.35 736.27 953.49 743.77C956.63 751.27 958.44 761.75 959.39 768.32C960.34 774.89 959.94 783.75 959.94 783.75L906.33 748.86Z" fill="#92B5C7"/>
<path d="M968.26 782.56C968.26 782.56 962.94 766.69 962.94 761.23C962.94 757.94 959.28 744.86 955.9 740.84C952.52 736.82 943.49 724.74 941.26 722.59C939.03 720.44 930.88 713.71 924.98 708.81C938.2 718.59 946.26 715.81 946.26 715.81L944.23 711.48L948.46 713.22C948.46 713.22 941.9 704.8 938.66 704.89C935.42 704.98 932.08 702.47 932.08 702.47C932.08 702.47 933.58 705.44 931.97 705.89C930.36 706.34 921.82 699.02 922.17 696.76C922.52 694.5 922.52 694.5 922.52 694.5C922.52 694.5 928.54 702.42 937.61 702.31C946.68 702.21 943.86 702.14 943.86 702.14C943.86 702.14 955.17 712.84 957.72 712.96C960.28 713.07 961.24 714.07 961.24 714.07C961.24 714.07 953.24 717.13 950.85 715.17C948.46 713.21 958.84 731.3 961.12 743.08C963.39 754.87 963.6 754.25 964.7 758.92C965.81 763.6 965.8 767.73 968.26 782.56Z" fill="#92B5C6"/>
<path d="M976.95 789.9C976.95 789.9 971.08 768.15 970.36 761.02C969.64 753.89 964.67 742.18 966.81 741.71C968.96 741.24 971.48 746.89 972.26 749.32C973.04 751.75 977.37 769 976.28 771.07C975.19 773.14 976.95 789.9 976.95 789.9Z" fill="#92B5C6"/>
<path d="M986.87 802.57C986.87 802.57 983.67 802.8 982.55 797.39C981.43 791.98 980.77 786.38 980.42 783.17C980.07 779.96 977.75 773.28 977.7 771.85C977.65 770.42 974.85 763.35 977.31 761.03C979.77 758.71 983 758.18 983.9 757.36C984.8 756.53 986.4 755.88 986.53 759.55C986.66 763.22 986.02 777.79 987.33 782.03C988.64 786.26 991.98 801.9 997.93 806.44C1003.89 810.97 986.87 802.57 986.87 802.57Z" fill="#92B5C6"/>
<path d="M937.46 643.14C937.46 643.14 954.89 660.39 956.47 666.51C958.05 672.63 957.66 673.97 964.55 678.19C971.44 682.41 976.29 689.69 979.76 690.27C983.23 690.85 999.18 688.65 1002.58 685.59C1005.99 682.53 1005.28 675.39 1005.28 675.39L1020.05 679.36L1025.33 678.88L1028.45 680.48L1035.59 676.57L1045.31 670.9L1067.13 563.8L985.42 623.54L937.46 643.14Z" fill="#92B3C5"/>
<path d="M1121.31 672.17C1121.31 672.17 1113.88 672.31 1110.61 674.37C1107.34 676.42 1108.57 679.33 1104.31 685.02C1100.06 690.7 1102.21 678.2 1101 675.61C1099.8 673.02 1098.04 676.02 1095.12 679.37C1092.19 682.73 1091.31 688.28 1093.33 689.78C1095.35 691.29 1093.51 694.8 1090.58 699.8C1087.64 704.79 1089.11 696.23 1089.13 692.3C1089.14 688.38 1085.04 686.2 1084.96 683.91C1084.88 681.62 1088.47 678.25 1089.56 671.34C1089.56 671.34 1089.41 667.12 1082.16 667.95C1074.91 668.77 1072.89 678.68 1069.04 689.39C1065.2 700.1 1063 693.03 1060.06 694.1C1057.13 695.16 1060.06 694.1 1058.46 690.75C1056.85 687.41 1054.05 692.3 1051.98 693.99C1049.9 695.69 1047.59 688.22 1045.86 686.3C1044.13 684.39 1042.26 684.77 1038.24 686.51C1034.22 688.26 1032.38 688.95 1032.38 688.95L1027.79 685.17C1027.79 685.17 1031.99 719.75 1029.12 722.45C1026.24 725.15 1024.59 710.13 1020.01 709.61C1015.43 709.08 1018.41 734.53 1018.41 734.53C1018.41 734.53 1014.76 725.8 1011.15 728.77C1007.53 731.74 1008.31 753.44 1008.31 753.44C1008.31 753.44 1006.02 741.1 1002.02 740.71C998.03 740.34 994.58 743.37 988.82 769.3C983.05 795.23 1002.02 812.57 1002.02 812.57L1049.4 785.72L1121.31 672.17ZM1069.12 725.13C1068.63 728.77 1063.06 739.6 1059.96 744.75C1056.85 749.91 1056.19 754.27 1055.42 751.39C1054.66 748.52 1050.66 743.2 1050.66 743.2C1050.66 743.2 1053.96 743.47 1055.12 742.9C1056.28 742.32 1058.66 737.18 1061.78 732.76C1064.89 728.33 1068.87 718.26 1068.87 718.26C1068.87 718.26 1069.61 721.5 1069.12 725.13Z" fill="#F5F9FA"/>
<path d="M1010.14 608.95C1010.14 608.95 1012.6 620.56 1017.94 620.06C1023.28 619.56 1028.19 620.44 1028.77 624.42C1029.35 628.4 1028.53 637.09 1031.97 638.16C1035.41 639.23 1036.69 638.25 1043.85 629.7C1051.01 621.15 1048.09 624.23 1057.7 617.97C1067.31 611.71 1081.32 597.41 1082.79 598.33C1084.26 599.25 1078.99 610.14 1083.3 612.6C1087.61 615.06 1089.83 622.24 1094.2 620.54C1098.57 618.84 1105.41 623.46 1103.81 621.77C1102.22 620.08 1100.71 604.82 1105.01 608.85C1109.31 612.88 1114.99 622.78 1119 624.47C1123.01 626.16 1132.8 608.08 1132.8 608.08C1132.8 608.08 1147.31 618.6 1148.2 622.35C1149.09 626.1 1148.99 644.42 1148.99 644.42L1187.47 643.36L1226.72 582.33L1203.14 551.98L1066.72 551.45L1010.14 608.95Z" fill="#52A3C0"/>
<path d="M998.98 654.89L1001.4 663.12L1011.91 658.68L1021.37 662.57L1029.45 668.11L1033.43 671.9L1038.33 674.47L1045.32 670.89L1059.91 599.24L1011.29 604.62L988.2 643.32L998.98 654.89Z" fill="#E9F1F5"/>
<path d="M1004.23 657.79L1036.47 654.64L1043.52 647.33L1052.1 637.6L1059.97 600.67L1015.13 616.65L996.51 639.14L1004.23 657.79Z" fill="#86AEC5"/>
<path d="M1012.16 641.31L1023.25 639.64L1028.27 645.77L1034.32 637.27L1045.17 635.55L1051.4 614.97L1055.15 597.08L1032.89 597.69L1000.05 619.78L1012.16 641.31Z" fill="#D1DFE8"/>
<path d="M63.1299 765.77C63.1299 765.77 73.6899 769.04 79.4199 768.88C85.1399 768.72 90.5999 770.65 93.3299 771.47C96.0499 772.29 115.83 797.58 116.84 797.55C117.85 797.52 122.02 782.26 130.56 785.29C139.09 788.32 132.75 789.98 139.09 788.32C145.43 786.66 155.23 777.78 173.67 794.19C192.11 810.61 203.21 819.51 206.56 818.82C209.91 818.13 238.86 789.14 243.92 789.29C248.98 789.43 253.21 785.16 258.87 783.22C264.53 781.28 264.52 780.98 267.2 780.61C269.88 780.24 270.98 782.58 275.26 779.79C279.54 777 288.15 772.6 302.59 780.82C317.03 789.04 329.16 798.2 329.16 798.2C329.16 798.2 333.48 796.6 334.84 796.85C336.2 797.11 356.37 814.7 356.37 814.7C356.37 814.7 380.33 787.28 400.22 778.12C420.11 768.96 418.82 770.48 418.82 770.48C418.82 770.48 422.6 772.45 425.22 770.3C427.84 768.15 434.64 760.54 437.66 760.15C440.68 759.77 459.43 775.29 461.31 780.88C463.19 786.47 471.75 761.88 477.08 759.95C482.4 758.02 486.45 748.7 486.45 748.7C486.45 748.7 490.25 751.27 499.58 748.34C508.91 745.41 519.08 737.7 537.62 747.29C544.65 743.76 549.22 741.83 549.22 741.83C549.22 741.83 558.6 749.68 559.77 754.11C560.94 758.54 564.37 750.72 566.73 750.95C569.1 751.18 572.31 756.14 576.69 756.32C578.09 758.24 591.75 781.74 597.85 782.76C603.95 783.78 602.83 780.54 602.83 780.54C602.83 780.54 621.62 797.25 625.79 800.7C629.96 804.15 675.75 774.67 683.68 770.29C691.61 765.91 697.19 761.6 699.21 761.54C701.23 761.48 709.66 761.55 713 760.86C716.34 760.17 724.75 759.64 724.71 758.46C724.67 757.27 712.12 754.95 715.42 753.07C718.72 751.2 728.61 744.98 730.63 744.93C732.65 744.87 735.55 750.73 740.56 749.41C745.57 748.08 750.54 736.36 755.11 732.08C759.68 727.8 770.27 731.96 776.54 728.22C782.81 724.48 808.59 710.4 820.56 705.92C832.53 701.44 835.03 696.02 839.36 694.41C843.68 692.81 844.18 687.74 844.18 687.74C844.18 687.74 870.87 680.17 884.76 672.96C898.65 665.75 911.55 668.36 911.55 668.36C911.55 668.36 934.21 642.19 951.64 639.63C969.07 637.07 974.09 645.45 974.09 645.45C974.09 645.45 1002.39 626.34 1004.17 619.46C1005.95 612.58 1021.19 605.33 1022.82 603.8C1024.45 602.27 1055.31 579.44 1055.31 579.44L1085.08 544.76L1068.76 504.09L40.7199 465.65L63.1299 765.77Z" fill="url(#paint5_linear_108_3609)"/>
<path d="M310.59 795.24C310.59 795.24 306.5 777.14 304.78 774.47C303.05 771.8 299.34 764.24 302.59 763.99C305.84 763.74 308.19 768.47 309.52 765.08C310.85 761.69 305.97 755.88 308.61 754.39C311.26 752.89 325.7 746.1 325.7 746.1L356.62 779.59L356.02 818.75L333.79 815.34L310.59 795.24Z" fill="#95B4C6"/>
<path d="M338.23 782.49C338.23 782.49 338.29 778.97 335.86 777.12C333.44 775.27 326.74 771 323.17 766.77C319.59 762.54 316.88 758.16 316.88 758.16C316.88 758.16 312.22 749.34 316.42 745.23C320.62 741.12 330.93 745.47 334.9 749.99C338.87 754.51 341.6 773.59 340.92 775.77C340.24 777.96 338.23 782.49 338.23 782.49Z" fill="#B1BECB"/>
<path d="M61.3299 700.7C61.3299 700.7 72.4399 716.36 77.1399 719.2C81.8399 722.04 97.7899 738.92 108.71 743.76C119.63 748.6 123.36 758.78 123.36 758.78C123.36 758.78 127.45 752.99 136.28 750.85C145.11 748.71 150.27 747.22 152.42 747.16C154.57 747.1 151.73 752.48 163.21 750.22C174.69 747.96 175.39 745.71 180.68 747.73C185.97 749.75 189.11 751.71 194.36 752.71C199.61 753.7 203.69 764.68 203.69 764.68C203.69 764.68 199.8 758.84 203.41 756.84C207.02 754.85 208.11 759.42 216.95 757.82C225.79 756.22 232.83 755.49 239.84 754.21C246.85 752.93 249.13 756.39 255.5 754.32C261.87 752.25 259.19 754.49 270.93 747.94C282.67 741.39 285.17 742.68 292.24 743.02C299.31 743.36 305.15 752.13 312.41 757.61C319.67 763.09 322.17 764.37 326.15 764.26C330.14 764.15 317.51 754.49 325.79 754.26C334.07 754.03 328.65 765.54 333.26 765.69C337.87 765.84 340.49 770.36 340.3 773.61C340.11 776.86 345.76 780.49 347.03 781.54C348.3 782.59 347.39 791.54 347.39 791.54C347.39 791.54 351.3 789.27 353.03 794.63C354.76 799.99 356.36 814.71 356.36 814.71L448.7 809.03L501.87 776.45L547.73 762.63L549.21 741.84C549.21 741.84 518.57 725.23 497.28 730.69C505.74 734.28 485.93 740.6 485.93 740.6C485.93 740.6 465.32 732.82 461.95 732.91C461.95 732.91 448.39 731.39 446.55 731.44C444.71 731.49 422.8 719.65 422.8 719.65L228.86 635.11L51.4599 653.09L61.3299 700.7Z" fill="#CFC8CA"/>
<path d="M189.08 810.36C189.08 810.36 185.68 796.76 185.67 790.93C185.66 785.11 186.15 782.53 190.4 781.9C194.65 781.27 197.41 787.87 197.41 787.87C197.41 787.87 198.73 786.64 201.85 787.06C204.97 787.49 208.64 797.83 208.14 805.38C211.95 803.22 212.68 807.31 212.68 807.31C212.68 807.31 220.55 782.78 224.99 782.14C229.44 781.5 230.14 784.91 230.14 784.91C230.14 784.91 234.34 777.43 237.47 778.03C240.6 778.63 239.44 784.31 239.44 784.31C239.44 784.31 251.96 770.44 254.73 771.73C257.5 773.02 256.22 775.28 253.58 777.58C250.94 779.88 248.51 782.51 248.51 782.51C248.51 782.51 265.79 771.29 274.1 770.18C282.41 769.07 286.91 769.83 286.91 769.83C286.91 769.83 278.09 773.13 276.22 775.24C274.35 777.35 276.25 781.57 276.25 781.57L231.79 820.64L199.17 826.68L189.08 810.36Z" fill="#F5F9FA"/>
<path d="M356.02 818.74C356.02 818.74 356.68 801.63 359.21 801.56C361.75 801.49 362.77 804.91 362.77 804.91C362.77 804.91 365.66 789.4 368.29 786.77C370.92 784.14 371.37 771.35 374.15 768.08C376.93 764.81 380.35 764.07 380.35 764.07C380.35 764.07 378.6 775.94 380.73 774.6C382.86 773.26 387.65 765.46 389.41 763.82C391.16 762.17 392.31 763.9 393.03 763.72C393.75 763.54 395.89 767.79 395.89 767.79C395.89 767.79 386.14 773.81 387.92 778.08C389.7 782.34 395.95 769.55 395.95 769.55L396.9 775.75C396.9 775.75 407.02 764.61 409.18 764.39C411.35 764.17 413.18 764.6 413.18 764.6C413.18 764.6 414.44 759.13 416.8 759.23C419.16 759.32 419.78 761.54 419.1 762.68C418.42 763.82 416.13 765.87 416.13 765.87C416.13 765.87 429.91 755.67 433.15 755.1C436.39 754.53 439.25 753.33 439.67 754.92C440.09 756.51 434.85 767.19 434.85 767.19L356.02 818.74Z" fill="#F5F9FA"/>
<path d="M461.02 784.67C461.02 784.67 463.98 776.3 465.05 770.52C466.11 764.74 468.67 755.08 468.67 755.08C468.67 755.08 472.66 754.59 474.86 753.12C477.06 751.65 479.15 749.04 482.73 747.98C486.32 746.92 490.88 752.81 490.87 752.68C490.86 752.55 461.02 784.67 461.02 784.67Z" fill="#F5F9FA"/>
<path d="M59.8899 718.3C59.8899 718.3 59.8699 722.77 64.0699 723.62C68.2699 724.47 65.0799 736.85 69.7999 737.04C74.5199 737.23 73.4899 728.63 73.4899 728.63C73.4899 728.63 75.6099 726.97 77.8799 734.74C80.1499 742.51 86.0799 756.24 86.9599 758.13C87.8399 760.02 81.4399 758.44 81.7299 761.47C82.0199 764.5 83.6899 765.73 85.4699 764.72C87.2499 763.71 86.4699 761.66 88.3899 762.56C90.3099 763.46 92.8499 768.51 96.1199 768.58C99.3899 768.65 90.2399 761.23 91.4199 758.8C92.5999 756.37 104.45 773.46 105.33 777.75C106.21 782.04 105.5 756.98 99.3099 751.24C93.1199 745.5 98.4699 742.96 102.12 748.61C105.77 754.26 107.7 773.04 107.75 774.41C107.8 775.78 111.82 775.86 111.25 778.09C110.68 780.33 109.07 786.12 110.53 786.4C111.99 786.68 113.39 780.06 112.83 774.66C112.28 769.26 112.14 755.37 106.31 749.3C100.48 743.23 110.76 749.18 112.27 757.44C113.78 765.71 115.83 792.65 115.83 792.65C115.83 792.65 117.1 792.77 118.79 789.21C120.48 785.65 118.38 757.27 116.16 756.05C113.94 754.83 117.74 754.25 118.53 756.14C119.31 758.04 120.79 784.19 120.83 785.31C120.87 786.43 122.85 786.05 124.21 783.46C125.57 780.87 123.11 772.95 123.83 772.93C124.55 772.91 124.75 783.45 126.02 783.41C127.29 783.37 130.21 782.91 131.13 784.39C132.05 785.87 125.85 773.51 125.77 771.28C125.69 769.05 123.38 758.78 123.38 758.78L117.53 743.55L61.3299 700.7L59.8899 718.3Z" fill="#97B5C7"/>
<path d="M185.27 779.85C185.27 779.85 187.39 781.39 186.97 779.8C186.55 778.21 178.82 766.61 176.93 766.18C175.05 765.75 174.1 769.61 176.16 771.47C178.22 773.33 185.27 779.85 185.27 779.85Z" fill="#B2BDCD"/>
<path d="M199.74 777.21C199.74 777.21 196.7 773.27 194.86 772.38C193.02 771.49 191.24 767.55 192.86 767.18C194.48 766.82 196.7 768.19 197.47 769.29C198.24 770.39 199.74 777.21 199.74 777.21Z" fill="#B2BDCD"/>
<path d="M210.29 767.98C210.29 767.98 212.9 775.1 217.93 773.84C222.96 772.58 229.54 766.73 231.51 764.64C233.48 762.55 231.13 757.82 228.98 758.36C226.82 758.9 221.51 767.44 220.2 766.23C218.89 765.03 217.17 762.52 215.9 762.55C214.63 762.59 209.67 760.58 207.25 758.92C204.83 757.26 203.46 759.32 203.87 760.61C204.28 761.9 204.26 766.45 205.72 766.77C207.18 767.09 209.21 768 209.21 768L210.29 767.98Z" fill="#99B5C6"/>
<path d="M336.68 799.95L337.23 790.03C337.23 790.03 343.25 796.09 344.07 798.95C344.9 801.8 345.33 808.82 345.33 808.82L336.68 799.95Z" fill="#B1BECB"/>
<path d="M67.4699 703.76C67.4699 703.76 86.0199 720.68 94.5899 724.44C103.16 728.2 108.76 729.13 111.69 730.51C114.62 731.88 118.48 735.95 118.48 735.95C118.48 735.95 112.69 735.38 110.99 733.8C109.29 732.21 108.03 737.51 104.74 737.61C101.45 737.7 101.72 733.7 101.72 733.7C101.72 733.7 100.61 737.36 98.9199 735.96C97.2199 734.55 98.5799 732.16 97.2999 731.1C96.0199 730.03 72.6299 711.97 67.4699 703.76Z" fill="#B2BDCD"/>
<path d="M138.99 739.01C138.99 739.01 145.6 739.55 149.82 742.34C154.04 745.13 158.93 745.69 159.48 743.42C160.03 741.15 152.1 738.65 149.09 737.1C146.08 735.55 138.99 739.01 138.99 739.01Z" fill="#B2BDCD"/>
<path d="M438.2 762.7C438.2 762.7 443.78 751.47 437.55 744.37C431.32 737.27 445.89 747.05 446.34 748.12C446.79 749.19 449.48 755.3 449.8 752.75C450.12 750.2 447.14 747.47 446.05 745.73C444.96 743.99 439 735.8 439 735.8C439 735.8 443.04 736.41 446.05 739.96C449.06 743.51 450.05 748.02 451.77 750.15C453.49 752.28 453.31 752.77 454.99 753.66C456.67 754.55 457.15 756.54 457.93 755.24C458.71 753.94 458.76 750.5 459.81 750.47C460.86 750.44 462.71 750.39 463.67 754.18C464.63 757.97 466.3 765.26 465.06 770.51C463.82 775.76 461.03 784.66 461.03 784.66L438.2 762.7Z" fill="#91B2C4"/>
<path d="M459.9 773.37C459.9 773.37 455.74 768.14 456.39 762.85C456.7 760.32 459.74 762.89 460.3 764.27C461.22 766.57 459.9 773.37 459.9 773.37Z" fill="#FEFEFD"/>
<path d="M150.44 705.02C150.44 705.02 168.49 750.9 178.75 744.18C189.01 737.46 192.72 724.59 197.75 721.26C202.79 717.93 203.31 713.19 201.17 712.71C199.02 712.23 191.62 716.01 187.27 722.61C182.92 729.21 179.47 734.79 174.76 728.54C170.05 722.29 155.87 705.13 150.44 705.02Z" fill="#9FB4C6"/>
<path d="M235.14 652.16L197.43 672.35L199.64 722.54C199.64 722.54 206.86 730.58 207.83 732.15C208.79 733.72 207.96 735.76 211.85 734.91C215.74 734.06 218.34 730.93 223.39 728.46C228.42 725.99 232.39 724.29 234.14 719.99C235.9 715.68 236.62 711.94 239.78 711.06C242.94 710.17 252.38 713.37 252.89 710.7C253.41 708.02 250.95 706.44 255.39 704.22C259.84 702 262.88 702.65 263.23 704C263.58 705.35 264.99 710.89 259.67 714.23C254.37 717.57 252.66 714.79 250.79 716.12C248.93 717.44 245.95 718.72 248.2 722.58C250.45 726.44 256.32 730.27 259.35 730.45C262.37 730.63 264.5 729.78 264.56 732.17C264.62 734.57 265.59 736.45 268.95 737.52C272.3 738.6 273.66 734.46 276.33 733.12C279 731.77 280.22 732.16 281.76 732.97C283.3 733.77 284.06 729.77 287.01 727.82C289.95 725.88 299.96 718.69 303.52 716.99C307.07 715.3 305.64 717.34 302.45 721.08C299.26 724.83 300.13 727.99 297.21 728.34C294.28 728.69 291.72 733.16 293.8 732.36C295.88 731.56 298.62 732.02 301.55 729.81C304.49 727.6 305.3 725.06 309.26 726.08C313.22 727.1 311.49 728.89 314 731.8C316.52 734.72 317.27 738.96 321.26 740.83C325.25 742.71 329.74 741.95 332.81 743.25C335.88 744.55 335.1 749.35 339.08 750.57C343.07 751.79 344.61 752.61 347.68 754.35C350.76 756.09 353.97 761.23 353.97 761.23C353.97 761.23 372.52 746.21 374.36 735.52C376.2 724.83 235.14 652.16 235.14 652.16ZM243.16 696.61C242.53 704.57 231.51 716.81 228.11 718.19C224.7 719.56 226.04 716.32 223.87 716.54C221.69 716.76 225.47 720.81 224.06 721.82C222.64 722.83 219.54 722.75 210.19 725.74L201.05 709.29L201.97 703.59L212.99 722.45C212.99 722.45 218.05 715.26 216.22 710.5C214.4 705.74 220.16 704.28 222.49 703.03C224.81 701.77 226.6 701.07 226.6 701.07L226.9 709.56C226.89 709.56 242.43 699.77 243.16 696.61ZM268.05 726.38L260.11 728.05C256.24 726.71 252.88 719.11 252.88 719.11L263.98 724.26C263.98 724.26 266.24 716.34 268.83 717.39C271.41 718.43 268.05 726.38 268.05 726.38Z" fill="#B2BDCD"/>
<path d="M552.7 753.45C552.7 753.45 542.93 734.52 539.68 728.54C536.43 722.56 526.74 713.59 526.74 713.59C526.74 713.59 542.77 730.16 544.04 727.2C545.31 724.24 540.7 718.54 537.29 715.72C533.88 712.9 517.17 700.48 515.47 699.07C513.77 697.66 521 699.4 523.54 701.28C526.09 703.15 524.38 701.74 529.41 703.55C534.44 705.35 534.47 706.33 536.75 708.45C539.03 710.57 543.13 717.26 547.33 719.09C551.53 720.92 554.19 725.95 556.48 728.31C558.77 730.68 560.66 733.3 562.56 734.46C564.46 735.62 565.91 737.53 565.83 735.34C565.75 733.16 567.21 731.39 562.23 725.22C557.25 719.05 554.08 715.25 554.8 712.07C555.51 708.89 557.83 711.99 559.82 713.63C561.81 715.28 564.15 719.08 567.4 725.07C570.65 731.07 571.54 732.99 576.09 736.75C580.64 740.51 583.23 743.84 585.26 746.46C587.28 749.08 587.89 750.52 590.71 752.38C593.53 754.25 595.52 755.89 596.48 759.51C597.44 763.13 599 768.43 600.52 772.28C602.04 776.13 602.85 775.86 603.37 782.65C603.89 789.44 597.22 795.7 587.81 786.97C578.4 778.24 568.08 751.55 566.36 749.66C564.64 747.76 565.18 743.42 562.87 742.49C560.56 741.56 559.82 742.84 559.49 745.74C559.16 748.64 558.56 754.98 558.63 756.92C558.69 758.88 552.7 753.45 552.7 753.45Z" fill="#91B2C4"/>
<path d="M592.22 730.42C592.22 730.42 589.82 728.93 592.05 725.51C594.28 722.09 596.53 727.71 597.5 730.27C598.47 732.83 596.31 738.06 597.83 739.57C599.35 741.08 599.87 744.69 602.06 745.66C604.25 746.63 606.34 749.64 606.34 749.64C606.34 749.64 617.34 783.45 617.22 793.18C617.1 802.91 612.4 802.67 612.4 802.67L587.38 734.42L592.22 730.42Z" fill="#A8BCCB"/>
<path d="M610.31 793.38C610.31 793.38 610.9 785.25 607.97 777.05C605.04 768.85 601.93 755.75 598.36 754.3C594.79 752.85 580.91 734.09 578.71 729.76C576.5 725.42 579.51 719.39 573 717.76C566.49 716.13 551.37 703.62 550.7 701.31C550.03 699 560.08 701.05 560.08 701.05C560.08 701.05 559.32 696.16 555.46 694.97C551.6 693.78 544.82 692.94 537.63 688.74C530.44 684.54 527.02 679.21 521.99 678.05C516.96 676.89 514.43 676.45 514.43 676.45C514.43 676.45 510.94 673.7 514.24 671.02C517.54 668.34 516.66 668.37 522.91 670.78C529.16 673.19 534.88 677.43 536.45 680.23C538.02 683.03 538.15 686.91 545.28 689.3C552.41 691.69 565.68 693.65 568.67 695.12C571.66 696.59 572.57 697.6 575.97 702.42C579.37 707.24 587.96 725.88 588.6 727.42C589.24 728.96 594 738.91 594 738.91L587.29 731.7C587.29 731.7 595.68 741.96 602.35 753.68C609.02 765.4 613.58 777.94 613.15 782.35C612.72 786.76 613.69 796.04 613.69 796.04L610.31 793.38Z" fill="#91B2C4"/>
<path d="M618.68 797.83C618.68 797.83 616.41 791.82 615.59 785.12C614.76 778.42 606.47 751.49 604.92 749.21C603.37 746.93 609.17 753.23 610.93 749.04C612.69 744.85 617.81 740.31 620.66 737.91C623.51 735.5 626.95 733.34 626.95 733.34C626.95 733.34 615.43 746.33 616.05 747.87C616.67 749.41 625.44 765.2 626.15 776.82C626.86 788.44 624.01 807.32 624.01 807.32C624.01 807.32 624.23 796.99 622.62 793.06C621.01 789.12 617.31 774.4 616.86 770.58C616.41 766.75 614.3 765.26 614.3 765.26C614.3 765.26 618.3 795.38 618.68 797.83Z" fill="#91B2C4"/>
<path d="M486.58 718.49C486.58 718.49 480.94 715.93 482.16 715.35C483.38 714.77 486.97 712.14 485.33 712C483.68 711.86 485.27 715.98 479.64 713.79C474.02 711.59 471.53 710.94 468.25 711.21C464.97 711.48 462.09 713.55 458.76 714.19C455.44 714.82 456.55 711.3 456.55 711.51C456.56 711.72 451.3 714 447.87 715.65C444.44 717.3 441.25 719.92 440.89 721.38C440.53 722.84 442.6 723.14 440.53 722.84C438.46 722.54 424.59 719.61 424.78 721.89C424.97 724.17 441.97 734.56 443.82 734.51C445.67 734.46 451.87 730.01 451.2 728.36C450.53 726.72 438.21 726.84 442.19 723.22C446.17 719.6 447.9 716.47 453.64 715.95C459.37 715.43 453.06 722.84 457.88 719.81C462.7 716.78 463.61 713.5 467.12 714.12C470.63 714.75 473.74 715.38 475.83 716.41C477.92 717.44 479.42 719.21 482.51 719.48C485.6 719.75 486.58 718.49 486.58 718.49Z" fill="#91B2C4"/>
<path d="M485.03 728.67C485.03 728.67 478.51 722.7 475.66 723.5C472.81 724.3 472.56 728.83 475.85 728.92C479.14 729.01 480.62 730.24 481.25 730.76C481.88 731.29 486.83 731.69 491.12 731.21C495.42 730.73 499.38 731.85 499.82 730.14C500.26 728.43 492.85 728.3 485.03 728.67Z" fill="#91B2C4"/>
<path d="M634.37 802.08C634.37 802.08 629.22 787.82 627.74 785.04C626.26 782.26 625.81 773.46 625.45 771.87C625.09 770.28 622.47 753.32 622.7 749.33C622.93 745.34 627 737.76 633.65 739.57C640.3 741.38 642.62 742.81 640.29 746.36C637.96 749.91 636.22 748.3 636.04 753.95C635.86 759.6 632.54 772.64 632.94 775.78C633.35 778.92 633.82 781.73 635.06 779.37C636.29 777.01 637.18 758.4 641.63 757.11C646.08 755.83 645.48 758.83 644.55 765C643.62 771.17 640.96 775.89 641.02 777.55C641.08 779.21 640.85 778.05 644.04 777.63C647.23 777.21 646.89 783.53 644.41 787.91C641.93 792.28 634.37 802.08 634.37 802.08Z" fill="#F5F9FA"/>
<path d="M648.47 796.08C648.47 796.08 645.07 779.91 647.69 774.19C650.31 768.47 649.54 757.38 653.71 752.95C657.88 748.52 662.41 743.58 665.53 741.17C668.65 738.76 673.37 733.82 673.46 736.47C673.55 739.12 670.06 752.16 670.06 752.16C670.06 752.16 678.12 745.8 682 743.86C685.89 741.93 690.66 738.48 689.17 744.33C687.68 750.18 684.42 753.59 684.42 753.59C684.42 753.59 714.47 735.5 719.81 732.2C725.15 728.9 726.64 728.36 730.34 726.43C734.04 724.5 733.22 722.7 736.03 722.29C738.84 721.88 741 724.48 739.2 726.68C737.4 728.89 735.67 727.94 732.87 728.85C730.07 729.76 727.53 732.15 726.09 734.18C724.65 736.21 723.15 736.22 718.89 738.18C714.63 740.14 713.55 741.66 715.06 741.62C716.57 741.58 721.64 741.27 724.58 739.36C727.52 737.45 728.72 733.93 734.47 731.62C740.22 729.3 740.08 730.47 746.72 726.63C753.36 722.8 754.05 720.95 761.16 719.76C768.27 718.57 764.43 716.35 775.1 714.73C785.78 713.11 788.76 712.36 794.03 712.38C799.3 712.4 803.24 711.96 803.22 716.77C803.2 721.58 740.47 779.08 740.47 779.08L648.47 796.08Z" fill="#F5F9FA"/>
<path d="M627.2 716.98C627.2 716.98 621.41 723.69 620.66 723.68C619.91 723.68 616.74 724.59 617.23 722.59C617.73 720.59 627.2 716.98 627.2 716.98Z" fill="#F5F9FA"/>
<path d="M654.51 706.62C654.51 706.62 653.09 708.98 649.18 710.25C645.27 711.52 644.34 711.88 639.3 713.18C634.26 714.48 632.47 717.02 631.68 716.05C630.89 715.08 630.2 714.76 632.63 712.7C635.06 710.64 635.77 709.46 638.57 708.72C641.38 707.98 651.66 705.87 654.51 706.62Z" fill="#F5F9FA"/>
<path d="M678.24 701.49C678.24 701.49 676.23 703.21 673.78 703.27C671.33 703.34 670.06 702.96 665.25 705.41C660.44 707.87 656.21 712.22 655.94 710.07C655.68 707.92 656.89 704.9 660.03 703.32C663.17 701.74 673.68 700.12 678.24 701.49Z" fill="#F5F9FA"/>
<path d="M692.43 708.56C692.43 708.56 689.54 712.09 687.75 714.73C685.96 717.37 682.3 720.46 680.05 720.52C677.8 720.58 677.25 715.78 678.65 712.92C680.05 710.06 683.59 708.8 686.03 708.73C688.48 708.67 692.43 708.56 692.43 708.56Z" fill="#F5F9FA"/>
<path d="M716.95 699.09C716.95 699.09 713.16 703.84 709.85 705.93C706.53 708.01 704.1 708.41 701.27 708.32C698.44 708.23 696.26 710.45 696.94 708.44C697.62 706.43 697.44 706.51 700.96 705.13C704.48 703.75 716.95 699.09 716.95 699.09Z" fill="#F5F9FA"/>
<path d="M715.24 703.96C715.24 703.96 724.77 701.86 730.6 701.7C736.43 701.54 743.88 699.18 746.07 697.29C748.26 695.4 743.37 695.54 741.88 695.91C740.39 696.28 735.51 696.92 735.51 696.92C735.51 696.92 741.06 694.28 740.28 693.3C739.49 692.33 736.89 693.23 734.31 694.79C731.73 696.35 715.24 703.96 715.24 703.96Z" fill="#F5F9FA"/>
<path d="M606.91 706.95L592.75 712.41L603.53 716.83C603.53 716.83 612.56 708.18 618.49 707.41C624.42 706.64 626.97 702.57 630.51 702.15C634.05 701.74 642.95 695.93 649.48 692.67C656.02 689.4 663.43 681.17 663.43 681.17L663.24 675.93C663.24 675.93 665.73 677.1 672.34 675.68C678.95 674.26 683.18 674.15 691.15 672.38C699.12 670.62 710.6 668.45 710.6 668.45C710.6 668.45 711.21 675.84 710.9 676.77C710.59 677.7 707.54 680.88 707.54 680.88C707.54 680.88 708.26 682.4 711.22 681.4C714.18 680.4 723.82 675.8 725.92 675.75C728.02 675.7 730.09 676.25 730.09 676.25C730.09 676.25 735.46 678.26 734.46 679.52C733.45 680.78 732.31 680.2 734.71 682.6C737.11 685 736.76 685.01 742.74 685.77C748.72 686.53 749.09 687.14 756.47 687.86C763.85 688.58 761.65 685.86 761.65 685.86C761.65 685.86 754.01 677.74 757.91 679.17C761.81 680.61 766.56 682.07 771.86 686.92C778.95 693.39 787.35 699.66 787.35 699.66C787.35 699.66 777.1 685.06 772.2 681.61C767.3 678.16 768.89 673.13 768.89 673.13L716.05 630.99L668.48 629.14L606.91 706.95Z" fill="#9DBFD2"/>
<path d="M811.73 693.9L824.78 680.67C824.78 680.67 825.44 688.11 828.6 684.96C831.76 681.81 829.93 670.67 830.11 670C830.29 669.33 833.87 672.28 835.35 673.59C836.83 674.89 844.4 686.51 844.4 686.51L845.94 695.15L834.34 697.07L821.49 698.15L815.49 696.33L811.73 693.9Z" fill="#F5F9FA"/>
<path d="M886.25 660.28L878.16 668.58L877.2 664.57L881.66 660.41C881.66 660.41 883.12 658.39 886.11 656.14C889.1 653.89 898.49 647.54 898.49 647.54C898.49 647.54 895.6 652.63 893.6 653.95C891.6 655.27 892.18 659.94 888.1 663.3C884.02 666.66 892.83 661 895.45 659.85C898.07 658.7 898.15 660.86 902.94 657.66C907.74 654.46 907.32 654.29 910.94 652.39C914.56 650.49 916.79 650.06 916.79 650.06L926.53 653.4L923.87 665.03L902.56 678.59L900.24 667.98C900.24 667.98 895.86 665.54 889.81 668.27C883.77 671 876.54 674.99 876.54 674.99L886.25 660.28Z" fill="#F5F9FA"/>
<path d="M713.42 659.01L699.62 653.03C699.62 653.03 693.31 653.58 694.41 651.48C695.51 649.38 698.35 650.34 702.13 651.27C705.92 652.2 716.36 655.83 713.42 659.01Z" fill="#F5F9FA"/>
<path d="M684.79 637.71C684.79 637.71 679.46 645.29 676.57 646.61C673.68 647.93 670.22 649.47 670.16 647.82C670.1 646.17 672.58 643 676.38 641.25C680.17 639.49 684.79 637.71 684.79 637.71Z" fill="#F5F9FA"/>
<path d="M211.47 671.54C211.47 671.54 301.47 695.64 335.35 713.14C357.83 724.75 375.31 735.96 384.53 742.19C389.21 745.35 391.76 747.23 391.76 747.23C391.76 747.23 402.72 737.26 407.85 736.81C412.98 736.37 417.73 735.03 417.73 735.03C417.73 735.03 418.87 728.65 421.2 726.47C423.53 724.29 424.51 723.05 426.07 718.78C427.63 714.51 440.92 702.66 447.69 700.05C454.45 697.45 470.5 685.82 474.23 684.81C477.97 683.8 482.45 684.58 482.45 684.58C482.45 684.58 491.53 679.49 493.61 670.67C495.7 661.85 529.54 659.1 529.54 659.1C529.54 659.1 537.92 663.4 545.8 663.18C553.68 662.96 560.3 670.92 560.47 675.44C560.63 679.97 603.26 707.22 603.26 707.22C603.26 707.22 625.48 695.73 630.17 682.9C634.86 670.08 651.31 669.89 655.89 654.22C660.47 638.55 686.07 635.1 686.07 635.1C686.07 635.1 712.31 649.77 720.97 652.42C729.64 655.07 776.81 680.03 782.8 684.41C788.78 688.79 794.79 693.76 796.91 695.51C799.03 697.26 806.74 701.89 806.74 701.89C806.74 701.89 830.18 676.46 835.12 670.89C840.06 665.31 843.22 657.67 857.83 653.94C872.44 650.21 897.09 649.23 908.59 644.68C920.09 640.13 946.45 629.43 963.53 618.08C980.61 606.73 1064.06 514.06 1064.06 514.06L171.43 538.75L48.7099 606.81L208.8 663.73L211.47 671.54Z" fill="url(#paint6_linear_108_3609)"/>
<path d="M385.92 739.62L385.33 722.94L386.31 716.55L393.63 727.87C393.63 727.87 392.21 704.85 391.15 700.44C390.09 696.03 387.45 689.48 386.26 689.78C385.07 690.08 384.34 694.87 382.01 688.57C379.68 682.27 379.86 678.83 374.71 677.64C369.56 676.45 365.25 674.81 358.16 669.27C351.07 663.72 344.67 661.25 337.33 657.74C329.99 654.23 316.92 667.05 316.92 667.05C316.92 667.05 300.52 670.94 297.28 672.75C294.04 674.57 291.95 675.16 289.01 676.83C286.07 678.5 281.15 679.17 281.15 679.17C281.15 679.17 323.17 707.42 329.07 712.56C334.93 717.72 385.92 739.62 385.92 739.62Z" fill="#9FB4C6"/>
<path d="M371.37 736.19C371.37 736.19 329.98 696.59 312.83 688.53C295.68 680.47 293.78 674.51 293.78 674.51C293.78 674.51 331.25 691.04 336.99 693.09C342.73 695.13 364.32 713.81 364.32 713.81C364.32 713.81 343.27 684.11 334.96 678.56C326.64 673.01 348.47 680.94 354.92 686.54C361.37 692.14 373.94 703.08 373.94 703.08L366.86 688.41C366.86 688.41 390.53 705.6 392.27 709.7C394 713.81 393.62 727.87 393.62 727.87L386.3 716.55L385.92 739.61L371.37 736.19Z" fill="#95B0C2"/>
<path d="M393.13 750.73C393.13 750.73 384.06 717.67 380.73 710.61C377.4 703.55 393.62 727.89 393.62 727.89C393.62 727.89 388.93 702.95 399.81 701.55C406.26 700.72 400.04 716.68 405.3 715.44C410.57 714.19 410.1 709.8 413.91 711.62C417.72 713.44 416.25 715.96 414.21 720.15C412.17 724.34 402.23 739.2 402.23 739.2L393.13 750.73Z" fill="#F5F9FA"/>
<path d="M422.35 728.3C422.35 728.3 418.37 723.85 422.01 718.8C425.65 713.75 426.22 710.96 428.26 711.3C430.29 711.64 427.65 713.89 429.79 713.73C431.94 713.58 422.35 728.3 422.35 728.3Z" fill="#F5F9FA"/>
<path d="M439.63 708.81C439.63 708.81 439.68 708.4 439.8 707.74C440.17 705.68 441.19 701.21 443.33 699.2C446.16 696.55 448.01 698.08 452.67 690.03C457.33 681.98 458.33 678.58 462.51 676.09C466.69 673.6 471.41 673.67 471.49 675.84C471.57 678.01 464.1 682.78 464.1 682.78C464.1 682.78 469.05 681.95 470.87 682.49C472.69 683.03 466.94 686.86 466.94 686.86C466.94 686.86 476.73 684.01 473.48 687.47C470.23 690.93 439.63 708.81 439.63 708.81Z" fill="#F5F9FA"/>
<path d="M445.4 694.19C445.4 694.19 447.22 688.59 447.13 686.02C447.04 683.45 447.15 680.28 449.91 681.98C452.67 683.69 451.81 691.04 445.4 694.19Z" fill="#F5F9FA"/>
<path d="M481.99 686.88C481.99 686.88 480.56 678.17 483.37 675.12C486.18 672.07 494.46 668.97 494.46 668.97L494.89 681.14L481.99 686.88Z" fill="#F5F9FA"/>
<path d="M393.88 662.5C393.88 662.5 406.2 666.66 406.37 671.41C406.54 676.16 408.76 663.77 418.29 661.97C427.82 660.17 434.48 658.7 443.26 651.78C452.05 644.86 452.67 646.08 452.77 648.67C452.86 651.26 450.38 656.72 450.38 656.72C450.38 656.72 438.79 661.41 428.34 664.52C417.89 667.63 421.65 672.47 423.75 675.46C425.85 678.46 428.96 682.05 428.96 682.05C428.96 682.05 429.52 675.07 434.05 671.45C438.58 667.83 450.39 661.34 455.48 658.12C460.57 654.9 463.37 651.74 468.56 650.31C473.75 648.88 476.96 648.79 477.65 651.86C478.34 654.92 484.08 660.67 484.08 660.67C484.08 660.67 490.77 652.01 496.56 651.08C502.36 650.15 531.04 645.5 537.62 641.98C544.2 638.46 541.29 638.78 547.89 635.65C554.48 632.52 556.6 634.78 561.12 630.8C565.64 626.82 573.36 622.5 583.45 619.65C593.55 616.8 601.81 619.66 611.01 616.06C620.21 612.47 621.52 608.47 628.47 607.31C635.42 606.14 647.33 613.26 648.21 613.24C649.09 613.22 659.39 608.05 660.83 607.5C662.27 606.95 660.61 601.34 660.61 601.34L674.84 598.12L615.59 589.19L487.57 611.21L403.17 638.92L393.88 662.5Z" fill="#B0CFDF"/>
<path d="M554.43 647.77C554.43 647.77 556.32 651.52 559.62 651.43C562.92 651.34 564.13 649.52 568.29 652.31C572.45 655.1 571.48 656.47 575.03 656.49C578.58 656.5 580.74 660.25 582.38 656.29C584.01 652.33 581.9 649.93 585.44 649.61C588.98 649.29 591.47 647.84 590.85 644.86C590.24 641.88 589.33 637.88 585.03 638.22C580.73 638.56 579.01 640.18 576.27 641.59C573.53 643.01 571 643.3 566.19 643.43C561.38 643.56 558.48 647.65 554.43 647.77Z" fill="#F5F9FA"/>
<path d="M604.05 709C604.05 709 605.74 699.56 608.19 697.03C610.64 694.5 611.2 687.16 611 683.3C609.58 686.15 607.23 690.35 607.54 692.35C607.85 694.35 605.95 675.62 606.83 672.47C607.71 669.32 613.57 676.93 613.57 676.93C613.57 676.93 613.87 664 614.35 663.1C614.83 662.19 616.88 662.81 618.32 660.53C619.76 658.25 620.47 656.9 622.95 655.15C625.43 653.4 627.19 653.13 627.77 655.02C628.34 656.9 625.27 663.25 629.26 661.13C633.24 659.01 633.76 659.22 634.11 654.85C634.46 650.48 636.88 647.06 641.51 641.79C646.14 636.52 649.13 634.87 649.13 634.87C649.13 634.87 653.07 638.56 650.87 640.86C648.67 643.16 640.47 648.08 638.89 653.49C637.31 658.9 639.33 658.84 639.33 658.84C639.33 658.84 640.96 654.77 645.61 649.95C650.26 645.13 651.72 643.3 656.13 639.15C660.55 635 661.53 634.06 663.25 632.46C664.97 630.86 667.57 632.78 667.69 635.92C667.8 639.06 668.48 643.96 664.6 648.76C660.71 653.56 631.61 691.26 631.61 691.26L611.38 707.47L604.05 709Z" fill="#F5F9FA"/>
<path d="M621.06 637.19C621.06 637.19 638.28 632.52 641.28 628.91C644.28 625.3 647.84 617.69 645.56 617.3C643.29 616.91 629.01 635.8 621.06 637.19Z" fill="#F5F9FA"/>
<path d="M518.1 638.75C518.1 638.75 509.66 640.86 505.89 643.69C502.12 646.52 497.98 644.59 499.85 642.66C501.72 640.74 518.1 638.75 518.1 638.75Z" fill="#F5F9FA"/>
<path d="M487.09 649C487.09 649 488.54 647.59 493.59 644.38C498.64 641.17 502.14 641.62 502.14 641.62C502.14 641.62 499.32 641.89 492.94 649.86C490.48 652.93 487.09 649 487.09 649Z" fill="#F5F9FA"/>
<path d="M702.1 640.17C702.1 640.17 699.23 639.97 702 637.24C704.77 634.51 707.61 633.8 709.36 631.18C711.11 628.56 712.32 628.17 714.81 629C717.3 629.83 720.92 633.98 722.35 633.98C723.78 633.98 723.19 634.64 725.42 633.9C727.64 633.16 729.51 633.92 731.14 633.74C732.77 633.56 739.57 640.74 739.57 640.74C739.57 640.74 734.02 634.45 736.86 633.73C739.7 633.01 740.84 636.4 744.21 639.01C747.58 641.62 746.21 643.52 749.59 646.37C752.97 649.23 757.41 659.02 757.41 659.02L767.45 670.83C767.45 670.83 758.26 665.49 752.68 664.02C747.1 662.55 745.44 661.95 743.06 658.19C740.68 654.43 736.23 650.14 732.94 649.91C729.65 649.68 723.24 647.52 722.17 646.28C721.1 645.05 717.63 639.55 714.53 638.56C711.43 637.57 702.1 640.17 702.1 640.17Z" fill="#D9F1FA"/>
<path d="M797.71 699.02C797.71 699.02 793.16 691.93 791.77 687.28C790.38 682.63 789.76 676.87 784.33 673.6C778.89 670.32 774.15 663.42 770.77 660.45C767.39 657.48 759.77 650.47 759.77 650.47C759.77 650.47 770.38 655.3 772.09 657.38C773.8 659.46 774.45 660.34 778.33 663.12C782.21 665.9 785.61 669.25 786.91 671.19C788.21 673.13 789.5 674.9 792.65 677.33C795.8 679.76 795.97 678.5 799.42 683.46C802.87 688.42 804.34 689.46 804.28 693.61C804.22 697.76 801.93 702.33 801.93 702.33L797.71 699.02Z" fill="#90B9CD"/>
<path d="M838.08 674.82C838.08 674.82 828.98 669.97 823.62 663.63C818.26 657.29 813.5 648.99 813.5 648.99L799.33 652.01L790.4 639.32C790.4 639.32 790.41 639.57 783.59 636.21C776.78 632.86 775.08 629.14 772.64 629.42C770.2 629.7 761.94 629.71 761.94 629.71L749.59 615.13C749.59 615.13 765.53 624.13 767.51 623.29C769.49 622.45 771.07 616.7 772.63 616.66C774.19 616.62 774.26 624.88 774.26 624.88L782.48 623.87L786.12 619.64C786.12 619.64 794.09 624.07 795.06 626.34C796.03 628.61 796.03 628.61 796.03 628.61C796.03 628.61 812.9 632.47 819.08 636.63C825.25 640.79 835.94 646.4 835.94 646.4C835.94 646.4 869.06 649.02 883 645.78C896.94 642.54 905.27 638.16 911.79 633.37C918.31 628.58 922.87 627.83 929.18 625.12C935.5 622.4 955.14 608.47 955.14 608.47C955.14 608.47 938.43 623.28 936.7 624.91C934.97 626.55 929.46 632.88 929.46 632.88L923.07 636.9C923.07 636.9 934.57 634.02 937.69 630.79C940.81 627.56 946.27 624.45 946.27 624.45C946.27 624.45 943.42 631.78 942.78 632.5C942.15 633.21 838.08 674.82 838.08 674.82Z" fill="#E4ECF2"/>
<path d="M825.27 647.36C823.89 647.37 815.39 645.54 813.54 643.93C811.7 642.32 805.35 639.45 803.32 638.97C801.29 638.48 798.53 636 796.29 635.87C794.05 635.74 787.96 633.83 787.01 632.34C786.06 630.85 784.84 625.68 790.15 626.47C795.45 627.27 802.02 630.13 802.02 630.13C802.02 630.13 818.54 636.32 820.36 637.46C822.18 638.6 828.7 642.45 830.55 643.46C832.41 644.47 839.77 647.25 825.27 647.36Z" fill="#F1F8FC"/>
</svg>
